<svg width="152.686523" height="165.000000" viewBox="0 0 152.687 165" fill="none" xmlns="http://www.w3.org/2000/svg" xmlns:xlink="http://www.w3.org/1999/xlink">
	<desc>
			Created with Pixso.
	</desc>
	<defs/>
	<path id="Vector" d="M151.49 93.93C151.64 94.44 151.68 94.98 151.61 95.5C151.53 96.03 151.34 96.52 151.05 96.95C150.75 97.38 150.37 97.72 149.92 97.97C149.47 98.21 148.97 98.34 148.46 98.35C146.78 98.19 145.17 97.46 143.89 96.28C143.41 96.03 142.96 95.73 142.54 95.38C141.05 94 139.49 92.69 137.86 91.49C136.19 90.38 134.51 89.27 132.83 88.09C132.32 87.93 131.83 87.73 131.33 87.61C128.59 86.93 126.73 85.17 124.15 84.32C121.92 83.76 119.77 82.85 117.79 81.63C114.51 81.87 111.2 81.41 108.05 80.27C106.13 79.49 104.03 79.4 102.1 80.03C100.59 80.6 99.04 81.08 97.47 81.46C95.01 82.25 93.4 84.92 91.54 86.67C90.29 87.99 88.97 89.24 87.58 90.42C86.2 91.25 84.73 91.91 83.2 92.41C81.36 93.14 80.28 94.71 78.56 95.57C76.05 96.8 73.37 95.39 70.83 94.78C69.04 94.37 67.28 94.75 65.47 94.29C63.63 93.58 61.73 93.08 59.79 92.82C59.54 92.92 59.38 92.28 59.71 92.23C62.23 91.78 64.64 93.63 67.18 93.75C68.58 93.71 69.97 93.83 71.35 94.1C72.99 94.72 74.7 95.08 76.42 95.17C78.03 94.87 79.48 94.03 80.55 92.78C81.94 91.89 83.39 91.12 84.9 90.46C88.28 88.56 90.97 84.73 93.54 81.85C95.64 79.46 98.52 78.86 101 77.05C102.05 76.4 103.23 76 104.47 75.88C105.7 75.77 106.96 75.93 108.14 76.36C110.5 76.89 112.63 77.71 114.91 78.08C114.06 76.49 113.43 74.79 113.03 73.02C112.48 69.71 110.79 66.68 108.28 64.5C105.56 62.06 102.99 59.44 100.22 57.07C99.03 56.18 97.79 55.37 96.5 54.66C95.5 53.82 94.66 52.8 94.02 51.64C93.87 51.26 93.47 50.95 93.19 50.61C91.85 49.56 90.61 48.38 89.49 47.08L89.21 46.73C88.68 46.39 88.07 46.2 87.46 46.18C86.85 46.16 86.25 46.3 85.72 46.6C81.51 48.37 76.98 49.27 72.38 49.27C72.14 49.54 71.87 49.8 71.65 50.1C68.64 53.45 65 56.11 60.94 57.92C57.13 59.98 54.7 58.73 51.25 56.24C50.74 55.74 50.15 55.34 49.5 55.08C48.85 54.82 48.16 54.7 47.48 54.73C46.79 54.76 46.12 54.93 45.52 55.24C44.91 55.55 44.37 55.99 43.94 56.53C42.32 57.86 40.55 58.99 38.66 59.89C38.59 59.9 38.51 59.88 38.45 59.83C38.38 59.79 38.33 59.73 38.3 59.66C38.27 59.58 38.26 59.5 38.28 59.42C38.3 59.35 38.35 59.28 38.41 59.23C40 58.06 41.51 56.75 42.9 55.33C43.75 54.22 44.84 53.34 46.09 52.77C48.69 51.89 51.02 53.42 53.19 55.16C54.01 55.96 55.04 56.5 56.13 56.71C57.23 56.92 58.34 56.79 59.35 56.34C61.1 55.43 62.79 54.39 64.41 53.25C66.28 52.3 67.99 51.06 69.49 49.58L69.68 49.32L67.7 49.37C65.4 49.74 63.03 49.38 60.89 48.35C60.15 47.82 59.47 47.22 58.84 46.55C57.46 45.41 55.9 44.5 54.25 43.87C51.32 42.42 50.1 39.27 46.5 39.28C42.9 39.3 40.08 41.82 37.11 43.25C34.33 44.69 31.36 45.72 28.28 46.3C26.61 46.37 24.94 46.32 23.27 46.15C21.88 46.13 20.65 46.79 19.28 46.89C17.34 47.04 15.47 46.87 13.5 47.2C12.14 47.51 10.74 47.58 9.35 47.41C6.17 47.04 3.04 46.3 0 45.21C2.79 46 5.64 46.52 8.51 46.78C11.78 47.31 15.04 46.15 18.3 46.09C19.78 46.07 20.99 45.46 22.44 45.31C23.67 45.31 24.9 45.38 26.13 45.51C29.8 45.2 33.34 44.08 36.5 42.22C40.69 40.3 45.27 36 50.21 38.78C51.11 39.36 51.92 40.07 52.62 40.9C53.94 42 55.44 42.83 57.05 43.33C59.37 44.32 61.39 46.48 63.87 46.7C66.82 46.79 69.76 46.55 72.64 45.99L72.77 45.94C75.7 43.59 79.02 41.81 82.59 40.68C83.55 40.24 84.62 40.08 85.68 40.23C86.75 40.38 87.76 40.83 88.61 41.53C88.51 41.28 88.3 41.13 88.16 40.9C86.12 37.62 84.71 32.17 81.21 30.32C79.75 29.64 78.35 28.83 77.02 27.9C75.47 26.81 73.69 26.17 71.85 26.04C68.98 25.45 66.32 23.97 64.24 21.79C64.19 21.73 64.15 21.66 64.15 21.58C64.14 21.5 64.16 21.43 64.2 21.36C64.25 21.3 64.31 21.26 64.38 21.24C64.45 21.22 64.53 21.22 64.6 21.26C66.13 22.29 67.72 23.21 69.36 24.03C70.85 24.6 72.41 24.93 73.98 25.04C75.46 25.37 76.85 26.07 78.03 27.08C79.51 28.21 81.25 28.67 82.72 29.75C85.56 31.86 86.86 36.1 88.53 39.14C90.2 42.17 93.05 44.32 94.93 47.01C96.05 47.72 97.28 48.21 98.56 48.44C100.52 48.76 102.4 49.39 104.36 49.76C105.79 49.95 107.15 50.6 108.25 51.61C110.72 54.09 110.61 57.59 111.81 60.61C111.89 60.87 111.99 61.12 112.11 61.37C112.22 61.13 112.38 60.91 112.59 60.76C112.81 60.6 113.05 60.51 113.31 60.48C113.58 60.45 113.84 60.49 114.09 60.6C114.33 60.71 114.55 60.88 114.72 61.09C116.03 62.6 116.44 64.52 117.81 65.91C119.26 67.41 120.86 68.74 122.59 69.87C126.35 72.43 129.83 75.42 132.96 78.78C136.47 81.9 140.16 84.78 144.02 87.41C145.15 88.59 146.49 89.54 147.96 90.2C148.78 90.49 149.54 90.98 150.15 91.63C150.77 92.28 151.22 93.07 151.49 93.93ZM77.84 45.24L77.34 45.43C79.64 45.28 81.88 44.67 83.94 43.66C84.43 43.46 84.83 43.15 85.22 42.97C82.8 42.52 79.55 44.25 77.84 45.24ZM101.96 53.6C102.27 53.81 102.56 54.04 102.84 54.26C104.9 55.9 106.81 57.72 108.78 59.46C108.31 58.36 107.75 57.31 107.11 56.3C105.65 54.3 103.87 54.04 101.86 53.64L101.96 53.6ZM118.41 75.32C118.77 76.14 119.3 76.88 119.97 77.47C120.63 78.07 121.41 78.5 122.24 78.75C122.66 78.74 122.84 78.88 122.62 78.39C121.16 77.28 119.81 76.35 118.31 75.36L118.41 75.32Z" fill="#EEDAAE" fill-opacity="1.000000" fill-rule="nonzero"/>
	<path id="Vector" d="M57.07 101.68C57.07 101.4 57.07 101.13 57.07 100.84C57.07 100.28 57.07 99.71 57.07 99.16C57.08 99.02 57.07 98.87 57.03 98.73C57 98.59 56.94 98.46 56.87 98.35C56.79 98.24 56.7 98.15 56.6 98.09C56.49 98.03 56.38 98 56.27 98C56.15 98 56.04 98.03 55.94 98.09C55.84 98.15 55.74 98.24 55.67 98.35C55.59 98.46 55.54 98.59 55.5 98.73C55.47 98.87 55.46 99.02 55.47 99.16C55.47 99.42 55.47 99.67 55.47 99.93C55.47 100.19 55.47 100.16 55.42 100.27C55.32 100.76 55.26 101.27 55.26 101.79C55.26 101.88 55.26 101.97 55.26 102.07C55.26 102.16 55.26 102.18 55.26 102.26C55.15 102.45 55.09 102.69 55.09 102.93C55.09 103.17 55.15 103.41 55.26 103.6C55.31 103.73 55.39 103.84 55.49 103.91C55.59 103.98 55.7 104.01 55.81 103.99C55.92 103.98 56.03 103.92 56.11 103.83C56.2 103.73 56.26 103.61 56.29 103.47C56.47 103.46 56.63 103.38 56.77 103.24C56.91 103.11 57.01 102.92 57.06 102.7C57.1 102.36 57.11 102.02 57.07 101.68Z" fill="#FFFFFF" fill-opacity="1.000000" fill-rule="nonzero"/>
	<path id="Vector" d="M43.97 99.7C43.87 99.53 43.79 99.34 43.68 99.17L43.49 98.9L43.31 98.65C43.31 98.65 43.18 98.47 43.14 98.42C43.1 98.37 42.97 98.09 42.8 98.02C42.63 97.95 42.44 97.95 42.27 98.02C42.04 97.66 41.74 97.35 41.39 97.12C41.24 97.03 41.07 96.99 40.9 97C40.73 97.01 40.57 97.07 40.43 97.18C40.3 97.29 40.2 97.44 40.14 97.61C40.09 97.78 40.08 97.96 40.12 98.14C40.25 98.53 40.43 98.9 40.65 99.25C40.83 99.55 41.03 99.86 41.18 100.18L41.18 100.28L41.18 100.42L41.29 100.64C41.37 100.78 41.44 100.93 41.52 101.07C41.62 101.25 41.73 101.42 41.86 101.58C42.03 101.79 42.25 101.93 42.5 101.98C42.59 102 42.67 102 42.76 101.98C42.84 101.96 42.92 101.92 42.99 101.86C43.06 101.8 43.11 101.73 43.15 101.65C43.19 101.56 43.2 101.47 43.2 101.38L43.35 101.38C43.5 101.36 43.64 101.29 43.76 101.18C43.88 101.08 43.96 100.94 44 100.78C44.07 100.61 44.1 100.42 44.09 100.24C44.09 100.05 44.05 99.86 43.97 99.7Z" fill="#FFFFFF" fill-opacity="1.000000" fill-rule="nonzero"/>
	<path id="Vector" d="M35.64 73.06C35.39 72.91 35.13 72.78 34.86 72.66C34.78 72.52 34.67 72.41 34.55 72.34C34.42 72.26 34.28 72.22 34.14 72.22L33.98 72.22C33.87 72.07 33.73 71.94 33.58 71.84C33.1 71.58 32.56 71.49 32.03 71.56L31.47 71.28C30.94 70.99 30.33 70.92 29.75 71.07C29.58 71.13 29.43 71.23 29.32 71.38C29.2 71.52 29.13 71.7 29.1 71.89C29.08 72.08 29.11 72.27 29.18 72.45C29.26 72.62 29.38 72.76 29.53 72.86C30.4 73.37 31.34 73.73 32.3 73.93L32.49 74.02C33.42 74.52 34.91 75.59 35.85 74.57C35.94 74.46 36.01 74.34 36.05 74.2C36.09 74.06 36.11 73.91 36.09 73.76C36.07 73.62 36.02 73.48 35.94 73.36C35.86 73.24 35.76 73.14 35.64 73.06Z" fill="#FFFFFF" fill-opacity="1.000000" fill-rule="nonzero"/>
	<path id="Vector" d="M30.09 97.57C30.1 97.44 30.1 97.31 30.09 97.18C30.1 97.06 30.1 96.94 30.09 96.83C30.02 96.7 29.94 96.58 29.85 96.46C29.79 96.38 29.71 96.3 29.61 96.25C29.52 96.19 29.41 96.15 29.29 96.14C29.17 96.05 29.02 96 28.86 96C28.75 95.99 28.63 96.02 28.53 96.07C28.43 96.12 28.35 96.19 28.29 96.27C28.25 96.35 28.22 96.42 28.19 96.5L28.19 96.63C28.19 96.72 28.19 96.8 28.19 96.89L28.27 96.74C28.15 96.92 28.09 97.12 28.1 97.33C28.1 97.33 28.1 97.4 28.1 97.45C28.1 97.72 28.1 98 28.1 98.28C28.1 98.47 28.19 98.64 28.35 98.78C28.51 98.91 28.72 98.98 28.94 98.99L29.12 98.99C29.32 99.01 29.52 98.98 29.69 98.88C29.86 98.79 29.98 98.65 30.03 98.49C30.04 98.43 30.04 98.37 30.03 98.31C30.03 98.06 30.09 97.79 30.09 97.57Z" fill="#FFFFFF" fill-opacity="1.000000" fill-rule="nonzero"/>
	<path id="Vector" d="M40.83 106.18C40.73 106.09 40.61 106.03 40.47 106C40.38 105.99 40.29 105.99 40.19 106L40.06 106L39.95 106C39.87 105.99 39.79 106 39.71 106.03C39.63 106.05 39.57 106.09 39.51 106.15C39.49 106.18 39.46 106.21 39.43 106.23C39.38 106.25 39.33 106.27 39.28 106.29L38.69 106.29C38.59 106.29 38.49 106.33 38.41 106.4C38.34 106.47 38.3 106.56 38.3 106.65C38.3 106.72 38.34 106.79 38.39 106.84L38.28 106.91C38.16 107.03 38.09 107.18 38.09 107.33C38.09 107.49 38.16 107.64 38.28 107.75C38.36 107.86 38.48 107.94 38.62 107.98C38.8 108.01 38.99 107.99 39.16 107.92C39.44 107.79 39.7 107.63 39.94 107.44L40.1 107.35C40.24 107.3 40.38 107.27 40.52 107.24L40.34 107.24C40.5 107.25 40.65 107.21 40.79 107.14C40.87 107.1 40.94 107.04 41 106.96C41.05 106.89 41.08 106.8 41.09 106.72C41.1 106.61 41.09 106.51 41.04 106.42C41 106.32 40.92 106.24 40.83 106.18Z" fill="#FFFFFF" fill-opacity="1.000000" fill-rule="nonzero"/>
	<path id="Vector" d="M63.05 83.84C63.06 83.68 63.06 83.52 63.05 83.36C63.05 83.15 63.01 82.96 62.99 82.75L62.99 82.52L62.99 82.42C62.99 82.3 62.99 82.19 62.99 82.08C63 82.04 63.01 81.98 63.01 81.93C63.01 81.88 63 81.82 62.99 81.78C62.98 81.57 62.93 81.37 62.85 81.22C62.77 81.08 62.66 80.99 62.55 81C62.43 81 62.32 81.08 62.23 81.24C62.15 81.39 62.1 81.6 62.1 81.82C62.1 82.19 62.1 82.55 62.1 82.93C62.09 83.02 62.09 83.11 62.1 83.2L62.1 84.16C62.1 84.38 62.15 84.59 62.23 84.75C62.31 84.9 62.43 84.99 62.55 85C62.63 84.99 62.72 84.93 62.79 84.84C62.86 84.75 62.92 84.63 62.95 84.48C63.02 84.39 63.07 84.27 63.09 84.12L63.09 83.84L63.05 83.84Z" fill="#FFFFFF" fill-opacity="1.000000" fill-rule="nonzero"/>
	<path id="Vector" d="M66 63.78C66.09 63.66 66.12 63.52 66.07 63.39C66.03 63.26 65.92 63.14 65.77 63.07L65.6 63.07L65.23 63.01C65.03 63 64.83 63 64.63 63.01C64.44 62.99 64.24 62.99 64.05 63.01L63.87 63.01C63.75 63.01 63.64 63.02 63.53 63.06C63.42 63.1 63.33 63.16 63.25 63.23C63.18 63.31 63.14 63.39 63.12 63.48C63.09 63.59 63.09 63.7 63.12 63.81C63.16 63.91 63.23 64.01 63.32 64.09C63.48 64.2 63.66 64.29 63.86 64.36C64.13 64.56 64.42 64.74 64.74 64.91C64.87 64.96 65.02 65 65.18 65C65.33 65 65.48 64.96 65.62 64.91C65.75 64.85 65.86 64.76 65.93 64.66C66.01 64.56 66.05 64.44 66.06 64.32C66.05 64.19 66.02 64.05 65.96 63.92L66 63.78Z" fill="#FFFFFF" fill-opacity="1.000000" fill-rule="nonzero"/>
	<path id="Vector" d="M90.08 55.01C90.08 54.83 90.03 54.66 89.93 54.51C89.84 54.37 89.71 54.26 89.57 54.21L89.13 54.1C88.91 54.05 88.7 54.02 88.48 54C88.11 53.97 87.73 54.02 87.37 54.13C87.2 54.19 87.05 54.32 86.94 54.49C86.84 54.48 86.74 54.48 86.64 54.49C86.45 54.56 86.29 54.71 86.19 54.91C86.1 55.11 86.07 55.35 86.12 55.58C86.16 55.72 86.23 55.85 86.32 55.96C86.41 56.06 86.53 56.14 86.65 56.18L87.09 56.29L86.89 56.29C87.15 56.33 87.4 56.41 87.64 56.51C87.88 56.7 88.14 56.85 88.41 56.97C88.59 57.02 88.77 57 88.93 56.92C89.1 56.84 89.24 56.7 89.33 56.52C89.4 56.4 89.45 56.27 89.47 56.13C89.63 56.12 89.78 56.04 89.89 55.9C90.01 55.76 90.07 55.58 90.07 55.39C90.1 55.27 90.1 55.14 90.08 55.01Z" fill="#FFFFFF" fill-opacity="1.000000" fill-rule="nonzero"/>
	<path id="Vector" d="M33.83 45.62C33.63 45.41 33.36 45.27 33.07 45.2L32.97 45.2L32.72 45.08L32.19 44.77L31.72 44.49C31.65 44.38 31.55 44.3 31.43 44.24C30.99 44.02 30.57 43.77 30.18 43.49C29.97 43.38 29.76 43.26 29.54 43.16C29.19 43.01 28.79 42.96 28.41 43.03C28.41 43.03 28.33 43.03 28.27 43.1C28.05 43.05 27.82 43.07 27.62 43.16C27.42 43.26 27.26 43.41 27.17 43.6C27.08 43.78 27.07 43.99 27.14 44.19C27.21 44.38 27.36 44.55 27.55 44.65C28.37 45.12 29.25 45.51 30.16 45.82L30.33 45.82L30.52 45.9C30.7 45.99 30.89 46.08 31.05 46.18C31.38 46.37 31.71 46.55 32.05 46.71C32.62 46.96 33.44 47.21 33.89 46.71C34.03 46.55 34.1 46.35 34.09 46.15C34.08 45.95 33.99 45.76 33.83 45.62Z" fill="#FFFFFF" fill-opacity="1.000000" fill-rule="nonzero"/>
	<path id="Vector" d="M22.94 48.3C22.97 48.3 23 48.28 23.03 48.26C23.06 48.24 23.08 48.2 23.09 48.17C23.1 48.14 23.1 48.1 23.09 48.06C23.08 48.03 23.06 48 23.04 47.97C23.05 47.88 23.05 47.78 23.04 47.68C23.03 47.43 22.96 47.17 22.84 46.96C22.81 46.91 22.78 46.87 22.75 46.85C22.71 46.82 22.66 46.8 22.62 46.79C22.61 46.58 22.53 46.38 22.39 46.23C22.25 46.08 22.06 46 21.86 46C21.67 46 21.48 46.08 21.34 46.23C21.2 46.38 21.12 46.58 21.11 46.79C21.11 47.57 21.11 48.36 21.11 49.14C21.11 49.52 21.11 49.91 21.11 50.29C21.06 50.76 21.13 51.24 21.33 51.66C21.39 51.76 21.47 51.85 21.57 51.91C21.67 51.96 21.78 52 21.89 52C22 52 22.11 51.96 22.21 51.91C22.31 51.85 22.39 51.76 22.45 51.66C22.64 51.28 22.72 50.84 22.67 50.41C22.76 50.35 22.84 50.25 22.89 50.15C22.94 50.04 22.97 49.92 22.96 49.8C22.96 49.51 22.96 49.23 22.89 48.95C22.81 48.66 22.89 48.66 22.89 48.51C22.89 48.43 22.91 48.37 22.94 48.3Z" fill="#FFFFFF" fill-opacity="1.000000" fill-rule="nonzero"/>
	<path id="Vector" d="M39.89 57.27C39.84 57.23 39.78 57.2 39.73 57.17C39.64 56.94 39.5 56.73 39.3 56.57C39.11 56.43 38.91 56.3 38.7 56.19C38.49 56.06 38.26 55.95 38.03 55.86L37.73 55.75L37.62 55.75L36.72 55.28C36.38 55.09 35.98 54.99 35.58 55C35.45 55 35.32 55.04 35.21 55.1C35.1 55.17 35.02 55.27 34.97 55.38C34.88 55.32 34.78 55.29 34.67 55.3C34.47 55.21 34.25 55.18 34.03 55.2C33.85 55.21 33.68 55.27 33.53 55.36C33.39 55.46 33.29 55.6 33.24 55.76C33.09 56.58 33.06 57.41 33.13 58.24C33.14 58.44 33.23 58.63 33.38 58.78C33.53 58.92 33.74 59 33.95 59C34.16 58.99 34.35 58.92 34.5 58.79C34.64 58.66 34.73 58.48 34.75 58.3C34.96 58.29 35.16 58.21 35.31 58.06C35.46 57.92 35.55 57.73 35.55 57.53C35.59 57.13 35.59 56.72 35.55 56.32L36.05 56.69L37.09 57.38C37.74 57.82 38.48 58.14 39.27 58.3C39.41 58.33 39.55 58.32 39.69 58.27C39.82 58.22 39.93 58.14 40 58.02C40.08 57.9 40.11 57.76 40.09 57.63C40.07 57.49 40 57.36 39.89 57.27Z" fill="#FFFFFF" fill-opacity="1.000000" fill-rule="nonzero"/>
	<path id="Vector" d="M87.06 115.02C86.97 114.74 86.85 114.48 86.69 114.25L86.49 114.09C86.4 114 86.31 113.93 86.21 113.86C86.01 113.71 85.8 113.62 85.57 113.59L85.31 113.45C85.27 113.35 85.2 113.26 85.12 113.2C84.93 113.08 84.74 112.98 84.53 112.91C83.89 112.47 83.18 112.21 82.43 112.16C82.31 112.16 82.19 112.21 82.09 112.3C82.02 112.26 81.96 112.2 81.9 112.14C81.81 112.05 81.69 112 81.56 112C81.44 112 81.32 112.05 81.23 112.14C81.14 112.25 81.09 112.38 81.09 112.53C81.09 112.67 81.14 112.81 81.23 112.91C81.47 113.22 81.79 113.45 82.15 113.57C82.69 114.04 83.32 114.36 83.98 114.53L84.2 114.61L84.33 114.61C84.53 114.7 84.72 114.81 84.92 114.93C85.3 115.11 85.64 115.39 85.9 115.76C86.33 116.36 87.3 115.71 87.06 115.02Z" fill="#FFFFFF" fill-opacity="1.000000" fill-rule="nonzero"/>
	<path id="Vector" d="M61.78 130.88C61.73 130.62 61.64 130.37 61.52 130.13C61.44 130.01 61.36 129.89 61.28 129.77C61.28 129.56 61.2 129.33 61.17 129.14L61.17 129.31C61.17 129.16 61.13 129.01 61.06 128.88L61.15 129.08C61.14 129.03 61.14 128.98 61.15 128.94C61.11 128.77 61.02 128.62 60.89 128.51C60.76 128.4 60.6 128.34 60.44 128.34C60.27 128.34 60.11 128.4 59.98 128.51C59.85 128.62 59.76 128.77 59.72 128.94C59.72 128.99 59.72 129.04 59.72 129.1C59.72 129.1 59.72 129.2 59.72 129.25L59.72 129.1C59.58 129.2 59.47 129.36 59.41 129.53C59.33 129.84 59.33 130.16 59.41 130.46C59.42 130.56 59.45 130.65 59.48 130.74C59.53 130.91 59.6 131.06 59.68 131.21C59.86 131.49 60.08 131.73 60.34 131.91C60.43 132.06 60.55 132.19 60.68 132.3C60.8 132.36 60.92 132.39 61.05 132.39C61.18 132.39 61.3 132.36 61.41 132.3C61.53 132.25 61.64 132.18 61.72 132.08C61.81 131.99 61.87 131.87 61.9 131.74C61.91 131.45 61.87 131.16 61.78 130.88Z" fill="#FFFFFF" fill-opacity="1.000000" fill-rule="nonzero"/>
	<path id="Vector" d="M59.65 129.07L59.65 129.14L59.65 129.07Z" fill="#FFFFFF" fill-opacity="1.000000" fill-rule="nonzero"/>
	<path id="Vector" d="M64.99 120.01C64.87 119.72 64.69 119.49 64.46 119.34C64.23 119.19 63.97 119.1 63.7 119.09C63.56 119.06 63.41 119.06 63.26 119.09L63.18 119.09L62.92 119.09C62.81 119.01 62.69 118.98 62.57 119C62.45 119.02 62.33 119.08 62.25 119.19C62.16 119.3 62.11 119.44 62.1 119.58C62.08 119.73 62.11 119.88 62.16 120.01C62.23 120.1 62.29 120.18 62.37 120.24C62.47 120.38 62.6 120.48 62.75 120.54C63.02 120.98 63.32 121.39 63.66 121.75C63.79 121.9 63.97 121.99 64.15 122C64.33 122 64.51 121.91 64.64 121.75C64.72 121.63 64.78 121.49 64.8 121.33C64.86 121.3 64.91 121.26 64.95 121.2C64.99 121.15 65.02 121.08 65.04 121C65.13 120.68 65.11 120.32 64.99 120.01Z" fill="#FFFFFF" fill-opacity="1.000000" fill-rule="nonzero"/>
	<path id="Vector" d="M42.06 160.8C42.06 160.59 41.98 160.38 41.85 160.23C41.73 160.08 41.55 160 41.37 160C41.18 160 41.01 160.08 40.88 160.23C40.75 160.38 40.68 160.59 40.68 160.8C40.68 160.97 40.68 161.13 40.68 161.29L40.68 161.51C40.61 161.78 40.52 162.05 40.42 162.32C40.19 162.92 40.07 163.57 40.1 164.23C40.1 164.37 40.13 164.52 40.19 164.64C40.26 164.76 40.35 164.86 40.46 164.92C40.57 164.98 40.7 165.01 40.82 164.99C40.94 164.97 41.06 164.91 41.15 164.82C41.23 164.87 41.32 164.9 41.4 164.91C41.55 164.89 41.68 164.82 41.79 164.71C41.93 164.46 42.03 164.18 42.09 163.89C42.06 162.79 42.03 161.76 42.06 160.8Z" fill="#FFFFFF" fill-opacity="1.000000" fill-rule="nonzero"/>
	<path id="Vector" d="M37.97 147.24C37.9 147.14 37.81 147.07 37.7 147.03C37.59 146.99 37.47 146.98 37.36 147.02C37.17 147.08 36.98 147.17 36.82 147.29C36.62 147.43 36.42 147.59 36.24 147.76C36.06 147.9 35.91 148.05 35.76 148.21C35.6 148.36 35.53 148.48 35.41 148.6C35.31 148.67 35.24 148.76 35.18 148.87C35.11 149.01 35.08 149.18 35.1 149.34C35.12 149.51 35.19 149.66 35.3 149.78C35.38 149.87 35.48 149.93 35.59 149.97C35.68 150 35.77 150 35.86 149.99C35.95 149.98 36.04 149.94 36.11 149.89L36.26 149.78L36.38 149.67C36.43 149.62 36.47 149.56 36.5 149.5C36.64 149.48 36.77 149.43 36.89 149.35C37.07 149.24 37.23 149.1 37.36 148.92C37.6 148.62 37.82 148.29 38.02 147.95C38.08 147.84 38.1 147.71 38.09 147.59C38.08 147.46 38.04 147.34 37.97 147.24Z" fill="#FFFFFF" fill-opacity="1.000000" fill-rule="nonzero"/>
	<path id="Vector" d="M53.71 149.43L53.53 149.26C53.52 149.23 53.52 149.21 53.53 149.19L53.53 149.13C53.55 149.02 53.53 148.91 53.46 148.82C53.38 148.72 53.26 148.64 53.11 148.6C53.01 148.58 52.9 148.58 52.79 148.6C52.72 148.44 52.6 148.3 52.44 148.18C52.28 148.07 52.08 148 51.87 148C51.7 148 51.54 148.05 51.41 148.13C51.32 148.19 51.24 148.26 51.19 148.35C51.14 148.43 51.11 148.52 51.1 148.61C51.1 148.61 51.1 148.61 51.1 148.67C51.09 148.7 51.09 148.73 51.1 148.75C51.09 148.79 51.09 148.84 51.1 148.88C51.12 148.92 51.14 148.96 51.17 149C51.35 149.34 51.49 149.68 51.71 150C51.83 150.18 51.99 150.35 52.18 150.49C52.31 150.58 52.45 150.66 52.6 150.74L52.7 150.83C52.79 150.89 52.89 150.94 53 150.97C53.11 151 53.23 151 53.34 150.99C53.46 150.98 53.57 150.94 53.67 150.89C53.77 150.85 53.85 150.78 53.91 150.7C54.06 150.5 54.12 150.27 54.08 150.04C54.05 149.81 53.92 149.59 53.71 149.43Z" fill="#FFFFFF" fill-opacity="1.000000" fill-rule="nonzero"/>
</svg>
