<svg width="1036.000000" height="604.000000" viewBox="0 0 1036 604" fill="none" xmlns="http://www.w3.org/2000/svg" xmlns:xlink="http://www.w3.org/1999/xlink">
	<desc>
			Created with Pixso.
	</desc>
	<defs/>
	<rect id="Rectangle 2" x="1.000000" y="87.000000" rx="10.000000" width="1034.000000" height="516.000000" stroke="#E13A4B" stroke-opacity="1.000000" stroke-width="2.000000"/>
	<rect id="Rectangle 3" x="10.000000" y="95.000000" rx="10.000000" width="1016.000000" height="497.000000" stroke="#E13A4B" stroke-opacity="1.000000" stroke-width="2.000000"/>
	<path id="Vector" d="M575.82 41.48Q582.66 40.89 586.38 37.98L587 38.77L586.21 39.39L585.11 37.97L585.9 37.36L586.48 38.17Q586 38.51 585.49 38.8L584 39.64L584 37.4L585 37.4L584 37.45Q584 37.48 584.03 37.51Q584.06 37.54 584.11 37.54Q584.15 37.54 584.18 37.51Q584.21 37.48 584.21 37.45L583.22 37.4L584.22 37.4L584.22 39.48L583.62 39.75Q583.02 40.01 582.45 40.22L581.1 40.72L581.1 38.36L581.1 38.34Q581.1 38.36 581.11 38.37Q581.12 38.39 581.13 38.41Q581.15 38.42 581.17 38.43Q581.19 38.44 581.21 38.44Q581.23 38.44 581.26 38.43Q581.28 38.42 581.29 38.41Q581.31 38.39 581.31 38.37Q581.32 38.36 581.32 38.34L581.32 38.36L581.32 40.61L580.59 40.82Q580.1 40.96 579.57 41.08L578.35 41.37L578.35 39.13L579.35 39.13L578.35 39.18Q578.35 39.22 578.38 39.24Q578.41 39.27 578.45 39.27Q578.5 39.27 578.53 39.24Q578.56 39.22 578.56 39.18L577.56 39.13L578.56 39.13L578.56 41.31L577.72 41.44Q577.17 41.53 576.66 41.59L575.54 41.72L575.54 39.59Q575.54 39.63 575.57 39.66Q575.6 39.69 575.65 39.69Q575.7 39.69 575.73 39.66Q575.76 39.63 575.76 39.59L575.76 41.74L574.6 41.74L574.6 40.74L574.64 41.73Q567.92 42.03 563.62 34.74L563.59 34.68L563.57 34.63Q563.39 34.22 563.25 33.86L562.71 32.49L564.96 32.49L564.96 33.49L563.96 33.49L563.96 32.46L564.96 32.46L564.96 33.46L561.93 33.46L561.93 30.25L564.96 30.25L564.96 31.25L563.96 31.25L563.96 30.22L564.96 30.22L564.96 31.22L553.82 31.22L553.82 27.64L554.82 27.64L554.82 28.64L553.81 28.64L553.4 26.73Q554.98 26.03 556.45 25.12L560.51 22.62L561.04 23.47L560.04 23.47L560.04 20.85L561.04 20.85L561.43 21.77Q556.48 23.87 551.03 23.4L550.94 21.42Q550.89 21.43 550.84 21.44L550.97 21.39L551.11 21.38Q557.96 20.8 561.68 17.89L562.29 18.68L561.5 19.29L560.4 17.87L561.19 17.26L561.79 18.07Q561.31 18.42 560.79 18.72L559.29 19.57L559.29 17.32L560.29 17.32L559.3 17.37Q559.3 17.41 559.33 17.43Q559.36 17.46 559.4 17.46Q559.45 17.46 559.48 17.43Q559.51 17.41 559.51 17.37L558.51 17.32L559.51 17.32L559.51 19.41L558.91 19.67Q558.32 19.93 557.75 20.14L556.4 20.64L556.4 18.28L556.4 18.26Q556.4 18.28 556.4 18.3Q556.41 18.32 556.43 18.33Q556.44 18.35 556.46 18.36Q556.48 18.36 556.51 18.36Q556.53 18.36 556.55 18.36Q556.57 18.35 556.59 18.33Q556.6 18.32 556.61 18.3Q556.62 18.28 556.61 18.26L556.62 18.28L556.62 20.54L555.89 20.74Q555.4 20.88 554.87 21L553.64 21.29L553.64 19.02L553.64 18.99Q553.64 19.01 553.65 19.03Q553.65 19.05 553.67 19.07Q553.68 19.08 553.71 19.09Q553.73 19.1 553.75 19.1Q553.77 19.1 553.8 19.09Q553.82 19.08 553.83 19.07Q553.84 19.05 553.85 19.03Q553.86 19.01 553.86 18.99L553.86 19.02L553.86 21.23L553.02 21.36Q552.5 21.45 551.96 21.51L550.84 21.65L550.84 19.51Q550.84 19.55 550.87 19.58Q550.9 19.62 550.95 19.62Q551 19.62 551.03 19.58Q551.06 19.55 551.06 19.51L551.06 21.66L549.9 21.66L549.9 20.66L549.94 21.66Q543.23 21.95 538.92 14.68L538.89 14.62L538.87 14.57Q538.68 14.13 538.54 13.79L538.02 12.43L540.25 12.43L540.25 13.43L539.25 13.43L539.25 12.4L540.25 12.4L540.25 13.4L537.23 13.4L537.23 10.18L540.25 10.18L540.25 11.18L539.25 11.18L539.25 10.15L540.25 10.15L540.25 11.15L535.11 11.15L535.11 8.52L536.11 8.52L536.11 9.52L530.81 9.52L530.81 5.1L531.81 5.1L531.81 6.1L528.81 6.1L528.81 2.04L529.81 2.04L529.81 3.04L524.76 3.04L524.76 2.04L525.76 2.04L525.76 5.76L524.76 5.76L524.76 4.76L528.23 4.76L528.23 5.76L527.23 5.76L527.23 3.35L528.23 3.35L528.23 4.35L526.06 4.35L526.06 3.35L527.06 3.35L527.06 4.02L526.06 4.02L526.06 3.02L528.56 3.02L528.56 6.09L524.43 6.09L524.43 1.71L530.14 1.71L530.14 7.29L523.12 7.29L523.12 2.04L524.12 2.04L524.12 3.04L518.72 3.04L518.72 2.04L519.72 2.04L519.72 5.24L517.33 5.24L517.33 0.67L524.1 0.67L524.1 1.67L523.1 1.67L523.1 1L524.1 1L524.1 2L511.72 2L511.72 1L512.72 1L512.72 1.67L511.72 1.67L511.72 0.67L518.66 0.67L518.66 5.23L516.07 5.23L516.07 2.04L517.07 2.04L517.07 3.04L511.68 3.04L511.68 2.04L512.68 2.04L512.68 7.29L505.65 7.29L505.65 1.71L511.37 1.71L511.37 6.09L507.24 6.09L507.24 3.02L509.74 3.02L509.74 4.02L508.74 4.02L508.74 3.35L509.74 3.35L509.74 4.35L507.57 4.35L507.57 3.35L508.57 3.35L508.57 5.76L507.57 5.76L507.57 4.76L511.04 4.76L511.04 5.76L510.04 5.76L510.04 2.04L511.04 2.04L511.04 3.04L506 3.04L506 2.04L507 2.04L507 6.1L503.99 6.1L503.99 5.1L504.99 5.1L504.99 9.51L499.69 9.51L499.69 8.51L500.69 8.51L500.69 11.15L495.59 11.15L495.59 10.15L496.59 10.15L496.59 11.17L495.59 11.17L495.59 10.17L498.47 10.17L498.47 13.39L495.6 13.39L495.6 12.39L496.6 12.39L496.6 13.42L495.6 13.42L495.6 12.42L497.85 12.42L497.31 13.79Q497.14 14.22 496.98 14.57L496.96 14.62L496.93 14.67Q492.63 21.96 485.91 21.65L485.95 20.65L485.95 21.65L484.79 21.65L484.79 19.51Q484.79 19.55 484.82 19.58Q484.86 19.61 484.9 19.61Q484.95 19.61 484.98 19.58Q485.01 19.55 485.01 19.51L485.01 21.64L483.89 21.51Q483.36 21.44 482.83 21.36L481.99 21.22L481.99 19.02L481.99 18.99Q481.99 19.01 482 19.03Q482.01 19.05 482.02 19.07Q482.03 19.08 482.06 19.09Q482.08 19.1 482.1 19.1Q482.12 19.1 482.15 19.09Q482.17 19.08 482.18 19.07Q482.2 19.05 482.2 19.03Q482.21 19.01 482.21 18.99L482.21 19.02L482.21 21.27L480.98 20.99Q480.45 20.87 479.96 20.73L479.23 20.52L479.23 18.29Q479.23 18.33 479.26 18.36Q479.3 18.39 479.34 18.39Q479.39 18.39 479.42 18.36Q479.45 18.33 479.45 18.29L479.45 20.62L478.11 20.13Q477.53 19.91 476.94 19.65L476.34 19.39L476.34 17.32L477.34 17.32L476.34 17.37Q476.34 17.41 476.37 17.43Q476.4 17.46 476.45 17.46Q476.49 17.46 476.52 17.43Q476.55 17.41 476.56 17.37L475.56 17.32L476.56 17.32L476.56 19.56L475.07 18.72Q474.55 18.44 474.08 18.09L474.66 17.28L475.45 17.89L474.35 19.31L473.56 18.69L474.18 17.91Q477.85 20.81 484.74 21.4L484.88 21.41L485.01 21.46Q484.96 21.44 484.91 21.43L484.82 23.41Q479.37 23.89 474.42 21.79L474.42 21.79L474.81 20.87L475.81 20.87L475.81 23.49L474.81 23.49L475.34 22.63L479.4 25.14Q480.87 26.04 482.45 26.75L482.04 28.66L481.18 28.66L481.18 27.66L482.18 27.66L482.18 31.26L471.05 31.26L471.05 30.26L472.05 30.26L472.05 31.29L471.05 31.29L471.05 30.29L474.07 30.29L474.07 33.5L471.04 33.5L471.04 32.5L472.04 32.5L472.04 33.53L471.04 33.53L471.04 32.53L473.28 32.53L472.74 33.9Q472.6 34.26 472.42 34.67L472.4 34.72L472.37 34.78Q468.07 42.07 461.35 41.77L461.39 40.78L461.39 41.78L460.23 41.78L460.23 39.63L461.23 39.63L460.23 39.68Q460.23 39.71 460.26 39.74Q460.29 39.77 460.34 39.77Q460.39 39.77 460.42 39.74Q460.45 39.71 460.45 39.68L459.45 39.63L460.45 39.63L460.45 41.74L459.33 41.61Q458.82 41.54 458.27 41.46L457.43 41.33L457.43 39.15L458.43 39.15L457.43 39.19Q457.43 39.23 457.46 39.26Q457.49 39.29 457.54 39.29Q457.58 39.29 457.61 39.26Q457.64 39.23 457.64 39.19L456.64 39.15L457.64 39.15L457.64 41.38L456.42 41.1Q455.89 40.98 455.4 40.84L454.67 40.63L454.67 38.38L454.67 38.35Q454.67 38.37 454.68 38.39Q454.69 38.41 454.7 38.43Q454.71 38.44 454.73 38.45Q454.76 38.46 454.78 38.46Q454.8 38.46 454.82 38.45Q454.85 38.44 454.86 38.43Q454.87 38.41 454.88 38.39Q454.89 38.37 454.89 38.35L454.89 38.38L454.89 40.73L453.54 40.24Q452.97 40.02 452.37 39.76L451.77 39.5L451.77 37.42Q451.77 37.46 451.8 37.49Q451.84 37.52 451.88 37.52Q451.93 37.52 451.96 37.49Q451.99 37.46 451.99 37.42L451.99 39.65L450.5 38.81Q449.99 38.52 449.51 38.18L450.09 37.37L450.88 37.98L449.79 39.39L449 38.78L449.61 37.99Q453.33 40.9 460.18 41.49L460.31 41.5L460.44 41.54Q460.42 41.54 460.4 41.53L460.26 43.5Q456.84 43.8 453.03 42.87Q450.46 42.25 449.73 41.81Q449.8 41.85 449.86 41.88L450.25 40.95L451.25 40.95L451.25 43.57L450.25 43.57L450.78 42.72L454.83 45.22Q461.23 49.16 468.72 49.16L468.72 51.16L464.82 51.16L464.82 50.16L465.82 50.16L465.82 51.19L464.82 51.19L464.82 50.19L467.56 50.19L467.56 82.44L465.89 82.44L465.89 81.44L466.89 81.44L466.89 84.38L464.93 84.38L464.93 83.38L465.93 83.38L465.93 87.83L464.93 87.83L464.93 86.83L472.87 86.83L472.87 87.83L471.87 87.83L471.87 83.38L472.87 83.38L472.87 84.38L470.91 84.38L470.91 81.43L471.91 81.43L471.91 82.43L470.24 82.43L470.24 52.72L492.12 52.72L492.12 82.6L490.45 82.6L490.45 81.6L491.45 81.6L491.45 84.54L489.49 84.54L489.49 83.54L490.49 83.54L490.49 87.99L489.49 87.99L489.49 86.99L497.43 86.99L497.43 87.99L496.43 87.99L496.43 83.54L497.43 83.54L497.43 84.54L495.46 84.54L495.46 81.6L496.46 81.6L496.46 82.6L494.8 82.6L494.8 45.66L497.59 45.66L497.59 48.06L496.59 48.06L496.59 47.06L500.79 47.06L500.79 48.06L499.79 48.06L499.79 41.97L504.72 41.97L504.72 45.97L501.03 45.97L501.03 43.2L503.55 43.2L503.55 44.5L502.55 44.5L502.55 43.5L503.22 43.5L503.22 44.5L502.22 44.5L502.22 43.53L503.22 43.53L503.22 44.53L501.37 44.53L501.37 43.53L502.37 43.53L502.37 45.64L501.37 45.64L501.37 44.64L504.4 44.64L504.4 45.64L503.4 45.64L503.4 43.31L532.46 43.31L532.46 45.64L531.46 45.64L531.46 44.64L534.49 44.64L534.49 45.64L533.49 45.64L533.49 43.53L534.49 43.53L534.49 44.53L532.64 44.53L532.64 43.53L533.64 43.53L533.64 44.5L532.64 44.5L532.64 43.5L533.3 43.5L533.3 44.5L532.3 44.5L532.3 43.2L534.82 43.2L534.82 45.96L531.13 45.96L531.13 41.97L536.07 41.97L536.07 48.06L535.07 48.06L535.07 47.06L539.26 47.06L539.26 48.06L538.26 48.06L538.26 45.66L541.06 45.66L541.06 82.6L539.39 82.6L539.39 81.6L540.39 81.6L540.39 84.55L538.43 84.55L538.43 83.55L539.43 83.55L539.43 88L538.43 88L538.43 87L546.37 87L546.37 88L545.37 88L545.37 83.55L546.37 83.55L546.37 84.55L544.4 84.55L544.4 81.6L545.4 81.6L545.4 82.6L543.73 82.6L543.73 52.72L565.76 52.72L565.76 82.44L564.09 82.44L564.09 81.44L565.09 81.44L565.09 84.38L563.13 84.38L563.13 83.38L564.13 83.38L564.13 87.83L563.13 87.83L563.13 86.83L571.07 86.83L571.07 87.83L570.07 87.83L570.07 83.38L571.07 83.38L571.07 84.38L569.1 84.38L569.1 81.43L570.1 81.43L570.1 82.43L568.44 82.43L568.44 50.18L571.18 50.18L571.18 51.18L570.18 51.18L570.18 50.16L571.18 50.16L571.18 51.16L567.28 51.16L567.28 49.16Q574.77 49.15 581.15 45.22L585.21 42.72L585.74 43.57L584.74 43.57L584.74 40.95L585.74 40.95L586.13 41.87Q581.17 43.96 575.73 43.49L575.6 41.52Q575.57 41.53 575.55 41.54L575.68 41.49L575.82 41.48ZM575.99 43.47L575.9 42.47L576.25 43.41Q576.15 43.45 576.03 43.47L575.82 42.5L575.9 41.5Q580.85 41.93 585.35 40.02L586.74 39.44L586.74 44.13L582.2 46.92Q575.33 51.15 567.28 51.16L567.28 50.16L567.28 49.16L572.18 49.16L572.18 52.18L569.44 52.18L569.44 51.18L570.44 51.18L570.44 81.43L569.44 81.43L569.44 80.43L571.1 80.43L571.1 83.38L570.1 83.38L570.1 82.38L572.07 82.38L572.07 88.83L562.13 88.83L562.13 82.38L564.09 82.38L564.09 83.38L563.09 83.38L563.09 80.44L564.76 80.44L564.76 81.44L563.76 81.44L563.76 53.72L564.76 53.72L564.76 54.72L544.73 54.72L544.73 53.72L545.73 53.72L545.73 81.6L544.73 81.6L544.73 80.6L546.4 80.6L546.4 83.55L545.4 83.55L545.4 82.55L547.37 82.55L547.37 89L537.43 89L537.43 82.55L539.39 82.55L539.39 83.55L538.39 83.55L538.39 80.6L540.06 80.6L540.06 81.6L539.06 81.6L539.06 46.66L540.06 46.66L540.06 47.66L539.26 47.66L539.26 46.66L540.26 46.66L540.26 49.06L534.07 49.06L534.07 42.97L535.07 42.97L535.07 43.97L532.13 43.97L532.13 42.97L533.13 42.97L533.13 44.96L532.13 44.96L532.13 43.96L533.82 43.96L533.82 44.96L532.82 44.96L532.82 44.2L533.82 44.2L533.82 45.2L533.3 45.2L533.3 44.2L534.3 44.2L534.3 45.5L531.64 45.5L531.64 42.53L535.49 42.53L535.49 46.64L530.46 46.64L530.46 44.31L531.46 44.31L531.46 45.31L504.4 45.31L504.4 44.31L505.4 44.31L505.4 46.64L500.37 46.64L500.37 42.53L504.22 42.53L504.22 45.5L501.55 45.5L501.55 44.2L502.55 44.2L502.55 45.2L502.03 45.2L502.03 44.2L503.03 44.2L503.03 44.97L502.03 44.97L502.03 43.97L503.72 43.97L503.72 44.97L502.72 44.97L502.72 42.97L503.72 42.97L503.72 43.97L500.79 43.97L500.79 42.97L501.79 42.97L501.79 49.06L495.59 49.06L495.59 46.66L496.59 46.66L496.59 47.66L495.8 47.66L495.8 46.66L496.8 46.66L496.8 81.6L495.8 81.6L495.8 80.6L497.46 80.6L497.46 83.54L496.46 83.54L496.46 82.54L498.43 82.54L498.43 88.99L488.49 88.99L488.49 82.54L490.45 82.54L490.45 83.54L489.45 83.54L489.45 80.6L491.12 80.6L491.12 81.6L490.12 81.6L490.12 53.72L491.12 53.72L491.12 54.72L471.24 54.72L471.24 53.72L472.24 53.72L472.24 81.43L471.24 81.43L471.24 80.43L472.91 80.43L472.91 83.38L471.91 83.38L471.91 82.38L473.87 82.38L473.87 88.83L463.93 88.83L463.93 82.38L465.89 82.38L465.89 83.38L464.89 83.38L464.89 80.44L466.56 80.44L466.56 81.44L465.56 81.44L465.56 51.19L466.56 51.19L466.56 52.19L463.82 52.19L463.82 49.16L468.72 49.16L468.72 50.16L468.72 51.16Q460.66 51.16 453.78 46.93L449.25 44.13L449.25 39.44L450.64 40.03Q450.71 40.06 450.77 40.1Q451.23 40.38 453.5 40.93Q457 41.78 460.09 41.51L460.17 42.51L459.95 43.48Q459.85 43.46 459.75 43.42L460.09 42.48L460.01 43.48Q452.57 42.84 448.38 39.57L447.59 38.96L449.89 36L450.67 36.55Q451.07 36.83 451.49 37.07L450.99 37.94L449.99 37.94L449.99 37.42Q449.99 36.63 450.54 36.08Q451.1 35.52 451.88 35.52Q452.67 35.52 453.22 36.08Q453.77 36.63 453.77 37.42L453.77 38.85L452.77 38.85L453.17 37.93Q453.72 38.17 454.24 38.36L453.89 39.3L452.89 39.3L452.89 38.4L453.89 38.4L452.89 38.45Q452.87 38.06 453.01 37.7Q453.14 37.33 453.41 37.05Q453.68 36.77 454.03 36.61Q454.39 36.46 454.78 36.46Q455.17 36.46 455.53 36.61Q455.88 36.77 456.15 37.05Q456.42 37.33 456.55 37.7Q456.69 38.06 456.67 38.45L455.67 38.4L456.67 38.4L456.67 39.87L455.67 39.87L455.95 38.91Q456.39 39.04 456.87 39.15L456.64 40.12L455.64 40.12L455.64 39.13L455.65 39.1Q455.68 38.34 456.23 37.82Q456.78 37.29 457.54 37.29Q458.3 37.29 458.85 37.82Q459.39 38.34 459.43 39.1L459.43 39.13L459.43 40.47L458.43 40.47L458.58 39.48Q459.09 39.56 459.57 39.62L459.45 40.61L458.45 40.61L458.45 39.61L458.45 39.58Q458.48 38.83 459.03 38.3Q459.58 37.77 460.34 37.77Q461.1 37.77 461.65 38.3Q462.2 38.83 462.23 39.58L462.23 39.61L462.23 40.78L461.23 40.78L461.23 39.78L461.41 39.78L461.43 39.78Q466.96 40.02 470.64 33.76L471.51 34.27L470.59 33.87Q470.75 33.5 470.88 33.17L471.81 33.53L471.81 34.53L470.04 34.53L470.04 31.5L473.07 31.5L473.07 32.5L472.07 32.5L472.07 31.29L473.07 31.29L473.07 32.29L470.05 32.29L470.05 29.26L481.18 29.26L481.18 30.26L480.18 30.26L480.18 26.66L482.04 26.66L482.04 27.66L481.63 28.57Q479.94 27.81 478.35 26.84L473.81 24.04L473.81 19.36L475.2 19.95L475.2 19.95Q479.7 21.85 484.65 21.42L484.74 22.42L484.57 23.4Q484.43 23.38 484.3 23.33L484.65 22.39L484.57 23.39Q477.08 22.75 472.94 19.48L472.16 18.86L474.46 15.91L475.24 16.47Q475.63 16.75 476.05 16.98L475.56 17.85L474.56 17.85L474.56 17.3L474.56 17.28Q474.59 16.52 475.14 15.99Q475.69 15.46 476.45 15.46Q477.21 15.46 477.76 15.99Q478.3 16.52 478.34 17.28L478.34 17.3L478.34 18.74L477.34 18.74L477.74 17.82Q478.28 18.06 478.8 18.25L478.45 19.19L477.45 19.19L477.45 18.29Q477.45 17.51 478 16.95Q478.56 16.39 479.34 16.39Q480.13 16.39 480.68 16.95Q481.23 17.51 481.23 18.29L481.23 19.77L480.23 19.77L480.51 18.8Q480.95 18.93 481.43 19.04L481.21 20.02L480.21 20.02L480.21 19.04L481.21 19.04L480.21 19.09Q480.19 18.7 480.33 18.34Q480.46 17.97 480.73 17.69Q481 17.41 481.35 17.25Q481.71 17.1 482.1 17.1Q482.49 17.1 482.85 17.25Q483.2 17.41 483.47 17.69Q483.74 17.97 483.87 18.34Q484.01 18.7 483.99 19.09L482.99 19.04L483.99 19.04L483.99 20.37L482.99 20.37L483.15 19.38Q483.63 19.46 484.13 19.52L484.01 20.51L483.01 20.51L483.01 19.51Q483.01 18.72 483.56 18.17Q484.12 17.61 484.9 17.61Q485.69 17.61 486.24 18.17Q486.79 18.72 486.79 19.51L486.79 20.65L485.79 20.65L485.79 19.65L485.97 19.65L486 19.65Q491.52 19.9 495.21 13.65L496.07 14.16L495.15 13.76Q495.29 13.44 495.45 13.05L496.38 13.42L496.38 14.42L494.6 14.42L494.6 11.39L497.47 11.39L497.47 12.39L496.47 12.39L496.47 11.17L497.47 11.17L497.47 12.17L494.59 12.17L494.59 9.15L499.69 9.15L499.69 10.15L498.69 10.15L498.69 7.51L503.99 7.51L503.99 8.51L502.99 8.51L502.99 4.1L506 4.1L506 5.1L505 5.1L505 1.04L512.03 1.04L512.03 6.76L506.57 6.76L506.57 2.35L510.74 2.35L510.74 5.02L508.24 5.02L508.24 4.02L509.24 4.02L509.24 5.09L508.24 5.09L508.24 4.09L510.37 4.09L510.37 5.09L509.37 5.09L509.37 2.71L510.37 2.71L510.37 3.71L506.65 3.71L506.65 2.71L507.65 2.71L507.65 6.29L506.65 6.29L506.65 5.29L511.68 5.29L511.68 6.29L510.68 6.29L510.68 1.04L518.07 1.04L518.07 4.23L517.07 4.23L517.07 3.23L517.66 3.23L517.66 4.23L516.66 4.23L516.66 1.67L517.66 1.67L517.66 2.67L510.72 2.67L510.72 0L525.1 0L525.1 2.67L518.33 2.67L518.33 1.67L519.33 1.67L519.33 4.24L518.33 4.24L518.33 3.24L518.72 3.24L518.72 4.24L517.72 4.24L517.72 1.04L525.12 1.04L525.12 6.29L524.12 6.29L524.12 5.29L529.14 5.29L529.14 6.29L528.14 6.29L528.14 2.71L529.14 2.71L529.14 3.71L525.43 3.71L525.43 2.71L526.43 2.71L526.43 5.09L525.43 5.09L525.43 4.09L527.56 4.09L527.56 5.09L526.56 5.09L526.56 4.02L527.56 4.02L527.56 5.02L525.06 5.02L525.06 2.35L529.23 2.35L529.23 6.76L523.76 6.76L523.76 1.04L530.81 1.04L530.81 5.1L529.81 5.1L529.81 4.1L532.81 4.1L532.81 8.52L531.81 8.52L531.81 7.52L537.11 7.52L537.11 10.15L536.11 10.15L536.11 9.15L541.25 9.15L541.25 12.18L538.23 12.18L538.23 11.18L539.23 11.18L539.23 12.4L538.23 12.4L538.23 11.4L541.25 11.4L541.25 14.43L539.48 14.43L539.48 13.43L540.41 13.06Q540.53 13.37 540.7 13.77L539.78 14.17L540.64 13.66Q544.34 19.9 549.85 19.66L549.87 19.66L550.06 19.66L550.06 20.66L549.06 20.66L549.06 19.51Q549.06 18.73 549.61 18.17Q550.16 17.62 550.95 17.62Q551.73 17.62 552.29 18.17Q552.84 18.73 552.84 19.51L552.84 20.52L551.84 20.52L551.72 19.53Q552.22 19.47 552.7 19.39L552.86 20.38L551.86 20.38L551.86 19.04L552.86 19.04L551.86 19.09Q551.84 18.7 551.98 18.34Q552.11 17.97 552.38 17.69Q552.65 17.41 553 17.25Q553.36 17.1 553.75 17.1Q554.14 17.1 554.5 17.25Q554.85 17.41 555.12 17.69Q555.39 17.97 555.52 18.34Q555.66 18.7 555.64 19.09L554.64 19.04L555.64 19.04L555.64 20.03L554.64 20.03L554.41 19.06Q554.9 18.94 555.34 18.82L555.62 19.78L554.62 19.78L554.62 18.3L555.62 18.3L554.62 18.35Q554.6 17.96 554.73 17.6Q554.87 17.24 555.14 16.95Q555.4 16.67 555.76 16.52Q556.12 16.36 556.51 16.36Q556.9 16.36 557.25 16.52Q557.61 16.67 557.88 16.95Q558.14 17.24 558.28 17.6Q558.41 17.96 558.4 18.35L557.4 18.3L558.4 18.3L558.4 19.2L557.4 19.2L557.05 18.26Q557.57 18.07 558.11 17.84L558.51 18.75L557.51 18.75L557.51 17.3L557.51 17.28Q557.55 16.52 558.09 15.99Q558.64 15.46 559.4 15.46Q560.16 15.46 560.71 15.99Q561.26 16.52 561.29 17.28L561.29 17.3L561.29 17.85L560.29 17.85L559.8 16.98Q560.21 16.74 560.6 16.46L561.39 15.88L563.69 18.85L562.91 19.47Q558.72 22.74 551.28 23.38L551.2 22.38L551.55 23.31Q551.42 23.36 551.28 23.39L551.11 22.4L551.2 21.41Q556.15 21.83 560.65 19.93L562.04 19.34L562.04 24.03L557.5 26.82Q555.92 27.8 554.22 28.56L553.81 27.64L553.81 26.64L555.82 26.64L555.82 30.22L554.82 30.22L554.82 29.22L565.96 29.22L565.96 32.25L562.93 32.25L562.93 31.25L563.93 31.25L563.93 32.46L562.93 32.46L562.93 31.46L565.96 31.46L565.96 34.49L564.18 34.49L564.18 33.49L565.11 33.13Q565.24 33.46 565.4 33.83L564.48 34.23L565.35 33.72Q569.03 39.98 574.56 39.74L574.58 39.74L574.76 39.74L574.76 40.74L573.76 40.74L573.76 39.59Q573.76 38.81 574.31 38.25Q574.87 37.69 575.65 37.69Q576.44 37.69 576.99 38.25Q577.54 38.81 577.54 39.59L577.54 40.6L576.54 40.6L576.42 39.6Q576.9 39.55 577.41 39.47L577.56 40.45L576.56 40.45L576.56 39.11L576.56 39.09Q576.6 38.33 577.15 37.8Q577.69 37.27 578.45 37.27Q579.21 37.27 579.76 37.8Q580.31 38.33 580.34 39.09L580.35 39.11L580.35 40.11L579.35 40.11L579.12 39.13Q579.6 39.02 580.05 38.89L580.32 39.86L579.32 39.86L579.32 38.38L580.32 38.38L579.32 38.43Q579.3 38.04 579.44 37.68Q579.57 37.31 579.84 37.03Q580.11 36.75 580.46 36.6Q580.82 36.44 581.21 36.44Q581.6 36.44 581.96 36.6Q582.31 36.75 582.58 37.03Q582.85 37.31 582.98 37.68Q583.12 38.04 583.1 38.43L582.1 38.38L583.1 38.38L583.1 39.28L582.1 39.28L581.75 38.34Q582.27 38.15 582.82 37.91L583.22 38.83L582.22 38.83L582.22 37.38L582.22 37.35Q582.25 36.6 582.8 36.07Q583.35 35.54 584.11 35.54Q584.87 35.54 585.42 36.07Q585.96 36.6 586 37.35L586 37.38L586 37.93L585 37.93L584.51 37.06Q584.93 36.82 585.32 36.54L586.1 35.99L588.4 38.95L587.61 39.56Q583.42 42.83 575.99 43.47ZM536.41 36.88L538.95 36.88L538.95 39.46L536.53 39.46L536.53 38.18L537.53 38.18L537.53 39.18L536.86 39.18L536.86 38.18L537.86 38.18L537.86 39.13L536.86 39.13L536.86 38.13L538.62 38.13L538.62 39.13L537.62 39.13L537.62 37.67L541.05 37.67L541.05 40.58L535.41 40.57L535.41 36.88L536.41 36.88ZM536.41 38.88L536.41 37.88L537.41 37.88L537.41 39.57L536.41 39.57L536.42 38.57L540.05 38.58L540.05 39.58L539.05 39.58L539.05 38.67L540.05 38.67L540.05 39.67L538.62 39.67L538.62 38.67L539.62 38.67L539.62 40.13L535.86 40.13L535.86 37.18L538.53 37.18L538.53 38.46L537.53 38.46L537.53 37.46L537.95 37.46L537.95 38.46L536.95 38.46L536.95 37.88L537.95 37.88L537.95 38.88L536.41 38.88ZM495.8 37.66L498.31 37.66L498.31 39.13L497.31 39.13L497.31 38.13L499.08 38.13L499.08 39.13L498.08 39.13L498.08 38.17L499.08 38.17L499.08 39.17L498.42 39.17L498.42 38.17L499.42 38.17L499.42 39.45L496.99 39.45L496.99 36.88L500.54 36.88L500.54 40.56L494.8 40.57L494.8 37.66L495.8 37.66ZM495.8 39.66L495.8 38.66L496.8 38.66L496.8 39.57L495.8 39.57L495.8 38.57L499.53 38.56L499.54 39.56L498.54 39.56L498.54 37.88L499.54 37.88L499.54 38.88L497.99 38.88L497.99 37.88L498.99 37.88L498.99 38.45L497.99 38.45L497.99 37.45L498.42 37.45L498.42 38.45L497.42 38.45L497.42 37.17L500.08 37.17L500.08 40.13L496.31 40.13L496.31 38.66L497.31 38.66L497.31 39.66L495.8 39.66ZM490.87 33.49L488.33 33.49L488.33 30.27L491.87 30.27L491.87 33.49L490.87 33.49ZM490.87 31.49L490.87 32.49L489.87 32.49L489.87 31.27L490.87 31.27L490.87 32.27L489.33 32.27L489.33 31.27L490.33 31.27L490.33 32.49L489.33 32.49L489.33 31.49L490.87 31.49ZM501.92 13.4L499.36 13.4L499.36 10.18L502.92 10.18L502.92 13.4L501.92 13.4ZM501.92 11.4L501.92 12.4L500.92 12.4L500.92 11.18L501.92 11.18L501.92 12.18L500.36 12.18L500.36 11.18L501.36 11.18L501.36 12.4L500.36 12.4L500.36 11.4L501.92 11.4ZM536 30.08L538.56 30.08L538.56 33.59L535 33.59L535 30.08L536 30.08ZM536 32.08L536 31.08L537 31.08L537 32.59L536 32.59L536 31.59L537.56 31.59L537.56 32.59L536.56 32.59L536.56 31.08L537.56 31.08L537.56 32.08L536 32.08ZM538.62 34.21L541.05 34.21L541.05 38.98L537.62 38.98L537.62 37.21L538.62 37.21L538.62 38.21L536.51 38.21L536.51 34.92L538.62 34.92L538.62 35.92L537.62 35.92L537.62 34.21L538.62 34.21ZM538.62 36.21L538.62 35.21L539.62 35.21L539.62 36.92L537.51 36.92L537.51 35.92L538.51 35.92L538.51 37.21L537.51 37.21L537.51 36.21L539.62 36.21L539.62 37.98L538.62 37.98L538.62 36.98L540.05 36.98L540.05 37.98L539.05 37.98L539.05 35.21L540.05 35.21L540.05 36.21L538.62 36.21ZM536.74 37.21L536.74 38.98L533.23 38.98L533.23 34.22L536.74 34.22L536.74 35.92L535.74 35.92L535.74 34.92L537.83 34.92L537.84 38.21L535.74 38.21L535.74 37.21L536.74 37.21ZM534.74 36.21L536.84 36.21L536.84 37.21L535.84 37.21L535.83 35.93L536.83 35.92L536.83 36.92L534.74 36.92L534.74 35.22L535.74 35.22L535.74 36.22L534.23 36.22L534.23 35.22L535.23 35.22L535.23 37.98L534.23 37.98L534.23 36.98L535.74 36.98L535.74 37.98L534.74 37.98L534.74 37.21L534.74 36.21ZM499.1 34.92L500.19 34.92L500.19 35.92L499.19 35.92L499.19 34.21L502.61 34.21L502.61 38.98L499.19 38.98L499.19 37.21L500.19 37.21L500.19 38.21L498.1 38.21L498.1 34.92L499.1 34.92ZM499.1 36.92L499.1 35.92L500.1 35.92L500.1 37.21L499.1 37.21L499.1 36.21L501.19 36.21L501.19 37.98L500.19 37.98L500.19 36.98L501.61 36.98L501.61 37.98L500.61 37.98L500.61 35.21L501.61 35.21L501.61 36.21L500.19 36.21L500.19 35.21L501.19 35.21L501.19 36.92L499.1 36.92ZM497.32 38.98L494.8 38.98L494.8 34.22L498.32 34.22L498.32 35.92L497.32 35.92L497.32 34.92L499.43 34.92L499.43 38.22L497.31 38.21L497.32 37.21L498.32 37.21L498.32 38.98L497.32 38.98ZM497.32 36.98L497.32 37.98L496.32 37.98L496.32 36.2L498.44 36.21L498.43 37.21L497.43 37.21L497.43 35.92L498.43 35.92L498.43 36.92L496.32 36.92L496.32 35.22L497.32 35.22L497.32 36.22L495.8 36.22L495.8 35.22L496.8 35.22L496.8 37.98L495.8 37.98L495.8 36.98L497.32 36.98ZM533.77 30.08L536.33 30.08L536.33 33.59L532.77 33.59L532.77 30.08L533.77 30.08ZM533.77 32.08L533.77 31.08L534.77 31.08L534.77 32.59L533.77 32.59L533.77 31.59L535.33 31.59L535.33 32.59L534.33 32.59L534.33 31.08L535.33 31.08L535.33 32.08L533.77 32.08ZM530.55 32.59L530.55 30.08L534.1 30.08L534.1 33.59L530.55 33.59L530.55 32.59ZM532.55 32.59L531.55 32.59L531.55 31.59L533.1 31.59L533.1 32.59L532.1 32.59L532.1 31.08L533.1 31.08L533.1 32.08L531.55 32.08L531.55 31.08L532.55 31.08L532.55 32.59ZM528.32 32.59L528.32 30.08L531.88 30.08L531.88 33.59L528.32 33.59L528.32 32.59ZM530.32 32.59L529.32 32.59L529.32 31.59L530.88 31.59L530.88 32.59L529.88 32.59L529.88 31.08L530.88 31.08L530.88 32.08L529.32 32.08L529.32 31.08L530.32 31.08L530.32 32.59ZM526.09 32.59L526.09 30.08L529.65 30.08L529.65 33.59L526.09 33.59L526.09 32.59ZM528.09 32.59L527.09 32.59L527.09 31.59L528.65 31.59L528.65 32.59L527.65 32.59L527.65 31.08L528.65 31.08L528.65 32.08L527.09 32.08L527.09 31.08L528.09 31.08L528.09 32.59ZM523.86 32.59L523.86 30.08L527.42 30.08L527.42 33.59L523.86 33.59L523.86 32.59ZM525.86 32.59L524.86 32.59L524.86 31.59L526.42 31.59L526.42 32.59L525.42 32.59L525.42 31.08L526.42 31.08L526.42 32.08L524.86 32.08L524.86 31.08L525.86 31.08L525.86 32.59ZM521.64 32.59L521.64 30.08L525.2 30.08L525.2 33.59L521.64 33.59L521.64 32.59ZM523.64 32.59L522.64 32.59L522.64 31.59L524.2 31.59L524.2 32.59L523.2 32.59L523.2 31.08L524.2 31.08L524.2 32.08L522.64 32.08L522.64 31.08L523.64 31.08L523.64 32.59ZM519.41 32.59L519.41 30.08L522.97 30.08L522.97 33.59L519.41 33.59L519.41 32.59ZM521.41 32.59L520.41 32.59L520.41 31.59L521.97 31.59L521.97 32.59L520.97 32.59L520.97 31.08L521.97 31.08L521.97 32.08L520.41 32.08L520.41 31.08L521.41 31.08L521.41 32.59ZM517.18 32.59L517.18 30.08L520.74 30.08L520.74 33.59L517.18 33.59L517.18 32.59ZM519.18 32.59L518.18 32.59L518.18 31.59L519.74 31.59L519.74 32.59L518.74 32.59L518.74 31.08L519.74 31.08L519.74 32.08L518.18 32.08L518.18 31.08L519.18 31.08L519.18 32.59ZM514.95 32.59L514.95 30.08L518.51 30.08L518.51 33.59L514.95 33.59L514.95 32.59ZM516.95 32.59L515.95 32.59L515.95 31.59L517.51 31.59L517.51 32.59L516.51 32.59L516.51 31.08L517.51 31.08L517.51 32.08L515.95 32.08L515.95 31.08L516.95 31.08L516.95 32.59ZM512.72 32.59L512.72 30.08L516.28 30.08L516.28 33.59L512.72 33.59L512.72 32.59ZM514.72 32.59L513.72 32.59L513.72 31.59L515.28 31.59L515.28 32.59L514.28 32.59L514.28 31.08L515.28 31.08L515.28 32.08L513.72 32.08L513.72 31.08L514.72 31.08L514.72 32.59ZM510.49 32.59L510.49 30.08L514.05 30.08L514.05 33.59L510.49 33.59L510.49 32.59ZM512.49 32.59L511.49 32.59L511.49 31.59L513.05 31.59L513.05 32.59L512.05 32.6L512.05 31.08L513.05 31.08L513.05 32.08L511.49 32.08L511.49 31.08L512.49 31.08L512.49 32.59ZM508.27 32.59L508.27 30.08L511.83 30.08L511.83 33.59L508.27 33.59L508.27 32.59ZM510.27 32.59L509.27 32.59L509.27 31.59L510.83 31.59L510.83 32.59L509.83 32.59L509.83 31.08L510.83 31.08L510.83 32.08L509.27 32.08L509.27 31.08L510.27 31.08L510.27 32.59ZM506.04 32.59L506.04 30.08L509.6 30.08L509.6 33.59L506.04 33.59L506.04 32.59ZM508.04 32.59L507.04 32.59L507.04 31.59L508.6 31.59L508.6 32.59L507.6 32.59L507.6 31.08L508.6 31.08L508.6 32.08L507.04 32.08L507.04 31.08L508.04 31.08L508.04 32.59ZM503.82 32.59L503.82 30.08L507.38 30.08L507.38 33.59L503.82 33.59L503.82 32.59ZM505.82 32.59L504.82 32.59L504.82 31.59L506.38 31.59L506.38 32.59L505.38 32.59L505.38 31.08L506.38 31.08L506.38 32.08L504.82 32.08L504.82 31.08L505.82 31.08L505.82 32.59ZM501.59 32.59L501.59 30.08L505.14 30.08L505.15 33.59L501.59 33.59L501.59 32.59ZM503.59 32.59L502.59 32.59L502.59 31.59L504.15 31.59L504.15 32.59L503.15 32.6L503.15 31.08L504.15 31.08L504.15 32.08L502.59 32.08L502.59 31.08L503.59 31.08L503.59 32.59ZM499.36 32.59L499.36 30.08L502.92 30.08L502.92 33.59L499.36 33.59L499.36 32.59ZM501.36 32.59L500.36 32.59L500.36 31.59L501.92 31.59L501.92 32.59L500.92 32.59L500.92 31.08L501.92 31.08L501.92 32.08L500.36 32.08L500.36 31.08L501.36 31.08L501.36 32.59ZM497.13 32.59L497.13 30.08L500.69 30.08L500.69 33.59L497.13 33.59L497.13 32.59ZM499.13 32.59L498.13 32.59L498.13 31.59L499.69 31.59L499.69 32.59L498.69 32.59L498.69 31.08L499.69 31.08L499.69 32.08L498.13 32.08L498.13 31.08L499.13 31.08L499.13 32.59ZM494.8 32.59L494.8 30.08L498.47 30.08L498.47 33.59L494.8 33.59L494.8 32.59ZM496.8 32.59L495.8 32.59L495.8 31.59L497.47 31.59L497.47 32.59L496.47 32.59L496.47 31.08L497.47 31.08L497.47 32.08L495.8 32.08L495.8 31.08L496.8 31.08L496.8 32.59ZM499.54 36.24L496.99 36.24L496.99 33.67L499.42 33.67L499.42 34.95L498.42 34.95L498.42 33.95L499.09 33.95L499.09 34.95L498.09 34.95L498.09 33.99L499.09 33.99L499.09 34.99L497.33 34.99L497.33 33.99L498.33 33.99L498.33 35.53L494.81 35.53L494.81 32.61L500.54 32.63L500.54 36.24L499.54 36.24ZM499.54 34.24L499.54 35.24L498.54 35.24L498.54 33.62L499.54 33.62L499.53 34.62L495.81 34.62L495.81 33.62L496.81 33.62L496.81 34.53L495.81 34.53L495.81 33.53L497.33 33.53L497.33 34.53L496.33 34.53L496.33 32.99L500.09 32.99L500.09 35.95L497.42 35.95L497.42 34.67L498.42 34.67L498.42 35.67L497.99 35.67L497.99 34.67L498.99 34.67L498.99 35.24L497.99 35.24L497.99 34.24L499.54 34.24ZM499.21 34.54L499.21 32.62L502.62 32.62L502.62 35.54L499.21 35.54L499.21 34.54ZM501.21 34.54L500.21 34.54L500.21 33.54L501.62 33.54L501.62 34.54L500.62 34.54L500.62 33.62L501.62 33.62L501.62 34.62L500.21 34.62L500.21 33.62L501.21 33.62L501.21 34.54ZM533.25 34.54L533.25 32.62L536.72 32.62L536.77 35.54L533.25 35.54L533.25 34.54ZM535.25 34.54L534.25 34.54L534.25 33.54L535.76 33.54L535.76 34.54L534.76 34.56L534.74 33.64L535.74 33.62L535.74 34.62L534.25 34.62L534.25 33.62L535.25 33.62L535.25 34.54ZM516.95 26.45Q516.91 26.97 516.53 27.33Q516.15 27.69 515.62 27.69Q515.09 27.69 514.71 27.33Q514.33 26.97 514.29 26.45L514.28 26.42L514.28 14.59L514.29 14.56Q514.33 14.03 514.71 13.68Q515.09 13.32 515.62 13.32Q516.15 13.32 516.53 13.68Q516.91 14.03 516.95 14.56L516.95 14.59L516.95 26.42L516.95 26.45ZM514.96 26.3L515.95 26.38L514.95 26.38L514.95 14.63L515.95 14.63L514.96 14.7Q514.98 14.96 515.16 15.14Q515.36 15.32 515.62 15.32Q515.88 15.32 516.07 15.14Q516.26 14.96 516.28 14.7L515.28 14.63L516.28 14.63L516.28 26.38L515.28 26.38L516.28 26.3Q516.26 26.05 516.07 25.87Q515.88 25.69 515.62 25.69Q515.36 25.69 515.16 25.87Q514.98 26.05 514.96 26.3ZM514.72 26.45Q514.68 26.97 514.3 27.33Q513.92 27.69 513.39 27.69Q512.87 27.69 512.48 27.33Q512.1 26.97 512.06 26.45L512.06 26.42L512.06 14.59L512.06 14.56Q512.1 14.03 512.48 13.68Q512.87 13.32 513.39 13.32Q513.92 13.32 514.3 13.68Q514.68 14.03 514.72 14.56L514.73 14.59L514.73 26.42L514.72 26.45ZM512.73 26.3L513.73 26.38L512.73 26.38L512.73 14.63L513.73 14.63L512.73 14.7Q512.75 14.96 512.94 15.14Q513.13 15.32 513.39 15.32Q513.65 15.32 513.85 15.14Q514.03 14.96 514.05 14.7L513.06 14.63L514.06 14.63L514.06 26.38L513.06 26.38L514.05 26.3Q514.03 26.05 513.85 25.87Q513.65 25.69 513.39 25.69Q513.13 25.69 512.94 25.87Q512.75 26.05 512.73 26.3ZM512.5 26.38Q512.5 26.93 512.11 27.32Q511.72 27.71 511.16 27.71Q510.61 27.71 510.22 27.32Q509.83 26.93 509.83 26.38L509.83 14.63Q509.83 14.08 510.22 13.69Q510.61 13.29 511.16 13.29Q511.72 13.29 512.11 13.69Q512.5 14.08 512.5 14.63L512.5 26.38ZM510.5 26.38L510.5 14.63Q510.5 14.9 510.69 15.1Q510.89 15.29 511.16 15.29Q511.44 15.29 511.64 15.1Q511.83 14.9 511.83 14.63L511.83 26.38Q511.83 26.11 511.64 25.91Q511.44 25.71 511.16 25.71Q510.89 25.71 510.69 25.91Q510.5 26.11 510.5 26.38ZM510.27 26.45Q510.23 26.97 509.85 27.33Q509.46 27.69 508.94 27.69Q508.41 27.69 508.03 27.33Q507.65 26.97 507.61 26.45L507.6 26.42L507.6 14.59L507.61 14.56Q507.65 14.03 508.03 13.68Q508.41 13.32 508.94 13.32Q509.46 13.32 509.85 13.68Q510.23 14.03 510.27 14.56L510.27 14.59L510.27 26.42L510.27 26.45ZM508.27 26.3L509.27 26.38L508.27 26.38L508.27 14.63L509.27 14.63L508.27 14.7Q508.29 14.96 508.48 15.14Q508.67 15.32 508.94 15.32Q509.2 15.32 509.39 15.14Q509.58 14.96 509.6 14.7L508.6 14.63L509.6 14.63L509.6 26.38L508.6 26.38L509.6 26.3Q509.58 26.05 509.39 25.87Q509.2 25.69 508.94 25.69Q508.67 25.69 508.48 25.87Q508.29 26.05 508.27 26.3ZM508.04 26.45Q508 26.97 507.62 27.33Q507.24 27.69 506.71 27.69Q506.18 27.69 505.8 27.33Q505.42 26.97 505.38 26.45L505.38 26.42L505.38 14.59L505.38 14.56Q505.42 14.03 505.8 13.68Q506.18 13.32 506.71 13.32Q507.24 13.32 507.62 13.68Q508 14.03 508.04 14.56L508.04 14.59L508.04 26.42L508.04 26.45ZM506.05 26.3L507.04 26.38L506.04 26.38L506.04 14.63L507.04 14.63L506.05 14.7Q506.07 14.96 506.26 15.14Q506.45 15.32 506.71 15.32Q506.97 15.32 507.16 15.14Q507.35 14.96 507.37 14.7L506.38 14.63L507.38 14.63L507.38 26.38L506.38 26.38L507.37 26.3Q507.35 26.05 507.16 25.87Q506.97 25.69 506.71 25.69Q506.45 25.69 506.26 25.87Q506.07 26.05 506.05 26.3ZM505.81 26.45Q505.77 26.97 505.39 27.33Q505.01 27.69 504.48 27.69Q503.96 27.69 503.57 27.33Q503.19 26.97 503.15 26.45L503.15 26.42L503.15 14.59L503.15 14.56Q503.19 14.03 503.57 13.68Q503.96 13.32 504.48 13.32Q505.01 13.32 505.39 13.68Q505.77 14.03 505.81 14.56L505.82 14.59L505.82 26.42L505.81 26.45ZM503.82 26.3L504.82 26.38L503.82 26.38L503.82 14.63L504.82 14.63L503.82 14.7Q503.84 14.96 504.03 15.14Q504.22 15.32 504.48 15.32Q504.75 15.32 504.94 15.14Q505.13 14.96 505.15 14.7L504.15 14.63L505.15 14.63L505.15 26.38L504.15 26.38L505.15 26.3Q505.13 26.05 504.94 25.87Q504.75 25.69 504.48 25.69Q504.22 25.69 504.03 25.87Q503.84 26.05 503.82 26.3ZM503.59 26.45Q503.55 26.97 503.17 27.33Q502.78 27.69 502.25 27.69Q501.73 27.69 501.34 27.33Q500.96 26.97 500.92 26.45L500.92 26.42L500.92 14.59L500.92 14.56Q500.96 14.03 501.34 13.68Q501.73 13.32 502.25 13.32Q502.78 13.32 503.17 13.68Q503.55 14.03 503.59 14.56L503.59 14.59L503.59 26.42L503.59 26.45ZM501.59 26.3L502.59 26.38L501.59 26.38L501.59 14.63L502.59 14.63L501.59 14.7Q501.61 14.96 501.8 15.14Q501.99 15.32 502.25 15.32Q502.52 15.32 502.71 15.14Q502.9 14.96 502.92 14.7L501.92 14.63L502.92 14.63L502.92 26.38L501.92 26.38L502.92 26.3Q502.9 26.05 502.71 25.87Q502.52 25.69 502.25 25.69Q501.99 25.69 501.8 25.87Q501.61 26.05 501.59 26.3ZM501.36 26.45Q501.32 26.97 500.94 27.33Q500.55 27.69 500.03 27.69Q499.5 27.69 499.12 27.33Q498.73 26.97 498.69 26.45L498.69 26.42L498.69 14.59L498.69 14.56Q498.73 14.03 499.12 13.68Q499.5 13.32 500.03 13.32Q500.55 13.32 500.94 13.68Q501.32 14.03 501.36 14.56L501.36 14.59L501.36 26.42L501.36 26.45ZM499.36 26.3L500.36 26.38L499.36 26.38L499.36 14.63L500.36 14.63L499.36 14.7Q499.38 14.96 499.57 15.14Q499.76 15.32 500.03 15.32Q500.29 15.32 500.48 15.14Q500.67 14.96 500.69 14.7L499.69 14.63L500.69 14.63L500.69 26.38L499.69 26.38L500.69 26.3Q500.67 26.05 500.48 25.87Q500.29 25.69 500.03 25.69Q499.76 25.69 499.57 25.87Q499.38 26.05 499.36 26.3ZM538.84 15.42Q539.23 15.81 539.23 16.36L539.23 26.42L539.23 26.45Q539.19 26.97 538.81 27.33Q538.42 27.69 537.89 27.69Q537.37 27.69 536.98 27.33Q536.6 26.97 536.56 26.45L536.56 26.42L536.56 16.37Q536.56 16.12 536.65 15.87Q536.75 15.62 536.94 15.43Q537.13 15.24 537.38 15.13Q537.62 15.03 537.89 15.03Q538.45 15.03 538.84 15.42ZM537.42 16.83Q537.62 17.03 537.89 17.03Q538.03 17.03 538.15 16.97Q538.28 16.92 538.37 16.82Q538.46 16.73 538.51 16.61Q538.56 16.48 538.56 16.37L538.56 26.38L537.56 26.38L538.56 26.3Q538.54 26.05 538.35 25.87Q538.16 25.69 537.89 25.69Q537.63 25.69 537.44 25.87Q537.25 26.05 537.23 26.3L538.23 26.38L537.23 26.38L537.23 16.36Q537.23 16.64 537.42 16.83L537.42 16.83ZM537 26.45Q536.96 26.97 536.58 27.33Q536.19 27.69 535.67 27.69Q535.14 27.69 534.75 27.33Q534.37 26.97 534.33 26.45L534.33 26.42L534.33 14.59L534.33 14.56Q534.37 14.03 534.75 13.68Q535.14 13.32 535.67 13.32Q536.19 13.32 536.58 13.68Q536.96 14.03 537 14.56L537 14.59L537 26.42L537 26.45ZM535 26.3L536 26.38L535 26.38L535 14.63L536 14.63L535 14.7Q535.02 14.96 535.21 15.14Q535.4 15.32 535.67 15.32Q535.93 15.32 536.12 15.14Q536.31 14.96 536.33 14.7L535.33 14.63L536.33 14.63L536.33 26.38L535.33 26.38L536.33 26.3Q536.31 26.05 536.12 25.87Q535.93 25.69 535.67 25.69Q535.4 25.69 535.21 25.87Q535.02 26.05 535 26.3ZM534.77 26.45Q534.73 26.97 534.35 27.33Q533.96 27.69 533.44 27.69Q532.91 27.69 532.53 27.33Q532.14 26.97 532.11 26.45L532.1 26.42L532.1 14.59L532.11 14.56Q532.14 14.03 532.53 13.68Q532.91 13.32 533.44 13.32Q533.96 13.32 534.35 13.68Q534.73 14.03 534.77 14.56L534.77 14.59L534.77 26.42L534.77 26.45ZM532.77 26.3L533.77 26.38L532.77 26.38L532.77 14.63L533.77 14.63L532.77 14.7Q532.79 14.96 532.98 15.14Q533.17 15.32 533.44 15.32Q533.7 15.32 533.89 15.14Q534.08 14.96 534.1 14.7L533.1 14.63L534.1 14.63L534.1 26.38L533.1 26.38L534.1 26.3Q534.08 26.05 533.89 25.87Q533.7 25.69 533.44 25.69Q533.17 25.69 532.98 25.87Q532.79 26.05 532.77 26.3ZM532.54 26.45Q532.5 26.97 532.12 27.33Q531.74 27.69 531.21 27.69Q530.68 27.69 530.3 27.33Q529.92 26.97 529.88 26.45L529.88 26.42L529.88 14.59L529.88 14.56Q529.92 14.03 530.3 13.68Q530.68 13.32 531.21 13.32Q531.74 13.32 532.12 13.68Q532.5 14.03 532.54 14.56L532.54 14.59L532.54 26.42L532.54 26.45ZM530.55 26.3L531.54 26.38L530.54 26.38L530.54 14.63L531.54 14.63L530.55 14.7Q530.57 14.96 530.75 15.14Q530.95 15.32 531.21 15.32Q531.47 15.32 531.66 15.14Q531.85 14.96 531.87 14.7L530.88 14.63L531.88 14.63L531.88 26.38L530.88 26.38L531.87 26.3Q531.85 26.05 531.66 25.87Q531.47 25.69 531.21 25.69Q530.95 25.69 530.75 25.87Q530.57 26.05 530.55 26.3ZM530.32 26.38Q530.32 26.93 529.93 27.32Q529.54 27.71 528.98 27.71Q528.43 27.71 528.04 27.32Q527.65 26.93 527.65 26.38L527.65 14.63Q527.65 14.08 528.04 13.69Q528.43 13.29 528.98 13.29Q529.54 13.29 529.93 13.69Q530.32 14.08 530.32 14.63L530.32 26.38ZM528.32 26.38L528.32 14.63Q528.32 14.9 528.51 15.1Q528.7 15.29 528.98 15.29Q529.26 15.29 529.46 15.1Q529.65 14.9 529.65 14.63L529.65 26.38Q529.65 26.11 529.46 25.91Q529.26 25.71 528.98 25.71Q528.7 25.71 528.51 25.91Q528.32 26.11 528.32 26.38ZM528.09 26.38Q528.09 26.93 527.7 27.32Q527.31 27.71 526.76 27.71Q526.2 27.71 525.81 27.32Q525.42 26.93 525.42 26.38L525.42 14.63Q525.42 14.08 525.81 13.69Q526.2 13.29 526.76 13.29Q527.31 13.29 527.7 13.69Q528.09 14.08 528.09 14.63L528.09 26.38ZM526.09 26.38L526.09 14.63Q526.09 14.9 526.28 15.1Q526.48 15.29 526.76 15.29Q527.03 15.29 527.23 15.1Q527.42 14.9 527.42 14.63L527.42 26.38Q527.42 26.11 527.23 25.91Q527.03 25.71 526.76 25.71Q526.48 25.71 526.28 25.91Q526.09 26.11 526.09 26.38ZM525.86 26.45Q525.82 26.97 525.44 27.33Q525.05 27.69 524.53 27.69Q524 27.69 523.62 27.33Q523.24 26.97 523.2 26.45L523.19 26.42L523.19 14.59L523.2 14.56Q523.24 14.03 523.62 13.68Q524 13.32 524.53 13.32Q525.05 13.32 525.44 13.68Q525.82 14.03 525.86 14.56L525.86 14.59L525.86 26.42L525.86 26.45ZM523.87 26.3L524.86 26.38L523.86 26.38L523.86 14.63L524.86 14.63L523.87 14.7Q523.88 14.96 524.07 15.14Q524.27 15.32 524.53 15.32Q524.79 15.32 524.98 15.14Q525.17 14.96 525.19 14.7L524.19 14.63L525.19 14.63L525.19 26.38L524.19 26.38L525.19 26.3Q525.17 26.05 524.98 25.87Q524.79 25.69 524.53 25.69Q524.27 25.69 524.07 25.87Q523.88 26.05 523.87 26.3ZM523.63 26.45Q523.59 26.97 523.21 27.33Q522.83 27.69 522.3 27.69Q521.77 27.69 521.39 27.33Q521.01 26.97 520.97 26.45L520.97 26.42L520.97 14.59L520.97 14.56Q521.01 14.03 521.39 13.68Q521.77 13.32 522.3 13.32Q522.83 13.32 523.21 13.68Q523.59 14.03 523.63 14.56L523.63 14.59L523.63 26.42L523.63 26.45ZM521.64 26.3L522.63 26.38L521.63 26.38L521.63 14.63L522.63 14.63L521.64 14.7Q521.66 14.96 521.84 15.14Q522.04 15.32 522.3 15.32Q522.56 15.32 522.76 15.14Q522.94 14.96 522.96 14.7L521.97 14.63L522.97 14.63L522.97 26.38L521.97 26.38L522.96 26.3Q522.94 26.05 522.76 25.87Q522.56 25.69 522.3 25.69Q522.04 25.69 521.84 25.87Q521.66 26.05 521.64 26.3ZM521.4 26.45Q521.37 26.97 520.98 27.33Q520.6 27.69 520.07 27.69Q519.55 27.69 519.16 27.33Q518.78 26.97 518.74 26.45L518.74 26.42L518.74 14.59L518.74 14.56Q518.78 14.03 519.16 13.68Q519.55 13.32 520.07 13.32Q520.6 13.32 520.98 13.68Q521.37 14.03 521.4 14.56L521.41 14.59L521.41 26.42L521.4 26.45ZM519.41 26.3L520.41 26.38L519.41 26.38L519.41 14.63L520.41 14.63L519.41 14.7Q519.43 14.96 519.62 15.14Q519.81 15.32 520.07 15.32Q520.34 15.32 520.53 15.14Q520.72 14.96 520.74 14.7L519.74 14.63L520.74 14.63L520.74 26.38L519.74 26.38L520.74 26.3Q520.72 26.05 520.53 25.87Q520.34 25.69 520.07 25.69Q519.81 25.69 519.62 25.87Q519.43 26.05 519.41 26.3ZM516.93 13.68Q517.32 13.32 517.84 13.32Q518.37 13.32 518.76 13.68Q519.14 14.03 519.18 14.56L519.18 14.59L519.18 26.42L519.18 26.45Q519.14 26.97 518.76 27.33Q518.37 27.69 517.84 27.69Q517.32 27.69 516.93 27.33Q516.55 26.97 516.51 26.45L516.51 26.42L516.51 14.59L516.51 14.56Q516.55 14.03 516.93 13.68ZM518.3 15.14Q518.49 14.96 518.51 14.7L517.51 14.63L518.51 14.63L518.51 26.38L517.51 26.38L518.51 26.3Q518.49 26.05 518.3 25.87Q518.11 25.69 517.84 25.69Q517.58 25.69 517.39 25.87Q517.2 26.05 517.18 26.3L518.18 26.38L517.18 26.38L517.18 14.63L518.18 14.63L517.18 14.7Q517.2 14.96 517.39 15.14Q517.58 15.32 517.84 15.32Q518.11 15.32 518.3 15.14ZM538.79 18.39Q538.83 17.87 539.21 17.51Q539.59 17.15 540.12 17.15Q540.65 17.15 541.03 17.51Q541.41 17.87 541.45 18.39L541.45 18.43L541.45 26.43L541.45 26.46Q541.41 26.98 541.03 27.34Q540.65 27.7 540.12 27.7Q539.59 27.7 539.21 27.34Q538.83 26.98 538.79 26.46L538.79 26.43L538.79 26.38L538.79 18.43L538.79 18.39ZM540.78 18.54L539.79 18.47L540.79 18.47L540.79 26.38L540.79 26.39L539.79 26.39L540.78 26.31Q540.76 26.06 540.58 25.88Q540.38 25.7 540.12 25.7Q539.86 25.7 539.67 25.88Q539.48 26.06 539.46 26.31L540.45 26.39L539.45 26.39L539.45 18.47L540.45 18.47L539.46 18.54Q539.48 18.8 539.67 18.98Q539.86 19.15 540.12 19.15Q540.38 19.15 540.58 18.98Q540.76 18.8 540.78 18.54ZM508.6 13.4L506.04 13.4L506.04 10.18L509.6 10.18L509.6 13.4L508.6 13.4ZM508.6 11.4L508.6 12.4L507.6 12.4L507.6 11.18L508.6 11.18L508.6 12.18L507.04 12.18L507.04 11.18L508.04 11.18L508.04 12.4L507.04 12.4L507.04 11.4L508.6 11.4ZM511.83 11.18L511.83 13.4L508.27 13.4L508.27 10.18L511.83 10.18L511.83 11.18ZM509.83 11.18L510.83 11.18L510.83 12.18L509.27 12.18L509.27 11.18L510.27 11.18L510.27 12.4L509.27 12.4L509.27 11.4L510.83 11.4L510.83 12.4L509.83 12.4L509.83 11.18ZM514.06 11.18L514.06 13.4L510.49 13.4L510.5 10.18L514.06 10.18L514.06 11.18ZM512.06 11.18L513.06 11.18L513.06 12.18L511.5 12.18L511.5 11.18L512.5 11.18L512.49 12.4L511.49 12.4L511.49 11.4L513.06 11.4L513.06 12.4L512.06 12.4L512.06 11.18ZM516.28 11.18L516.28 13.4L512.72 13.4L512.73 10.18L516.28 10.18L516.28 11.18ZM514.28 11.18L515.28 11.18L515.28 12.18L513.72 12.18L513.72 11.18L514.72 11.18L514.72 12.4L513.72 12.4L513.72 11.4L515.28 11.4L515.28 12.4L514.28 12.4L514.28 11.18ZM518.51 11.18L518.51 13.4L514.95 13.4L514.95 10.18L518.51 10.18L518.51 11.18ZM516.51 11.18L517.51 11.18L517.51 12.18L515.95 12.18L515.95 11.18L516.95 11.18L516.95 12.4L515.95 12.4L515.95 11.4L517.51 11.4L517.51 12.4L516.51 12.4L516.51 11.18ZM527.09 10.18L529.65 10.18L529.65 13.4L526.09 13.4L526.09 10.18L527.09 10.18ZM527.09 12.18L527.09 11.18L528.09 11.18L528.09 12.4L527.09 12.4L527.09 11.4L528.65 11.4L528.65 12.4L527.65 12.4L527.65 11.18L528.65 11.18L528.65 12.18L527.09 12.18ZM523.86 12.4L523.86 10.18L527.42 10.18L527.42 13.4L523.86 13.4L523.86 12.4ZM525.86 12.4L524.86 12.4L524.86 11.4L526.42 11.4L526.42 12.4L525.42 12.4L525.42 11.18L526.42 11.18L526.42 12.18L524.86 12.18L524.86 11.18L525.86 11.18L525.86 12.4ZM521.63 12.4L521.63 10.18L525.19 10.18L525.19 13.4L521.63 13.4L521.63 12.4ZM523.63 12.4L522.63 12.4L522.63 11.4L524.19 11.4L524.19 12.4L523.19 12.4L523.19 11.18L524.19 11.18L524.19 12.18L522.63 12.18L522.63 11.18L523.63 11.18L523.63 12.4ZM519.41 12.4L519.41 10.18L522.97 10.18L522.97 13.4L519.41 13.4L519.41 12.4ZM521.41 12.4L520.41 12.4L520.41 11.4L521.97 11.4L521.97 12.4L520.97 12.4L520.97 11.18L521.97 11.18L521.97 12.18L520.41 12.18L520.41 11.18L521.41 11.18L521.41 12.4ZM517.18 12.4L517.18 10.18L520.74 10.18L520.74 13.4L517.18 13.4L517.18 12.4ZM519.18 12.4L518.18 12.4L518.18 11.4L519.74 11.4L519.74 12.4L518.74 12.4L518.74 11.18L519.74 11.18L519.74 12.18L518.18 12.18L518.18 11.18L519.18 11.18L519.18 12.4ZM533.77 10.18L536.33 10.18L536.33 13.4L532.77 13.4L532.77 10.18L533.77 10.18ZM533.77 12.18L533.77 11.18L534.77 11.18L534.77 12.4L533.77 12.4L533.77 11.4L535.33 11.4L535.33 12.4L534.33 12.4L534.33 11.18L535.33 11.18L535.33 12.18L533.77 12.18ZM530.54 12.4L530.54 10.18L534.1 10.18L534.1 13.4L530.54 13.4L530.54 12.4ZM532.54 12.4L531.54 12.4L531.54 11.4L533.1 11.4L533.1 12.4L532.1 12.4L532.1 11.18L533.1 11.18L533.1 12.18L531.54 12.18L531.54 11.18L532.54 11.18L532.54 12.4ZM528.32 12.4L528.32 10.18L531.88 10.18L531.88 13.4L528.32 13.4L528.32 12.4ZM530.32 12.4L529.32 12.4L529.32 11.4L530.88 11.4L530.88 12.4L529.88 12.4L529.88 11.18L530.88 11.18L530.88 12.18L529.32 12.18L529.32 11.18L530.32 11.18L530.32 12.4ZM503.81 12.4L503.81 10.18L507.38 10.18L507.37 13.4L503.81 13.4L503.81 12.4ZM505.81 12.4L504.81 12.4L504.81 11.4L506.37 11.4L506.37 12.4L505.37 12.39L505.38 11.18L506.38 11.18L506.38 12.18L504.81 12.18L504.81 11.18L505.81 11.18L505.81 12.4ZM501.59 12.4L501.59 10.18L505.15 10.18L505.15 13.4L501.59 13.4L501.59 12.4ZM503.59 12.4L502.59 12.4L502.59 11.4L504.15 11.4L504.15 12.4L503.15 12.4L503.15 11.18L504.15 11.18L504.15 12.18L502.59 12.18L502.59 11.18L503.59 11.18L503.59 12.4ZM499.13 26.46Q499.09 26.98 498.71 27.34Q498.32 27.7 497.8 27.7Q497.27 27.7 496.89 27.34Q496.51 26.98 496.47 26.46L496.46 26.42L496.46 16.37L497.46 16.37L496.47 16.44Q496.45 16.16 496.54 15.9Q496.63 15.64 496.82 15.43Q497.01 15.23 497.26 15.12Q497.52 15 497.8 15Q498.08 15 498.34 15.12Q498.59 15.23 498.78 15.43Q498.97 15.64 499.06 15.9Q499.15 16.16 499.13 16.44L498.13 16.37L499.13 16.37L499.13 26.42L499.13 26.46ZM497.14 26.31L498.13 26.38L497.13 26.38L497.13 16.33L497.14 16.29Q497.13 16.43 497.17 16.56Q497.22 16.69 497.31 16.79Q497.4 16.89 497.53 16.95Q497.66 17 497.8 17Q497.94 17 498.07 16.95Q498.19 16.89 498.29 16.79Q498.38 16.69 498.43 16.56Q498.47 16.43 498.46 16.29L498.46 16.33L498.46 26.38L497.46 26.38L498.46 26.31Q498.44 26.05 498.25 25.87Q498.06 25.7 497.8 25.7Q497.54 25.7 497.34 25.87Q497.16 26.05 497.14 26.31ZM496.91 26.39Q496.91 26.94 496.52 27.33Q496.13 27.72 495.57 27.72Q495.02 27.72 494.63 27.33Q494.24 26.94 494.24 26.39L494.24 18.47Q494.24 17.92 494.63 17.53Q495.02 17.13 495.57 17.13Q496.13 17.13 496.52 17.53Q496.91 17.92 496.91 18.47L496.91 26.39ZM494.91 26.39L494.91 18.47Q494.91 18.74 495.1 18.93Q495.29 19.13 495.57 19.13Q495.85 19.13 496.05 18.93Q496.24 18.74 496.24 18.47L496.24 26.39Q496.24 26.12 496.05 25.92Q495.85 25.72 495.57 25.72Q495.29 25.72 495.1 25.92Q494.91 26.12 494.91 26.39ZM502.61 38.67L502.61 40.58L499.19 40.58L499.19 37.67L502.61 37.67L502.61 38.67ZM500.61 38.67L501.61 38.67L501.61 39.67L500.19 39.67L500.19 38.67L501.19 38.67L501.19 39.58L500.19 39.58L500.19 38.58L501.61 38.58L501.61 39.58L500.61 39.58L500.61 38.67ZM536.74 38.67L536.74 40.58L533.23 40.58L533.24 37.67L536.74 37.67L536.74 38.67ZM534.74 38.67L535.74 38.67L535.74 39.67L534.24 39.67L534.24 38.67L535.24 38.67L535.23 39.58L534.23 39.58L534.23 38.58L535.74 38.58L535.74 39.58L534.74 39.58L534.74 38.67ZM537.62 34.56L537.62 34.01L538.62 34.01L538.62 35.01L536.86 35.01L536.86 34.01L537.86 34.01L537.86 34.96L536.86 34.96L536.86 33.96L537.52 33.96L537.52 34.96L536.52 34.96L536.52 33.68L538.95 33.68L538.95 36.26L535.41 36.26L535.41 32.64L541.05 32.64L541.05 35.56L537.62 35.56L537.62 34.56ZM539.62 34.56L538.62 34.56L538.62 33.56L540.05 33.56L540.05 34.56L539.05 34.56L539.05 33.64L540.05 33.64L540.05 34.64L536.41 34.64L536.41 33.64L537.41 33.64L537.41 35.26L536.41 35.26L536.41 34.26L537.95 34.26L537.95 35.26L536.95 35.26L536.95 34.68L537.95 34.68L537.95 35.68L537.52 35.68L537.52 34.68L538.52 34.68L538.52 35.96L535.86 35.96L535.86 33.01L539.62 33.01L539.62 34.56ZM537.23 32.61L537.23 30.09L541.05 30.09L541.05 33.61L537.23 33.61L537.23 32.61ZM539.23 32.61L538.23 32.61L538.23 31.61L540.05 31.61L540.05 32.61L539.05 32.61L539.05 31.09L540.05 31.09L540.05 32.09L538.23 32.09L538.23 31.09L539.23 31.09L539.23 32.61ZM535 12.4L535 10.18L538.56 10.18L538.56 13.4L535 13.4L535 12.4ZM537 12.4L536 12.4L536 11.4L537.56 11.4L537.56 12.4L536.56 12.4L536.56 11.18L537.56 11.18L537.56 12.18L536 12.18L536 11.18L537 11.18L537 12.4ZM529.81 4.78L532.14 4.78L532.14 9.19L531.14 9.19L531.14 8.19L536.43 8.19L536.43 11.14L529.11 11.14L529.11 7.55L530.11 7.55L530.11 8.55L526.11 8.55L526.11 5.96L529.81 5.96L529.81 6.96L528.81 6.96L528.81 4.78L529.81 4.78ZM529.81 6.78L529.81 5.78L530.81 5.78L530.81 7.96L527.11 7.96L527.11 6.96L528.11 6.96L528.11 7.55L527.11 7.55L527.11 6.55L531.11 6.55L531.11 10.14L530.11 10.14L530.11 9.14L535.43 9.14L535.43 10.14L534.43 10.14L534.43 9.19L535.43 9.19L535.43 10.19L530.14 10.19L530.14 5.78L531.14 5.78L531.14 6.78L529.81 6.78ZM518.72 5.96L522.35 5.96L522.35 6.96L521.35 6.96L521.35 3.31L522.35 3.31L522.35 4.31L519.78 4.31L519.78 3.31L520.78 3.31L520.78 5.24L519.78 5.24L519.78 4.24L520.45 4.24L520.45 5.24L519.45 5.24L519.45 2.98L522.68 2.98L522.68 7.29L518.39 7.29L518.39 1.71L524.45 1.71L524.45 6.96L523.45 6.96L523.45 5.96L527.46 5.96L527.46 8.55L517.33 8.55L517.33 3.91L519.72 3.91L519.72 6.96L518.72 6.96L518.72 5.96ZM517.72 7.96L517.72 4.91L518.72 4.91L518.72 5.91L518.33 5.91L518.33 4.91L519.33 4.91L519.33 7.55L518.33 7.55L518.33 6.55L526.46 6.55L526.46 7.55L525.46 7.55L525.46 6.96L526.46 6.96L526.46 7.96L522.45 7.96L522.45 2.71L523.45 2.71L523.45 3.71L519.39 3.71L519.39 2.71L520.39 2.71L520.39 6.29L519.39 6.29L519.39 5.29L521.68 5.29L521.68 6.29L520.68 6.29L520.68 3.98L521.68 3.98L521.68 4.98L520.45 4.98L520.45 3.98L521.45 3.98L521.45 6.24L518.78 6.24L518.78 2.31L523.35 2.31L523.35 7.96L518.72 7.96L517.72 7.96ZM512.35 1.71L517.42 1.71L517.42 7.29L513.13 7.29L513.13 2.98L516.35 2.98L516.35 5.24L515.35 5.24L515.35 4.24L516.02 4.24L516.02 5.24L515.02 5.24L515.02 3.31L516.02 3.31L516.02 4.31L513.46 4.31L513.46 3.31L514.46 3.31L514.46 6.96L513.46 6.96L513.46 5.96L517.08 5.96L517.08 6.96L516.08 6.96L516.08 3.91L518.67 3.91L518.67 8.55L508.36 8.55L508.36 5.96L512.35 5.96L512.35 6.96L511.35 6.96L511.35 1.71L512.35 1.71ZM512.35 3.71L512.35 2.71L513.35 2.71L513.35 7.96L509.36 7.96L509.36 6.96L510.36 6.96L510.36 7.55L509.36 7.55L509.36 6.55L517.67 6.55L517.67 7.55L516.67 7.55L516.67 4.91L517.67 4.91L517.67 5.91L517.08 5.91L517.08 4.91L518.08 4.91L518.08 7.96L512.46 7.96L512.46 2.31L517.02 2.31L517.02 6.24L514.35 6.24L514.35 3.98L515.35 3.98L515.35 4.98L514.13 4.98L514.13 3.98L515.13 3.98L515.13 6.29L514.13 6.29L514.13 5.29L516.42 5.29L516.42 6.29L515.42 6.29L515.42 2.71L516.42 2.71L516.42 3.71L512.35 3.71ZM503.66 9.19L503.66 4.78L506.98 4.78L506.98 6.96L505.98 6.96L505.98 5.96L509.67 5.96L509.67 8.55L505.87 8.55L505.87 7.55L506.87 7.55L506.87 11.15L499.36 11.15L499.36 8.19L504.66 8.19L504.66 9.19L503.66 9.19ZM505.66 10.19L500.36 10.19L500.36 9.19L501.36 9.19L501.36 10.15L500.36 10.15L500.36 9.15L505.87 9.15L505.87 10.15L504.87 10.15L504.87 6.55L508.67 6.55L508.67 7.55L507.67 7.55L507.67 6.96L508.67 6.96L508.67 7.96L504.98 7.96L504.98 5.78L505.98 5.78L505.98 6.78L504.66 6.78L504.66 5.78L505.66 5.78L505.66 9.19L505.66 10.19ZM500.69 11.18L500.69 13.4L497.13 13.4L497.13 10.18L500.69 10.18L500.69 11.18ZM498.69 11.18L499.69 11.18L499.69 12.18L498.13 12.18L498.13 11.18L499.13 11.18L499.13 12.4L498.13 12.4L498.13 11.4L499.69 11.4L499.69 12.4L498.69 12.4L498.69 11.18ZM488.65 33.49L486.09 33.49L486.09 30.27L489.65 30.27L489.65 33.49L488.65 33.49ZM488.65 31.49L488.65 32.49L487.65 32.49L487.65 31.27L488.65 31.27L488.65 32.27L487.09 32.27L487.09 31.27L488.09 31.27L488.09 32.49L487.09 32.49L487.09 31.49L488.65 31.49ZM486.42 33.49L483.86 33.49L483.86 30.27L487.42 30.27L487.42 33.49L486.42 33.49ZM486.42 31.49L486.42 32.49L485.42 32.49L485.42 31.27L486.42 31.27L486.42 32.27L484.86 32.27L484.86 31.27L485.86 31.27L485.86 32.49L484.86 32.49L484.86 31.49L486.42 31.49ZM484.2 33.49L481.64 33.49L481.64 30.27L485.2 30.27L485.2 33.49L484.2 33.49ZM484.2 31.49L484.2 32.49L483.2 32.49L483.2 31.27L484.2 31.27L484.2 32.27L482.64 32.27L482.64 31.27L483.64 31.27L483.64 32.49L482.64 32.49L482.64 31.49L484.2 31.49ZM482.97 31.27L482.97 33.49L479.41 33.49L479.41 30.27L482.97 30.27L482.97 31.27ZM480.97 31.27L481.97 31.27L481.97 32.27L480.41 32.27L480.41 31.27L481.41 31.27L481.41 32.49L480.41 32.49L480.41 31.49L481.97 31.49L481.97 32.49L480.97 32.49L480.97 31.27ZM480.74 31.27L480.74 33.49L477.18 33.49L477.18 30.27L480.74 30.27L480.74 31.27ZM478.74 31.27L479.74 31.27L479.74 32.27L478.18 32.27L478.18 31.27L479.18 31.27L479.18 32.49L478.18 32.49L478.18 31.49L479.74 31.49L479.74 32.49L478.74 32.49L478.74 31.27ZM478.51 31.27L478.51 33.49L474.95 33.49L474.95 30.27L478.51 30.27L478.51 31.27ZM476.51 31.27L477.51 31.27L477.51 32.27L475.95 32.27L475.95 31.27L476.95 31.27L476.95 32.49L475.95 32.49L475.95 31.49L477.51 31.49L477.51 32.49L476.51 32.49L476.51 31.27ZM476.28 31.27L476.28 33.49L472.72 33.49L472.72 30.27L476.28 30.27L476.28 31.27ZM474.28 31.27L475.28 31.27L475.28 32.27L473.72 32.27L473.72 31.27L474.72 31.27L474.72 32.49L473.72 32.49L473.72 31.49L475.28 31.49L475.28 32.49L474.28 32.49L474.28 31.27ZM470.65 47.71Q470.41 47.61 470.22 47.42Q470.03 47.23 469.93 46.98Q469.83 46.74 469.83 46.47L469.83 38.51L469.83 38.48Q469.87 37.96 470.25 37.6Q470.64 37.24 471.16 37.24Q471.69 37.24 472.07 37.6Q472.45 37.96 472.49 38.48L472.5 38.51L472.5 46.47Q472.5 47.02 472.11 47.41Q471.72 47.8 471.17 47.81L471.16 47.81Q470.9 47.81 470.65 47.71L470.65 47.71ZM471.42 45.86Q471.29 45.81 471.16 45.81L471.16 45.81Q470.88 45.81 470.69 46.01Q470.5 46.2 470.5 46.47L470.5 38.55L471.5 38.55L470.5 38.63Q470.52 38.88 470.71 39.06Q470.9 39.24 471.16 39.24Q471.43 39.24 471.62 39.06Q471.81 38.88 471.83 38.63L470.83 38.55L471.83 38.55L471.83 46.47Q471.83 46.34 471.78 46.22Q471.73 46.1 471.63 46Q471.54 45.91 471.42 45.86L471.42 45.86ZM470.24 52.69L470.24 50.18L474.06 50.18L474.06 53.69L470.24 53.69L470.24 52.69ZM472.24 52.69L471.24 52.69L471.24 51.69L473.06 51.69L473.06 52.69L472.06 52.69L472.06 51.18L473.06 51.18L473.06 52.18L471.24 52.18L471.24 51.18L472.24 51.18L472.24 52.69ZM474.3 47.42Q473.92 47.78 473.39 47.78Q472.87 47.78 472.48 47.42Q472.1 47.07 472.06 46.55L472.06 46.51L472.06 36.46L473.06 36.46L472.06 36.53Q472.04 36.25 472.13 35.99Q472.22 35.73 472.41 35.52Q472.6 35.32 472.86 35.21Q473.11 35.09 473.39 35.09Q473.67 35.09 473.93 35.21Q474.18 35.32 474.37 35.52Q474.56 35.73 474.65 35.99Q474.74 36.25 474.72 36.53L473.73 36.46L474.73 36.46L474.73 46.51L474.72 46.55Q474.68 47.07 474.3 47.42L474.3 47.42ZM472.94 45.96Q472.75 46.14 472.73 46.4L473.73 46.47L472.73 46.47L472.73 36.42L472.73 36.38Q472.72 36.52 472.76 36.65Q472.81 36.78 472.9 36.88Q473 36.98 473.12 37.04Q473.25 37.09 473.39 37.09Q473.53 37.09 473.66 37.04Q473.79 36.98 473.88 36.88Q473.98 36.78 474.02 36.65Q474.06 36.52 474.05 36.38L474.06 36.42L474.06 46.47L473.06 46.47L474.05 46.4Q474.04 46.14 473.85 45.96Q473.66 45.78 473.39 45.78Q473.13 45.78 472.94 45.96ZM472.73 52.69L472.73 50.18L476.29 50.18L476.29 53.69L472.73 53.69L472.73 52.69ZM474.73 52.69L473.73 52.69L473.73 51.69L475.29 51.69L475.29 52.69L474.29 52.69L474.29 51.18L475.29 51.18L475.29 52.18L473.73 52.18L473.73 51.18L474.73 51.18L474.73 52.69ZM476.53 47.42Q476.15 47.78 475.62 47.78Q475.09 47.78 474.71 47.42Q474.33 47.07 474.29 46.55L474.29 46.51L474.29 34.69L474.29 34.65Q474.33 34.13 474.71 33.77Q475.09 33.41 475.62 33.41Q476.15 33.41 476.53 33.77Q476.91 34.13 476.95 34.65L476.95 34.69L476.95 46.51L476.95 46.55Q476.91 47.07 476.53 47.42L476.53 47.42ZM475.16 45.96Q474.98 46.14 474.96 46.4L475.95 46.47L474.95 46.47L474.95 34.72L475.95 34.72L474.96 34.8Q474.98 35.06 475.16 35.23Q475.36 35.41 475.62 35.41Q475.88 35.41 476.07 35.23Q476.26 35.06 476.28 34.8L475.29 34.72L476.29 34.72L476.29 46.47L475.29 46.47L476.28 46.4Q476.26 46.14 476.07 45.96Q475.88 45.78 475.62 45.78Q475.36 45.78 475.16 45.96ZM474.95 52.69L474.95 50.18L478.51 50.18L478.51 53.69L474.95 53.69L474.95 52.69ZM476.95 52.69L475.95 52.69L475.95 51.69L477.51 51.69L477.51 52.69L476.51 52.69L476.51 51.18L477.51 51.18L477.51 52.18L475.95 52.18L475.95 51.18L476.95 51.18L476.95 52.69ZM478.76 47.42Q478.37 47.78 477.85 47.78Q477.32 47.78 476.94 47.42Q476.55 47.07 476.52 46.55L476.51 46.51L476.51 34.69L476.52 34.65Q476.55 34.13 476.94 33.77Q477.32 33.41 477.85 33.41Q478.37 33.41 478.76 33.77Q479.14 34.13 479.18 34.65L479.18 34.69L479.18 46.51L479.18 46.55Q479.14 47.07 478.76 47.42ZM477.39 45.96Q477.2 46.14 477.18 46.4L478.18 46.47L477.18 46.47L477.18 34.72L478.18 34.72L477.18 34.8Q477.2 35.06 477.39 35.23Q477.58 35.41 477.85 35.41Q478.11 35.41 478.3 35.23Q478.49 35.06 478.51 34.8L477.51 34.72L478.51 34.72L478.51 46.47L477.51 46.47L478.51 46.4Q478.49 46.14 478.3 45.96Q478.11 45.78 477.85 45.78Q477.58 45.78 477.39 45.96ZM477.18 52.69L477.18 50.18L480.74 50.18L480.74 53.69L477.18 53.69L477.18 52.69ZM479.18 52.69L478.18 52.69L478.18 51.69L479.74 51.69L479.74 52.69L478.74 52.69L478.74 51.18L479.74 51.18L479.74 52.18L478.18 52.18L478.18 51.18L479.18 51.18L479.18 52.69ZM480.99 47.42Q480.6 47.78 480.08 47.78Q479.55 47.78 479.16 47.42Q478.78 47.07 478.74 46.55L478.74 46.51L478.74 34.69L478.74 34.65Q478.78 34.13 479.16 33.77Q479.55 33.41 480.08 33.41Q480.6 33.41 480.99 33.77Q481.37 34.13 481.41 34.65L481.41 34.69L481.41 46.51L481.41 46.55Q481.37 47.07 480.99 47.42ZM479.62 45.96Q479.43 46.14 479.41 46.4L480.41 46.47L479.41 46.47L479.41 34.72L480.41 34.72L479.41 34.8Q479.43 35.06 479.62 35.23Q479.81 35.41 480.08 35.41Q480.34 35.41 480.53 35.23Q480.72 35.06 480.74 34.8L479.74 34.72L480.74 34.72L480.74 46.47L479.74 46.47L480.74 46.4Q480.72 46.14 480.53 45.96Q480.34 45.78 480.08 45.78Q479.81 45.78 479.62 45.96ZM479.41 52.69L479.41 50.18L482.97 50.18L482.97 53.69L479.41 53.69L479.41 52.69ZM481.41 52.69L480.41 52.69L480.41 51.69L481.97 51.69L481.97 52.69L480.97 52.69L480.97 51.18L481.97 51.18L481.97 52.18L480.41 52.18L480.41 51.18L481.41 51.18L481.41 52.69ZM483.21 47.42Q482.83 47.78 482.3 47.78Q481.78 47.78 481.39 47.42Q481.01 47.07 480.97 46.55L480.97 46.51L480.97 34.69L480.97 34.65Q481.01 34.13 481.39 33.77Q481.78 33.41 482.3 33.41Q482.83 33.41 483.21 33.77Q483.6 34.13 483.63 34.65L483.64 34.69L483.64 46.51L483.63 46.55Q483.6 47.07 483.21 47.42ZM481.85 45.96Q481.66 46.14 481.64 46.4L482.64 46.47L481.64 46.47L481.64 34.72L482.64 34.72L481.64 34.8Q481.66 35.05 481.85 35.23Q482.04 35.41 482.3 35.41Q482.57 35.41 482.76 35.23Q482.95 35.05 482.97 34.8L481.97 34.72L482.97 34.72L482.97 46.47L481.97 46.47L482.97 46.4Q482.95 46.14 482.76 45.96Q482.57 45.78 482.3 45.78Q482.04 45.78 481.85 45.96ZM481.64 52.69L481.64 50.18L485.2 50.18L485.2 53.69L481.64 53.69L481.64 52.69ZM483.64 52.69L482.64 52.69L482.64 51.69L484.2 51.69L484.2 52.69L483.2 52.69L483.2 51.18L484.2 51.18L484.2 52.18L482.64 52.18L482.64 51.18L483.64 51.18L483.64 52.69ZM485.48 47.41Q485.08 47.81 484.53 47.81Q483.98 47.81 483.58 47.41Q483.2 47.02 483.2 46.47L483.2 34.72Q483.2 34.17 483.58 33.78Q483.98 33.39 484.53 33.39Q485.08 33.39 485.48 33.78Q485.86 34.17 485.86 34.72L485.86 46.47Q485.86 47.02 485.48 47.41ZM484.06 46.01Q483.86 46.2 483.86 46.47L483.86 34.72Q483.86 35 484.06 35.19Q484.25 35.39 484.53 35.39Q484.81 35.39 485 35.19Q485.2 35 485.2 34.72L485.2 46.47Q485.2 46.2 485 46.01Q484.81 45.81 484.53 45.81Q484.25 45.81 484.06 46.01ZM483.86 52.69L483.86 50.18L487.42 50.18L487.42 53.69L483.86 53.69L483.86 52.69ZM485.86 52.69L484.86 52.69L484.86 51.69L486.42 51.69L486.42 52.69L485.42 52.69L485.42 51.18L486.42 51.18L486.42 52.18L484.86 52.18L484.86 51.18L485.86 51.18L485.86 52.69ZM487.67 47.42Q487.28 47.78 486.76 47.78Q486.23 47.78 485.85 47.42Q485.46 47.07 485.43 46.55L485.42 46.51L485.42 34.69L485.43 34.65Q485.46 34.13 485.85 33.77Q486.23 33.41 486.76 33.41Q487.28 33.41 487.67 33.77Q488.05 34.13 488.09 34.65L488.09 34.69L488.09 46.51L488.09 46.55Q488.05 47.07 487.67 47.42ZM486.3 45.96Q486.11 46.14 486.09 46.4L487.09 46.47L486.09 46.47L486.09 34.72L487.09 34.72L486.09 34.8Q486.11 35.05 486.3 35.23Q486.49 35.41 486.76 35.41Q487.02 35.41 487.21 35.23Q487.4 35.06 487.42 34.8L486.42 34.72L487.42 34.72L487.42 46.47L486.42 46.47L487.42 46.4Q487.4 46.14 487.21 45.96Q487.02 45.78 486.76 45.78Q486.49 45.78 486.3 45.96ZM486.09 52.69L486.09 50.18L489.65 50.18L489.65 53.69L486.09 53.69L486.09 52.69ZM488.09 52.69L487.09 52.69L487.09 51.69L488.65 51.69L488.65 52.69L487.65 52.69L487.65 51.18L488.65 51.18L488.65 52.18L487.09 52.18L487.09 51.18L488.09 51.18L488.09 52.69ZM489.9 47.42Q489.52 47.78 488.99 47.78Q488.47 47.78 488.08 47.42Q487.7 47.07 487.66 46.55L487.66 46.51L487.66 34.69L487.66 34.65Q487.7 34.13 488.08 33.77Q488.47 33.41 488.99 33.41Q489.52 33.41 489.9 33.77Q490.28 34.13 490.32 34.65L490.33 34.69L490.33 46.51L490.32 46.55Q490.28 47.07 489.9 47.42ZM488.54 45.96Q488.35 46.14 488.33 46.4L489.33 46.47L488.33 46.47L488.33 34.72L489.33 34.72L488.33 34.8Q488.35 35.05 488.54 35.23Q488.73 35.41 488.99 35.41Q489.26 35.41 489.45 35.23Q489.64 35.06 489.65 34.8L488.66 34.72L489.66 34.72L489.66 46.47L488.66 46.47L489.65 46.4Q489.64 46.14 489.45 45.96Q489.26 45.78 488.99 45.78Q488.73 45.78 488.54 45.96ZM488.33 52.69L488.33 50.18L491.89 50.18L491.89 53.69L488.33 53.69L488.33 52.69ZM490.33 52.69L489.33 52.69L489.33 51.69L490.89 51.69L490.89 52.69L489.89 52.69L489.89 51.18L490.89 51.18L490.89 52.18L489.33 52.18L489.33 51.18L490.33 51.18L490.33 52.69ZM489.89 34.72Q489.89 34.28 490.15 33.93Q490.41 33.57 490.84 33.44L492.12 33.06L492.12 48.1L490.86 47.76Q490.43 47.64 490.15 47.28Q489.88 46.93 489.88 46.48L489.87 45.47L490.89 45.47L490.89 46.47L489.89 46.47L489.89 34.72L489.89 34.72ZM491.89 34.72L491.89 47.47L490.88 47.47L490.88 46.47L491.88 46.46Q491.88 46.24 491.74 46.06Q491.6 45.89 491.39 45.83L491.12 46.79L490.12 46.79L490.12 34.4L491.12 34.4L491.41 35.36Q491.62 35.3 491.75 35.12Q491.88 34.95 491.89 34.73L491.89 34.72ZM495.81 39.6L498.89 39.6L498.89 45.52L496.61 45.52L496.61 44.52L497.61 44.52L497.61 46.98L494.81 46.98L494.81 39.6L495.81 39.6ZM495.81 41.6L495.81 40.6L496.81 40.6L496.81 45.98L495.81 45.98L495.81 44.98L496.61 44.98L496.61 45.98L495.61 45.98L495.61 43.52L497.89 43.52L497.89 44.52L496.89 44.52L496.89 40.6L497.89 40.6L497.89 41.6L495.81 41.6ZM500.12 48.38L496.26 48.38L496.26 44.19L500.14 44.19L500.14 47.2L497.54 47.2L497.54 45.68L498.54 45.68L498.54 46.68L497.87 46.68L497.87 45.68L498.87 45.68L498.87 46.88L497.87 46.88L497.87 45.88L499.8 45.88L499.8 46.88L498.8 46.88L498.8 44.52L499.8 44.52L499.8 45.52L497.54 45.52L497.54 39.6L502.61 39.6L502.61 41.67L501.61 41.67L501.61 40.67L502.98 40.67L502.98 43.29L500.12 43.29L500.12 42.29L501.12 42.29L501.12 48.38L500.12 48.38ZM500.12 46.38L500.12 47.38L499.12 47.38L499.12 41.29L501.98 41.29L501.98 42.29L500.98 42.29L500.98 41.67L501.98 41.67L501.98 42.67L500.61 42.67L500.61 40.6L501.61 40.6L501.61 41.6L498.54 41.6L498.54 40.6L499.54 40.6L499.54 44.52L498.54 44.52L498.54 43.52L500.8 43.52L500.8 47.88L496.87 47.88L496.87 44.68L499.54 44.68L499.54 46.2L498.54 46.2L498.54 45.2L499.14 45.2L499.14 46.2L498.14 46.2L498.14 45.19L499.14 45.19L499.14 46.19L497.26 46.19L497.26 45.19L498.26 45.19L498.26 47.38L497.26 47.38L497.26 46.38L500.12 46.38ZM507.19 42.97L507.19 44.63L503.37 44.63L503.4 41.97L507.19 41.97L507.19 42.97ZM505.19 42.97L506.19 42.97L506.19 43.97L504.39 43.97L504.39 42.97L505.39 42.98L505.38 43.64L504.38 43.63L504.38 42.63L506.19 42.63L506.19 43.63L505.19 43.63L505.19 42.97ZM528.47 44.63L525.91 44.63L525.91 41.97L529.47 41.97L529.47 44.63L528.47 44.63ZM528.47 42.63L528.47 43.63L527.47 43.63L527.47 42.97L528.47 42.97L528.47 43.97L526.91 43.97L526.91 42.97L527.91 42.97L527.91 43.63L526.91 43.63L526.91 42.63L528.47 42.63ZM523.68 43.63L523.68 41.97L527.24 41.97L527.24 44.63L523.68 44.63L523.68 43.63ZM525.68 43.63L524.68 43.63L524.68 42.63L526.24 42.63L526.24 43.63L525.24 43.63L525.24 42.97L526.24 42.97L526.24 43.97L524.68 43.97L524.68 42.97L525.68 42.97L525.68 43.63ZM521.45 43.63L521.45 41.97L525.01 41.97L525.01 44.63L521.45 44.63L521.45 43.63ZM523.45 43.63L522.45 43.63L522.45 42.63L524.01 42.63L524.01 43.63L523.01 43.63L523.01 42.97L524.01 42.97L524.01 43.97L522.45 43.97L522.45 42.97L523.45 42.97L523.45 43.63ZM519.23 43.63L519.23 41.97L522.79 41.97L522.79 44.63L519.23 44.63L519.23 43.63ZM521.23 43.63L520.23 43.63L520.23 42.63L521.79 42.63L521.79 43.63L520.79 43.63L520.79 42.97L521.79 42.97L521.79 43.97L520.23 43.97L520.23 42.97L521.23 42.97L521.23 43.63ZM517 43.63L517 41.97L520.56 41.97L520.56 44.63L517 44.63L517 43.63ZM519 43.63L518 43.63L518 42.63L519.56 42.63L519.56 43.63L518.56 43.63L518.56 42.97L519.56 42.97L519.56 43.97L518 43.97L518 42.97L519 42.97L519 43.63ZM514.77 43.63L514.77 41.97L518.33 41.97L518.33 44.63L514.77 44.63L514.77 43.63ZM516.77 43.63L515.77 43.63L515.77 42.63L517.33 42.63L517.33 43.63L516.33 43.63L516.33 42.97L517.33 42.97L517.33 43.97L515.77 43.97L515.77 42.97L516.77 42.97L516.77 43.63ZM512.54 43.63L512.54 41.97L516.1 41.97L516.1 44.63L512.54 44.63L512.54 43.63ZM514.54 43.63L513.54 43.63L513.54 42.63L515.1 42.63L515.1 43.63L514.1 43.63L514.1 42.97L515.1 42.97L515.1 43.97L513.54 43.97L513.54 42.97L514.54 42.97L514.54 43.63ZM510.32 43.63L510.32 41.97L513.88 41.97L513.88 44.63L510.32 44.63L510.32 43.63ZM512.32 43.63L511.32 43.63L511.32 42.63L512.88 42.63L512.88 43.63L511.88 43.63L511.88 42.97L512.88 42.97L512.88 43.97L511.32 43.97L511.32 42.97L512.32 42.97L512.32 43.63ZM508.09 43.63L508.09 41.97L511.65 41.97L511.65 44.63L508.09 44.63L508.09 43.63ZM510.09 43.63L509.09 43.63L509.09 42.63L510.65 42.63L510.65 43.63L509.65 43.63L509.65 42.97L510.65 42.97L510.65 43.97L509.09 43.97L509.09 42.97L510.09 42.97L510.09 43.63ZM505.86 43.63L505.86 41.97L509.42 41.97L509.42 44.63L505.86 44.63L505.86 43.63ZM507.86 43.63L506.86 43.63L506.86 42.63L508.42 42.63L508.42 43.63L507.42 43.63L507.42 42.97L508.42 42.97L508.42 43.97L506.86 43.97L506.86 42.97L507.86 42.97L507.86 43.63ZM529.14 41.97L532.46 41.97L532.46 44.63L528.14 44.63L528.14 41.97L529.14 41.97ZM529.14 43.97L529.14 42.97L530.14 42.97L530.14 43.63L529.14 43.63L529.14 42.63L531.46 42.63L531.46 43.63L530.46 43.63L530.46 42.97L531.46 42.97L531.46 43.97L529.14 43.97ZM501.66 42.29L501.66 40.67L534.18 40.67L534.18 43.29L531.79 43.29L501.66 43.29L501.66 42.29ZM503.66 42.29L502.66 42.29L502.66 41.29L531.79 41.29L533.18 41.29L533.18 42.29L532.18 42.29L532.18 41.67L533.18 41.67L533.18 42.67L502.66 42.67L502.66 41.67L503.66 41.67L503.66 42.29ZM534.72 47.38L534.72 42.29L535.72 42.29L535.72 43.29L532.84 43.29L532.84 40.67L534.23 40.67L534.23 41.67L533.23 41.67L533.23 39.6L538.3 39.6L538.3 45.52L536.03 45.52L536.03 44.52L537.03 44.52L537.03 46.87L536.03 46.87L536.03 45.87L537.96 45.87L537.96 46.87L536.96 46.87L536.96 45.68L537.96 45.68L537.96 46.68L537.3 46.68L537.3 45.68L538.3 45.68L538.3 47.2L535.7 47.2L535.7 44.19L539.58 44.19L539.58 48.38L534.72 48.38L534.72 47.38ZM536.72 47.38L535.72 47.38L535.72 46.38L538.58 46.38L538.58 47.38L537.58 47.38L537.58 45.2L538.58 45.19L538.58 46.19L536.7 46.19L536.7 45.19L537.7 45.19L537.7 46.2L536.7 46.2L536.7 45.2L537.3 45.2L537.3 46.2L536.3 46.2L536.3 44.68L538.96 44.68L538.96 47.87L535.03 47.87L535.03 43.52L537.3 43.52L537.3 44.52L536.3 44.52L536.3 40.6L537.3 40.6L537.3 41.6L534.23 41.6L534.23 40.6L535.23 40.6L535.23 42.67L533.84 42.67L533.84 41.67L534.84 41.67L534.84 42.29L533.84 42.29L533.84 41.29L536.72 41.29L536.72 47.38ZM539.25 45.52L536.97 45.52L536.97 39.6L541.05 39.6L541.05 46.98L538.25 46.98L538.25 44.52L539.25 44.52L539.25 45.52ZM540.25 43.52L540.25 45.98L539.25 45.98L539.25 44.98L540.05 44.98L540.05 45.98L539.05 45.98L539.05 40.6L540.05 40.6L540.05 41.6L537.97 41.6L537.97 40.6L538.97 40.6L538.97 44.52L537.97 44.52L537.97 43.52L539.25 43.52L540.25 43.52ZM543.72 46.81L543.72 33.5L544.62 33.4Q544.75 33.39 544.88 33.4L544.78 34.4L544.78 33.4Q545.33 33.4 545.72 33.79Q546.11 34.18 546.11 34.73L546.11 46.5L546.11 46.52Q546.09 47.05 545.71 47.43Q545.32 47.81 544.78 47.81L544.78 47.81L544.78 46.81L544.88 47.8Q544.75 47.82 544.62 47.8L543.72 47.71L543.72 46.81ZM545.72 46.81L544.72 46.81L544.83 45.81Q544.75 45.81 544.68 45.81L544.73 45.81L544.77 45.81Q544.5 45.81 544.31 46Q544.12 46.18 544.11 46.45L545.11 46.48L544.11 46.48L544.11 34.73Q544.11 35.01 544.3 35.2Q544.5 35.4 544.78 35.4L544.73 35.4L544.68 35.39Q544.75 35.4 544.83 35.39L544.72 34.4L545.72 34.4L545.72 46.81ZM544.11 52.69L544.11 50.18L547.67 50.18L547.67 53.69L544.11 53.69L544.11 52.69ZM546.11 52.69L545.11 52.69L545.11 51.69L546.67 51.69L546.67 52.69L545.67 52.69L545.67 51.18L546.67 51.18L546.67 52.18L545.11 52.18L545.11 51.18L546.11 51.18L546.11 52.69ZM544.11 32.49L544.11 30.27L547.67 30.27L547.67 33.49L544.11 33.49L544.11 32.49ZM546.11 32.49L545.11 32.49L545.11 31.49L546.67 31.49L546.67 32.49L545.67 32.49L545.67 31.27L546.67 31.27L546.67 32.27L545.11 32.27L545.11 31.27L546.11 31.27L546.11 32.49ZM546.06 47.41Q545.67 47.02 545.67 46.47L545.67 34.69L545.68 34.65Q545.71 34.13 546.09 33.77Q546.48 33.41 547.01 33.41Q547.53 33.41 547.92 33.77Q548.3 34.13 548.34 34.65L548.34 34.69L548.34 46.47Q548.34 46.74 548.24 46.98Q548.14 47.23 547.95 47.42Q547.76 47.61 547.52 47.71Q547.27 47.81 547 47.81Q546.45 47.81 546.06 47.41ZM547.48 46.01Q547.28 45.81 547.01 45.81Q546.88 45.81 546.75 45.86Q546.63 45.91 546.53 46Q546.44 46.1 546.39 46.22Q546.34 46.34 546.34 46.47L546.34 34.72L547.34 34.72L546.34 34.8Q546.36 35.06 546.55 35.23Q546.74 35.41 547.01 35.41Q547.27 35.41 547.46 35.23Q547.65 35.06 547.67 34.8L546.67 34.72L547.67 34.72L547.67 46.47Q547.67 46.2 547.48 46.01L547.48 46.01ZM546.34 52.69L546.34 50.18L549.9 50.18L549.9 53.69L546.34 53.69L546.34 52.69ZM548.34 52.69L547.34 52.69L547.34 51.69L548.9 51.69L548.9 52.69L547.9 52.69L547.9 51.18L548.9 51.18L548.9 52.18L547.34 52.18L547.34 51.18L548.34 51.18L548.34 52.69ZM546.34 32.49L546.34 30.27L549.9 30.27L549.9 33.49L546.34 33.49L546.34 32.49ZM548.34 32.49L547.34 32.49L547.34 31.49L548.9 31.49L548.9 32.49L547.9 32.49L547.9 31.27L548.9 31.27L548.9 32.27L547.34 32.27L547.34 31.27L548.34 31.27L548.34 32.49ZM548.29 47.41Q547.9 47.02 547.9 46.47L547.9 34.69L547.9 34.65Q547.94 34.13 548.32 33.77Q548.71 33.41 549.23 33.41Q549.76 33.41 550.15 33.77Q550.53 34.13 550.57 34.65L550.57 34.69L550.57 46.47Q550.57 46.74 550.47 46.98Q550.37 47.23 550.18 47.42Q549.99 47.61 549.74 47.71Q549.5 47.81 549.23 47.81Q548.68 47.81 548.29 47.41ZM549.71 46.01Q549.51 45.81 549.24 45.81Q549.1 45.81 548.98 45.86Q548.86 45.91 548.76 46Q548.67 46.1 548.62 46.22Q548.57 46.34 548.57 46.47L548.57 34.72L549.57 34.72L548.57 34.8Q548.59 35.06 548.78 35.23Q548.97 35.41 549.23 35.41Q549.5 35.41 549.69 35.23Q549.88 35.06 549.9 34.8L548.9 34.72L549.9 34.72L549.9 46.47Q549.9 46.2 549.71 46.01ZM548.57 52.69L548.57 50.18L552.12 50.18L552.13 53.69L548.57 53.69L548.57 52.69ZM550.57 52.69L549.57 52.69L549.57 51.69L551.13 51.69L551.13 52.69L550.13 52.7L550.13 51.18L551.13 51.18L551.13 52.18L549.57 52.18L549.57 51.18L550.57 51.18L550.57 52.69ZM548.57 32.49L548.57 30.27L552.12 30.27L552.13 33.49L548.57 33.49L548.57 32.49ZM550.57 32.49L549.57 32.49L549.57 31.49L551.13 31.49L551.13 32.49L550.13 32.49L550.13 31.28L551.13 31.27L551.13 32.27L549.57 32.27L549.57 31.27L550.57 31.27L550.57 32.49ZM550.52 47.41Q550.13 47.02 550.13 46.47L550.13 34.69L550.13 34.65Q550.17 34.13 550.55 33.77Q550.94 33.41 551.46 33.41Q551.99 33.41 552.37 33.77Q552.75 34.13 552.79 34.65L552.8 34.69L552.8 46.47Q552.8 46.74 552.7 46.98Q552.59 47.23 552.4 47.42Q552.22 47.61 551.97 47.71Q551.72 47.81 551.46 47.81Q550.91 47.81 550.52 47.41ZM551.94 46.01Q551.74 45.81 551.47 45.81Q551.33 45.81 551.21 45.86Q551.08 45.91 550.99 46Q550.9 46.1 550.85 46.22Q550.8 46.34 550.8 46.47L550.8 34.72L551.8 34.72L550.8 34.8Q550.82 35.06 551.01 35.23Q551.2 35.41 551.46 35.41Q551.73 35.41 551.92 35.23Q552.11 35.06 552.13 34.8L551.13 34.72L552.13 34.72L552.13 46.47Q552.13 46.2 551.94 46.01L551.94 46.01ZM550.8 52.69L550.8 50.18L554.36 50.18L554.36 53.69L550.8 53.69L550.8 52.69ZM552.8 52.69L551.8 52.69L551.8 51.69L553.36 51.69L553.36 52.69L552.36 52.69L552.36 51.18L553.36 51.18L553.36 52.18L551.8 52.18L551.8 51.18L552.8 51.18L552.8 52.69ZM550.8 32.49L550.8 30.27L554.36 30.27L554.36 33.49L550.8 33.49L550.8 32.49ZM552.8 32.49L551.8 32.49L551.8 31.49L553.36 31.49L553.36 32.49L552.36 32.49L552.36 31.27L553.36 31.27L553.36 32.27L551.8 32.27L551.8 31.27L552.8 31.27L552.8 32.49ZM552.74 47.41Q552.36 47.02 552.36 46.47L552.36 34.72Q552.36 34.17 552.74 33.78Q553.13 33.39 553.69 33.39Q554.24 33.39 554.63 33.78Q555.02 34.17 555.02 34.72L555.02 46.47Q555.02 47.02 554.63 47.41Q554.24 47.81 553.69 47.81Q553.13 47.81 552.74 47.41L552.74 47.41ZM554.16 46.01Q553.97 45.81 553.69 45.81Q553.41 45.81 553.21 46.01Q553.02 46.2 553.02 46.47L553.02 34.72Q553.02 35 553.21 35.19Q553.41 35.39 553.69 35.39Q553.97 35.39 554.16 35.19Q554.36 35 554.36 34.72L554.36 46.47Q554.36 46.2 554.16 46.01L554.16 46.01ZM553.02 52.69L553.02 50.18L556.58 50.18L556.58 53.69L553.02 53.69L553.02 52.69ZM555.02 52.69L554.02 52.69L554.02 51.69L555.58 51.69L555.58 52.69L554.58 52.69L554.58 51.18L555.58 51.18L555.58 52.18L554.02 52.18L554.02 51.18L555.02 51.18L555.02 52.69ZM553.02 32.49L553.02 30.27L556.58 30.27L556.58 33.49L553.02 33.49L553.02 32.49ZM555.02 32.49L554.02 32.49L554.02 31.49L555.58 31.49L555.58 32.49L554.58 32.49L554.58 31.27L555.58 31.27L555.58 32.27L554.02 32.27L554.02 31.27L555.02 31.27L555.02 32.49ZM555.41 47.71Q555.16 47.61 554.97 47.42Q554.78 47.23 554.68 46.98Q554.58 46.74 554.58 46.47L554.58 34.69L554.59 34.65Q554.63 34.13 555.01 33.77Q555.39 33.41 555.92 33.41Q556.44 33.41 556.83 33.77Q557.21 34.13 557.25 34.65L557.25 34.69L557.25 46.47Q557.25 46.74 557.15 46.98Q557.05 47.23 556.86 47.42Q556.67 47.61 556.43 47.71Q556.18 47.81 555.91 47.81L555.92 45.81L555.92 45.81L555.92 47.81Q555.66 47.81 555.41 47.71L555.41 47.71ZM556.17 45.86Q556.05 45.81 555.91 45.81L555.92 46.81L555.92 47.81L555.92 47.81L555.92 46.81L555.92 45.81Q555.79 45.81 555.66 45.86Q555.54 45.91 555.45 46Q555.35 46.1 555.3 46.22Q555.25 46.34 555.25 46.47L555.25 34.72L556.25 34.72L555.25 34.8Q555.27 35.06 555.46 35.23Q555.65 35.41 555.92 35.41Q556.18 35.41 556.37 35.23Q556.56 35.06 556.58 34.8L555.58 34.72L556.58 34.72L556.58 46.47Q556.58 46.34 556.53 46.22Q556.48 46.1 556.39 46Q556.3 45.91 556.17 45.86L556.17 45.86ZM555.25 52.69L555.25 50.18L558.81 50.18L558.81 53.69L555.25 53.69L555.25 52.69ZM557.25 52.69L556.25 52.69L556.25 51.69L557.81 51.69L557.81 52.69L556.81 52.69L556.81 51.18L557.81 51.18L557.81 52.18L556.25 52.18L556.25 51.18L557.25 51.18L557.25 52.69ZM555.25 32.49L555.25 30.27L558.81 30.27L558.81 33.49L555.25 33.49L555.25 32.49ZM557.25 32.49L556.25 32.49L556.25 31.49L557.81 31.49L557.81 32.49L556.81 32.49L556.81 31.27L557.81 31.27L557.81 32.27L556.25 32.27L556.25 31.27L557.25 31.27L557.25 32.49ZM557.64 47.71Q557.39 47.61 557.2 47.42Q557.02 47.23 556.91 46.98Q556.81 46.74 556.81 46.47L556.81 34.69L556.82 34.65Q556.85 34.13 557.24 33.77Q557.62 33.41 558.15 33.41Q558.67 33.41 559.06 33.77Q559.44 34.13 559.48 34.65L559.48 34.69L559.48 46.47Q559.48 46.74 559.38 46.98Q559.28 47.23 559.09 47.42Q558.9 47.61 558.65 47.71Q558.4 47.81 558.13 47.81L558.14 45.81L558.15 45.81L558.15 47.81Q557.89 47.81 557.64 47.71L557.64 47.71ZM558.4 45.86Q558.28 45.81 558.14 45.81L558.15 46.81L558.15 47.81L558.14 47.81L558.14 46.81L558.16 45.81Q558.02 45.81 557.9 45.86Q557.77 45.91 557.68 46Q557.58 46.1 557.53 46.22Q557.48 46.34 557.48 46.47L557.48 34.72L558.48 34.72L557.48 34.8Q557.5 35.06 557.69 35.23Q557.88 35.41 558.15 35.41Q558.41 35.41 558.6 35.23Q558.79 35.06 558.81 34.8L557.81 34.72L558.81 34.72L558.81 46.47Q558.81 46.34 558.76 46.22Q558.71 46.1 558.62 46Q558.52 45.91 558.4 45.86L558.4 45.86ZM557.47 52.69L557.47 50.18L561.02 50.18L561.05 53.69L557.47 53.69L557.47 52.69ZM559.47 52.69L558.47 52.69L558.47 51.69L560.04 51.69L560.04 52.69L559.04 52.7L559.03 51.19L560.03 51.18L560.03 52.18L558.47 52.18L558.47 51.18L559.47 51.18L559.47 52.69ZM557.47 32.49L557.47 30.27L561.02 30.27L561.05 33.49L557.47 33.49L557.47 32.49ZM559.47 32.49L558.47 32.49L558.47 31.49L560.04 31.49L560.04 32.49L559.04 32.5L559.03 31.28L560.03 31.27L560.03 32.27L558.47 32.27L558.47 31.27L559.47 31.27L559.47 32.49ZM559.87 47.71Q559.62 47.61 559.43 47.42Q559.25 47.23 559.14 46.98Q559.04 46.74 559.04 46.47L559.04 34.69L559.05 34.65Q559.08 34.13 559.47 33.77Q559.85 33.41 560.38 33.41Q560.9 33.41 561.29 33.77Q561.67 34.13 561.71 34.65L561.71 34.69L561.71 46.47Q561.71 46.74 561.61 46.99Q561.5 47.24 561.31 47.43Q561.11 47.62 560.85 47.72Q560.6 47.82 560.32 47.81L560.36 45.81L560.38 45.81L560.38 47.81Q560.12 47.81 559.87 47.71L559.87 47.71ZM560.63 45.86Q560.51 45.81 560.37 45.81L560.38 46.81L560.38 47.81L560.36 47.81L560.36 46.81L560.4 45.81Q560.27 45.8 560.14 45.85Q560.01 45.9 559.91 46Q559.82 46.09 559.76 46.22Q559.71 46.34 559.71 46.47L559.71 34.72L560.71 34.72L559.71 34.8Q559.73 35.06 559.92 35.23Q560.11 35.41 560.38 35.41Q560.64 35.41 560.83 35.23Q561.02 35.06 561.04 34.8L560.04 34.72L561.04 34.72L561.04 46.47Q561.04 46.34 560.99 46.22Q560.94 46.1 560.85 46Q560.75 45.91 560.63 45.86L560.63 45.86ZM559.71 52.69L559.71 50.18L563.25 50.18L563.28 53.69L559.71 53.69L559.71 52.69ZM561.71 52.69L560.71 52.69L560.71 51.69L562.27 51.69L562.27 52.69L561.27 52.7L561.26 51.19L562.26 51.18L562.26 52.18L560.71 52.18L560.71 51.18L561.71 51.18L561.71 52.69ZM559.71 32.49L559.71 30.27L563.25 30.27L563.28 33.49L559.71 33.49L559.71 32.49ZM561.71 32.49L560.71 32.49L560.71 31.49L562.27 31.49L562.27 32.49L561.27 32.5L561.26 31.28L562.26 31.27L562.26 32.27L560.71 32.27L560.71 31.27L561.71 31.27L561.71 32.49ZM561.66 47.41Q561.27 47.02 561.27 46.47L561.27 36.46L562.27 36.46L561.28 36.53Q561.25 36.25 561.34 35.99Q561.44 35.73 561.63 35.52Q561.81 35.32 562.07 35.21Q562.33 35.09 562.61 35.09Q562.89 35.09 563.14 35.21Q563.4 35.32 563.59 35.52Q563.78 35.73 563.87 35.99Q563.96 36.25 563.94 36.53L562.94 36.46L563.94 36.46L563.94 46.47Q563.94 46.74 563.84 46.99Q563.73 47.24 563.54 47.43Q563.35 47.62 563.09 47.72Q562.84 47.82 562.57 47.81L562.6 45.81L562.61 45.81L562.61 47.81Q562.05 47.81 561.66 47.41ZM563.08 46.01Q562.88 45.81 562.61 45.81L562.61 46.81L562.61 47.81L562.6 47.81L562.6 46.81L562.63 45.81Q562.49 45.8 562.36 45.85Q562.24 45.9 562.14 46Q562.04 46.09 561.99 46.22Q561.94 46.34 561.94 46.47L561.94 36.42L561.94 36.38Q561.93 36.52 561.98 36.65Q562.02 36.78 562.12 36.88Q562.21 36.98 562.34 37.04Q562.47 37.09 562.61 37.09Q562.75 37.09 562.88 37.04Q563 36.98 563.1 36.88Q563.19 36.78 563.23 36.65Q563.28 36.52 563.27 36.38L563.27 36.42L563.27 46.47Q563.27 46.2 563.08 46.01ZM561.94 52.69L561.94 50.18L565.76 50.18L565.76 53.69L561.94 53.69L561.94 52.69ZM563.94 52.69L562.94 52.69L562.94 51.69L564.76 51.69L564.76 52.69L563.76 52.69L563.76 51.18L564.76 51.18L564.76 52.18L562.94 52.18L562.94 51.18L563.94 51.18L563.94 52.69ZM565.75 47.42Q565.36 47.78 564.83 47.78Q564.31 47.78 563.92 47.42Q563.54 47.07 563.5 46.55L563.5 46.51L563.5 38.51L563.5 38.48Q563.54 37.96 563.92 37.6Q564.31 37.24 564.83 37.24Q565.36 37.24 565.75 37.6Q566.13 37.96 566.17 38.48L566.17 38.51L566.17 46.51L566.17 46.55Q566.13 47.07 565.75 47.42ZM564.38 45.96Q564.19 46.14 564.17 46.4L565.17 46.47L564.17 46.47L564.17 38.55L565.17 38.55L564.17 38.63Q564.19 38.88 564.38 39.06Q564.57 39.24 564.83 39.24Q565.1 39.24 565.29 39.06Q565.48 38.88 565.5 38.63L564.5 38.55L565.5 38.55L565.5 46.47L564.5 46.47L565.5 46.4Q565.48 46.14 565.29 45.96Q565.1 45.78 564.83 45.78Q564.57 45.78 564.38 45.96L564.38 45.96Z" fill="#E13A4B" fill-opacity="1.000000" fill-rule="evenodd"/>
</svg>
