<svg width="233.617798" height="302.190582" viewBox="0 0 233.618 302.191" fill="none" xmlns="http://www.w3.org/2000/svg" xmlns:xlink="http://www.w3.org/1999/xlink">
	<desc>
			Created with Pixso.
	</desc>
	<defs/>
	<path id="Vector" d="M157.26 137.83C157.26 137.11 157.26 136.42 157.26 135.7C157.26 134.26 157.26 132.82 157.26 131.41C157.31 131.03 157.27 130.65 157.16 130.29C157.05 129.93 156.87 129.6 156.63 129.32C156.39 129.04 156.1 128.81 155.77 128.66C155.45 128.5 155.09 128.42 154.73 128.42C154.38 128.42 154.02 128.5 153.69 128.66C153.37 128.81 153.07 129.04 152.83 129.32C152.59 129.6 152.42 129.93 152.31 130.29C152.2 130.65 152.16 131.03 152.2 131.41C152.2 132.06 152.2 132.71 152.2 133.37C152.2 134.02 152.2 133.95 152.04 134.22C151.72 135.49 151.55 136.79 151.55 138.11C151.55 138.35 151.55 138.59 151.55 138.83C151.55 139.07 151.55 139.1 151.55 139.31C151.2 139.81 151.02 140.41 151.02 141.03C151.02 141.64 151.2 142.24 151.55 142.74C151.71 143.07 151.96 143.35 152.28 143.52C152.59 143.7 152.94 143.78 153.29 143.74C153.65 143.7 153.98 143.56 154.25 143.32C154.52 143.08 154.72 142.76 154.82 142.4C155.36 142.38 155.89 142.18 156.32 141.83C156.76 141.48 157.08 140.99 157.23 140.44C157.39 139.58 157.4 138.7 157.26 137.83Z" fill="#FFFFFF" fill-opacity="1.000000" fill-rule="nonzero"/>
	<path id="Vector" d="M123.43 133.81C123.14 133.37 122.94 132.85 122.65 132.41L122.13 131.68L121.64 131C121.64 131 121.28 130.52 121.18 130.38C121.08 130.24 120.72 129.49 120.27 129.31C119.8 129.13 119.29 129.13 118.83 129.31C118.21 128.33 117.4 127.5 116.44 126.88C116.05 126.63 115.59 126.52 115.13 126.55C114.67 126.58 114.23 126.75 113.86 127.05C113.5 127.34 113.23 127.75 113.08 128.2C112.93 128.66 112.91 129.15 113.02 129.62C113.38 130.68 113.86 131.68 114.45 132.61C114.94 133.44 115.46 134.26 115.89 135.12L115.89 135.39L115.89 135.77L116.18 136.36C116.38 136.73 116.58 137.14 116.8 137.52C117.07 138.01 117.38 138.47 117.72 138.9C118.16 139.45 118.77 139.82 119.45 139.96C119.68 140.02 119.92 140.02 120.15 139.97C120.38 139.91 120.59 139.8 120.78 139.65C120.96 139.49 121.1 139.29 121.2 139.07C121.3 138.84 121.35 138.6 121.34 138.35L121.73 138.35C122.15 138.29 122.54 138.11 122.85 137.82C123.17 137.54 123.39 137.16 123.5 136.73C123.68 136.27 123.77 135.77 123.76 135.27C123.74 134.76 123.63 134.27 123.43 133.81Z" fill="#FFFFFF" fill-opacity="1.000000" fill-rule="nonzero"/>
	<path id="Vector" d="M100.61 64.53C100.02 64.2 99.42 63.9 98.81 63.64C98.64 63.34 98.4 63.1 98.11 62.93C97.83 62.76 97.5 62.68 97.18 62.67L96.82 62.67C96.56 62.35 96.25 62.07 95.9 61.85C94.81 61.29 93.58 61.07 92.38 61.23L91.1 60.61C89.89 59.99 88.5 59.83 87.18 60.17C86.8 60.29 86.46 60.52 86.2 60.84C85.94 61.15 85.77 61.54 85.71 61.95C85.66 62.37 85.72 62.8 85.9 63.17C86.07 63.55 86.35 63.87 86.69 64.08C88.67 65.19 90.8 65.98 93 66.42L93.42 66.62C95.54 67.72 98.94 70.06 101.06 67.83C101.28 67.6 101.44 67.32 101.53 67.01C101.63 66.7 101.66 66.38 101.61 66.06C101.57 65.74 101.45 65.44 101.28 65.17C101.1 64.91 100.87 64.69 100.61 64.53Z" fill="#FFFFFF" fill-opacity="1.000000" fill-rule="nonzero"/>
	<path id="Vector" d="M86.89 127.52C86.93 127.12 86.93 126.72 86.89 126.32C86.92 125.95 86.92 125.59 86.89 125.22C86.74 124.82 86.54 124.44 86.31 124.09C86.16 123.82 85.97 123.59 85.73 123.42C85.49 123.25 85.22 123.14 84.93 123.09C84.64 122.82 84.28 122.66 83.89 122.64C83.6 122.64 83.32 122.72 83.07 122.87C82.83 123.02 82.62 123.24 82.49 123.5C82.38 123.73 82.29 123.98 82.22 124.22L82.22 124.6C82.22 124.88 82.22 125.15 82.22 125.43L82.42 124.95C82.13 125.5 81.99 126.13 82 126.77C82 126.77 82 127.01 82 127.14C82 128 82 128.86 82 129.72C82 130.3 82.23 130.85 82.62 131.26C83.01 131.67 83.53 131.91 84.09 131.92L84.51 131.92C85 132 85.5 131.88 85.92 131.6C86.33 131.31 86.63 130.88 86.76 130.37C86.78 130.19 86.78 130 86.76 129.82C86.76 129.03 86.89 128.21 86.89 127.52Z" fill="#FFFFFF" fill-opacity="1.000000" fill-rule="nonzero"/>
	<path id="Vector" d="M114.68 149.31C114.38 149.03 114.03 148.83 113.64 148.73C113.37 148.69 113.09 148.69 112.82 148.73L112.43 148.73L112.1 148.73C111.87 148.7 111.63 148.73 111.41 148.81C111.19 148.89 110.99 149.03 110.83 149.21C110.77 149.31 110.69 149.41 110.6 149.48C110.45 149.53 110.31 149.6 110.18 149.69L108.44 149.69C108.14 149.69 107.85 149.81 107.64 150.04C107.42 150.27 107.3 150.57 107.3 150.89C107.32 151.12 107.41 151.34 107.56 151.51L107.24 151.75C106.9 152.12 106.71 152.62 106.71 153.14C106.71 153.66 106.9 154.15 107.24 154.53C107.48 154.89 107.84 155.16 108.25 155.29C108.78 155.41 109.33 155.33 109.82 155.08C110.62 154.65 111.38 154.12 112.07 153.5L112.56 153.19C112.95 153.04 113.36 152.92 113.77 152.85L113.25 152.85C113.7 152.86 114.15 152.74 114.55 152.5C114.8 152.36 115 152.16 115.16 151.91C115.31 151.67 115.41 151.39 115.43 151.1C115.47 150.75 115.42 150.41 115.29 150.09C115.16 149.78 114.95 149.51 114.68 149.31Z" fill="#FFFFFF" fill-opacity="1.000000" fill-rule="nonzero"/>
	<path id="Vector" d="M173.5 93.17C173.56 92.73 173.56 92.29 173.5 91.86C173.5 91.28 173.3 90.76 173.2 90.18L173.2 89.53L173.2 89.25C173.22 88.94 173.22 88.63 173.2 88.32C173.28 88.2 173.32 88.06 173.32 87.91C173.32 87.76 173.28 87.62 173.2 87.5C173.18 86.92 172.94 86.37 172.54 85.96C172.13 85.56 171.6 85.34 171.05 85.34C170.47 85.34 169.92 85.57 169.51 86C169.1 86.42 168.87 87 168.86 87.6C168.86 88.63 168.86 89.63 168.86 90.66C168.84 90.91 168.84 91.16 168.86 91.42L168.86 94.06C168.87 94.67 169.1 95.25 169.51 95.68C169.92 96.11 170.47 96.35 171.05 96.36C171.47 96.34 171.88 96.19 172.23 95.95C172.58 95.7 172.86 95.35 173.04 94.95C173.35 94.69 173.59 94.35 173.72 93.96L173.72 93.17L173.5 93.17Z" fill="#FFFFFF" fill-opacity="1.000000" fill-rule="nonzero"/>
	<path id="Vector" d="M233.52 172.18C233.32 171.57 233.02 171 232.64 170.5L232.18 170.15C231.97 169.96 231.74 169.79 231.49 169.64C231.04 169.33 230.53 169.13 229.99 169.05L229.37 168.75C229.27 168.52 229.11 168.33 228.91 168.2C228.47 167.94 228 167.73 227.51 167.58C225.99 166.62 224.28 166.05 222.51 165.93C222.22 165.94 221.93 166.05 221.7 166.24C221.53 166.14 221.38 166.03 221.24 165.89C221.02 165.69 220.74 165.58 220.44 165.58C220.15 165.58 219.86 165.69 219.64 165.89C219.44 166.12 219.33 166.42 219.33 166.74C219.33 167.05 219.44 167.35 219.64 167.58C220.23 168.26 220.99 168.76 221.83 169.02C223.13 170.03 224.62 170.75 226.2 171.12L226.73 171.29L227.02 171.29C227.5 171.49 227.97 171.72 228.42 171.97C229.34 172.37 230.15 172.99 230.78 173.79C231.79 175.1 234.11 173.69 233.52 172.18Z" fill="#FFFFFF" fill-opacity="1.000000" fill-rule="nonzero"/>
	<path id="Vector" d="M169.19 214.02C169.05 213.34 168.82 212.7 168.5 212.09C168.32 211.77 168.11 211.46 167.88 211.17C167.88 210.62 167.68 210.03 167.62 209.52L167.62 209.97C167.6 209.58 167.5 209.21 167.33 208.87L167.55 209.38C167.54 209.26 167.54 209.13 167.55 209C167.46 208.56 167.22 208.17 166.89 207.89C166.55 207.61 166.14 207.46 165.71 207.46C165.28 207.46 164.87 207.61 164.53 207.89C164.2 208.17 163.96 208.56 163.86 209C163.85 209.14 163.85 209.28 163.86 209.42C163.86 209.42 163.86 209.69 163.86 209.83L163.86 209.42C163.49 209.7 163.2 210.09 163.05 210.55C162.85 211.34 162.85 212.17 163.05 212.95C163.1 213.2 163.16 213.44 163.24 213.67C163.36 214.1 163.54 214.5 163.77 214.88C164.21 215.6 164.79 216.22 165.46 216.7C165.7 217.08 165.99 217.42 166.35 217.69C166.64 217.85 166.96 217.94 167.29 217.94C167.62 217.94 167.95 217.85 168.24 217.69C168.54 217.58 168.82 217.39 169.04 217.14C169.25 216.89 169.41 216.58 169.48 216.25C169.51 215.49 169.41 214.74 169.19 214.02Z" fill="#FFFFFF" fill-opacity="1.000000" fill-rule="nonzero"/>
	<path id="Vector" d="M163.67 209.35L163.67 209.52L163.67 209.35Z" fill="#FFFFFF" fill-opacity="1.000000" fill-rule="nonzero"/>
	<path id="Vector" d="M176.73 186.2C176.45 185.6 176.01 185.11 175.45 184.79C174.88 184.48 174.26 184.31 173.62 184.28C173.27 184.22 172.9 184.22 172.55 184.28L172.35 184.28L171.73 184.28C171.47 184.12 171.18 184.06 170.88 184.09C170.59 184.13 170.31 184.27 170.1 184.48C169.9 184.71 169.78 185 169.74 185.31C169.71 185.62 169.76 185.93 169.9 186.2C170.05 186.38 170.21 186.54 170.39 186.68C170.65 186.96 170.96 187.17 171.31 187.3C171.96 188.22 172.7 189.06 173.53 189.81C173.84 190.13 174.26 190.31 174.7 190.32C175.14 190.32 175.57 190.14 175.88 189.81C176.08 189.57 176.22 189.27 176.27 188.95C176.41 188.89 176.53 188.79 176.63 188.67C176.74 188.55 176.81 188.41 176.86 188.26C177.07 187.58 177.02 186.84 176.73 186.2Z" fill="#FFFFFF" fill-opacity="1.000000" fill-rule="nonzero"/>
	<path id="Vector" d="M117.72 292.39C117.72 291.89 117.53 291.41 117.19 291.06C116.86 290.7 116.4 290.5 115.92 290.5C115.45 290.5 114.99 290.7 114.65 291.06C114.32 291.41 114.13 291.89 114.13 292.39C114.13 292.77 114.13 293.15 114.13 293.53L114.13 294.04C113.94 294.68 113.73 295.31 113.47 295.93C112.86 297.33 112.57 298.86 112.63 300.4C112.62 300.73 112.7 301.07 112.87 301.35C113.04 301.64 113.28 301.87 113.57 302.01C113.86 302.16 114.19 302.22 114.51 302.17C114.82 302.13 115.12 301.99 115.37 301.77C115.57 301.88 115.79 301.96 116.02 301.98C116.39 301.94 116.75 301.78 117.03 301.53C117.38 300.93 117.64 300.28 117.82 299.6C117.72 297.03 117.65 294.62 117.72 292.39Z" fill="#FFFFFF" fill-opacity="1.000000" fill-rule="nonzero"/>
	<path id="Vector" d="M108.68 255.92C108.45 255.61 108.14 255.39 107.8 255.26C107.45 255.14 107.07 255.13 106.72 255.23C106.1 255.41 105.52 255.69 104.99 256.06C104.34 256.5 103.72 256.98 103.13 257.5C102.57 257.95 102.08 258.39 101.59 258.87C101.1 259.35 100.87 259.7 100.48 260.07C100.18 260.28 99.93 260.56 99.76 260.9C99.53 261.34 99.43 261.85 99.5 262.35C99.56 262.85 99.78 263.32 100.12 263.68C100.39 263.95 100.72 264.15 101.07 264.26C101.35 264.35 101.64 264.37 101.92 264.33C102.21 264.28 102.49 264.18 102.73 264.03L103.19 263.68L103.58 263.34C103.74 263.19 103.87 263.01 103.97 262.82C104.42 262.78 104.84 262.63 105.22 262.38C105.79 262.04 106.3 261.6 106.72 261.07C107.49 260.13 108.2 259.13 108.84 258.08C109.01 257.74 109.09 257.36 109.06 256.98C109.03 256.59 108.9 256.22 108.68 255.92Z" fill="#FFFFFF" fill-opacity="1.000000" fill-rule="nonzero"/>
	<path id="Vector" d="M147.47 261.96L147.08 261.45C147.06 261.38 147.06 261.31 147.08 261.24L147.08 261.07C147.12 260.75 147.07 260.42 146.91 260.14C146.73 259.84 146.45 259.6 146.13 259.49C145.89 259.42 145.65 259.42 145.41 259.49C145.24 259.01 144.98 258.57 144.63 258.22C144.27 257.89 143.83 257.69 143.35 257.67C142.97 257.68 142.61 257.82 142.31 258.08C142.1 258.26 141.94 258.47 141.82 258.72C141.7 258.97 141.63 259.24 141.62 259.52C141.62 259.52 141.62 259.52 141.62 259.69C141.61 259.77 141.61 259.85 141.62 259.93C141.61 260.06 141.61 260.19 141.62 260.31C141.66 260.44 141.72 260.57 141.79 260.69C142.18 261.69 142.5 262.72 143 263.68C143.27 264.23 143.62 264.72 144.04 265.16C144.34 265.42 144.66 265.66 144.99 265.88L145.22 266.15C145.4 266.35 145.63 266.49 145.88 266.57C146.13 266.66 146.39 266.68 146.65 266.63C146.91 266.6 147.16 266.5 147.38 266.35C147.6 266.21 147.79 266.01 147.93 265.77C148.26 265.17 148.39 264.48 148.31 263.79C148.23 263.1 147.93 262.46 147.47 261.96Z" fill="#FFFFFF" fill-opacity="1.000000" fill-rule="nonzero"/>
	<path id="Vector" d="M0.03 5.49C0.1 4.57 0.38 3.69 0.83 2.9C1.28 2.11 1.9 1.45 2.63 0.95C3.37 0.45 4.2 0.14 5.07 0.03C5.94 -0.07 6.82 0.03 7.64 0.34C10.22 1.66 12.33 3.83 13.64 6.52C14.23 7.23 14.75 8 15.21 8.81C16.71 11.96 18.39 15.02 20.22 17.98C22.2 20.8 24.17 23.62 26.1 26.56C26.81 27.15 27.48 27.77 28.19 28.27C32.14 31.09 33.99 35.07 37.58 38.06C40.78 40.35 43.63 43.15 46.02 46.36C51.4 48.03 56.4 50.86 60.7 54.65C63.27 57.12 66.57 58.59 70.04 58.8C72.81 58.84 75.58 59.05 78.33 59.43C82.75 59.72 87.01 56.48 91.07 54.86C93.9 53.54 96.8 52.38 99.75 51.38C102.47 50.93 105.24 50.79 107.99 50.96C111.38 50.96 114.11 49.14 117.38 48.85C122.15 48.47 125.55 52.41 129.21 54.99C131.82 56.77 134.86 57.27 137.46 59.14C139.94 61.44 142.67 63.43 145.59 65.07C146.06 65.07 145.9 66.19 145.35 66.06C141.05 65.19 138.37 60.71 134.38 58.93C132.14 58.1 129.98 57.03 127.95 55.73C125.73 53.71 123.23 52.06 120.54 50.84C117.79 50.29 114.95 50.72 112.45 52.04C109.68 52.59 106.87 52.9 104.05 52.99C97.46 53.91 90.75 58.31 84.84 61.29C79.98 63.78 75.01 62.91 69.93 64.24C67.84 64.61 65.7 64.5 63.65 63.91C61.61 63.33 59.71 62.28 58.09 60.84C54.66 58.51 51.78 55.86 48.39 53.82C48.74 56.9 48.67 60.02 48.19 63.08C46.98 68.71 47.77 74.61 50.4 79.67C53.2 85.27 55.65 91.08 58.56 96.6C59.89 98.77 61.37 100.84 62.98 102.78C64.04 104.76 64.74 106.93 65.03 109.17C65.03 109.88 65.47 110.63 65.7 111.33C67.18 113.85 68.41 116.52 69.37 119.3L69.61 120.04C70.24 120.92 71.08 121.6 72.05 122.02C73.01 122.44 74.06 122.59 75.09 122.45C82.93 122.28 90.72 123.69 98.05 126.6C98.6 126.31 99.2 126.06 99.75 125.73C106.65 122.29 114.13 120.34 121.76 120C129.14 119.13 132.21 122.66 136.16 128.8C136.64 129.92 137.34 130.92 138.21 131.74C139.08 132.57 140.11 133.19 141.22 133.58C142.33 133.97 143.5 134.12 144.67 134.01C145.83 133.9 146.96 133.54 147.99 132.95C151.41 131.84 154.95 131.15 158.52 130.91C158.65 130.95 158.76 131.03 158.84 131.14C158.92 131.25 158.96 131.38 158.96 131.52C158.96 131.65 158.92 131.79 158.84 131.9C158.76 132 158.65 132.08 158.52 132.12C155.23 132.98 152.02 134.12 148.9 135.52C146.85 136.75 144.55 137.46 142.19 137.59C137.5 137.35 134.74 133.45 132.37 129.3C131.57 127.5 130.27 126 128.66 124.97C127.05 123.95 125.18 123.45 123.3 123.53C119.93 123.88 116.58 124.47 113.28 125.27C109.7 125.61 106.19 126.5 102.86 127.93L102.39 128.22L105.59 129.38C109.48 130.25 113.03 132.31 115.8 135.31C116.64 136.62 117.36 138.01 117.93 139.46C119.42 142.17 121.33 144.59 123.57 146.64C127.32 150.79 127.28 156.6 133.04 158.84C138.8 161.08 144.88 158.84 150.52 158.42C155.86 157.89 161.25 158.13 166.53 159.13C169.23 160.07 171.87 161.21 174.42 162.53C176.63 163.44 179 163.15 181.25 163.86C184.44 164.85 187.32 166.31 190.67 167.01C193.02 167.38 195.3 168.15 197.42 169.29C202.25 171.89 206.79 175.05 210.95 178.71C206.99 175.69 202.78 173.05 198.37 170.83C193.47 167.92 187.56 167.72 182.31 165.77C179.94 164.85 177.62 165.06 175.21 164.4C173.25 163.62 171.33 162.73 169.45 161.74C163.4 159.93 157.05 159.49 150.83 160.46C142.94 160.87 132.92 164.85 126.81 157.3C125.73 155.82 124.88 154.17 124.28 152.41C122.88 149.82 121 147.55 118.76 145.73C115.68 142.7 113.83 137.97 110 136.06C105.35 134.06 100.51 132.58 95.57 131.66L95.33 131.66C89.18 133.57 82.75 134.31 76.36 133.86C74.54 133.96 72.74 133.53 71.14 132.62C69.54 131.71 68.2 130.36 67.28 128.72C67.28 129.17 67.52 129.55 67.6 130C68.78 136.52 67.6 146.1 72.02 151.25C73.92 153.25 75.65 155.43 77.18 157.76C78.96 160.46 81.4 162.61 84.24 163.98C88.46 166.73 91.76 170.77 93.71 175.56C93.76 175.68 93.76 175.82 93.73 175.95C93.69 176.08 93.61 176.19 93.5 176.26C93.39 176.34 93.27 176.37 93.14 176.35C93.01 176.34 92.89 176.28 92.8 176.18C91.01 173.58 89.06 171.1 86.97 168.75C84.94 166.92 82.66 165.39 80.22 164.23C78.07 162.78 76.29 160.78 75.05 158.42C73.4 155.69 70.91 153.86 69.26 151.2C66.06 146.06 66.65 138.47 65.9 132.57C65.15 126.68 61.96 121.46 60.66 115.98C59.32 114.14 57.66 112.59 55.76 111.41C52.85 109.67 50.24 107.47 47.36 105.65C45.19 104.44 43.42 102.56 42.31 100.25C39.95 94.73 42.31 89.22 42.31 83.66C42.35 83.19 42.35 82.71 42.31 82.25C41.99 82.57 41.59 82.8 41.15 82.92C40.72 83.03 40.26 83.03 39.83 82.91C39.39 82.79 38.99 82.56 38.67 82.23C38.35 81.9 38.11 81.49 37.97 81.04C36.83 77.81 37.38 74.49 36.08 71.42C34.71 68.11 32.99 64.98 30.95 62.08C26.57 55.62 22.91 48.66 20.03 41.34C16.4 34.15 12.33 27.22 7.84 20.59C6.76 17.99 5.22 15.64 3.3 13.66C2.17 12.68 1.28 11.42 0.71 10C0.14 8.57 -0.09 7.03 0.03 5.49ZM86.81 129.59L87.72 129.59C83.95 128.39 80 127.93 76.08 128.26C75.17 128.26 74.34 128.51 73.59 128.55C77.18 130.79 83.46 130.09 86.81 129.59ZM53.59 101.04C53.24 100.5 52.92 99.96 52.61 99.42C50.36 95.52 48.47 91.42 46.42 87.39C46.48 89.44 46.7 91.48 47.09 93.49C48.15 97.6 50.83 99.13 53.79 101.04L53.59 101.04ZM41.05 56.02C41 54.48 40.61 52.97 39.93 51.61C39.25 50.24 38.28 49.06 37.11 48.14C36.44 47.89 36.24 47.56 36.28 48.47C37.89 51.17 39.47 53.49 41.25 56.02L41.05 56.02Z" fill="#202147" fill-opacity="1.000000" fill-rule="nonzero"/>
</svg>
