<svg width="164.571106" height="229.000000" viewBox="0 0 164.571 229" fill="none" xmlns="http://www.w3.org/2000/svg" xmlns:xlink="http://www.w3.org/1999/xlink">
	<desc>
			Created with Pixso.
	</desc>
	<defs/>
	<path id="Vector" d="M113.74 129.6C113.74 129.17 113.74 128.75 113.74 128.32C113.74 127.44 113.74 126.57 113.74 125.72C113.76 125.49 113.74 125.26 113.67 125.05C113.61 124.83 113.5 124.63 113.36 124.46C113.21 124.29 113.03 124.15 112.84 124.06C112.64 123.96 112.42 123.92 112.21 123.92C111.99 123.92 111.77 123.96 111.58 124.06C111.38 124.15 111.2 124.29 111.06 124.46C110.91 124.63 110.8 124.83 110.74 125.05C110.67 125.26 110.65 125.49 110.68 125.72C110.68 126.11 110.68 126.51 110.68 126.9C110.68 127.3 110.68 127.26 110.58 127.42C110.38 128.19 110.28 128.98 110.28 129.77C110.28 129.92 110.28 130.06 110.28 130.21C110.28 130.35 110.28 130.37 110.28 130.5C110.07 130.8 109.96 131.16 109.96 131.53C109.96 131.91 110.07 132.27 110.28 132.57C110.38 132.77 110.53 132.94 110.72 133.05C110.91 133.15 111.12 133.2 111.34 133.18C111.55 133.16 111.75 133.07 111.91 132.92C112.08 132.78 112.2 132.58 112.26 132.37C112.59 132.36 112.91 132.23 113.17 132.02C113.43 131.81 113.62 131.52 113.72 131.18C113.81 130.66 113.82 130.13 113.74 129.6Z" fill="#FFFFFF" fill-opacity="1.000000" fill-rule="nonzero"/>
	<path id="Vector" d="M93.28 127.17C93.1 126.9 92.98 126.59 92.8 126.32L92.49 125.89L92.19 125.47C92.19 125.47 91.97 125.18 91.91 125.1C91.86 125.01 91.64 124.56 91.36 124.45C91.08 124.34 90.77 124.34 90.49 124.45C90.12 123.86 89.63 123.35 89.05 122.98C88.81 122.83 88.53 122.76 88.26 122.78C87.98 122.8 87.71 122.9 87.49 123.08C87.27 123.26 87.11 123.51 87.02 123.78C86.92 124.06 86.91 124.36 86.98 124.64C87.2 125.28 87.49 125.88 87.85 126.45C88.14 126.95 88.46 127.44 88.72 127.96L88.72 128.13L88.72 128.36L88.89 128.71C89.01 128.94 89.13 129.19 89.27 129.42C89.43 129.71 89.61 129.99 89.82 130.25C90.09 130.58 90.46 130.81 90.87 130.89C91.01 130.93 91.15 130.93 91.29 130.9C91.43 130.86 91.56 130.8 91.67 130.7C91.78 130.61 91.87 130.49 91.93 130.35C91.99 130.22 92.02 130.07 92.01 129.92L92.25 129.92C92.5 129.88 92.74 129.77 92.93 129.6C93.12 129.43 93.25 129.2 93.32 128.94C93.43 128.66 93.48 128.36 93.47 128.05C93.47 127.75 93.4 127.45 93.28 127.17Z" fill="#FFFFFF" fill-opacity="1.000000" fill-rule="nonzero"/>
	<path id="Vector" d="M79.47 85.28C79.12 85.08 78.76 84.89 78.39 84.74C78.28 84.56 78.14 84.41 77.96 84.31C77.79 84.21 77.6 84.16 77.4 84.15L77.18 84.15C77.03 83.96 76.84 83.79 76.63 83.66C75.97 83.32 75.23 83.18 74.5 83.28L73.73 82.91C72.99 82.53 72.15 82.43 71.36 82.64C71.13 82.71 70.92 82.85 70.76 83.04C70.61 83.23 70.5 83.47 70.47 83.72C70.43 83.97 70.47 84.23 70.58 84.46C70.68 84.69 70.85 84.88 71.06 85.01C72.25 85.68 73.54 86.15 74.87 86.42L75.13 86.54C76.41 87.21 78.47 88.62 79.75 87.27C79.88 87.13 79.98 86.96 80.03 86.78C80.09 86.59 80.11 86.39 80.08 86.2C80.05 86.01 79.99 85.82 79.88 85.66C79.77 85.5 79.64 85.37 79.47 85.28Z" fill="#FFFFFF" fill-opacity="1.000000" fill-rule="nonzero"/>
	<path id="Vector" d="M71.18 123.37C71.2 123.13 71.2 122.88 71.18 122.64C71.2 122.42 71.2 122.2 71.18 121.98C71.09 121.74 70.97 121.51 70.83 121.29C70.74 121.13 70.62 120.99 70.48 120.89C70.33 120.79 70.17 120.72 70 120.69C69.82 120.53 69.6 120.43 69.36 120.42C69.19 120.42 69.02 120.46 68.87 120.55C68.72 120.65 68.6 120.78 68.51 120.94C68.45 121.08 68.4 121.23 68.36 121.38L68.36 121.6C68.36 121.77 68.36 121.94 68.36 122.1L68.48 121.81C68.3 122.15 68.21 122.53 68.22 122.91C68.22 122.91 68.22 123.06 68.22 123.14C68.22 123.66 68.22 124.18 68.22 124.7C68.22 125.05 68.36 125.38 68.59 125.63C68.83 125.88 69.15 126.02 69.48 126.03L69.74 126.03C70.04 126.08 70.34 126.01 70.59 125.83C70.84 125.66 71.02 125.4 71.1 125.09C71.11 124.98 71.11 124.87 71.1 124.76C71.1 124.28 71.18 123.79 71.18 123.37Z" fill="#FFFFFF" fill-opacity="1.000000" fill-rule="nonzero"/>
	<path id="Vector" d="M87.99 136.55C87.8 136.38 87.59 136.25 87.35 136.19C87.19 136.17 87.02 136.17 86.86 136.19L86.62 136.19L86.43 136.19C86.28 136.17 86.14 136.19 86.01 136.24C85.87 136.29 85.75 136.38 85.65 136.48C85.62 136.55 85.57 136.6 85.52 136.65C85.43 136.68 85.34 136.72 85.26 136.77L84.21 136.77C84.03 136.77 83.85 136.85 83.72 136.99C83.59 137.12 83.52 137.31 83.52 137.5C83.53 137.64 83.59 137.77 83.68 137.88L83.48 138.02C83.28 138.25 83.16 138.55 83.16 138.86C83.16 139.17 83.28 139.48 83.48 139.7C83.63 139.92 83.85 140.08 84.09 140.16C84.42 140.23 84.75 140.19 85.04 140.03C85.53 139.77 85.99 139.45 86.41 139.08L86.7 138.89C86.94 138.8 87.18 138.73 87.43 138.69L87.12 138.69C87.39 138.69 87.67 138.62 87.91 138.48C88.05 138.39 88.18 138.27 88.27 138.12C88.37 137.97 88.42 137.8 88.44 137.63C88.46 137.42 88.43 137.21 88.35 137.02C88.27 136.83 88.15 136.67 87.99 136.55Z" fill="#FFFFFF" fill-opacity="1.000000" fill-rule="nonzero"/>
	<path id="Vector" d="M123.55 102.59C123.59 102.33 123.59 102.07 123.55 101.81C123.55 101.45 123.43 101.14 123.37 100.79L123.37 100.39L123.37 100.23C123.38 100.04 123.38 99.85 123.37 99.67C123.42 99.59 123.45 99.51 123.45 99.42C123.45 99.33 123.42 99.24 123.37 99.17C123.36 98.81 123.21 98.48 122.97 98.24C122.73 97.99 122.41 97.86 122.07 97.86C121.72 97.86 121.39 98 121.14 98.26C120.89 98.52 120.75 98.86 120.75 99.23C120.75 99.85 120.75 100.46 120.75 101.08C120.74 101.23 120.74 101.38 120.75 101.54L120.75 103.13C120.75 103.5 120.89 103.85 121.14 104.11C121.39 104.37 121.72 104.52 122.07 104.53C122.33 104.51 122.57 104.42 122.78 104.27C123 104.12 123.17 103.92 123.28 103.67C123.46 103.52 123.61 103.31 123.69 103.07L123.69 102.59L123.55 102.59Z" fill="#FFFFFF" fill-opacity="1.000000" fill-rule="nonzero"/>
	<path id="Vector" d="M127.62 70.88C127.75 70.64 127.79 70.37 127.73 70.11C127.66 69.85 127.5 69.62 127.29 69.48L127.05 69.48L126.51 69.36C126.23 69.34 125.94 69.34 125.65 69.36C125.37 69.33 125.09 69.33 124.82 69.36L124.56 69.36C124.39 69.36 124.22 69.4 124.07 69.47C123.91 69.55 123.78 69.66 123.67 69.8C123.57 69.94 123.5 70.11 123.47 70.29C123.43 70.5 123.43 70.72 123.48 70.93C123.53 71.13 123.63 71.32 123.77 71.48C123.99 71.7 124.25 71.88 124.54 72C124.93 72.4 125.35 72.76 125.8 73.08C126 73.19 126.21 73.25 126.44 73.25C126.66 73.25 126.87 73.19 127.07 73.08C127.26 72.96 127.42 72.79 127.53 72.59C127.64 72.39 127.7 72.17 127.7 71.94C127.7 71.67 127.65 71.4 127.56 71.15L127.62 70.88Z" fill="#FFFFFF" fill-opacity="1.000000" fill-rule="nonzero"/>
	<path id="Vector" d="M164.55 57.5C164.54 57.27 164.46 57.04 164.33 56.85C164.19 56.66 164 56.52 163.78 56.45L163.13 56.3C162.81 56.24 162.49 56.2 162.16 56.18C161.6 56.14 161.04 56.19 160.5 56.34C160.25 56.43 160.03 56.59 159.87 56.82C159.72 56.8 159.57 56.8 159.42 56.82C159.14 56.91 158.9 57.1 158.76 57.37C158.61 57.64 158.57 57.96 158.65 58.25C158.7 58.44 158.81 58.62 158.94 58.75C159.08 58.89 159.25 58.99 159.44 59.04L160.09 59.19L159.79 59.19C160.17 59.25 160.55 59.34 160.92 59.48C161.27 59.73 161.66 59.93 162.06 60.08C162.32 60.15 162.59 60.13 162.83 60.02C163.08 59.92 163.29 59.74 163.42 59.5C163.53 59.34 163.6 59.16 163.64 58.98C163.88 58.96 164.1 58.85 164.27 58.67C164.43 58.49 164.53 58.25 164.53 58C164.57 57.84 164.58 57.67 164.55 57.5Z" fill="#FFFFFF" fill-opacity="1.000000" fill-rule="nonzero"/>
	<path id="Vector" d="M59.73 47.05C59.78 47.04 59.83 47.02 59.87 46.99C59.91 46.95 59.94 46.91 59.95 46.85C59.97 46.8 59.97 46.75 59.96 46.69C59.95 46.64 59.92 46.59 59.88 46.55C59.9 46.41 59.9 46.26 59.88 46.12C59.87 45.73 59.77 45.35 59.57 45.02C59.53 44.95 59.49 44.89 59.43 44.85C59.37 44.81 59.3 44.78 59.23 44.77C59.23 44.44 59.1 44.14 58.88 43.91C58.67 43.69 58.37 43.56 58.07 43.56C57.76 43.57 57.47 43.69 57.26 43.92C57.04 44.14 56.91 44.45 56.9 44.77C56.9 45.95 56.9 47.13 56.9 48.32C56.9 48.9 56.9 49.48 56.9 50.06C56.82 50.78 56.94 51.5 57.24 52.14C57.33 52.29 57.46 52.42 57.61 52.51C57.76 52.6 57.93 52.64 58.11 52.64C58.28 52.64 58.45 52.6 58.6 52.51C58.75 52.42 58.88 52.29 58.98 52.14C59.27 51.56 59.38 50.9 59.31 50.25C59.46 50.15 59.58 50.01 59.66 49.85C59.74 49.68 59.77 49.5 59.77 49.32C59.77 48.88 59.77 48.46 59.65 48.03C59.53 47.59 59.65 47.59 59.65 47.36C59.66 47.26 59.69 47.15 59.73 47.05Z" fill="#FFFFFF" fill-opacity="1.000000" fill-rule="nonzero"/>
	<path id="Vector" d="M86.03 61.2C85.97 61.14 85.89 61.09 85.81 61.06C85.7 60.71 85.51 60.39 85.24 60.14C84.98 59.93 84.71 59.74 84.43 59.56C84.14 59.37 83.84 59.2 83.52 59.06L83.13 58.9L82.97 58.9L81.76 58.19C81.3 57.9 80.77 57.75 80.22 57.76C80.05 57.76 79.88 57.82 79.73 57.92C79.58 58.02 79.47 58.17 79.39 58.34C79.28 58.25 79.14 58.21 79 58.21C78.73 58.08 78.43 58.03 78.13 58.07C77.89 58.09 77.66 58.17 77.46 58.32C77.27 58.47 77.13 58.68 77.06 58.92C76.87 60.16 76.82 61.42 76.93 62.68C76.93 62.98 77.05 63.27 77.26 63.49C77.46 63.7 77.74 63.82 78.03 63.82C78.3 63.82 78.56 63.71 78.76 63.51C78.96 63.31 79.08 63.05 79.1 62.76C79.39 62.75 79.66 62.62 79.86 62.41C80.06 62.19 80.18 61.9 80.18 61.6C80.23 60.99 80.23 60.38 80.18 59.77L80.86 60.33L82.26 61.37C83.14 62.04 84.14 62.52 85.2 62.76C85.39 62.81 85.58 62.8 85.76 62.73C85.94 62.65 86.09 62.52 86.19 62.35C86.29 62.17 86.33 61.95 86.3 61.75C86.27 61.54 86.18 61.35 86.03 61.2Z" fill="#FFFFFF" fill-opacity="1.000000" fill-rule="nonzero"/>
	<path id="Vector" d="M159.85 150.38C159.73 150.01 159.55 149.66 159.32 149.36L159.04 149.15C158.91 149.03 158.77 148.93 158.63 148.84C158.35 148.65 158.04 148.53 157.72 148.49L157.34 148.3C157.28 148.17 157.18 148.05 157.07 147.97C156.8 147.81 156.51 147.69 156.22 147.59C155.3 147.01 154.26 146.67 153.2 146.6C153.02 146.6 152.84 146.67 152.7 146.78C152.6 146.73 152.51 146.66 152.42 146.58C152.29 146.45 152.12 146.38 151.94 146.38C151.76 146.38 151.59 146.45 151.46 146.58C151.34 146.71 151.27 146.89 151.27 147.08C151.27 147.27 151.34 147.45 151.46 147.59C151.81 148 152.27 148.31 152.78 148.47C153.57 149.08 154.47 149.51 155.43 149.73L155.74 149.84L155.92 149.84C156.21 149.96 156.49 150.1 156.77 150.25C157.32 150.49 157.81 150.87 158.19 151.35C158.8 152.14 160.21 151.29 159.85 150.38Z" fill="#FFFFFF" fill-opacity="1.000000" fill-rule="nonzero"/>
	<path id="Vector" d="M120.95 175.68C120.86 175.27 120.72 174.88 120.53 174.51C120.42 174.32 120.29 174.13 120.16 173.95C120.16 173.62 120.04 173.27 120 172.96L120 173.23C119.99 172.99 119.93 172.77 119.82 172.56L119.96 172.87C119.95 172.8 119.95 172.72 119.96 172.64C119.9 172.38 119.76 172.14 119.56 171.97C119.35 171.8 119.1 171.71 118.84 171.71C118.58 171.71 118.33 171.8 118.13 171.97C117.93 172.14 117.79 172.38 117.73 172.64C117.72 172.73 117.72 172.81 117.73 172.89C117.73 172.89 117.73 173.06 117.73 173.14L117.73 172.89C117.5 173.07 117.33 173.3 117.23 173.58C117.12 174.06 117.12 174.56 117.23 175.03C117.26 175.18 117.3 175.33 117.35 175.47C117.42 175.73 117.53 175.97 117.67 176.2C117.94 176.63 118.29 177.01 118.69 177.3C118.84 177.53 119.02 177.74 119.23 177.9C119.41 178 119.6 178.05 119.8 178.05C120 178.05 120.2 178 120.37 177.9C120.56 177.83 120.72 177.72 120.85 177.56C120.99 177.41 121.08 177.23 121.12 177.03C121.14 176.57 121.08 176.11 120.95 175.68Z" fill="#FFFFFF" fill-opacity="1.000000" fill-rule="nonzero"/>
	<path id="Vector" d="M117.61 172.86L117.61 172.96L117.61 172.86Z" fill="#FFFFFF" fill-opacity="1.000000" fill-rule="nonzero"/>
	<path id="Vector" d="M125.51 158.85C125.34 158.49 125.07 158.19 124.74 158C124.39 157.82 124.02 157.71 123.63 157.69C123.41 157.66 123.19 157.66 122.98 157.69L122.86 157.69L122.48 157.69C122.33 157.6 122.15 157.56 121.97 157.58C121.79 157.6 121.63 157.69 121.5 157.82C121.38 157.96 121.3 158.13 121.28 158.32C121.26 158.5 121.29 158.69 121.38 158.85C121.47 158.96 121.57 159.06 121.67 159.14C121.83 159.31 122.02 159.44 122.23 159.52C122.62 160.07 123.07 160.58 123.57 161.03C123.76 161.23 124.02 161.34 124.28 161.35C124.55 161.35 124.8 161.23 124.99 161.03C125.12 160.89 125.2 160.71 125.23 160.52C125.31 160.48 125.39 160.42 125.45 160.35C125.51 160.28 125.56 160.19 125.58 160.1C125.71 159.69 125.69 159.24 125.51 158.85Z" fill="#FFFFFF" fill-opacity="1.000000" fill-rule="nonzero"/>
	<path id="Vector" d="M89.82 223.07C89.82 222.77 89.71 222.48 89.5 222.27C89.3 222.05 89.02 221.93 88.74 221.93C88.45 221.93 88.17 222.05 87.97 222.27C87.76 222.48 87.65 222.77 87.65 223.07C87.65 223.3 87.65 223.53 87.65 223.76L87.65 224.07C87.54 224.46 87.41 224.84 87.25 225.21C86.88 226.06 86.71 226.98 86.74 227.91C86.74 228.12 86.79 228.32 86.89 228.49C86.99 228.67 87.14 228.8 87.32 228.89C87.49 228.98 87.69 229.01 87.88 228.99C88.07 228.96 88.25 228.88 88.4 228.74C88.52 228.81 88.66 228.86 88.8 228.87C89.02 228.84 89.23 228.75 89.41 228.6C89.62 228.24 89.78 227.84 89.88 227.44C89.82 225.88 89.78 224.42 89.82 223.07Z" fill="#FFFFFF" fill-opacity="1.000000" fill-rule="nonzero"/>
	<path id="Vector" d="M84.35 201.02C84.22 200.83 84.03 200.69 83.82 200.62C83.61 200.55 83.38 200.54 83.17 200.6C82.8 200.71 82.44 200.87 82.12 201.1C81.73 201.37 81.35 201.66 81 201.97C80.66 202.24 80.36 202.51 80.07 202.8C79.77 203.09 79.63 203.3 79.4 203.53C79.21 203.65 79.06 203.83 78.96 204.03C78.82 204.3 78.76 204.6 78.8 204.91C78.84 205.21 78.97 205.49 79.18 205.71C79.34 205.87 79.54 205.99 79.75 206.06C79.92 206.11 80.1 206.13 80.27 206.1C80.44 206.08 80.61 206.01 80.76 205.92L81.04 205.71L81.27 205.5C81.37 205.41 81.45 205.31 81.51 205.19C81.78 205.16 82.03 205.07 82.26 204.92C82.61 204.72 82.91 204.45 83.17 204.13C83.63 203.56 84.06 202.96 84.45 202.32C84.56 202.12 84.6 201.89 84.59 201.65C84.57 201.42 84.49 201.2 84.35 201.02Z" fill="#FFFFFF" fill-opacity="1.000000" fill-rule="nonzero"/>
	<path id="Vector" d="M107.81 204.67L107.58 204.36C107.56 204.32 107.56 204.27 107.58 204.23L107.58 204.13C107.6 203.94 107.57 203.74 107.48 203.57C107.37 203.38 107.2 203.25 107 203.17C106.86 203.13 106.71 203.13 106.57 203.17C106.47 202.88 106.31 202.62 106.1 202.41C105.88 202.21 105.61 202.09 105.32 202.07C105.09 202.08 104.87 202.17 104.69 202.32C104.57 202.43 104.47 202.56 104.4 202.71C104.32 202.86 104.28 203.03 104.28 203.2C104.28 203.2 104.28 203.2 104.28 203.3C104.27 203.35 104.27 203.4 104.28 203.44C104.27 203.52 104.27 203.6 104.28 203.67C104.3 203.75 104.34 203.83 104.38 203.9C104.61 204.5 104.81 205.13 105.11 205.71C105.27 206.04 105.49 206.34 105.74 206.6C105.92 206.76 106.11 206.9 106.31 207.04L106.45 207.2C106.56 207.32 106.7 207.41 106.85 207.46C107 207.51 107.16 207.52 107.32 207.5C107.48 207.47 107.63 207.42 107.76 207.33C107.89 207.24 108.01 207.12 108.09 206.98C108.29 206.61 108.37 206.19 108.32 205.77C108.27 205.36 108.09 204.97 107.81 204.67Z" fill="#FFFFFF" fill-opacity="1.000000" fill-rule="nonzero"/>
	<path id="Vector" d="M0.02 4.21C0.08 3.5 0.29 2.82 0.63 2.22C0.98 1.62 1.46 1.11 2.02 0.73C2.58 0.35 3.22 0.11 3.89 0.03C4.56 -0.06 5.23 0.03 5.87 0.26C7.85 1.27 9.47 2.94 10.47 5C10.92 5.54 11.33 6.13 11.68 6.75C12.83 9.17 14.12 11.52 15.53 13.78C17.04 15.94 18.56 18.1 20.04 20.36C20.59 20.81 21.1 21.28 21.65 21.67C24.68 23.83 26.1 26.88 28.86 29.17C31.32 30.93 33.51 33.07 35.34 35.53C39.47 36.82 43.31 38.99 46.61 41.9C48.59 43.79 51.12 44.91 53.79 45.08C55.92 45.11 58.04 45.27 60.15 45.55C63.54 45.78 66.81 43.29 69.93 42.05C72.11 41.04 74.33 40.15 76.6 39.38C78.69 39.04 80.82 38.93 82.93 39.06C85.54 39.06 87.63 37.66 90.14 37.44C93.81 37.16 96.41 40.18 99.23 42.15C101.23 43.52 103.56 43.9 105.56 45.33C107.47 47.09 109.56 48.62 111.8 49.88C112.16 49.88 112.04 50.74 111.62 50.64C108.32 49.97 106.26 46.54 103.2 45.17C101.47 44.54 99.82 43.72 98.26 42.72C96.56 41.17 94.63 39.91 92.56 38.97C90.45 38.55 88.27 38.88 86.35 39.89C84.22 40.31 82.07 40.55 79.9 40.62C74.84 41.32 69.69 44.69 65.15 46.98C61.42 48.89 57.61 48.22 53.7 49.24C52.09 49.53 50.45 49.44 48.88 48.99C47.31 48.54 45.85 47.74 44.61 46.63C41.97 44.85 39.76 42.82 37.16 41.26C37.43 43.62 37.37 46.01 37.01 48.35C36.08 52.67 36.68 57.19 38.7 61.07C40.85 65.37 42.73 69.82 44.97 74.05C45.99 75.72 47.13 77.3 48.37 78.79C49.18 80.3 49.72 81.97 49.94 83.69C49.94 84.23 50.27 84.8 50.46 85.34C51.59 87.27 52.53 89.32 53.27 91.45L53.46 92.02C53.94 92.69 54.59 93.21 55.33 93.53C56.07 93.86 56.87 93.97 57.67 93.87C63.68 93.74 69.67 94.82 75.3 97.05C75.72 96.82 76.18 96.63 76.6 96.38C81.9 93.74 87.64 92.25 93.5 91.99C99.17 91.32 101.53 94.03 104.56 98.73C104.93 99.59 105.47 100.36 106.14 100.99C106.81 101.62 107.59 102.1 108.44 102.4C109.3 102.7 110.2 102.81 111.09 102.73C111.99 102.64 112.86 102.37 113.65 101.91C116.28 101.06 118.99 100.54 121.74 100.36C121.83 100.38 121.92 100.44 121.98 100.53C122.04 100.61 122.07 100.71 122.07 100.82C122.07 100.92 122.04 101.02 121.98 101.11C121.92 101.19 121.83 101.25 121.74 101.28C119.21 101.94 116.74 102.81 114.34 103.89C112.77 104.83 111.01 105.37 109.19 105.48C105.59 105.29 103.47 102.3 101.65 99.11C101.03 97.74 100.04 96.59 98.8 95.8C97.56 95.01 96.13 94.63 94.68 94.69C92.09 94.97 89.52 95.41 86.99 96.03C84.24 96.29 81.55 96.97 78.99 98.06L78.63 98.29L81.08 99.18C84.07 99.84 86.8 101.43 88.93 103.73C89.57 104.73 90.12 105.79 90.56 106.91C91.71 108.98 93.17 110.84 94.9 112.41C97.77 115.59 97.74 120.04 102.17 121.76C106.59 123.48 111.25 121.76 115.59 121.44C119.69 121.03 123.83 121.21 127.89 121.98C129.96 122.71 131.98 123.58 133.94 124.59C135.64 125.29 137.46 125.07 139.18 125.61C141.64 126.37 143.85 127.49 146.42 128.03C148.23 128.31 149.98 128.9 151.61 129.78C155.32 131.76 158.8 134.18 162 137C158.96 134.68 155.72 132.66 152.33 130.95C148.58 128.73 144.03 128.57 140 127.07C138.19 126.37 136.4 126.53 134.55 126.02C133.04 125.42 131.57 124.74 130.13 123.99C125.48 122.6 120.61 122.26 115.83 123C109.77 123.32 102.08 126.37 97.38 120.58C96.55 119.45 95.9 118.18 95.44 116.83C94.36 114.85 92.92 113.11 91.2 111.71C88.84 109.39 87.41 105.76 84.48 104.3C80.9 102.76 77.19 101.63 73.39 100.93L73.21 100.93C68.48 102.39 63.55 102.96 58.64 102.61C57.24 102.69 55.86 102.36 54.63 101.66C53.4 100.97 52.38 99.93 51.67 98.67C51.67 99.02 51.85 99.3 51.91 99.65C52.82 104.65 51.91 112 55.3 115.94C56.76 117.48 58.09 119.15 59.27 120.93C60.64 123.01 62.51 124.65 64.69 125.7C67.93 127.81 70.47 130.91 71.96 134.58C72 134.67 72 134.78 71.98 134.88C71.95 134.98 71.88 135.06 71.8 135.12C71.72 135.17 71.62 135.2 71.52 135.19C71.43 135.17 71.34 135.13 71.27 135.06C69.89 133.06 68.39 131.16 66.78 129.36C65.22 127.95 63.48 126.78 61.6 125.9C59.95 124.78 58.59 123.25 57.64 121.44C56.36 119.34 54.46 117.94 53.18 115.91C50.73 111.96 51.18 106.14 50.61 101.63C50.03 97.11 47.58 93.1 46.58 88.9C45.55 87.5 44.28 86.31 42.82 85.41C40.58 84.07 38.58 82.38 36.37 80.98C34.7 80.06 33.34 78.62 32.49 76.85C30.68 72.62 32.49 68.39 32.49 64.13C32.52 63.77 32.52 63.41 32.49 63.05C32.24 63.29 31.93 63.47 31.6 63.56C31.27 63.65 30.92 63.65 30.58 63.56C30.25 63.46 29.94 63.28 29.69 63.03C29.45 62.78 29.26 62.47 29.16 62.12C28.28 59.64 28.71 57.1 27.71 54.74C26.66 52.21 25.34 49.81 23.77 47.59C20.41 42.64 17.59 37.3 15.38 31.69C12.59 26.18 9.46 20.86 6.02 15.78C5.19 13.79 4.01 11.99 2.53 10.47C1.66 9.72 0.98 8.75 0.54 7.66C0.11 6.57 -0.07 5.39 0.02 4.21ZM66.66 99.34L67.36 99.34C64.47 98.42 61.44 98.07 58.42 98.32C57.73 98.32 57.09 98.51 56.52 98.54C59.27 100.26 64.09 99.72 66.66 99.34ZM41.16 77.45C40.88 77.04 40.64 76.63 40.4 76.21C38.67 73.22 37.22 70.08 35.64 66.99C35.69 68.56 35.87 70.12 36.16 71.67C36.98 74.81 39.04 75.99 41.31 77.45L41.16 77.45ZM31.52 42.94C31.48 41.76 31.19 40.61 30.66 39.56C30.14 38.52 29.4 37.61 28.49 36.9C27.98 36.71 27.83 36.46 27.86 37.16C29.1 39.22 30.31 41 31.67 42.94L31.52 42.94Z" fill="#202147" fill-opacity="1.000000" fill-rule="nonzero"/>
</svg>
