<svg width="323.260010" height="335.799438" viewBox="0 0 323.26 335.799" fill="none" xmlns="http://www.w3.org/2000/svg" xmlns:xlink="http://www.w3.org/1999/xlink">
	<desc>
			Created with Pixso.
	</desc>
	<defs/>
	<path id="Vector" d="M123.27 95.9L121.99 95.9L120.49 95.9C120.24 95.92 119.99 95.92 119.74 95.9C118.71 95.78 117.72 95.56 116.65 95.33C115.58 95.09 114.73 94.91 113.75 94.77C112.75 94.64 111.75 94.58 110.74 94.59L108.72 94.59L107.7 94.59L91.7 94.59C90.6 94.61 89.5 94.53 88.42 94.35L87.59 94.26C87.01 94.14 86.43 94.03 85.78 93.96C85.39 93.93 85 93.93 84.62 93.96C84.06 93.96 83.48 93.96 82.9 94.05L82.7 94.05L82.06 94.05C81.37 94.05 80.69 93.94 80.04 93.71C79.15 93.38 78.21 93.19 77.27 93.15L76.72 93.15L74.91 93.15C74.31 93.15 73.73 93.15 73.1 93.15C72.57 93.18 72.04 93.18 71.51 93.15C71.02 93.15 70.55 93 70.06 92.91C69.57 92.82 69.1 92.75 68.61 92.7C67.85 92.6 67.09 92.55 66.33 92.54L65.7 92.54C64.48 92.46 63.27 92.32 62.07 92.12C61.31 92.01 60.55 91.89 59.79 91.82C58.67 91.69 57.54 91.63 56.41 91.64C55.52 91.64 54.6 91.64 53.78 91.64C49.4 91.8 45.11 91.82 41.85 91.82L41.09 91.82C39.27 91.76 37.45 91.9 35.66 92.23L34.52 92.48C33.07 92.85 31.6 93.09 30.12 93.2C29.2 93.26 28.29 93.38 27.4 93.56C26.46 93.76 25.5 93.87 24.54 93.9L17.97 93.9C16.14 93.95 14.32 93.78 12.53 93.4C10.56 92.92 8.55 92.62 6.52 92.52C5.62 92.52 4.71 92.52 3.83 92.52C2.88 92.46 1.94 92.46 1 92.52C0.35 92.52 0.4 92.41 0.15 93C-0.79 95.26 2.83 94.5 4.08 94.5C4.88 94.5 5.65 94.5 6.43 94.5C8.43 94.6 10.42 94.89 12.37 95.36C14.16 95.74 15.98 95.9 17.8 95.85L24.14 95.85C25.05 95.86 25.96 95.81 26.86 95.69L27.98 95.47C28.58 95.36 29.17 95.24 29.79 95.18L30.7 95.18C31.24 95.18 31.78 95.18 32.34 95.04C32.9 94.9 34.01 94.72 34.84 94.52L35.15 94.52C36.03 94.29 36.93 94.12 37.83 93.99C38.43 93.93 39.04 93.9 39.64 93.9L47.01 93.9C48.51 93.9 50 93.9 51.5 93.78C53 93.65 54.47 93.65 55.95 93.65C56.82 93.65 57.76 93.65 58.58 93.65C59.39 93.65 60.39 93.87 61.48 94.03C62.56 94.19 63.29 94.32 64.25 94.39C64.9 94.39 65.57 94.39 66.22 94.5L67.11 94.5C67.98 94.5 68.92 94.7 69.77 94.84L70.13 94.84C71 95 71.88 95.1 72.76 95.15L73.1 95.15L74.82 95.15L75.71 95.15L76.83 95.15C77.36 95.14 77.89 95.19 78.41 95.31C78.74 95.39 79.08 95.48 79.4 95.6C79.93 95.8 80.49 95.95 81.05 96.05C81.33 96.07 81.62 96.07 81.9 96.05C82.37 96.05 82.84 96.05 83.29 96.05L83.89 96.05L84.47 96.05C85.23 96.05 85.99 96.14 86.74 96.3L87.21 96.3C87.88 96.43 88.53 96.55 89.18 96.62C89.72 96.66 90.27 96.66 90.81 96.62L105.29 96.62L107.81 96.62L110.31 96.62L111.31 96.62C113.14 96.71 114.96 96.97 116.74 97.4L117.77 97.61C118.73 97.83 119.7 97.96 120.69 97.99L123.18 97.99C124.18 97.98 125.17 98.03 126.15 98.15C126.85 98.2 127.53 98.41 128.14 98.75C128.42 98.95 128.45 99.23 128.24 99.61C128.02 99.99 126.81 100.53 126.03 100.69C124.72 100.92 123.4 101.03 122.08 101L86.83 101L85.27 101L83.73 101C82.75 101.03 81.78 100.92 80.83 100.68C80.01 100.43 79.16 100.26 78.3 100.17C77.83 100.17 77.37 100.17 76.9 100.17C76.43 100.17 75.71 100.17 75.09 100.17L73.93 100.17C73.05 100.17 72.12 100.28 71.24 100.28C70.54 100.29 69.84 100.24 69.15 100.15L67.34 99.85C66.38 99.69 65.42 99.51 64.43 99.4C62.99 99.24 61.55 99.16 60.1 99.16L59.14 99.16C57.45 99.23 55.78 99.44 54.13 99.79C52.33 100.08 50.51 100.19 48.69 100.14L48.19 100.14L43.86 100.14C43.08 100.14 42.66 99.96 42.39 100.6C41.5 102.75 44.8 102.08 46.01 102.1L49.15 102.1C50.96 102.15 52.78 102.03 54.58 101.74C56.28 101.38 58 101.18 59.74 101.13L60.21 101.13C61.81 101.13 63.4 101.23 64.99 101.43C65.68 101.43 66.35 101.63 67.04 101.76C68.05 101.97 69.08 102.11 70.11 102.19C70.48 102.19 70.86 102.19 71.22 102.19C72.18 102.19 73.16 102.19 74.11 102.06C75.07 101.94 75.53 102.06 76.23 101.95L77.01 101.95C77.72 101.94 78.42 102 79.11 102.13L80.05 102.39C80.64 102.57 81.25 102.7 81.86 102.78C82.26 102.78 82.64 102.78 83.04 102.78L84.09 102.78L114.4 102.78L117.32 102.78L120.29 102.78C121.41 102.78 122.55 102.78 123.71 102.78C125.68 102.67 129 102.51 130.05 100.14C130.25 99.75 130.35 99.31 130.34 98.87C130.32 98.43 130.19 98.01 129.96 97.63C129.12 96.5 126.99 95.9 123.27 95.9ZM14.63 14.42C15.5 14.58 16.45 14.71 17.26 14.82L18.78 15.01C20.67 15.3 22.58 15.44 24.48 15.43L36.31 15.43L38.21 15.43L40.02 15.43C40.69 15.43 41.36 15.43 42.01 15.43C42.91 15.54 43.79 15.73 44.66 16C45.5 16.26 46.36 16.45 47.23 16.58C48.7 16.77 50.19 16.86 51.68 16.85L52.86 16.85C53.82 16.85 54.78 16.85 55.72 16.85L58.31 16.85L59.85 16.85L63.83 16.85L64.83 16.85C66.64 16.85 68.45 16.85 70.26 16.85C72.07 16.85 73.72 16.85 75.22 16.72C77.04 16.62 78.85 16.41 80.65 16.09L81.25 15.99C82.6 15.7 83.98 15.53 85.36 15.48L85.78 15.48C86.65 15.54 87.51 15.65 88.36 15.82C89.14 15.97 89.94 16.11 90.77 16.18C91.17 16.18 91.57 16.18 91.97 16.18C92.67 16.18 93.4 16.18 94.1 16.18C94.81 16.18 95.46 16.18 96.15 16.18L102.07 16.18C102.95 16.23 103.82 16.33 104.68 16.49C105.53 16.64 106.39 16.74 107.25 16.8C108.19 16.8 109.15 16.8 110.11 16.8C111.11 16.8 112.12 16.75 113.12 16.65C113.71 16.65 114.29 16.47 114.93 16.38L115.8 16.24C116.79 16.1 117.78 16.02 118.78 16C119.67 16 120.59 16 121.45 15.88L122.84 15.7L123.78 15.55L124.49 15.55C125.47 15.53 126.44 15.31 127.33 14.91C127.66 14.75 127.95 14.52 128.19 14.25C128.42 13.97 128.6 13.65 128.71 13.3C128.79 13 128.81 12.69 128.77 12.38C128.73 12.07 128.62 11.77 128.45 11.5C127.72 10.49 126.72 9.7 125.57 9.2C123.6 8.2 121.41 7.71 119.2 7.77C118.2 7.78 117.2 7.85 116.21 7.97C115.33 8.1 114.4 8.28 113.53 8.44C112.66 8.6 111.54 8.84 110.53 8.94C108.72 9.14 106.91 9.23 105.1 9.22L61.46 9.22L51.37 9.22C49.54 9.17 47.73 8.95 45.94 8.55C45.2 8.4 44.45 8.3 43.7 8.24C42.73 8.17 41.77 8.02 40.83 7.77C40.24 7.61 39.68 7.41 39.02 7.2C37.88 6.76 36.7 6.43 35.49 6.23C34.78 6.12 34.06 6.07 33.34 6.08L31.53 6.08L29.93 6.08C29.26 6.08 28.94 6.64 28.9 7.23C28.81 8.4 30.88 8.12 31.58 8.1C32.29 8.08 32.71 8.1 33.27 8.1C33.96 8.09 34.66 8.14 35.35 8.24C36.33 8.44 37.29 8.72 38.23 9.09C38.93 9.34 39.62 9.59 40.35 9.79C41.33 10.02 42.33 10.17 43.33 10.26C44.06 10.26 44.78 10.4 45.51 10.55C47.2 10.93 48.92 11.16 50.65 11.23L54.13 11.23L103.27 11.23C105.29 11.23 106.89 11.23 108.41 11.11C110.18 10.98 111.95 10.74 113.7 10.4C115.32 10.02 116.99 9.8 118.66 9.74L118.95 9.74C121.57 9.61 124.15 10.45 126.19 12.1C126.66 12.56 126.53 12.74 126.48 12.8C126.2 13.08 125.83 13.26 125.43 13.3C124.97 13.38 124.5 13.44 124.03 13.46L123.8 13.46C123.38 13.46 122.97 13.57 122.55 13.63L121.74 13.75C120.81 13.86 119.92 13.9 118.95 13.92C117.97 13.93 117.14 13.92 116.34 14.06C115.54 14.2 115.07 14.24 114.53 14.35L113.88 14.46C112.95 14.59 112.02 14.67 111.09 14.69L109.19 14.69C108.01 14.7 106.83 14.63 105.66 14.47L104.91 14.35C104.37 14.26 103.83 14.17 103.3 14.11C102.65 14.05 101.99 14.02 101.33 14.02L94.83 14.02L93.33 14.02L91.73 14.02C91.07 14.03 90.41 13.98 89.76 13.86C88.24 13.54 86.69 13.36 85.14 13.32L84.71 13.32C83.49 13.39 82.28 13.55 81.09 13.81L79.87 14.02C76.76 14.51 73.61 14.73 70.46 14.69C68.81 14.69 67.16 14.69 65.5 14.69C63.83 14.69 62.16 14.69 60.5 14.69L58.09 14.69L55.63 14.78C54.31 14.78 52.98 14.89 51.66 14.89C50.28 14.9 48.89 14.82 47.52 14.64C46.73 14.52 45.96 14.34 45.2 14.11C44.3 13.83 43.38 13.63 42.45 13.5C41.72 13.42 41 13.39 40.27 13.39L38.46 13.39L36.65 13.39L24.77 13.39C23 13.42 21.23 13.31 19.47 13.07L17.66 12.83C16.84 12.74 16.05 12.64 15.25 12.51C14.35 12.42 13.49 12.13 12.72 11.66C12.55 11.54 12.43 11.36 12.28 11.25C12.14 11.14 11.94 11.25 11.76 11.25C11.57 11.28 11.4 11.36 11.27 11.49C11.14 11.62 11.06 11.79 11.03 11.97C10.93 12.25 10.93 12.55 11.03 12.83C11.14 12.95 11.27 13.05 11.41 13.12C11.59 13.27 11.78 13.39 11.97 13.5C12.8 13.96 13.7 14.27 14.63 14.42ZM149.71 5.11C150.35 5.09 150.98 5.14 151.61 5.25L152.41 5.45C152.93 5.59 153.46 5.71 154 5.79L155.02 5.79C156.09 5.77 157.17 5.63 158.22 5.4L159.23 5.2C159.83 5.08 160.44 5.02 161.04 5.02L161.81 5.02C161.99 5.01 162.17 4.96 162.32 4.86C162.48 4.76 162.6 4.62 162.69 4.46C162.77 4.29 162.81 4.11 162.8 3.93C162.78 3.74 162.72 3.57 162.62 3.42C162.29 2.97 161.46 2.98 160.97 2.98C159.92 3.01 158.87 3.15 157.84 3.38L156.66 3.6C156.14 3.68 155.6 3.73 155.07 3.74C154.73 3.75 154.39 3.72 154.06 3.65C153.68 3.59 153.3 3.5 152.93 3.4C152.52 3.29 152.12 3.18 151.7 3.11C151.1 3.02 150.5 2.99 149.89 3L148.95 3C148.14 2.99 147.32 2.91 146.52 2.77L146.22 2.77C144.52 2.55 142.82 2.44 141.11 2.44L140.55 2.44C138.97 2.38 137.41 2.13 135.89 1.71C134.31 1.35 132.7 1.2 131.08 1.24L112.94 1.24C111.43 1.21 109.92 1.1 108.43 0.9L107.47 0.79L106.6 0.79C105.99 0.77 105.38 0.69 104.79 0.55L104.44 0.45C103.75 0.19 103.03 0.04 102.29 0L102.07 0L100.86 0C100.5 0 100.12 0 99.74 0L97.27 0L95.81 0C95.08 0 94.34 0 93.62 0C92.71 -0.01 91.8 0.04 90.9 0.14C90.37 0.22 89.85 0.33 89.34 0.48C89.07 0.48 88.8 0.64 88.51 0.7C88.19 0.76 87.86 0.79 87.53 0.79L86.63 0.79L85.67 0.79C84.79 0.81 83.91 0.93 83.06 1.15C82.29 1.35 81.5 1.46 80.71 1.47L79.22 1.47C78.77 1.47 78.32 1.5 77.88 1.58C77 1.78 76.1 1.91 75.2 1.99C74.35 1.99 73.5 1.99 72.67 1.99L72.16 1.99C71.33 1.99 70.49 1.99 69.66 1.99C68.83 1.99 67.76 2.16 66.8 2.26C65.84 2.37 64.99 2.46 64.14 2.52C63.29 2.57 62.33 2.52 61.46 2.52L59.5 2.52L54.63 2.52C53.98 2.5 53.32 2.56 52.68 2.7L51.92 2.88C51.01 3.11 48.86 3.15 49.07 4.68C49.07 5.34 49.85 5.2 50.32 5.2C51.05 5.17 51.76 5.05 52.46 4.84L52.77 4.84C53.44 4.69 54.13 4.62 54.81 4.64L55.45 4.64C57.37 4.64 59.3 4.64 61.33 4.64C63.24 4.63 65.15 4.52 67.05 4.32C68.92 4.1 70.79 4 72.67 4.01C74.42 4.06 76.18 3.91 77.9 3.58C78.41 3.48 78.92 3.43 79.44 3.43L80.87 3.43C81.69 3.42 82.51 3.31 83.31 3.11C84.11 2.9 84.93 2.78 85.76 2.75L86.52 2.75L87.57 2.75L88.51 2.75C88.97 2.67 89.42 2.56 89.87 2.43C90.26 2.31 90.66 2.22 91.06 2.16C91.8 2.07 92.53 2.03 93.27 2.05L94.05 2.05L96.97 2.05C97.89 2.05 98.78 2.05 99.75 2.05L100.97 2.05L102.05 2.05L102.33 2.05C102.81 2.09 103.3 2.2 103.76 2.37L104.61 2.62C105.2 2.75 105.81 2.82 106.42 2.84L107.23 2.84L108.54 3L110.07 3.2C111.22 3.31 112.37 3.33 113.26 3.33L115.83 3.33L127.67 3.33L129.49 3.33L131.3 3.33C131.95 3.33 132.58 3.33 133.21 3.33C134.17 3.44 135.11 3.62 136.04 3.88C136.73 4.05 137.4 4.21 138.1 4.34C139.24 4.5 140.38 4.56 141.53 4.53C142.18 4.53 142.81 4.53 143.45 4.53C144.08 4.53 144.93 4.7 145.65 4.79C146.73 4.96 147.82 5.05 148.91 5.07L149.71 5.11ZM208.12 47.75L210.19 47.75L216.51 47.75C217.81 47.75 219.09 47.75 220.4 47.75C221.7 47.75 223.33 47.95 224.76 48.11C226.49 48.32 228.23 48.44 229.98 48.47L230.25 48.47L234.3 48.47C236.3 48.47 238.31 48.38 240.32 48.38L250.91 48.38C252.48 48.38 254.06 48.38 255.63 48.38C256.29 48.38 256.95 48.38 257.62 48.38C258.53 48.39 259.44 48.33 260.34 48.2L261.66 47.99C262.65 47.78 263.66 47.67 264.67 47.64L265.77 47.64C266.34 47.66 266.91 47.56 267.44 47.34C267.91 47.11 268.28 46.73 268.51 46.26C268.73 45.8 268.79 45.27 268.67 44.76L268.53 44.06L267.93 43.9C267.18 43.7 266.42 43.61 265.65 43.63C265.03 43.63 264.4 43.63 263.84 43.72L262.88 43.72L262.44 43.72C261.44 43.69 260.44 43.58 259.45 43.39C258.76 43.27 258.08 43.16 257.39 43.09L256.77 43.09C254.76 42.91 252.68 42.71 250.65 42.39L249.75 42.24C249.15 42.13 248.55 42.02 247.94 41.97C247.32 41.92 246.83 41.97 246.27 41.97L243.97 41.97C243.23 41.96 242.48 42 241.75 42.1C241.33 42.1 240.93 42.24 240.51 42.31C240.1 42.39 239.32 42.55 238.7 42.6C238.09 42.66 237 42.6 236.15 42.6L235.08 42.6C234.09 42.61 233.11 42.41 232.2 42.01L232.46 42.01L233.29 42.01C233.49 42.02 233.7 42.02 233.91 42.01C234.34 41.93 234.77 41.83 235.19 41.7C235.61 41.57 236.04 41.47 236.48 41.41C236.87 41.39 237.27 41.39 237.67 41.41L239.07 41.41L240.55 41.41C241.35 41.41 242.16 41.41 242.98 41.41C243.83 41.42 244.68 41.36 245.53 41.25C246.36 41.12 247.2 41.05 248.03 40.96C249.24 40.87 250.45 40.72 251.65 40.49C252.48 40.35 253.31 40.27 254.15 40.26C255.24 40.26 256.33 40.14 257.39 39.9C258.32 39.61 259.29 39.45 260.27 39.43L261.46 39.43L263.82 39.43L270.46 39.43C272.52 39.43 274.57 39.28 276.6 38.96C277.7 38.81 278.81 38.74 279.91 38.75L286.23 38.75L288.86 38.75L289.78 38.75C291.03 38.72 292.28 38.61 293.51 38.42C294.4 38.32 295.32 38.19 296.17 38.14C297.03 38.08 297.8 38.14 298.62 38.14L309.48 38.14C309.97 38.14 310.46 38.14 310.97 38.14C311.53 38.21 312.09 38.26 312.65 38.26L313.14 38.26C313.48 38.27 313.81 38.21 314.12 38.08C314.44 37.96 314.72 37.77 314.95 37.52C315.12 37.33 315.24 37.1 315.31 36.86C315.38 36.61 315.4 36.35 315.37 36.1C315.2 34.7 313.81 33.78 313.07 33.27C311.92 32.49 310.61 32 309.23 31.85C308.63 31.85 308.03 31.85 307.42 31.85C306.8 31.85 306.6 31.85 306.19 31.85C305.28 31.85 304.38 31.71 303.49 31.6L302.84 31.6C300.66 31.36 298.49 31.35 296.37 31.33L292.06 31.33C289.96 31.33 287.84 31.33 285.73 31.33L282.81 31.33C280.79 31.33 278.78 31.46 276.78 31.71C274.56 31.96 272.32 32.07 270.08 32.01C268.91 32.01 267.73 32.01 266.46 32.01L263.71 32.01L263.42 32.01C261.42 31.97 259.43 31.78 257.46 31.45C256.21 31.3 254.94 31.23 253.68 31.24L251.09 31.24C250.04 31.26 249 31.38 247.97 31.6C247.08 31.77 246.17 31.88 245.26 31.92L244.7 31.92C243.07 31.92 241.44 31.92 239.81 31.78C238.18 31.63 236.48 31.63 234.83 31.63L232.64 31.63C231.6 31.69 230.57 31.84 229.56 32.07C228.54 32.28 227.51 32.42 226.46 32.46L222.84 32.46L220.02 32.46L213.25 32.46L211.15 32.46L208.99 32.46L207.63 32.46C206.62 32.49 205.62 32.66 204.66 32.97C203.99 33.2 202.85 33.58 202.56 34.26C202.52 34.37 202.5 34.48 202.5 34.59C202.5 34.7 202.52 34.81 202.56 34.91C202.59 35.12 202.66 35.32 202.76 35.51C202.93 35.64 203.13 35.71 203.34 35.71C203.55 35.71 203.76 35.64 203.92 35.51C204.38 35.19 204.88 34.93 205.41 34.75C206.43 34.46 207.49 34.32 208.56 34.35C209.28 34.35 210 34.35 210.71 34.35C211.42 34.35 212.11 34.35 212.76 34.35L218.79 34.35L224.22 34.35L225.85 34.35C227.15 34.38 228.44 34.24 229.7 33.94C231.19 33.59 232.72 33.44 234.25 33.49L234.81 33.49C235.93 33.49 237.04 33.49 238.14 33.6L240.39 33.6C240.89 33.6 241.4 33.6 241.91 33.6L244.53 33.6L245.75 33.6C246.59 33.54 247.42 33.42 248.25 33.24C249.08 33.05 249.93 32.94 250.78 32.91L253.9 32.91C254.66 32.91 255.42 32.91 256.18 33C256.94 33.09 257.61 33.18 258.31 33.29C259.37 33.48 260.43 33.6 261.5 33.65C262.03 33.65 262.57 33.65 263.09 33.65C264.13 33.65 265.14 33.65 266.15 33.65L266.88 33.65C268.25 33.65 269.63 33.65 271.01 33.65L272.64 33.65C274.28 33.62 275.92 33.48 277.54 33.24L277.81 33.24C279.73 33.01 281.66 32.91 283.59 32.93L286.76 32.93L288.99 32.93L294.76 32.93L297.62 32.93C298.54 32.93 299.43 32.93 300.43 32.93C301.42 32.93 302.24 33.08 303.07 33.18C303.91 33.29 304.88 33.38 305.81 33.44L307.18 33.44C308.41 33.36 309.65 33.54 310.8 33.98C311.63 34.33 312.37 34.85 312.98 35.51C313.12 35.69 313.21 35.87 313.28 35.88C313.16 35.9 313.03 35.9 312.9 35.88L312.4 35.88L310.97 35.88C310.21 35.88 309.45 35.78 308.61 35.78L297.17 35.78C295.96 35.8 294.75 35.91 293.55 36.1C293.01 36.19 292.44 36.26 291.88 36.32C291.32 36.37 290.27 36.42 289.22 36.42L280.62 36.42C278.88 36.39 277.14 36.5 275.42 36.77C273.57 37.03 271.69 37.13 269.81 37.07L264 37.07L262.39 37.07C261.77 37.07 261.14 37.07 260.58 37.07C259.93 37.06 259.29 37.11 258.66 37.2C258.23 37.28 257.82 37.39 257.41 37.52C257.03 37.64 256.64 37.73 256.25 37.79C255.72 37.85 255.19 37.88 254.66 37.88C254.29 37.88 253.91 37.88 253.57 37.88C252.69 37.95 251.81 38.06 250.94 38.23C250.09 38.35 249.3 38.48 248.48 38.53C247.67 38.59 247.01 38.68 246.29 38.77C245.29 38.91 244.29 39 243.28 39.02L240.5 39.02L238.05 39.02L237.69 39.02C237.01 39.01 236.33 39.06 235.66 39.16C235.28 39.24 234.91 39.34 234.54 39.47C234.14 39.61 233.73 39.7 233.31 39.74C233.1 39.75 232.89 39.75 232.67 39.74C232.37 39.72 232.06 39.72 231.75 39.74C231.18 39.71 230.62 39.89 230.18 40.24C229.99 40.39 229.84 40.57 229.74 40.77C229.63 40.98 229.57 41.2 229.56 41.43C229.6 41.76 229.71 42.08 229.88 42.36C230.06 42.65 230.29 42.89 230.57 43.07C231.5 43.73 232.59 44.14 233.72 44.24C234.61 44.37 235.5 44.43 236.39 44.42C237.84 44.42 239.29 44.28 240.71 44.01C242.48 43.72 244.27 43.59 246.06 43.63C247.39 43.66 248.71 43.8 250.02 44.04L251.43 44.26C253.01 44.47 254.69 44.65 256.74 44.83C257.46 44.83 258.17 45.01 258.89 45.14C259.9 45.33 260.93 45.46 261.95 45.52L262.26 45.52L261.93 45.52C260.35 45.82 258.75 45.97 257.14 45.99L256.54 45.99C252.92 45.9 249.3 45.9 245.82 45.88L238.58 45.88C236.93 45.88 235.3 45.88 233.67 45.88L232.75 45.88C231.71 45.88 230.7 45.97 229.67 45.97L228.24 45.97C227.26 45.92 226.28 45.82 225.3 45.66C224.47 45.55 223.66 45.45 222.84 45.39C221.23 45.27 219.51 45.21 217.3 45.21L214.13 45.21L211.4 45.21L209.84 45.21L208.21 45.21C207.43 45.2 206.64 45.25 205.86 45.34C205.26 45.34 204.66 45.52 204.05 45.61C202.92 45.83 201.77 45.95 200.63 45.97C196.42 45.97 192.21 45.97 187.95 45.97C184.58 45.97 181.23 45.97 177.87 45.97C176.05 45.97 174.24 45.85 172.43 45.63L171.76 45.52C171.12 45.41 170.48 45.33 169.83 45.3L169.57 45.3L168.47 45.3L167.04 45.3C164.76 45.13 162.52 44.71 160.34 44.04C159.14 43.74 157.89 43.39 156.72 43.16C155.83 43.01 154.94 42.92 154.04 42.91C153.28 42.9 152.52 42.84 151.77 42.73C150.85 42.57 149.95 42.3 149.09 41.93C148.72 41.79 148.37 41.56 148.1 41.27C148.34 41.24 148.59 41.24 148.84 41.27L150.18 41.27L150.92 41.27L152.37 41.02L153.19 40.85C154.16 40.72 155.14 40.67 156.12 40.69L158.2 40.69C159.38 40.69 160.56 40.69 161.73 40.78C162.57 40.78 163.38 40.94 164.21 41.05C165.05 41.16 166.17 41.32 167.16 41.38C168.16 41.43 168.78 41.52 169.59 41.63C170.41 41.74 171.49 41.88 172.51 41.92L185.09 41.92C186.38 42.08 187.68 42.12 188.98 42.04C190.4 41.8 191.84 41.69 193.27 41.72L199.85 41.72C200.67 41.69 201.48 41.57 202.27 41.38C202.93 41.21 203.61 41.12 204.28 41.09L204.63 41.09C204.84 41.06 205.04 40.98 205.21 40.84C205.38 40.71 205.5 40.53 205.58 40.33C205.65 40.13 205.66 39.91 205.61 39.7C205.57 39.49 205.46 39.3 205.32 39.14C205.19 39.07 205.06 39.03 204.92 39.01C204.78 38.99 204.64 39 204.5 39.04C203.66 39.11 202.83 39.23 202 39.4C201.41 39.55 200.8 39.64 200.19 39.68L193.76 39.68L192.33 39.68C191.61 39.68 190.89 39.72 190.18 39.81L188.77 40.01C187.74 40.21 186.7 40.32 185.65 40.33L182.56 40.33L173.38 40.33C172.5 40.34 171.63 40.3 170.77 40.21C170.42 40.21 170.08 40.1 169.75 40.04L168.45 39.85L167.15 39.85L166.02 39.85C165.34 39.85 164.67 39.7 163.98 39.59C163.29 39.49 162.17 39.34 161.15 39.29C160.14 39.23 159.2 39.29 158.22 39.29L156.01 39.29C154.54 39.3 153.07 39.45 151.63 39.74C150.92 39.85 150.2 39.9 149.47 39.88L148.52 39.88C148.06 39.85 147.61 39.95 147.21 40.16C146.81 40.37 146.48 40.7 146.25 41.09C146.08 41.52 146.06 42 146.18 42.45C146.3 42.9 146.56 43.3 146.92 43.59C148.32 44.61 149.98 45.23 151.7 45.39C152.36 45.49 153.02 45.52 153.67 45.5L153.67 44.6L153.91 45.5C154.84 45.52 155.76 45.63 156.66 45.82C157.71 46.06 158.75 46.31 159.8 46.58L161.39 47C162.78 47.35 164.2 47.64 165.63 47.84C166.18 47.91 166.75 47.94 167.31 47.93L169.37 47.93L170.48 47.93L172.56 48.18C173.47 48.31 174.37 48.44 175.28 48.49C176.87 48.49 178.5 48.49 179.93 48.49L190.54 48.49C193.91 48.49 197.26 48.49 200.63 48.58L200.9 48.58C202.34 48.55 203.78 48.38 205.19 48.08C206.15 47.87 207.14 47.77 208.12 47.75ZM322.83 105.07C322.25 104.48 320.69 104.82 319.97 104.82L286.92 104.82C284.8 104.82 282.68 104.99 280.58 105.32L279.97 105.43C277.99 105.79 276 106.02 273.99 106.13L272.27 106.13C271.04 106.13 269.81 106.13 268.65 106.13L267.24 106.13L264.74 106.13C263.36 106.13 261.99 106.13 260.61 106.02C259.51 106.02 258.4 105.84 257.3 105.74C256.19 105.63 255.07 105.5 253.95 105.45C253.24 105.45 252.54 105.45 251.83 105.45C250.76 105.45 249.69 105.45 248.61 105.45L247.18 105.45L245.26 105.45C243.77 105.45 242.31 105.45 240.68 105.45L240.41 105.45C238.79 105.45 237.16 105.45 235.55 105.45C232.79 105.42 230.03 105.59 227.3 105.95C226.27 106.11 225.24 106.2 224.2 106.2L222.55 106.2C221.95 106.2 221.34 106.24 220.74 106.31C220.27 106.31 219.82 106.46 219.35 106.55C218.88 106.64 218.13 106.78 217.54 106.83L216.96 106.83C216.11 106.82 215.28 106.7 214.46 106.49L213.46 106.24C212.78 106.06 212.09 105.88 211.38 105.75L210.66 105.65L209.35 105.41C208.45 105.2 206.91 104.71 206.93 103.81C206.93 103.58 207.22 103.22 208.56 102.82C209.63 102.53 210.71 102.34 211.82 102.22L212.76 102.12C214.02 101.95 215.27 101.79 216.54 101.7L217.59 101.7C219.51 101.61 221.42 101.41 223.31 101.11C224.64 100.87 225.99 100.76 227.33 100.78C228.11 100.78 228.87 100.78 229.65 100.78C231.79 100.78 233.92 100.91 236.19 100.91L243.28 100.91C244.57 100.91 245.87 100.91 247.16 100.91L250.06 100.91L250.51 100.91C252.47 100.9 254.42 100.75 256.36 100.44C256.79 100.37 257.22 100.34 257.66 100.33C258.22 100.34 258.78 100.39 259.33 100.5C259.8 100.58 260.28 100.63 260.76 100.62C261.27 100.62 261.78 100.58 262.28 100.5L262.93 100.41C263.68 100.26 264.45 100.17 265.21 100.14L265.57 100.14L267.24 100.14L268.67 100.14L268.85 100.14C269.86 100.14 270.86 100.03 271.84 99.79C272.21 99.71 272.58 99.67 272.96 99.67C273.47 99.65 273.98 99.57 274.48 99.45C274.92 99.33 275.32 99.13 275.68 98.84C276.03 98.56 276.32 98.21 276.53 97.81C276.66 97.53 276.73 97.22 276.73 96.91C276.73 96.6 276.66 96.29 276.53 96.01C276.22 95.56 275.81 95.18 275.34 94.9C274.86 94.63 274.32 94.47 273.78 94.43L273.12 94.26L271.87 93.87L272.89 93.87C273.78 93.87 274.7 93.96 275.51 93.96L282.47 93.96L284.28 93.96C284.8 93.96 285.35 93.96 285.87 93.96C286.52 93.9 287.16 93.8 287.79 93.65L288.7 93.47C289.36 93.37 290.03 93.32 290.71 93.33L293.8 93.33L302.67 93.33C303.63 93.33 304.57 93.33 305.54 93.47C306.49 93.62 307.54 93.62 308.54 93.62C309.08 93.62 309.63 93.62 310.19 93.62C311.31 93.63 312.39 93.2 313.19 92.43C313.54 92.01 313.5 90.86 312.94 90.63C312.07 90.25 311.94 90.9 311.46 91.29C310.97 91.69 309.9 91.64 309.28 91.65L308.49 91.65C307.4 91.65 306.31 91.65 305.12 91.49C303.56 91.38 301.91 91.33 299.69 91.33L290.2 91.33C289.13 91.37 288.07 91.52 287.03 91.78C286 91.98 284.96 92.07 283.92 92.05L282.1 92.05L280.46 92.05L276.26 92.05L273.9 92.05L273.54 92.05C273.11 92.05 272.69 92.05 272.26 92.05C271.97 92.03 271.68 92.03 271.39 92.05C270.12 92.19 269.32 92.59 269.03 93.26C268.95 93.43 268.91 93.62 268.91 93.81C268.91 94.01 268.95 94.2 269.03 94.37C269.34 95.06 270.14 95.56 271.68 96.07L273.36 96.57L273.81 96.68C274.14 96.72 274.45 96.82 274.74 96.98C274.61 97.22 274.42 97.42 274.17 97.54C273.76 97.72 273.32 97.8 272.87 97.78C272.57 97.76 272.28 97.76 271.98 97.78C271.7 97.82 271.42 97.88 271.15 97.96C270.99 98 270.83 98.04 270.66 98.06C270.15 98.15 269.64 98.19 269.12 98.17L268.92 98.17L267.33 98.17L265.43 98.17C264.6 98.19 263.77 98.27 262.95 98.41C262.2 98.54 261.44 98.62 260.68 98.64C260.3 98.64 259.92 98.61 259.54 98.53C259.01 98.42 258.46 98.37 257.91 98.37C257 98.4 256.1 98.49 255.2 98.64C254.58 98.73 253.97 98.82 253.39 98.87C252.81 98.93 251.72 98.87 250.89 98.87C250.06 98.87 248.7 98.87 247.61 98.87L246.72 98.87C245.33 98.87 243.94 98.87 242.54 98.87L235.46 98.87C234.56 98.87 233.65 98.87 232.71 98.87L230.59 98.87C229.49 98.87 228.4 98.87 227.31 98.87L226.23 98.87C224.94 98.93 223.66 99.07 222.39 99.29C221.43 99.43 220.49 99.56 219.53 99.63L217.72 99.78C216.12 99.87 214.5 99.97 212.88 100.21L211.51 100.39C209.74 100.47 208.01 100.94 206.44 101.76C205.93 102.02 205.53 102.45 205.3 102.98C205.06 103.5 205.01 104.08 205.15 104.64C205.42 105.37 205.89 106.01 206.5 106.49C207.11 106.98 207.84 107.29 208.61 107.39C209.31 107.57 210.02 107.71 210.73 107.81C211.62 107.95 212.54 108.19 213.52 108.44C214.54 108.73 215.6 108.92 216.67 109L217.03 109C217.97 108.97 218.91 108.86 219.84 108.67C220.91 108.45 222.01 108.34 223.11 108.35L224.78 108.35C225.44 108.35 226.1 108.32 226.75 108.24C228.91 107.91 231.09 107.7 233.27 107.61L235.7 107.61C237.29 107.61 238.87 107.61 240.44 107.61C242.02 107.61 243.63 107.61 245.22 107.61L246.82 107.61L248.92 107.61C249.98 107.61 251.03 107.61 252.1 107.61L253.55 107.61C254.75 107.61 256 107.77 257.17 107.9C258.35 108.02 259.18 108.11 260.2 108.17C261.77 108.28 263.33 108.29 264.9 108.31L266.97 108.31L268.78 108.31C269.96 108.31 271.15 108.31 272.4 108.31L274.01 108.31C276.09 108.2 278.17 107.96 280.22 107.61C282.38 107.21 284.57 106.97 286.76 106.87L293.64 106.87L308.12 106.87L315.17 106.87L322.1 106.87C322.88 106.87 323.1 106.33 322.95 105.57C322.97 105.4 322.92 105.22 322.83 105.07Z" fill="#E13A4B" fill-opacity="1.000000" fill-rule="nonzero"/>
	<path id="Vector" d="M134.59 326.29C135.82 325.02 137.15 323.85 138.57 322.79C139.54 322.02 140.56 321.3 141.62 320.64C142.82 319.79 143.93 318.84 144.95 317.78C147.13 315.74 149 313.38 150.48 310.79C151.96 308.03 153.24 305.03 154.82 302.24C155.94 299.82 157.38 297.57 159.1 295.53C161.03 293.6 163.15 291.89 165.04 289.91C167.02 287.89 168.66 285.56 169.88 283C170.54 281.62 171.26 280.24 172.1 278.86C172.79 277.47 173.34 276.01 173.73 274.51C174.2 273.12 174.93 271.85 175.43 270.48C175.83 269.16 176.15 267.81 176.38 266.45C177.24 263.92 178.47 261.53 180.03 259.36C181.46 256.63 182.63 253.77 183.51 250.82C184.13 249.41 184.68 247.97 185.16 246.5C185.42 244.97 185.37 243.4 185.01 241.9C184.54 239.38 184.46 236.81 184.76 234.27C184.94 232.89 185.12 231.51 185.32 230.13C185.41 229.49 185.57 228.9 185.7 228.27C185.86 227.41 185.91 226.53 185.86 225.65C185.86 222.55 185.86 219.47 186 216.38C186.16 214.82 186.06 213.25 185.72 211.72C185.52 211.17 185.39 210.6 185.31 210.02C185.31 209.26 185.41 208.52 185.31 207.76C185.14 204.55 183.49 201.54 181.94 198.82C181.22 197.73 180.7 196.51 180.42 195.24C180.17 193.76 179.87 192.28 179.6 190.8C179.34 189.32 179.15 187.9 178.86 186.48C178.61 185.29 178.04 184.21 177.89 183C177.78 181.56 177.75 180.11 177.81 178.67C177.81 177.08 177.81 175.49 177.81 173.9C177.83 172.54 177.97 171.19 178.24 169.86C178.38 168.63 178.7 167.44 179.2 166.32C179.68 165.2 180.31 164.16 181.07 163.22C181.9 162.31 182.78 161.44 183.71 160.63C184.28 160.16 184.75 159.58 185.06 158.91C185.38 158.25 185.55 157.52 185.54 156.78C185.55 155.33 185.41 153.87 185.13 152.45C184.58 149.63 184.29 146.76 184.26 143.89C184.26 141.89 184.34 139.18 186.44 138.14C187.16 137.78 187.74 138.14 188.4 138.48C189.79 139.15 191.44 138.92 192.94 139.42C194.16 139.73 195.4 139.98 196.65 140.16C198.04 140.44 199.42 140.55 200.8 140.85C202.18 141.16 203.56 141.78 204.94 142.23C206.33 142.69 207.71 143.06 209.09 143.55C210.38 144.04 211.64 144.61 212.86 145.25C214.24 145.91 215.67 146.48 217.13 146.95C218.5 147.48 219.91 147.86 221.36 148.09C222.66 148.23 223.98 148.23 225.28 148.09C227.77 147.64 230.31 147.57 232.81 147.89C235.58 148.45 237.95 150.4 240.25 151.92C241.49 152.74 242.72 153.61 244.03 154.3C245.34 154.99 246.53 155.13 247.68 155.8C248.83 156.48 249.81 157.38 250.97 158.01C252.13 158.65 253.37 159.28 254.56 160C255.95 160.81 257.43 161.45 258.97 161.91C260.35 162.34 261.64 162.86 263 163.29C263.77 163.5 264.55 163.64 265.34 163.71C265.99 163.71 266.63 163.76 267.27 163.84C267.75 163.99 268.21 164.18 268.65 164.41C269.48 164.77 270.38 164.95 271.28 164.95C273.96 165.06 276.35 164.95 278.64 166.5C279.18 166.89 279.76 167.2 280.38 167.42C280.93 167.57 281.46 167.75 281.97 167.98C282.9 168.49 283.77 169.11 284.56 169.81C285.38 170.54 286.1 171.36 286.71 172.27C287.51 173.47 288.62 174.42 289.92 175.04C291.15 175.64 292.38 176.2 293.55 176.92C294.73 177.63 295.97 178.49 297.2 179.25C299.71 180.83 302.24 182.41 304.83 183.87C306.04 184.56 307.3 185.16 308.47 185.9C309.65 186.63 310.49 188.02 311.76 187.84C311.89 187.84 311.94 188.02 311.76 188.04C311.43 188.09 311.08 188.05 310.76 187.94C310.44 187.82 310.15 187.63 309.93 187.38L309.58 187.07C310.16 187.73 310.64 188.45 311.27 189.14C312.07 189.82 312.95 190.4 313.89 190.87C315.8 192.1 315.74 194.5 315.69 196.54C315.62 199.7 315.69 202.86 315.69 206.03C315.69 209.19 315.62 212.54 315.82 215.8C316.03 219.06 316.07 222.24 316.59 225.39C316.82 226.77 317.08 228.15 317.22 229.63C317.36 231.11 317.29 232.78 317.22 234.37C317.22 237.63 317.22 240.87 317.22 244.14C317.19 245.78 317.27 247.42 317.47 249.05C317.69 250.55 317.98 252.03 318.2 253.5C318.63 256.56 318.56 259.61 318.89 262.66C319.22 265.72 320.27 268.95 320.8 272.13C321.3 275.07 321.58 278.04 321.64 281.03C321.64 287.3 321.2 293.63 321.64 299.89C322.08 306.15 323.45 312.05 323.23 318.19C323.09 322.31 322.26 326.38 320.77 330.22C319.39 333.46 317.14 336.21 313.32 335.74C311.86 335.49 310.38 335.33 308.89 335.25C307.34 335.25 305.81 334.98 304.27 334.8C302.87 334.51 301.45 334.29 300.02 334.15C298.54 334.1 297.06 334.15 295.58 334.32C294.12 334.55 292.63 334.68 291.15 334.72C289.72 334.67 288.29 334.52 286.88 334.28C285.33 334.03 283.78 333.68 282.22 333.57C280.73 333.49 279.23 333.49 277.73 333.57C271.37 333.69 265 333.33 258.69 332.51C257.31 332.34 255.85 332.51 254.46 332.26C253.08 332.01 251.51 331.47 250 331.17C246.84 330.39 243.57 330.17 240.33 330.51C237.3 330.81 234.26 330.92 231.22 330.82C228.04 330.98 224.85 330.94 221.68 330.71C218.53 330.22 215.35 329.88 212.17 329.7C208.9 329.7 205.59 329.97 202.32 329.7C200.78 329.55 199.28 329.32 197.75 329.25C196.21 329.18 194.68 329.25 193.13 329.25C191.58 329.25 190.01 328.96 188.45 328.83C186.88 328.71 185.28 328.68 183.69 328.67C180.47 328.67 177.25 328.75 174.02 328.67C170.79 328.59 167.78 328.16 164.64 327.91C161.5 327.66 158.31 327.65 155.13 327.66C151.97 327.6 148.8 327.71 145.64 327.99C142.7 328.39 139.71 328.43 136.76 328.12C136.16 328.03 135.57 327.94 134.99 327.8C134.71 327.73 134.16 327.71 134.02 327.44C133.88 327.16 134.34 326.54 134.59 326.29Z" fill="#EEDAAE" fill-opacity="1.000000" fill-rule="nonzero"/>
	<path id="Vector" d="M285.15 214.19L284.68 214.19L284.39 214.19L284.2 214.04C283.4 213.36 282.58 212.65 281.76 212.06L281.42 211.81L280.73 211.29L280.24 210.87C280.05 210.7 279.86 210.53 279.65 210.39C279.34 210.17 278.98 210.02 278.6 209.93C278.12 209.77 277.66 209.55 277.22 209.28C276.4 208.78 275.55 208.32 274.68 207.9C273.78 207.51 272.86 207.16 271.92 206.88C271.01 206.58 270.15 206.17 269.35 205.66C268.57 205.21 267.77 204.81 266.97 204.39C266.13 203.96 265.37 203.4 264.69 202.75C264.02 202.22 263.23 201.86 262.38 201.7C261.91 201.58 261.45 201.42 261 201.21C260.66 201.06 260.28 200.99 259.91 201.02L259.51 201.02L258.78 201.02L258.78 200.33L258.78 199.6L260.16 199.6C260.43 199.59 260.71 199.63 260.97 199.71C261.21 199.78 261.44 199.88 261.67 200C261.83 200.08 262 200.15 262.18 200.2L262.52 200.3C263.2 200.46 263.86 200.69 264.5 200.98C265 201.24 265.47 201.58 265.88 201.97C266.14 202.22 266.42 202.44 266.72 202.64C267.17 202.9 267.63 203.14 268.1 203.35C268.48 203.53 268.85 203.71 269.21 203.92L269.86 204.31C270.48 204.69 271.12 205.03 271.79 205.32C272.21 205.48 272.64 205.62 273.05 205.76C273.46 205.9 274.11 206.1 274.63 206.33C275.54 206.71 276.43 207.14 277.29 207.61L277.76 207.89C278.03 208.06 278.31 208.21 278.6 208.34L279.07 208.5C279.37 208.57 279.66 208.67 279.93 208.8C280.38 209.04 280.79 209.34 281.16 209.68C281.53 210.01 281.93 210.32 282.34 210.62L282.61 210.84C283.5 211.48 284.34 212.18 285.14 212.93L285.49 213.32L285.32 213.75L285.15 214.19ZM288.5 253.26C288.18 252.92 287.86 252.57 287.53 252.24C287.2 251.91 286.84 251.52 286.49 251.13C286.15 250.75 286.12 250.71 285.91 250.5L285.35 249.93C284.97 249.58 284.61 249.2 284.28 248.8L284.06 248.5C283.79 248.08 283.44 247.71 283.04 247.42C282.74 247.24 282.42 247.07 282.1 246.92C281.73 246.74 281.37 246.54 281.02 246.33L280.41 245.95C279.28 245.23 278.14 244.57 276.99 243.84C276.55 243.59 276.09 243.39 275.61 243.24L274.93 243.01C274.23 242.75 273.55 242.44 272.9 242.08C272.55 241.89 272.22 241.68 271.9 241.45L271.65 241.26C271.54 241.14 271.4 241.04 271.25 240.96C271.09 240.91 270.92 240.88 270.74 240.9L269.98 240.9C269.83 240.91 269.68 240.91 269.53 240.9C269.17 240.85 268.82 240.75 268.5 240.59C268.29 240.46 268.09 240.29 267.92 240.09L267.72 239.89C267.53 239.77 267.34 239.67 267.14 239.6L266.94 239.53L266.35 239.25L265.76 238.96C265.51 238.88 265.25 238.82 265 238.78L264.86 238.78C264.56 238.75 264.28 238.63 264.06 238.44C263.73 238.1 263.51 237.69 263.41 237.23L263.41 237.08C263.41 237.08 263.27 236.75 262.48 236.2C262.22 236.04 261.94 235.92 261.65 235.84C261.27 235.72 260.9 235.56 260.56 235.36C260.21 235.11 259.93 234.79 259.72 234.42C259.62 234.26 259.52 234.11 259.4 233.97C258.92 233.45 258.34 233.03 257.7 232.72C257.41 232.62 257.16 232.45 256.95 232.23C256.21 231.75 255.45 231.32 254.69 230.85L254.13 230.52C253.02 229.88 251.95 229.18 250.92 228.42C250.48 228.12 250.02 227.85 249.53 227.63C248.98 227.38 248.46 227.07 247.97 226.71C247.64 226.47 247.29 226.25 246.92 226.07L246.47 225.82L245.24 225.09L244.56 224.69C244.11 224.42 243.65 224.17 243.18 223.96C242.48 223.64 241.82 223.27 241.17 222.85C240.66 222.51 240.11 222.22 239.53 221.9C238.95 221.58 238.56 221.39 238.15 221.1C237.76 220.85 237.35 220.63 236.93 220.43C236.23 220.14 235.56 219.76 234.94 219.31C234.56 219.04 234.16 218.81 233.74 218.61L233.52 218.5C233.24 218.35 232.98 218.19 232.73 218C232.5 217.82 232.25 217.66 231.99 217.55C231.61 217.41 231.22 217.34 230.83 217.34L230.26 217.34C229.54 217.24 228.82 217.18 228.09 217.17L224.9 217.17C224.61 217.17 224.32 217.19 224.04 217.25C223.2 217.43 222.33 217.51 221.47 217.5L220.28 217.5L219.26 217.5C218.42 217.53 217.57 217.48 216.73 217.35L215.5 217.16C214.6 217.03 213.71 216.82 212.84 216.55C211.7 216.22 210.64 215.67 209.73 214.92C209.36 214.62 208.95 214.37 208.51 214.2L207.96 214.06C207.59 214 207.24 213.9 206.89 213.76C206.32 213.48 205.7 213.33 205.07 213.3L204.3 213.3C203.83 213.3 203.36 213.3 202.92 213.3C201.69 213.16 200.47 212.93 199.28 212.6L198.71 212.46C198.3 212.36 197.89 212.24 197.49 212.1C197.14 211.98 196.79 211.81 196.46 211.66C196.13 211.51 195.91 211.4 195.63 211.29C194.9 211.02 194.15 210.81 193.38 210.66C192.86 210.54 192.33 210.43 191.82 210.28L191.46 210.17C190.48 209.97 189.57 209.55 188.78 208.94L188.39 208.61L188.56 208.15L188.75 207.67L189.51 207.67L189.69 207.82C190.57 208.4 191.57 208.78 192.61 208.95L193.31 209.12L194.21 209.34C195.16 209.53 196.08 209.82 196.97 210.19C199.39 211.28 202.01 211.84 204.66 211.82L204.82 211.82C205.4 211.81 205.98 211.87 206.55 212C206.83 212.09 207.1 212.2 207.36 212.32C207.61 212.44 207.87 212.53 208.14 212.6L208.41 212.67C208.84 212.73 209.25 212.85 209.63 213.04C210.05 213.26 210.45 213.53 210.82 213.84L211.18 214.1C212.12 214.74 213.18 215.17 214.3 215.36C214.92 215.5 215.56 215.6 216.19 215.65C216.53 215.68 216.87 215.73 217.2 215.8C217.49 215.87 217.79 215.91 218.09 215.93L218.36 215.93L219.03 215.93L219.74 215.93L220.86 215.93L221.84 215.93C222.45 215.92 223.04 215.84 223.63 215.69C224 215.61 224.38 215.57 224.76 215.58L228.03 215.58C228.56 215.56 229.09 215.56 229.62 215.58L230.19 215.58C231.28 215.58 232.34 215.86 233.29 216.4C233.67 216.66 234.09 216.9 234.5 217.13C235.04 217.43 235.57 217.76 236.08 218.11C236.37 218.32 236.69 218.49 237.03 218.62L237.53 218.86C238 219.1 238.46 219.38 238.91 219.67L239.24 219.88C239.73 220.18 240.24 220.46 240.76 220.71C241.12 220.88 241.47 221.08 241.8 221.32L242.36 221.68C242.66 221.84 242.96 221.99 243.27 222.12L243.87 222.38C244.39 222.64 244.91 222.95 245.4 223.25L245.78 223.49L246.77 224.07C247.56 224.52 248.37 224.99 249.13 225.53C249.52 225.79 249.93 226 250.36 226.24C250.95 226.52 251.51 226.86 252.03 227.24C253.04 228 254.11 228.68 255.23 229.26L255.79 229.58C256.17 229.77 256.53 229.97 256.88 230.19L257.17 230.38C257.33 230.45 257.47 230.55 257.59 230.67C257.93 230.91 258.27 231.14 258.63 231.35C258.8 231.44 258.99 231.52 259.18 231.58C259.51 231.71 259.82 231.86 260.12 232.05L260.75 232.51C261.04 232.73 261.35 232.95 261.65 233.14C262.31 233.51 263.01 233.79 263.74 233.96C264.19 234.08 264.66 234.22 265.12 234.39L265.73 234.65C266 234.79 266.29 234.91 266.58 235C266.93 235.08 267.29 235.15 267.63 235.2L268.53 235.38C269 235.5 269.46 235.65 269.91 235.83L270.26 235.95C270.76 236.1 271.28 236.17 271.81 236.16L271.95 236.16L272.87 236.16L274.02 236.16C274.48 236.15 274.94 236.18 275.4 236.27C276.42 236.54 277.37 237.04 278.16 237.75L278.49 238.01C278.74 238.19 278.99 238.34 279.25 238.51C279.47 238.63 279.69 238.76 279.89 238.91C280.22 239.14 280.54 239.38 280.84 239.65L281.19 239.94C282.04 240.58 282.97 241.12 283.95 241.55L284.85 241.97C285.34 242.18 285.81 242.45 286.23 242.78C286.48 242.97 286.7 243.19 286.91 243.42C287.11 243.64 287.34 243.85 287.57 244.03C287.96 244.32 288.29 244.67 288.55 245.07C288.69 245.32 288.92 245.52 289.19 245.61C289.4 245.69 289.58 245.81 289.74 245.97C289.85 246.06 289.95 246.16 290.03 246.27C290.14 246.38 290.21 246.46 290.29 246.53L290.61 246.71L291.04 246.98C291.31 247.16 291.57 247.36 291.81 247.57C292.06 247.78 292.32 247.98 292.59 248.16C293.11 248.51 293.62 248.87 294.15 249.24C294.67 249.61 295.12 249.93 295.61 250.26C296.11 250.6 296.88 251.15 297.52 251.65C297.95 251.96 298.36 252.28 298.81 252.59C299.76 253.22 300.75 253.8 301.76 254.33L302.04 254.48C303.04 255 303.97 255.64 304.8 256.4C305.01 256.6 305.2 256.82 305.38 257.05C305.53 257.23 305.69 257.41 305.87 257.57C306.05 257.72 306.25 257.84 306.47 257.92C306.79 258.03 307.09 258.19 307.36 258.39C307.59 258.58 307.8 258.78 308.01 258.98C308.23 259.2 308.46 259.41 308.71 259.59C309.16 259.9 309.62 260.19 310.09 260.45L310.26 260.56C311.09 261.03 311.88 261.55 312.66 262.08L313.56 262.67L315.21 263.69C316.36 264.36 317.48 265.1 318.54 265.92L318.78 266.11L318.91 268.32L317.68 267.3C317.04 266.77 316.36 266.28 315.66 265.84L313.38 264.37C312 263.46 310.47 262.51 308.99 261.61C308.45 261.3 307.92 260.96 307.43 260.59C307.22 260.42 307.02 260.24 306.83 260.05C306.65 259.83 306.43 259.64 306.18 259.49L305.95 259.41C305.54 259.26 305.17 259.04 304.84 258.76C304.6 258.53 304.36 258.28 304.15 258.01C303.99 257.82 303.82 257.63 303.64 257.45C302.81 256.71 301.88 256.09 300.88 255.6C299.72 254.99 298.61 254.31 297.55 253.55L294.3 251.26L293.58 250.72L292.86 250.18L292.21 249.77C291.9 249.57 291.59 249.38 291.3 249.17C291.09 249.02 290.88 248.85 290.68 248.67C290.46 248.48 290.22 248.3 289.96 248.14L289.8 248.04C289.59 247.93 289.4 247.8 289.22 247.67C289.09 247.56 288.97 247.43 288.87 247.29C288.83 247.23 288.78 247.18 288.72 247.13C288.61 247.04 288.5 246.97 288.37 246.91C288.03 246.77 287.72 246.55 287.49 246.26C287.42 246.15 287.34 246.04 287.28 245.93L287.14 245.73C287.01 245.57 286.86 245.43 286.69 245.32L286.41 245.11C286.19 244.91 285.97 244.7 285.78 244.47C285.62 244.29 285.45 244.13 285.26 243.98C284.84 243.66 284.37 243.4 283.88 243.2L283.26 242.91C282.17 242.46 281.15 241.86 280.21 241.14C279.7 240.73 279.16 240.36 278.62 239.98C278.08 239.61 277.73 239.38 277.31 239.04C276.45 238.23 275.34 237.74 274.17 237.66L274.02 237.66L272.94 237.66L271.76 237.66C271.4 237.67 271.04 237.64 270.67 237.59C270.24 237.52 269.8 237.39 269.39 237.23C269.23 237.17 269.07 237.12 268.91 237.07C268.34 236.9 267.76 236.76 267.18 236.67L267 236.67C266.46 236.59 265.93 236.46 265.42 236.27L265.05 236.12C264.79 235.99 264.52 235.88 264.25 235.78C264.48 236.05 264.65 236.37 264.75 236.71C264.75 236.81 264.75 236.92 264.87 237.04C265 237.17 264.87 237.15 265.37 237.22C265.6 237.26 265.83 237.31 266.06 237.39C266.75 237.66 267.44 238.01 268.05 238.31C268.38 238.47 268.67 238.69 268.91 238.98C269.01 239.08 269.13 239.16 269.27 239.21C269.4 239.27 269.55 239.3 269.69 239.29L270.66 239.29C270.99 239.28 271.33 239.34 271.64 239.45C272.04 239.61 272.41 239.84 272.73 240.14C272.88 240.27 273.04 240.39 273.22 240.5C273.88 240.9 274.58 241.23 275.32 241.49L275.97 241.71C276.44 241.86 276.9 242.05 277.35 242.28C277.73 242.47 278.09 242.71 278.47 242.94C278.77 243.15 279.08 243.34 279.41 243.52C279.99 243.83 280.53 244.18 281.05 244.52L281.52 244.82C281.89 245.06 282.27 245.27 282.67 245.46C282.96 245.61 283.23 245.75 283.51 245.91C284.14 246.28 284.67 246.78 285.09 247.38C285.5 247.91 285.96 248.4 286.47 248.85L286.62 249.01C286.94 249.32 287.23 249.67 287.53 250C287.83 250.33 287.97 250.51 288.21 250.75L288.86 251.41C289.19 251.76 289.52 252.09 289.84 252.43C290.31 252.99 290.84 253.5 291.43 253.94C292.12 254.44 292.64 254.84 293.13 255.25C293.73 255.78 294.4 256.24 295.1 256.63C295.55 256.86 296.01 257.05 296.48 257.21C296.79 257.32 297.09 257.45 297.38 257.59C297.83 257.77 298.29 257.93 298.76 258.07L299.52 258.32C300.04 258.53 300.51 258.84 300.91 259.23L301.2 259.48C301.56 259.77 301.91 260.03 302.29 260.31C303.19 260.93 304.02 261.64 304.76 262.44C305.08 262.79 305.37 263.18 305.66 263.57C305.95 263.96 305.99 264 306.17 264.21C306.35 264.41 306.56 264.67 306.76 264.9C306.97 265.12 307.3 265.5 307.55 265.82C308.02 266.47 308.45 267.14 308.84 267.84C309.25 268.56 309.71 269.24 310.22 269.9C311.05 270.93 311.97 271.93 312.86 272.9L313.51 273.6C314.03 274.16 314.51 274.75 314.97 275.35C315.14 275.61 315.35 275.84 315.58 276.05C315.68 276.12 315.8 276.18 315.92 276.21C316.14 276.29 316.35 276.4 316.55 276.53C316.72 276.66 316.89 276.81 317.03 276.97L317.25 277.18C317.58 277.44 317.93 277.67 318.3 277.87L318.91 278.2C319.39 278.46 319.85 278.75 320.29 279.07C320.39 279.14 320.48 279.21 320.57 279.29L320.76 279.45L320.84 279.82L320.17 280.03L320.84 279.89L321.22 281.77L319.59 280.39C319.47 280.27 319.34 280.17 319.2 280.08C318.85 279.85 318.47 279.64 318.09 279.43L317.29 278.99C316.96 278.79 316.65 278.58 316.34 278.35C316.2 278.24 316.07 278.11 315.94 277.98C315.81 277.84 315.67 277.72 315.51 277.62L315.29 277.54C315.08 277.47 314.89 277.37 314.71 277.25C314.38 277 314.09 276.7 313.85 276.36C313.15 275.45 312.36 274.58 311.6 273.75L310.54 272.56C309.48 271.45 308.55 270.21 307.77 268.89C307.43 268.27 307.05 267.63 306.65 267.05C306.36 266.65 306.05 266.27 305.71 265.9L305.16 265.26L304.5 264.41C304.28 264.14 304.06 263.85 303.82 263.57C303.39 263.05 302.9 262.59 302.36 262.19L300.39 260.65L299.98 260.32C299.64 259.99 299.24 259.74 298.79 259.58C298.14 259.39 297.5 259.17 296.87 258.9C296.57 258.76 296.25 258.64 295.95 258.53C295.44 258.34 294.95 258.12 294.47 257.88C293.78 257.51 293.13 257.09 292.52 256.62L292.16 256.32C291.69 255.93 291.22 255.56 290.78 255.21C289.95 254.65 289.18 254 288.5 253.26ZM251.74 197.88L251 197.88L250.82 197.76C250.6 197.62 250.37 197.5 250.13 197.41L249.77 197.26C249.41 197.09 249.08 196.87 248.77 196.61L248.47 196.39C248.19 196.22 247.89 196.09 247.57 196L247.2 195.87C246.92 195.78 246.66 195.67 246.38 195.56L245.65 195.29L245.2 195.13C244.9 195.05 244.62 194.95 244.34 194.83L243.74 194.57C243.43 194.4 243.09 194.27 242.75 194.17L242.38 194.07C241.96 194.04 241.55 193.89 241.21 193.65C240.86 193.41 240.59 193.07 240.41 192.69C240.35 192.54 240.3 192.38 240.25 192.23C240.18 192.01 240.09 191.79 239.97 191.58C239.78 191.29 239.54 191.03 239.27 190.81L239.02 190.57C238.26 189.85 237.55 189.07 236.89 188.25C236.7 188 236.47 187.79 236.2 187.62C235.89 187.46 235.55 187.35 235.21 187.3L234.87 187.22C234.46 187.11 234.07 186.96 233.69 186.77L232.98 186.48C232.58 186.3 232.18 186.14 231.78 185.93C231.19 185.61 230.62 185.25 230.08 184.85L229.18 184.25C228.59 183.89 227.98 183.57 227.36 183.28L226.35 182.8C225.96 182.61 225.55 182.46 225.13 182.35C224.8 182.25 224.49 182.12 224.19 181.94L223.85 181.76C223.01 181.36 222.09 181.04 221.22 180.72L220.75 180.56C220.27 180.39 219.8 180.18 219.37 179.99C218.94 179.8 218.29 179.53 217.74 179.35L216.68 179.05L216.37 178.97C216.07 178.97 215.78 178.8 215.49 178.71L214.81 178.48L214.04 178.3L213.32 178.14C212.84 178 212.38 177.82 211.94 177.6L211.77 177.53C211.31 177.31 210.82 177.16 210.31 177.1C209.83 177.06 209.38 176.88 209.01 176.58C208.41 176.23 207.75 176.03 207.06 175.98C206.69 175.98 206.31 175.86 205.95 175.78L205.6 175.68C204.45 175.39 203.3 175.1 202.17 174.78L201.74 174.66C201.3 174.53 200.87 174.42 200.46 174.27C200.08 174.14 199.71 173.96 199.38 173.75L198.99 173.52C198.82 173.45 198.64 173.4 198.45 173.36C198.2 173.31 197.96 173.24 197.72 173.14C197.3 172.9 196.95 172.57 196.7 172.16L196.45 171.78L196.63 171.4L196.86 171L197.64 171L197.84 171.27C198.15 171.67 198.26 171.78 198.52 171.84C199.01 171.93 199.47 172.09 199.9 172.34C200.68 172.76 201.52 173.07 202.39 173.26L202.65 173.33C203.23 173.5 203.83 173.63 204.41 173.79L205.94 174.17C206.36 174.28 206.77 174.34 207.18 174.41C207.81 174.49 208.42 174.62 209.02 174.81C209.31 174.93 209.58 175.07 209.84 175.25L210.16 175.46C210.35 175.53 210.55 175.57 210.75 175.58C211.03 175.6 211.3 175.65 211.56 175.73C211.95 175.87 212.31 176.04 212.68 176.2L212.86 176.29C213.37 176.5 213.91 176.66 214.45 176.76C215.09 176.9 215.7 177.09 216.32 177.27C216.69 177.39 217.08 177.5 217.45 177.6C218.17 177.81 218.87 178.07 219.55 178.37L220.59 178.77L221.69 179.19C222.33 179.41 222.96 179.63 223.59 179.88C224.21 180.13 224.51 180.27 224.97 180.5L225.13 180.6C225.26 180.67 225.39 180.74 225.52 180.79L225.81 180.79C225.96 180.82 226.12 180.85 226.27 180.9C226.58 181.02 226.89 181.16 227.18 181.33L227.43 181.45L228.95 182.19C229.65 182.56 230.33 182.98 230.98 183.44L231.61 183.87C232.42 184.37 233.27 184.79 234.16 185.14L234.46 185.28C234.9 185.47 235.37 185.62 235.84 185.71C236.36 185.81 236.86 186.01 237.31 186.29C237.79 186.66 238.21 187.09 238.56 187.59C238.73 187.8 238.89 188.02 239.07 188.21C239.25 188.4 239.6 188.72 239.86 188.97C240.36 189.39 240.82 189.85 241.24 190.35C241.53 190.78 241.75 191.24 241.89 191.73C241.94 191.9 242.01 192.06 242.1 192.2C242.27 192.3 242.45 192.35 242.64 192.37C243.4 192.56 244.15 192.82 244.86 193.14C245.26 193.3 245.65 193.46 246.05 193.6L247.07 193.99L247.68 194.21L248.11 194.36C248.55 194.48 248.96 194.66 249.35 194.89L249.84 195.24C250.03 195.41 250.23 195.55 250.45 195.67L250.81 195.84C251.17 195.98 251.52 196.17 251.84 196.41L252.26 196.78L252.09 197.25L251.74 197.88ZM184.97 254.41L185.35 254.41C186 254.39 186.63 254.51 187.22 254.78C187.98 255.14 188.74 255.49 189.51 255.79C189.83 255.91 190.15 256 190.48 256.09C190.87 256.2 191.25 256.32 191.63 256.47C192.32 256.75 192.99 257.07 193.64 257.43L194.29 257.77C194.8 258 195.29 258.28 195.76 258.6C195.89 258.71 196.04 258.8 196.2 258.86L196.39 258.86C196.58 258.9 196.76 258.95 196.93 259.01C197.22 259.16 197.48 259.34 197.72 259.56C197.99 259.77 198.29 259.93 198.6 260.05C198.96 260.19 199.32 260.32 199.7 260.42C200.56 260.65 201.38 261.02 202.11 261.52C202.52 261.84 202.89 262.19 203.23 262.57L203.55 262.92C203.99 263.4 204.45 263.87 204.93 264.3C205.46 264.74 206.05 265.12 206.67 265.41C207.17 265.64 207.64 265.93 208.12 266.21L208.65 266.5C209.02 266.71 209.39 266.9 209.78 267.07L210.63 267.45L210.79 267.55C211.04 267.69 211.3 267.8 211.58 267.88C211.77 267.93 211.97 267.96 212.17 267.98L212.55 267.98C214.06 268.27 215.48 268.92 216.69 269.88C217.35 270.37 217.88 270.73 218.43 271.06C219.05 271.4 219.63 271.79 220.19 272.23C220.67 272.65 221.13 273.08 221.57 273.54C222.09 274.12 222.66 274.64 223.28 275.11C223.54 275.28 223.81 275.44 224.1 275.58C224.39 275.73 224.68 275.89 224.95 276.07C225.46 276.41 225.93 276.82 226.34 277.28C226.47 277.43 226.6 277.59 226.72 277.76C226.9 278.05 227.14 278.3 227.41 278.49C227.59 278.57 227.78 278.62 227.98 278.64C228.34 278.69 228.68 278.8 229 278.96C229.16 279.06 229.31 279.16 229.46 279.28L229.66 279.43C229.88 279.57 230.1 279.69 230.33 279.79L230.51 279.87C230.92 280.09 231.31 280.35 231.67 280.65C231.89 280.81 232.11 280.98 232.33 281.12L232.76 281.37C233.22 281.6 233.64 281.9 234.02 282.26C234.2 282.47 234.38 282.69 234.54 282.91C234.72 283.18 234.94 283.43 235.18 283.65C235.45 283.87 235.76 284.05 236.05 284.24C236.38 284.42 236.7 284.63 237 284.86C237.59 285.32 238.11 285.86 238.56 286.45C239.03 287.08 239.43 287.75 239.77 288.45C240.01 288.97 240.29 289.47 240.61 289.95C240.75 290.14 240.88 290.35 241.04 290.54C241.19 290.73 241.56 291.29 241.8 291.67C242.15 292.29 242.45 292.92 242.71 293.58L242.71 293.75C243.03 294.48 243.3 295.24 243.52 296.01C243.69 296.55 243.91 297.06 244.2 297.54L244.44 297.99C244.78 298.67 245.01 299.39 245.13 300.14L245.13 300.46C245.13 300.68 245.21 300.9 245.26 301.11C245.31 301.27 245.36 301.43 245.43 301.58C245.5 301.76 245.57 301.94 245.62 302.13C245.75 302.7 245.79 303.28 245.75 303.86L245.75 304.29L245.75 305.02L245.06 305.02L244.31 305.02L244.31 303.9C244.36 303.38 244.31 302.85 244.17 302.34C243.97 301.71 243.81 301.07 243.68 300.42L243.68 300.2C243.55 299.55 243.31 298.92 242.97 298.35C242.58 297.7 242.28 297 242.09 296.27C241.9 295.65 241.68 295.03 241.41 294.44L241.31 294.22C241.05 293.52 240.72 292.85 240.32 292.21C240.14 291.95 239.96 291.69 239.77 291.44C239.57 291.19 239.32 290.83 239.13 290.51C238.9 290.14 238.69 289.74 238.51 289.34C238.4 289.12 238.3 288.9 238.18 288.69C237.56 287.48 236.64 286.46 235.51 285.72L235.23 285.55C234.69 285.25 234.19 284.87 233.75 284.43C233.58 284.25 233.41 284.04 233.27 283.82C233.08 283.54 232.85 283.29 232.58 283.08L231.92 282.68C231.56 282.48 231.21 282.26 230.88 282.01L230.58 281.77L230.12 281.42L229.64 281.19L229.21 280.98L228.63 280.6C228.4 280.42 228.14 280.27 227.85 280.19C227.26 280.14 226.69 279.92 226.22 279.54C225.94 279.28 225.69 278.98 225.46 278.67C225.33 278.49 225.19 278.31 225.04 278.15C224.68 277.76 224.26 277.43 223.81 277.17L223.38 276.93C222.92 276.69 222.48 276.42 222.07 276.1C221.52 275.68 220.99 275.21 220.5 274.72L220.16 274.37C219.84 274.02 219.5 273.69 219.14 273.38C218.69 273.04 218.23 272.74 217.75 272.45L217.38 272.23C216.93 271.96 216.48 271.65 216 271.33C215.28 270.8 214.5 270.34 213.69 269.95C213.07 269.71 212.42 269.55 211.76 269.48C211.12 269.37 210.5 269.15 209.93 268.83L209.08 268.43C208.61 268.21 208.15 267.99 207.7 267.73C207.24 267.47 206.45 267.02 205.8 266.71C204.57 266.04 203.46 265.17 202.53 264.12C202.39 263.99 202.26 263.84 202.14 263.69C201.84 263.35 201.51 263.03 201.15 262.75C200.66 262.43 200.13 262.19 199.57 262.04L199.2 261.91C198.76 261.76 198.3 261.62 197.82 261.44C197.49 261.3 197.17 261.13 196.88 260.93C196.77 260.86 196.67 260.78 196.57 260.7C196.45 260.57 196.31 260.48 196.14 260.42L195.94 260.42C195.83 260.41 195.72 260.38 195.62 260.34C195.29 260.23 194.99 260.06 194.72 259.84C194.37 259.6 193.99 259.39 193.6 259.22L192.97 258.9C192.32 258.53 191.65 258.21 190.96 257.92C190.76 257.85 190.54 257.79 190.33 257.74L189.95 257.64C189.58 257.53 189.19 257.38 188.74 257.2C188.02 256.91 187.36 256.6 186.63 256.27C186.16 256.05 185.64 255.95 185.12 255.97L184.93 255.97L184.21 255.86L184.21 254.48L184.97 254.41ZM184.68 248.73L184.98 248.87C185.31 248.99 185.62 249.17 185.89 249.39C186.35 249.75 186.86 250.03 187.4 250.22L188.13 250.5C188.3 250.55 188.47 250.58 188.64 250.6L189 250.6C189.38 250.67 189.73 250.84 190.02 251.09C190.12 251.18 190.23 251.26 190.36 251.31C190.46 251.34 190.57 251.34 190.67 251.31C190.82 251.32 190.96 251.35 191.1 251.38C191.4 251.45 191.69 251.58 191.94 251.76C192.36 252.01 192.8 252.24 193.24 252.45L193.6 252.61L195.58 253.62L196.96 254.35C198 254.88 199.02 255.31 200.11 255.74L200.43 255.87C200.84 256.04 201.24 256.25 201.6 256.51C202.01 256.85 202.35 257.27 202.6 257.74L202.68 257.89C202.76 258.06 202.88 258.21 203.02 258.34C203.16 258.46 203.33 258.55 203.51 258.61C203.78 258.67 204.05 258.71 204.32 258.73L205.03 258.83L205.43 258.9C205.83 258.97 206.22 259.04 206.62 259.13C207.25 259.32 207.85 259.58 208.41 259.92L209.15 260.32C210.11 260.85 211.12 261.4 212.09 262.04C212.68 262.42 213.2 262.79 213.65 263.16L213.95 263.43C214.19 263.64 214.51 263.93 214.7 263.93L214.84 263.93L215.52 263.93L215.52 264.56L215.52 265.23L214.88 265.34L214.62 265.34C214.2 265.32 213.79 265.17 213.46 264.91C213.21 264.73 212.96 264.52 212.73 264.33L212.17 263.87C211.18 263.13 210.13 262.48 209.02 261.91L208.18 261.46C207.44 261 206.63 260.66 205.79 260.45C205.25 260.34 204.7 260.23 204.16 260.17L203.98 260.17C203.51 260.15 203.04 260.05 202.6 259.88C202.08 259.65 201.66 259.26 201.38 258.76L201.23 258.5C201.04 258.13 200.78 257.81 200.46 257.56C200.09 257.35 199.71 257.18 199.32 257.03L199.16 256.97C198.55 256.73 197.95 256.47 197.36 256.19C196.49 255.78 195.62 255.33 194.76 254.89L193.8 254.4C193.23 254.12 192.68 253.83 192.11 253.57L191.94 253.57C191.75 253.48 191.56 253.39 191.38 253.28L191.12 253.11C190.97 253 190.81 252.91 190.63 252.86C190.54 252.85 190.46 252.85 190.37 252.86C190.1 252.85 189.84 252.8 189.6 252.7C189.39 252.59 189.19 252.46 189.03 252.29L188.82 252.14C188.69 252.08 188.54 252.05 188.39 252.06L188.02 252.06C187.71 252 187.41 251.9 187.12 251.77L186.71 251.62C186.18 251.43 185.67 251.19 185.2 250.89L184.84 250.6C184.75 250.49 184.63 250.41 184.51 250.35L183.94 250.08L183.59 249.82L183.43 248.19L184.68 248.73ZM244.23 256.33C244.02 256.04 243.84 255.74 243.68 255.43L243.54 255.2C243.37 254.91 243.19 254.62 243 254.34L242.85 254.12C242.33 253.37 241.93 252.54 241.67 251.66C241.56 251.29 241.46 250.91 241.37 250.54C241.1 249.28 240.64 248.08 239.99 246.98C239.63 246.49 239.21 246.06 238.74 245.69L238.18 245.19L237.79 244.82C237.26 244.34 236.75 243.85 236.2 243.44C235.65 243.02 234.82 242.42 234.2 241.92L233.96 241.75C233.52 241.41 233.1 241.03 232.7 240.63C232.53 240.45 232.35 240.27 232.15 240.11C231.81 239.81 231.43 239.55 231.02 239.35C230.67 239.16 230.33 238.95 230 238.73C229.48 238.31 228.99 237.88 228.52 237.41L227.88 236.81C227.18 236.18 226.5 235.53 225.81 234.87C225.7 234.77 225.63 234.63 225.59 234.48C225.56 234.34 225.57 234.18 225.63 234.04L225.88 233.56L226.35 233.56L226.68 233.56L226.89 233.77C227.58 234.46 228.27 235.15 229.03 235.78L229.65 236.36C230.07 236.82 230.53 237.23 231.03 237.59C231.25 237.75 231.49 237.87 231.71 237.99C232.25 238.27 232.75 238.61 233.2 239L233.64 239.43C234.07 239.88 234.53 240.29 235.03 240.66C235.74 241.19 236.41 241.71 237.15 242.28C237.9 242.84 238.19 243.19 238.69 243.66L239.2 244.14L239.7 244.57C240.2 244.98 240.67 245.44 241.08 245.95C241.47 246.53 241.79 247.15 242.02 247.8L242.16 248.15C242.43 248.85 242.65 249.57 242.81 250.31L242.92 250.75C243.11 251.58 243.45 252.38 243.91 253.1L244.16 253.46L244.63 254.16L244.91 254.67C245.02 254.86 245.11 255.06 245.24 255.24C245.7 255.85 246.27 256.38 246.91 256.8C247.39 257.18 247.85 257.58 248.29 258.01L248.86 258.53C249.13 258.78 249.42 259 249.71 259.23C250.13 259.54 250.53 259.88 250.9 260.24L251.63 260.96C251.99 261.35 252.37 261.72 252.77 262.08C253.17 262.44 253.33 262.62 253.62 262.91C253.93 263.24 254.26 263.55 254.6 263.85C255.2 264.37 255.71 264.99 256.11 265.67C256.3 265.96 256.51 266.24 256.72 266.51C257.06 267 257.42 267.48 257.73 268C257.91 268.29 258.07 268.6 258.24 268.9C258.49 269.41 258.79 269.9 259.12 270.37C259.32 270.64 259.54 270.92 259.76 271.18C260.1 271.59 260.43 272.01 260.73 272.45L261.24 273.27C261.57 273.79 261.89 274.32 262.25 274.82C262.6 275.31 262.72 275.42 262.96 275.71C263.3 276.1 263.62 276.51 263.9 276.94C264.1 277.23 264.28 277.55 264.46 277.86C264.72 278.34 265.01 278.8 265.34 279.24C265.84 279.82 266.36 280.38 266.92 280.91L267.03 281.01C267.61 281.59 268.15 282.19 268.66 282.78C269.24 283.48 269.87 284.15 270.54 284.78C270.91 285.11 271.31 285.43 271.71 285.75C272.64 286.41 273.46 287.21 274.16 288.12C274.41 288.48 274.68 288.83 274.97 289.16C275.25 289.48 275.51 289.79 275.76 290.13C276.22 290.81 276.62 291.54 276.96 292.29L277.04 292.49C277.32 292.95 277.56 293.43 277.78 293.93C277.91 294.33 278.05 294.73 278.23 295.13C278.44 295.54 278.68 295.94 278.95 296.32L279.5 297.17L279.61 297.38C280.03 298.05 280.39 298.76 280.66 299.51C280.9 300.38 280.99 301.28 280.91 302.17C280.83 302.92 280.93 303.68 281.2 304.39C281.35 304.67 281.51 304.95 281.7 305.21C281.84 305.44 281.95 305.68 282.04 305.93C282.04 306.07 282.17 306.22 282.24 306.35C282.53 306.81 282.86 307.25 283.22 307.66L283.83 308.41C284.39 309.17 284.97 309.91 285.5 310.69L285.75 311.03C286.15 311.55 286.48 312.12 286.74 312.72C286.95 313.16 287.21 313.57 287.52 313.95C287.74 314.23 287.95 314.52 288.14 314.83C288.51 315.49 288.97 316.08 289.52 316.6L289.89 317L289.73 317.44L289.48 317.94L288.69 317.94L288.5 317.77C287.87 317.17 287.33 316.49 286.9 315.73C286.73 315.46 286.54 315.19 286.34 314.94C286.05 314.56 285.78 314.17 285.54 313.75C285.45 313.57 285.37 313.39 285.31 313.2C285.26 313.06 285.2 312.93 285.14 312.8C285.01 312.58 284.86 312.38 284.7 312.18L284.39 311.78C283.88 311.04 283.36 310.31 282.82 309.61L282.17 308.81C281.8 308.34 281.41 307.88 281.08 307.42C280.93 307.19 280.81 306.95 280.72 306.69L280.58 306.36C280.49 306.19 280.39 306.03 280.28 305.88C280.15 305.7 280.04 305.52 279.93 305.32C279.47 304.33 279.29 303.24 279.39 302.15C279.43 301.58 279.4 301.02 279.31 300.46C279.14 299.79 278.86 299.14 278.48 298.55L278.29 298.2C278.11 297.89 277.91 297.59 277.71 297.3C277.43 296.9 277.17 296.49 276.95 296.07C276.73 295.62 276.54 295.16 276.38 294.69C276.26 294.28 276.11 293.88 275.94 293.5L275.81 293.25C275.51 292.56 275.15 291.89 274.75 291.25C274.52 290.92 274.27 290.61 274 290.32C273.71 289.99 273.44 289.66 273.19 289.31C272.76 288.69 272.24 288.14 271.64 287.68C270.2 286.58 268.88 285.32 267.72 283.94C267.2 283.31 266.64 282.71 266.04 282.15C265.41 281.55 264.8 280.92 264.24 280.25C263.87 279.75 263.54 279.24 263.24 278.7L262.87 278.06C262.58 277.63 262.27 277.22 261.93 276.82C261.69 276.56 261.47 276.28 261.26 276.01C260.85 275.45 260.49 274.86 260.13 274.28L259.7 273.6C259.38 273.12 259.03 272.66 258.65 272.22L258.16 271.58C257.75 271.02 257.39 270.44 257.06 269.83C256.94 269.59 256.82 269.36 256.68 269.12C256.33 268.54 255.94 268 255.54 267.44L255.17 266.91C255.05 266.75 254.94 266.57 254.83 266.39C254.72 266.21 254.59 266.01 254.45 265.84C254.24 265.57 253.99 265.32 253.72 265.12C253.34 264.8 252.98 264.46 252.64 264.09C252.39 263.83 252.15 263.58 251.88 263.35C251.62 263.11 251.1 262.57 250.71 262.17L249.88 261.36C249.56 261.07 249.23 260.8 248.88 260.54C248.58 260.29 248.28 260.06 247.99 259.8L247.52 259.38C246.98 258.89 246.43 258.43 245.84 258C245.22 257.54 244.67 256.97 244.23 256.33Z" fill="#202147" fill-opacity="1.000000" fill-rule="nonzero"/>
</svg>
