<svg width="436.891113" height="625.000366" viewBox="0 0 436.891 625" fill="none" xmlns="http://www.w3.org/2000/svg" xmlns:xlink="http://www.w3.org/1999/xlink">
	<desc>
			Created with Pixso.
	</desc>
	<defs/>
	<path id="Vector" d="M94.02 346.46C94.02 345.74 94.02 345.05 94.02 344.33C94.02 342.88 94.02 341.44 94.02 340.03C94.06 339.66 94.02 339.28 93.91 338.92C93.81 338.56 93.63 338.23 93.39 337.95C93.15 337.67 92.86 337.44 92.53 337.29C92.2 337.13 91.85 337.05 91.49 337.05C91.13 337.05 90.77 337.13 90.45 337.29C90.12 337.44 89.83 337.67 89.59 337.95C89.35 338.23 89.17 338.56 89.06 338.92C88.95 339.28 88.92 339.66 88.96 340.03C88.96 340.69 88.96 341.34 88.96 341.99C88.96 342.64 88.96 342.58 88.79 342.85C88.47 344.12 88.3 345.42 88.3 346.73C88.3 346.97 88.3 347.21 88.3 347.45C88.3 347.69 88.3 347.73 88.3 347.93C87.96 348.43 87.77 349.03 87.77 349.65C87.77 350.27 87.96 350.87 88.3 351.37C88.46 351.7 88.72 351.97 89.03 352.15C89.34 352.33 89.69 352.4 90.05 352.37C90.4 352.33 90.73 352.18 91 351.94C91.28 351.7 91.47 351.38 91.57 351.03C92.12 351.01 92.64 350.81 93.08 350.46C93.51 350.1 93.83 349.62 93.99 349.07C94.14 348.21 94.15 347.32 94.02 346.46Z" fill="#FFFFFF" fill-opacity="1.000000" fill-rule="nonzero"/>
	<path id="Vector" d="M60.19 342.44C59.89 341.99 59.7 341.48 59.4 341.03L58.88 340.31L58.39 339.62C58.39 339.62 58.03 339.14 57.93 339.01C57.83 338.87 57.48 338.11 57.02 337.94C56.56 337.75 56.04 337.75 55.58 337.94C54.96 336.95 54.15 336.12 53.2 335.5C52.8 335.26 52.34 335.14 51.88 335.17C51.42 335.2 50.98 335.38 50.62 335.67C50.25 335.97 49.98 336.37 49.83 336.83C49.68 337.29 49.66 337.78 49.77 338.25C50.13 339.3 50.61 340.31 51.21 341.24C51.7 342.06 52.22 342.89 52.64 343.75L52.64 344.02L52.64 344.4L52.94 344.98C53.13 345.36 53.33 345.77 53.56 346.15C53.82 346.63 54.13 347.09 54.47 347.52C54.92 348.07 55.53 348.45 56.2 348.59C56.43 348.65 56.67 348.65 56.9 348.59C57.13 348.54 57.34 348.43 57.53 348.27C57.71 348.12 57.86 347.92 57.96 347.69C58.05 347.47 58.1 347.22 58.1 346.97L58.49 346.97C58.9 346.92 59.29 346.74 59.6 346.45C59.92 346.16 60.14 345.78 60.25 345.36C60.43 344.89 60.52 344.4 60.51 343.89C60.5 343.39 60.39 342.9 60.19 342.44Z" fill="#FFFFFF" fill-opacity="1.000000" fill-rule="nonzero"/>
	<path id="Vector" d="M37.36 273.16C36.78 272.82 36.18 272.53 35.56 272.26C35.39 271.97 35.15 271.73 34.87 271.56C34.58 271.39 34.26 271.3 33.93 271.3L33.57 271.3C33.31 270.97 33 270.69 32.66 270.48C31.56 269.91 30.34 269.7 29.13 269.86L27.86 269.24C26.64 268.62 25.25 268.46 23.94 268.79C23.56 268.91 23.22 269.15 22.96 269.46C22.7 269.78 22.53 270.17 22.47 270.58C22.41 271 22.48 271.42 22.65 271.8C22.83 272.18 23.1 272.5 23.45 272.71C25.42 273.82 27.55 274.61 29.75 275.04L30.18 275.25C32.3 276.35 35.69 278.69 37.82 276.45C38.03 276.22 38.19 275.94 38.29 275.64C38.38 275.33 38.41 275.01 38.36 274.69C38.32 274.37 38.21 274.06 38.03 273.8C37.86 273.53 37.63 273.31 37.36 273.16Z" fill="#FFFFFF" fill-opacity="1.000000" fill-rule="nonzero"/>
	<path id="Vector" d="M23.65 336.15C23.68 335.75 23.68 335.35 23.65 334.95C23.68 334.58 23.68 334.21 23.65 333.85C23.49 333.45 23.29 333.07 23.06 332.71C22.92 332.45 22.72 332.22 22.48 332.05C22.25 331.87 21.97 331.76 21.69 331.72C21.4 331.45 21.03 331.29 20.64 331.27C20.36 331.26 20.07 331.34 19.83 331.49C19.58 331.64 19.38 331.86 19.24 332.13C19.13 332.36 19.04 332.6 18.98 332.85L18.98 333.23C18.98 333.5 18.98 333.78 18.98 334.05L19.17 333.57C18.89 334.13 18.74 334.76 18.75 335.39C18.75 335.39 18.75 335.63 18.75 335.77C18.75 336.63 18.75 337.49 18.75 338.35C18.76 338.93 18.98 339.48 19.37 339.89C19.76 340.3 20.29 340.54 20.84 340.54L21.26 340.54C21.75 340.62 22.25 340.51 22.67 340.22C23.08 339.94 23.39 339.5 23.52 339C23.53 338.82 23.53 338.63 23.52 338.45C23.52 337.66 23.65 336.83 23.65 336.15Z" fill="#FFFFFF" fill-opacity="1.000000" fill-rule="nonzero"/>
	<path id="Vector" d="M51.44 357.94C51.14 357.66 50.78 357.46 50.39 357.35C50.12 357.32 49.84 357.32 49.57 357.35L49.18 357.35L48.86 357.35C48.62 357.32 48.39 357.35 48.17 357.44C47.94 357.52 47.74 357.66 47.58 357.83C47.52 357.94 47.45 358.03 47.35 358.11C47.21 358.16 47.06 358.23 46.93 358.31L45.2 358.31C44.89 358.31 44.6 358.44 44.39 358.67C44.18 358.89 44.05 359.2 44.05 359.52C44.07 359.75 44.17 359.96 44.32 360.13L43.99 360.37C43.65 360.75 43.46 361.25 43.46 361.77C43.46 362.28 43.65 362.78 43.99 363.16C44.24 363.52 44.59 363.79 45 363.91C45.53 364.03 46.08 363.96 46.57 363.71C47.38 363.27 48.13 362.74 48.82 362.13L49.31 361.82C49.71 361.67 50.11 361.55 50.52 361.47L50 361.47C50.45 361.48 50.91 361.36 51.3 361.13C51.55 360.99 51.76 360.79 51.91 360.54C52.06 360.29 52.16 360.01 52.19 359.72C52.22 359.38 52.17 359.04 52.04 358.72C51.91 358.41 51.7 358.14 51.44 357.94Z" fill="#FFFFFF" fill-opacity="1.000000" fill-rule="nonzero"/>
	<path id="Vector" d="M110.25 301.79C110.31 301.36 110.31 300.92 110.25 300.49C110.25 299.9 110.05 299.39 109.95 298.81L109.95 298.15L109.95 297.88C109.97 297.57 109.97 297.26 109.95 296.95C110.03 296.83 110.08 296.69 110.08 296.54C110.08 296.39 110.03 296.25 109.95 296.13C109.93 295.54 109.69 294.99 109.29 294.59C108.89 294.19 108.35 293.96 107.8 293.96C107.22 293.96 106.67 294.2 106.26 294.62C105.85 295.05 105.62 295.63 105.61 296.23C105.61 297.26 105.61 298.26 105.61 299.29C105.6 299.54 105.6 299.79 105.61 300.04L105.61 302.69C105.62 303.29 105.85 303.87 106.26 304.3C106.67 304.73 107.22 304.98 107.8 304.99C108.22 304.96 108.63 304.82 108.98 304.57C109.33 304.32 109.61 303.98 109.79 303.58C110.1 303.32 110.34 302.98 110.48 302.58L110.48 301.79L110.25 301.79Z" fill="#FFFFFF" fill-opacity="1.000000" fill-rule="nonzero"/>
	<path id="Vector" d="M116.98 249.34C117.19 248.96 117.25 248.5 117.15 248.07C117.05 247.64 116.78 247.27 116.42 247.04L116.03 247.04L115.15 246.84C114.67 246.8 114.19 246.8 113.71 246.84C113.26 246.79 112.8 246.79 112.34 246.84L111.92 246.84C111.63 246.83 111.36 246.9 111.1 247.02C110.85 247.15 110.62 247.33 110.45 247.56C110.28 247.8 110.16 248.09 110.12 248.38C110.04 248.73 110.05 249.08 110.13 249.43C110.22 249.77 110.38 250.08 110.61 250.34C110.98 250.71 111.41 251 111.88 251.2C112.53 251.86 113.23 252.46 113.97 252.99C114.29 253.17 114.65 253.27 115.02 253.27C115.38 253.27 115.74 253.17 116.06 252.99C116.38 252.79 116.64 252.52 116.82 252.18C117 251.85 117.1 251.48 117.11 251.1C117.1 250.65 117.03 250.21 116.88 249.79L116.98 249.34Z" fill="#FFFFFF" fill-opacity="1.000000" fill-rule="nonzero"/>
	<path id="Vector" d="M130.62 189.61C130.53 189.36 130.45 189.09 130.39 188.82C130.48 188.45 130.48 188.06 130.39 187.69C130.39 187.07 130.13 186.49 130.04 185.9C129.8 184.54 129.32 183.24 128.63 182.06C128.4 181.63 128.04 181.3 127.61 181.12C127.18 180.93 126.7 180.9 126.25 181.03C125.81 181.17 125.42 181.46 125.13 181.84C124.85 182.23 124.69 182.7 124.68 183.19C124.68 184.7 124.68 186.25 124.68 187.79C124.7 188.36 124.92 188.9 125.3 189.31C125.68 189.71 126.2 189.94 126.74 189.96L127.36 189.79L127.62 190.06C127.82 190.37 128.04 190.67 128.27 190.95C128.48 191.18 128.75 191.32 129.04 191.36C129.33 191.4 129.63 191.33 129.87 191.16C130.15 191.03 130.37 190.81 130.51 190.53C130.65 190.25 130.69 189.92 130.62 189.61Z" fill="#FFFFFF" fill-opacity="1.000000" fill-rule="nonzero"/>
	<path id="Vector" d="M178.05 227.23C178.03 226.84 177.9 226.46 177.67 226.15C177.44 225.83 177.13 225.6 176.77 225.48L175.69 225.24C175.17 225.14 174.63 225.07 174.09 225.03C173.17 224.97 172.25 225.06 171.35 225.31C170.93 225.45 170.57 225.73 170.31 226.1C170.06 226.07 169.8 226.07 169.56 226.1C169.09 226.24 168.7 226.57 168.46 227.01C168.23 227.46 168.16 227.98 168.28 228.47C168.38 228.79 168.55 229.07 168.77 229.3C169 229.53 169.28 229.69 169.59 229.77L170.67 230.02L170.18 230.02C170.81 230.11 171.43 230.27 172.04 230.5C172.62 230.92 173.26 231.25 173.93 231.49C174.36 231.6 174.8 231.57 175.21 231.4C175.61 231.23 175.95 230.92 176.18 230.53C176.35 230.27 176.47 229.98 176.54 229.67C176.94 229.65 177.31 229.47 177.58 229.17C177.85 228.87 178.01 228.47 178.01 228.06C178.08 227.79 178.09 227.51 178.05 227.23Z" fill="#FFFFFF" fill-opacity="1.000000" fill-rule="nonzero"/>
	<path id="Vector" d="M32.85 201.84C32.37 201.29 31.75 200.89 31.05 200.71L30.83 200.71L30.24 200.36L29 199.5L27.89 198.75C27.73 198.45 27.49 198.22 27.2 198.06C26.17 197.46 25.19 196.77 24.26 196C23.77 195.69 23.28 195.38 22.76 195.11C21.94 194.68 21.01 194.54 20.11 194.73C20.11 194.73 19.92 194.73 19.79 194.94C19.27 194.8 18.73 194.86 18.25 195.11C17.78 195.36 17.4 195.78 17.2 196.3C16.99 196.81 16.97 197.39 17.13 197.92C17.3 198.45 17.64 198.9 18.09 199.19C20.03 200.47 22.09 201.54 24.23 202.39L24.62 202.39L25.08 202.63C25.5 202.87 25.93 203.11 26.32 203.39C27.08 203.91 27.86 204.39 28.67 204.83C30.01 205.52 31.94 206.2 32.98 204.83C33.31 204.4 33.49 203.86 33.46 203.31C33.44 202.76 33.22 202.23 32.85 201.84Z" fill="#FFFFFF" fill-opacity="1.000000" fill-rule="nonzero"/>
	<path id="Vector" d="M4.71 209.95C4.79 209.94 4.87 209.9 4.94 209.84C5.01 209.78 5.06 209.71 5.08 209.62C5.11 209.54 5.11 209.44 5.09 209.35C5.07 209.27 5.03 209.19 4.97 209.12C5 208.88 5 208.64 4.97 208.4C4.95 207.76 4.77 207.13 4.44 206.58C4.39 206.47 4.31 206.38 4.21 206.3C4.12 206.23 4.01 206.19 3.89 206.17C3.88 205.64 3.67 205.13 3.31 204.76C2.95 204.38 2.47 204.18 1.96 204.18C1.46 204.18 0.98 204.4 0.62 204.77C0.26 205.14 0.05 205.64 0.04 206.17C0.04 208.13 0.04 210.08 0.04 212.04C0.04 213 0.04 213.97 0.04 214.93C-0.1 216.1 0.1 217.3 0.59 218.36C0.74 218.62 0.96 218.83 1.21 218.97C1.46 219.12 1.74 219.2 2.03 219.2C2.31 219.2 2.6 219.12 2.85 218.97C3.1 218.83 3.31 218.62 3.46 218.36C3.94 217.4 4.14 216.31 4.02 215.24C4.26 215.07 4.46 214.84 4.59 214.57C4.72 214.3 4.78 214 4.77 213.69C4.77 212.97 4.77 212.28 4.57 211.56C4.38 210.84 4.57 210.84 4.57 210.46C4.59 210.28 4.64 210.11 4.71 209.95Z" fill="#FFFFFF" fill-opacity="1.000000" fill-rule="nonzero"/>
	<path id="Vector" d="M48.2 233.35C48.09 233.25 47.97 233.17 47.84 233.11C47.66 232.53 47.33 232 46.9 231.6C46.47 231.25 46.02 230.92 45.56 230.64C45.08 230.31 44.58 230.04 44.05 229.81L43.4 229.54L43.14 229.54L41.15 228.37C40.38 227.89 39.5 227.64 38.6 227.65C38.31 227.65 38.02 227.75 37.78 227.92C37.54 228.09 37.35 228.33 37.23 228.61C37.04 228.47 36.81 228.4 36.58 228.4C36.13 228.18 35.63 228.1 35.14 228.16C34.74 228.2 34.36 228.34 34.03 228.58C33.71 228.82 33.48 229.17 33.38 229.57C33.05 231.63 32.98 233.71 33.15 235.79C33.16 236.29 33.35 236.77 33.69 237.13C34.04 237.48 34.5 237.68 34.98 237.68C35.42 237.67 35.85 237.49 36.18 237.16C36.51 236.84 36.71 236.4 36.74 235.93C37.22 235.91 37.67 235.7 38 235.34C38.34 234.98 38.53 234.5 38.54 234C38.62 233 38.62 231.99 38.54 230.98L39.65 231.91L41.96 233.62C43.42 234.74 45.07 235.52 46.83 235.93C47.14 236.01 47.46 235.99 47.76 235.87C48.05 235.74 48.3 235.52 48.46 235.24C48.63 234.94 48.7 234.59 48.65 234.25C48.6 233.9 48.45 233.58 48.2 233.35Z" fill="#FFFFFF" fill-opacity="1.000000" fill-rule="nonzero"/>
	<path id="Vector" d="M170.27 380.81C170.08 380.19 169.78 379.62 169.39 379.12L168.93 378.78C168.72 378.59 168.49 378.42 168.25 378.26C167.79 377.96 167.28 377.76 166.75 377.68L166.13 377.37C166.02 377.15 165.86 376.96 165.67 376.82C165.22 376.57 164.75 376.36 164.26 376.2C162.75 375.24 161.03 374.68 159.27 374.55C158.97 374.57 158.69 374.68 158.45 374.86C158.28 374.77 158.13 374.65 157.99 374.52C157.77 374.32 157.49 374.2 157.19 374.2C156.9 374.2 156.61 374.32 156.39 374.52C156.19 374.75 156.08 375.05 156.08 375.36C156.08 375.67 156.19 375.97 156.39 376.2C156.98 376.89 157.74 377.38 158.58 377.65C159.89 378.66 161.38 379.37 162.96 379.74L163.48 379.91L163.77 379.91C164.25 380.11 164.72 380.34 165.18 380.6C166.09 380.99 166.9 381.62 167.53 382.42C168.54 383.73 170.86 382.32 170.27 380.81Z" fill="#FFFFFF" fill-opacity="1.000000" fill-rule="nonzero"/>
	<path id="Vector" d="M105.94 422.64C105.8 421.97 105.57 421.32 105.25 420.72C105.07 420.4 104.86 420.09 104.63 419.79C104.63 419.24 104.44 418.66 104.37 418.14L104.37 418.59C104.35 418.21 104.25 417.83 104.08 417.49L104.31 418.01C104.29 417.88 104.29 417.76 104.31 417.63C104.21 417.19 103.98 416.8 103.64 416.52C103.31 416.24 102.89 416.09 102.46 416.09C102.03 416.09 101.62 416.24 101.28 416.52C100.95 416.8 100.71 417.19 100.62 417.63C100.6 417.77 100.6 417.9 100.62 418.04C100.62 418.04 100.62 418.32 100.62 418.45L100.62 418.04C100.24 418.32 99.96 418.72 99.8 419.18C99.6 419.96 99.6 420.79 99.8 421.58C99.85 421.82 99.92 422.07 100 422.3C100.12 422.73 100.29 423.13 100.52 423.5C100.96 424.22 101.54 424.84 102.22 425.32C102.45 425.71 102.75 426.05 103.1 426.32C103.39 426.48 103.72 426.56 104.05 426.56C104.38 426.56 104.7 426.48 104.99 426.32C105.3 426.21 105.57 426.02 105.79 425.77C106.01 425.51 106.16 425.21 106.23 424.88C106.26 424.12 106.16 423.36 105.94 422.64Z" fill="#FFFFFF" fill-opacity="1.000000" fill-rule="nonzero"/>
	<path id="Vector" d="M100.42 417.98L100.42 418.15L100.42 417.98Z" fill="#FFFFFF" fill-opacity="1.000000" fill-rule="nonzero"/>
	<path id="Vector" d="M113.48 394.83C113.21 394.23 112.76 393.73 112.21 393.42C111.64 393.11 111.01 392.94 110.38 392.9C110.02 392.85 109.66 392.85 109.3 392.9L109.1 392.9L108.48 392.9C108.23 392.75 107.93 392.68 107.63 392.72C107.34 392.76 107.06 392.89 106.85 393.11C106.65 393.34 106.53 393.63 106.5 393.94C106.46 394.24 106.52 394.55 106.65 394.83C106.8 395 106.97 395.16 107.14 395.31C107.4 395.58 107.71 395.79 108.06 395.93C108.71 396.84 109.46 397.68 110.28 398.43C110.59 398.76 111.01 398.94 111.45 398.95C111.9 398.95 112.32 398.76 112.63 398.43C112.84 398.19 112.97 397.89 113.02 397.57C113.16 397.51 113.29 397.42 113.39 397.3C113.49 397.18 113.57 397.04 113.61 396.89C113.82 396.21 113.78 395.47 113.48 394.83Z" fill="#FFFFFF" fill-opacity="1.000000" fill-rule="nonzero"/>
	<path id="Vector" d="M54.47 501.02C54.47 500.52 54.28 500.04 53.95 499.68C53.61 499.33 53.15 499.13 52.68 499.13C52.2 499.13 51.74 499.33 51.41 499.68C51.07 500.04 50.88 500.52 50.88 501.02C50.88 501.4 50.88 501.77 50.88 502.15L50.88 502.67C50.7 503.31 50.48 503.94 50.23 504.56C49.61 505.95 49.32 507.48 49.38 509.02C49.37 509.36 49.46 509.69 49.63 509.98C49.79 510.27 50.04 510.5 50.33 510.64C50.62 510.79 50.94 510.84 51.26 510.8C51.58 510.75 51.88 510.61 52.12 510.4C52.32 510.51 52.55 510.58 52.77 510.6C53.15 510.56 53.5 510.41 53.79 510.16C54.13 509.56 54.4 508.91 54.57 508.23C54.47 505.66 54.41 503.25 54.47 501.02Z" fill="#FFFFFF" fill-opacity="1.000000" fill-rule="nonzero"/>
	<path id="Vector" d="M45.43 464.54C45.2 464.24 44.9 464.01 44.55 463.89C44.2 463.77 43.82 463.76 43.47 463.86C42.85 464.03 42.27 464.31 41.74 464.68C41.09 465.12 40.47 465.61 39.88 466.12C39.32 466.57 38.83 467.02 38.34 467.5C37.85 467.98 37.62 468.32 37.23 468.7C36.93 468.91 36.68 469.19 36.51 469.53C36.28 469.97 36.19 470.48 36.25 470.98C36.32 471.48 36.54 471.95 36.87 472.31C37.14 472.57 37.47 472.77 37.82 472.89C38.1 472.97 38.39 472.99 38.68 472.95C38.96 472.91 39.24 472.81 39.49 472.65L39.94 472.31L40.34 471.96C40.49 471.82 40.62 471.64 40.73 471.45C41.17 471.41 41.59 471.25 41.97 471C42.54 470.67 43.05 470.22 43.47 469.7C44.24 468.75 44.95 467.75 45.59 466.71C45.77 466.37 45.85 465.99 45.82 465.6C45.79 465.22 45.65 464.85 45.43 464.54Z" fill="#FFFFFF" fill-opacity="1.000000" fill-rule="nonzero"/>
	<path id="Vector" d="M84.22 470.59L83.83 470.07C83.81 470.01 83.81 469.93 83.83 469.87L83.83 469.69C83.88 469.37 83.82 469.05 83.67 468.77C83.48 468.46 83.21 468.23 82.88 468.11C82.65 468.05 82.4 468.05 82.16 468.11C82 467.63 81.73 467.2 81.38 466.84C81.03 466.51 80.58 466.32 80.11 466.29C79.73 466.31 79.36 466.45 79.06 466.71C78.86 466.88 78.69 467.1 78.57 467.35C78.45 467.6 78.39 467.87 78.38 468.15C78.38 468.15 78.38 468.15 78.38 468.32C78.36 468.4 78.36 468.48 78.38 468.56C78.36 468.69 78.36 468.81 78.38 468.94C78.42 469.07 78.47 469.2 78.54 469.32C78.93 470.31 79.26 471.34 79.75 472.31C80.02 472.85 80.37 473.35 80.79 473.78C81.1 474.04 81.41 474.28 81.74 474.5L81.97 474.78C82.16 474.97 82.38 475.12 82.63 475.2C82.88 475.28 83.15 475.3 83.41 475.26C83.67 475.22 83.91 475.13 84.13 474.98C84.35 474.83 84.54 474.63 84.68 474.4C85.01 473.8 85.15 473.1 85.07 472.41C84.98 471.72 84.69 471.08 84.22 470.59Z" fill="#FFFFFF" fill-opacity="1.000000" fill-rule="nonzero"/>
	<path id="Vector" d="M127.2 93.23C127.08 92.93 126.89 92.67 126.64 92.47L125.14 91.41L124.23 90.75C124.01 90.43 123.76 90.13 123.48 89.86C123.25 89.63 122.95 89.49 122.63 89.49C122.31 89.49 122.01 89.63 121.78 89.86C121.67 90.01 121.59 90.17 121.52 90.34C121.33 90.39 121.15 90.48 121 90.62C120.8 90.81 120.67 91.06 120.6 91.34C120.46 91.72 120.46 92.15 120.6 92.54L120.86 92.85C121.18 93.23 121.54 93.57 121.94 93.85L122.6 94.15L122.82 94.33C123.44 94.76 124.08 95.14 124.75 95.46C125.14 95.67 125.59 95.73 126.02 95.63C126.12 95.65 126.22 95.65 126.32 95.63C126.58 95.62 126.84 95.53 127.05 95.36C127.26 95.2 127.41 94.97 127.49 94.7C127.6 94.46 127.62 94.18 127.57 93.92C127.52 93.65 127.39 93.41 127.2 93.23Z" fill="#FFFFFF" fill-opacity="1.000000" fill-rule="nonzero"/>
	<path id="Vector" d="" fill="#FFFFFF" fill-opacity="1.000000" fill-rule="nonzero"/>
	<path id="Vector" d="M58.71 122.37C58.65 121.35 58.39 120.36 57.93 119.45C57.95 119.24 57.95 119.02 57.93 118.8C57.93 118.8 57.93 118.8 57.93 118.63C57.83 117.74 57.61 116.87 57.28 116.05C56.86 114.95 56.2 113.96 55.35 113.17C55.28 113.04 55.18 112.93 55.06 112.86C54.78 112.69 54.46 112.6 54.13 112.61C53.81 112.61 53.49 112.7 53.21 112.87C52.93 113.04 52.7 113.28 52.54 113.57C52.37 113.87 52.28 114.2 52.28 114.54C52.52 116.46 53.03 118.34 53.78 120.11C54.11 120.98 54.48 121.82 54.89 122.65C54.89 122.85 54.89 123.06 55.15 123.23L55.15 123.71C55.15 123.71 55.15 124.09 55.15 124.16C55.15 124.42 55.2 124.67 55.29 124.91C55.38 125.15 55.52 125.37 55.69 125.55C55.86 125.74 56.07 125.88 56.3 125.98C56.53 126.07 56.77 126.12 57.02 126.12C57.51 126.11 57.98 125.9 58.32 125.53C58.67 125.17 58.87 124.68 58.88 124.16C58.87 123.56 58.82 122.96 58.71 122.37Z" fill="#FFFFFF" fill-opacity="1.000000" fill-rule="nonzero"/>
	<path id="Vector" d="M115.34 143.97C115.41 143.69 115.41 143.39 115.34 143.11C115.26 142.67 115.12 142.24 114.92 141.84C114.65 140.63 114 139.54 113.09 138.75C112.83 138.32 112.5 137.94 112.11 137.65C111.89 137.53 111.64 137.49 111.39 137.54C111.15 137.59 110.93 137.73 110.77 137.92C110.61 138.12 110.53 138.37 110.53 138.63C110.53 138.88 110.61 139.13 110.77 139.33L110.77 139.54C110.77 139.54 110.77 139.54 110.77 139.74C110.77 139.95 110.77 139.95 110.77 140.05L110.77 140.36C110.74 141.57 111.04 142.76 111.62 143.8C111.82 144.15 112.09 144.47 112.41 144.71C112.73 144.96 113.09 145.14 113.48 145.24L113.9 145.41L114.13 145.41L114.98 145.89C115.08 145.95 115.2 145.97 115.31 145.96C115.42 145.95 115.53 145.91 115.62 145.84C115.71 145.76 115.78 145.67 115.81 145.55C115.85 145.44 115.86 145.32 115.83 145.21C115.75 144.76 115.59 144.34 115.34 143.97Z" fill="#FFFFFF" fill-opacity="1.000000" fill-rule="nonzero"/>
	<path id="Vector" d="M123.25 132.66C119.73 132.26 116.21 133.33 113.45 135.65C113.24 135.88 113.1 136.18 113.06 136.5C113.01 136.83 113.07 137.15 113.22 137.44C113.37 137.73 113.62 137.96 113.91 138.08C114.2 138.21 114.52 138.22 114.82 138.13L115.15 138.13L115.83 137.82C116.37 137.85 116.9 137.85 117.43 137.82C117.96 137.74 118.47 137.62 118.97 137.44L119.85 137.06L120.47 136.75C120.7 136.71 120.92 136.64 121.13 136.55C121.34 136.42 121.51 136.21 121.58 135.96L123.08 135.96C123.46 135.96 123.81 135.81 124.08 135.53C124.34 135.25 124.49 134.88 124.49 134.48C124.53 134.28 124.52 134.07 124.48 133.86C124.44 133.66 124.36 133.46 124.24 133.29C124.12 133.12 123.98 132.98 123.81 132.87C123.63 132.76 123.45 132.69 123.25 132.66Z" fill="#FFFFFF" fill-opacity="1.000000" fill-rule="nonzero"/>
	<path id="Vector" d="M423 206.45L422.74 206.24C422.74 206.24 422.74 206.24 422.74 206.07C422.73 205.46 422.49 204.89 422.09 204.46C421.84 204.22 421.57 204.03 421.27 203.87L420.78 203.7L420.58 203.7C420.33 203.61 420.09 203.48 419.87 203.32C419.62 203.17 419.36 203.05 419.08 202.98L418.89 202.98C418.64 202.91 418.38 202.91 418.13 202.98C417.93 203.01 417.73 203.09 417.56 203.21C417.38 203.32 417.23 203.48 417.12 203.67C417.03 203.87 416.96 204.07 416.89 204.28C416.81 204.67 416.81 205.07 416.89 205.45C416.77 205.83 416.77 206.24 416.89 206.62C417.13 207.02 417.44 207.37 417.81 207.63C418.18 207.89 418.61 208.06 419.05 208.13L419.34 208.13L419.64 208.34L419.87 208.34L420.45 208.96C420.68 209.21 420.92 209.46 421.17 209.68L421.86 210.23C422.19 210.45 422.58 210.56 422.97 210.54L422.48 210.54C422.69 210.67 422.93 210.74 423.18 210.74C423.43 210.74 423.67 210.67 423.88 210.54C424.1 210.35 424.26 210.1 424.35 209.82C424.43 209.54 424.44 209.24 424.37 208.96C424.31 208.46 424.16 207.99 423.93 207.56C423.69 207.13 423.38 206.75 423 206.45Z" fill="#FFFFFF" fill-opacity="1.000000" fill-rule="nonzero"/>
	<path id="Vector" d="M401.87 241.66L401.87 241.01C401.86 240.75 401.8 240.5 401.68 240.28C401.57 240.05 401.41 239.86 401.22 239.7C400.96 239.48 400.63 239.36 400.3 239.36C399.96 239.37 399.64 239.51 399.39 239.74C399.19 239.88 399.02 240.06 398.91 240.29C398.79 240.51 398.73 240.76 398.73 241.01C398.57 241.15 398.43 241.33 398.33 241.53C398.23 241.73 398.17 241.95 398.15 242.18C398.09 243.08 398.2 243.99 398.47 244.86C398.47 245.2 398.67 245.51 398.73 245.82C398.72 245.94 398.72 246.07 398.73 246.2L398.73 246.81C398.75 247.05 398.8 247.28 398.9 247.5C399.01 247.71 399.15 247.9 399.32 248.05C399.58 248.3 399.92 248.45 400.27 248.46C400.27 248.46 400.46 248.46 400.6 248.46L400.99 248.46L401.18 248.46C401.53 248.15 401.75 247.71 401.8 247.23C401.79 247.11 401.79 247 401.8 246.88L401.8 246.61C401.79 246.41 401.79 246.22 401.8 246.02C401.8 245.47 401.8 244.96 401.8 244.44L401.8 243.14C401.95 242.66 401.97 242.15 401.87 241.66Z" fill="#FFFFFF" fill-opacity="1.000000" fill-rule="nonzero"/>
	<path id="Vector" d="M382.77 237.84C382.79 237.75 382.79 237.66 382.77 237.57C382.8 237.42 382.8 237.27 382.77 237.12C382.64 236.9 382.47 236.7 382.28 236.54L381.95 236.26C381.76 236.16 381.55 236.09 381.33 236.06L380.88 236.06C380.66 236.09 380.45 236.16 380.26 236.26C380.05 236.39 379.88 236.55 379.73 236.74C379.64 236.86 379.57 237 379.54 237.16C379.55 237.24 379.55 237.32 379.54 237.4C379.54 237.4 379.21 237.6 379.11 237.74C378.95 238.02 378.82 238.32 378.72 238.63L378.72 238.81C378.64 238.96 378.58 239.12 378.53 239.29C378.44 239.58 378.38 239.88 378.33 240.18C378.33 240.35 378.33 240.52 378.33 240.69C378.27 240.93 378.27 241.18 378.33 241.42C378.41 241.65 378.54 241.87 378.72 242.03L379.08 242.31C379.28 242.44 379.5 242.52 379.73 242.55L380.22 242.55C380.46 242.52 380.68 242.44 380.88 242.31C381.21 242.07 381.47 241.74 381.63 241.35C381.85 240.87 382.1 240.42 382.38 239.97C382.57 239.61 382.72 239.23 382.84 238.84C382.85 238.71 382.85 238.59 382.84 238.46C382.87 238.32 382.87 238.16 382.84 238.02L382.77 237.84Z" fill="#FFFFFF" fill-opacity="1.000000" fill-rule="nonzero"/>
	<path id="Vector" d="" fill="#FFFFFF" fill-opacity="1.000000" fill-rule="nonzero"/>
	<path id="Vector" d="M363.24 259.14C363.65 258.71 363.92 258.14 363.99 257.52C363.98 257.19 363.85 256.88 363.62 256.65C363.4 256.42 363.09 256.29 362.78 256.29C362.06 256.29 361.37 256.97 360.88 257.45L359.84 258.59C359.51 258.97 359.15 259.38 358.79 259.72C358.43 260.06 358.04 260.48 357.65 260.85C357.37 261.2 357.21 261.64 357.21 262.09C357.21 262.54 357.37 262.98 357.65 263.33C357.91 263.7 358.29 263.96 358.72 264.06C359.14 264.15 359.59 264.07 359.97 263.84L361.37 262.88C361.74 262.63 362.08 262.35 362.39 262.02L362.88 261.37C363.06 261.07 363.15 260.73 363.14 260.37C363.15 260.25 363.15 260.12 363.14 260L363.14 259.65C363.29 259.38 363.47 259.11 363.66 258.86L363.24 259.14Z" fill="#FFFFFF" fill-opacity="1.000000" fill-rule="nonzero"/>
	<path id="Vector" d="M358.27 212.76C358.15 211.79 357.97 210.82 357.75 209.87L357.55 208.57C357.53 208.18 357.53 207.79 357.55 207.4C357.52 206.82 357.52 206.23 357.55 205.65C357.54 205.37 357.45 205.09 357.31 204.85C357.17 204.61 356.97 204.42 356.74 204.27C356.74 203.69 356.44 203.14 356.35 202.56C356.25 201.97 354.61 201.56 354.48 202.56C354.35 203.7 354.35 204.85 354.48 205.99C354.43 206.96 354.43 207.94 354.48 208.91C354.45 210.25 354.77 211.57 355.4 212.72C355.58 213.35 355.68 214 355.69 214.65C355.69 215.06 355.85 215.45 356.12 215.74C356.4 216.03 356.77 216.19 357.16 216.19C357.55 216.19 357.93 216.03 358.2 215.74C358.48 215.45 358.63 215.06 358.63 214.65C358.59 214 358.47 213.37 358.27 212.76Z" fill="#FFFFFF" fill-opacity="1.000000" fill-rule="nonzero"/>
	<path id="Vector" d="M341.62 210.63C341.51 210.39 341.34 210.19 341.12 210.05C340.91 209.91 340.66 209.84 340.41 209.84L340.08 209.84L339.37 209.6L339.04 209.6L338.32 209.19L336.72 208.3L336 207.88L335.41 207.61C335.41 207.61 334.96 207.44 335.22 207.61C335.05 207.58 334.87 207.58 334.7 207.61L333.68 206.78C333.53 206.7 333.35 206.65 333.17 206.66C332.99 206.66 332.81 206.71 332.66 206.81C332.51 206.91 332.38 207.04 332.29 207.21C332.2 207.37 332.15 207.56 332.15 207.75C331.94 207.59 331.7 207.49 331.44 207.44C331.19 207.39 330.93 207.4 330.68 207.47C329.21 207.78 329.08 209.39 329.05 210.67C329.01 211.94 329.05 214.1 328.88 215.65C328.87 216.05 328.97 216.46 329.18 216.8C329.39 217.14 329.69 217.4 330.05 217.56C330.41 217.71 330.81 217.74 331.18 217.64C331.56 217.54 331.9 217.33 332.15 217.02C332.37 216.76 332.57 216.47 332.74 216.16C332.92 215.94 333.04 215.66 333.1 215.37C333.3 214.72 333.42 214.03 333.46 213.35C333.46 212.42 333.46 211.49 333.46 210.53C333.25 210.3 333.09 210.02 333.01 209.71C332.92 209.41 332.91 209.09 332.97 208.78L333.59 209.43C333.68 209.72 333.88 209.97 334.14 210.12L334.63 210.49C334.74 210.63 334.86 210.75 334.99 210.87C335.96 211.83 337.17 212.45 338.48 212.66C338.6 212.68 338.72 212.68 338.84 212.66C339.2 212.66 339.53 212.83 339.89 212.86C340.21 212.92 340.54 212.9 340.86 212.82C341.17 212.73 341.47 212.57 341.72 212.35C341.83 212.24 341.93 212.1 341.99 211.95C342.05 211.8 342.07 211.63 342.06 211.47C342.05 211.3 342.01 211.14 341.93 211C341.85 210.85 341.75 210.73 341.62 210.63Z" fill="#FFFFFF" fill-opacity="1.000000" fill-rule="nonzero"/>
	<path id="Vector" d="M295.25 249.97C295.2 249.84 295.13 249.72 295.03 249.63C294.94 249.53 294.82 249.46 294.7 249.42C294.61 249.22 294.49 249.05 294.34 248.91C294.09 248.68 293.8 248.5 293.49 248.39C293.24 248.31 292.97 248.29 292.72 248.32C292.46 248.36 292.21 248.45 291.99 248.6C291.1 249.08 290.43 249.92 290.12 250.93C289.93 251.41 289.8 251.89 289.63 252.37C289.34 252.56 289.1 252.83 288.95 253.15C288.8 253.47 288.74 253.84 288.79 254.19C288.59 254.63 288.48 255.09 288.46 255.57L288.46 256.12C288.52 256.38 288.64 256.61 288.82 256.81C289.07 257.16 289.43 257.43 289.83 257.56C290.25 257.67 290.69 257.63 291.09 257.46C291.49 257.28 291.82 256.98 292.05 256.6L292.41 256.05C292.42 255.91 292.42 255.77 292.41 255.64C292.67 255.28 292.91 254.9 293.13 254.5C293.49 253.8 293.79 253.06 294.04 252.31C294.21 251.89 294.4 251.49 294.63 251.1L294.83 251.1C295.01 250.99 295.15 250.82 295.22 250.61C295.3 250.41 295.31 250.18 295.25 249.97Z" fill="#FFFFFF" fill-opacity="1.000000" fill-rule="nonzero"/>
	<path id="Vector" d="M296.26 216.54C295.15 216.3 294.04 215.92 292.99 215.61C292.35 215.43 291.7 215.29 291.04 215.2L290.15 215.2C289.85 215.18 289.54 215.25 289.26 215.39C288.99 215.54 288.76 215.76 288.59 216.03C288.55 216.19 288.55 216.37 288.59 216.54C288.25 216.59 287.94 216.77 287.72 217.04C287.5 217.31 287.37 217.66 287.38 218.02C287.39 218.42 287.54 218.81 287.82 219.1C288.09 219.39 288.46 219.55 288.85 219.56C290.06 219.56 291.26 219.56 292.47 219.56L296.06 219.56C296.43 219.57 296.79 219.43 297.06 219.18C297.34 218.92 297.52 218.57 297.57 218.19C297.59 217.79 297.46 217.4 297.22 217.1C296.98 216.79 296.64 216.59 296.26 216.54Z" fill="#FFFFFF" fill-opacity="1.000000" fill-rule="nonzero"/>
	<path id="Vector" d="M299.88 225.69C300.02 225.51 300.1 225.28 300.1 225.05C300.1 224.82 300.02 224.6 299.88 224.42C299.74 224.25 299.55 224.12 299.34 224.08C299.12 224.03 298.9 224.07 298.71 224.17L298.51 224.17L298.18 224.17C297.82 224.11 297.45 224.19 297.14 224.4C296.83 224.61 296.61 224.93 296.52 225.31C296.52 225.31 296.52 225.58 296.52 225.72C296.47 226.1 296.47 226.48 296.52 226.85C296.52 227.23 296.52 227.61 296.52 227.95C296.26 229.09 295.44 230.15 296.22 231.39C296.35 231.59 296.51 231.76 296.7 231.89C296.89 232.02 297.11 232.11 297.34 232.14C297.55 232.17 297.77 232.15 297.98 232.08C298.19 232.01 298.38 231.89 298.54 231.73C298.66 231.65 298.76 231.54 298.84 231.42C299.03 231.3 299.19 231.12 299.3 230.92C299.41 230.72 299.48 230.49 299.49 230.25L299.49 229.81C299.65 229.35 299.76 228.88 299.82 228.4C299.88 227.71 299.88 227.02 299.82 226.34L299.82 226.03L299.88 225.69Z" fill="#FFFFFF" fill-opacity="1.000000" fill-rule="nonzero"/>
	<path id="Vector" d="" fill="#FFFFFF" fill-opacity="1.000000" fill-rule="nonzero"/>
	<path id="Vector" d="M351.22 177.13C350.52 176.97 349.8 176.97 349.1 177.13L348.44 177.4C348.11 177.21 347.73 177.13 347.36 177.18C346.98 177.23 346.63 177.4 346.35 177.68L346.06 177.88L345.37 178.29L345.21 178.29L345.01 178.29L344.23 178.57C343.87 178.67 343.55 178.88 343.3 179.18C343.06 179.48 342.9 179.84 342.85 180.23C342.8 180.62 342.86 181.01 343.03 181.37C343.19 181.72 343.45 182.01 343.77 182.21C344.22 182.44 344.73 182.5 345.21 182.38C345.35 182.4 345.49 182.4 345.63 182.38L346.03 182.21C346.5 182.12 346.95 181.95 347.37 181.69C347.78 181.45 348.15 181.12 348.44 180.73L349 180.29L349.72 179.74L350.08 179.53L350.24 179.53L351.12 179.26C351.34 179.2 351.53 179.07 351.67 178.88C351.81 178.69 351.88 178.46 351.87 178.22C351.89 177.99 351.84 177.76 351.72 177.56C351.6 177.36 351.43 177.21 351.22 177.13Z" fill="#FFFFFF" fill-opacity="1.000000" fill-rule="nonzero"/>
	<path id="Vector" d="M342.73 122.68C342.54 122.53 342.32 122.44 342.08 122.41C341.77 122.3 341.44 122.3 341.13 122.41C340.42 122.79 339.81 123.37 339.37 124.09C339.08 124.46 338.82 124.85 338.59 125.26L338.23 125.26C338 125.29 337.78 125.38 337.59 125.52C337.4 125.66 337.23 125.84 337.12 126.05C337.03 126.22 336.95 126.41 336.89 126.6C336.66 127.07 336.59 127.62 336.69 128.14C336.77 128.5 336.89 128.85 337.05 129.17C337.18 129.41 337.37 129.62 337.59 129.77C337.81 129.93 338.06 130.03 338.32 130.07C338.56 130.18 338.82 130.24 339.08 130.24C339.34 130.24 339.59 130.18 339.83 130.07C339.89 129.97 339.97 129.87 340.06 129.79C340.91 129.17 341.62 128.35 342.11 127.39C342.63 126.45 343.06 125.48 343.42 124.47C343.5 124.2 343.5 123.91 343.42 123.64C343.38 123.44 343.3 123.25 343.18 123.08C343.06 122.91 342.91 122.78 342.73 122.68Z" fill="#FFFFFF" fill-opacity="1.000000" fill-rule="nonzero"/>
	<path id="Vector" d="M339.24 124.39L339.24 124.22L339.24 124.39Z" fill="#FFFFFF" fill-opacity="1.000000" fill-rule="nonzero"/>
	<path id="Vector" d="M377.84 71.97C377.96 71.65 378.01 71.3 377.98 70.95C377.95 70.61 377.85 70.27 377.67 69.98C377.52 69.77 377.31 69.62 377.06 69.56C376.81 69.5 376.56 69.54 376.34 69.67C376.12 69.67 375.9 69.73 375.72 69.84C375.6 69.73 375.48 69.62 375.36 69.53C375.07 69.36 374.75 69.3 374.43 69.34C374.11 69.39 373.81 69.55 373.58 69.79C373.35 70.03 373.21 70.35 373.17 70.69C373.13 71.03 373.2 71.37 373.36 71.66L373.63 72.07C373.61 72.15 373.61 72.23 373.63 72.31L373.63 72.52L373.63 72.73C373.61 72.86 373.61 73 373.63 73.14C373.61 73.29 373.61 73.44 373.63 73.58C373.59 74.56 373.72 75.54 374.02 76.47C374.11 76.66 374.23 76.84 374.38 76.99C374.38 77.88 374.47 78.76 374.67 79.63C374.78 80.05 374.91 80.46 375.06 80.87C375.28 81.4 375.64 81.86 376.11 82.17C376.76 82.72 377.61 81.97 377.64 81.24C377.71 80.78 377.71 80.3 377.64 79.84C377.61 79.53 377.61 79.22 377.64 78.91C377.59 78.07 377.59 77.24 377.64 76.4C377.66 76.29 377.66 76.17 377.64 76.06L377.64 75.89C377.94 74.61 378.01 73.28 377.84 71.97Z" fill="#FFFFFF" fill-opacity="1.000000" fill-rule="nonzero"/>
	<path id="Vector" d="M396.12 92.07C395.99 91.63 395.75 91.24 395.44 90.92C395.13 90.6 394.74 90.37 394.33 90.25C393.91 90.16 393.47 90.17 393.06 90.28C392.65 90.4 392.27 90.61 391.94 90.9C391.07 91.58 390.35 92.45 389.82 93.44C389.59 93.85 389.43 94.27 389.23 94.68L388.81 95.71L388.81 96.02C388.71 96.37 388.71 96.74 388.81 97.08C388.93 97.5 389.16 97.88 389.49 98.15C389.83 98.43 390.24 98.59 390.67 98.59C391.18 98.59 391.68 98.36 392.04 97.98C392.23 97.75 392.4 97.49 392.53 97.22L392.73 96.84L393.51 96.26C393.81 96.16 394.09 96.02 394.36 95.85C394.72 95.63 395.06 95.36 395.37 95.06C395.69 94.75 395.97 94.39 396.19 93.99C396.38 93.36 396.35 92.68 396.12 92.07Z" fill="#FFFFFF" fill-opacity="1.000000" fill-rule="nonzero"/>
	<path id="Vector" d="M398.41 148.15C398.04 147.91 397.62 147.79 397.18 147.79C396.75 147.79 396.33 147.91 395.96 148.15C395.75 148.3 395.55 148.48 395.37 148.67C395.05 148.65 394.72 148.73 394.43 148.89C394.14 149.05 393.9 149.3 393.74 149.59C393.35 150.21 392.96 150.83 392.6 151.45C392.24 152.07 392.24 152.34 392.04 152.82C391.94 153.01 391.87 153.2 391.81 153.41C391.8 153.53 391.8 153.66 391.81 153.78C391.75 154.02 391.73 154.27 391.76 154.52C391.78 154.77 391.86 155.01 391.97 155.22C392.09 155.44 392.24 155.63 392.43 155.78C392.61 155.94 392.83 156.05 393.05 156.12C393.32 156.19 393.59 156.2 393.86 156.14C394.13 156.08 394.37 155.95 394.59 155.78C394.59 155.78 394.82 155.78 394.91 155.78C395.19 155.56 395.44 155.32 395.67 155.06C395.81 154.87 395.93 154.66 396.02 154.44C396.24 154 396.42 153.56 396.58 153.1C396.84 152.41 397.04 151.76 397.27 151.07C397.3 150.89 397.3 150.7 397.27 150.52L397.49 150.28L397.69 150.28C397.96 150.38 398.25 150.37 398.51 150.24C398.77 150.11 398.97 149.88 399.06 149.59C399.16 149.31 399.14 149 399.02 148.73C398.9 148.46 398.68 148.25 398.41 148.15Z" fill="#FFFFFF" fill-opacity="1.000000" fill-rule="nonzero"/>
	<path id="Vector" d="M392.07 208.24C392.07 207.73 392.07 207.21 392.07 206.66C392.06 206.44 392.06 206.23 392.07 206.01C392.19 205.7 392.19 205.36 392.07 205.05C392.07 205.05 392.07 205.05 392.07 204.84C392.04 204.55 391.98 204.26 391.88 203.98C391.89 203.77 391.89 203.55 391.88 203.33C391.88 202.95 391.74 202.59 391.49 202.32C391.24 202.05 390.9 201.9 390.54 201.89C390.18 201.9 389.83 202.05 389.58 202.32C389.32 202.59 389.18 202.95 389.17 203.33C389.17 204.19 389.17 205.01 389.17 205.87C389.12 206.75 389.12 207.64 389.17 208.52C389.18 208.85 389.29 209.17 389.48 209.43C389.66 209.7 389.92 209.91 390.21 210.03C390.31 210.26 390.46 210.45 390.66 210.59C390.85 210.73 391.08 210.81 391.32 210.82C391.66 210.81 391.98 210.67 392.21 210.42C392.45 210.17 392.59 209.83 392.6 209.48C392.49 209.04 392.31 208.62 392.07 208.24Z" fill="#FFFFFF" fill-opacity="1.000000" fill-rule="nonzero"/>
	<path id="Vector" d="M290.54 544.72C290.49 544.5 290.39 544.29 290.26 544.1C290.12 543.92 289.95 543.77 289.76 543.65C289.36 543.43 288.9 543.37 288.46 543.48C288.22 543.54 287.99 543.64 287.77 543.76C287.64 543.82 287.52 543.9 287.41 544C286.97 544.31 286.56 544.66 286.17 545.03L285.68 545.51C285.35 545.63 285.04 545.83 284.8 546.09C284.63 546.32 284.5 546.58 284.41 546.85C284.03 547.22 283.71 547.65 283.46 548.12C283.43 548.3 283.43 548.49 283.46 548.67C283.48 549.04 283.6 549.4 283.82 549.7C284.02 549.97 284.3 550.16 284.62 550.26C284.94 550.35 285.27 550.34 285.58 550.22C285.71 550.17 285.83 550.1 285.94 550.01C286.14 550.07 286.35 550.08 286.56 550.05C286.77 550.02 286.97 549.95 287.15 549.84C287.95 549.32 288.7 548.74 289.4 548.09C289.8 547.71 290.14 547.27 290.41 546.78C290.58 546.51 290.7 546.2 290.77 545.89C290.77 545.49 290.69 545.09 290.54 544.72Z" fill="#FFFFFF" fill-opacity="1.000000" fill-rule="nonzero"/>
	<path id="Vector" d="M285.55 550.35L285.32 550.35L285.55 550.35Z" fill="#FFFFFF" fill-opacity="1.000000" fill-rule="nonzero"/>
	<path id="Vector" d="M236.43 561.78C236.43 560.48 236.2 559.21 236.17 557.93C236.16 557.57 236.03 557.22 235.81 556.94C235.74 556.7 235.59 556.49 235.4 556.34C235.21 556.2 234.97 556.12 234.74 556.11C234.52 556.12 234.32 556.19 234.14 556.32C233.97 556.45 233.83 556.63 233.76 556.84C233.61 556.97 233.49 557.14 233.41 557.33C233.33 557.52 233.29 557.73 233.3 557.93C233.3 559 233.3 560.1 233.3 561.2C233.27 561.74 233.27 562.27 233.3 562.81C233.3 562.81 233.3 562.98 233.3 563.05C233.3 563.12 233.3 563.91 233.3 564.32C233.28 564.39 233.28 564.46 233.3 564.53C233.15 564.68 233.05 564.86 232.99 565.07C232.94 565.27 232.93 565.49 232.98 565.69C233.03 565.9 233.13 566.09 233.27 566.24C233.42 566.39 233.59 566.5 233.79 566.56C234.05 566.65 234.33 566.71 234.6 566.73C234.84 566.72 235.07 566.65 235.28 566.52C235.48 566.4 235.66 566.22 235.78 566.01C236.41 564.7 236.63 563.23 236.43 561.78Z" fill="#FFFFFF" fill-opacity="1.000000" fill-rule="nonzero"/>
	<path id="Vector" d="M205.93 618.95C205.85 618.71 205.7 618.49 205.52 618.31C205.33 618.14 205.1 618.02 204.86 617.96C204.44 617.84 204 617.84 203.58 617.96C203.25 618.06 202.92 618.2 202.6 618.37C202.08 618.67 201.58 619 201.1 619.37C200.68 619.67 200.28 620.02 199.89 620.36C199 620.69 198.2 621.26 197.57 622.01C197.42 622.17 197.29 622.36 197.21 622.58C197.12 622.79 197.08 623.02 197.08 623.25C197.07 623.64 197.2 624.02 197.44 624.31C197.69 624.64 198.03 624.87 198.42 624.96C198.81 625.04 199.21 624.99 199.57 624.79L199.96 624.79C200.25 624.87 200.57 624.85 200.85 624.75C201.14 624.64 201.4 624.46 201.59 624.21C201.78 623.94 201.89 623.62 201.92 623.28C203.48 622.89 204.86 621.89 205.77 620.5C205.9 620.27 205.99 620.01 206.02 619.75C206.05 619.48 206.02 619.21 205.93 618.95Z" fill="#FFFFFF" fill-opacity="1.000000" fill-rule="nonzero"/>
	<path id="Vector" d="M278.04 605.14C278.09 605.01 278.09 604.85 278.03 604.72C277.98 604.58 277.87 604.48 277.74 604.42C277.61 604.37 277.47 604.37 277.34 604.43C277.21 604.49 277.11 604.59 277.06 604.73C276.83 604.52 276.54 604.4 276.24 604.39L275.82 604.39L275.62 604.39C275.36 604.4 275.12 604.47 274.89 604.6C274.67 604.73 274.48 604.92 274.35 605.14C273.83 605.97 273.56 606.94 273.56 607.93C273.56 608.41 273.56 608.89 273.56 609.37C273.58 609.49 273.58 609.62 273.56 609.75C273.43 610.04 273.28 610.33 273.1 610.61C273.11 610.7 273.11 610.79 273.1 610.88C272.77 611.09 272.5 611.38 272.32 611.74C272.16 612.04 272.08 612.39 272.08 612.74C272.08 613.08 272.16 613.43 272.32 613.73C272.44 613.95 272.61 614.14 272.82 614.29C273.02 614.43 273.26 614.52 273.5 614.55C273.74 614.59 273.99 614.56 274.22 614.48C274.45 614.4 274.66 614.26 274.84 614.08C275.13 613.82 275.38 613.52 275.59 613.18C275.76 613.02 275.89 612.8 275.95 612.56C276.2 612.09 276.42 611.6 276.6 611.09C277.23 610.3 277.68 609.37 277.94 608.37C278.1 607.58 278.1 606.76 277.94 605.97C277.77 605.8 277.94 605.49 278.04 605.14Z" fill="#FFFFFF" fill-opacity="1.000000" fill-rule="nonzero"/>
	<path id="Vector" d="M283.85 491.96L282.97 491.96C282.89 491.72 282.76 491.5 282.59 491.31C282.42 491.13 282.22 490.99 281.99 490.9L281.04 490.72C280.75 490.56 280.42 490.45 280.08 490.41C279.75 490.38 279.41 490.41 279.08 490.52C277.45 490.52 275.82 490.79 274.18 490.79C273.81 490.81 273.46 490.98 273.2 491.26C272.94 491.54 272.79 491.91 272.78 492.3C272.78 492.7 272.93 493.08 273.19 493.36C273.45 493.64 273.81 493.81 274.18 493.82L274.9 493.82C275.46 495.74 277.88 495.95 279.48 495.84C281.09 495.71 282.7 495.45 284.28 495.05C284.62 494.94 284.91 494.71 285.1 494.39C285.3 494.07 285.38 493.69 285.32 493.32C285.27 492.94 285.1 492.6 284.83 492.35C284.56 492.1 284.21 491.96 283.85 491.96Z" fill="#FFFFFF" fill-opacity="1.000000" fill-rule="nonzero"/>
	<path id="Vector" d="M382.57 514.36C381.81 513.47 380.84 512.79 379.77 512.4L379.15 511.95L378.79 511.95C378.63 511.84 378.47 511.75 378.3 511.68L377.9 511.44C377.41 511.06 376.84 510.79 376.24 510.65C375.99 510.59 375.74 510.59 375.49 510.65C375.29 510.58 375.07 510.57 374.87 510.62C374.66 510.67 374.47 510.77 374.31 510.92C374.11 511.14 373.99 511.43 373.95 511.73C373.92 512.03 373.98 512.34 374.12 512.6C374.6 513.37 375.33 513.93 376.17 514.18L376.37 514.18L376.99 514.49C377.21 514.67 377.45 514.82 377.71 514.94L378.36 515.18L378.79 515.56C379.44 516.13 380.18 516.59 380.97 516.93C381.3 517.04 381.66 517.03 381.98 516.9C382.3 516.78 382.57 516.53 382.74 516.22C382.92 515.9 382.98 515.54 382.93 515.18C382.87 514.82 382.7 514.49 382.44 514.25L382.57 514.36Z" fill="#FFFFFF" fill-opacity="1.000000" fill-rule="nonzero"/>
	<path id="Vector" d="M404.81 458.2C404.8 457.17 404.56 456.15 404.09 455.24C403.95 455.01 403.74 454.82 403.5 454.69C403.26 454.57 402.99 454.53 402.72 454.56C402.45 454.59 402.2 454.71 402 454.89C401.8 455.08 401.65 455.32 401.58 455.59C401.27 456.52 401.05 457.49 400.92 458.47L400.92 458.89C400.92 459.33 400.92 459.33 400.92 459.78C400.92 460.4 400.92 460.98 400.92 461.56C400.92 461.86 401.01 462.15 401.16 462.39C401.32 462.64 401.54 462.83 401.81 462.94C402.06 463.07 402.34 463.11 402.62 463.05C402.9 463 403.15 462.85 403.34 462.63C403.72 462.17 404.01 461.63 404.19 461.05C404.27 460.82 404.33 460.58 404.35 460.33C404.47 460.22 404.57 460.09 404.65 459.95C404.8 459.38 404.85 458.79 404.81 458.2Z" fill="#FFFFFF" fill-opacity="1.000000" fill-rule="nonzero"/>
	<path id="Vector" d="M367.62 542.86C367.7 542.45 367.76 542.02 367.78 541.59C367.83 540.98 367.83 540.36 367.78 539.74C367.78 539.36 367.78 538.98 367.78 538.61L367.78 537.99C367.78 537.57 367.62 537.17 367.34 536.87C367.06 536.57 366.68 536.41 366.28 536.41C365.88 536.41 365.5 536.57 365.22 536.87C364.93 537.17 364.78 537.57 364.78 537.99C364.78 539.12 364.78 540.25 364.78 541.42C364.67 542.56 364.67 543.71 364.78 544.86L364.78 545.1C364.8 545.47 364.96 545.82 365.21 546.08C365.47 546.34 365.8 546.49 366.16 546.51C366.51 546.53 366.86 546.42 367.14 546.19C367.42 545.96 367.61 545.64 367.68 545.27L367.68 544.99C367.74 544.28 367.72 543.57 367.62 542.86Z" fill="#FFFFFF" fill-opacity="1.000000" fill-rule="nonzero"/>
	<path id="Vector" d="" fill="#FFFFFF" fill-opacity="1.000000" fill-rule="nonzero"/>
	<path id="Vector" d="" fill="#FFFFFF" fill-opacity="1.000000" fill-rule="nonzero"/>
	<path id="Vector" d="M436.75 481.03C436.84 480.84 436.89 480.63 436.89 480.41C436.89 480.2 436.84 479.99 436.75 479.79C436.75 479.79 436.75 479.48 436.52 479.35L436.52 479.11L436.33 478.42C436.33 477.9 436.1 477.39 435.93 476.87C435.85 476.37 435.67 475.89 435.4 475.46C435.13 475.04 434.78 474.68 434.37 474.4L434.2 474.4L434.2 474.19C434.09 474 433.93 473.84 433.74 473.74C433.55 473.63 433.34 473.57 433.13 473.57C432.91 473.57 432.7 473.63 432.51 473.74C432.32 473.84 432.16 474 432.05 474.19C431.91 474.38 431.8 474.59 431.72 474.81C431.66 475.14 431.66 475.48 431.72 475.81C431.81 476.18 431.95 476.54 432.15 476.87L432.9 477.9L432.9 478.08C432.97 478.2 433.04 478.31 433.13 478.42L433.13 478.69C433.08 479.25 433.08 479.82 433.13 480.38C433.2 480.8 433.35 481.21 433.55 481.58C433.56 481.9 433.65 482.21 433.81 482.47C433.81 482.47 434.27 483.09 433.97 482.68C434.15 482.98 434.42 483.2 434.75 483.29C435.07 483.38 435.41 483.33 435.71 483.16C436.06 482.95 436.34 482.62 436.5 482.22C436.65 481.82 436.67 481.37 436.55 480.96L436.75 481.03Z" fill="#FFFFFF" fill-opacity="1.000000" fill-rule="nonzero"/>
	<path id="Vector" d="" fill="#FFFFFF" fill-opacity="1.000000" fill-rule="nonzero"/>
	<path id="Vector" d="M396.09 561.83C396.04 561.66 395.96 561.5 395.84 561.37C395.73 561.23 395.59 561.12 395.44 561.04C395.17 560.96 394.89 560.96 394.62 561.04C394.36 561.09 394.12 561.22 393.94 561.42C393.63 561.85 393.37 562.31 393.15 562.8C392.98 563 392.83 563.22 392.7 563.45L391.91 564.2C391.81 564.35 391.74 564.52 391.7 564.7C391.67 564.87 391.67 565.06 391.72 565.23L391.52 565.54C391.29 565.85 391.06 566.13 390.87 566.44C390.67 566.76 390.51 567.1 390.41 567.47C390.35 567.75 390.38 568.05 390.48 568.32C390.59 568.59 390.77 568.82 391 568.98C391.24 569.11 391.51 569.16 391.78 569.12C392.05 569.08 392.3 568.96 392.5 568.77L392.79 568.39L392.79 568.22C392.79 568.22 392.79 568.22 392.96 568.22C393.12 568.22 393.45 567.57 393.68 567.26C393.9 566.95 393.97 566.81 394.13 566.57L394.36 566.23C394.75 565.68 395.18 565.13 395.54 564.55C395.92 563.89 396.16 563.15 396.26 562.38C396.23 562.19 396.18 562.01 396.09 561.83Z" fill="#FFFFFF" fill-opacity="1.000000" fill-rule="nonzero"/>
	<path id="Vector" d="M333.29 500.06C333.2 499.83 333.05 499.63 332.85 499.49C332.65 499.35 332.42 499.27 332.18 499.27C331.62 499.23 331.06 499.42 330.61 499.78L330.38 499.96L330.22 499.96C329.76 500.2 329.34 500.51 328.92 500.78L328.49 500.78C327.91 500.86 327.37 501.08 326.89 501.43C326.68 501.59 326.51 501.79 326.37 502.02C326.25 502.04 326.13 502.04 326.01 502.02C325.7 502.02 325.39 502.11 325.13 502.29C324.94 502.45 324.79 502.66 324.71 502.9C324.63 503.13 324.6 503.39 324.65 503.64C324.7 503.89 324.81 504.12 324.98 504.31C325.14 504.49 325.35 504.63 325.58 504.7C325.87 504.73 326.15 504.73 326.43 504.7C327.49 504.66 328.52 504.39 329.47 503.91C330.42 503.5 331.28 502.88 331.99 502.09C332.33 501.82 332.65 501.53 332.96 501.23C333.11 501.07 333.21 500.89 333.27 500.69C333.32 500.48 333.33 500.27 333.29 500.06Z" fill="#FFFFFF" fill-opacity="1.000000" fill-rule="nonzero"/>
	<path id="Vector" d="M344.63 493.26C344.53 492.85 344.28 492.51 343.94 492.3C343.75 492.21 343.55 492.17 343.34 492.17C343.13 492.17 342.93 492.21 342.74 492.3C342.36 492.42 342.04 492.68 341.82 493.02C341.81 493.15 341.81 493.29 341.82 493.43C341.82 493.43 341.82 493.6 341.82 493.67C341.8 493.9 341.8 494.13 341.82 494.36L341.82 493.91C341.73 494.35 341.59 494.78 341.4 495.18C341.28 495.53 341.22 495.88 341.2 496.25C341.21 496.73 341.36 497.19 341.62 497.59C341.76 497.81 341.96 497.99 342.19 498.11C342.42 498.22 342.68 498.27 342.93 498.24C343.23 498.2 343.5 498.05 343.71 497.83C343.96 497.74 344.18 497.58 344.33 497.37C344.49 497.15 344.58 496.89 344.6 496.62L344.6 495.77C344.78 495.38 344.88 494.95 344.88 494.52C344.89 494.08 344.8 493.65 344.63 493.26Z" fill="#FFFFFF" fill-opacity="1.000000" fill-rule="nonzero"/>
	<path id="Vector" d="M301.35 456.37C301.14 456.32 300.92 456.32 300.7 456.37C300.65 456.34 300.6 456.33 300.54 456.33C300.48 456.33 300.43 456.34 300.38 456.37L299.59 456.37C299.61 456.29 299.61 456.21 299.59 456.13C299.55 455.82 299.4 455.53 299.17 455.32C298.94 455.12 298.65 455 298.35 454.99C297.54 454.98 296.73 455.11 295.97 455.41L295.22 455.61L294.73 455.61L294.11 455.61C293.79 455.61 293.5 455.74 293.28 455.98C293.05 456.21 292.93 456.52 292.93 456.85C292.93 457.18 293.05 457.49 293.28 457.72C293.5 457.96 293.79 458.09 294.11 458.09L294.73 458.09L294.89 458.09C296.1 458.2 297.33 458 298.45 457.5L299.95 457.5L299.95 457.85L299.59 458.6C299.06 459.34 298.69 460.2 298.51 461.11C298.5 461.29 298.5 461.48 298.51 461.66C298.49 461.84 298.53 462.02 298.63 462.17C298.73 462.32 298.87 462.43 299.04 462.48L299.04 462.69C298.62 463.45 298.45 464.33 298.55 465.2C298.59 465.36 298.66 465.5 298.76 465.63C298.85 465.76 298.97 465.87 299.11 465.95C299.25 466.03 299.4 466.08 299.55 466.1C299.71 466.12 299.87 466.1 300.02 466.06C300.26 465.97 300.47 465.81 300.62 465.59C300.77 465.38 300.86 465.12 300.87 464.85C300.88 464.77 300.88 464.69 300.87 464.61C300.87 464.61 300.87 464.61 300.87 464.41L300.87 464.2L301.06 463.82C301.39 463.23 301.65 462.59 301.85 461.93C302.27 460.62 302.47 459.23 302.43 457.85C302.47 457.67 302.47 457.49 302.44 457.32C302.4 457.14 302.33 456.98 302.23 456.84C302.12 456.7 301.99 456.58 301.84 456.5C301.69 456.42 301.53 456.37 301.35 456.37Z" fill="#FFFFFF" fill-opacity="1.000000" fill-rule="nonzero"/>
	<path id="Vector" d="M319.06 450.52L318.89 450.52L318.89 450.11C318.88 449.82 318.76 449.55 318.57 449.35C318.38 449.15 318.12 449.03 317.85 449.01C317.57 449.02 317.31 449.14 317.12 449.34C316.92 449.55 316.81 449.82 316.8 450.11C316.82 451.16 316.72 452.21 316.51 453.24C316.51 453.65 316.51 454.06 316.34 454.51C316.31 454.74 316.31 454.97 316.34 455.19C316.34 455.74 316.34 456.26 316.34 456.77C316.35 457.09 316.48 457.38 316.69 457.6C316.9 457.82 317.19 457.94 317.49 457.94C317.78 457.93 318.06 457.81 318.26 457.59C318.47 457.37 318.59 457.08 318.6 456.77C318.6 456.19 318.6 455.61 318.6 455.02L318.6 454.2L318.6 453.85L318.79 453.2C318.79 452.82 318.79 452.45 318.79 452.07L318.96 451.83C319.12 451.84 319.29 451.79 319.41 451.67C319.54 451.56 319.61 451.4 319.63 451.23C319.64 451.05 319.59 450.88 319.48 450.75C319.37 450.62 319.22 450.54 319.06 450.52Z" fill="#FFFFFF" fill-opacity="1.000000" fill-rule="nonzero"/>
	<path id="Vector" d="M268.34 459.49C268.21 459.36 268.04 459.29 267.86 459.29C267.69 459.29 267.52 459.36 267.39 459.49C267.03 459.76 266.64 460 266.25 460.21L266.08 460.21L265.66 460.49C265.02 460.91 264.41 461.36 263.83 461.86L263.64 461.86L263.31 462.1L262.49 462.82C262.22 463.05 262 463.33 261.84 463.65C261.67 463.97 261.57 464.32 261.54 464.68C261.52 464.82 261.52 464.98 261.54 465.12C261.5 465.31 261.5 465.51 261.56 465.69C261.62 465.88 261.74 466.03 261.88 466.15C262.03 466.27 262.21 466.33 262.4 466.34C262.58 466.34 262.76 466.29 262.92 466.19C263.4 465.88 263.83 465.48 264.19 465.02C264.65 464.71 265.06 464.34 265.43 463.92C266.18 463.17 266.8 462.27 267.55 461.48C267.66 461.36 267.73 461.21 267.77 461.05C267.81 460.89 267.81 460.72 267.78 460.56L268.31 460.11C268.36 460.02 268.39 459.91 268.4 459.8C268.4 459.7 268.38 459.59 268.34 459.49Z" fill="#FFFFFF" fill-opacity="1.000000" fill-rule="nonzero"/>
	<path id="Vector" d="M364.9 436.01C365.03 435.88 365.11 435.72 365.15 435.54C365.2 435.37 365.19 435.18 365.14 435.01C365.09 434.84 365 434.68 364.87 434.56C364.74 434.44 364.58 434.36 364.41 434.32C364.41 434.32 364.41 434.08 364.41 433.98C364.41 433.88 364.41 433.67 364.41 433.53C364.41 433.2 364.29 432.87 364.06 432.64C363.83 432.4 363.53 432.26 363.21 432.26C362.89 432.26 362.58 432.4 362.35 432.64C362.13 432.87 362 433.2 362 433.53L362 433.81C361.95 434.09 361.95 434.38 362 434.67C362 435.08 362 435.49 362 435.94C362 436.39 362 437.62 362 438.48C362 439.34 362 440.13 362 440.95C362.04 441.27 362.04 441.6 362 441.92C361.87 442.36 361.8 442.82 361.77 443.29C361.78 443.51 361.84 443.72 361.94 443.91C362.04 444.1 362.18 444.27 362.36 444.39C362.55 444.5 362.76 444.56 362.98 444.56C363.19 444.56 363.41 444.5 363.6 444.39C364.31 443.69 364.77 442.76 364.9 441.74C365.11 440.77 365.22 439.78 365.23 438.79C365.25 438.64 365.25 438.49 365.23 438.34C365.23 438.34 365.23 438.14 365.23 438.03C365.23 437.93 365.23 437.69 365.23 437.48C365.21 437.2 365.21 436.91 365.23 436.63C365.05 436.47 364.93 436.25 364.9 436.01Z" fill="#FFFFFF" fill-opacity="1.000000" fill-rule="nonzero"/>
	<path id="Vector" d="M333.3 391.11C333.15 390.76 332.9 390.48 332.57 390.31C332.25 390.14 331.88 390.1 331.53 390.18C331 390.35 330.48 390.54 329.96 390.77C329.65 390.85 329.35 390.95 329.05 391.08L327.68 391.7L327.45 391.7L326.99 391.7C326.1 391.98 325.24 392.39 324.45 392.9C324.03 392.91 323.64 393.08 323.35 393.39C323.05 393.7 322.89 394.11 322.88 394.55C322.85 394.72 322.85 394.89 322.88 395.06C322.84 395.37 322.91 395.69 323.07 395.96C323.22 396.2 323.42 396.4 323.66 396.55C323.9 396.69 324.17 396.77 324.45 396.78C325.72 396.75 326.96 396.4 328.07 395.75C329.03 395.28 329.95 394.76 330.85 394.17C331.12 393.97 331.34 393.7 331.47 393.38L332.58 392.83C332.86 392.67 333.08 392.41 333.21 392.1C333.34 391.79 333.37 391.44 333.3 391.11Z" fill="#FFFFFF" fill-opacity="1.000000" fill-rule="nonzero"/>
	<path id="Vector" d="M382.87 386.75C382.55 386.57 382.18 386.52 381.84 386.62C381.49 386.71 381.19 386.94 381 387.26L380.71 387.64L380.38 388.12L379.7 389.08L379.4 389.53C379.14 389.78 378.9 390.06 378.69 390.35C377.63 391.16 376.76 392.2 376.14 393.41C376.06 393.54 375.99 393.68 375.94 393.82C375.81 394.24 375.82 394.69 375.99 395.09C376.16 395.5 376.46 395.82 376.85 396C377.23 396.17 377.66 396.19 378.05 396.05C378.45 395.91 378.78 395.62 378.98 395.23L379.44 394.58C379.54 394.46 379.65 394.34 379.76 394.24C380.19 393.72 380.65 393.27 381.07 392.79C381.59 392.17 382.05 391.49 382.44 390.77C382.83 390.08 383.06 389.29 383.45 388.64C383.6 388.3 383.63 387.92 383.52 387.57C383.41 387.22 383.18 386.92 382.87 386.75Z" fill="#FFFFFF" fill-opacity="1.000000" fill-rule="nonzero"/>
	<path id="Vector" d="M326.02 346.46C325.71 345.37 325.12 344.38 324.32 343.61C324.15 343.45 323.95 343.33 323.72 343.27C323.5 343.21 323.27 343.21 323.04 343.27C322.83 343.33 322.63 343.46 322.47 343.63C322.31 343.79 322.19 344 322.13 344.23C321.99 344.73 321.91 345.25 321.87 345.78C321.84 346.36 321.84 346.94 321.87 347.53C321.84 347.92 321.84 348.31 321.87 348.7C321.94 349.04 322.06 349.38 322.23 349.69C322.33 350.06 322.54 350.38 322.83 350.62C323.12 350.85 323.47 350.98 323.83 351C324.01 351 324.19 350.94 324.34 350.84C324.49 350.74 324.61 350.59 324.68 350.41C324.97 350.42 325.25 350.31 325.46 350.1C325.84 349.6 326.1 349 326.19 348.36C326.29 347.72 326.23 347.07 326.02 346.46Z" fill="#FFFFFF" fill-opacity="1.000000" fill-rule="nonzero"/>
	<path id="Vector" d="M309.52 550.24C309.32 549.88 308.99 549.62 308.6 549.52C308.22 549.42 307.81 549.48 307.47 549.69C306.71 550.24 306 550.76 305.21 551.27C304.88 551.32 304.56 551.43 304.26 551.58L303.42 552.17C303.11 552.37 302.78 552.54 302.44 552.68C302.24 552.8 302.08 552.96 301.96 553.16C301.84 553.35 301.77 553.58 301.75 553.81C301.4 553.95 301.12 554.23 300.96 554.58C300.79 554.93 300.76 555.33 300.87 555.7C300.96 556.03 301.14 556.32 301.39 556.53C301.64 556.74 301.95 556.86 302.27 556.87L302.93 556.87C304.79 556.31 306.49 555.23 307.82 553.75C308.02 553.54 308.15 553.28 308.18 552.99L308.97 552.41C309.31 552.19 309.56 551.84 309.66 551.44C309.76 551.04 309.71 550.61 309.52 550.24Z" fill="#FFFFFF" fill-opacity="1.000000" fill-rule="nonzero"/>
	<path id="Vector" d="M410.93 394C400.95 396.53 391.21 398.44 383.12 405.36C381.4 406.59 379.98 408.23 378.98 410.15C377.99 412.07 377.45 414.21 377.4 416.4C377.63 418.27 378 420.11 378.51 421.92C378.65 424.19 379.06 426.43 379.73 428.6C380.2 429.76 380.99 431.13 381.7 432.75C381.7 433.37 381.7 434.03 381.7 434.66C381.57 435.08 381.38 435.48 381.15 435.86C379.75 437.7 378.12 439.33 376.3 440.71C373.63 440.37 370.91 440.74 368.41 441.79C365.1 443.58 365.73 446.32 364.07 449.39C360.97 454.12 357.3 458.4 353.14 462.12C352.73 462.63 352.45 463.24 352.33 463.9C352.21 464.55 352.26 465.23 352.47 465.86C351.33 467.41 350.01 468.81 348.53 470.01C345.85 471.35 342.85 471.8 339.93 471.29C336.85 471.29 333.78 471.29 330.74 471.29C324.44 471.5 318.14 470.93 311.96 469.59C309.04 468.72 307.39 466.27 305.06 464.41C303.24 462.95 301.22 461.78 299.06 460.96C297.16 460.18 295.11 459.84 293.07 459.97C291.03 460.09 289.04 460.67 287.23 461.67C284.42 463.18 281.44 464.31 278.35 465.03C275.24 465.57 272.24 464.82 269.12 465.03C267.47 465.28 265.9 465.93 264.53 466.93C263.16 467.93 262.03 469.26 261.23 470.8C260.88 471.25 261.59 471.71 261.94 471.38C264.25 468.8 267.36 467.2 270.7 466.85C273.34 466.85 275.87 467.35 278.59 466.85C282.53 465.76 286.39 464.37 290.15 462.7C297.68 460.46 302.26 465.98 307.35 470.63C310.51 472.81 314.09 474.23 317.84 474.78C322.99 476.23 328.29 476.99 333.62 477.02C338.54 477.71 343.54 477.54 348.41 476.52C351.16 475.3 353.43 473.11 354.84 470.34C354.76 471.03 354.63 471.71 354.45 472.37C354.19 473.16 353.98 473.96 353.82 474.78C352.63 475.91 351.74 477.34 351.21 478.93C350.7 482.69 350.78 486.52 351.45 490.25C351.68 494.98 351.45 499.71 351.76 504.44C352.1 506.39 352.25 508.36 352.2 510.34C351.68 512.83 349.95 513.24 348.25 513.41C348.52 513.12 348.85 512.91 349.22 512.82C349.59 512.72 349.98 512.74 350.34 512.87C350.62 512.87 350.74 512.49 350.34 512.41C349.04 512.12 349.16 512.41 348.06 512.7C346.08 513.28 344.11 513.45 341.94 514.03C337.94 515.33 334.12 517.18 330.58 519.55L329.71 520.13C327.87 521.38 326.12 522.76 324.47 524.28C323.47 525 322.52 525.79 321.63 526.64C320.28 528.38 318.77 529.98 317.13 531.41C313.42 533.78 307.23 532.74 303.09 532.24C298.94 531.75 294.92 529.96 290.74 529.34C286.54 528.93 282.31 529.46 278.31 530.87C274.8 531.8 271.35 532.95 267.98 534.32C264.43 536.63 261.13 539.33 258.12 542.37C254.72 544.9 250.46 545.81 247.55 549.13C246.37 550.59 245.38 552.21 244.63 553.94C242.99 557.02 240.27 559.28 237.05 560.25C233.34 562.34 229.78 564.73 226.4 567.39C223.4 569.21 219.46 568.71 217.05 571.53C216.95 571.65 216.89 571.79 216.89 571.95C216.89 572.11 216.95 572.26 217.05 572.37C217.16 572.48 217.3 572.54 217.45 572.54C217.6 572.54 217.74 572.48 217.84 572.37C220.48 569.96 224.94 570.46 227.94 568.22C229.72 566.97 231.29 565.44 233.07 564.07C235.35 562.69 237.76 561.55 240.25 560.66C242.91 559.51 245.06 557.33 246.24 554.57C249 549.13 252.52 547.68 257.29 544.94C261.04 542.78 263.44 538.96 267.11 536.64C271.64 534.33 276.44 532.67 281.39 531.7C290.9 529.3 300.25 534.19 309.87 534.44C312.12 534.62 314.38 534.35 316.54 533.65C315.49 535.41 314.58 537.26 313.82 539.17C313.09 541.47 312.85 543.9 313.1 546.31C313.12 548.89 312.85 551.46 312.32 553.98C311.57 558.13 312.04 566.43 308.18 568.01C306.44 568.84 304.43 569.38 302.61 570.12C300.8 570.87 299.14 570.91 297.45 571.45C294.01 572.53 292.79 576.8 290.42 579.25C290.03 579.67 290.62 580.25 291.06 579.88C292.23 578.64 293.23 577.24 294.05 575.73C294.73 574.42 295.73 573.32 296.93 572.53C297.76 572.12 298.27 572.32 299.06 572.12C302.74 570.64 306.51 569.44 310.34 568.51C310.47 568.5 310.58 568.45 310.67 568.37C310.77 568.29 310.83 568.18 310.86 568.05C311.96 561.99 313.62 556.06 314.37 549.92C314.28 546.44 314.57 542.96 315.24 539.55C316.32 536.74 317.74 534.09 319.46 531.66C321.94 529.63 324.19 526.81 326.56 524.78C328.19 523.06 329.97 521.52 331.88 520.17C333.96 519.2 336.11 518.39 338.31 517.76C340.3 516.83 342.35 516.01 344.43 515.32C346.49 514.98 348.57 514.78 350.66 514.69C357.4 513.57 354.88 503.24 355 498.1C355 493.95 355 489.8 355 485.65C355 479.96 358.15 477.97 361.23 473.91C364.18 469.24 367.48 464.83 371.09 460.71L372.59 459.34C371.05 462.03 369.66 464.8 368.41 467.64C367.35 471.13 369.12 473.58 369.63 476.94C370.28 483.11 372.75 488.91 376.69 493.53C377.45 494.19 378.18 494.9 378.86 495.65C379.49 496.77 379.9 498.01 380.07 499.3C380.24 500.59 380.17 501.9 379.85 503.16C379.11 507.27 378.58 511.43 378.27 515.61C378.07 524.61 378.27 533.7 378.51 542.7C378.51 546.85 378.51 551 378.51 555.15C378.33 557.59 377.42 559.91 375.91 561.78C374.4 563.65 372.37 564.97 370.11 565.56C366.36 567.09 362.89 567.88 359.57 569.71C359.54 569.67 359.51 569.65 359.47 569.63C359.43 569.61 359.38 569.6 359.34 569.6C359.29 569.6 359.25 569.61 359.21 569.63C359.17 569.65 359.13 569.67 359.1 569.71L358.79 570.12C357.64 570.78 356.55 571.56 355.55 572.45C350.58 576.6 346.32 582.99 339.77 584.9C336.77 585.21 333.89 586.32 331.41 588.13C328.45 590.62 325.57 592.9 322.42 595.06C318.47 597.92 313.5 601.41 312.95 606.93C312.95 607.63 313.89 607.59 313.97 606.93C314.8 599.67 323.24 596.43 328.14 592.65C330.9 589.86 334.23 587.78 337.88 586.56C340.7 585.99 343.39 584.81 345.77 583.11C349.71 580.29 352.83 576.35 356.58 573.24C355.33 575.27 354.5 577.55 354.14 579.93C353.78 582.32 353.9 584.76 354.49 587.09C354.91 588.52 355.44 589.9 356.06 591.24C356.68 592.83 356.68 594.6 356.06 596.18C354.89 599.42 353.25 602.46 351.21 605.18C350.97 605.52 351.49 605.85 351.72 605.52C354.6 601.57 358.98 596.06 356.66 590.83C354.99 587.55 354.31 583.82 354.72 580.12C355.22 577.21 356.35 574.45 358.04 572.07C358.39 571.83 358.71 571.49 359.06 571.29C364.54 567.72 371.21 567.93 376.34 563.44C380.28 559.88 379.73 555.69 379.73 550.5C379.73 541.54 379.93 532.53 379.73 523.53C379.4 518.53 379.55 513.52 380.17 508.55C380.88 504.96 381.23 501.31 381.19 497.64C381.19 492.58 377.25 489.34 375.67 484.57C374.56 480.67 374.01 476.73 373.07 472.83C372.61 471.53 372.49 470.12 372.71 468.75C372.93 467.38 373.49 466.1 374.33 465.03C375.12 463.61 375.7 462.07 376.06 460.46C376.93 456.69 379.18 454.95 380.72 451.75C380.95 451.46 381.23 451.21 381.51 450.92C384.07 448.35 385.64 444.88 385.92 441.17C385.94 440.96 385.94 440.76 385.92 440.55C386.69 439.68 387.32 438.68 387.78 437.6C390.54 430.88 386.04 423 390.82 416.86C395.59 410.72 407.03 408.56 413.97 406.11C415.1 405.37 415.98 404.27 416.47 402.97C416.96 401.66 417.04 400.23 416.7 398.87C416.36 397.52 415.62 396.31 414.58 395.44C413.54 394.56 412.27 394.05 410.93 394ZM374.01 452.71C371.09 455.4 367.86 457.81 365.1 460.71L363.91 462.12L364.54 461.04C367.82 455.19 373.62 451.54 378.47 447.19L380.28 445.65C378.58 448.35 376.46 450.73 374.01 452.71Z" fill="#202147" fill-opacity="1.000000" fill-rule="nonzero"/>
	<path id="Vector" d="M306.81 5.49C306.74 4.57 306.46 3.69 306.01 2.9C305.56 2.11 304.94 1.45 304.21 0.95C303.47 0.45 302.64 0.14 301.77 0.03C300.9 -0.07 300.02 0.03 299.2 0.34C296.61 1.66 294.51 3.83 293.2 6.52C292.61 7.23 292.08 8 291.62 8.81C290.12 11.96 288.45 15.02 286.62 17.98C284.64 20.8 282.67 23.62 280.74 26.56C280.03 27.15 279.36 27.77 278.65 28.27C274.7 31.09 272.85 35.07 269.26 38.06C266.05 40.35 263.21 43.15 260.82 46.36C255.44 48.03 250.44 50.86 246.14 54.65C243.57 57.12 240.27 58.59 236.79 58.8C234.02 58.84 231.26 59.05 228.51 59.43C224.09 59.72 219.83 56.48 215.77 54.86C212.94 53.54 210.04 52.38 207.09 51.38C204.36 50.93 201.6 50.79 198.85 50.96C195.45 50.96 192.73 49.14 189.46 48.85C184.68 48.47 181.29 52.41 177.62 54.99C175.02 56.77 171.98 57.27 169.38 59.14C166.9 61.44 164.17 63.43 161.25 65.07C160.78 65.07 160.94 66.19 161.49 66.06C165.79 65.19 168.47 60.71 172.46 58.93C174.7 58.1 176.85 57.03 178.89 55.73C181.1 53.71 183.61 52.06 186.3 50.84C189.05 50.29 191.89 50.72 194.39 52.04C197.16 52.59 199.97 52.9 202.79 52.99C209.38 53.91 216.08 58.31 222 61.29C226.85 63.78 231.82 62.91 236.91 64.24C239 64.61 241.14 64.5 243.19 63.91C245.23 63.33 247.13 62.28 248.75 60.84C252.18 58.51 255.06 55.86 258.45 53.82C258.1 56.9 258.17 60.02 258.65 63.08C259.86 68.71 259.07 74.61 256.44 79.67C253.64 85.27 251.19 91.08 248.27 96.6C246.95 98.77 245.47 100.84 243.85 102.78C242.79 104.76 242.1 106.93 241.8 109.17C241.8 109.88 241.37 110.63 241.13 111.33C239.66 113.85 238.43 116.52 237.46 119.3L237.23 120.04C236.59 120.92 235.75 121.6 234.79 122.02C233.83 122.44 232.78 122.59 231.74 122.45C223.91 122.28 216.12 123.69 208.79 126.6C208.23 126.31 207.64 126.06 207.09 125.73C200.19 122.29 192.71 120.34 185.08 120C177.7 119.13 174.63 122.66 170.68 128.8C170.2 129.92 169.5 130.92 168.63 131.74C167.75 132.57 166.73 133.19 165.62 133.58C164.51 133.97 163.34 134.12 162.17 134.01C161 133.9 159.87 133.54 158.85 132.95C155.42 131.84 151.89 131.15 148.31 130.91C148.19 130.95 148.08 131.03 148 131.14C147.92 131.25 147.87 131.38 147.87 131.52C147.87 131.65 147.92 131.79 148 131.9C148.08 132 148.19 132.08 148.31 132.12C151.6 132.98 154.82 134.12 157.94 135.52C159.99 136.75 162.29 137.46 164.65 137.59C169.34 137.35 172.1 133.45 174.47 129.3C175.27 127.5 176.56 126 178.18 124.97C179.79 123.95 181.66 123.45 183.54 123.53C186.91 123.88 190.26 124.47 193.56 125.27C197.14 125.61 200.65 126.5 203.97 127.93L204.45 128.22L201.25 129.38C197.36 130.25 193.81 132.31 191.04 135.31C190.2 136.62 189.48 138.01 188.91 139.46C187.42 142.17 185.51 144.59 183.26 146.64C179.52 150.79 179.56 156.6 173.8 158.84C168.04 161.08 161.96 158.84 156.32 158.42C150.98 157.89 145.59 158.13 140.31 159.13C137.61 160.07 134.97 161.21 132.42 162.53C130.21 163.44 127.84 163.15 125.59 163.86C122.4 164.85 119.52 166.31 116.17 167.01C113.81 167.38 111.53 168.15 109.42 169.29C104.59 171.89 100.05 175.05 95.89 178.71C99.85 175.69 104.06 173.05 108.47 170.83C113.36 167.92 119.28 167.72 124.53 165.77C126.89 164.85 129.22 165.06 131.63 164.4C133.59 163.62 135.51 162.73 137.39 161.74C143.44 159.93 149.78 159.49 156.01 160.46C163.9 160.87 173.92 164.85 180.03 157.3C181.11 155.82 181.96 154.17 182.55 152.41C183.96 149.82 185.83 147.55 188.08 145.73C191.15 142.7 193.01 137.97 196.83 136.06C201.48 134.06 206.32 132.58 211.27 131.66L211.51 131.66C217.66 133.57 224.08 134.31 230.48 133.86C232.3 133.96 234.1 133.53 235.7 132.62C237.3 131.71 238.63 130.36 239.55 128.72C239.55 129.17 239.32 129.55 239.24 130C238.06 136.52 239.24 146.1 234.82 151.25C232.92 153.25 231.19 155.43 229.65 157.76C227.87 160.46 225.43 162.61 222.59 163.98C218.38 166.73 215.08 170.77 213.13 175.56C213.08 175.68 213.07 175.82 213.11 175.95C213.15 176.08 213.23 176.19 213.34 176.26C213.44 176.34 213.57 176.37 213.7 176.35C213.83 176.34 213.94 176.28 214.03 176.18C215.82 173.58 217.77 171.1 219.87 168.75C221.9 166.92 224.17 165.39 226.62 164.23C228.77 162.78 230.55 160.78 231.78 158.42C233.44 155.69 235.93 153.86 237.58 151.2C240.78 146.06 240.19 138.47 240.94 132.57C241.68 126.68 244.88 121.46 246.18 115.98C247.52 114.14 249.18 112.59 251.07 111.41C253.99 109.67 256.6 107.47 259.48 105.65C261.65 104.44 263.41 102.56 264.52 100.25C266.89 94.73 264.52 89.22 264.52 83.66C264.49 83.19 264.49 82.71 264.52 82.25C264.85 82.57 265.25 82.8 265.69 82.92C266.12 83.03 266.58 83.03 267.01 82.91C267.45 82.79 267.84 82.56 268.17 82.23C268.49 81.9 268.73 81.49 268.86 81.04C270.01 77.81 269.46 74.49 270.76 71.42C272.12 68.11 273.84 64.98 275.89 62.08C280.26 55.62 283.93 48.66 286.81 41.34C290.44 34.15 294.51 27.22 299 20.59C300.07 17.99 301.61 15.64 303.54 13.66C304.67 12.68 305.56 11.42 306.13 10C306.7 8.57 306.93 7.03 306.81 5.49ZM220.03 129.59L219.12 129.59C222.89 128.39 226.83 127.93 230.76 128.26C231.67 128.26 232.49 128.51 233.24 128.55C229.65 130.79 223.38 130.09 220.03 129.59ZM253.24 101.04C253.6 100.5 253.91 99.96 254.23 99.42C256.48 95.52 258.37 91.42 260.42 87.39C260.36 89.44 260.13 91.48 259.75 93.49C258.69 97.6 256 99.13 253.05 101.04L253.24 101.04ZM265.79 56.02C265.84 54.48 266.22 52.97 266.91 51.61C267.59 50.24 268.55 49.06 269.73 48.14C270.4 47.89 270.6 47.56 270.56 48.47C268.94 51.17 267.36 53.49 265.59 56.02L265.79 56.02Z" fill="#202147" fill-opacity="1.000000" fill-rule="nonzero"/>
</svg>
