<svg width="378.000000" height="378.000000" viewBox="0 0 378 378" fill="none" xmlns="http://www.w3.org/2000/svg" xmlns:xlink="http://www.w3.org/1999/xlink">
	<desc>
			Created with Pixso.
	</desc>
	<defs/>
	<circle id="Ellipse 1" cx="189.000000" cy="189.000000" r="189.000000" fill="#E13A4B" fill-opacity="1.000000"/>
	<path id="Vector" d="M166.09 233.17L166.09 232.93C166.09 232.93 165.8 232.93 166.09 233.17Z" fill="#202147" fill-opacity="1.000000" fill-rule="evenodd"/>
	<path id="Vector" d="M182.52 275.83C182.43 275.56 182.32 275.31 182.18 275.06C181.95 274.71 181.64 274.41 181.27 274.2L180.16 273.67C179.45 273.38 178.75 273.02 178.1 272.61L177.76 272.28C177.47 272 177.08 271.85 176.68 271.85C176.28 271.85 175.89 272 175.6 272.28C175.31 272.56 175.15 272.95 175.15 273.36C175.15 273.76 175.31 274.15 175.6 274.44C176.61 275.37 177.83 276.06 179.15 276.46L178.77 276.46L179.73 276.94C179.98 277.1 180.23 277.24 180.5 277.37C180.66 277.35 180.82 277.35 180.98 277.37C181.19 277.43 181.42 277.43 181.63 277.37C181.84 277.32 182.04 277.2 182.2 277.05C182.35 276.89 182.46 276.7 182.52 276.48C182.58 276.27 182.57 276.04 182.52 275.83Z" fill="#FFFFFF" fill-opacity="1.000000" fill-rule="nonzero"/>
	<path id="Vector" d="M242.37 238.79C242.32 238.67 242.23 238.56 242.12 238.49C242.01 238.41 241.88 238.37 241.75 238.37C241.61 238.37 241.48 238.41 241.37 238.49C241.26 238.56 241.17 238.67 241.12 238.79L241.12 239.03C240.97 239.26 240.85 239.51 240.74 239.76L240.74 240.04L240.35 240.62L239.87 241.15L238.86 242.06C238.76 242.16 238.68 242.27 238.62 242.4C238.56 242.53 238.54 242.67 238.54 242.81C238.54 242.95 238.56 243.08 238.62 243.21C238.68 243.34 238.76 243.46 238.86 243.55C239.06 243.73 239.32 243.83 239.58 243.83C239.85 243.83 240.11 243.73 240.3 243.55C241.13 242.88 241.84 242.09 242.42 241.2C242.71 240.74 242.95 240.26 243.14 239.76C242.94 239.39 242.68 239.07 242.37 238.79Z" fill="#FFFFFF" fill-opacity="1.000000" fill-rule="nonzero"/>
	<path id="Vector" d="M252.6 214.3C252.24 214.61 251.93 214.98 251.69 215.4L250.97 216.55C250.72 216.99 250.54 217.46 250.44 217.95C250.3 218.43 250.2 218.93 250.15 219.44C250.16 219.65 250.24 219.86 250.38 220.03C250.52 220.19 250.71 220.31 250.92 220.35C251.14 220.37 251.36 220.31 251.54 220.19C251.73 220.07 251.86 219.89 251.93 219.68C252.01 219.26 252.14 218.86 252.31 218.47L252.31 217.99C252.29 217.79 252.29 217.58 252.31 217.37C252.42 216.98 252.55 216.59 252.7 216.22C252.9 215.81 253.01 215.37 253.03 214.92C253.05 214.78 253.02 214.64 252.94 214.53C252.86 214.41 252.74 214.33 252.6 214.3Z" fill="#FFFFFF" fill-opacity="1.000000" fill-rule="nonzero"/>
	<path id="Vector" d="" fill="#FFFFFF" fill-opacity="1.000000" fill-rule="nonzero"/>
	<path id="Vector" d="M251.45 177.21C251.35 177.14 251.23 177.1 251.11 177.1C250.99 177.1 250.87 177.14 250.78 177.21C250.49 177.45 250.15 177.64 249.91 177.88L249.19 178.6L247.75 180C247.67 180.06 247.6 180.14 247.55 180.23C247.5 180.32 247.47 180.42 247.46 180.52C247.46 180.63 247.47 180.73 247.51 180.83C247.54 180.92 247.6 181.01 247.67 181.08C247.75 181.16 247.83 181.21 247.93 181.25C248.03 181.28 248.13 181.3 248.23 181.29C248.34 181.28 248.44 181.26 248.53 181.21C248.62 181.16 248.7 181.09 248.76 181.01L250.15 179.56L250.82 178.84C251.09 178.58 251.33 178.29 251.55 177.98C251.63 177.86 251.66 177.72 251.65 177.58C251.63 177.43 251.56 177.3 251.45 177.21Z" fill="#FFFFFF" fill-opacity="1.000000" fill-rule="nonzero"/>
	<path id="Vector" d="M245.11 210.45C244.98 210.33 244.81 210.27 244.63 210.27C244.45 210.27 244.28 210.33 244.15 210.45C243.81 210.68 243.49 210.94 243.19 211.22C242.9 211.56 242.66 211.93 242.47 212.33C242.02 213.08 241.79 213.95 241.79 214.82C241.79 214.94 241.81 215.06 241.85 215.17C241.89 215.28 241.95 215.38 242.03 215.47C242.11 215.55 242.21 215.62 242.32 215.67C242.42 215.71 242.54 215.74 242.66 215.74C242.78 215.74 242.9 215.72 243.02 215.68C243.13 215.64 243.23 215.57 243.32 215.48C243.41 215.4 243.47 215.3 243.52 215.18C243.56 215.07 243.58 214.95 243.57 214.82C243.55 214.68 243.55 214.53 243.57 214.39C243.55 214.23 243.55 214.07 243.57 213.91C243.57 213.91 243.57 213.91 243.57 213.67L244.15 212.76L244.44 212.37C244.69 212.46 244.97 212.45 245.21 212.33C245.46 212.21 245.64 212 245.73 211.75C245.82 211.49 245.81 211.22 245.69 210.97C245.57 210.73 245.36 210.54 245.11 210.45Z" fill="#FFFFFF" fill-opacity="1.000000" fill-rule="nonzero"/>
	<path id="Vector" d="M254 207.76L252.94 207.76L250.1 207.76C249.91 207.76 249.73 207.84 249.59 207.97C249.46 208.11 249.38 208.29 249.38 208.48C249.38 208.67 249.46 208.86 249.59 208.99C249.73 209.13 249.91 209.2 250.1 209.2L252.94 209.2L254 209.2C254 209.2 254.38 208.92 254.38 208.72C254.45 208.64 254.5 208.54 254.52 208.44C254.54 208.33 254.53 208.22 254.49 208.12C254.45 208.02 254.38 207.94 254.29 207.87C254.21 207.81 254.1 207.77 254 207.76Z" fill="#FFFFFF" fill-opacity="1.000000" fill-rule="nonzero"/>
	<path id="Vector" d="M242.37 202.05C241.03 202.38 240.69 203.92 240.55 205.12C240.55 205.36 240.55 205.6 240.55 205.89C240.57 206 240.57 206.11 240.55 206.23C240.57 206.35 240.57 206.48 240.55 206.61C240.56 206.71 240.56 206.8 240.55 206.9C240.4 207.11 240.33 207.37 240.35 207.63C240.38 207.88 240.49 208.12 240.67 208.31C240.86 208.49 241.1 208.6 241.35 208.63C241.61 208.65 241.87 208.58 242.08 208.44C242.51 207.92 242.81 207.31 242.95 206.66C243.02 206.08 243.02 205.5 242.95 204.93C242.92 204.69 242.92 204.45 242.95 204.21L242.95 203.68C242.93 203.55 242.93 203.42 242.95 203.3L242.95 202.91C242.97 202.82 242.97 202.72 242.95 202.62C242.93 202.53 242.9 202.44 242.84 202.36C242.79 202.27 242.72 202.21 242.64 202.15C242.56 202.1 242.47 202.06 242.37 202.05Z" fill="#FFFFFF" fill-opacity="1.000000" fill-rule="nonzero"/>
	<path id="Vector" d="M167.43 168.52C167.45 168.31 167.45 168.1 167.43 167.89C167.34 167.73 167.19 167.6 167.02 167.52C166.85 167.45 166.66 167.42 166.47 167.46C166.28 167.51 166.11 167.62 165.99 167.78C165.87 167.94 165.8 168.13 165.8 168.32L165.8 168.66C165.78 168.8 165.78 168.95 165.8 169.09C165.82 169.24 165.82 169.38 165.8 169.52L165.8 169.91L165.37 170.82C165.27 171.09 165.27 171.37 165.37 171.64C165.47 171.91 165.65 172.15 165.9 172.31C166.16 172.41 166.45 172.41 166.71 172.31C166.99 172.22 167.23 172.04 167.38 171.78C167.71 171.1 167.98 170.39 168.2 169.67C168.25 169.29 168.25 168.9 168.2 168.52C167.95 168.44 167.68 168.44 167.43 168.52Z" fill="#FFFFFF" fill-opacity="1.000000" fill-rule="nonzero"/>
	<path id="Vector" d="M177.14 172.65L176.8 172.12L176.8 171.78C176.72 171.54 176.6 171.32 176.46 171.11L176.46 170.82C176.13 169.84 175.58 168.94 174.88 168.18C174.73 168.03 174.52 167.94 174.3 167.94C174.09 167.94 173.88 168.03 173.73 168.18C173.57 168.34 173.48 168.56 173.48 168.78C173.48 169 173.57 169.22 173.73 169.38C173.74 169.46 173.74 169.54 173.73 169.62C173.88 169.81 174.01 170.02 174.11 170.25C174.35 170.64 174.54 171.06 174.69 171.49C174.86 171.95 175.09 172.39 175.36 172.79C175.65 173.17 176.01 173.5 176.42 173.75C176.56 173.85 176.74 173.88 176.91 173.85C177.08 173.81 177.23 173.71 177.33 173.56C177.42 173.41 177.46 173.24 177.42 173.06C177.39 172.89 177.28 172.74 177.14 172.65Z" fill="#FFFFFF" fill-opacity="1.000000" fill-rule="nonzero"/>
	<path id="Vector" d="M170.31 157.61C170.29 157.58 170.25 157.56 170.22 157.54C170.18 157.52 170.14 157.51 170.1 157.51C170.06 157.51 170.02 157.52 169.98 157.54C169.94 157.56 169.91 157.58 169.88 157.61C169.55 157.99 169.2 158.34 168.83 158.67C168.79 158.69 168.75 158.7 168.71 158.7C168.66 158.7 168.62 158.69 168.59 158.67C168.41 158.71 168.23 158.71 168.06 158.67C167.88 158.72 167.72 158.84 167.62 159C167.57 159.1 167.54 159.2 167.53 159.31C167.52 159.42 167.53 159.52 167.56 159.63C167.59 159.73 167.65 159.82 167.71 159.91C167.78 159.99 167.87 160.06 167.96 160.11C168.07 160.16 168.18 160.18 168.3 160.18C168.41 160.18 168.53 160.16 168.63 160.11C169.11 159.88 169.52 159.51 169.79 159.05C170.03 158.67 170.17 158.19 170.41 157.75C170.39 157.7 170.36 157.65 170.31 157.61Z" fill="#FFFFFF" fill-opacity="1.000000" fill-rule="nonzero"/>
	<path id="Vector" d="M178.34 151.85L178.34 151.08C178.36 150.92 178.36 150.76 178.34 150.6C178.3 150.47 178.22 150.36 178.12 150.27C178.02 150.18 177.89 150.13 177.76 150.12C177.62 150.12 177.49 150.16 177.38 150.25C177.28 150.34 177.21 150.46 177.18 150.6C177.18 150.6 177.18 150.93 177.18 151.08L177.18 151.85L177.18 153.43C177.1 153.63 177.1 153.86 177.18 154.06C177.37 154.22 177.61 154.32 177.86 154.35C178.09 154.31 178.31 154.21 178.48 154.06C178.57 153.98 178.64 153.88 178.68 153.77C178.72 153.67 178.73 153.55 178.72 153.43L178.34 151.85Z" fill="#FFFFFF" fill-opacity="1.000000" fill-rule="nonzero"/>
	<path id="Vector" d="M201.54 160.16C201.34 159.99 201.11 159.86 200.87 159.77L200.58 159.77C200.21 159.58 199.85 159.35 199.52 159.1C198.75 158.49 197.84 158.08 196.88 157.9C196.51 157.75 196.1 157.75 195.73 157.9C195.55 157.99 195.4 158.12 195.28 158.28C195.17 158.44 195.09 158.62 195.05 158.81C194.97 158.99 194.93 159.19 194.93 159.39C194.93 159.59 194.97 159.78 195.05 159.97C195.25 160.29 195.56 160.53 195.92 160.64C196.61 160.77 197.29 160.98 197.94 161.26L197.6 161.26C198.15 161.55 198.73 161.79 199.33 161.98L200.05 161.98C200.35 162.03 200.66 162.03 200.96 161.98L201.49 161.74C201.61 161.65 201.71 161.53 201.78 161.4C201.86 161.26 201.89 161.11 201.9 160.96C201.9 160.81 201.87 160.66 201.81 160.52C201.75 160.38 201.66 160.25 201.54 160.16Z" fill="#FFFFFF" fill-opacity="1.000000" fill-rule="nonzero"/>
	<path id="Vector" d="M201.3 177.11C200.92 176.72 200.52 176.35 200.1 176.01C199.75 175.73 199.43 175.43 199.14 175.1C199.01 174.92 198.89 174.72 198.8 174.52L198.8 174.14C198.77 173.82 198.77 173.5 198.8 173.18C198.77 173.05 198.71 172.94 198.63 172.83C198.55 172.73 198.45 172.65 198.34 172.59C198.23 172.52 198.11 172.48 197.98 172.47C197.85 172.46 197.72 172.47 197.6 172.5C197.35 172.57 197.13 172.73 197 172.96C196.86 173.18 196.82 173.45 196.88 173.7C197.11 174.89 197.66 175.98 198.46 176.87C199.31 177.57 200.23 178.16 201.2 178.65C201.41 178.66 201.61 178.6 201.76 178.46C201.91 178.33 202.01 178.14 202.02 177.93C202.03 177.73 201.96 177.53 201.83 177.37C201.69 177.22 201.5 177.13 201.3 177.11Z" fill="#FFFFFF" fill-opacity="1.000000" fill-rule="nonzero"/>
	<path id="Vector" d="M201.54 147.09C201.56 146.99 201.56 146.88 201.53 146.77C201.5 146.67 201.46 146.57 201.39 146.49C201.32 146.4 201.23 146.34 201.13 146.29C201.03 146.25 200.93 146.22 200.82 146.23C200.62 146.16 200.4 146.16 200.19 146.23L199.81 146.56C199.61 146.72 199.45 146.92 199.33 147.14C199.18 147.36 199.07 147.6 198.99 147.86C198.97 148.13 198.97 148.41 198.99 148.68C198.97 148.82 198.97 148.97 198.99 149.11C198.97 149.22 198.97 149.33 198.99 149.45C199.2 149.65 199.47 149.77 199.76 149.78C199.91 149.79 200.05 149.76 200.18 149.7C200.32 149.64 200.44 149.56 200.53 149.45C200.73 149.24 200.85 148.97 200.87 148.68C200.84 148.52 200.84 148.36 200.87 148.2C200.87 148.2 200.87 148.2 200.87 147.91L201.11 147.52C201.27 147.39 201.39 147.2 201.44 147L201.54 147.09Z" fill="#FFFFFF" fill-opacity="1.000000" fill-rule="nonzero"/>
	<path id="Vector" d="M207.5 167.8L207.06 167.56L206.25 167.03C205.59 166.61 204.82 166.39 204.04 166.4C203.88 166.39 203.72 166.42 203.57 166.48C203.42 166.54 203.29 166.64 203.18 166.76C203.07 166.88 202.99 167.02 202.95 167.18C202.91 167.33 202.9 167.49 202.93 167.65C202.95 167.81 203 167.97 203.08 168.11C203.16 168.25 203.27 168.36 203.4 168.46C203.54 168.55 203.69 168.61 203.85 168.64C204.01 168.66 204.17 168.65 204.33 168.61L204.76 168.61L205.19 168.61L205.96 168.61C206.51 168.82 207.1 168.93 207.69 168.95C207.84 168.92 207.98 168.84 208.07 168.71C208.16 168.59 208.19 168.43 208.17 168.28C208.14 168.12 208.06 167.99 207.93 167.9C207.8 167.81 207.65 167.77 207.5 167.8Z" fill="#FFFFFF" fill-opacity="1.000000" fill-rule="nonzero"/>
	<path id="Vector" d="M211.05 154.63L207.35 154.3C207.22 154.3 207.09 154.32 206.97 154.37C206.85 154.42 206.74 154.5 206.65 154.6C206.56 154.69 206.49 154.8 206.45 154.92C206.4 155.05 206.38 155.17 206.39 155.31C206.39 155.56 206.49 155.8 206.67 155.99C206.85 156.17 207.1 156.27 207.35 156.27L211.05 155.98C211.43 155.98 211.77 155.69 211.72 155.31C211.73 155.22 211.72 155.13 211.69 155.04C211.65 154.96 211.61 154.88 211.54 154.81C211.48 154.75 211.4 154.7 211.32 154.67C211.23 154.64 211.14 154.63 211.05 154.63Z" fill="#FFFFFF" fill-opacity="1.000000" fill-rule="nonzero"/>
	<path id="Vector" d="M131.88 191.62C131.69 191.69 131.52 191.79 131.36 191.91L130.92 192.25L130.16 192.92L129.67 193.26L129.67 193.5L129.34 193.78L128.86 194.02L128.57 194.02C128.23 194.04 127.91 194.18 127.67 194.42C127.43 194.66 127.28 194.98 127.27 195.32C127.29 195.66 127.43 195.97 127.67 196.21C127.91 196.44 128.23 196.57 128.57 196.57C129.13 196.56 129.68 196.43 130.2 196.2C130.71 195.97 131.17 195.64 131.55 195.22C131.94 194.86 132.26 194.44 132.51 193.98L132.85 193.45C132.89 193.23 132.89 193 132.85 192.77C132.9 192.63 132.91 192.48 132.89 192.33C132.86 192.18 132.8 192.04 132.7 191.92C132.6 191.8 132.47 191.71 132.33 191.66C132.19 191.61 132.03 191.6 131.88 191.62Z" fill="#FFFFFF" fill-opacity="1.000000" fill-rule="nonzero"/>
	<path id="Vector" d="M151.34 188.93C150.61 189.2 149.94 189.61 149.37 190.13L148.55 190.66L147.98 191.19L147.21 191.72L146.73 191.72L146.25 191.72L145.91 191.72C145.45 191.77 144.98 191.77 144.52 191.72C144.17 191.72 143.83 191.85 143.58 192.09C143.33 192.34 143.19 192.67 143.17 193.02C143.19 193.37 143.33 193.7 143.58 193.95C143.83 194.2 144.17 194.35 144.52 194.36C146.2 194.58 147.91 194.19 149.32 193.26C149.96 192.82 150.53 192.28 151 191.67L151.72 190.81C152.05 190.48 152.32 190.11 152.54 189.7C152.55 189.56 152.52 189.41 152.45 189.28C152.39 189.15 152.29 189.04 152.17 188.96C152.04 188.89 151.9 188.84 151.76 188.84C151.61 188.83 151.47 188.86 151.34 188.93Z" fill="#FFFFFF" fill-opacity="1.000000" fill-rule="nonzero"/>
	<path id="Vector" d="M313.42 246.77L313.13 246.77C312.49 246.99 311.89 247.32 311.35 247.73C310.32 248.63 309.36 249.61 308.47 250.66C308.31 250.84 308.22 251.07 308.22 251.31C308.22 251.55 308.31 251.78 308.47 251.96C308.65 252.11 308.88 252.19 309.12 252.19C309.35 252.19 309.59 252.11 309.77 251.96L311.21 250.42L311.98 249.7C312.08 249.58 312.19 249.46 312.31 249.36L312.7 249.36L313.42 249.07C313.78 248.96 314.11 248.76 314.38 248.5C314.63 248.19 314.81 247.83 314.91 247.44C315 247.24 315 247.02 314.93 246.82C314.85 246.61 314.7 246.45 314.5 246.36C314.3 246.27 314.08 246.26 313.87 246.34C313.67 246.42 313.51 246.57 313.42 246.77Z" fill="#FFFFFF" fill-opacity="1.000000" fill-rule="nonzero"/>
	<path id="Vector" d="M333.64 205.31C332.99 205.05 332.38 204.71 331.82 204.3C331.21 203.87 330.55 203.51 329.85 203.25C328.29 202.7 326.68 202.32 325.04 202.09C324.94 202.07 324.84 202.06 324.73 202.07C324.63 202.09 324.53 202.12 324.44 202.17C324.35 202.23 324.27 202.3 324.21 202.39C324.15 202.47 324.1 202.57 324.08 202.67C324.04 202.77 324.03 202.87 324.04 202.98C324.04 203.08 324.07 203.18 324.12 203.27C324.17 203.36 324.24 203.44 324.33 203.51C324.41 203.57 324.51 203.61 324.61 203.63C326.24 203.81 327.86 204.16 329.41 204.69C330.04 204.69 330.62 205.31 331.24 205.6C331.9 205.96 332.65 206.11 333.4 206.03C333.64 205.99 333.64 205.65 333.64 205.31Z" fill="#FFFFFF" fill-opacity="1.000000" fill-rule="nonzero"/>
	<path id="Vector" d="M334.36 186.43C334.21 186.3 334.01 186.22 333.81 186.22C333.6 186.22 333.41 186.3 333.26 186.43L332.25 187.25C331.91 187.53 331.58 187.84 331.29 188.16L329.37 190.04C329.19 190.22 329.09 190.46 329.09 190.71C329.09 190.96 329.19 191.2 329.37 191.38C329.46 191.48 329.56 191.55 329.68 191.6C329.8 191.65 329.93 191.68 330.06 191.68C330.19 191.68 330.32 191.65 330.44 191.6C330.56 191.55 330.67 191.48 330.76 191.38L332.58 189.51C332.92 189.24 333.23 188.93 333.5 188.6L334.36 187.54C334.5 187.39 334.58 187.19 334.58 186.99C334.58 186.78 334.5 186.58 334.36 186.43Z" fill="#FFFFFF" fill-opacity="1.000000" fill-rule="nonzero"/>
	<path id="Vector" d="M293.19 183.55C293.16 183.34 293.04 183.15 292.88 183.02C292.71 182.88 292.5 182.82 292.28 182.83C292.06 182.82 291.85 182.89 291.67 183.02C291.5 183.15 291.37 183.34 291.32 183.55C291.29 183.76 291.29 183.97 291.32 184.18L291.32 183.89C291.34 184.03 291.34 184.18 291.32 184.32L290.74 184.85C290.01 185.35 289.24 185.8 288.44 186.19C288.19 186.35 288.01 186.6 287.94 186.89C287.87 187.17 287.91 187.47 288.05 187.73C288.2 187.99 288.45 188.18 288.74 188.26C289.02 188.34 289.33 188.3 289.59 188.16C290.26 187.83 290.94 187.49 291.56 187.11C292.37 186.65 293.05 185.99 293.53 185.19C293.69 184.84 293.79 184.46 293.82 184.08C293.64 183.87 293.43 183.7 293.19 183.55Z" fill="#FFFFFF" fill-opacity="1.000000" fill-rule="nonzero"/>
	<path id="Vector" d="M238.67 164.96L236.41 164.58C235.57 164.48 234.71 164.48 233.87 164.58C233.54 164.58 233.22 164.71 232.98 164.94C232.75 165.18 232.62 165.49 232.62 165.83C232.62 166.16 232.75 166.47 232.98 166.71C233.22 166.94 233.54 167.07 233.87 167.07C234.72 167.12 235.57 167.12 236.41 167.07L238.67 166.64C238.89 166.64 239.11 166.55 239.27 166.4C239.42 166.24 239.51 166.02 239.51 165.8C239.51 165.58 239.42 165.37 239.27 165.21C239.11 165.05 238.89 164.96 238.67 164.96Z" fill="#FFFFFF" fill-opacity="1.000000" fill-rule="nonzero"/>
	<path id="Vector" d="M84.47 174.81C84.47 174.67 84.44 174.54 84.37 174.42C84.3 174.3 84.2 174.2 84.09 174.14C83.87 173.99 83.63 173.89 83.37 173.85C83.11 173.81 82.85 173.82 82.6 173.9C82.23 174.02 81.87 174.18 81.54 174.38C80.9 174.85 80.33 175.42 79.86 176.06C79.79 176.2 79.75 176.36 79.75 176.51C79.75 176.67 79.79 176.83 79.86 176.97C79.9 177.12 79.96 177.26 80.05 177.38C80.14 177.51 80.26 177.61 80.39 177.69C80.68 177.81 81.01 177.81 81.3 177.69C81.61 177.6 81.86 177.39 82.02 177.11C82.24 176.82 82.5 176.57 82.79 176.35L83.37 175.96L83.65 175.72C83.77 175.73 83.89 175.71 84 175.67C84.11 175.63 84.21 175.56 84.29 175.47C84.37 175.38 84.43 175.27 84.46 175.16C84.49 175.05 84.49 174.93 84.47 174.81Z" fill="#FFFFFF" fill-opacity="1.000000" fill-rule="nonzero"/>
	<path id="Vector" d="M90.86 152.33C90.8 152.22 90.71 152.13 90.6 152.06C90.49 152 90.36 151.97 90.24 151.97C90.11 151.97 89.98 152 89.88 152.06C89.77 152.13 89.67 152.22 89.61 152.33C89.6 152.42 89.6 152.52 89.61 152.62C89 152.82 88.44 153.13 87.93 153.53C86.81 154.39 85.82 155.41 85 156.55C84.92 156.69 84.87 156.83 84.85 156.98C84.83 157.14 84.84 157.29 84.88 157.44C84.92 157.59 84.99 157.72 85.09 157.84C85.18 157.96 85.3 158.07 85.43 158.14C85.7 158.27 86 158.3 86.28 158.22C86.57 158.14 86.81 157.96 86.97 157.71L87.31 157.28L87.98 156.55C88.48 156.15 88.96 155.71 89.42 155.26C89.53 155.12 89.66 154.99 89.8 154.87L90.24 154.59C90.49 154.41 90.7 154.18 90.86 153.91C90.89 153.75 90.89 153.59 90.86 153.43C90.97 153.07 90.97 152.69 90.86 152.33Z" fill="#FFFFFF" fill-opacity="1.000000" fill-rule="nonzero"/>
	<path id="Vector" d="M115.5 168.56L114.83 168.28L114.54 168.28C114.06 167.89 113.63 167.46 113.15 167.12C112.67 166.79 110.65 165.83 109.5 165.06C109.29 164.95 109.04 164.92 108.81 164.98C108.58 165.05 108.38 165.19 108.25 165.39C108.14 165.61 108.11 165.85 108.18 166.08C108.24 166.31 108.38 166.51 108.59 166.64C109.84 167.41 111.23 167.84 112.38 168.66L112.96 169.14L113.73 169.72C114.26 170.1 114.9 170.3 115.55 170.29C116.08 169.91 116.32 168.76 115.5 168.56Z" fill="#FFFFFF" fill-opacity="1.000000" fill-rule="nonzero"/>
	<path id="Vector" d="M123.67 249.56C123.23 249.53 122.78 249.61 122.38 249.78C121.97 249.96 121.6 250.23 121.32 250.56C121.27 250.72 121.27 250.89 121.32 251.04C121.32 251.15 121.35 251.26 121.4 251.36C121.45 251.46 121.52 251.55 121.6 251.62C121.75 251.76 121.94 251.83 122.13 251.83C122.33 251.83 122.52 251.76 122.66 251.62L123 251.28L123.33 251.28L123.77 251.28C123.89 251.31 124.02 251.31 124.15 251.28C124.19 251.16 124.19 251.02 124.15 250.9C124.33 250.84 124.47 250.7 124.56 250.53C124.64 250.36 124.65 250.17 124.58 249.99C124.52 249.81 124.39 249.66 124.22 249.58C124.04 249.5 123.85 249.49 123.67 249.56Z" fill="#FFFFFF" fill-opacity="1.000000" fill-rule="nonzero"/>
	<path id="Vector" d="M158.06 219.77L157.3 219.77L156.91 219.77L156.58 219.53L156.34 219.53L155.52 219C154.98 218.65 154.4 218.38 153.79 218.19C153.05 217.99 152.27 217.99 151.53 218.19C151.28 218.26 151.06 218.44 150.92 218.67C150.79 218.9 150.75 219.17 150.81 219.44C150.89 219.69 151.06 219.91 151.29 220.04C151.53 220.18 151.8 220.22 152.06 220.16L152.73 220.16L153.5 220.16L153.84 220.16L154.61 220.64C155.13 220.99 155.72 221.22 156.35 221.31C156.97 221.41 157.61 221.35 158.21 221.16C158.34 221.11 158.46 221.02 158.53 220.9C158.61 220.78 158.65 220.64 158.64 220.49C158.66 220.41 158.67 220.32 158.65 220.23C158.63 220.14 158.59 220.06 158.53 219.99C158.48 219.92 158.41 219.86 158.32 219.82C158.24 219.79 158.15 219.77 158.06 219.77Z" fill="#FFFFFF" fill-opacity="1.000000" fill-rule="nonzero"/>
	<path id="Vector" d="M179.01 207.62C178.8 207.4 178.53 207.25 178.24 207.19L177.71 207.19C177.35 207.14 176.97 207.14 176.61 207.19C176.13 207.28 175.66 207.42 175.21 207.62L174.54 207.91L174.21 207.91C173.78 208.12 173.35 208.31 172.91 208.48C172.78 208.53 172.68 208.62 172.6 208.73C172.53 208.84 172.49 208.97 172.49 209.11C172.49 209.24 172.53 209.37 172.6 209.48C172.68 209.6 172.78 209.68 172.91 209.73L174.21 210.02C174.7 210.09 175.2 210.09 175.69 210.02L176.94 210.02L177.52 210.02L177.81 210.02L178.14 210.02L178.58 210.02C178.73 209.98 178.87 209.92 178.99 209.83C179.11 209.74 179.22 209.62 179.3 209.49C179.55 209.45 179.77 209.32 179.92 209.12C180.07 208.91 180.13 208.66 180.09 208.41C180.05 208.16 179.92 207.94 179.71 207.79C179.51 207.64 179.26 207.58 179.01 207.62Z" fill="#FFFFFF" fill-opacity="1.000000" fill-rule="nonzero"/>
	<path id="Vector" d="M191.21 198.64C191.18 198.55 191.13 198.48 191.06 198.42C190.99 198.36 190.91 198.32 190.83 198.3L189 198.3C188.88 198.3 188.76 198.32 188.65 198.37C188.55 198.42 188.45 198.49 188.38 198.59C188.23 198.74 188.14 198.95 188.14 199.16C188.13 199.39 188.22 199.62 188.38 199.79C188.58 199.85 188.8 199.85 189 199.79L190.39 199.79L190.83 199.79C190.96 199.72 191.07 199.62 191.16 199.5C191.2 199.43 191.22 199.36 191.22 199.28C191.22 199.21 191.2 199.13 191.16 199.07C191.2 199 191.23 198.93 191.24 198.86C191.25 198.78 191.24 198.71 191.21 198.64Z" fill="#FFFFFF" fill-opacity="1.000000" fill-rule="nonzero"/>
	<path id="Vector" d="M202.84 222.85C202.7 222.47 202.49 222.12 202.21 221.84L201.44 221.26C201.05 220.94 200.63 220.65 200.19 220.4L198.94 219.58L198.66 219.34L198.03 218.81C197.83 218.64 197.57 218.55 197.31 218.56C197.04 218.57 196.79 218.68 196.6 218.87C196.42 219.06 196.31 219.31 196.3 219.57C196.28 219.84 196.37 220.1 196.54 220.3C197.22 221.05 197.96 221.74 198.75 222.37L200.15 223.42L200.43 223.42C200.43 223.42 200.87 223.86 201.15 223.9L201.54 223.9C201.72 223.95 201.91 223.95 202.1 223.91C202.28 223.87 202.45 223.78 202.6 223.66C202.78 223.43 202.86 223.14 202.84 222.85Z" fill="#FFFFFF" fill-opacity="1.000000" fill-rule="nonzero"/>
	<path id="Vector" d="M205.77 211.65C205.69 211.58 205.58 211.54 205.48 211.54C205.37 211.54 205.27 211.58 205.19 211.65L204.9 211.65L204.61 211.65L203.94 211.65L203.6 211.65L202.74 211.65C202.57 211.61 202.4 211.63 202.25 211.71C202.09 211.79 201.98 211.92 201.92 212.09C201.9 212.17 201.9 212.25 201.91 212.34C201.92 212.42 201.95 212.5 202 212.57C202.04 212.65 202.1 212.71 202.17 212.76C202.24 212.8 202.32 212.84 202.4 212.85C203.02 213.02 203.66 213.02 204.28 212.85L205.05 212.47L205.48 212.09C205.49 211.94 205.49 211.8 205.48 211.65C205.57 211.69 205.67 211.69 205.77 211.65Z" fill="#FFFFFF" fill-opacity="1.000000" fill-rule="nonzero"/>
	<path id="Vector" d="M212.16 203.05L211.77 203.05L211.34 202.62C210.76 202.05 210.33 201.42 209.75 200.85C209.68 200.76 209.59 200.7 209.49 200.65C209.39 200.61 209.29 200.58 209.18 200.58C209.07 200.58 208.96 200.61 208.86 200.65C208.76 200.7 208.67 200.76 208.6 200.85C208.45 201 208.36 201.21 208.36 201.42C208.36 201.64 208.45 201.85 208.6 202C209.22 202.57 209.71 203.25 210.38 203.82C210.71 204.13 211.08 204.39 211.48 204.59L212.2 204.83C212.39 204.88 212.59 204.88 212.78 204.83L213.07 204.83C213.3 204.71 213.48 204.5 213.56 204.25C213.64 204 213.62 203.72 213.5 203.49C213.38 203.25 213.17 203.07 212.92 202.99C212.66 202.91 212.39 202.93 212.16 203.05Z" fill="#FFFFFF" fill-opacity="1.000000" fill-rule="nonzero"/>
	<path id="Vector" d="M223.54 246.67L223.16 246.67C222.98 246.62 222.8 246.62 222.63 246.67L217.82 246.67C217.61 246.67 217.4 246.76 217.25 246.91C217.09 247.07 217.01 247.27 217.01 247.49C217.02 247.7 217.11 247.9 217.26 248.05C217.41 248.2 217.61 248.29 217.82 248.31L223.16 248.31L223.64 248.07C223.76 248 223.87 247.89 223.94 247.76C224.01 247.63 224.04 247.49 224.03 247.34C224.02 247.19 223.97 247.05 223.88 246.93C223.8 246.82 223.68 246.72 223.54 246.67Z" fill="#FFFFFF" fill-opacity="1.000000" fill-rule="nonzero"/>
	<path id="Vector" d="M230.12 232.93L229.3 232.93C228.63 232.93 228.01 232.93 227.33 232.93C227.12 232.93 226.91 233.02 226.76 233.17C226.6 233.33 226.52 233.53 226.52 233.75C226.53 233.96 226.62 234.16 226.77 234.32C226.92 234.47 227.12 234.56 227.33 234.57C228.1 234.64 228.87 234.64 229.64 234.57C230.05 234.51 230.44 234.35 230.78 234.12C231.12 233.89 231.4 233.58 231.61 233.22C231.51 233.13 230.65 232.41 230.12 232.93Z" fill="#FFFFFF" fill-opacity="1.000000" fill-rule="nonzero"/>
	<path id="Vector" d="M240.26 247.92L238.77 246.48C238.45 246.2 238.11 245.94 237.76 245.71L236.75 245.18C235.43 244.47 233.97 244.03 232.47 243.89C231.75 243.89 231.56 245.04 232.47 245.14C233.79 245.42 235.05 245.94 236.17 246.67L237.09 247.3L238.05 247.73C238.67 248.02 239.25 248.35 239.82 248.69C239.92 248.7 240.01 248.68 240.09 248.64C240.18 248.6 240.25 248.53 240.29 248.45C240.34 248.37 240.36 248.27 240.35 248.18C240.35 248.09 240.31 248 240.26 247.92Z" fill="#FFFFFF" fill-opacity="1.000000" fill-rule="nonzero"/>
	<path id="Vector" d="M173.34 136.96L172.96 136.96C172.77 136.91 172.57 136.91 172.38 136.96L171.37 136.96C170.73 137.15 170.16 137.54 169.74 138.06C169.65 138.14 169.58 138.24 169.53 138.34C169.48 138.45 169.45 138.57 169.45 138.68C169.45 138.8 169.47 138.92 169.52 139.03C169.57 139.14 169.64 139.23 169.74 139.31C169.81 139.4 169.91 139.47 170.02 139.52C170.13 139.57 170.24 139.6 170.36 139.6C170.48 139.6 170.6 139.57 170.71 139.52C170.81 139.47 170.91 139.4 170.99 139.31L171.37 138.97L171.71 138.73L172.19 138.73L172.62 138.73C172.86 138.78 173.1 138.78 173.34 138.73C173.45 138.76 173.57 138.76 173.68 138.73C173.71 138.59 173.71 138.44 173.68 138.3C173.79 138.21 173.87 138.09 173.92 137.95C173.96 137.81 173.97 137.66 173.93 137.52C173.9 137.38 173.82 137.25 173.72 137.15C173.61 137.05 173.48 136.98 173.34 136.96Z" fill="#FFFFFF" fill-opacity="1.000000" fill-rule="nonzero"/>
	<path id="Vector" d="M150.62 120.29C150.09 120.29 149.51 120.29 148.94 120.29L147.4 120.29C146.42 120.15 145.47 119.87 144.57 119.47C144.46 119.41 144.34 119.38 144.22 119.36C144.1 119.35 143.98 119.36 143.86 119.4C143.74 119.43 143.64 119.49 143.54 119.57C143.45 119.65 143.37 119.75 143.32 119.85C143.27 119.97 143.25 120.09 143.26 120.21C143.26 120.33 143.29 120.45 143.35 120.56C143.4 120.67 143.48 120.76 143.57 120.84C143.67 120.92 143.78 120.98 143.89 121.01C144.96 121.46 146.1 121.74 147.26 121.82C148.38 121.92 149.5 121.92 150.62 121.82C150.82 121.82 151.02 121.74 151.16 121.6C151.31 121.45 151.39 121.26 151.39 121.06C151.39 120.85 151.31 120.66 151.16 120.51C151.02 120.37 150.82 120.29 150.62 120.29Z" fill="#FFFFFF" fill-opacity="1.000000" fill-rule="nonzero"/>
	<path id="Vector" d="M155.9 111.02L155.57 110.78C155.35 110.71 155.11 110.71 154.89 110.78C154.68 110.96 154.44 111.11 154.17 111.21L153.79 111.21L153.21 111.21L152.35 111.21C152.22 111.2 152.1 111.23 151.98 111.28C151.86 111.33 151.76 111.4 151.67 111.5C151.57 111.57 151.49 111.67 151.44 111.79C151.39 111.91 151.37 112.04 151.39 112.17C151.38 112.3 151.41 112.43 151.46 112.56C151.5 112.68 151.58 112.8 151.67 112.89C151.83 112.94 152 112.94 152.16 112.89C152.76 113.01 153.38 113.01 153.98 112.89L154.51 112.65C154.7 112.58 154.86 112.47 154.99 112.31C155.24 112.1 155.46 111.85 155.66 111.59C155.71 111.42 155.71 111.24 155.66 111.06C155.75 111.06 155.83 111.04 155.9 111.02Z" fill="#FFFFFF" fill-opacity="1.000000" fill-rule="nonzero"/>
	<path id="Vector" d="M211.24 121.06L210.86 121.06L210.28 121.06C209.89 121.02 209.5 120.94 209.13 120.81C208.41 120.55 207.72 120.21 207.06 119.81C205.78 118.93 204.59 117.94 203.51 116.83C203.34 116.66 203.1 116.56 202.86 116.56C202.62 116.56 202.38 116.66 202.21 116.83C202.04 117 201.94 117.23 201.94 117.48C201.94 117.72 202.04 117.95 202.21 118.12C203.42 119.42 204.76 120.59 206.2 121.63C206.97 122.16 207.81 122.58 208.7 122.88C209.6 123.19 210.58 123.19 211.48 122.88C211.72 122.85 211.94 122.72 212.09 122.53C212.24 122.33 212.31 122.09 212.27 121.85C212.24 121.61 212.12 121.39 211.92 121.24C211.73 121.09 211.48 121.02 211.24 121.06Z" fill="#FFFFFF" fill-opacity="1.000000" fill-rule="nonzero"/>
	<path id="Vector" d="M50.89 193.93C50.82 193.83 50.73 193.75 50.62 193.69C50.51 193.64 50.39 193.61 50.27 193.61C50.15 193.61 50.03 193.64 49.92 193.69C49.81 193.75 49.72 193.83 49.64 193.93L49.21 194.55L48.83 195.18C48.65 195.47 48.44 195.74 48.2 195.99L47.91 196.47L47.34 197.29L47.05 197.72L46.52 198.3L46.52 198.54C46.29 198.7 46.12 198.94 46.04 199.21C45.97 199.49 46.01 199.78 46.14 200.03C46.29 200.27 46.53 200.45 46.8 200.52C47.08 200.59 47.38 200.55 47.63 200.41C48.42 199.81 49.1 199.08 49.64 198.25C49.98 197.77 50.32 197.34 50.6 196.86C50.92 196.34 51.18 195.8 51.37 195.22L51.37 194.55C51.27 194.31 51.1 194.09 50.89 193.93Z" fill="#FFFFFF" fill-opacity="1.000000" fill-rule="nonzero"/>
	<path id="Vector" d="M45.75 200.27L45.27 200.27L44.89 200.27L44.55 199.93C44.53 199.77 44.53 199.61 44.55 199.45C44.55 199.45 44.55 199.45 44.55 199.21C44.55 199.05 44.49 198.89 44.37 198.77C44.25 198.65 44.09 198.59 43.93 198.59C43.76 198.59 43.6 198.65 43.49 198.77C43.37 198.89 43.3 199.05 43.3 199.21C43.28 199.31 43.28 199.41 43.3 199.5C43.26 199.71 43.26 199.92 43.3 200.12C43.36 200.38 43.45 200.62 43.59 200.85C43.77 201.24 44.01 201.59 44.31 201.9C44.65 202.19 45.02 202.43 45.42 202.62L45.99 202.62L46.28 202.62C46.52 202.67 46.76 202.67 47 202.62C47.12 202.58 47.21 202.5 47.28 202.39C47.35 202.29 47.39 202.17 47.39 202.05C47.39 201.92 47.35 201.8 47.28 201.7C47.21 201.6 47.12 201.52 47 201.47L45.75 200.27Z" fill="#FFFFFF" fill-opacity="1.000000" fill-rule="nonzero"/>
	<path id="Vector" d="M108.78 190.13C108.29 190.17 107.82 190.36 107.43 190.66C106.94 190.97 106.47 191.33 106.04 191.72C105.22 192.39 104.46 193.16 103.64 193.78C103.56 193.86 103.51 193.94 103.47 194.04C103.43 194.13 103.4 194.23 103.4 194.34C103.4 194.44 103.43 194.54 103.47 194.64C103.51 194.73 103.56 194.82 103.64 194.89C103.79 195.01 103.97 195.08 104.17 195.08C104.36 195.08 104.55 195.01 104.7 194.89L106.86 192.73L107.43 192.2L107.72 191.91C108.06 191.62 108.44 191.43 108.78 191.19C108.92 191.19 109.05 191.13 109.15 191.03C109.25 190.94 109.31 190.8 109.31 190.66C109.31 190.52 109.25 190.39 109.15 190.29C109.05 190.19 108.92 190.13 108.78 190.13Z" fill="#FFFFFF" fill-opacity="1.000000" fill-rule="nonzero"/>
	<path id="Vector" d="M128.43 146.71C127.93 146.39 127.42 146.1 126.89 145.84C126.38 145.57 125.85 145.34 125.3 145.17C124.15 144.9 122.95 144.9 121.8 145.17C121.8 145.17 121.8 145.17 121.8 145.46C122.93 145.61 124.04 145.88 125.11 146.27C126.17 146.56 127.22 147 128.28 147.38C128.52 147.24 128.67 146.85 128.43 146.71Z" fill="#FFFFFF" fill-opacity="1.000000" fill-rule="nonzero"/>
	<path id="Vector" d="M290.74 218.19L289.74 217.75L288.92 217.47L288.49 217.47L287.72 217.18C287.2 216.97 286.67 216.81 286.13 216.7L285.07 216.7C284.68 216.73 284.29 216.81 283.92 216.94C283.78 216.99 283.65 217.09 283.56 217.22C283.47 217.35 283.42 217.5 283.42 217.66C283.42 217.82 283.47 217.97 283.56 218.1C283.65 218.23 283.78 218.32 283.92 218.38C284.24 218.45 284.54 218.54 284.84 218.67L285.7 218.67L286.13 218.67L286.85 219.05C287.41 219.36 287.99 219.61 288.58 219.82L289.35 219.82C289.79 219.94 290.26 219.94 290.7 219.82C290.85 219.75 290.98 219.64 291.07 219.49C291.17 219.35 291.22 219.19 291.23 219.02C291.23 218.85 291.19 218.68 291.1 218.53C291.02 218.39 290.89 218.27 290.74 218.19Z" fill="#FFFFFF" fill-opacity="1.000000" fill-rule="nonzero"/>
	<path id="Vector" d="M104.41 128.79C103.8 128.62 103.17 128.53 102.53 128.55C102.23 128.48 101.92 128.48 101.62 128.55L101.09 128.89C100.25 129.46 99.45 130.08 98.69 130.76C98.69 130.76 99.7 130.13 100.23 129.89C100.56 129.7 100.95 129.6 101.33 129.61L101.86 129.61C101.91 129.63 101.97 129.64 102.03 129.64C102.09 129.64 102.15 129.63 102.2 129.61L102.58 129.61C103.17 129.53 103.75 129.4 104.31 129.22C104.37 129.17 104.41 129.1 104.43 129.02C104.44 128.94 104.44 128.86 104.41 128.79Z" fill="#FFFFFF" fill-opacity="1.000000" fill-rule="nonzero"/>
</svg>
