<svg width="261.877045" height="243.746948" viewBox="0 0 261.877 243.747" fill="none" xmlns="http://www.w3.org/2000/svg" xmlns:xlink="http://www.w3.org/1999/xlink">
	<desc>
			Created with Pixso.
	</desc>
	<defs/>
	<path id="Vector" d="M2.04 161.1C1.78 161.98 1.71 162.91 1.84 163.81C1.97 164.7 2.3 165.55 2.8 166.28C3.3 167.02 3.96 167.61 4.73 168.03C5.5 168.45 6.35 168.67 7.23 168.69C10.12 168.41 12.88 167.17 15.08 165.14C15.89 164.7 16.66 164.19 17.39 163.6C19.94 161.22 22.62 158.99 25.42 156.91C28.29 155.02 31.16 153.12 34.04 151.09C34.91 150.81 35.77 150.48 36.61 150.27C41.31 149.1 44.5 146.08 48.94 144.62C52.76 143.67 56.44 142.11 59.84 140C65.46 140.42 71.14 139.63 76.54 137.68C79.84 136.33 83.44 136.18 86.76 137.26C89.35 138.24 92 139.06 94.69 139.72C98.9 141.08 101.68 145.65 104.86 148.65C107.01 150.92 109.28 153.07 111.65 155.08C114.02 156.5 116.54 157.65 119.17 158.5C122.32 159.75 124.18 162.45 127.12 163.92C131.42 166.02 136.02 163.6 140.38 162.56C143.46 161.86 146.47 162.51 149.57 161.73C152.73 160.5 156 159.65 159.31 159.2C159.75 159.37 160.02 158.27 159.46 158.19C155.14 157.42 151 160.6 146.64 160.79C144.25 160.74 141.85 160.94 139.48 161.4C136.67 162.47 133.74 163.08 130.78 163.23C128.03 162.72 125.54 161.28 123.71 159.14C121.33 157.61 118.83 156.28 116.24 155.16C110.45 151.89 105.83 145.33 101.43 140.38C97.83 136.28 92.89 135.27 88.64 132.16C86.84 131.05 84.81 130.36 82.69 130.16C80.57 129.95 78.42 130.23 76.39 130.97C72.34 131.87 68.69 133.28 64.79 133.93C66.24 131.19 67.33 128.27 68 125.25C68.95 119.57 71.85 114.37 76.16 110.63C80.82 106.45 85.23 101.95 89.97 97.89C92.01 96.35 94.14 94.97 96.36 93.76C98.07 92.32 99.51 90.55 100.61 88.57C100.87 87.92 101.55 87.38 102.03 86.81C104.33 85.01 106.45 82.98 108.37 80.75L108.86 80.15C109.77 79.57 110.8 79.24 111.85 79.21C112.91 79.17 113.94 79.41 114.85 79.92C122.07 82.96 129.84 84.51 137.72 84.5C138.13 84.98 138.59 85.42 138.98 85.94C144.13 91.67 150.38 96.24 157.35 99.35C163.89 102.87 168.04 100.73 173.97 96.46C174.83 95.6 175.85 94.93 176.96 94.48C178.08 94.03 179.26 93.83 180.43 93.87C181.61 93.92 182.75 94.22 183.8 94.75C184.84 95.28 185.76 96.03 186.5 96.96C189.28 99.25 192.31 101.18 195.55 102.72C195.68 102.73 195.81 102.7 195.93 102.63C196.04 102.56 196.13 102.45 196.18 102.32C196.23 102.19 196.24 102.05 196.2 101.92C196.17 101.79 196.1 101.68 195.99 101.6C193.25 99.59 190.68 97.34 188.29 94.9C186.84 93 184.96 91.49 182.82 90.5C178.36 89.01 174.36 91.62 170.63 94.61C169.22 95.98 167.47 96.91 165.59 97.27C163.71 97.63 161.8 97.41 160.07 96.64C157.07 95.07 154.17 93.3 151.4 91.33C148.19 89.71 145.26 87.58 142.69 85.04L142.35 84.59L145.75 84.69C149.69 85.31 153.75 84.7 157.43 82.92C158.7 82.02 159.87 80.99 160.94 79.85C163.32 77.88 165.99 76.33 168.83 75.25C173.84 72.77 175.93 67.35 182.11 67.38C188.29 67.42 193.12 71.73 198.21 74.19C202.99 76.65 208.08 78.41 213.37 79.42C216.22 79.54 219.09 79.45 221.95 79.16C224.34 79.12 226.44 80.26 228.79 80.43C232.13 80.68 235.34 80.39 238.72 80.96C241.04 81.49 243.44 81.61 245.83 81.32C251.28 80.69 256.66 79.42 261.87 77.54C257.08 78.89 252.19 79.8 247.27 80.24C241.66 81.15 236.08 79.16 230.48 79.05C227.94 79.03 225.86 77.98 223.37 77.71C221.26 77.72 219.15 77.84 217.04 78.06C210.75 77.53 204.69 75.6 199.25 72.42C192.07 69.13 184.22 61.74 175.75 66.52C174.21 67.5 172.81 68.73 171.61 70.14C169.35 72.04 166.77 73.46 164.01 74.33C160.04 76.01 156.58 79.73 152.32 80.1C147.26 80.25 142.21 79.84 137.27 78.88L137.05 78.79C132.03 74.76 126.33 71.71 120.22 69.78C118.56 69.02 116.73 68.75 114.91 69.01C113.09 69.26 111.35 70.03 109.89 71.23C110.05 70.8 110.41 70.54 110.65 70.14C114.15 64.52 116.57 55.17 122.57 52.01C125.08 50.84 127.49 49.45 129.77 47.85C132.42 45.99 135.48 44.89 138.63 44.66C143.55 43.66 148.11 41.11 151.68 37.38C151.77 37.28 151.83 37.15 151.84 37.02C151.85 36.88 151.82 36.75 151.75 36.64C151.67 36.54 151.57 36.46 151.44 36.43C151.32 36.39 151.19 36.41 151.07 36.46C148.45 38.23 145.72 39.82 142.91 41.22C140.35 42.19 137.67 42.77 134.97 42.95C132.44 43.51 130.05 44.72 128.03 46.45C125.49 48.39 122.5 49.18 119.99 51.04C115.12 54.65 112.88 61.93 110.02 67.13C107.16 72.33 102.27 76.02 99.04 80.64C97.12 81.85 95.01 82.68 92.81 83.08C89.46 83.63 86.23 84.72 82.88 85.36C80.42 85.68 78.08 86.78 76.2 88.52C71.97 92.78 72.15 98.78 70.1 103.95C69.97 104.4 69.79 104.84 69.58 105.26C69.4 104.84 69.11 104.48 68.75 104.21C68.39 103.94 67.96 103.78 67.52 103.73C67.07 103.68 66.61 103.75 66.19 103.94C65.77 104.12 65.39 104.42 65.11 104.79C62.85 107.38 62.15 110.67 59.81 113.04C57.32 115.62 54.57 117.9 51.61 119.84C45.16 124.24 39.19 129.36 33.82 135.12C27.8 140.47 21.47 145.42 14.86 149.93C12.91 151.95 10.61 153.57 8.09 154.71C6.68 155.21 5.39 156.05 4.34 157.16C3.28 158.28 2.5 159.63 2.04 161.1ZM128.37 77.59L129.21 77.93C125.27 77.66 121.43 76.63 117.9 74.88C117.06 74.55 116.38 74.01 115.7 73.7C119.86 72.94 125.43 75.9 128.37 77.59ZM86.98 91.93C86.46 92.3 85.96 92.69 85.47 93.07C81.95 95.87 78.68 99 75.29 101.99C76.1 100.11 77.06 98.29 78.16 96.56C80.66 93.13 83.71 92.69 87.17 92L86.98 91.93ZM58.77 129.19C58.15 130.6 57.24 131.86 56.11 132.88C54.97 133.9 53.64 134.64 52.2 135.07C51.49 135.05 51.18 135.29 51.56 134.45C54.05 132.54 56.37 130.96 58.95 129.26L58.77 129.19Z" fill="#EEDAAE" fill-opacity="1.000000" fill-rule="nonzero"/>
	<path id="Vector" d="M171.43 116.19C171.43 115.91 171.43 115.64 171.43 115.36C171.43 114.79 171.43 114.23 171.43 113.68C171.44 113.53 171.43 113.38 171.4 113.24C171.36 113.1 171.3 112.97 171.23 112.86C171.15 112.75 171.06 112.66 170.96 112.6C170.85 112.54 170.74 112.51 170.63 112.51C170.52 112.51 170.4 112.54 170.3 112.6C170.2 112.66 170.11 112.75 170.03 112.86C169.95 112.97 169.9 113.1 169.86 113.24C169.83 113.38 169.82 113.53 169.83 113.68C169.83 113.93 169.83 114.19 169.83 114.44C169.83 114.7 169.83 114.67 169.78 114.78C169.68 115.28 169.63 115.79 169.63 116.3C169.63 116.39 169.63 116.49 169.63 116.58C169.63 116.68 169.63 116.69 169.63 116.77C169.52 116.97 169.46 117.2 169.46 117.44C169.46 117.69 169.52 117.92 169.63 118.12C169.68 118.25 169.76 118.35 169.85 118.42C169.95 118.49 170.06 118.52 170.18 118.51C170.29 118.49 170.39 118.43 170.48 118.34C170.56 118.25 170.63 118.12 170.66 117.98C170.83 117.97 170.99 117.9 171.13 117.76C171.27 117.62 171.37 117.43 171.42 117.22C171.47 116.88 171.47 116.53 171.43 116.19Z" fill="#FFFFFF" fill-opacity="1.000000" fill-rule="nonzero"/>
	<path id="Vector" d="M158.34 114.21C158.23 114.04 158.16 113.85 158.05 113.69L157.85 113.42L157.67 113.16C157.67 113.16 157.54 112.99 157.5 112.94C157.47 112.88 157.33 112.6 157.17 112.54C156.99 112.47 156.8 112.47 156.63 112.54C156.41 112.17 156.1 111.86 155.75 111.63C155.6 111.54 155.44 111.5 155.27 111.51C155.1 111.52 154.93 111.59 154.8 111.7C154.66 111.81 154.56 111.96 154.51 112.13C154.45 112.3 154.44 112.48 154.48 112.65C154.62 113.05 154.8 113.42 155.01 113.76C155.2 114.07 155.39 114.38 155.55 114.7L155.55 114.8L155.55 114.94L155.66 115.15C155.73 115.29 155.8 115.45 155.88 115.59C155.98 115.77 156.1 115.94 156.22 116.1C156.39 116.3 156.61 116.44 156.86 116.49C156.95 116.52 157.04 116.52 157.12 116.5C157.21 116.48 157.29 116.43 157.35 116.38C157.42 116.32 157.48 116.25 157.51 116.16C157.55 116.08 157.57 115.99 157.56 115.89L157.71 115.89C157.86 115.87 158.01 115.81 158.12 115.7C158.24 115.59 158.32 115.45 158.36 115.29C158.43 115.12 158.46 114.94 158.46 114.75C158.45 114.56 158.41 114.38 158.34 114.21Z" fill="#FFFFFF" fill-opacity="1.000000" fill-rule="nonzero"/>
	<path id="Vector" d="M150.01 87.58C149.75 87.43 149.49 87.29 149.22 87.17C149.14 87.04 149.04 86.93 148.91 86.85C148.79 86.77 148.64 86.73 148.5 86.73L148.34 86.73C148.23 86.58 148.09 86.46 147.94 86.36C147.46 86.1 146.92 86 146.39 86.07L145.83 85.79C145.3 85.51 144.69 85.44 144.11 85.59C143.94 85.64 143.79 85.75 143.68 85.89C143.57 86.04 143.49 86.22 143.47 86.4C143.44 86.59 143.47 86.79 143.55 86.96C143.62 87.13 143.74 87.28 143.9 87.38C144.76 87.88 145.7 88.24 146.66 88.44L146.85 88.54C147.78 89.04 149.28 90.1 150.21 89.08C150.3 88.98 150.37 88.85 150.41 88.71C150.46 88.57 150.47 88.42 150.45 88.28C150.43 88.13 150.38 87.99 150.3 87.87C150.23 87.75 150.12 87.65 150.01 87.58Z" fill="#FFFFFF" fill-opacity="1.000000" fill-rule="nonzero"/>
	<path id="Vector" d="M144.45 112.08C144.46 111.96 144.46 111.83 144.45 111.7C144.46 111.58 144.46 111.46 144.45 111.34C144.38 111.21 144.3 111.09 144.21 110.98C144.15 110.89 144.07 110.82 143.97 110.76C143.88 110.71 143.77 110.67 143.65 110.65C143.53 110.57 143.38 110.52 143.23 110.51C143.11 110.51 143 110.53 142.89 110.58C142.79 110.63 142.71 110.7 142.66 110.79C142.61 110.86 142.58 110.94 142.55 111.02L142.55 111.14C142.55 111.23 142.55 111.32 142.55 111.41L142.63 111.25C142.51 111.43 142.45 111.64 142.46 111.84C142.46 111.84 142.46 111.92 142.46 111.96C142.46 112.24 142.46 112.52 142.46 112.79C142.46 112.98 142.55 113.16 142.71 113.29C142.87 113.42 143.08 113.5 143.31 113.5L143.48 113.5C143.68 113.53 143.88 113.49 144.05 113.4C144.22 113.31 144.34 113.17 144.39 113C144.4 112.95 144.4 112.89 144.39 112.83C144.39 112.57 144.45 112.31 144.45 112.08Z" fill="#FFFFFF" fill-opacity="1.000000" fill-rule="nonzero"/>
	<path id="Vector" d="M155.2 120.69C155.09 120.61 154.97 120.55 154.84 120.52C154.74 120.51 154.65 120.51 154.56 120.52L154.42 120.52L154.31 120.52C154.23 120.51 154.15 120.52 154.07 120.54C154 120.57 153.93 120.61 153.87 120.66C153.85 120.7 153.83 120.72 153.79 120.75C153.74 120.76 153.69 120.78 153.65 120.81L153.05 120.81C152.95 120.81 152.85 120.85 152.78 120.91C152.7 120.98 152.66 121.07 152.66 121.17C152.67 121.24 152.7 121.3 152.75 121.36L152.64 121.43C152.52 121.54 152.46 121.69 152.46 121.85C152.46 122 152.52 122.15 152.64 122.27C152.72 122.38 152.85 122.46 152.99 122.49C153.17 122.53 153.36 122.51 153.52 122.43C153.8 122.3 154.06 122.14 154.3 121.96L154.47 121.86C154.6 121.82 154.74 121.78 154.88 121.76L154.7 121.76C154.86 121.76 155.01 121.73 155.15 121.66C155.23 121.61 155.31 121.55 155.36 121.48C155.41 121.4 155.44 121.32 155.45 121.23C155.47 121.13 155.45 121.03 155.4 120.93C155.36 120.84 155.29 120.75 155.2 120.69Z" fill="#FFFFFF" fill-opacity="1.000000" fill-rule="nonzero"/>
	<path id="Vector" d="M177.41 98.35C177.42 98.19 177.42 98.03 177.41 97.88C177.41 97.67 177.37 97.48 177.35 97.27L177.35 97.03L177.35 96.93C177.35 96.82 177.35 96.71 177.35 96.59C177.37 96.55 177.38 96.5 177.38 96.44C177.38 96.39 177.37 96.34 177.35 96.3C177.35 96.08 177.3 95.88 177.21 95.74C177.13 95.59 177.02 95.51 176.91 95.51C176.79 95.51 176.68 95.6 176.59 95.75C176.51 95.9 176.46 96.11 176.46 96.33C176.46 96.71 176.46 97.07 176.46 97.44C176.46 97.53 176.46 97.62 176.46 97.72L176.46 98.68C176.46 98.9 176.51 99.11 176.59 99.26C176.68 99.42 176.79 99.51 176.91 99.51C176.99 99.5 177.08 99.45 177.15 99.36C177.22 99.27 177.28 99.14 177.32 99C177.38 98.91 177.43 98.78 177.46 98.64L177.46 98.35L177.41 98.35Z" fill="#FFFFFF" fill-opacity="1.000000" fill-rule="nonzero"/>
	<path id="Vector" d="M180.36 78.3C180.45 78.18 180.48 78.04 180.44 77.9C180.39 77.77 180.28 77.66 180.13 77.59L179.97 77.59L179.59 77.52C179.39 77.51 179.19 77.51 178.99 77.52C178.8 77.51 178.61 77.51 178.41 77.52L178.24 77.52C178.12 77.52 178 77.54 177.89 77.58C177.79 77.62 177.69 77.67 177.62 77.74C177.55 77.82 177.5 77.91 177.48 78C177.45 78.11 177.45 78.22 177.49 78.32C177.52 78.43 177.59 78.52 177.69 78.6C177.84 78.72 178.02 78.81 178.22 78.87C178.49 79.07 178.79 79.26 179.1 79.42C179.23 79.48 179.39 79.51 179.54 79.51C179.69 79.51 179.84 79.48 179.98 79.42C180.11 79.36 180.22 79.28 180.3 79.17C180.37 79.07 180.42 78.96 180.42 78.84C180.42 78.7 180.38 78.56 180.32 78.43L180.36 78.3Z" fill="#FFFFFF" fill-opacity="1.000000" fill-rule="nonzero"/>
	<path id="Vector" d="M204.45 69.53C204.44 69.35 204.39 69.17 204.3 69.03C204.2 68.89 204.08 68.78 203.93 68.72L203.49 68.61C203.28 68.57 203.06 68.54 202.84 68.52C202.47 68.49 202.09 68.53 201.73 68.65C201.56 68.71 201.41 68.84 201.3 69.01C201.2 68.99 201.1 68.99 201 69.01C200.81 69.07 200.65 69.22 200.56 69.43C200.46 69.63 200.43 69.87 200.48 70.09C200.52 70.24 200.59 70.37 200.68 70.47C200.77 70.58 200.89 70.65 201.01 70.69L201.45 70.8L201.25 70.8C201.51 70.85 201.76 70.92 202.01 71.02C202.25 71.22 202.5 71.37 202.78 71.48C202.95 71.53 203.13 71.52 203.29 71.44C203.46 71.36 203.6 71.22 203.69 71.04C203.76 70.92 203.81 70.79 203.84 70.65C204 70.63 204.15 70.55 204.26 70.41C204.37 70.28 204.43 70.1 204.43 69.91C204.46 69.78 204.46 69.65 204.45 69.53Z" fill="#FFFFFF" fill-opacity="1.000000" fill-rule="nonzero"/>
	<path id="Vector" d="M148.2 60.13C147.99 59.93 147.73 59.79 147.43 59.72L147.33 59.72L147.08 59.59L146.56 59.28L146.08 59.01C146.01 58.9 145.91 58.81 145.79 58.75C145.35 58.53 144.93 58.28 144.54 58C144.33 57.89 144.12 57.78 143.9 57.68C143.55 57.52 143.15 57.47 142.77 57.54C142.77 57.54 142.69 57.54 142.63 57.62C142.41 57.57 142.18 57.59 141.98 57.68C141.78 57.77 141.62 57.92 141.53 58.11C141.44 58.3 141.43 58.51 141.5 58.7C141.57 58.9 141.72 59.06 141.91 59.17C142.74 59.63 143.61 60.02 144.53 60.33L144.69 60.33L144.89 60.42C145.07 60.51 145.25 60.6 145.42 60.7C145.74 60.89 146.07 61.06 146.42 61.22C146.99 61.47 147.81 61.72 148.25 61.22C148.39 61.07 148.47 60.87 148.46 60.67C148.45 60.47 148.35 60.27 148.2 60.13Z" fill="#FFFFFF" fill-opacity="1.000000" fill-rule="nonzero"/>
	<path id="Vector" d="M137.3 62.82C137.33 62.81 137.37 62.8 137.39 62.77C137.42 62.75 137.44 62.72 137.45 62.69C137.46 62.65 137.46 62.61 137.45 62.58C137.44 62.54 137.43 62.51 137.4 62.49C137.41 62.39 137.41 62.29 137.4 62.2C137.4 61.94 137.33 61.69 137.2 61.47C137.18 61.43 137.14 61.39 137.11 61.36C137.07 61.33 137.03 61.31 136.98 61.31C136.98 61.09 136.9 60.89 136.75 60.74C136.61 60.59 136.42 60.51 136.23 60.51C136.03 60.51 135.84 60.6 135.7 60.75C135.56 60.89 135.48 61.09 135.47 61.31C135.47 62.09 135.47 62.87 135.47 63.65C135.47 64.04 135.47 64.42 135.47 64.8C135.42 65.28 135.5 65.75 135.69 66.18C135.75 66.28 135.83 66.36 135.93 66.42C136.03 66.48 136.14 66.51 136.25 66.51C136.36 66.51 136.48 66.48 136.57 66.42C136.67 66.36 136.75 66.28 136.81 66.18C137 65.79 137.08 65.36 137.03 64.93C137.13 64.86 137.2 64.77 137.25 64.66C137.31 64.55 137.33 64.43 137.33 64.31C137.33 64.02 137.33 63.75 137.25 63.46C137.17 63.17 137.25 63.17 137.25 63.02C137.26 62.95 137.27 62.88 137.3 62.82Z" fill="#FFFFFF" fill-opacity="1.000000" fill-rule="nonzero"/>
	<path id="Vector" d="M154.25 71.78C154.2 71.74 154.15 71.71 154.09 71.69C154.01 71.46 153.86 71.25 153.66 71.09C153.47 70.95 153.27 70.82 153.06 70.7C152.85 70.57 152.62 70.46 152.39 70.37L152.1 70.26L151.98 70.26L151.09 69.8C150.74 69.61 150.34 69.51 149.94 69.51C149.81 69.51 149.68 69.55 149.58 69.62C149.47 69.69 149.38 69.78 149.33 69.89C149.24 69.84 149.14 69.81 149.03 69.81C148.83 69.72 148.61 69.69 148.39 69.72C148.21 69.73 148.04 69.79 147.89 69.88C147.75 69.98 147.65 70.12 147.6 70.28C147.46 71.1 147.42 71.93 147.5 72.76C147.5 72.96 147.59 73.15 147.74 73.29C147.89 73.43 148.1 73.51 148.32 73.51C148.52 73.51 148.71 73.43 148.86 73.3C149 73.18 149.09 73 149.11 72.81C149.32 72.8 149.52 72.72 149.67 72.58C149.82 72.44 149.91 72.24 149.91 72.04C149.95 71.64 149.95 71.24 149.91 70.84L150.41 71.21L151.45 71.89C152.1 72.34 152.85 72.65 153.63 72.81C153.77 72.85 153.92 72.84 154.05 72.79C154.18 72.74 154.29 72.65 154.37 72.54C154.44 72.42 154.47 72.28 154.45 72.14C154.43 72 154.36 71.88 154.25 71.78Z" fill="#FFFFFF" fill-opacity="1.000000" fill-rule="nonzero"/>
	<path id="Vector" d="M201.42 129.53C201.34 129.25 201.21 128.99 201.05 128.76L200.86 128.61C200.77 128.52 200.67 128.44 200.57 128.37C200.38 128.23 200.16 128.14 199.94 128.1L199.68 127.96C199.63 127.86 199.57 127.77 199.48 127.71C199.3 127.59 199.1 127.5 198.89 127.43C198.26 126.99 197.54 126.73 196.8 126.67C196.67 126.68 196.55 126.73 196.45 126.81C196.38 126.77 196.32 126.72 196.26 126.66C196.17 126.56 196.05 126.51 195.93 126.51C195.8 126.51 195.68 126.56 195.59 126.66C195.5 126.76 195.46 126.9 195.46 127.04C195.46 127.18 195.5 127.32 195.59 127.43C195.84 127.74 196.16 127.97 196.51 128.09C197.06 128.55 197.68 128.88 198.35 129.05L198.57 129.13L198.69 129.13C198.89 129.22 199.09 129.32 199.28 129.44C199.66 129.62 200 129.91 200.27 130.27C200.69 130.87 201.66 130.23 201.42 129.53Z" fill="#FFFFFF" fill-opacity="1.000000" fill-rule="nonzero"/>
	<path id="Vector" d="M176.14 145.39C176.09 145.13 176 144.88 175.88 144.65C175.81 144.52 175.73 144.4 175.64 144.29C175.64 144.08 175.56 143.85 175.54 143.65L175.54 143.82C175.53 143.67 175.49 143.53 175.42 143.4L175.51 143.6C175.51 143.55 175.51 143.5 175.51 143.45C175.47 143.28 175.38 143.13 175.25 143.02C175.12 142.91 174.96 142.85 174.8 142.85C174.63 142.85 174.47 142.91 174.34 143.02C174.21 143.13 174.12 143.28 174.08 143.45C174.08 143.5 174.08 143.56 174.08 143.61C174.08 143.61 174.08 143.72 174.08 143.77L174.08 143.61C173.94 143.72 173.83 143.87 173.77 144.05C173.69 144.35 173.69 144.67 173.77 144.98C173.79 145.07 173.81 145.17 173.84 145.26C173.89 145.42 173.96 145.58 174.05 145.72C174.22 146 174.44 146.24 174.7 146.43C174.79 146.58 174.91 146.71 175.04 146.81C175.16 146.88 175.28 146.91 175.41 146.91C175.54 146.91 175.66 146.88 175.78 146.81C175.9 146.77 176 146.7 176.09 146.6C176.17 146.5 176.23 146.38 176.26 146.25C176.27 145.96 176.23 145.67 176.14 145.39Z" fill="#FFFFFF" fill-opacity="1.000000" fill-rule="nonzero"/>
	<path id="Vector" d="M174.01 143.59L174.01 143.65L174.01 143.59Z" fill="#FFFFFF" fill-opacity="1.000000" fill-rule="nonzero"/>
	<path id="Vector" d="M179.35 134.53C179.24 134.24 179.05 134 178.82 133.85C178.59 133.7 178.33 133.62 178.07 133.6C177.92 133.58 177.77 133.58 177.62 133.6L177.54 133.6L177.28 133.6C177.18 133.53 177.05 133.5 176.93 133.52C176.81 133.53 176.7 133.6 176.61 133.7C176.53 133.81 176.48 133.95 176.46 134.1C176.45 134.25 176.47 134.4 176.53 134.53C176.59 134.61 176.66 134.69 176.73 134.76C176.84 134.89 176.97 134.99 177.11 135.06C177.38 135.5 177.69 135.9 178.03 136.26C178.16 136.42 178.33 136.51 178.51 136.51C178.69 136.51 178.87 136.42 179 136.26C179.08 136.15 179.14 136 179.16 135.85C179.22 135.82 179.27 135.77 179.31 135.72C179.35 135.66 179.38 135.59 179.4 135.52C179.49 135.19 179.47 134.84 179.35 134.53Z" fill="#FFFFFF" fill-opacity="1.000000" fill-rule="nonzero"/>
	<path id="Vector" d="M156.42 175.32C156.42 175.1 156.35 174.9 156.22 174.75C156.09 174.6 155.91 174.51 155.73 174.51C155.55 174.51 155.37 174.6 155.24 174.75C155.11 174.9 155.04 175.1 155.04 175.32C155.04 175.48 155.04 175.64 155.04 175.8L155.04 176.02C154.97 176.3 154.88 176.57 154.79 176.83C154.55 177.43 154.44 178.09 154.46 178.74C154.46 178.89 154.49 179.03 154.56 179.15C154.62 179.28 154.71 179.38 154.83 179.44C154.94 179.5 155.06 179.52 155.18 179.5C155.31 179.49 155.42 179.43 155.52 179.33C155.59 179.38 155.68 179.41 155.77 179.42C155.91 179.4 156.05 179.34 156.16 179.23C156.29 178.97 156.39 178.7 156.46 178.41C156.42 177.3 156.39 176.27 156.42 175.32Z" fill="#FFFFFF" fill-opacity="1.000000" fill-rule="nonzero"/>
	<path id="Vector" d="M152.33 161.76C152.26 161.66 152.17 161.58 152.06 161.54C151.95 161.5 151.83 161.5 151.72 161.53C151.53 161.59 151.35 161.68 151.18 161.8C150.98 161.95 150.78 162.1 150.6 162.27C150.42 162.42 150.27 162.57 150.12 162.72C149.96 162.88 149.89 162.99 149.77 163.12C149.67 163.18 149.6 163.27 149.55 163.38C149.47 163.53 149.44 163.7 149.46 163.86C149.48 164.02 149.55 164.18 149.66 164.29C149.74 164.38 149.84 164.45 149.95 164.48C150.04 164.51 150.13 164.52 150.22 164.5C150.31 164.49 150.4 164.46 150.48 164.41L150.62 164.29L150.74 164.18C150.79 164.13 150.83 164.08 150.86 164.01C151 164 151.13 163.95 151.25 163.87C151.43 163.76 151.59 163.61 151.72 163.44C151.96 163.13 152.18 162.81 152.39 162.46C152.44 162.35 152.46 162.23 152.46 162.1C152.45 161.98 152.4 161.86 152.33 161.76Z" fill="#FFFFFF" fill-opacity="1.000000" fill-rule="nonzero"/>
	<path id="Vector" d="M168.07 163.94L167.9 163.77C167.89 163.75 167.89 163.73 167.9 163.7L167.9 163.64C167.92 163.54 167.89 163.43 167.82 163.34C167.74 163.23 167.62 163.16 167.47 163.12C167.37 163.1 167.26 163.1 167.15 163.12C167.08 162.96 166.96 162.81 166.8 162.69C166.65 162.58 166.45 162.52 166.24 162.51C166.07 162.51 165.9 162.56 165.77 162.65C165.68 162.71 165.6 162.78 165.55 162.86C165.5 162.95 165.47 163.04 165.46 163.13C165.46 163.13 165.46 163.13 165.46 163.19C165.46 163.21 165.46 163.24 165.46 163.27C165.46 163.31 165.46 163.35 165.46 163.39C165.48 163.44 165.51 163.48 165.54 163.52C165.71 163.85 165.86 164.2 166.08 164.52C166.2 164.7 166.35 164.87 166.54 165.01C166.68 165.1 166.82 165.18 166.96 165.25L167.07 165.34C167.15 165.41 167.25 165.46 167.36 165.48C167.47 165.51 167.59 165.52 167.71 165.5C167.82 165.49 167.93 165.46 168.03 165.41C168.13 165.36 168.21 165.29 168.27 165.22C168.42 165.02 168.48 164.78 168.45 164.55C168.41 164.32 168.28 164.11 168.07 163.94Z" fill="#FFFFFF" fill-opacity="1.000000" fill-rule="nonzero"/>
</svg>
