<svg width="170.000000" height="247.024170" viewBox="0 0 170 247.024" fill="none" xmlns="http://www.w3.org/2000/svg" xmlns:xlink="http://www.w3.org/1999/xlink">
	<desc>
			Created with Pixso.
	</desc>
	<defs/>
	<path id="Vector" d="M69.18 136.49C69.18 136 69.18 135.54 69.18 135.05C69.18 134.08 69.18 133.11 69.18 132.17C69.21 131.91 69.18 131.66 69.11 131.42C69.04 131.17 68.91 130.95 68.75 130.76C68.59 130.57 68.4 130.42 68.18 130.32C67.96 130.21 67.72 130.16 67.48 130.16C67.24 130.16 67 130.21 66.78 130.32C66.56 130.42 66.36 130.57 66.2 130.76C66.04 130.95 65.92 131.17 65.84 131.42C65.77 131.66 65.75 131.91 65.77 132.17C65.77 132.6 65.77 133.04 65.77 133.48C65.77 133.92 65.77 133.87 65.66 134.06C65.45 134.91 65.34 135.79 65.33 136.67C65.33 136.83 65.33 136.99 65.33 137.15C65.33 137.32 65.33 137.34 65.33 137.48C65.1 137.81 64.98 138.22 64.98 138.63C64.98 139.05 65.1 139.45 65.33 139.79C65.44 140.01 65.61 140.19 65.82 140.31C66.03 140.43 66.27 140.48 66.51 140.46C66.74 140.43 66.97 140.34 67.15 140.17C67.33 140.01 67.47 139.8 67.53 139.56C67.9 139.54 68.25 139.41 68.55 139.17C68.84 138.94 69.05 138.61 69.16 138.24C69.26 137.66 69.27 137.07 69.18 136.49Z" fill="#FFFFFF" fill-opacity="1.000000" fill-rule="nonzero"/>
	<path id="Vector" d="M46.43 133.78C46.23 133.48 46.1 133.14 45.9 132.84L45.55 132.35L45.22 131.89C45.22 131.89 44.98 131.57 44.91 131.47C44.84 131.38 44.6 130.87 44.29 130.76C43.98 130.63 43.64 130.63 43.33 130.76C42.91 130.09 42.37 129.53 41.73 129.12C41.46 128.95 41.15 128.88 40.84 128.9C40.53 128.92 40.24 129.03 39.99 129.23C39.75 129.43 39.56 129.7 39.46 130.01C39.36 130.32 39.35 130.65 39.42 130.97C39.66 131.67 39.99 132.35 40.39 132.97C40.71 133.53 41.07 134.08 41.35 134.66L41.35 134.85L41.35 135.1L41.55 135.49C41.68 135.75 41.81 136.02 41.97 136.28C42.15 136.6 42.35 136.91 42.58 137.2C42.88 137.57 43.29 137.83 43.75 137.92C43.9 137.96 44.06 137.96 44.22 137.92C44.37 137.89 44.51 137.81 44.64 137.71C44.76 137.6 44.86 137.47 44.93 137.32C44.99 137.17 45.02 137 45.02 136.83L45.28 136.83C45.56 136.8 45.82 136.67 46.03 136.48C46.25 136.29 46.4 136.03 46.47 135.75C46.59 135.43 46.65 135.1 46.64 134.76C46.64 134.42 46.56 134.09 46.43 133.78Z" fill="#FFFFFF" fill-opacity="1.000000" fill-rule="nonzero"/>
	<path id="Vector" d="M31.07 87.19C30.68 86.96 30.28 86.76 29.87 86.59C29.75 86.39 29.59 86.23 29.4 86.11C29.2 86 28.99 85.94 28.77 85.94L28.53 85.94C28.35 85.72 28.14 85.53 27.91 85.39C27.18 85.01 26.35 84.86 25.54 84.97L24.68 84.55C23.86 84.13 22.93 84.03 22.05 84.25C21.79 84.33 21.56 84.49 21.39 84.7C21.21 84.92 21.1 85.18 21.06 85.45C21.02 85.74 21.06 86.02 21.18 86.28C21.3 86.53 21.49 86.74 21.72 86.89C23.05 87.63 24.48 88.16 25.96 88.46L26.24 88.6C27.67 89.34 29.95 90.91 31.38 89.4C31.53 89.25 31.63 89.06 31.7 88.86C31.76 88.65 31.78 88.43 31.75 88.22C31.72 88 31.64 87.8 31.53 87.62C31.41 87.44 31.25 87.29 31.07 87.19Z" fill="#FFFFFF" fill-opacity="1.000000" fill-rule="nonzero"/>
	<path id="Vector" d="M21.85 129.55C21.87 129.28 21.87 129.01 21.85 128.74C21.87 128.5 21.87 128.25 21.85 128C21.75 127.74 21.61 127.48 21.46 127.24C21.36 127.06 21.23 126.91 21.07 126.79C20.91 126.68 20.73 126.6 20.53 126.57C20.34 126.39 20.09 126.28 19.83 126.27C19.64 126.27 19.45 126.32 19.28 126.42C19.12 126.52 18.98 126.67 18.89 126.85C18.81 127.01 18.76 127.17 18.71 127.33L18.71 127.59C18.71 127.77 18.71 127.96 18.71 128.14L18.84 127.82C18.65 128.2 18.55 128.62 18.56 129.04C18.56 129.04 18.56 129.21 18.56 129.3C18.56 129.88 18.56 130.45 18.56 131.03C18.56 131.42 18.71 131.79 18.98 132.07C19.24 132.34 19.59 132.5 19.96 132.51L20.25 132.51C20.58 132.56 20.91 132.48 21.19 132.29C21.47 132.1 21.68 131.81 21.76 131.47C21.77 131.35 21.77 131.22 21.76 131.1C21.76 130.57 21.85 130.01 21.85 129.55Z" fill="#FFFFFF" fill-opacity="1.000000" fill-rule="nonzero"/>
	<path id="Vector" d="M40.54 144.2C40.34 144.02 40.1 143.88 39.84 143.81C39.65 143.79 39.47 143.79 39.29 143.81L39.02 143.81L38.8 143.81C38.65 143.79 38.49 143.81 38.34 143.87C38.19 143.92 38.06 144.02 37.95 144.14C37.91 144.21 37.86 144.27 37.79 144.32C37.7 144.36 37.6 144.4 37.51 144.46L36.35 144.46C36.14 144.46 35.95 144.54 35.8 144.7C35.66 144.85 35.58 145.05 35.58 145.27C35.59 145.42 35.65 145.57 35.75 145.68L35.53 145.85C35.31 146.1 35.18 146.43 35.18 146.78C35.18 147.13 35.31 147.46 35.53 147.72C35.7 147.96 35.94 148.14 36.21 148.22C36.57 148.31 36.94 148.26 37.27 148.09C37.81 147.79 38.32 147.44 38.78 147.02L39.11 146.82C39.38 146.71 39.65 146.64 39.93 146.58L39.57 146.58C39.88 146.59 40.18 146.51 40.45 146.35C40.62 146.26 40.76 146.12 40.86 145.96C40.96 145.79 41.03 145.6 41.05 145.41C41.07 145.18 41.04 144.94 40.95 144.73C40.86 144.52 40.72 144.34 40.54 144.2Z" fill="#FFFFFF" fill-opacity="1.000000" fill-rule="nonzero"/>
	<path id="Vector" d="M80.09 106.45C80.14 106.16 80.14 105.86 80.09 105.57C80.09 105.18 79.96 104.83 79.9 104.44L79.9 104L79.9 103.81C79.91 103.61 79.91 103.4 79.9 103.19C79.95 103.11 79.98 103.01 79.98 102.91C79.98 102.81 79.95 102.72 79.9 102.64C79.88 102.24 79.72 101.87 79.45 101.6C79.18 101.33 78.82 101.18 78.45 101.18C78.06 101.18 77.69 101.34 77.41 101.63C77.14 101.91 76.98 102.3 76.98 102.71C76.98 103.4 76.98 104.07 76.98 104.76C76.96 104.93 76.96 105.1 76.98 105.27L76.98 107.05C76.98 107.46 77.14 107.85 77.41 108.14C77.69 108.42 78.06 108.59 78.45 108.6C78.73 108.58 79 108.48 79.24 108.32C79.48 108.15 79.66 107.92 79.79 107.65C80 107.47 80.16 107.24 80.25 106.98L80.25 106.45L80.09 106.45Z" fill="#FFFFFF" fill-opacity="1.000000" fill-rule="nonzero"/>
	<path id="Vector" d="M84.62 71.17C84.76 70.92 84.81 70.61 84.74 70.32C84.67 70.03 84.49 69.78 84.25 69.63L83.98 69.63L83.39 69.49C83.07 69.46 82.74 69.46 82.42 69.49C82.12 69.45 81.81 69.45 81.5 69.49L81.21 69.49C81.03 69.48 80.84 69.53 80.67 69.61C80.5 69.69 80.35 69.82 80.23 69.97C80.11 70.14 80.04 70.33 80.01 70.53C79.96 70.76 79.96 71 80.02 71.23C80.07 71.46 80.18 71.67 80.34 71.84C80.58 72.09 80.88 72.29 81.19 72.42C81.63 72.87 82.1 73.27 82.6 73.62C82.81 73.75 83.06 73.81 83.3 73.81C83.55 73.81 83.79 73.75 84 73.62C84.21 73.49 84.39 73.31 84.51 73.08C84.64 72.86 84.7 72.61 84.71 72.35C84.7 72.05 84.65 71.75 84.55 71.47L84.62 71.17Z" fill="#FFFFFF" fill-opacity="1.000000" fill-rule="nonzero"/>
	<path id="Vector" d="M125.69 56.3C125.68 56.04 125.59 55.78 125.44 55.57C125.29 55.36 125.07 55.2 124.83 55.12L124.11 54.96C123.75 54.89 123.39 54.85 123.03 54.82C122.41 54.78 121.79 54.84 121.19 55.01C120.91 55.1 120.66 55.29 120.49 55.54C120.32 55.52 120.15 55.52 119.98 55.54C119.67 55.64 119.41 55.86 119.25 56.15C119.09 56.45 119.04 56.8 119.12 57.13C119.19 57.35 119.3 57.54 119.46 57.69C119.61 57.85 119.8 57.96 120 58.01L120.73 58.17L120.4 58.17C120.82 58.24 121.24 58.35 121.65 58.5C122.04 58.78 122.47 59 122.92 59.17C123.21 59.24 123.51 59.22 123.78 59.1C124.05 58.99 124.28 58.78 124.44 58.52C124.55 58.34 124.63 58.15 124.68 57.94C124.94 57.92 125.19 57.8 125.38 57.6C125.56 57.4 125.66 57.14 125.67 56.86C125.71 56.68 125.72 56.49 125.69 56.3Z" fill="#FFFFFF" fill-opacity="1.000000" fill-rule="nonzero"/>
	<path id="Vector" d="M9.11 44.68C9.17 44.67 9.22 44.64 9.27 44.61C9.31 44.57 9.35 44.52 9.37 44.46C9.39 44.4 9.39 44.34 9.37 44.28C9.36 44.22 9.33 44.16 9.29 44.12C9.31 43.96 9.31 43.8 9.29 43.64C9.28 43.2 9.16 42.78 8.94 42.41C8.9 42.34 8.85 42.28 8.78 42.23C8.72 42.18 8.64 42.15 8.56 42.14C8.56 41.78 8.42 41.44 8.18 41.19C7.93 40.94 7.61 40.8 7.27 40.8C6.93 40.8 6.61 40.94 6.37 41.19C6.12 41.44 5.98 41.78 5.97 42.14C5.97 43.45 5.97 44.77 5.97 46.09C5.97 46.73 5.97 47.38 5.97 48.03C5.88 48.82 6.01 49.62 6.35 50.34C6.45 50.51 6.59 50.65 6.76 50.75C6.93 50.85 7.12 50.9 7.31 50.9C7.5 50.9 7.69 50.85 7.86 50.75C8.03 50.65 8.18 50.51 8.28 50.34C8.6 49.69 8.73 48.96 8.65 48.23C8.81 48.12 8.95 47.97 9.03 47.79C9.12 47.6 9.17 47.4 9.16 47.19C9.16 46.71 9.16 46.25 9.02 45.76C8.89 45.28 9.02 45.28 9.02 45.02C9.04 44.9 9.07 44.79 9.11 44.68Z" fill="#FFFFFF" fill-opacity="1.000000" fill-rule="nonzero"/>
	<path id="Vector" d="M38.37 60.42C38.29 60.35 38.21 60.29 38.12 60.25C38 59.86 37.78 59.51 37.49 59.24C37.2 59 36.9 58.79 36.59 58.59C36.27 58.37 35.93 58.19 35.58 58.04L35.14 57.85L34.96 57.85L33.62 57.07C33.1 56.75 32.51 56.58 31.91 56.58C31.71 56.59 31.52 56.65 31.36 56.76C31.19 56.88 31.07 57.04 30.99 57.23C30.86 57.13 30.7 57.09 30.55 57.09C30.25 56.94 29.91 56.89 29.58 56.93C29.31 56.95 29.06 57.05 28.83 57.21C28.62 57.37 28.47 57.61 28.39 57.87C28.18 59.26 28.13 60.66 28.24 62.06C28.25 62.4 28.38 62.72 28.61 62.96C28.84 63.19 29.15 63.33 29.47 63.33C29.77 63.32 30.06 63.2 30.28 62.98C30.5 62.76 30.63 62.47 30.66 62.15C30.98 62.14 31.28 62 31.51 61.76C31.73 61.51 31.86 61.19 31.86 60.85C31.92 60.18 31.92 59.5 31.86 58.82L32.61 59.45L34.17 60.6C35.15 61.35 36.26 61.88 37.44 62.15C37.65 62.21 37.87 62.19 38.06 62.11C38.26 62.03 38.43 61.88 38.54 61.69C38.66 61.49 38.7 61.25 38.67 61.02C38.64 60.79 38.53 60.57 38.37 60.42Z" fill="#FFFFFF" fill-opacity="1.000000" fill-rule="nonzero"/>
	<path id="Vector" d="M120.46 159.59C120.33 159.17 120.13 158.79 119.87 158.45L119.56 158.22C119.42 158.09 119.26 157.98 119.1 157.88C118.8 157.67 118.45 157.53 118.09 157.48L117.67 157.28C117.6 157.13 117.5 157 117.37 156.91C117.07 156.73 116.75 156.6 116.42 156.49C115.4 155.84 114.25 155.46 113.06 155.38C112.86 155.39 112.67 155.46 112.51 155.59C112.4 155.53 112.3 155.45 112.2 155.36C112.06 155.22 111.86 155.14 111.67 155.14C111.47 155.14 111.28 155.22 111.13 155.36C110.99 155.51 110.92 155.71 110.92 155.92C110.92 156.13 110.99 156.34 111.13 156.49C111.53 156.95 112.03 157.28 112.6 157.46C113.48 158.14 114.48 158.62 115.54 158.87L115.89 158.99L116.09 158.99C116.41 159.12 116.73 159.27 117.04 159.45C117.65 159.71 118.19 160.13 118.62 160.67C119.3 161.55 120.86 160.6 120.46 159.59Z" fill="#FFFFFF" fill-opacity="1.000000" fill-rule="nonzero"/>
	<path id="Vector" d="M77.2 187.72C77.1 187.27 76.95 186.83 76.73 186.43C76.61 186.21 76.47 186 76.32 185.81C76.32 185.44 76.19 185.04 76.14 184.7L76.14 185C76.13 184.74 76.06 184.49 75.94 184.26L76.1 184.61C76.09 184.52 76.09 184.44 76.1 184.35C76.03 184.06 75.87 183.79 75.65 183.6C75.42 183.42 75.14 183.31 74.86 183.31C74.57 183.31 74.29 183.42 74.06 183.6C73.84 183.79 73.68 184.06 73.62 184.35C73.61 184.44 73.61 184.54 73.62 184.63C73.62 184.63 73.62 184.81 73.62 184.91L73.62 184.63C73.36 184.82 73.17 185.08 73.07 185.39C72.94 185.92 72.94 186.48 73.07 187.01C73.1 187.17 73.14 187.33 73.2 187.49C73.28 187.78 73.4 188.05 73.55 188.3C73.85 188.79 74.24 189.2 74.69 189.53C74.85 189.79 75.05 190.01 75.29 190.2C75.48 190.3 75.7 190.36 75.92 190.36C76.14 190.36 76.36 190.3 76.56 190.2C76.76 190.12 76.95 189.99 77.09 189.82C77.24 189.65 77.34 189.45 77.39 189.23C77.41 188.72 77.35 188.21 77.2 187.72Z" fill="#FFFFFF" fill-opacity="1.000000" fill-rule="nonzero"/>
	<path id="Vector" d="M73.49 184.59L73.49 184.7L73.49 184.59Z" fill="#FFFFFF" fill-opacity="1.000000" fill-rule="nonzero"/>
	<path id="Vector" d="M82.27 169.02C82.08 168.61 81.78 168.28 81.41 168.07C81.03 167.86 80.61 167.74 80.18 167.72C79.94 167.68 79.7 167.68 79.46 167.72L79.32 167.72L78.91 167.72C78.73 167.62 78.53 167.57 78.34 167.6C78.14 167.62 77.95 167.72 77.81 167.86C77.68 168.02 77.59 168.21 77.57 168.42C77.55 168.62 77.58 168.83 77.68 169.02C77.78 169.13 77.89 169.24 78.01 169.34C78.18 169.52 78.39 169.67 78.62 169.75C79.06 170.37 79.56 170.94 80.11 171.44C80.33 171.66 80.61 171.78 80.91 171.79C81.2 171.79 81.49 171.66 81.7 171.44C81.83 171.28 81.93 171.08 81.96 170.86C82.05 170.82 82.14 170.76 82.21 170.68C82.27 170.6 82.32 170.5 82.35 170.4C82.5 169.94 82.47 169.45 82.27 169.02Z" fill="#FFFFFF" fill-opacity="1.000000" fill-rule="nonzero"/>
	<path id="Vector" d="M42.58 240.43C42.58 240.1 42.46 239.77 42.23 239.53C42 239.3 41.7 239.16 41.38 239.16C41.05 239.16 40.75 239.3 40.52 239.53C40.29 239.77 40.17 240.1 40.17 240.43C40.17 240.69 40.17 240.94 40.17 241.2L40.17 241.54C40.04 241.97 39.9 242.4 39.73 242.81C39.31 243.75 39.12 244.78 39.16 245.82C39.15 246.04 39.21 246.27 39.32 246.46C39.44 246.65 39.6 246.81 39.8 246.91C39.99 247 40.21 247.04 40.42 247.01C40.64 246.98 40.84 246.89 41 246.74C41.14 246.82 41.29 246.86 41.44 246.88C41.69 246.85 41.93 246.75 42.12 246.58C42.35 246.17 42.53 245.74 42.65 245.28C42.58 243.55 42.54 241.93 42.58 240.43Z" fill="#FFFFFF" fill-opacity="1.000000" fill-rule="nonzero"/>
	<path id="Vector" d="M36.5 215.9C36.35 215.7 36.14 215.54 35.91 215.46C35.67 215.38 35.42 215.37 35.18 215.44C34.77 215.56 34.38 215.75 34.02 216C33.58 216.29 33.17 216.62 32.77 216.97C32.39 217.27 32.06 217.57 31.74 217.89C31.41 218.21 31.25 218.44 30.99 218.7C30.78 218.84 30.62 219.03 30.51 219.25C30.35 219.55 30.29 219.89 30.33 220.23C30.37 220.57 30.52 220.88 30.75 221.12C30.93 221.3 31.15 221.44 31.38 221.52C31.57 221.57 31.77 221.59 31.96 221.56C32.15 221.53 32.34 221.46 32.5 221.36L32.81 221.12L33.07 220.89C33.18 220.79 33.27 220.68 33.34 220.55C33.64 220.52 33.92 220.41 34.17 220.25C34.56 220.02 34.9 219.72 35.18 219.37C35.7 218.73 36.18 218.06 36.61 217.36C36.73 217.13 36.78 216.87 36.76 216.61C36.74 216.36 36.65 216.11 36.5 215.9Z" fill="#FFFFFF" fill-opacity="1.000000" fill-rule="nonzero"/>
	<path id="Vector" d="M62.59 219.97L62.33 219.62C62.31 219.58 62.31 219.53 62.33 219.48L62.33 219.37C62.36 219.15 62.32 218.93 62.22 218.74C62.09 218.54 61.91 218.38 61.69 218.3C61.53 218.26 61.37 218.26 61.21 218.3C61.09 217.98 60.91 217.69 60.68 217.45C60.44 217.23 60.14 217.1 59.82 217.08C59.57 217.09 59.32 217.19 59.12 217.36C58.98 217.47 58.87 217.62 58.79 217.79C58.71 217.96 58.67 218.14 58.66 218.33C58.66 218.33 58.66 218.33 58.66 218.44C58.65 218.5 58.65 218.55 58.66 218.6C58.65 218.69 58.65 218.77 58.66 218.86C58.69 218.95 58.72 219.03 58.77 219.11C59.03 219.78 59.25 220.48 59.58 221.12C59.77 221.49 60 221.83 60.28 222.12C60.49 222.29 60.7 222.45 60.92 222.6L61.08 222.79C61.2 222.92 61.35 223.01 61.52 223.07C61.69 223.13 61.87 223.14 62.04 223.11C62.22 223.09 62.38 223.02 62.53 222.92C62.68 222.82 62.81 222.69 62.9 222.53C63.12 222.13 63.21 221.66 63.16 221.19C63.1 220.73 62.9 220.3 62.59 219.97Z" fill="#FFFFFF" fill-opacity="1.000000" fill-rule="nonzero"/>
	<path id="Vector" d="M164.92 0C156.43 2.14 148.15 3.76 141.28 9.64C139.81 10.67 138.61 12.06 137.76 13.69C136.92 15.32 136.46 17.14 136.42 18.99C136.61 20.58 136.92 22.14 137.36 23.67C137.48 25.6 137.83 27.5 138.4 29.34C138.8 30.32 139.47 31.48 140.07 32.86C140.07 33.38 140.07 33.95 140.07 34.48C139.96 34.83 139.8 35.18 139.6 35.5C138.41 37.06 137.03 38.44 135.48 39.61C133.21 39.32 130.9 39.64 128.77 40.53C125.96 42.04 126.5 44.36 125.09 46.97C122.46 50.98 119.33 54.61 115.8 57.77C115.45 58.2 115.21 58.71 115.11 59.27C115.01 59.83 115.05 60.4 115.23 60.93C114.26 62.25 113.13 63.43 111.88 64.45C109.6 65.59 107.05 65.97 104.57 65.54C101.95 65.54 99.34 65.54 96.76 65.54C91.4 65.72 86.05 65.23 80.8 64.1C78.32 63.36 76.91 61.29 74.93 59.7C73.38 58.46 71.66 57.48 69.84 56.78C68.22 56.12 66.48 55.83 64.74 55.94C63.01 56.04 61.32 56.53 59.78 57.38C57.39 58.66 54.85 59.62 52.23 60.23C49.59 60.69 47.04 60.05 44.39 60.23C42.99 60.44 41.65 60.99 40.49 61.84C39.32 62.69 38.36 63.81 37.68 65.12C37.38 65.51 37.99 65.89 38.29 65.61C40.24 63.43 42.89 62.07 45.73 61.78C47.98 61.78 50.12 62.2 52.43 61.78C55.78 60.85 59.07 59.68 62.26 58.26C68.66 56.36 72.55 61.04 76.88 64.98C79.57 66.83 82.61 68.03 85.79 68.5C90.17 69.73 94.67 70.37 99.2 70.4C103.39 70.98 107.64 70.84 111.78 69.98C114.12 68.94 116.05 67.09 117.24 64.73C117.18 65.32 117.06 65.89 116.91 66.46C116.69 67.13 116.51 67.81 116.37 68.5C115.36 69.46 114.6 70.67 114.16 72.02C113.72 75.21 113.79 78.45 114.36 81.62C114.56 85.63 114.36 89.64 114.63 93.65C114.91 95.3 115.04 96.98 115 98.65C114.56 100.76 113.08 101.11 111.64 101.26C111.87 101.01 112.15 100.84 112.47 100.76C112.78 100.68 113.11 100.69 113.42 100.8C113.65 100.8 113.76 100.48 113.42 100.41C112.31 100.16 112.41 100.41 111.48 100.66C109.8 101.15 108.12 101.29 106.28 101.78C102.88 102.89 99.63 104.46 96.62 106.46L95.89 106.95C94.32 108.01 92.83 109.19 91.43 110.47C90.58 111.08 89.77 111.75 89.01 112.48C87.87 113.96 86.59 115.31 85.19 116.53C82.04 118.53 76.78 117.65 73.25 117.23C69.73 116.81 66.31 115.29 62.76 114.77C59.19 114.42 55.6 114.87 52.2 116.07C49.22 116.85 46.28 117.82 43.42 118.99C40.4 120.95 37.59 123.24 35.03 125.81C32.15 127.96 28.53 128.73 26.05 131.55C25.05 132.78 24.21 134.16 23.57 135.63C22.18 138.24 19.87 140.16 17.13 140.98C13.97 142.75 10.95 144.78 8.08 147.03C5.53 148.58 2.18 148.16 0.13 150.55C0.04 150.64 0 150.77 0 150.9C0 151.03 0.04 151.16 0.13 151.25C0.22 151.35 0.34 151.4 0.47 151.4C0.59 151.4 0.72 151.35 0.8 151.25C3.05 149.21 6.84 149.63 9.39 147.73C10.9 146.68 12.24 145.38 13.75 144.21C15.69 143.05 17.73 142.08 19.85 141.33C22.11 140.35 23.93 138.5 24.94 136.16C27.29 131.55 30.27 130.32 34.33 128C37.52 126.17 39.56 122.93 42.68 120.96C46.53 119 50.61 117.59 54.82 116.77C62.9 114.73 70.84 118.88 79.02 119.09C80.93 119.24 82.85 119.01 84.69 118.42C83.8 119.92 83.02 121.48 82.37 123.1C81.75 125.05 81.55 127.12 81.77 129.16C81.78 131.35 81.56 133.53 81.1 135.67C80.46 139.18 80.87 146.22 77.58 147.56C76.1 148.26 74.39 148.72 72.85 149.35C71.31 149.99 69.9 150.02 68.46 150.48C65.54 151.39 64.5 155.02 62.49 157.09C62.16 157.44 62.66 157.94 63.03 157.62C64.02 156.57 64.88 155.39 65.58 154.1C66.16 152.99 67 152.06 68.02 151.39C68.73 151.04 69.16 151.22 69.84 151.04C72.96 149.79 76.16 148.77 79.42 147.98C79.53 147.97 79.63 147.93 79.7 147.86C79.78 147.79 79.84 147.7 79.86 147.59C80.8 142.46 82.21 137.42 82.84 132.22C82.77 129.27 83.02 126.31 83.58 123.42C84.5 121.04 85.71 118.79 87.17 116.74C89.28 115.01 91.19 112.62 93.2 110.9C94.59 109.44 96.1 108.13 97.73 106.99C99.5 106.16 101.33 105.48 103.19 104.95C104.89 104.15 106.62 103.46 108.39 102.87C110.15 102.59 111.91 102.42 113.69 102.35C119.42 101.4 117.28 92.63 117.38 88.27C117.38 84.75 117.38 81.24 117.38 77.72C117.38 72.9 120.06 71.21 122.67 67.76C125.18 63.81 127.99 60.06 131.05 56.57L132.33 55.41C131.02 57.68 129.83 60.03 128.77 62.45C127.87 65.4 129.38 67.48 129.81 70.33C130.36 75.56 132.46 80.48 135.82 84.4C136.46 84.96 137.08 85.56 137.66 86.2C138.19 87.15 138.54 88.2 138.69 89.29C138.83 90.39 138.77 91.5 138.5 92.56C137.87 96.05 137.42 99.58 137.16 103.12C136.99 110.75 137.16 118.46 137.36 126.1C137.36 129.61 137.36 133.13 137.36 136.65C137.2 138.72 136.43 140.69 135.15 142.28C133.87 143.86 132.14 144.98 130.22 145.48C127.03 146.78 124.08 147.45 121.27 149C121.24 148.97 121.21 148.95 121.17 148.93C121.14 148.91 121.1 148.9 121.06 148.9C121.03 148.9 120.99 148.91 120.95 148.93C120.92 148.95 120.89 148.97 120.86 149L120.59 149.35C119.62 149.91 118.7 150.57 117.85 151.32C113.62 154.84 110 160.26 104.43 161.88C101.88 162.14 99.43 163.09 97.33 164.62C94.81 166.73 92.36 168.67 89.68 170.5C86.33 172.93 82.11 175.88 81.64 180.56C81.64 181.16 82.44 181.12 82.51 180.56C83.21 174.4 90.39 171.66 94.54 168.46C96.89 166.09 99.72 164.32 102.83 163.28C105.23 162.8 107.51 161.81 109.53 160.36C112.88 157.97 115.53 154.63 118.72 151.99C117.66 153.71 116.95 155.64 116.65 157.67C116.34 159.69 116.44 161.76 116.94 163.74C117.3 164.95 117.75 166.13 118.28 167.26C118.8 168.6 118.8 170.11 118.28 171.45C117.28 174.2 115.89 176.77 114.16 179.08C113.96 179.36 114.39 179.65 114.59 179.36C117.04 176.02 120.76 171.34 118.78 166.91C117.36 164.13 116.79 160.96 117.14 157.83C117.56 155.36 118.53 153.02 119.96 151C120.26 150.79 120.53 150.51 120.83 150.34C125.49 147.31 131.16 147.49 135.51 143.69C138.87 140.66 138.4 137.11 138.4 132.71C138.4 125.11 138.56 117.47 138.4 109.84C138.12 105.6 138.24 101.35 138.77 97.14C139.37 94.1 139.67 90.99 139.64 87.88C139.64 83.59 136.28 80.85 134.94 76.8C134 73.49 133.53 70.15 132.73 66.84C132.35 65.74 132.24 64.55 132.43 63.39C132.62 62.23 133.09 61.14 133.8 60.23C134.48 59.02 134.97 57.72 135.28 56.36C136.02 53.16 137.93 51.68 139.24 48.97C139.44 48.73 139.67 48.51 139.91 48.27C142.08 46.09 143.42 43.15 143.66 40C143.68 39.82 143.68 39.65 143.66 39.47C144.31 38.73 144.84 37.89 145.24 36.97C147.58 31.27 143.76 24.59 147.82 19.38C151.87 14.17 161.6 12.34 167.5 10.27C168.46 9.64 169.2 8.71 169.62 7.6C170.04 6.5 170.11 5.28 169.82 4.13C169.53 2.98 168.9 1.96 168.02 1.22C167.13 0.47 166.05 0.04 164.92 0ZM133.53 49.78C131.05 52.07 128.31 54.11 125.96 56.57L124.95 57.77L125.49 56.85C128.27 51.89 133.2 48.8 137.32 45.1L138.87 43.8C137.42 46.09 135.61 48.11 133.53 49.78Z" fill="#202147" fill-opacity="1.000000" fill-rule="nonzero"/>
</svg>
