<svg width="365.000000" height="45.202148" viewBox="0 0 365 45.2021" fill="none" xmlns="http://www.w3.org/2000/svg" xmlns:xlink="http://www.w3.org/1999/xlink">
	<desc>
			Created with Pixso.
	</desc>
	<defs/>
	<path id="Vector" d="M49.49 34.61C49.42 34.61 49.35 34.6 49.28 34.57C49.22 34.54 49.16 34.49 49.12 34.44C49.08 34.39 49.05 34.33 49.03 34.27C49.01 34.21 49 34.15 49.01 34.09C49.01 34.02 49.03 33.96 49.06 33.91C49.09 33.85 49.13 33.8 49.18 33.76C50.28 32.81 50.96 31.46 51.08 30.01C51.2 28.57 50.75 27.13 49.82 26.01C48.89 24.89 47.55 24.18 46.11 24.04C44.66 23.89 43.21 24.32 42.08 25.22C42.03 25.27 41.97 25.3 41.91 25.31C41.85 25.33 41.79 25.34 41.73 25.33C41.66 25.33 41.6 25.31 41.55 25.28C41.49 25.25 41.44 25.21 41.4 25.16C41.36 25.11 41.33 25.06 41.31 25C41.29 24.94 41.28 24.87 41.29 24.81C41.3 24.75 41.31 24.69 41.34 24.63C41.37 24.57 41.41 24.52 41.46 24.48C42.12 23.92 42.88 23.49 43.7 23.22C44.52 22.95 45.39 22.85 46.26 22.92C47.12 23 47.96 23.24 48.72 23.64C49.49 24.04 50.17 24.58 50.73 25.25C51.28 25.91 51.69 26.68 51.95 27.51C52.2 28.34 52.29 29.21 52.2 30.07C52.11 30.93 51.86 31.77 51.44 32.53C51.03 33.29 50.47 33.96 49.8 34.5C49.71 34.57 49.6 34.61 49.49 34.61Z" fill="#E13A4B" fill-opacity="1.000000" fill-rule="nonzero"/>
	<path id="Vector" d="M61.04 31.08C60.91 31.08 60.79 31.03 60.7 30.94C60.61 30.85 60.56 30.72 60.56 30.6C60.56 29.5 60.23 28.42 59.62 27.51C59.01 26.6 58.15 25.89 57.13 25.47C56.12 25.05 55 24.94 53.92 25.15C52.85 25.37 51.86 25.9 51.08 26.68C50.99 26.77 50.87 26.82 50.74 26.82C50.61 26.82 50.49 26.76 50.4 26.67C50.31 26.58 50.26 26.46 50.26 26.33C50.26 26.2 50.31 26.08 50.4 25.99C51.31 25.08 52.47 24.46 53.74 24.21C55 23.96 56.31 24.09 57.5 24.58C58.69 25.07 59.71 25.91 60.42 26.98C61.14 28.05 61.52 29.31 61.52 30.6C61.52 30.72 61.47 30.85 61.38 30.94C61.29 31.03 61.16 31.08 61.04 31.08Z" fill="#E13A4B" fill-opacity="1.000000" fill-rule="nonzero"/>
	<path id="Vector" d="M75 17.96C74.99 15.13 73.87 12.42 71.87 10.42C69.87 8.42 67.15 7.29 64.33 7.29C63.61 7.29 62.9 7.36 62.2 7.51C60.86 4.94 58.75 2.85 56.17 1.53C53.59 0.21 50.67 -0.27 47.8 0.14C44.93 0.55 42.26 1.83 40.16 3.82C38.05 5.81 36.62 8.4 36.04 11.24C35.6 11.24 35 11.28 34.91 11.29C33.26 11.43 31.65 11.92 30.19 12.71C28.73 13.51 27.45 14.6 26.43 15.92C25.42 17.24 24.69 18.75 24.29 20.37C23.89 21.98 23.83 23.66 24.12 25.3C16.56 25.99 14.61 31.81 14.21 33.41C8.88 33.58 4.96 35.1 2.57 37.9C0.23 40.66 -0.03 44.43 0 44.76C0.01 44.88 0.06 44.99 0.15 45.07C0.24 45.15 0.36 45.2 0.48 45.2C0.6 45.19 0.72 45.14 0.81 45.05C0.89 44.96 0.94 44.85 0.94 44.72C0.95 44.56 0.96 44.39 0.99 44.23C1.33 42.98 3.24 41.43 5.51 40.54C7.03 39.94 10.94 38.79 14.36 40.99C20.46 44.9 30.65 43.75 35.93 41.67C39.8 40.15 46.33 42.22 49 43.2C51.71 44.71 54.81 45.39 57.91 45.15C61.01 44.92 63.97 43.77 66.42 41.87C68.87 39.96 70.71 37.38 71.71 34.44C72.7 31.49 72.81 28.32 72.02 25.32C73.93 23.35 74.99 20.71 75 17.96ZM56.72 44.24C54.18 44.24 51.67 43.59 49.46 42.35L49.38 42.31C46.91 41.4 42.89 40.17 39.33 40.17C38.06 40.15 36.79 40.35 35.59 40.79C30.51 42.79 20.72 43.92 14.9 40.18C12.23 38.47 8.69 38.28 5.18 39.65C3.83 40.16 2.59 40.91 1.52 41.87C3.06 37.03 7.46 34.51 14.62 34.36C14.73 34.36 14.83 34.32 14.92 34.25C15 34.17 15.06 34.08 15.08 33.97C15.13 33.67 16.29 26.75 24.67 26.25C26.27 26.34 27.64 26.89 28.67 28.26C29.07 28.78 29.35 29.37 29.52 30C29.68 30.64 29.71 31.3 29.62 31.94C29.55 32.45 29.37 32.93 29.12 33.37C28.86 33.81 28.51 34.19 28.1 34.5C27.7 34.81 27.23 35.03 26.74 35.15C26.24 35.28 25.73 35.31 25.22 35.24C24.44 35.12 23.72 34.7 23.24 34.06C22.77 33.42 22.56 32.62 22.67 31.83C22.76 31.23 23.09 30.68 23.58 30.31C24.07 29.94 24.68 29.79 25.29 29.87C25.75 29.94 26.16 30.18 26.44 30.56C26.72 30.93 26.84 31.39 26.78 31.85C26.75 32.02 26.69 32.19 26.61 32.33C26.52 32.48 26.4 32.61 26.27 32.71C26.13 32.82 25.97 32.89 25.81 32.93C25.64 32.98 25.47 32.98 25.3 32.96C25.05 32.92 24.83 32.79 24.68 32.59C24.53 32.39 24.46 32.14 24.5 31.89C24.51 31.82 24.5 31.76 24.49 31.7C24.47 31.64 24.44 31.58 24.41 31.53C24.37 31.48 24.32 31.44 24.27 31.41C24.21 31.37 24.15 31.35 24.09 31.34C24.03 31.34 23.96 31.34 23.9 31.35C23.84 31.37 23.78 31.4 23.73 31.44C23.68 31.47 23.64 31.52 23.61 31.58C23.57 31.63 23.55 31.69 23.54 31.75C23.48 32.25 23.61 32.76 23.91 33.16C24.21 33.57 24.66 33.84 25.16 33.91C25.46 33.96 25.76 33.94 26.05 33.87C26.34 33.79 26.61 33.66 26.85 33.48C27.09 33.3 27.29 33.08 27.44 32.82C27.59 32.57 27.69 32.28 27.73 31.99C27.83 31.27 27.65 30.55 27.22 29.97C26.78 29.4 26.14 29.02 25.43 28.91C24.57 28.79 23.7 29.02 23 29.54C22.31 30.06 21.85 30.83 21.72 31.69C21.57 32.73 21.84 33.79 22.48 34.64C23.11 35.48 24.05 36.04 25.09 36.19C25.32 36.22 25.56 36.23 25.79 36.24C26.95 36.23 28.08 35.81 28.96 35.05C29.84 34.28 30.41 33.23 30.57 32.08C30.69 31.27 30.64 30.45 30.42 29.66C30.21 28.87 29.83 28.14 29.32 27.51C28.81 26.87 28.17 26.35 27.45 25.97C26.72 25.59 25.93 25.37 25.12 25.31C24.82 23.77 24.85 22.2 25.22 20.68C25.58 19.16 26.26 17.73 27.21 16.5C28.17 15.26 29.38 14.24 30.75 13.51C32.13 12.78 33.65 12.35 35.21 12.25C36.17 12.21 40.85 12.18 42.76 15.44C42.8 15.49 42.84 15.54 42.89 15.58C42.94 15.62 43 15.64 43.06 15.66C43.12 15.68 43.18 15.68 43.24 15.67C43.31 15.66 43.37 15.64 43.42 15.61C43.47 15.58 43.52 15.54 43.56 15.49C43.6 15.43 43.63 15.38 43.64 15.32C43.66 15.26 43.66 15.19 43.65 15.13C43.64 15.07 43.62 15.01 43.59 14.95C42.04 12.3 39.05 11.54 37.03 11.34C37.57 8.71 38.92 6.32 40.87 4.49C42.83 2.65 45.3 1.46 47.96 1.09C50.61 0.71 53.32 1.16 55.71 2.37C58.1 3.59 60.06 5.51 61.32 7.88C61.05 7.98 60.78 8.1 60.53 8.23C59.49 8.74 58.58 9.46 57.83 10.34C57.08 11.22 56.52 12.23 56.18 13.33C55.62 15.14 55.8 17.09 56.67 18.76C57.55 20.44 59.06 21.69 60.86 22.26C61.59 22.49 62.35 22.57 63.11 22.5C63.87 22.43 64.61 22.22 65.28 21.86C65.95 21.51 66.55 21.03 67.04 20.44C67.53 19.86 67.89 19.18 68.12 18.45C68.49 17.25 68.37 15.96 67.79 14.85C67.21 13.74 66.21 12.9 65.01 12.53C64.03 12.22 62.96 12.32 62.05 12.79C61.14 13.27 60.46 14.09 60.15 15.07C59.9 15.89 59.98 16.76 60.37 17.51C60.77 18.27 61.44 18.83 62.25 19.09C62.92 19.29 63.65 19.23 64.28 18.9C64.9 18.57 65.37 18.01 65.58 17.34C65.61 17.22 65.6 17.09 65.54 16.98C65.48 16.87 65.38 16.79 65.26 16.75C65.14 16.72 65.01 16.73 64.9 16.78C64.79 16.84 64.7 16.93 64.66 17.05C64.53 17.48 64.23 17.84 63.83 18.05C63.43 18.26 62.97 18.3 62.54 18.17C61.97 17.99 61.5 17.59 61.22 17.07C60.95 16.54 60.89 15.93 61.07 15.36C61.18 14.99 61.37 14.65 61.61 14.36C61.86 14.06 62.16 13.82 62.5 13.64C62.84 13.46 63.21 13.35 63.59 13.32C63.97 13.28 64.36 13.32 64.72 13.43C65.68 13.73 66.47 14.4 66.94 15.28C67.4 16.17 67.5 17.2 67.2 18.15C66.82 19.38 65.96 20.4 64.83 20.99C63.69 21.59 62.37 21.71 61.15 21.33C59.59 20.84 58.29 19.75 57.53 18.31C56.77 16.86 56.62 15.18 57.1 13.62C57.41 12.64 57.9 11.74 58.57 10.96C59.23 10.18 60.04 9.54 60.96 9.09C61.77 8.68 62.65 8.41 63.55 8.3C63.81 8.28 64.07 8.26 64.34 8.26C66.26 8.26 68.14 8.83 69.74 9.9C71.33 10.97 72.58 12.49 73.31 14.27C74.04 16.05 74.23 18 73.85 19.89C73.47 21.77 72.54 23.5 71.18 24.86C71.12 24.92 71.07 24.99 71.05 25.08C71.03 25.16 71.03 25.25 71.05 25.33C71.68 27.54 71.78 29.87 71.35 32.13C70.93 34.39 69.98 36.52 68.59 38.35C67.2 40.18 65.41 41.67 63.35 42.69C61.29 43.72 59.02 44.25 56.72 44.24Z" fill="#E13A4B" fill-opacity="1.000000" fill-rule="nonzero"/>
	<path id="Vector" d="M41.82 14.1C41.74 14.09 41.66 14.08 41.59 14.04C41.48 13.98 41.4 13.88 41.36 13.76C41.32 13.64 41.33 13.51 41.39 13.4C43.64 9.03 49.07 9.89 49.12 9.9C49.25 9.92 49.37 9.99 49.44 10.1C49.52 10.2 49.55 10.33 49.53 10.46C49.51 10.59 49.44 10.7 49.33 10.78C49.23 10.85 49.09 10.88 48.97 10.86C48.77 10.83 44.18 10.12 42.24 13.85C42.2 13.93 42.14 13.99 42.06 14.03C41.99 14.07 41.9 14.1 41.82 14.1Z" fill="#E13A4B" fill-opacity="1.000000" fill-rule="nonzero"/>
	<path id="DOC-UDI" d="M110.65 15.83L122.06 15.83L122.06 19.64Q122.06 21.95 121.19 23.86Q121.01 24.24 120.8 24.61Q120.32 25.44 119.72 26.17Q118.75 27.35 117.49 28.28Q115.44 29.76 112.84 30.55C111.12 31.06 109.36 31.31 107.59 31.31L108.85 35.56C111.08 35.39 113.23 34.92 115.29 34.15Q118.42 33 120.8 30.98Q121.66 30.27 122.4 29.44Q123.72 27.94 124.65 26.09Q126.09 23.17 126.09 19.39L126.09 11.54L106.65 11.54L106.65 24.68L110.65 24.68L110.65 15.83ZM144.92 35.56L148.91 35.56L148.91 11.54L129.47 11.54L129.47 35.56L133.47 35.56L133.47 33.83L144.92 33.83L144.92 35.56ZM156.21 15.83L170.25 15.83L170.25 11.54L152.21 11.54L152.21 27.74Q152.21 29.69 152.57 31.16C152.81 32.12 153.21 32.93 153.76 33.58C154.31 34.22 155.03 34.72 155.92 35.05C156.81 35.39 157.89 35.56 159.16 35.56L169.81 35.56L169.81 31.27L159.23 31.27Q157.45 31.27 156.83 30.42Q156.82 30.42 156.82 30.41C156.41 29.83 156.21 28.94 156.21 27.74L156.21 15.83ZM209.85 11.54L209.85 29.54L198.4 29.54L198.4 11.54L194.41 11.54L194.41 35.56L198.4 35.56L198.4 33.83L209.85 33.83L209.85 35.56L213.85 35.56L213.85 11.54L209.85 11.54ZM221.32 15.83L232.73 15.83L232.73 19.64C232.73 21.49 232.31 23.15 231.47 24.61C230.63 26.05 229.53 27.28 228.16 28.28C226.79 29.27 225.24 30.02 223.52 30.55C221.79 31.06 220.04 31.31 218.26 31.31L219.52 35.56C221.75 35.39 223.9 34.92 225.96 34.15C228.05 33.38 229.89 32.33 231.47 30.98C233.08 29.64 234.36 28.01 235.32 26.09C236.28 24.14 236.76 21.91 236.76 19.39L236.76 11.54L217.32 11.54L217.32 24.68L221.32 24.68L221.32 15.83ZM256.46 11.54L239.94 11.54L239.94 15.83L246.16 15.83L246.16 31.27L237.74 31.27L237.74 35.56L258.66 35.56L258.66 31.27L250.2 31.27L250.2 15.83L256.46 15.83L256.46 11.54ZM144.92 15.83L144.92 29.54L133.47 29.54L133.47 15.83L144.92 15.83ZM191.41 25.84L191.41 21.52L171.64 21.52L171.64 25.84L191.41 25.84Z" fill="#E13A4B" fill-opacity="1.000000" fill-rule="evenodd"/>
	<path id="Vector" d="M315.5 34.61C315.57 34.61 315.64 34.6 315.71 34.57C315.77 34.54 315.83 34.49 315.87 34.44C315.91 34.39 315.94 34.33 315.96 34.27C315.98 34.21 315.99 34.15 315.98 34.09C315.98 34.02 315.96 33.96 315.93 33.91C315.9 33.85 315.86 33.8 315.81 33.76C314.71 32.81 314.03 31.46 313.91 30.01C313.79 28.57 314.24 27.13 315.17 26.01C316.1 24.89 317.44 24.18 318.88 24.04C320.33 23.89 321.78 24.32 322.91 25.22C322.96 25.27 323.02 25.3 323.08 25.31C323.14 25.33 323.2 25.34 323.26 25.33C323.33 25.33 323.39 25.31 323.44 25.28C323.5 25.25 323.55 25.21 323.59 25.16C323.63 25.11 323.66 25.06 323.68 25C323.7 24.94 323.71 24.87 323.7 24.81C323.69 24.75 323.68 24.69 323.65 24.63C323.62 24.57 323.58 24.52 323.53 24.48C322.87 23.92 322.11 23.49 321.29 23.22C320.47 22.95 319.6 22.85 318.74 22.92C317.87 23 317.03 23.24 316.26 23.64C315.5 24.04 314.82 24.58 314.26 25.25C313.71 25.91 313.29 26.68 313.04 27.51C312.79 28.34 312.7 29.21 312.79 30.07C312.88 30.93 313.13 31.77 313.55 32.53C313.96 33.29 314.52 33.96 315.2 34.5C315.28 34.57 315.39 34.61 315.5 34.61Z" fill="#E13A4B" fill-opacity="1.000000" fill-rule="nonzero"/>
	<path id="Vector" d="M303.95 31.08C304.08 31.08 304.2 31.03 304.29 30.94C304.38 30.85 304.44 30.72 304.44 30.6C304.43 29.5 304.76 28.42 305.37 27.51C305.98 26.6 306.85 25.89 307.86 25.47C308.87 25.05 309.99 24.94 311.07 25.15C312.14 25.37 313.13 25.9 313.91 26.68C314 26.77 314.12 26.82 314.25 26.82C314.38 26.82 314.5 26.76 314.59 26.67C314.68 26.58 314.73 26.46 314.73 26.33C314.73 26.2 314.68 26.08 314.59 25.99C313.68 25.08 312.52 24.46 311.25 24.21C309.99 23.96 308.68 24.09 307.49 24.58C306.3 25.07 305.28 25.91 304.57 26.98C303.85 28.05 303.47 29.31 303.47 30.6C303.47 30.72 303.52 30.85 303.61 30.94C303.7 31.03 303.82 31.08 303.95 31.08Z" fill="#E13A4B" fill-opacity="1.000000" fill-rule="nonzero"/>
	<path id="Vector" d="M290 17.96C290 15.13 291.12 12.42 293.12 10.42C295.12 8.42 297.84 7.29 300.67 7.29C301.38 7.29 302.09 7.36 302.79 7.51C304.13 4.94 306.24 2.85 308.82 1.53C311.4 0.21 314.32 -0.27 317.19 0.14C320.06 0.55 322.73 1.83 324.83 3.82C326.94 5.81 328.38 8.4 328.95 11.24C329.39 11.24 329.99 11.28 330.08 11.29C331.74 11.43 333.35 11.92 334.81 12.71C336.27 13.51 337.54 14.6 338.56 15.92C339.57 17.24 340.3 18.75 340.7 20.37C341.1 21.98 341.16 23.66 340.87 25.3C348.44 25.99 350.38 31.81 350.78 33.41C356.11 33.58 360.03 35.1 362.43 37.9C364.76 40.66 365.02 44.43 364.99 44.76C364.98 44.88 364.93 44.99 364.84 45.07C364.75 45.15 364.63 45.2 364.51 45.2C364.39 45.19 364.27 45.14 364.19 45.05C364.1 44.96 364.05 44.85 364.05 44.72C364.04 44.56 364.03 44.39 364 44.23C363.66 42.98 361.75 41.43 359.48 40.54C357.96 39.94 354.05 38.79 350.63 40.99C344.53 44.9 334.34 43.75 329.06 41.67C325.19 40.15 318.66 42.22 315.99 43.2C313.28 44.71 310.18 45.39 307.08 45.15C303.98 44.92 301.03 43.77 298.57 41.87C296.12 39.96 294.28 37.38 293.28 34.44C292.29 31.49 292.18 28.32 292.97 25.32C291.06 23.35 290 20.71 290 17.96ZM308.27 44.24C310.81 44.24 313.32 43.59 315.54 42.35L315.61 42.31C318.08 41.4 322.1 40.17 325.66 40.17C326.93 40.15 328.2 40.35 329.4 40.79C334.48 42.79 344.27 43.92 350.09 40.18C352.76 38.47 356.3 38.28 359.81 39.65C361.16 40.16 362.4 40.91 363.47 41.87C361.93 37.03 357.53 34.51 350.37 34.36C350.26 34.36 350.16 34.32 350.07 34.25C349.99 34.17 349.93 34.08 349.91 33.97C349.86 33.67 348.7 26.75 340.32 26.25C338.72 26.34 337.35 26.89 336.32 28.26C335.92 28.78 335.64 29.37 335.48 30C335.31 30.64 335.28 31.3 335.37 31.94C335.45 32.45 335.62 32.93 335.88 33.37C336.14 33.81 336.48 34.19 336.89 34.5C337.29 34.81 337.76 35.03 338.25 35.15C338.75 35.28 339.26 35.31 339.77 35.24C340.56 35.12 341.27 34.7 341.75 34.06C342.22 33.42 342.43 32.62 342.32 31.83C342.23 31.23 341.91 30.68 341.41 30.31C340.92 29.94 340.31 29.79 339.7 29.87C339.24 29.94 338.83 30.18 338.55 30.56C338.27 30.93 338.15 31.39 338.21 31.85C338.24 32.02 338.3 32.19 338.38 32.33C338.47 32.48 338.59 32.61 338.73 32.71C338.86 32.82 339.02 32.89 339.18 32.93C339.35 32.98 339.52 32.98 339.69 32.96C339.94 32.92 340.16 32.79 340.31 32.59C340.46 32.39 340.53 32.14 340.49 31.89C340.49 31.82 340.49 31.76 340.5 31.7C340.52 31.64 340.55 31.58 340.59 31.53C340.62 31.48 340.67 31.44 340.73 31.41C340.78 31.37 340.84 31.35 340.9 31.34C340.96 31.34 341.03 31.34 341.09 31.35C341.15 31.37 341.21 31.4 341.26 31.44C341.31 31.47 341.35 31.52 341.39 31.58C341.42 31.63 341.44 31.69 341.45 31.75C341.52 32.25 341.38 32.76 341.08 33.16C340.78 33.57 340.33 33.84 339.83 33.91C339.53 33.96 339.23 33.94 338.94 33.87C338.65 33.79 338.38 33.66 338.14 33.48C337.9 33.3 337.7 33.08 337.55 32.82C337.4 32.57 337.3 32.28 337.26 31.99C337.16 31.27 337.34 30.55 337.78 29.97C338.21 29.4 338.85 29.02 339.56 28.91C340.42 28.79 341.3 29.02 341.99 29.54C342.68 30.06 343.14 30.83 343.27 31.69C343.42 32.73 343.15 33.79 342.51 34.64C341.88 35.48 340.94 36.04 339.9 36.19C339.67 36.22 339.43 36.23 339.2 36.24C338.04 36.23 336.91 35.81 336.03 35.05C335.16 34.28 334.58 33.23 334.42 32.08C334.3 31.27 334.35 30.45 334.57 29.66C334.79 28.87 335.16 28.14 335.67 27.51C336.19 26.87 336.82 26.35 337.55 25.97C338.27 25.59 339.06 25.37 339.87 25.31C340.17 23.77 340.14 22.2 339.78 20.68C339.41 19.16 338.73 17.73 337.78 16.5C336.82 15.26 335.62 14.24 334.24 13.51C332.86 12.78 331.34 12.35 329.78 12.25C328.82 12.21 324.14 12.18 322.23 15.44C322.2 15.49 322.15 15.54 322.1 15.58C322.05 15.62 322 15.64 321.93 15.66C321.87 15.68 321.81 15.68 321.75 15.67C321.69 15.66 321.63 15.64 321.57 15.61C321.52 15.58 321.47 15.54 321.43 15.49C321.39 15.43 321.36 15.38 321.35 15.32C321.33 15.26 321.33 15.19 321.34 15.13C321.35 15.07 321.37 15.01 321.4 14.95C322.95 12.3 325.94 11.54 327.97 11.34C327.42 8.71 326.07 6.32 324.12 4.49C322.16 2.65 319.69 1.46 317.03 1.09C314.38 0.71 311.67 1.16 309.28 2.37C306.89 3.59 304.93 5.51 303.67 7.88C303.94 7.98 304.21 8.1 304.46 8.23C305.5 8.74 306.41 9.46 307.16 10.34C307.91 11.22 308.47 12.23 308.81 13.33C309.37 15.14 309.19 17.09 308.32 18.76C307.44 20.44 305.93 21.69 304.13 22.26C303.4 22.49 302.64 22.57 301.88 22.5C301.12 22.43 300.39 22.22 299.71 21.86C299.04 21.51 298.44 21.03 297.95 20.44C297.46 19.86 297.1 19.18 296.87 18.45C296.5 17.25 296.62 15.96 297.2 14.85C297.78 13.74 298.78 12.9 299.98 12.53C300.96 12.22 302.03 12.32 302.94 12.79C303.85 13.27 304.53 14.09 304.84 15.07C305.09 15.89 305.01 16.76 304.62 17.51C304.22 18.27 303.55 18.83 302.74 19.09C302.07 19.29 301.34 19.23 300.71 18.9C300.09 18.57 299.62 18.01 299.41 17.34C299.38 17.22 299.39 17.09 299.45 16.98C299.51 16.87 299.61 16.79 299.73 16.75C299.85 16.72 299.98 16.73 300.09 16.78C300.2 16.84 300.29 16.93 300.33 17.05C300.46 17.48 300.76 17.84 301.16 18.05C301.56 18.26 302.02 18.3 302.45 18.17C303.02 17.99 303.49 17.59 303.77 17.07C304.04 16.54 304.1 15.93 303.92 15.36C303.81 14.99 303.62 14.65 303.38 14.36C303.13 14.06 302.83 13.82 302.49 13.64C302.15 13.46 301.78 13.35 301.4 13.32C301.02 13.28 300.63 13.32 300.27 13.43C299.31 13.73 298.52 14.4 298.05 15.28C297.59 16.17 297.5 17.2 297.79 18.15C298.17 19.38 299.03 20.4 300.16 20.99C301.3 21.59 302.62 21.71 303.84 21.33C305.4 20.84 306.7 19.75 307.46 18.31C308.22 16.86 308.37 15.18 307.89 13.62C307.58 12.64 307.09 11.74 306.42 10.96C305.76 10.18 304.95 9.54 304.03 9.09C303.22 8.68 302.34 8.41 301.44 8.3C301.18 8.28 300.92 8.26 300.65 8.26C298.73 8.26 296.85 8.83 295.25 9.9C293.66 10.97 292.41 12.49 291.68 14.27C290.95 16.05 290.76 18 291.14 19.89C291.52 21.77 292.45 23.5 293.81 24.86C293.87 24.92 293.92 24.99 293.94 25.08C293.96 25.16 293.96 25.25 293.94 25.33C293.31 27.54 293.21 29.87 293.64 32.13C294.06 34.39 295.01 36.52 296.4 38.35C297.79 40.18 299.58 41.67 301.64 42.69C303.7 43.72 305.97 44.25 308.27 44.24Z" fill="#E13A4B" fill-opacity="1.000000" fill-rule="nonzero"/>
	<path id="Vector" d="M323.17 14.1C323.25 14.09 323.33 14.08 323.4 14.04C323.51 13.98 323.59 13.88 323.63 13.76C323.67 13.64 323.66 13.51 323.6 13.4C321.35 9.03 315.92 9.89 315.87 9.9C315.74 9.92 315.62 9.99 315.55 10.1C315.47 10.2 315.44 10.33 315.46 10.46C315.48 10.59 315.55 10.7 315.66 10.78C315.76 10.85 315.9 10.88 316.02 10.86C316.22 10.83 320.81 10.12 322.75 13.85C322.79 13.93 322.85 13.99 322.93 14.03C323 14.07 323.09 14.1 323.17 14.1Z" fill="#E13A4B" fill-opacity="1.000000" fill-rule="nonzero"/>
</svg>
