<svg width="449.892395" height="482.388184" viewBox="0 0 449.892 482.388" fill="none" xmlns="http://www.w3.org/2000/svg" xmlns:xlink="http://www.w3.org/1999/xlink">
	<desc>
			Created with Pixso.
	</desc>
	<defs/>
	<path id="Vector" d="M350.1 464.75C347.82 462.39 345.35 460.22 342.72 458.26C340.91 456.82 339.02 455.48 337.05 454.26C334.83 452.69 332.76 450.91 330.87 448.95C326.82 445.17 323.36 440.8 320.62 435.98C317.87 430.85 315.49 425.29 312.57 420.11C310.49 415.63 307.82 411.44 304.62 407.67C301.03 404.08 297.1 400.9 293.59 397.24C289.92 393.49 286.88 389.16 284.62 384.42C283.39 381.85 282.05 379.29 280.49 376.73C279.2 374.15 278.19 371.44 277.46 368.65C276.59 366.09 275.23 363.73 274.31 361.19C273.56 358.73 272.97 356.23 272.54 353.7C270.96 349 268.68 344.57 265.77 340.55C263.12 335.48 260.96 330.18 259.31 324.7C258.16 322.08 257.14 319.4 256.26 316.68C255.78 313.84 255.87 310.94 256.54 308.14C257.4 303.47 257.56 298.7 257 293.99C256.67 291.42 256.34 288.86 255.95 286.29C255.8 285.11 255.49 284.01 255.26 282.86C254.97 281.25 254.86 279.62 254.95 277.99C254.95 272.24 254.95 266.53 254.7 260.78C254.4 257.89 254.58 254.98 255.21 252.14C255.58 251.12 255.84 250.06 255.98 248.99C255.98 247.58 255.8 246.19 255.98 244.78C256.29 238.83 259.36 233.24 262.23 228.19C263.57 226.17 264.53 223.92 265.06 221.55C265.52 218.81 266.08 216.07 266.57 213.32C267.06 210.58 267.41 207.94 267.95 205.3C268.41 203.09 269.47 201.09 269.75 198.84C269.95 196.17 270 193.49 269.9 190.81C269.9 187.86 269.9 184.91 269.9 181.96C269.87 179.44 269.6 176.93 269.11 174.45C268.84 172.19 268.24 169.97 267.31 167.89C266.43 165.82 265.26 163.89 263.85 162.14C262.31 160.45 260.67 158.84 258.95 157.32C257.89 156.47 257.03 155.38 256.44 154.15C255.85 152.92 255.54 151.56 255.54 150.2C255.53 147.49 255.79 144.8 256.31 142.15C257.32 136.91 257.86 131.6 257.93 126.27C257.93 122.56 257.77 117.53 253.88 115.61C252.54 114.94 251.47 115.61 250.24 116.22C247.67 117.48 244.59 117.04 241.83 117.97C239.55 118.56 237.25 119.02 234.93 119.35C232.36 119.86 229.8 120.07 227.24 120.63C224.67 121.2 222.11 122.35 219.54 123.2C216.98 124.04 214.42 124.74 211.85 125.63C209.46 126.55 207.12 127.6 204.85 128.79C202.28 130.01 199.64 131.07 196.93 131.94C194.4 132.93 191.77 133.64 189.08 134.07C186.66 134.33 184.22 134.33 181.8 134.07C177.19 133.24 172.48 133.11 167.83 133.68C162.7 134.74 158.29 138.35 154.03 141.17C151.73 142.68 149.44 144.3 147.01 145.58C144.57 146.86 142.37 147.12 140.24 148.38C138.11 149.63 136.29 151.3 134.14 152.48C131.98 153.66 129.67 154.84 127.47 156.17C124.89 157.67 122.15 158.86 119.29 159.71C116.73 160.5 114.34 161.48 111.8 162.27C110.39 162.67 108.94 162.93 107.47 163.04C106.27 163.05 105.07 163.14 103.88 163.3C102.99 163.56 102.13 163.91 101.32 164.35C99.78 165.01 98.12 165.35 96.45 165.35C91.47 165.56 87.04 165.35 82.78 168.22C81.79 168.94 80.7 169.52 79.55 169.94C78.54 170.2 77.56 170.55 76.6 170.97C74.88 171.92 73.27 173.06 71.81 174.38C70.28 175.72 68.94 177.25 67.81 178.94C66.32 181.15 64.27 182.92 61.86 184.07C59.58 185.2 57.29 186.22 55.11 187.55C52.93 188.89 50.63 190.48 48.35 191.89C43.68 194.81 38.99 197.76 34.19 200.45C31.94 201.73 29.6 202.86 27.42 204.22C25.24 205.58 23.68 208.17 21.32 207.84C21.09 207.84 20.99 208.17 21.32 208.19C21.95 208.29 22.59 208.22 23.18 208.01C23.77 207.79 24.31 207.43 24.73 206.96L25.37 206.4C24.3 207.63 23.4 208.96 22.24 210.25C20.75 211.5 19.12 212.58 17.37 213.45C13.83 215.73 13.94 220.19 14.04 223.96C14.17 229.83 14.04 235.71 14.04 241.58C14.04 247.45 14.17 253.65 13.78 259.71C13.4 265.76 13.32 271.65 12.37 277.5C11.94 280.06 11.45 282.63 11.19 285.37C10.94 288.11 11.06 291.22 11.19 294.17C11.19 300.22 11.19 306.24 11.19 312.29C11.26 315.34 11.1 318.39 10.73 321.42C10.32 324.19 9.78 326.93 9.37 329.68C8.58 335.34 8.71 341.01 8.09 346.68C7.48 352.34 5.53 358.34 4.55 364.24C3.62 369.7 3.1 375.22 2.99 380.75C2.99 392.39 3.81 404.14 2.99 415.75C2.17 427.37 -0.37 438.31 0.04 449.72C0.29 457.36 1.84 464.9 4.6 472.03C7.17 478.06 11.35 483.16 18.42 482.29C21.15 481.83 23.9 481.52 26.65 481.36C29.53 481.36 32.37 480.88 35.22 480.54C37.83 480 40.46 479.6 43.11 479.34C45.86 479.24 48.61 479.34 51.35 479.65C54.07 480.07 56.82 480.32 59.58 480.39C62.23 480.29 64.88 480.02 67.5 479.57C70.37 479.11 73.24 478.47 76.14 478.26C78.91 478.11 81.7 478.11 84.47 478.26C96.28 478.47 108.09 477.81 119.8 476.29C122.37 475.98 125.09 476.29 127.65 475.82C130.21 475.36 133.14 474.36 135.93 473.8C141.8 472.35 147.87 471.94 153.88 472.57C159.49 473.14 165.14 473.33 170.78 473.16C176.68 473.45 182.6 473.38 188.49 472.95C194.34 472.04 200.23 471.41 206.13 471.08C212.21 471.08 218.34 471.57 224.42 471.08C227.26 470.8 230.06 470.36 232.9 470.24C235.75 470.11 238.59 470.24 241.47 470.24C244.34 470.24 247.26 469.7 250.16 469.47C253.06 469.24 256.03 469.18 258.98 469.16C264.95 469.16 270.93 469.31 276.93 469.16C282.93 469 288.51 468.21 294.34 467.75C300.16 467.29 306.08 467.26 311.98 467.29C317.85 467.17 323.74 467.38 329.59 467.9C335.06 468.65 340.59 468.72 346.08 468.13C347.18 467.98 348.28 467.8 349.36 467.54C349.87 467.42 350.9 467.39 351.15 466.88C351.41 466.36 350.56 465.21 350.1 464.75Z" fill="#202147" fill-opacity="1.000000" fill-rule="nonzero"/>
	<path id="Vector" d="M70.22 238.58L71.09 238.58L71.63 238.58L71.99 238.3C73.47 237.04 74.99 235.73 76.52 234.63L77.14 234.17L78.42 233.19L79.34 232.42C79.68 232.1 80.04 231.8 80.42 231.53C81.01 231.13 81.67 230.84 82.37 230.68C83.27 230.38 84.13 229.98 84.93 229.48C86.46 228.54 88.04 227.68 89.65 226.91C91.32 226.18 93.03 225.55 94.78 225.01C96.45 224.45 98.05 223.7 99.55 222.76C100.98 221.91 102.47 221.17 103.96 220.4C105.51 219.6 106.94 218.57 108.19 217.35C109.44 216.36 110.91 215.69 112.47 215.4C113.35 215.19 114.21 214.88 115.04 214.5C115.67 214.21 116.37 214.09 117.06 214.14L117.8 214.14L119.16 214.14L119.16 212.86L119.16 211.5L116.6 211.5C116.09 211.5 115.58 211.57 115.09 211.71C114.64 211.84 114.21 212.02 113.8 212.25C113.5 212.4 113.18 212.52 112.86 212.63L112.22 212.81C110.95 213.1 109.72 213.52 108.55 214.07C107.61 214.56 106.75 215.18 105.98 215.91C105.5 216.36 104.97 216.78 104.42 217.14C103.59 217.64 102.74 218.08 101.86 218.48C101.16 218.81 100.47 219.14 99.81 219.53L98.6 220.25C97.45 220.96 96.25 221.58 95.01 222.12C94.24 222.42 93.45 222.68 92.68 222.94C91.91 223.19 90.7 223.58 89.75 223.99C88.07 224.7 86.41 225.5 84.81 226.37L83.93 226.89C83.43 227.2 82.91 227.49 82.37 227.73L81.5 228.01C80.95 228.15 80.42 228.34 79.91 228.58C79.08 229.03 78.31 229.58 77.63 230.22C76.93 230.83 76.19 231.4 75.45 231.96L74.93 232.37C73.29 233.56 71.72 234.86 70.24 236.24L69.6 236.96L69.91 237.76L70.22 238.58ZM64.01 311.09C64.6 310.45 65.19 309.81 65.81 309.19C66.42 308.57 67.09 307.86 67.73 307.14C68.37 306.42 68.42 306.34 68.81 305.96L69.86 304.91C70.57 304.26 71.23 303.55 71.83 302.81L72.24 302.24C72.75 301.46 73.39 300.79 74.14 300.24C74.7 299.91 75.29 299.6 75.88 299.32C76.57 298.99 77.24 298.62 77.88 298.22L79.01 297.52C81.11 296.19 83.24 294.96 85.37 293.6C86.18 293.14 87.04 292.77 87.93 292.5L89.19 292.06C90.49 291.59 91.75 291.01 92.96 290.35C93.6 289.99 94.22 289.6 94.81 289.17L95.27 288.81C95.49 288.59 95.74 288.41 96.01 288.27C96.31 288.16 96.64 288.12 96.96 288.14L98.37 288.14C98.65 288.17 98.93 288.17 99.22 288.14C99.88 288.06 100.52 287.87 101.11 287.58C101.52 287.33 101.88 287.02 102.19 286.65L102.57 286.27C102.91 286.05 103.28 285.87 103.65 285.73L104.01 285.6L105.11 285.09L106.22 284.55C106.68 284.4 107.15 284.29 107.63 284.22L107.88 284.22C108.43 284.15 108.94 283.93 109.37 283.58C109.97 282.96 110.38 282.19 110.57 281.35L110.57 281.06C110.57 281.06 110.83 280.45 112.29 279.42C112.77 279.13 113.29 278.91 113.83 278.76C114.54 278.54 115.22 278.24 115.86 277.86C116.5 277.4 117.03 276.8 117.42 276.12C117.59 275.82 117.79 275.55 118.01 275.29C118.91 274.33 119.98 273.54 121.16 272.96C121.69 272.78 122.17 272.47 122.55 272.06C123.93 271.17 125.34 270.37 126.75 269.5L127.78 268.88C129.85 267.7 131.84 266.4 133.75 264.99C134.56 264.42 135.42 263.93 136.32 263.53C137.34 263.05 138.31 262.48 139.21 261.81C139.83 261.36 140.48 260.97 141.16 260.63L142.01 260.17L144.29 258.81L145.55 258.06C146.38 257.56 147.23 257.11 148.11 256.71C149.4 256.11 150.64 255.43 151.83 254.65C152.78 254.01 153.8 253.47 154.88 252.89C155.96 252.3 156.67 251.94 157.44 251.4C158.17 250.95 158.93 250.54 159.7 250.17C161.01 249.62 162.25 248.92 163.39 248.09C164.1 247.59 164.84 247.15 165.62 246.78L166.03 246.58C166.54 246.31 167.03 246 167.49 245.65C167.92 245.31 168.38 245.03 168.88 244.81C169.57 244.55 170.3 244.42 171.03 244.42L172.08 244.42C173.42 244.24 174.76 244.13 176.11 244.12L182.03 244.12C182.57 244.11 183.1 244.16 183.62 244.27C185.19 244.6 186.79 244.75 188.39 244.73L190.6 244.73L192.49 244.73C194.06 244.77 195.63 244.68 197.19 244.45L199.47 244.09C201.15 243.85 202.8 243.47 204.42 242.96C206.52 242.35 208.49 241.32 210.19 239.94C210.86 239.37 211.62 238.92 212.44 238.6L213.47 238.35C214.14 238.22 214.8 238.04 215.44 237.78C216.5 237.27 217.65 236.98 218.83 236.94L220.26 236.94C221.13 236.94 222.01 236.94 222.83 236.94C225.1 236.68 227.36 236.24 229.57 235.63L230.62 235.37C231.39 235.19 232.15 234.97 232.9 234.71C233.54 234.48 234.18 234.17 234.8 233.89C235.42 233.6 235.83 233.4 236.34 233.19C237.7 232.7 239.1 232.32 240.52 232.04C241.49 231.81 242.47 231.6 243.42 231.32L244.08 231.12C245.9 230.75 247.6 229.97 249.06 228.83L249.77 228.22L249.47 227.37L249.11 226.48L247.7 226.48L247.36 226.76C245.73 227.83 243.88 228.55 241.95 228.86L240.65 229.17L238.98 229.58C237.22 229.94 235.5 230.47 233.85 231.17C229.37 233.19 224.51 234.22 219.6 234.19L219.29 234.19C218.21 234.16 217.13 234.27 216.08 234.53C215.56 234.69 215.06 234.88 214.57 235.12C214.11 235.34 213.63 235.51 213.13 235.63L212.62 235.76C211.84 235.87 211.08 236.1 210.37 236.45C209.58 236.86 208.84 237.36 208.16 237.94L207.49 238.42C205.75 239.6 203.77 240.39 201.7 240.76C200.54 241.02 199.37 241.2 198.19 241.3C197.56 241.35 196.93 241.44 196.31 241.58C195.77 241.69 195.23 241.77 194.67 241.81L194.16 241.81L192.93 241.81L191.6 241.81L189.52 241.81L187.7 241.81C186.58 241.79 185.47 241.64 184.39 241.37C183.7 241.21 183 241.14 182.29 241.17L176.21 241.17C175.23 241.12 174.25 241.12 173.26 241.17L172.21 241.17C170.2 241.16 168.22 241.68 166.47 242.68C165.75 243.17 164.98 243.6 164.21 244.04C163.21 244.59 162.23 245.2 161.29 245.86C160.74 246.24 160.14 246.56 159.52 246.81L158.6 247.24C157.72 247.7 156.86 248.2 156.03 248.76L155.42 249.14C154.51 249.7 153.57 250.22 152.6 250.68C151.92 251 151.28 251.38 150.67 251.81L149.62 252.47C149.08 252.78 148.51 253.06 147.93 253.3L146.83 253.78C145.85 254.27 144.91 254.83 143.98 255.4L143.29 255.83L141.44 256.91C139.98 257.76 138.47 258.63 137.06 259.63C136.34 260.12 135.57 260.5 134.78 260.94C133.69 261.46 132.65 262.09 131.67 262.81C129.81 264.21 127.83 265.47 125.75 266.55L124.7 267.14C124.01 267.5 123.34 267.86 122.68 268.27L122.14 268.63C121.85 268.75 121.59 268.94 121.37 269.17C120.73 269.6 120.11 270.04 119.45 270.42C119.12 270.59 118.77 270.74 118.42 270.86C117.81 271.09 117.23 271.38 116.68 271.73L115.5 272.58C114.96 272.99 114.39 273.4 113.83 273.76C112.62 274.44 111.31 274.95 109.96 275.27C109.11 275.5 108.24 275.76 107.39 276.06L106.27 276.55C105.76 276.81 105.22 277.02 104.68 277.19C104.04 277.35 103.37 277.47 102.73 277.58L101.06 277.91C100.19 278.13 99.34 278.41 98.5 278.73L97.86 278.96C96.93 279.24 95.96 279.37 94.98 279.35L94.73 279.35L93.01 279.35L90.88 279.35C90.02 279.33 89.16 279.4 88.32 279.55C86.42 280.05 84.66 280.99 83.19 282.29L82.57 282.78C82.11 283.11 81.65 283.4 81.16 283.7C80.76 283.93 80.36 284.18 79.99 284.45C79.37 284.87 78.78 285.34 78.22 285.83L77.58 286.37C75.99 287.56 74.26 288.55 72.45 289.35L70.78 290.14C69.87 290.52 69 291.02 68.22 291.63C67.76 291.99 67.34 292.39 66.96 292.83C66.58 293.24 66.17 293.62 65.73 293.96C65.02 294.49 64.4 295.14 63.91 295.88C63.66 296.36 63.24 296.71 62.73 296.88C62.35 297.03 62 297.26 61.7 297.55C61.51 297.72 61.32 297.91 61.17 298.11C60.96 298.32 60.83 298.47 60.68 298.6L60.09 298.93L59.29 299.42C58.79 299.76 58.31 300.13 57.86 300.52C57.4 300.92 56.92 301.29 56.42 301.63C55.45 302.27 54.5 302.93 53.52 303.63C52.55 304.32 51.73 304.91 50.81 305.52C49.88 306.14 48.45 307.17 47.27 308.09C46.47 308.68 45.7 309.27 44.88 309.83C43.11 311 41.28 312.08 39.4 313.06L38.88 313.34C37.03 314.31 35.31 315.5 33.76 316.91C33.38 317.29 33.02 317.69 32.68 318.11C32.4 318.46 32.1 318.78 31.78 319.09C31.45 319.37 31.07 319.58 30.65 319.73C30.07 319.94 29.51 320.23 29.01 320.6C28.58 320.96 28.19 321.32 27.81 321.7C27.4 322.11 26.96 322.49 26.5 322.83C25.68 323.41 24.82 323.94 23.94 324.42L23.63 324.63C22.09 325.5 20.63 326.47 19.17 327.45L17.5 328.55L14.45 330.45C12.3 331.68 10.24 333.06 8.27 334.57L7.81 334.93L7.58 339.04L9.86 337.14C11.05 336.16 12.3 335.25 13.6 334.42L17.83 331.7C20.4 330.01 23.24 328.24 25.99 326.57C26.99 326.01 27.96 325.37 28.88 324.68C29.28 324.37 29.65 324.04 29.99 323.68C30.33 323.27 30.74 322.92 31.19 322.65L31.63 322.5C32.38 322.23 33.08 321.82 33.68 321.29C34.14 320.86 34.57 320.4 34.96 319.91C35.27 319.55 35.58 319.19 35.91 318.86C37.46 317.49 39.18 316.34 41.04 315.42C43.18 314.29 45.24 313.03 47.22 311.63L53.24 307.37L54.58 306.37L55.91 305.37L57.11 304.6C57.7 304.24 58.27 303.88 58.81 303.5C59.21 303.21 59.59 302.9 59.96 302.57C60.38 302.21 60.82 301.87 61.29 301.57L61.6 301.4C61.98 301.19 62.34 300.96 62.68 300.7C62.92 300.5 63.13 300.27 63.32 300.01C63.4 299.9 63.49 299.79 63.6 299.7C63.8 299.54 64.01 299.4 64.24 299.29C64.88 299.04 65.45 298.62 65.88 298.09C66.01 297.88 66.17 297.68 66.27 297.47L66.52 297.11C66.77 296.82 67.05 296.56 67.37 296.34L67.88 295.96C68.3 295.59 68.7 295.2 69.06 294.78C69.35 294.45 69.67 294.14 70.01 293.86C70.8 293.27 71.66 292.79 72.58 292.42L73.73 291.88C75.75 291.03 77.65 289.93 79.4 288.6C80.34 287.83 81.34 287.14 82.34 286.45C83.34 285.76 83.99 285.32 84.78 284.7C86.36 283.2 88.42 282.29 90.6 282.14L90.88 282.14L92.88 282.14L95.06 282.14C95.74 282.15 96.42 282.1 97.09 282.01C97.9 281.87 98.7 281.64 99.47 281.35C99.77 281.23 100.07 281.12 100.37 281.04C101.42 280.72 102.49 280.47 103.57 280.29L103.91 280.29C104.91 280.15 105.89 279.9 106.83 279.55L107.52 279.27C108.01 279.04 108.5 278.83 109.01 278.65C108.59 279.16 108.27 279.74 108.09 280.37C108.09 280.55 108.09 280.76 107.86 280.99C107.63 281.22 107.86 281.19 106.93 281.32C106.5 281.39 106.07 281.49 105.65 281.63C104.37 282.14 103.09 282.78 101.96 283.35C101.34 283.63 100.8 284.05 100.37 284.58C100.18 284.77 99.95 284.92 99.7 285.02C99.45 285.12 99.18 285.17 98.91 285.17L97.11 285.17C96.49 285.15 95.88 285.24 95.29 285.45C94.55 285.76 93.86 286.19 93.27 286.73C92.99 286.98 92.69 287.2 92.37 287.4C91.14 288.14 89.83 288.76 88.47 289.24L87.27 289.65C86.38 289.93 85.53 290.28 84.7 290.7C83.99 291.06 83.32 291.5 82.63 291.93C82.06 292.32 81.48 292.68 80.88 293.01C79.81 293.57 78.81 294.24 77.83 294.86L76.96 295.42C76.28 295.86 75.57 296.25 74.83 296.6C74.29 296.88 73.78 297.14 73.27 297.45C72.11 298.13 71.11 299.06 70.34 300.17C69.57 301.16 68.72 302.07 67.78 302.91L67.5 303.19C66.91 303.78 66.37 304.42 65.81 305.04C65.24 305.65 64.99 305.99 64.55 306.42L63.34 307.65C62.73 308.29 62.11 308.91 61.52 309.55C60.65 310.59 59.66 311.52 58.58 312.34C57.29 313.27 56.32 314.01 55.42 314.78C54.29 315.76 53.06 316.62 51.76 317.34C50.93 317.76 50.07 318.12 49.19 318.42C48.63 318.63 48.06 318.86 47.53 319.11C46.69 319.46 45.83 319.76 44.96 320.01L43.55 320.47C42.6 320.87 41.73 321.44 40.99 322.16L40.45 322.63C39.78 323.16 39.12 323.65 38.42 324.16C36.75 325.31 35.21 326.63 33.83 328.11C33.24 328.78 32.71 329.5 32.17 330.22C31.63 330.93 31.55 331.01 31.22 331.39C30.88 331.78 30.5 332.27 30.12 332.68C29.73 333.09 29.12 333.81 28.65 334.39C27.78 335.59 26.99 336.84 26.27 338.14C25.5 339.47 24.65 340.74 23.71 341.96C22.17 343.88 20.45 345.73 18.81 347.52L17.6 348.83C16.64 349.87 15.73 350.95 14.89 352.09C14.56 352.56 14.18 352.99 13.76 353.37C13.57 353.51 13.35 353.62 13.12 353.68C12.71 353.83 12.32 354.02 11.96 354.27C11.63 354.5 11.33 354.78 11.06 355.09L10.65 355.47C10.05 355.96 9.39 356.39 8.71 356.75L7.58 357.37C6.68 357.84 5.83 358.38 5.01 358.98C4.83 359.1 4.66 359.24 4.5 359.39L4.14 359.68L3.99 360.37L5.24 360.75L3.99 360.5L3.3 363.98L6.32 361.42C6.54 361.21 6.78 361.02 7.04 360.86C7.68 360.42 8.4 360.03 9.09 359.65L10.58 358.83C11.19 358.47 11.78 358.08 12.35 357.65C12.61 357.43 12.86 357.2 13.09 356.96C13.32 356.7 13.59 356.47 13.89 356.29L14.3 356.14C14.68 356.01 15.04 355.82 15.37 355.6C15.98 355.13 16.51 354.58 16.96 353.96C18.27 352.27 19.73 350.65 21.14 349.11L23.12 346.91C25.07 344.83 26.79 342.54 28.24 340.09C28.88 338.93 29.58 337.75 30.32 336.68C30.86 335.93 31.44 335.22 32.06 334.55L33.09 333.34L34.32 331.78C34.73 331.27 35.14 330.73 35.58 330.22C36.38 329.26 37.29 328.4 38.29 327.65L41.94 324.81L42.7 324.19C43.33 323.58 44.09 323.11 44.91 322.81C46.12 322.47 47.32 322.05 48.47 321.55C49.04 321.29 49.63 321.06 50.19 320.86C51.13 320.5 52.04 320.1 52.94 319.65C54.21 318.98 55.42 318.2 56.55 317.32L57.22 316.75C58.09 316.04 58.96 315.34 59.78 314.7C61.32 313.66 62.74 312.45 64.01 311.09ZM132.21 208.32L133.6 208.32L133.93 208.09C134.34 207.83 134.77 207.62 135.21 207.45L135.88 207.17C136.54 206.85 137.16 206.44 137.73 205.96L138.29 205.55C138.81 205.23 139.37 204.99 139.96 204.84L140.65 204.58C141.16 204.43 141.65 204.22 142.16 204.02L143.52 203.5L144.37 203.22C144.91 203.06 145.44 202.87 145.96 202.66L147.06 202.17C147.65 201.86 148.27 201.61 148.91 201.43L149.6 201.25C150.38 201.19 151.13 200.92 151.77 200.46C152.41 200.01 152.92 199.4 153.24 198.68C153.37 198.4 153.44 198.12 153.55 197.84C153.67 197.42 153.84 197.01 154.06 196.63C154.42 196.09 154.86 195.61 155.37 195.2L155.83 194.76C157.23 193.41 158.55 191.97 159.78 190.45C160.13 189.99 160.57 189.59 161.06 189.27C161.64 188.98 162.26 188.78 162.91 188.68L163.52 188.53C164.28 188.33 165.02 188.06 165.73 187.71L167.03 187.17C167.78 186.84 168.52 186.53 169.26 186.14C170.36 185.54 171.41 184.88 172.42 184.14L174.08 183.02C175.18 182.36 176.31 181.76 177.47 181.22L179.34 180.32C180.06 179.97 180.82 179.7 181.6 179.5C182.21 179.32 182.79 179.06 183.34 178.73L183.98 178.4C185.55 177.66 187.24 177.07 188.85 176.48L189.72 176.17C190.62 175.86 191.49 175.48 192.29 175.12C193.08 174.76 194.29 174.27 195.31 173.94L197.29 173.38L197.85 173.22C198.42 173.22 198.96 172.91 199.49 172.73L200.75 172.32L202.19 171.99L203.52 171.68C204.4 171.43 205.26 171.09 206.08 170.68L206.39 170.56C207.25 170.14 208.16 169.87 209.11 169.76C209.99 169.68 210.83 169.34 211.52 168.79C212.62 168.14 213.86 167.77 215.13 167.68C215.83 167.68 216.52 167.45 217.19 167.3L217.85 167.12C219.98 166.58 222.11 166.04 224.21 165.45L225.01 165.22C225.83 164.99 226.62 164.79 227.39 164.5C228.09 164.26 228.77 163.94 229.39 163.53L230.11 163.12C230.43 162.99 230.77 162.89 231.11 162.81C231.57 162.73 232.03 162.59 232.47 162.4C233.25 161.97 233.9 161.34 234.36 160.58L234.83 159.89L234.49 159.17L234.06 158.43L232.62 158.43L232.24 158.94C231.67 159.68 231.47 159.89 230.98 159.99C230.08 160.15 229.21 160.47 228.42 160.91C226.97 161.71 225.41 162.28 223.8 162.63L223.31 162.76C222.24 163.07 221.13 163.32 220.06 163.61L217.21 164.32C216.44 164.53 215.67 164.63 214.9 164.76C213.75 164.91 212.61 165.16 211.49 165.5C210.96 165.72 210.45 166 209.98 166.32L209.39 166.71C209.04 166.84 208.67 166.92 208.29 166.94C207.78 166.98 207.27 167.07 206.78 167.22C206.06 167.48 205.39 167.79 204.7 168.09L204.37 168.25C203.42 168.64 202.43 168.94 201.42 169.12C200.24 169.38 199.11 169.73 197.96 170.07C197.26 170.3 196.55 170.5 195.85 170.68C194.52 171.08 193.22 171.56 191.96 172.12L190.03 172.86L187.98 173.63C186.8 174.04 185.62 174.45 184.47 174.91C183.31 175.38 182.75 175.63 181.9 176.07L181.6 176.25C181.37 176.38 181.13 176.5 180.88 176.61L180.34 176.61C180.05 176.65 179.77 176.72 179.49 176.81C178.91 177.02 178.34 177.29 177.8 177.61L177.34 177.84L174.52 179.2C173.21 179.89 171.95 180.67 170.75 181.53L169.57 182.32C168.07 183.24 166.49 184.03 164.85 184.68L164.29 184.94C163.47 185.29 162.61 185.56 161.73 185.73C160.76 185.92 159.84 186.28 159.01 186.81C158.11 187.49 157.32 188.3 156.67 189.22C156.37 189.61 156.06 190.02 155.73 190.37C155.39 190.73 154.75 191.32 154.26 191.79C153.34 192.56 152.48 193.42 151.7 194.35C151.17 195.14 150.76 196 150.5 196.91C150.41 197.22 150.28 197.51 150.11 197.78C149.8 197.95 149.46 198.06 149.11 198.09C147.7 198.45 146.32 198.93 144.98 199.53C144.24 199.81 143.52 200.12 142.78 200.37L140.88 201.09L139.75 201.5L138.96 201.78C138.15 202.01 137.37 202.34 136.65 202.76L135.75 203.43C135.4 203.73 135.03 203.99 134.62 204.22L133.96 204.53C133.27 204.79 132.63 205.15 132.03 205.58L131.27 206.27L131.57 207.14L132.21 208.32ZM256.13 313.22L255.41 313.22C254.22 313.18 253.04 313.41 251.95 313.91C250.54 314.57 249.13 315.22 247.7 315.78C247.11 316.01 246.52 316.16 245.9 316.34C245.18 316.54 244.47 316.77 243.77 317.04C242.49 317.56 241.24 318.16 240.03 318.83L238.83 319.45C237.88 319.88 236.97 320.4 236.11 320.99C235.86 321.19 235.59 321.36 235.29 321.47L234.93 321.47C234.59 321.54 234.25 321.64 233.93 321.75C233.4 322.03 232.9 322.37 232.47 322.78C231.97 323.16 231.42 323.47 230.83 323.68C230.17 323.95 229.49 324.18 228.8 324.37C227.2 324.79 225.68 325.49 224.31 326.42C223.57 327.01 222.87 327.66 222.24 328.37L221.65 329.01C220.84 329.91 219.98 330.76 219.08 331.57C218.1 332.4 217.01 333.09 215.85 333.63C214.93 334.06 214.06 334.6 213.16 335.11L212.19 335.65C211.51 336.04 210.8 336.39 210.08 336.7L208.52 337.42L208.21 337.6C207.75 337.86 207.26 338.07 206.75 338.22C206.39 338.3 206.02 338.36 205.65 338.39L204.96 338.39C202.14 338.93 199.5 340.15 197.26 341.93C196.03 342.83 195.06 343.5 194.03 344.11C192.89 344.75 191.8 345.48 190.78 346.29C189.88 347.06 189.02 347.87 188.21 348.73C187.25 349.79 186.18 350.76 185.03 351.62C184.55 351.95 184.05 352.25 183.52 352.5C182.98 352.78 182.44 353.09 181.93 353.42C180.98 354.05 180.12 354.8 179.37 355.65C179.11 355.93 178.87 356.23 178.65 356.55C178.32 357.08 177.88 357.54 177.37 357.91C177.03 358.06 176.68 358.15 176.32 358.19C175.65 358.28 175.01 358.48 174.42 358.78C174.12 358.96 173.84 359.15 173.57 359.37L173.19 359.65C172.79 359.9 172.38 360.13 171.96 360.32L171.62 360.47C170.86 360.87 170.13 361.35 169.47 361.91C169.06 362.21 168.65 362.52 168.24 362.78L167.44 363.24C166.59 363.68 165.8 364.24 165.11 364.91C164.76 365.29 164.44 365.69 164.14 366.11C163.8 366.61 163.4 367.07 162.96 367.47C162.44 367.88 161.88 368.21 161.34 368.57C160.72 368.91 160.13 369.3 159.57 369.73C158.49 370.59 157.51 371.58 156.67 372.68C155.81 373.84 155.07 375.08 154.44 376.39C153.98 377.35 153.46 378.27 152.88 379.16C152.62 379.52 152.37 379.91 152.09 380.26C151.8 380.62 151.11 381.65 150.67 382.37C150.02 383.5 149.46 384.69 148.98 385.91L148.98 386.21C148.38 387.58 147.88 388.98 147.47 390.42C147.17 391.41 146.75 392.37 146.21 393.26L145.78 394.08C145.15 395.34 144.71 396.69 144.5 398.08L144.5 398.67C144.5 399.08 144.34 399.49 144.24 399.88C144.16 400.18 144.06 400.47 143.93 400.75C143.8 401.08 143.67 401.42 143.57 401.78C143.33 402.83 143.26 403.91 143.34 404.98L143.34 405.78L143.34 407.14L144.62 407.14L146.01 407.14L146.01 405.06C145.92 404.09 146.01 403.1 146.27 402.16C146.64 400.99 146.95 399.8 147.19 398.6L147.19 398.19C147.43 396.98 147.87 395.82 148.5 394.75C149.22 393.55 149.78 392.26 150.14 390.91C150.48 389.74 150.89 388.6 151.39 387.5L151.57 387.08C152.06 385.79 152.68 384.54 153.42 383.37C153.75 382.88 154.09 382.39 154.44 381.93C154.8 381.47 155.26 380.8 155.62 380.21C156.06 379.51 156.44 378.79 156.78 378.03C156.98 377.62 157.16 377.21 157.39 376.83C158.53 374.59 160.24 372.69 162.34 371.32L162.85 371.01C163.86 370.45 164.79 369.75 165.6 368.93C165.93 368.58 166.23 368.21 166.5 367.8C166.85 367.28 167.28 366.81 167.78 366.42L169.01 365.68C169.67 365.3 170.32 364.89 170.93 364.44L171.49 363.98L172.34 363.34L173.24 362.91L174.03 362.52L175.11 361.83C175.53 361.48 176.02 361.21 176.55 361.06C177.65 360.97 178.71 360.55 179.57 359.86C180.09 359.36 180.56 358.82 180.98 358.24C181.24 357.91 181.49 357.57 181.78 357.27C182.44 356.55 183.21 355.93 184.06 355.45L184.85 355.01C185.71 354.57 186.52 354.05 187.29 353.47C188.31 352.68 189.28 351.82 190.19 350.91L190.83 350.27C191.41 349.61 192.05 348.99 192.72 348.42C193.54 347.8 194.4 347.22 195.29 346.7L195.98 346.29C196.83 345.78 197.65 345.21 198.55 344.63C199.89 343.63 201.32 342.77 202.83 342.06C203.98 341.61 205.19 341.32 206.42 341.19C207.6 340.97 208.74 340.56 209.8 339.98L211.39 339.24C212.26 338.83 213.11 338.42 213.95 337.93C214.8 337.45 216.26 336.63 217.47 336.04C219.76 334.81 221.82 333.18 223.54 331.24C223.8 330.99 224.04 330.72 224.26 330.45C224.82 329.81 225.44 329.22 226.11 328.7C227 328.1 227.99 327.65 229.03 327.37L229.72 327.14C230.54 326.86 231.39 326.6 232.29 326.27C232.9 326.01 233.48 325.69 234.03 325.32C234.23 325.19 234.42 325.04 234.59 324.88C234.82 324.66 235.09 324.48 235.39 324.37L235.77 324.37C235.98 324.35 236.18 324.29 236.36 324.22C236.97 324.01 237.53 323.7 238.03 323.29C238.69 322.85 239.38 322.47 240.11 322.14L241.29 321.55C242.49 320.87 243.73 320.26 245 319.73C245.39 319.59 245.78 319.48 246.18 319.4L246.88 319.22C247.57 319.01 248.29 318.73 249.13 318.4C250.47 317.86 251.7 317.29 253.06 316.68C253.93 316.26 254.89 316.07 255.85 316.11L256.21 316.11L257.54 315.91L257.54 313.34L256.13 313.22ZM256.67 302.68L256.11 302.93C255.49 303.16 254.92 303.49 254.41 303.91C253.57 304.56 252.63 305.08 251.62 305.45L250.26 305.96C249.95 306.05 249.63 306.11 249.31 306.14L248.65 306.14C247.94 306.28 247.29 306.59 246.75 307.06C246.56 307.23 246.36 307.37 246.13 307.47C245.94 307.52 245.74 307.52 245.54 307.47C245.27 307.49 245.01 307.53 244.75 307.6C244.19 307.73 243.66 307.96 243.18 308.29C242.41 308.77 241.6 309.19 240.77 309.57L240.11 309.88L236.44 311.75L233.88 313.11C231.95 314.09 230.06 314.88 228.03 315.68L227.44 315.93C226.67 316.24 225.94 316.64 225.26 317.11C224.5 317.75 223.88 318.52 223.42 319.4L223.26 319.68C223.11 319.99 222.9 320.27 222.63 320.5C222.37 320.73 222.06 320.91 221.72 321.01C221.22 321.11 220.72 321.19 220.21 321.24L218.9 321.42L218.16 321.55C217.42 321.68 216.7 321.81 215.95 321.99C214.79 322.33 213.67 322.82 212.62 323.45L211.26 324.19C209.47 325.16 207.6 326.19 205.8 327.37C204.7 328.09 203.75 328.78 202.9 329.45L202.34 329.96C201.9 330.34 201.31 330.88 200.96 330.88L200.7 330.88L199.44 330.88L199.44 332.06L199.44 333.29L200.62 333.5L201.11 333.5C201.89 333.46 202.64 333.18 203.26 332.7C203.72 332.37 204.19 331.98 204.62 331.63L205.65 330.78C207.49 329.4 209.45 328.19 211.49 327.14L213.06 326.29C214.44 325.46 215.93 324.82 217.49 324.42C218.49 324.22 219.52 324.01 220.52 323.91L220.85 323.91C221.73 323.86 222.59 323.68 223.42 323.37C224.37 322.94 225.16 322.21 225.67 321.29L225.95 320.81C226.3 320.12 226.79 319.53 227.39 319.06C228.06 318.68 228.76 318.35 229.49 318.09L229.8 317.96C230.93 317.52 232.03 317.04 233.13 316.52C234.75 315.75 236.36 314.93 237.95 314.11L239.75 313.19C240.8 312.68 241.83 312.14 242.88 311.65L243.18 311.65C243.55 311.5 243.9 311.32 244.24 311.11L244.72 310.81C244.99 310.6 245.29 310.44 245.62 310.34C245.78 310.33 245.95 310.33 246.11 310.34C246.6 310.33 247.09 310.23 247.54 310.04C247.93 309.85 248.29 309.6 248.59 309.29L248.98 309.01C249.23 308.9 249.5 308.84 249.77 308.86L250.47 308.86C251.04 308.74 251.6 308.56 252.13 308.32L252.9 308.04C253.88 307.69 254.82 307.24 255.7 306.68L256.36 306.14C256.54 305.95 256.75 305.79 256.98 305.68L258.03 305.19L258.7 304.7L258.98 301.68L256.67 302.68ZM146.16 316.78C146.55 316.25 146.89 315.69 147.19 315.11L147.44 314.68C147.75 314.14 148.09 313.6 148.44 313.09L148.73 312.68C149.69 311.28 150.43 309.74 150.91 308.11C151.11 307.42 151.29 306.73 151.47 306.04C151.96 303.71 152.83 301.47 154.03 299.42C154.69 298.53 155.47 297.73 156.34 297.04L157.39 296.11L158.11 295.42C159.09 294.52 160.03 293.63 161.06 292.86C162.09 292.09 163.62 290.96 164.78 290.04L165.21 289.73C166.04 289.09 166.82 288.4 167.55 287.65C167.88 287.32 168.21 286.99 168.57 286.68C169.21 286.12 169.92 285.64 170.67 285.27C171.33 284.92 171.96 284.53 172.57 284.11C173.53 283.35 174.44 282.54 175.32 281.68L176.49 280.55C177.8 279.4 179.06 278.19 180.34 276.96C180.54 276.77 180.68 276.52 180.74 276.24C180.8 275.97 180.78 275.68 180.67 275.42L180.21 274.53L179.34 274.53L178.73 274.53L178.34 274.91C177.06 276.19 175.78 277.47 174.37 278.65L173.21 279.73C172.44 280.58 171.58 281.34 170.65 282.01C170.24 282.29 169.8 282.52 169.39 282.76C168.4 283.26 167.47 283.89 166.62 284.63L165.8 285.42C165.01 286.25 164.15 287.01 163.24 287.7C161.91 288.68 160.67 289.65 159.29 290.7C157.91 291.76 157.37 292.4 156.44 293.27L155.5 294.17L154.57 294.96C153.63 295.72 152.77 296.58 152.01 297.52C151.28 298.59 150.7 299.74 150.26 300.96L150.01 301.6C149.49 302.9 149.09 304.24 148.8 305.6L148.6 306.42C148.23 307.97 147.61 309.44 146.75 310.78L146.29 311.45L145.42 312.75L144.91 313.7C144.7 314.06 144.52 314.42 144.29 314.75C143.43 315.89 142.38 316.87 141.19 317.65C140.29 318.35 139.43 319.1 138.62 319.91L137.57 320.86C137.06 321.32 136.52 321.73 135.98 322.16C135.21 322.74 134.47 323.36 133.78 324.04L132.42 325.37C131.75 326.09 131.06 326.78 130.32 327.45C129.57 328.11 129.27 328.45 128.73 328.98C128.15 329.6 127.54 330.18 126.91 330.73C125.81 331.71 124.86 332.85 124.11 334.11C123.75 334.65 123.37 335.16 122.98 335.68C122.34 336.57 121.68 337.47 121.11 338.45C120.78 338.98 120.47 339.55 120.16 340.11C119.69 341.06 119.14 341.97 118.52 342.83C118.16 343.34 117.75 343.86 117.34 344.34C116.7 345.09 116.1 345.88 115.55 346.7L114.6 348.21C113.98 349.19 113.39 350.16 112.73 351.09C112.06 352.01 111.86 352.21 111.39 352.75C110.76 353.47 110.18 354.24 109.65 355.03C109.29 355.57 108.96 356.16 108.63 356.73C108.14 357.62 107.59 358.47 106.98 359.29C106.06 360.38 105.09 361.41 104.06 362.39L103.86 362.57C102.78 363.65 101.78 364.78 100.83 365.85C99.74 367.16 98.58 368.4 97.34 369.57C96.65 370.19 95.91 370.78 95.16 371.37C93.44 372.6 91.91 374.09 90.63 375.78C90.16 376.45 89.65 377.09 89.11 377.7C88.6 378.29 88.11 378.88 87.65 379.5C86.79 380.77 86.04 382.12 85.42 383.52L85.27 383.88C84.76 384.74 84.31 385.63 83.91 386.55C83.65 387.29 83.4 388.03 83.06 388.78C82.68 389.55 82.24 390.29 81.73 390.98L80.7 392.57L80.5 392.96C79.72 394.2 79.06 395.53 78.55 396.91C78.11 398.51 77.95 400.19 78.09 401.85C78.23 403.24 78.05 404.65 77.55 405.96C77.28 406.49 76.97 407.01 76.63 407.49C76.37 407.92 76.16 408.36 75.99 408.83C75.99 409.08 75.75 409.37 75.63 409.6C75.09 410.46 74.48 411.27 73.81 412.03L72.68 413.42C71.63 414.83 70.55 416.21 69.58 417.65L69.11 418.29C68.37 419.25 67.75 420.3 67.27 421.42C66.89 422.24 66.41 423 65.83 423.7C65.42 424.22 65.03 424.77 64.68 425.34C64 426.56 63.13 427.67 62.11 428.62L61.42 429.37L61.73 430.19L62.19 431.11L63.65 431.11L64.01 430.8C65.18 429.69 66.19 428.41 66.99 427.01C67.3 426.5 67.64 426.01 68.01 425.54C68.56 424.84 69.05 424.11 69.5 423.34C69.67 423.01 69.81 422.67 69.93 422.31C70.02 422.06 70.12 421.81 70.24 421.57C70.49 421.17 70.77 420.78 71.06 420.42L71.63 419.67C72.58 418.31 73.55 416.96 74.55 415.65L75.75 414.16C76.45 413.29 77.16 412.44 77.78 411.6C78.05 411.17 78.27 410.71 78.45 410.24L78.7 409.62C78.87 409.31 79.06 409.01 79.27 408.73C79.5 408.39 79.7 408.06 79.91 407.7C80.76 405.86 81.1 403.82 80.91 401.8C80.84 400.76 80.89 399.71 81.06 398.67C81.38 397.42 81.9 396.23 82.6 395.14L82.96 394.47C83.29 393.91 83.65 393.34 84.04 392.8C84.56 392.07 85.03 391.31 85.45 390.52C85.84 389.69 86.2 388.83 86.5 387.96C86.72 387.2 87 386.47 87.32 385.75L87.55 385.29C88.11 384 88.77 382.76 89.52 381.57C89.95 380.97 90.41 380.4 90.91 379.85C91.45 379.24 91.96 378.62 92.42 377.98C93.22 376.83 94.19 375.81 95.29 374.96C97.97 372.91 100.41 370.58 102.57 368.01C103.53 366.84 104.57 365.73 105.68 364.7C106.86 363.58 107.98 362.4 109.04 361.16C109.71 360.25 110.33 359.29 110.88 358.29L111.57 357.11C112.11 356.31 112.69 355.54 113.32 354.8C113.75 354.32 114.16 353.8 114.55 353.29C115.32 352.27 115.98 351.16 116.65 350.09L117.45 348.83C118.04 347.94 118.69 347.08 119.39 346.27L120.32 345.09C121.06 344.05 121.74 342.96 122.34 341.83C122.57 341.39 122.8 340.96 123.06 340.52C123.7 339.45 124.42 338.45 125.16 337.39L125.86 336.42C126.09 336.11 126.29 335.78 126.5 335.45C126.7 335.11 126.93 334.75 127.19 334.42C127.58 333.92 128.04 333.47 128.55 333.09C129.25 332.49 129.92 331.86 130.55 331.19C131.01 330.7 131.47 330.24 131.96 329.81C132.45 329.37 133.42 328.37 134.14 327.63L135.67 326.11C136.26 325.57 136.88 325.07 137.52 324.6C138.09 324.14 138.65 323.7 139.19 323.22L140.06 322.45C141.05 321.54 142.08 320.68 143.16 319.88C144.32 319.02 145.34 317.97 146.16 316.78Z" fill="#EEDAAE" fill-opacity="1.000000" fill-rule="nonzero"/>
	<path id="Vector" d="" fill="#FFFFFF" fill-opacity="1.000000" fill-rule="nonzero"/>
	<path id="Vector" d="M314.18 327.88C314.08 327.14 313.73 326.46 313.18 325.96C311.85 324.96 310.28 326.7 309.64 327.7C308.59 329.54 307.73 331.48 307.08 333.5C306.56 334.59 306.11 335.71 305.72 336.86C305.39 338.1 305.2 339.37 305.16 340.65C305.16 342.32 305.16 344.01 305.16 345.78C305.16 346.68 305.16 347.6 305.16 348.5C305.16 349.39 304.8 350.34 304.64 351.27C304.44 353.06 304.39 354.87 304.49 356.68C304.49 357.5 304.49 358.32 304.49 359.24C304.49 360.24 304.49 361.21 304.49 362.21C304.49 362.26 304.5 362.31 304.53 362.34C304.56 362.38 304.6 362.41 304.64 362.42L304.64 362.55L304.82 362.55L304.82 362.39C304.84 362.37 304.85 362.34 304.85 362.3C304.85 362.27 304.84 362.24 304.82 362.21C305.11 360.88 305.55 359.58 306.13 358.34C306.26 356.97 306.51 355.62 306.87 354.29C307.41 352.98 308.57 352.27 309.44 351.16C309.76 350.76 309.98 350.29 310.08 349.78C310.06 349.09 310.12 348.4 310.26 347.73C310.46 347.16 310.85 346.65 311.08 346.11C311.37 345.45 311.61 344.76 311.8 344.06C312.21 342.65 312.46 341.21 312.77 339.78C313.78 337.02 314.43 334.14 314.69 331.22C314.64 330.09 314.46 328.97 314.18 327.88Z" fill="#FFFFFF" fill-opacity="1.000000" fill-rule="nonzero"/>
	<path id="Vector" d="M285.03 319.24C285.12 318.59 285.07 317.92 284.87 317.29C284.39 315.99 283.54 314.73 283.05 313.52C282.71 312.07 282.48 310.58 282.36 309.09C281.99 307.78 281.44 306.52 280.75 305.34C280.05 303.99 279.52 302.47 278.93 301.04C278.34 299.6 278.44 298.68 278.03 297.52C277.58 296.65 277.1 295.79 276.57 294.96C275.95 293.7 274.85 291.37 273.03 291.91C271.7 292.29 271.26 294.19 271.03 295.34C270.57 297.1 270.57 298.95 271.03 300.7C272.11 303.07 273.6 305.22 275.44 307.06C276.39 308.4 277.13 309.88 277.64 311.45C277.8 311.86 277.98 312.24 278.16 312.65C278.13 312.65 278.1 312.65 278.07 312.66C278.05 312.68 278.02 312.69 278.01 312.72C277.99 312.74 277.98 312.77 277.98 312.8C277.98 312.83 277.99 312.86 278 312.88C278.29 313.61 278.72 314.27 279.26 314.83L279.49 315.29C280.05 316.27 280.67 317.22 281.31 318.16C281.51 318.54 281.74 318.9 282 319.24C282.21 319.51 282.45 319.76 282.7 319.99C283.19 320.58 283.72 321.14 284.29 321.68C284.89 323.06 285.33 324.5 285.59 325.98C285.62 326.04 285.66 326.08 285.72 326.11C285.77 326.13 285.83 326.14 285.89 326.12C285.95 326.11 286 326.07 286.03 326.02C286.07 325.98 286.08 325.92 286.08 325.86C285.62 324.4 285.85 322.83 285.44 321.37C285.19 320.69 285.06 319.97 285.03 319.24Z" fill="#FFFFFF" fill-opacity="1.000000" fill-rule="nonzero"/>
	<path id="Vector" d="M335.95 360.57C335.77 360.06 335.33 360.01 334.87 360.09C334 360.22 333.17 360.57 332.46 361.11C331.71 361.6 330.98 362.13 330.28 362.7C330.28 362.7 330.28 362.57 330.13 362.57C329.33 362.57 328.95 363.32 328.64 363.96C328.43 364.35 328.18 364.71 327.9 365.06L327.39 365.6C327 365.98 326.56 366.3 326.08 366.55C325.13 367.14 324.26 367.87 323.51 368.7C322.57 369.34 321.82 370.22 321.36 371.27C321.36 371.44 321.51 371.6 321.64 371.5C322.11 371.16 322.6 370.86 323.1 370.6C323.77 370.27 324.57 370.24 325.26 369.96C326.4 369.35 327.49 368.66 328.51 367.88C329.01 367.56 329.57 367.35 330.16 367.27C330.5 367.21 330.82 367.06 331.08 366.83C332.08 366.01 333.1 365.24 334 364.27C334.57 363.69 335.08 363.05 335.51 362.37C335.74 361.86 336.15 361.14 335.95 360.57Z" fill="#FFFFFF" fill-opacity="1.000000" fill-rule="nonzero"/>
	<path id="Vector" d="M240.31 352.06C239.83 351.78 239.26 351.68 238.77 351.42C238.29 351.18 237.78 350.97 237.26 350.8C236.13 350.25 234.92 349.87 233.67 349.7C233.08 349.72 232.49 349.79 231.9 349.91C231.18 349.91 230.44 349.91 229.72 349.91C228.86 350.07 228.06 350.47 227.42 351.06C227.03 351.34 226.34 351.86 226.47 352.45C226.59 353.03 227.52 353.01 228.01 352.88C228.56 352.71 229.14 352.59 229.72 352.55C230.38 352.62 231.04 352.62 231.7 352.55C232.49 352.33 233.31 352.25 234.13 352.32C235 352.42 235.86 352.58 236.7 352.8C237.44 352.96 238.21 352.8 238.95 353.09C239.76 353.29 240.54 353.55 241.31 353.86C241.31 354.03 241.65 353.98 241.62 353.86C241.59 353.21 240.77 352.42 240.31 352.06Z" fill="#FFFFFF" fill-opacity="1.000000" fill-rule="nonzero"/>
	<path id="Vector" d="M302.16 65.35L302.16 65.23C302.16 65.23 302 65.23 302.16 65.35Z" fill="#202147" fill-opacity="1.000000" fill-rule="evenodd"/>
	<path id="Vector" d="M310.93 88.12C310.88 87.98 310.82 87.84 310.75 87.71C310.62 87.52 310.46 87.36 310.26 87.25L309.67 86.97C309.29 86.81 308.92 86.62 308.57 86.4L308.39 86.22C308.23 86.08 308.02 86 307.81 86C307.6 86 307.39 86.08 307.23 86.22C307.08 86.38 307 86.59 307 86.8C307 87.02 307.08 87.22 307.23 87.38C307.77 87.88 308.42 88.25 309.13 88.46L308.93 88.46L309.44 88.71C309.57 88.8 309.71 88.88 309.85 88.94C309.93 88.93 310.02 88.93 310.1 88.94C310.22 88.97 310.34 88.97 310.45 88.94C310.57 88.91 310.67 88.85 310.75 88.77C310.84 88.69 310.9 88.58 310.93 88.47C310.96 88.36 310.96 88.24 310.93 88.12Z" fill="#FFFFFF" fill-opacity="1.000000" fill-rule="nonzero"/>
	<path id="Vector" d="M342.87 68.35C342.85 68.29 342.8 68.23 342.74 68.19C342.68 68.15 342.61 68.13 342.54 68.13C342.47 68.13 342.4 68.15 342.34 68.19C342.28 68.23 342.23 68.29 342.21 68.35L342.21 68.48C342.13 68.6 342.06 68.73 342 68.87L342 69.02L341.8 69.33L341.54 69.61L341 70.1C340.95 70.15 340.9 70.21 340.87 70.28C340.84 70.35 340.83 70.42 340.83 70.49C340.83 70.57 340.84 70.64 340.87 70.71C340.9 70.78 340.95 70.84 341 70.89C341.11 70.99 341.24 71.04 341.39 71.04C341.53 71.04 341.67 70.99 341.77 70.89C342.21 70.54 342.59 70.11 342.9 69.64C343.05 69.39 343.18 69.14 343.28 68.87C343.18 68.67 343.04 68.5 342.87 68.35Z" fill="#FFFFFF" fill-opacity="1.000000" fill-rule="nonzero"/>
	<path id="Vector" d="M348.33 55.28C348.14 55.44 347.97 55.64 347.85 55.87L347.46 56.48C347.33 56.71 347.23 56.96 347.18 57.23C347.1 57.49 347.05 57.75 347.03 58.02C347.03 58.14 347.07 58.25 347.15 58.34C347.22 58.42 347.32 58.48 347.44 58.51C347.55 58.52 347.67 58.49 347.77 58.42C347.87 58.36 347.94 58.26 347.97 58.15C348.02 57.93 348.09 57.71 348.18 57.51L348.18 57.25C348.17 57.14 348.17 57.03 348.18 56.92C348.24 56.71 348.31 56.5 348.39 56.3C348.49 56.09 348.55 55.85 348.56 55.61C348.57 55.54 348.55 55.46 348.51 55.4C348.47 55.34 348.41 55.3 348.33 55.28Z" fill="#FFFFFF" fill-opacity="1.000000" fill-rule="nonzero"/>
	<path id="Vector" d="" fill="#FFFFFF" fill-opacity="1.000000" fill-rule="nonzero"/>
	<path id="Vector" d="M347.72 35.48C347.67 35.45 347.6 35.43 347.54 35.43C347.47 35.43 347.41 35.45 347.36 35.48C347.21 35.61 347.03 35.71 346.9 35.84L346.51 36.23L345.74 36.97C345.7 37 345.66 37.05 345.64 37.09C345.61 37.14 345.6 37.2 345.59 37.25C345.59 37.31 345.6 37.36 345.61 37.41C345.63 37.46 345.66 37.51 345.7 37.55C345.74 37.59 345.79 37.62 345.84 37.64C345.89 37.66 345.95 37.67 346 37.66C346.06 37.66 346.11 37.64 346.16 37.62C346.21 37.59 346.25 37.55 346.28 37.51L347.03 36.74L347.39 36.35C347.53 36.21 347.66 36.06 347.77 35.89C347.81 35.83 347.83 35.75 347.82 35.68C347.81 35.6 347.78 35.53 347.72 35.48Z" fill="#FFFFFF" fill-opacity="1.000000" fill-rule="nonzero"/>
	<path id="Vector" d="M344.33 53.23C344.26 53.16 344.17 53.13 344.08 53.13C343.98 53.13 343.89 53.16 343.82 53.23C343.64 53.35 343.47 53.49 343.31 53.64C343.16 53.82 343.03 54.01 342.92 54.23C342.68 54.63 342.56 55.09 342.56 55.56C342.56 55.62 342.57 55.68 342.59 55.74C342.61 55.8 342.65 55.86 342.69 55.9C342.73 55.95 342.79 55.98 342.84 56.01C342.9 56.03 342.96 56.05 343.03 56.05C343.09 56.05 343.16 56.04 343.22 56.02C343.28 55.99 343.33 55.96 343.38 55.91C343.43 55.87 343.46 55.81 343.48 55.75C343.51 55.69 343.52 55.62 343.51 55.56C343.5 55.48 343.5 55.4 343.51 55.33C343.5 55.24 343.5 55.16 343.51 55.07C343.51 55.07 343.51 55.07 343.51 54.94L343.82 54.46L343.97 54.25C344.11 54.3 344.26 54.29 344.39 54.23C344.52 54.17 344.62 54.05 344.67 53.92C344.71 53.78 344.71 53.63 344.64 53.5C344.58 53.37 344.47 53.27 344.33 53.23Z" fill="#FFFFFF" fill-opacity="1.000000" fill-rule="nonzero"/>
	<path id="Vector" d="M349.08 51.79L348.51 51.79L347 51.79C346.9 51.79 346.8 51.83 346.73 51.9C346.66 51.97 346.62 52.07 346.62 52.17C346.62 52.28 346.66 52.37 346.73 52.45C346.8 52.52 346.9 52.56 347 52.56L348.51 52.56L349.08 52.56C349.08 52.56 349.28 52.41 349.28 52.3C349.32 52.26 349.35 52.21 349.36 52.15C349.37 52.09 349.36 52.04 349.34 51.98C349.32 51.93 349.28 51.88 349.24 51.85C349.19 51.81 349.13 51.79 349.08 51.79Z" fill="#FFFFFF" fill-opacity="1.000000" fill-rule="nonzero"/>
	<path id="Vector" d="M342.87 48.74C342.15 48.92 341.98 49.74 341.9 50.38C341.9 50.51 341.9 50.64 341.9 50.79C341.91 50.85 341.91 50.91 341.9 50.97C341.91 51.04 341.91 51.11 341.9 51.17C341.91 51.23 341.91 51.28 341.9 51.33C341.82 51.44 341.78 51.58 341.8 51.72C341.81 51.85 341.87 51.98 341.97 52.08C342.06 52.18 342.19 52.24 342.33 52.25C342.47 52.26 342.61 52.23 342.72 52.15C342.95 51.88 343.11 51.55 343.18 51.2C343.22 50.89 343.22 50.58 343.18 50.28C343.17 50.15 343.17 50.02 343.18 49.89L343.18 49.61C343.17 49.54 343.17 49.47 343.18 49.41L343.18 49.2C343.19 49.15 343.19 49.1 343.18 49.05C343.17 49 343.15 48.95 343.12 48.9C343.1 48.86 343.06 48.82 343.02 48.8C342.97 48.77 342.92 48.75 342.87 48.74Z" fill="#FFFFFF" fill-opacity="1.000000" fill-rule="nonzero"/>
	<path id="Vector" d="M302.87 30.84C302.88 30.73 302.88 30.62 302.87 30.51C302.82 30.42 302.75 30.35 302.65 30.31C302.56 30.27 302.46 30.26 302.36 30.28C302.26 30.31 302.17 30.37 302.1 30.45C302.04 30.53 302 30.63 302 30.74L302 30.92C301.99 31 301.99 31.07 302 31.15C302.01 31.23 302.01 31.3 302 31.38L302 31.59L301.77 32.07C301.72 32.21 301.72 32.37 301.77 32.51C301.83 32.65 301.93 32.78 302.05 32.87C302.19 32.92 302.35 32.92 302.49 32.87C302.64 32.82 302.77 32.72 302.85 32.59C303.02 32.22 303.17 31.84 303.28 31.46C303.31 31.25 303.31 31.05 303.28 30.84C303.15 30.8 303.01 30.8 302.87 30.84Z" fill="#FFFFFF" fill-opacity="1.000000" fill-rule="nonzero"/>
	<path id="Vector" d="M308.05 33.05L307.87 32.77L307.87 32.59C307.83 32.46 307.77 32.34 307.69 32.23L307.69 32.07C307.51 31.55 307.23 31.07 306.85 30.66C306.77 30.58 306.66 30.54 306.54 30.54C306.43 30.54 306.31 30.58 306.23 30.66C306.15 30.75 306.1 30.86 306.1 30.98C306.1 31.1 306.15 31.22 306.23 31.3C306.24 31.35 306.24 31.39 306.23 31.43C306.32 31.53 306.38 31.65 306.44 31.77C306.57 31.97 306.67 32.2 306.75 32.43C306.84 32.68 306.96 32.91 307.1 33.12C307.26 33.33 307.45 33.5 307.67 33.64C307.75 33.69 307.84 33.71 307.93 33.69C308.03 33.67 308.1 33.61 308.16 33.53C308.21 33.46 308.22 33.36 308.21 33.27C308.19 33.18 308.13 33.1 308.05 33.05Z" fill="#FFFFFF" fill-opacity="1.000000" fill-rule="nonzero"/>
	<path id="Vector" d="M304.41 25.02C304.4 25.01 304.38 24.99 304.36 24.98C304.34 24.97 304.32 24.97 304.3 24.97C304.28 24.97 304.25 24.97 304.23 24.98C304.21 24.99 304.2 25.01 304.18 25.02C304.01 25.22 303.82 25.41 303.62 25.59C303.6 25.6 303.58 25.6 303.55 25.6C303.53 25.6 303.51 25.6 303.49 25.59C303.4 25.61 303.3 25.61 303.21 25.59C303.11 25.62 303.03 25.68 302.98 25.77C302.95 25.82 302.93 25.87 302.93 25.93C302.92 25.99 302.93 26.04 302.94 26.1C302.96 26.15 302.99 26.2 303.02 26.25C303.06 26.29 303.1 26.33 303.16 26.36C303.21 26.38 303.27 26.39 303.34 26.39C303.4 26.39 303.46 26.38 303.51 26.36C303.77 26.23 303.99 26.04 304.13 25.79C304.26 25.59 304.34 25.33 304.46 25.1C304.45 25.07 304.44 25.04 304.41 25.02Z" fill="#FFFFFF" fill-opacity="1.000000" fill-rule="nonzero"/>
	<path id="Vector" d="M308.69 21.95L308.69 21.53C308.71 21.45 308.71 21.36 308.69 21.28C308.67 21.21 308.63 21.15 308.58 21.1C308.52 21.06 308.46 21.03 308.39 21.02C308.31 21.02 308.24 21.05 308.19 21.09C308.13 21.14 308.09 21.21 308.08 21.28C308.08 21.28 308.08 21.46 308.08 21.53L308.08 21.95L308.08 22.79C308.03 22.9 308.03 23.02 308.08 23.12C308.18 23.21 308.31 23.27 308.44 23.28C308.56 23.26 308.68 23.21 308.77 23.12C308.82 23.08 308.85 23.03 308.88 22.97C308.9 22.92 308.91 22.85 308.9 22.79L308.69 21.95Z" fill="#FFFFFF" fill-opacity="1.000000" fill-rule="nonzero"/>
	<path id="Vector" d="M321.08 26.38C320.97 26.29 320.85 26.22 320.72 26.18L320.57 26.18C320.37 26.07 320.18 25.95 320 25.82C319.59 25.49 319.11 25.27 318.59 25.18C318.39 25.1 318.17 25.1 317.98 25.18C317.88 25.22 317.8 25.29 317.74 25.38C317.68 25.46 317.64 25.56 317.62 25.66C317.57 25.76 317.55 25.86 317.55 25.97C317.55 26.08 317.57 26.18 317.62 26.28C317.72 26.45 317.88 26.58 318.08 26.64C318.45 26.71 318.81 26.82 319.16 26.97L318.98 26.97C319.27 27.12 319.58 27.25 319.9 27.36L320.28 27.36C320.45 27.38 320.61 27.38 320.77 27.36L321.05 27.23C321.12 27.18 321.17 27.12 321.21 27.04C321.25 26.97 321.27 26.89 321.27 26.81C321.27 26.73 321.26 26.65 321.22 26.57C321.19 26.5 321.14 26.43 321.08 26.38Z" fill="#FFFFFF" fill-opacity="1.000000" fill-rule="nonzero"/>
	<path id="Vector" d="M320.95 35.43C320.75 35.22 320.54 35.03 320.31 34.84C320.13 34.69 319.95 34.53 319.8 34.36C319.73 34.26 319.67 34.16 319.62 34.05L319.62 33.84C319.6 33.67 319.6 33.5 319.62 33.33C319.6 33.26 319.57 33.2 319.53 33.15C319.48 33.09 319.43 33.05 319.37 33.01C319.31 32.98 319.25 32.96 319.18 32.95C319.11 32.94 319.04 32.95 318.98 32.97C318.84 33.01 318.73 33.09 318.65 33.21C318.58 33.33 318.56 33.48 318.59 33.61C318.71 34.24 319.01 34.83 319.44 35.3C319.89 35.67 320.38 35.99 320.9 36.25C321.01 36.26 321.12 36.22 321.2 36.15C321.28 36.08 321.33 35.98 321.33 35.87C321.34 35.76 321.31 35.65 321.23 35.57C321.16 35.49 321.06 35.44 320.95 35.43Z" fill="#FFFFFF" fill-opacity="1.000000" fill-rule="nonzero"/>
	<path id="Vector" d="M321.08 19.41C321.09 19.35 321.09 19.29 321.07 19.24C321.06 19.18 321.03 19.13 321 19.08C320.96 19.04 320.91 19 320.86 18.98C320.81 18.96 320.75 18.94 320.69 18.95C320.59 18.91 320.47 18.91 320.36 18.95L320.16 19.12C320.05 19.21 319.96 19.31 319.9 19.43C319.82 19.55 319.76 19.68 319.72 19.82C319.71 19.96 319.71 20.11 319.72 20.25C319.71 20.33 319.71 20.41 319.72 20.48C319.71 20.54 319.71 20.6 319.72 20.66C319.83 20.77 319.98 20.84 320.13 20.84C320.21 20.85 320.28 20.83 320.35 20.8C320.43 20.77 320.49 20.72 320.54 20.66C320.65 20.55 320.71 20.41 320.72 20.25C320.71 20.17 320.71 20.08 320.72 20C320.72 20 320.72 20 320.72 19.84L320.85 19.64C320.94 19.56 321 19.47 321.03 19.36L321.08 19.41Z" fill="#FFFFFF" fill-opacity="1.000000" fill-rule="nonzero"/>
	<path id="Vector" d="M324.26 30.46L324.03 30.33L323.59 30.05C323.24 29.82 322.83 29.71 322.41 29.71C322.33 29.71 322.24 29.72 322.16 29.76C322.08 29.79 322.01 29.84 321.95 29.9C321.9 29.97 321.85 30.04 321.83 30.13C321.81 30.21 321.81 30.3 321.82 30.38C321.83 30.47 321.86 30.55 321.9 30.62C321.94 30.7 322 30.76 322.07 30.81C322.15 30.86 322.23 30.89 322.31 30.91C322.4 30.92 322.48 30.92 322.57 30.89L322.8 30.89L323.03 30.89L323.44 30.89C323.73 31 324.04 31.06 324.36 31.07C324.44 31.06 324.51 31.01 324.56 30.95C324.61 30.88 324.63 30.8 324.62 30.71C324.6 30.63 324.56 30.56 324.49 30.51C324.42 30.46 324.34 30.44 324.26 30.46Z" fill="#FFFFFF" fill-opacity="1.000000" fill-rule="nonzero"/>
	<path id="Vector" d="M326.16 23.43L324.18 23.25C324.11 23.25 324.04 23.27 323.98 23.29C323.91 23.32 323.86 23.36 323.81 23.41C323.76 23.46 323.72 23.52 323.7 23.59C323.68 23.65 323.66 23.72 323.67 23.79C323.67 23.93 323.72 24.06 323.82 24.15C323.91 24.25 324.04 24.3 324.18 24.3L326.16 24.15C326.36 24.15 326.54 24 326.51 23.79C326.52 23.74 326.51 23.69 326.49 23.65C326.48 23.6 326.45 23.56 326.42 23.53C326.38 23.49 326.34 23.47 326.3 23.45C326.25 23.44 326.2 23.43 326.16 23.43Z" fill="#FFFFFF" fill-opacity="1.000000" fill-rule="nonzero"/>
	<path id="Vector" d="M283.9 43.18C283.8 43.21 283.7 43.26 283.62 43.33L283.39 43.51L282.98 43.87L282.72 44.05L282.72 44.18L282.54 44.33L282.29 44.46L282.13 44.46C281.95 44.46 281.78 44.54 281.65 44.67C281.52 44.8 281.45 44.97 281.44 45.15C281.45 45.33 281.52 45.5 281.65 45.62C281.78 45.75 281.95 45.82 282.13 45.82C282.43 45.81 282.73 45.74 283 45.62C283.27 45.5 283.52 45.32 283.72 45.1C283.93 44.91 284.1 44.68 284.23 44.43L284.41 44.15C284.44 44.03 284.44 43.91 284.41 43.79C284.44 43.71 284.45 43.63 284.44 43.55C284.42 43.47 284.39 43.4 284.34 43.33C284.28 43.27 284.22 43.22 284.14 43.2C284.06 43.17 283.98 43.16 283.9 43.18Z" fill="#FFFFFF" fill-opacity="1.000000" fill-rule="nonzero"/>
	<path id="Vector" d="M294.28 41.74C293.9 41.88 293.54 42.1 293.23 42.38L292.8 42.66L292.49 42.94L292.08 43.23L291.82 43.23L291.57 43.23L291.39 43.23C291.14 43.25 290.89 43.25 290.64 43.23C290.46 43.23 290.28 43.3 290.15 43.43C290.01 43.56 289.93 43.73 289.93 43.92C289.93 44.11 290.01 44.29 290.14 44.42C290.28 44.55 290.46 44.63 290.64 44.64C291.54 44.75 292.45 44.55 293.21 44.05C293.55 43.81 293.85 43.53 294.1 43.2L294.49 42.74C294.66 42.56 294.81 42.37 294.93 42.15C294.93 42.07 294.91 41.99 294.88 41.93C294.84 41.86 294.79 41.8 294.73 41.76C294.66 41.71 294.59 41.69 294.51 41.69C294.43 41.68 294.35 41.7 294.28 41.74Z" fill="#FFFFFF" fill-opacity="1.000000" fill-rule="nonzero"/>
	<path id="Vector" d="M380.79 72.61L380.64 72.61C380.3 72.73 379.98 72.9 379.69 73.12C379.14 73.61 378.63 74.13 378.15 74.69C378.07 74.78 378.02 74.9 378.02 75.03C378.02 75.16 378.07 75.28 378.15 75.38C378.25 75.46 378.37 75.5 378.5 75.5C378.63 75.5 378.75 75.46 378.85 75.38L379.61 74.56L380.02 74.17C380.08 74.11 380.14 74.05 380.2 73.99L380.41 73.99L380.79 73.84C380.99 73.78 381.16 73.67 381.31 73.53C381.44 73.37 381.54 73.18 381.59 72.97C381.64 72.86 381.64 72.74 381.6 72.64C381.56 72.53 381.48 72.44 381.37 72.39C381.27 72.34 381.15 72.34 381.04 72.38C380.93 72.42 380.84 72.5 380.79 72.61Z" fill="#FFFFFF" fill-opacity="1.000000" fill-rule="nonzero"/>
	<path id="Vector" d="M391.59 50.48C391.24 50.34 390.92 50.16 390.61 49.94C390.29 49.71 389.94 49.52 389.56 49.38C388.73 49.09 387.87 48.88 387 48.76C386.95 48.75 386.89 48.75 386.83 48.75C386.78 48.76 386.72 48.78 386.68 48.81C386.63 48.84 386.59 48.87 386.55 48.92C386.52 48.97 386.5 49.02 386.49 49.07C386.47 49.12 386.46 49.18 386.46 49.24C386.47 49.29 386.48 49.35 386.51 49.39C386.54 49.44 386.57 49.48 386.62 49.52C386.66 49.55 386.71 49.57 386.77 49.59C387.64 49.68 388.5 49.87 389.33 50.15C389.67 50.15 389.97 50.48 390.31 50.64C390.66 50.83 391.06 50.91 391.46 50.87C391.59 50.84 391.59 50.66 391.59 50.48Z" fill="#FFFFFF" fill-opacity="1.000000" fill-rule="nonzero"/>
	<path id="Vector" d="M391.97 40.41C391.89 40.33 391.79 40.29 391.68 40.29C391.57 40.29 391.46 40.33 391.38 40.41L390.85 40.84C390.66 40.99 390.49 41.15 390.33 41.33L389.31 42.33C389.21 42.42 389.16 42.55 389.16 42.69C389.16 42.82 389.21 42.95 389.31 43.05C389.35 43.1 389.41 43.14 389.48 43.16C389.54 43.19 389.61 43.21 389.68 43.21C389.75 43.21 389.82 43.19 389.88 43.16C389.94 43.14 390 43.1 390.05 43.05L391.02 42.05C391.21 41.9 391.37 41.74 391.51 41.56L391.97 41C392.05 40.92 392.09 40.81 392.09 40.7C392.09 40.59 392.05 40.49 391.97 40.41Z" fill="#FFFFFF" fill-opacity="1.000000" fill-rule="nonzero"/>
	<path id="Vector" d="M370 38.87C369.98 38.75 369.92 38.65 369.83 38.58C369.74 38.51 369.63 38.48 369.51 38.48C369.4 38.48 369.28 38.52 369.19 38.59C369.1 38.66 369.03 38.75 369 38.87C368.99 38.98 368.99 39.09 369 39.2L369 39.05C369.01 39.12 369.01 39.2 369 39.28L368.69 39.56C368.3 39.83 367.89 40.07 367.46 40.28C367.33 40.36 367.23 40.49 367.2 40.65C367.16 40.8 367.18 40.96 367.26 41.1C367.34 41.24 367.47 41.34 367.62 41.38C367.77 41.42 367.94 41.4 368.08 41.33C368.44 41.15 368.79 40.97 369.13 40.76C369.56 40.52 369.92 40.17 370.18 39.74C370.27 39.55 370.32 39.35 370.33 39.15C370.24 39.04 370.12 38.94 370 38.87Z" fill="#FFFFFF" fill-opacity="1.000000" fill-rule="nonzero"/>
	<path id="Vector" d="M340.9 28.94L339.69 28.74C339.24 28.69 338.79 28.69 338.33 28.74C338.16 28.74 337.99 28.81 337.86 28.94C337.74 29.06 337.67 29.23 337.67 29.41C337.67 29.58 337.74 29.75 337.86 29.88C337.99 30 338.16 30.07 338.33 30.07C338.79 30.1 339.24 30.1 339.69 30.07L340.9 29.84C341.02 29.84 341.13 29.8 341.22 29.71C341.3 29.63 341.35 29.51 341.35 29.39C341.35 29.27 341.3 29.16 341.22 29.08C341.13 28.99 341.02 28.94 340.9 28.94Z" fill="#FFFFFF" fill-opacity="1.000000" fill-rule="nonzero"/>
	<path id="Vector" d="M258.59 34.2C258.59 34.13 258.58 34.06 258.54 33.99C258.5 33.93 258.45 33.88 258.39 33.84C258.27 33.76 258.14 33.71 258.01 33.69C257.87 33.67 257.73 33.68 257.59 33.71C257.4 33.78 257.21 33.86 257.03 33.97C256.69 34.22 256.39 34.53 256.13 34.87C256.09 34.94 256.07 35.03 256.07 35.11C256.07 35.2 256.09 35.28 256.13 35.35C256.15 35.43 256.19 35.51 256.23 35.58C256.28 35.64 256.34 35.7 256.41 35.74C256.57 35.8 256.75 35.8 256.9 35.74C257.06 35.69 257.2 35.58 257.29 35.43C257.4 35.28 257.54 35.14 257.7 35.02L258 34.82L258.16 34.69C258.22 34.69 258.28 34.68 258.34 34.66C258.4 34.64 258.45 34.6 258.5 34.55C258.54 34.51 258.57 34.45 258.59 34.39C258.6 34.33 258.61 34.26 258.59 34.2Z" fill="#FFFFFF" fill-opacity="1.000000" fill-rule="nonzero"/>
	<path id="Vector" d="M262 22.2C261.97 22.14 261.92 22.09 261.86 22.06C261.8 22.03 261.74 22.01 261.67 22.01C261.6 22.01 261.54 22.03 261.48 22.06C261.42 22.09 261.37 22.14 261.34 22.2C261.33 22.25 261.33 22.3 261.34 22.36C261.01 22.47 260.71 22.63 260.44 22.84C259.84 23.3 259.32 23.85 258.88 24.46C258.83 24.53 258.81 24.61 258.8 24.69C258.79 24.77 258.79 24.85 258.81 24.93C258.84 25.01 258.87 25.08 258.92 25.15C258.97 25.21 259.04 25.26 259.11 25.3C259.25 25.37 259.41 25.39 259.56 25.34C259.71 25.3 259.84 25.21 259.93 25.07L260.11 24.84L260.47 24.46C260.73 24.24 260.99 24.01 261.23 23.77C261.3 23.69 261.37 23.62 261.44 23.56L261.67 23.41C261.81 23.31 261.92 23.19 262 23.05C262.02 22.96 262.02 22.88 262 22.79C262.07 22.6 262.07 22.39 262 22.2Z" fill="#FFFFFF" fill-opacity="1.000000" fill-rule="nonzero"/>
	<path id="Vector" d="M275.16 30.87L274.8 30.71L274.64 30.71C274.39 30.51 274.16 30.28 273.9 30.1C273.64 29.92 272.57 29.41 271.95 29C271.84 28.94 271.71 28.92 271.58 28.96C271.46 28.99 271.35 29.07 271.29 29.18C271.23 29.29 271.21 29.42 271.25 29.54C271.28 29.67 271.36 29.77 271.47 29.84C272.13 30.25 272.88 30.48 273.49 30.92L273.8 31.18L274.21 31.48C274.49 31.69 274.83 31.79 275.18 31.79C275.46 31.59 275.59 30.97 275.16 30.87Z" fill="#FFFFFF" fill-opacity="1.000000" fill-rule="nonzero"/>
	<path id="Vector" d="M279.52 74.1C279.28 74.08 279.04 74.13 278.82 74.22C278.61 74.31 278.41 74.45 278.26 74.64C278.24 74.72 278.24 74.81 278.26 74.89C278.26 74.95 278.28 75.01 278.31 75.06C278.33 75.11 278.37 75.16 278.41 75.2C278.49 75.27 278.59 75.31 278.7 75.31C278.8 75.31 278.9 75.27 278.98 75.2L279.16 75.02L279.34 75.02L279.57 75.02C279.64 75.03 279.7 75.03 279.77 75.02C279.8 74.95 279.8 74.88 279.77 74.81C279.87 74.78 279.95 74.71 279.99 74.62C280.03 74.53 280.04 74.42 280 74.33C279.97 74.23 279.9 74.15 279.81 74.11C279.72 74.07 279.61 74.06 279.52 74.1Z" fill="#FFFFFF" fill-opacity="1.000000" fill-rule="nonzero"/>
	<path id="Vector" d="M297.87 58.2L297.46 58.2L297.26 58.2L297.08 58.07L296.95 58.07L296.51 57.79C296.23 57.6 295.92 57.46 295.59 57.35C295.2 57.25 294.78 57.25 294.39 57.35C294.25 57.4 294.13 57.49 294.06 57.61C293.99 57.74 293.97 57.88 294 58.02C294.04 58.16 294.14 58.27 294.26 58.34C294.38 58.42 294.53 58.44 294.67 58.41L295.03 58.41L295.44 58.41L295.62 58.41L296.03 58.66C296.31 58.85 296.62 58.97 296.96 59.02C297.29 59.07 297.63 59.04 297.95 58.94C298.02 58.92 298.08 58.87 298.13 58.8C298.17 58.74 298.19 58.66 298.18 58.58C298.19 58.54 298.2 58.49 298.19 58.44C298.18 58.4 298.15 58.35 298.12 58.32C298.09 58.28 298.06 58.25 298.01 58.23C297.97 58.21 297.92 58.2 297.87 58.2Z" fill="#FFFFFF" fill-opacity="1.000000" fill-rule="nonzero"/>
	<path id="Vector" d="M309.05 51.71C308.94 51.6 308.8 51.52 308.64 51.48L308.36 51.48C308.17 51.46 307.97 51.46 307.77 51.48C307.51 51.53 307.27 51.61 307.03 51.71L306.67 51.87L306.49 51.87C306.26 51.98 306.03 52.08 305.8 52.17C305.73 52.2 305.67 52.25 305.63 52.31C305.59 52.37 305.57 52.44 305.57 52.51C305.57 52.58 305.59 52.65 305.63 52.71C305.67 52.77 305.73 52.81 305.8 52.84L306.49 53C306.75 53.03 307.02 53.03 307.28 53L307.95 53L308.26 53L308.41 53L308.59 53L308.82 53C308.9 52.98 308.98 52.94 309.04 52.89C309.11 52.84 309.17 52.78 309.21 52.71C309.34 52.69 309.46 52.62 309.54 52.51C309.62 52.4 309.65 52.27 309.63 52.14C309.61 52 309.54 51.88 309.43 51.81C309.32 51.73 309.19 51.69 309.05 51.71Z" fill="#FFFFFF" fill-opacity="1.000000" fill-rule="nonzero"/>
	<path id="Vector" d="M315.57 46.92C315.55 46.87 315.52 46.83 315.49 46.8C315.45 46.77 315.41 46.75 315.36 46.74L314.39 46.74C314.32 46.74 314.26 46.75 314.2 46.78C314.14 46.8 314.09 46.84 314.05 46.89C313.97 46.98 313.93 47.09 313.93 47.2C313.92 47.32 313.97 47.44 314.05 47.53C314.16 47.57 314.28 47.57 314.39 47.53L315.13 47.53L315.36 47.53C315.43 47.5 315.49 47.44 315.54 47.38C315.56 47.34 315.57 47.31 315.57 47.26C315.57 47.22 315.56 47.18 315.54 47.15C315.56 47.12 315.58 47.08 315.58 47.04C315.59 47 315.58 46.96 315.57 46.92Z" fill="#FFFFFF" fill-opacity="1.000000" fill-rule="nonzero"/>
	<path id="Vector" d="M321.77 59.84C321.7 59.64 321.59 59.46 321.44 59.3L321.03 58.99C320.82 58.82 320.59 58.67 320.36 58.53L319.69 58.1L319.54 57.97L319.21 57.69C319.1 57.6 318.96 57.55 318.82 57.56C318.68 57.56 318.54 57.62 318.44 57.72C318.34 57.82 318.29 57.95 318.28 58.09C318.27 58.24 318.32 58.37 318.41 58.48C318.77 58.88 319.17 59.25 319.59 59.58L320.34 60.15L320.49 60.15C320.49 60.15 320.72 60.38 320.87 60.41L321.08 60.41C321.18 60.43 321.28 60.43 321.38 60.41C321.47 60.39 321.57 60.34 321.64 60.28C321.74 60.15 321.79 60 321.77 59.84Z" fill="#FFFFFF" fill-opacity="1.000000" fill-rule="nonzero"/>
	<path id="Vector" d="M323.33 53.87C323.29 53.83 323.24 53.81 323.18 53.81C323.12 53.81 323.07 53.83 323.03 53.87L322.87 53.87L322.72 53.87L322.36 53.87L322.18 53.87L321.72 53.87C321.63 53.84 321.54 53.85 321.46 53.9C321.37 53.94 321.31 54.01 321.28 54.1C321.27 54.14 321.27 54.19 321.28 54.23C321.28 54.28 321.3 54.32 321.32 54.36C321.35 54.4 321.38 54.43 321.42 54.46C321.45 54.48 321.5 54.5 321.54 54.51C321.87 54.6 322.21 54.6 322.54 54.51L322.95 54.3L323.18 54.1C323.19 54.02 323.19 53.94 323.18 53.87C323.23 53.89 323.29 53.89 323.33 53.87Z" fill="#FFFFFF" fill-opacity="1.000000" fill-rule="nonzero"/>
	<path id="Vector" d="M326.75 49.28L326.54 49.28L326.31 49.05C326 48.74 325.77 48.41 325.46 48.1C325.42 48.05 325.38 48.02 325.32 48C325.27 47.97 325.21 47.96 325.16 47.96C325.1 47.96 325.04 47.97 324.99 48C324.93 48.02 324.89 48.05 324.85 48.1C324.77 48.18 324.72 48.29 324.72 48.41C324.72 48.52 324.77 48.63 324.85 48.71C325.18 49.02 325.44 49.38 325.8 49.69C325.97 49.85 326.17 49.99 326.39 50.1L326.77 50.23C326.87 50.25 326.98 50.25 327.08 50.23L327.23 50.23C327.36 50.16 327.45 50.05 327.5 49.91C327.54 49.78 327.53 49.63 327.46 49.51C327.4 49.38 327.29 49.29 327.15 49.24C327.02 49.2 326.87 49.21 326.75 49.28Z" fill="#FFFFFF" fill-opacity="1.000000" fill-rule="nonzero"/>
	<path id="Vector" d="M332.82 72.56L332.62 72.56C332.52 72.53 332.43 72.53 332.33 72.56L329.77 72.56C329.65 72.56 329.54 72.6 329.46 72.69C329.38 72.77 329.33 72.88 329.33 72.99C329.34 73.11 329.39 73.22 329.47 73.3C329.55 73.38 329.66 73.42 329.77 73.43L332.62 73.43L332.87 73.3C332.94 73.26 333 73.21 333.04 73.14C333.07 73.07 333.09 72.99 333.09 72.91C333.08 72.84 333.05 72.76 333.01 72.7C332.96 72.63 332.9 72.59 332.82 72.56Z" fill="#FFFFFF" fill-opacity="1.000000" fill-rule="nonzero"/>
	<path id="Vector" d="M336.33 65.23L335.9 65.23C335.54 65.23 335.21 65.23 334.85 65.23C334.73 65.23 334.62 65.27 334.54 65.35C334.46 65.43 334.41 65.55 334.41 65.66C334.42 65.77 334.47 65.88 334.55 65.96C334.63 66.04 334.73 66.09 334.85 66.1C335.26 66.14 335.67 66.14 336.08 66.1C336.3 66.06 336.5 65.98 336.69 65.86C336.87 65.73 337.02 65.57 337.13 65.38C337.08 65.33 336.62 64.94 336.33 65.23Z" fill="#FFFFFF" fill-opacity="1.000000" fill-rule="nonzero"/>
	<path id="Vector" d="M341.74 73.23L340.95 72.46C340.78 72.31 340.6 72.17 340.41 72.05L339.87 71.76C339.17 71.38 338.39 71.15 337.59 71.07C337.21 71.07 337.1 71.69 337.59 71.74C338.29 71.89 338.96 72.17 339.57 72.56L340.05 72.89L340.56 73.12C340.9 73.28 341.21 73.46 341.51 73.64C341.56 73.64 341.61 73.63 341.66 73.61C341.7 73.59 341.74 73.55 341.76 73.51C341.79 73.46 341.8 73.41 341.8 73.36C341.79 73.31 341.77 73.26 341.74 73.23Z" fill="#FFFFFF" fill-opacity="1.000000" fill-rule="nonzero"/>
	<path id="Vector" d="M306.03 14L305.82 14C305.72 13.97 305.62 13.97 305.51 14L304.98 14C304.63 14.1 304.33 14.31 304.1 14.59C304.06 14.63 304.02 14.68 303.99 14.74C303.97 14.79 303.95 14.86 303.95 14.92C303.95 14.98 303.96 15.05 303.99 15.1C304.01 15.16 304.06 15.21 304.1 15.25C304.15 15.3 304.2 15.34 304.25 15.37C304.31 15.39 304.37 15.41 304.44 15.41C304.5 15.41 304.56 15.39 304.62 15.37C304.68 15.34 304.73 15.3 304.77 15.25L304.98 15.07L305.16 14.95L305.41 14.95L305.64 14.95C305.77 14.97 305.9 14.97 306.03 14.95C306.09 14.96 306.15 14.96 306.21 14.95C306.23 14.87 306.23 14.79 306.21 14.71C306.27 14.67 306.31 14.6 306.34 14.53C306.36 14.45 306.36 14.37 306.34 14.3C306.32 14.22 306.29 14.16 306.23 14.1C306.17 14.05 306.1 14.01 306.03 14Z" fill="#FFFFFF" fill-opacity="1.000000" fill-rule="nonzero"/>
	<path id="Vector" d="M293.9 5.1C293.62 5.1 293.31 5.1 293 5.1L292.18 5.1C291.66 5.03 291.15 4.88 290.67 4.66C290.61 4.63 290.55 4.61 290.49 4.61C290.42 4.6 290.35 4.61 290.29 4.63C290.23 4.64 290.17 4.68 290.12 4.72C290.07 4.76 290.03 4.81 290 4.87C289.98 4.93 289.97 4.99 289.97 5.06C289.97 5.12 289.99 5.19 290.02 5.25C290.05 5.3 290.09 5.35 290.14 5.4C290.19 5.44 290.25 5.47 290.31 5.48C290.88 5.73 291.49 5.88 292.1 5.92C292.7 5.97 293.3 5.97 293.9 5.92C294.01 5.92 294.11 5.88 294.19 5.8C294.27 5.72 294.31 5.62 294.31 5.51C294.31 5.4 294.27 5.3 294.19 5.22C294.11 5.14 294.01 5.1 293.9 5.1Z" fill="#FFFFFF" fill-opacity="1.000000" fill-rule="nonzero"/>
	<path id="Vector" d="M296.72 0.15L296.54 0.02C296.42 -0.01 296.3 -0.01 296.18 0.02C296.07 0.12 295.94 0.2 295.8 0.25L295.59 0.25L295.28 0.25L294.82 0.25C294.76 0.25 294.69 0.26 294.63 0.29C294.56 0.32 294.51 0.36 294.46 0.41C294.41 0.45 294.37 0.5 294.34 0.57C294.31 0.63 294.3 0.7 294.31 0.77C294.31 0.84 294.32 0.91 294.35 0.98C294.37 1.04 294.41 1.1 294.46 1.15C294.55 1.18 294.64 1.18 294.72 1.15C295.04 1.21 295.37 1.21 295.69 1.15L295.98 1.02C296.08 0.99 296.17 0.93 296.23 0.84C296.37 0.73 296.49 0.6 296.59 0.46C296.62 0.37 296.62 0.27 296.59 0.18C296.64 0.18 296.68 0.17 296.72 0.15Z" fill="#FFFFFF" fill-opacity="1.000000" fill-rule="nonzero"/>
	<path id="Vector" d="M326.26 5.51L326.05 5.51L325.75 5.51C325.54 5.49 325.33 5.45 325.13 5.38C324.75 5.24 324.38 5.06 324.03 4.84C323.34 4.38 322.71 3.85 322.13 3.25C322.04 3.16 321.91 3.11 321.78 3.11C321.65 3.11 321.53 3.16 321.44 3.25C321.35 3.35 321.29 3.47 321.29 3.6C321.29 3.73 321.35 3.85 321.44 3.95C322.08 4.64 322.8 5.26 323.57 5.82C323.98 6.1 324.43 6.32 324.9 6.48C325.38 6.65 325.9 6.65 326.39 6.48C326.51 6.47 326.63 6.4 326.71 6.3C326.79 6.19 326.83 6.06 326.81 5.93C326.79 5.8 326.72 5.69 326.62 5.61C326.52 5.53 326.39 5.49 326.26 5.51Z" fill="#FFFFFF" fill-opacity="1.000000" fill-rule="nonzero"/>
	<path id="Vector" d="M240.67 44.41C240.63 44.35 240.58 44.31 240.53 44.28C240.47 44.25 240.4 44.23 240.34 44.23C240.27 44.23 240.21 44.25 240.15 44.28C240.09 44.31 240.04 44.35 240 44.41L239.77 44.74L239.57 45.07C239.47 45.23 239.36 45.37 239.24 45.51L239.08 45.76L238.77 46.2L238.62 46.43L238.34 46.74L238.34 46.87C238.21 46.95 238.12 47.08 238.08 47.23C238.05 47.37 238.06 47.53 238.13 47.66C238.21 47.79 238.34 47.89 238.49 47.93C238.64 47.96 238.79 47.94 238.93 47.87C239.35 47.55 239.71 47.16 240 46.71C240.18 46.46 240.36 46.23 240.52 45.97C240.69 45.69 240.82 45.4 240.93 45.1L240.93 44.74C240.87 44.61 240.78 44.49 240.67 44.41Z" fill="#FFFFFF" fill-opacity="1.000000" fill-rule="nonzero"/>
	<path id="Vector" d="M237.93 47.79L237.67 47.79L237.47 47.79L237.29 47.61C237.28 47.53 237.28 47.44 237.29 47.35C237.29 47.35 237.29 47.35 237.29 47.23C237.29 47.14 237.25 47.05 237.19 46.99C237.13 46.93 237.04 46.89 236.95 46.89C236.87 46.89 236.78 46.93 236.72 46.99C236.66 47.05 236.62 47.14 236.62 47.23C236.61 47.28 236.61 47.33 236.62 47.38C236.6 47.49 236.6 47.6 236.62 47.71C236.65 47.85 236.7 47.98 236.77 48.1C236.87 48.31 237 48.5 237.16 48.66C237.34 48.81 237.54 48.94 237.75 49.05L238.06 49.05L238.21 49.05C238.34 49.07 238.47 49.07 238.59 49.05C238.66 49.02 238.71 48.98 238.74 48.92C238.78 48.87 238.8 48.8 238.8 48.74C238.8 48.67 238.78 48.61 238.74 48.55C238.71 48.5 238.66 48.46 238.59 48.43L237.93 47.79Z" fill="#FFFFFF" fill-opacity="1.000000" fill-rule="nonzero"/>
	<path id="Vector" d="M271.57 42.38C271.31 42.4 271.06 42.5 270.85 42.66C270.59 42.83 270.34 43.02 270.11 43.23C269.67 43.59 269.26 44 268.82 44.33C268.78 44.37 268.75 44.41 268.73 44.46C268.71 44.51 268.7 44.57 268.7 44.62C268.7 44.68 268.71 44.73 268.73 44.78C268.75 44.83 268.78 44.88 268.82 44.92C268.9 44.99 269 45.02 269.11 45.02C269.21 45.02 269.31 44.99 269.39 44.92L270.54 43.76L270.85 43.48L271 43.33C271.18 43.18 271.39 43.07 271.57 42.94C271.64 42.94 271.71 42.91 271.77 42.86C271.82 42.81 271.85 42.74 271.85 42.66C271.85 42.59 271.82 42.52 271.77 42.46C271.71 42.41 271.64 42.38 271.57 42.38Z" fill="#FFFFFF" fill-opacity="1.000000" fill-rule="nonzero"/>
	<path id="Vector" d="M282.05 19.2C281.79 19.03 281.51 18.88 281.23 18.74C280.96 18.59 280.68 18.47 280.39 18.38C279.77 18.24 279.13 18.24 278.52 18.38C278.52 18.38 278.52 18.38 278.52 18.54C279.12 18.61 279.71 18.76 280.29 18.97C280.85 19.12 281.41 19.36 281.98 19.56C282.1 19.48 282.18 19.28 282.05 19.2Z" fill="#FFFFFF" fill-opacity="1.000000" fill-rule="nonzero"/>
	<path id="Vector" d="M368.69 57.35L368.15 57.12L367.72 56.97L367.49 56.97L367.08 56.82C366.8 56.71 366.52 56.62 366.23 56.56L365.67 56.56C365.46 56.57 365.25 56.62 365.05 56.69C364.97 56.72 364.9 56.77 364.86 56.84C364.81 56.91 364.78 56.99 364.78 57.07C364.78 57.16 364.81 57.24 364.86 57.31C364.9 57.38 364.97 57.43 365.05 57.46C365.22 57.49 365.38 57.54 365.54 57.61L366 57.61L366.23 57.61L366.62 57.82C366.91 57.98 367.22 58.12 367.54 58.23L367.95 58.23C368.18 58.29 368.43 58.29 368.67 58.23C368.75 58.19 368.82 58.13 368.87 58.05C368.92 57.98 368.95 57.89 368.95 57.8C368.95 57.71 368.93 57.62 368.88 57.54C368.84 57.46 368.77 57.4 368.69 57.35Z" fill="#FFFFFF" fill-opacity="1.000000" fill-rule="nonzero"/>
	<path id="Vector" d="M269.23 9.64C268.91 9.55 268.57 9.5 268.23 9.51C268.07 9.47 267.91 9.47 267.75 9.51L267.47 9.69C267.02 9.99 266.59 10.33 266.18 10.69C266.18 10.69 266.72 10.36 267 10.23C267.18 10.12 267.39 10.07 267.59 10.07L267.88 10.07C267.9 10.09 267.93 10.09 267.97 10.09C268 10.09 268.03 10.09 268.06 10.07L268.26 10.07C268.57 10.03 268.88 9.96 269.18 9.87C269.21 9.84 269.24 9.8 269.25 9.76C269.25 9.72 269.25 9.68 269.23 9.64Z" fill="#FFFFFF" fill-opacity="1.000000" fill-rule="nonzero"/>
</svg>
