<svg width="75.000000" height="45.202148" viewBox="0 0 75 45.2021" fill="none" xmlns="http://www.w3.org/2000/svg" xmlns:xlink="http://www.w3.org/1999/xlink">
	<desc>
			Created with Pixso.
	</desc>
	<defs/>
	<path id="Vector" d="M49.49 34.61C49.42 34.61 49.35 34.6 49.28 34.57C49.22 34.54 49.16 34.49 49.12 34.44C49.08 34.39 49.05 34.33 49.03 34.27C49.01 34.21 49 34.15 49.01 34.09C49.01 34.02 49.03 33.96 49.06 33.91C49.09 33.85 49.13 33.8 49.18 33.76C50.28 32.81 50.96 31.46 51.08 30.01C51.2 28.57 50.75 27.13 49.82 26.01C48.89 24.89 47.55 24.18 46.11 24.04C44.66 23.89 43.21 24.32 42.08 25.22C42.03 25.27 41.97 25.3 41.91 25.31C41.85 25.33 41.79 25.34 41.73 25.33C41.66 25.33 41.6 25.31 41.55 25.28C41.49 25.25 41.44 25.21 41.4 25.16C41.36 25.11 41.33 25.06 41.31 25C41.29 24.94 41.28 24.87 41.29 24.81C41.3 24.75 41.31 24.69 41.34 24.63C41.37 24.57 41.41 24.52 41.46 24.48C42.12 23.92 42.88 23.49 43.7 23.22C44.52 22.95 45.39 22.85 46.26 22.92C47.12 23 47.96 23.24 48.72 23.64C49.49 24.04 50.17 24.58 50.73 25.25C51.28 25.91 51.69 26.68 51.95 27.51C52.2 28.34 52.29 29.21 52.2 30.07C52.11 30.93 51.86 31.77 51.44 32.53C51.03 33.29 50.47 33.96 49.8 34.5C49.71 34.57 49.6 34.61 49.49 34.61Z" fill="#E13A4B" fill-opacity="1.000000" fill-rule="nonzero"/>
	<path id="Vector" d="M61.04 31.08C60.91 31.08 60.79 31.03 60.7 30.94C60.61 30.85 60.56 30.72 60.56 30.6C60.56 29.5 60.23 28.42 59.62 27.51C59.01 26.6 58.15 25.89 57.13 25.47C56.12 25.05 55 24.94 53.92 25.15C52.85 25.37 51.86 25.9 51.08 26.68C50.99 26.77 50.87 26.82 50.74 26.82C50.61 26.82 50.49 26.76 50.4 26.67C50.31 26.58 50.26 26.46 50.26 26.33C50.26 26.2 50.31 26.08 50.4 25.99C51.31 25.08 52.47 24.46 53.74 24.21C55 23.96 56.31 24.09 57.5 24.58C58.69 25.07 59.71 25.91 60.42 26.98C61.14 28.05 61.52 29.31 61.52 30.6C61.52 30.72 61.47 30.85 61.38 30.94C61.29 31.03 61.16 31.08 61.04 31.08Z" fill="#E13A4B" fill-opacity="1.000000" fill-rule="nonzero"/>
	<path id="Vector" d="M75 17.96C74.99 15.13 73.87 12.42 71.87 10.42C69.87 8.42 67.15 7.29 64.33 7.29C63.61 7.29 62.9 7.36 62.2 7.51C60.86 4.94 58.75 2.85 56.17 1.53C53.59 0.21 50.67 -0.27 47.8 0.14C44.93 0.55 42.26 1.83 40.16 3.82C38.05 5.81 36.62 8.4 36.04 11.24C35.6 11.24 35 11.28 34.91 11.29C33.26 11.43 31.65 11.92 30.19 12.71C28.73 13.51 27.45 14.6 26.43 15.92C25.42 17.24 24.69 18.75 24.29 20.37C23.89 21.98 23.83 23.66 24.12 25.3C16.56 25.99 14.61 31.81 14.21 33.41C8.88 33.58 4.96 35.1 2.57 37.9C0.23 40.66 -0.03 44.43 0 44.76C0.01 44.88 0.06 44.99 0.15 45.07C0.24 45.15 0.36 45.2 0.48 45.2C0.6 45.19 0.72 45.14 0.81 45.05C0.89 44.96 0.94 44.85 0.94 44.72C0.95 44.56 0.96 44.39 0.99 44.23C1.33 42.98 3.24 41.43 5.51 40.54C7.03 39.94 10.94 38.79 14.36 40.99C20.46 44.9 30.65 43.75 35.93 41.67C39.8 40.15 46.33 42.22 49 43.2C51.71 44.71 54.81 45.39 57.91 45.15C61.01 44.92 63.97 43.77 66.42 41.87C68.87 39.96 70.71 37.38 71.71 34.44C72.7 31.49 72.81 28.32 72.02 25.32C73.93 23.35 74.99 20.71 75 17.96ZM56.72 44.24C54.18 44.24 51.67 43.59 49.46 42.35L49.38 42.31C46.91 41.4 42.89 40.17 39.33 40.17C38.06 40.15 36.79 40.35 35.59 40.79C30.51 42.79 20.72 43.92 14.9 40.18C12.23 38.47 8.69 38.28 5.18 39.65C3.83 40.16 2.59 40.91 1.52 41.87C3.06 37.03 7.46 34.51 14.62 34.36C14.73 34.36 14.83 34.32 14.92 34.25C15 34.17 15.06 34.08 15.08 33.97C15.13 33.67 16.29 26.75 24.67 26.25C26.27 26.34 27.64 26.89 28.67 28.26C29.07 28.78 29.35 29.37 29.52 30C29.68 30.64 29.71 31.3 29.62 31.94C29.55 32.45 29.37 32.93 29.12 33.37C28.86 33.81 28.51 34.19 28.1 34.5C27.7 34.81 27.23 35.03 26.74 35.15C26.24 35.28 25.73 35.31 25.22 35.24C24.44 35.12 23.72 34.7 23.24 34.06C22.77 33.42 22.56 32.62 22.67 31.83C22.76 31.23 23.09 30.68 23.58 30.31C24.07 29.94 24.68 29.79 25.29 29.87C25.75 29.94 26.16 30.18 26.44 30.56C26.72 30.93 26.84 31.39 26.78 31.85C26.75 32.02 26.69 32.19 26.61 32.33C26.52 32.48 26.4 32.61 26.27 32.71C26.13 32.82 25.97 32.89 25.81 32.93C25.64 32.98 25.47 32.98 25.3 32.96C25.05 32.92 24.83 32.79 24.68 32.59C24.53 32.39 24.46 32.14 24.5 31.89C24.51 31.82 24.5 31.76 24.49 31.7C24.47 31.64 24.44 31.58 24.41 31.53C24.37 31.48 24.32 31.44 24.27 31.41C24.21 31.37 24.15 31.35 24.09 31.34C24.03 31.34 23.96 31.34 23.9 31.35C23.84 31.37 23.78 31.4 23.73 31.44C23.68 31.47 23.64 31.52 23.61 31.58C23.57 31.63 23.55 31.69 23.54 31.75C23.48 32.25 23.61 32.76 23.91 33.16C24.21 33.57 24.66 33.84 25.16 33.91C25.46 33.96 25.76 33.94 26.05 33.87C26.34 33.79 26.61 33.66 26.85 33.48C27.09 33.3 27.29 33.08 27.44 32.82C27.59 32.57 27.69 32.28 27.73 31.99C27.83 31.27 27.65 30.55 27.22 29.97C26.78 29.4 26.14 29.02 25.43 28.91C24.57 28.79 23.7 29.02 23 29.54C22.31 30.06 21.85 30.83 21.72 31.69C21.57 32.73 21.84 33.79 22.48 34.64C23.11 35.48 24.05 36.04 25.09 36.19C25.32 36.22 25.56 36.23 25.79 36.24C26.95 36.23 28.08 35.81 28.96 35.05C29.84 34.28 30.41 33.23 30.57 32.08C30.69 31.27 30.64 30.45 30.42 29.66C30.21 28.87 29.83 28.14 29.32 27.51C28.81 26.87 28.17 26.35 27.45 25.97C26.72 25.59 25.93 25.37 25.12 25.31C24.82 23.77 24.85 22.2 25.22 20.68C25.58 19.16 26.26 17.73 27.21 16.5C28.17 15.26 29.38 14.24 30.75 13.51C32.13 12.78 33.65 12.35 35.21 12.25C36.17 12.21 40.85 12.18 42.76 15.44C42.8 15.49 42.84 15.54 42.89 15.58C42.94 15.62 43 15.64 43.06 15.66C43.12 15.68 43.18 15.68 43.24 15.67C43.31 15.66 43.37 15.64 43.42 15.61C43.47 15.58 43.52 15.54 43.56 15.49C43.6 15.43 43.63 15.38 43.64 15.32C43.66 15.26 43.66 15.19 43.65 15.13C43.64 15.07 43.62 15.01 43.59 14.95C42.04 12.3 39.05 11.54 37.03 11.34C37.57 8.71 38.92 6.32 40.87 4.49C42.83 2.65 45.3 1.46 47.96 1.09C50.61 0.71 53.32 1.16 55.71 2.37C58.1 3.59 60.06 5.51 61.32 7.88C61.05 7.98 60.78 8.1 60.53 8.23C59.49 8.74 58.58 9.46 57.83 10.34C57.08 11.22 56.52 12.23 56.18 13.33C55.62 15.14 55.8 17.09 56.67 18.76C57.55 20.44 59.06 21.69 60.86 22.26C61.59 22.49 62.35 22.57 63.11 22.5C63.87 22.43 64.61 22.22 65.28 21.86C65.95 21.51 66.55 21.03 67.04 20.44C67.53 19.86 67.89 19.18 68.12 18.45C68.49 17.25 68.37 15.96 67.79 14.85C67.21 13.74 66.21 12.9 65.01 12.53C64.03 12.22 62.96 12.32 62.05 12.79C61.14 13.27 60.46 14.09 60.15 15.07C59.9 15.89 59.98 16.76 60.37 17.51C60.77 18.27 61.44 18.83 62.25 19.09C62.92 19.29 63.65 19.23 64.28 18.9C64.9 18.57 65.37 18.01 65.58 17.34C65.61 17.22 65.6 17.09 65.54 16.98C65.48 16.87 65.38 16.79 65.26 16.75C65.14 16.72 65.01 16.73 64.9 16.78C64.79 16.84 64.7 16.93 64.66 17.05C64.53 17.48 64.23 17.84 63.83 18.05C63.43 18.26 62.97 18.3 62.54 18.17C61.97 17.99 61.5 17.59 61.22 17.07C60.95 16.54 60.89 15.93 61.07 15.36C61.18 14.99 61.37 14.65 61.61 14.36C61.86 14.06 62.16 13.82 62.5 13.64C62.84 13.46 63.21 13.35 63.59 13.32C63.97 13.28 64.36 13.32 64.72 13.43C65.68 13.73 66.47 14.4 66.94 15.28C67.4 16.17 67.5 17.2 67.2 18.15C66.82 19.38 65.96 20.4 64.83 20.99C63.69 21.59 62.37 21.71 61.15 21.33C59.59 20.84 58.29 19.75 57.53 18.31C56.77 16.86 56.62 15.18 57.1 13.62C57.41 12.64 57.9 11.74 58.57 10.96C59.23 10.18 60.04 9.54 60.96 9.09C61.77 8.68 62.65 8.41 63.55 8.3C63.81 8.28 64.07 8.26 64.34 8.26C66.26 8.26 68.14 8.83 69.74 9.9C71.33 10.97 72.58 12.49 73.31 14.27C74.04 16.05 74.23 18 73.85 19.89C73.47 21.77 72.54 23.5 71.18 24.86C71.12 24.92 71.07 24.99 71.05 25.08C71.03 25.16 71.03 25.25 71.05 25.33C71.68 27.54 71.78 29.87 71.35 32.13C70.93 34.39 69.98 36.52 68.59 38.35C67.2 40.18 65.41 41.67 63.35 42.69C61.29 43.72 59.02 44.25 56.72 44.24Z" fill="#E13A4B" fill-opacity="1.000000" fill-rule="nonzero"/>
	<path id="Vector" d="M41.82 14.1C41.74 14.09 41.66 14.08 41.59 14.04C41.48 13.98 41.4 13.88 41.36 13.76C41.32 13.64 41.33 13.51 41.39 13.4C43.64 9.03 49.07 9.89 49.12 9.9C49.25 9.92 49.37 9.99 49.44 10.1C49.52 10.2 49.55 10.33 49.53 10.46C49.51 10.59 49.44 10.7 49.33 10.78C49.23 10.85 49.09 10.88 48.97 10.86C48.77 10.83 44.18 10.12 42.24 13.85C42.2 13.93 42.14 13.99 42.06 14.03C41.99 14.07 41.9 14.1 41.82 14.1Z" fill="#E13A4B" fill-opacity="1.000000" fill-rule="nonzero"/>
</svg>
