<svg width="48.263489" height="138.000244" viewBox="0 0 48.2635 138" fill="none" xmlns="http://www.w3.org/2000/svg" xmlns:xlink="http://www.w3.org/1999/xlink">
	<desc>
			Created with Pixso.
	</desc>
	<defs/>
	<path id="Vector 2" d="M5.17 41.58C4.39 42.36 4.39 43.63 5.17 44.41L43.34 82.58C44.6 83.84 46.76 82.95 46.76 81.17L46.76 4.82C46.76 3.04 44.6 2.15 43.34 3.41L5.17 41.58Z" stroke="#E13A4B" stroke-opacity="1.000000" stroke-width="3.000000"/>
	<path id="Vector" d="M15.93 67.4C15.71 67.14 15.45 66.9 15.17 66.7C14.52 66.23 13.74 65.97 12.94 65.94L12.93 65.94L12.93 64.76C12.94 64.76 12.94 64.76 12.94 64.76C13.14 64.67 13.32 64.53 13.45 64.36C13.59 64.18 13.67 63.97 13.69 63.75C13.71 63.6 13.69 63.45 13.65 63.3C13.64 63.23 13.61 63.17 13.58 63.1C13.52 62.97 13.43 62.84 13.32 62.74C13.27 62.69 13.21 62.65 13.15 62.61C13.21 62.57 13.26 62.52 13.31 62.47C13.4 62.38 13.47 62.29 13.53 62.18C13.57 62.09 13.61 61.99 13.63 61.9C13.65 61.81 13.66 61.72 13.66 61.63C13.66 61.47 13.64 61.31 13.58 61.17C13.57 61.14 13.55 61.1 13.54 61.07C13.47 60.94 13.38 60.81 13.27 60.71C13.24 60.68 13.21 60.66 13.18 60.64C13.21 60.61 13.23 60.59 13.26 60.56C13.39 60.45 13.49 60.3 13.56 60.14C13.57 60.13 13.57 60.11 13.58 60.1C13.65 59.92 13.67 59.72 13.65 59.52C13.63 59.31 13.55 59.11 13.42 58.94C13.3 58.77 13.13 58.63 12.94 58.55C12.94 58.54 12.94 58.54 12.93 58.54L12.93 51.49C12.93 51.36 12.88 51.23 12.79 51.14C12.7 51.05 12.57 51 12.44 51C12.31 51 12.18 51.05 12.09 51.14C11.99 51.23 11.94 51.36 11.94 51.49L11.94 58.54C11.94 58.54 11.94 58.54 11.93 58.55C11.74 58.63 11.58 58.77 11.45 58.94C11.33 59.11 11.25 59.31 11.22 59.52C11.2 59.71 11.23 59.91 11.3 60.1C11.3 60.11 11.31 60.13 11.31 60.14C11.38 60.3 11.49 60.45 11.61 60.56C11.64 60.59 11.67 60.61 11.7 60.64C11.67 60.66 11.64 60.68 11.61 60.71C11.5 60.81 11.4 60.94 11.33 61.08C11.32 61.11 11.31 61.14 11.29 61.17C11.24 61.33 11.21 61.49 11.21 61.65C11.21 61.75 11.23 61.85 11.26 61.94C11.28 62.03 11.32 62.12 11.36 62.21C11.42 62.32 11.5 62.41 11.59 62.5C11.64 62.55 11.7 62.59 11.76 62.63C11.7 62.67 11.65 62.72 11.6 62.77C11.5 62.87 11.42 62.99 11.36 63.12C11.33 63.19 11.3 63.26 11.28 63.34C11.25 63.47 11.24 63.6 11.25 63.73C11.27 63.94 11.35 64.15 11.47 64.32C11.59 64.49 11.75 64.63 11.93 64.72C11.94 64.72 11.94 64.72 11.94 64.73L11.94 65.94L11.93 65.94C11.13 65.96 10.35 66.23 9.7 66.7C9.41 66.9 9.15 67.15 8.93 67.42C8.65 67.77 8.43 68.16 8.27 68.58C8.68 68.49 9.09 68.4 9.5 68.34C11.44 68.02 13.42 68.01 15.36 68.32C15.77 68.39 16.19 68.47 16.6 68.56L16.6 68.56L16.6 68.57L16.6 68.57L16.6 68.56L16.6 68.56C16.44 68.14 16.21 67.75 15.93 67.4ZM13.91 67.15Q13.85 67.12 13.79 67.1Q13.57 67.03 13.35 66.99Q13.13 66.95 12.91 66.94L12.3 66.93L11.97 66.94Q11.74 66.94 11.52 66.98Q11.3 67.02 11.09 67.1Q11 67.12 10.92 67.15Q11.67 67.09 12.43 67.09Q13.18 67.09 13.91 67.15ZM12.47 63.87L12.56 63.83Q12.59 63.82 12.61 63.8Q12.63 63.78 12.65 63.76Q12.67 63.73 12.68 63.71Q12.69 63.68 12.7 63.65Q12.7 63.62 12.69 63.59Q12.69 63.56 12.68 63.53Q12.66 63.5 12.64 63.48Q12.62 63.45 12.6 63.44L12.47 63.35L12.34 63.44Q12.32 63.46 12.3 63.48Q12.28 63.5 12.27 63.53Q12.26 63.56 12.25 63.59Q12.25 63.61 12.25 63.64Q12.25 63.67 12.26 63.7Q12.27 63.73 12.29 63.75Q12.31 63.77 12.33 63.79Q12.35 63.81 12.38 63.82L12.47 63.87ZM12.44 61.89L12.31 61.8Q12.29 61.79 12.27 61.77Q12.25 61.75 12.24 61.72Q12.23 61.7 12.22 61.67Q12.21 61.65 12.21 61.62Q12.21 61.59 12.22 61.57Q12.22 61.54 12.23 61.52Q12.25 61.49 12.26 61.47Q12.28 61.45 12.3 61.44L12.44 61.33L12.57 61.43Q12.6 61.45 12.61 61.47Q12.63 61.49 12.64 61.51Q12.65 61.54 12.66 61.56Q12.66 61.59 12.66 61.62Q12.66 61.64 12.66 61.67Q12.65 61.69 12.64 61.72Q12.63 61.74 12.61 61.76Q12.59 61.78 12.57 61.79L12.44 61.89ZM12.44 59.94L12.3 59.84Q12.28 59.82 12.26 59.8Q12.25 59.77 12.23 59.75Q12.22 59.72 12.22 59.69Q12.21 59.66 12.22 59.63Q12.22 59.61 12.23 59.58Q12.24 59.55 12.26 59.53Q12.28 59.5 12.3 59.49Q12.32 59.47 12.35 59.46L12.44 59.42L12.53 59.46Q12.55 59.47 12.58 59.49Q12.6 59.5 12.62 59.53Q12.63 59.55 12.64 59.58Q12.65 59.6 12.66 59.63Q12.66 59.66 12.66 59.69Q12.65 59.72 12.64 59.75Q12.63 59.78 12.61 59.8Q12.59 59.82 12.57 59.84L12.44 59.94Z" fill="#E13A4B" fill-opacity="1.000000" fill-rule="evenodd"/>
	<path id="Vector" d="M17.03 89.39L16.36 89.39L16.36 88.67C16.5 88.67 16.63 88.62 16.73 88.52C16.77 88.48 16.8 88.44 16.82 88.39C16.86 88.31 16.88 88.23 16.88 88.15L16.88 86.37C16.55 86.45 16.21 86.52 15.88 86.59C13.63 87.01 11.32 87.01 9.06 86.59C9.05 86.59 9.04 86.58 9.03 86.58C8.7 86.52 8.36 86.44 8.03 86.36L8.03 87.07L8.06 87.07L8.06 88.15C8.06 88.23 8.08 88.31 8.12 88.39C8.14 88.44 8.18 88.48 8.22 88.52C8.31 88.62 8.44 88.67 8.58 88.67L8.58 89.39L7.91 89.39C7.9 89.39 7.88 89.39 7.87 89.39C7.82 89.39 7.78 89.4 7.73 89.41C7.73 89.41 7.73 89.41 7.73 89.42C7.67 89.44 7.61 89.47 7.57 89.52C7.52 89.56 7.48 89.61 7.46 89.67C7.43 89.73 7.42 89.79 7.42 89.85C7.42 89.92 7.43 89.98 7.46 90.04C7.48 90.1 7.52 90.15 7.57 90.19C7.61 90.24 7.67 90.27 7.73 90.29C7.78 90.32 7.85 90.33 7.91 90.32L11.98 90.32L11.98 91.2C11.97 91.2 11.97 91.2 11.97 91.2C11.77 91.23 11.57 91.27 11.38 91.32C10.72 91.5 10.12 91.85 9.63 92.33C8.99 92.95 8.56 93.76 8.43 94.64C8.41 94.74 8.43 94.85 8.47 94.94C8.51 95.03 8.58 95.11 8.66 95.17C8.66 95.17 8.67 95.17 8.67 95.17L8.67 115.5C8.67 115.63 8.72 115.75 8.81 115.84C8.81 115.84 8.81 115.85 8.82 115.85C8.91 115.94 9.03 115.99 9.17 115.99C9.3 115.99 9.42 115.94 9.52 115.85C9.61 115.75 9.66 115.63 9.66 115.5L9.66 95.27L9.77 95.27L9.77 115.5C9.77 115.63 9.82 115.76 9.91 115.85C9.92 115.85 9.92 115.85 9.92 115.85C10.01 115.94 10.14 116 10.27 116C10.4 116 10.53 115.94 10.62 115.85L10.62 115.85C10.71 115.76 10.76 115.63 10.76 115.5L10.76 95.27L10.87 95.27L10.87 115.5C10.87 115.63 10.92 115.76 11.02 115.85C11.02 115.85 11.02 115.85 11.02 115.85C11.11 115.94 11.24 116 11.37 116C11.5 116 11.63 115.94 11.72 115.85C11.72 115.85 11.72 115.85 11.72 115.85C11.81 115.76 11.87 115.63 11.87 115.5L11.87 95.27L11.98 95.27L11.98 96.27L11.98 115.5C11.98 115.63 12.03 115.76 12.12 115.85C12.12 115.85 12.12 115.85 12.12 115.85C12.21 115.94 12.34 116 12.47 116C12.6 116 12.73 115.94 12.82 115.85C12.82 115.85 12.82 115.85 12.82 115.85C12.92 115.76 12.97 115.63 12.97 115.5L12.97 95.27L13.08 95.27L13.08 115.5C13.08 115.63 13.13 115.76 13.22 115.85C13.22 115.85 13.22 115.85 13.22 115.85C13.32 115.94 13.44 116 13.57 116C13.7 116 13.83 115.94 13.92 115.85C13.92 115.85 13.93 115.85 13.93 115.85C14.02 115.76 14.07 115.63 14.07 115.5L14.07 95.27L14.18 95.27L14.18 115.5C14.18 115.63 14.23 115.76 14.32 115.85C14.32 115.85 14.32 115.85 14.32 115.85C14.42 115.94 14.54 116 14.67 116C14.81 116 14.93 115.94 15.03 115.85C15.03 115.85 15.03 115.85 15.03 115.85C15.12 115.76 15.17 115.63 15.17 115.5L15.17 95.27L15.28 95.27L15.28 115.5C15.28 115.63 15.33 115.76 15.43 115.85C15.52 115.94 15.65 116 15.78 116C15.91 116 16.03 115.94 16.13 115.85C16.13 115.85 16.13 115.85 16.13 115.85C16.22 115.76 16.27 115.63 16.27 115.5L16.27 95.18C16.28 95.17 16.28 95.17 16.28 95.17C16.36 95.11 16.43 95.04 16.47 94.95C16.52 94.85 16.53 94.75 16.51 94.64C16.38 93.76 15.96 92.95 15.32 92.33C14.82 91.85 14.22 91.51 13.56 91.33C13.37 91.27 13.18 91.23 12.98 91.21C12.97 91.21 12.97 91.21 12.97 91.21L12.97 90.33L17.03 90.33C17.09 90.33 17.16 90.32 17.22 90.3C17.28 90.27 17.33 90.24 17.38 90.2C17.42 90.15 17.46 90.1 17.48 90.04C17.51 89.98 17.52 89.92 17.52 89.86C17.52 89.79 17.51 89.73 17.48 89.67C17.46 89.62 17.42 89.56 17.38 89.52C17.33 89.48 17.28 89.44 17.22 89.42C17.21 89.42 17.21 89.42 17.2 89.41C17.16 89.4 17.12 89.39 17.08 89.39C17.06 89.39 17.05 89.39 17.03 89.39L17.03 89.39ZM15.36 89.33L15.36 87.69Q15.08 87.73 14.8 87.77Q13.64 87.91 12.45 87.91Q11.27 87.91 10.1 87.76Q9.84 87.73 9.58 87.69L9.58 89.32L12.98 89.32L12.98 89.33L15.36 89.33ZM9.45 87.67Q9.26 87.64 9.06 87.6L9.06 87.67L9.45 87.67ZM15.49 87.67L15.88 87.67L15.88 87.6Q15.68 87.64 15.49 87.67ZM12.46 92.15L12.85 92.2Q13.1 92.23 13.34 92.3Q13.58 92.37 13.8 92.48Q14.03 92.59 14.24 92.73Q14.44 92.87 14.62 93.05Q14.8 93.22 14.95 93.42Q15.1 93.62 15.22 93.85Q15.32 94.05 15.4 94.27L9.55 94.27Q9.62 94.05 9.73 93.84Q9.84 93.62 9.99 93.42Q10.14 93.22 10.32 93.04Q10.5 92.87 10.71 92.73Q10.91 92.58 11.14 92.48Q11.37 92.37 11.61 92.3Q11.85 92.23 12.1 92.2L12.46 92.15Z" fill="#E13A4B" fill-opacity="1.000000" fill-rule="evenodd"/>
	<path id="Vector" d="M15.54 73.78L15.54 73.78Q16.16 76.48 15.94 79.1Q15.67 82.18 14.23 85.15Q14.08 85.17 13.93 85.18L13.93 69.82Q14.03 69.83 14.13 69.84Q14.54 70.67 14.86 71.53Q15.27 72.63 15.54 73.78ZM13.93 68.82C14.21 68.84 14.5 68.87 14.78 68.91C15.55 70.38 16.14 71.94 16.51 73.55C17.51 77.85 16.96 82.06 14.89 86.08C14.57 86.12 14.25 86.16 13.93 86.19C13.6 86.21 13.27 86.23 12.93 86.24L12.93 68.76C13.27 68.77 13.6 68.79 13.93 68.82Z" fill="#E13A4B" fill-opacity="1.000000" fill-rule="evenodd"/>
	<path id="Vector" d="M17.23 69.42C17.57 69.52 17.9 69.63 18.23 69.75C19.28 71.14 20.07 72.71 20.55 74.38C21.61 78.1 20.94 81.71 18.56 85.13C18.16 85.29 17.75 85.43 17.33 85.56C16.92 85.68 16.51 85.78 16.09 85.87C16.27 85.49 16.44 85.11 16.59 84.73C18.39 80.21 18.13 76.16 17.48 73.33C17.23 72.28 16.91 71.25 16.5 70.25C16.34 69.87 16.17 69.49 15.99 69.11C16.41 69.2 16.82 69.3 17.23 69.42ZM17.8 70.85Q18.19 71.96 18.45 73.1Q18.85 74.82 18.94 76.55Q19.01 77.75 18.93 78.95Q18.87 79.77 18.75 80.58Q18.46 82.49 17.8 84.35Q17.86 84.33 17.91 84.31Q19.79 81.5 20.01 78.56Q20.15 76.64 19.59 74.66Q19.26 73.52 18.74 72.47Q18.33 71.63 17.8 70.85Z" fill="#E13A4B" fill-opacity="1.000000" fill-rule="evenodd"/>
	<path id="Vector" d="M10.94 86.18C10.62 86.15 10.3 86.12 9.97 86.07C7.91 82.07 7.37 77.88 8.35 73.6C8.72 71.97 9.31 70.4 10.09 68.92C10.37 68.88 10.66 68.85 10.94 68.82C11.28 68.8 11.61 68.78 11.94 68.77L11.94 86.24C11.61 86.23 11.28 86.21 10.94 86.18ZM10.94 85.18L10.94 69.83Q10.84 69.84 10.74 69.85Q10.33 70.68 10 71.55Q9.59 72.66 9.32 73.82Q8.7 76.53 8.94 79.17Q9.22 82.21 10.63 85.15Q10.79 85.16 10.94 85.18Z" fill="#E13A4B" fill-opacity="1.000000" fill-rule="evenodd"/>
	<path id="Vector" d="M8.87 69.13C8.69 69.5 8.52 69.88 8.36 70.27C7.96 71.26 7.63 72.28 7.39 73.33C6.74 76.15 6.48 80.19 8.27 84.7C8.42 85.08 8.59 85.46 8.77 85.85C8.35 85.76 7.94 85.65 7.53 85.53C7.11 85.4 6.69 85.25 6.28 85.09C3.92 81.68 3.26 78.08 4.32 74.38C4.8 72.72 5.57 71.16 6.61 69.78C6.94 69.65 7.28 69.54 7.62 69.44C8.03 69.32 8.45 69.21 8.87 69.13ZM7.07 70.85Q6.55 71.61 6.15 72.42Q5.62 73.49 5.28 74.66Q4.72 76.63 4.86 78.55Q5.08 81.47 6.93 84.27Q7 84.3 7.06 84.32Q6.41 82.48 6.12 80.6Q6 79.77 5.94 78.94Q5.86 77.76 5.93 76.59Q6.02 74.84 6.42 73.1Q6.68 71.96 7.07 70.85Q7.07 70.85 7.07 70.85Z" fill="#E13A4B" fill-opacity="1.000000" fill-rule="evenodd"/>
	<path id="Vector" d="M4.9 70.55C4.57 71.11 4.27 71.69 4.02 72.29C3.77 72.87 3.55 73.46 3.38 74.07C2.75 76.23 2.47 79.21 3.79 82.54C4.02 83.12 4.29 83.7 4.62 84.3C4.02 83.95 3.46 83.57 2.96 83.16C1.11 81.63 0 79.66 0 77.5C0 75.25 1.21 73.2 3.2 71.65C3.72 71.25 4.29 70.88 4.9 70.55ZM2.42 73.79Q2.27 73.97 2.14 74.15Q1.58 74.93 1.29 75.77Q1.08 76.37 1.02 76.98Q1 77.24 1 77.5Q1 77.9 1.05 78.29Q1.25 79.57 2.07 80.76Q2.16 80.88 2.25 81Q2.08 80.33 1.99 79.64Q1.92 79.17 1.89 78.69Q1.83 77.94 1.86 77.19Q1.93 75.48 2.41 73.8Q2.41 73.79 2.42 73.79Z" fill="#E13A4B" fill-opacity="1.000000" fill-rule="evenodd"/>
	<path id="Vector" d="M23 77.11Q22.93 75.44 22.46 73.8L22.45 73.79Q22.43 73.72 22.41 73.66Q22.61 73.88 22.78 74.11Q23.35 74.9 23.65 75.75Q23.86 76.36 23.92 76.97Q23.95 77.24 23.95 77.5Q23.95 77.91 23.89 78.3Q23.69 79.6 22.85 80.79Q22.72 80.97 22.59 81.14Q22.78 80.4 22.88 79.65Q22.95 79.19 22.98 78.72Q23.04 77.91 23 77.11ZM21.87 83.25C21.37 83.65 20.82 84.02 20.22 84.36C20.55 83.77 20.82 83.19 21.05 82.62C22.41 79.26 22.12 76.24 21.49 74.07C21.31 73.44 21.08 72.81 20.82 72.21C20.56 71.62 20.27 71.05 19.94 70.5C20.54 70.81 21.11 71.17 21.62 71.56C23.69 73.12 24.95 75.21 24.95 77.5C24.95 79.7 23.79 81.71 21.87 83.25Z" fill="#E13A4B" fill-opacity="1.000000" fill-rule="evenodd"/>
	<path id="Vector" d="M38.93 89.4C38.71 89.14 38.45 88.9 38.17 88.7C37.52 88.23 36.74 87.97 35.94 87.95L35.93 87.94L35.93 86.76C35.94 86.76 35.94 86.76 35.94 86.76C36.14 86.67 36.32 86.53 36.45 86.36C36.59 86.18 36.67 85.97 36.69 85.75C36.71 85.6 36.69 85.45 36.65 85.3C36.64 85.23 36.61 85.17 36.58 85.1C36.52 84.97 36.43 84.84 36.32 84.74C36.27 84.69 36.21 84.65 36.15 84.61C36.21 84.57 36.26 84.52 36.31 84.47C36.4 84.38 36.47 84.29 36.53 84.18C36.57 84.09 36.61 83.99 36.63 83.9C36.65 83.81 36.66 83.72 36.66 83.63C36.66 83.47 36.64 83.31 36.58 83.17C36.57 83.14 36.55 83.1 36.54 83.07C36.47 82.94 36.38 82.81 36.27 82.71C36.24 82.68 36.21 82.66 36.18 82.64C36.21 82.61 36.23 82.59 36.26 82.56C36.39 82.45 36.49 82.3 36.56 82.14C36.57 82.13 36.57 82.11 36.58 82.1C36.65 81.92 36.67 81.72 36.65 81.52C36.63 81.31 36.55 81.11 36.42 80.94C36.3 80.77 36.13 80.63 35.94 80.55C35.94 80.54 35.94 80.54 35.93 80.54L35.93 73.49C35.93 73.36 35.88 73.23 35.79 73.14C35.7 73.05 35.57 73 35.44 73C35.31 73 35.18 73.05 35.09 73.14C34.99 73.23 34.94 73.36 34.94 73.49L34.94 80.54C34.94 80.54 34.94 80.54 34.93 80.55C34.74 80.63 34.58 80.77 34.45 80.94C34.33 81.11 34.25 81.31 34.22 81.52C34.2 81.71 34.23 81.91 34.3 82.1C34.3 82.11 34.31 82.13 34.31 82.14C34.38 82.3 34.49 82.45 34.61 82.56C34.64 82.59 34.67 82.61 34.7 82.64C34.67 82.66 34.64 82.68 34.61 82.71C34.5 82.81 34.4 82.94 34.33 83.08C34.32 83.11 34.31 83.14 34.29 83.17C34.24 83.33 34.21 83.49 34.21 83.65C34.21 83.75 34.23 83.85 34.26 83.94C34.28 84.03 34.32 84.12 34.36 84.21C34.42 84.32 34.5 84.41 34.59 84.5C34.64 84.55 34.7 84.59 34.76 84.63C34.7 84.67 34.65 84.72 34.6 84.77C34.5 84.87 34.42 84.99 34.36 85.12C34.33 85.19 34.3 85.26 34.28 85.34C34.25 85.47 34.24 85.6 34.25 85.73C34.27 85.94 34.35 86.15 34.47 86.32C34.59 86.49 34.75 86.63 34.93 86.72C34.94 86.72 34.94 86.72 34.94 86.73L34.94 87.94L34.93 87.94C34.13 87.96 33.35 88.23 32.7 88.7C32.41 88.9 32.15 89.15 31.93 89.42C31.65 89.77 31.43 90.16 31.27 90.58C31.68 90.49 32.09 90.4 32.5 90.34C34.44 90.02 36.42 90.01 38.36 90.32C38.77 90.39 39.19 90.47 39.6 90.56L39.6 90.56L39.6 90.57L39.6 90.57L39.6 90.56L39.6 90.56C39.44 90.14 39.21 89.75 38.93 89.4ZM36.91 89.15Q36.85 89.12 36.79 89.1Q36.57 89.03 36.35 88.99Q36.13 88.95 35.91 88.94L35.3 88.93L34.97 88.94Q34.74 88.94 34.52 88.98Q34.3 89.02 34.09 89.1Q34 89.12 33.92 89.15Q34.67 89.09 35.43 89.09Q36.18 89.09 36.91 89.15ZM35.47 85.87L35.56 85.83Q35.59 85.82 35.61 85.8Q35.63 85.78 35.65 85.76Q35.67 85.73 35.68 85.71Q35.69 85.68 35.7 85.65Q35.7 85.62 35.69 85.59Q35.69 85.56 35.68 85.53Q35.66 85.5 35.64 85.48Q35.62 85.45 35.6 85.44L35.47 85.35L35.34 85.44Q35.32 85.46 35.3 85.48Q35.28 85.5 35.27 85.53Q35.26 85.56 35.25 85.59Q35.25 85.61 35.25 85.64Q35.25 85.67 35.26 85.7Q35.27 85.73 35.29 85.75Q35.31 85.77 35.33 85.79Q35.35 85.81 35.38 85.82L35.47 85.87ZM35.44 83.89L35.31 83.8Q35.29 83.79 35.27 83.77Q35.25 83.75 35.24 83.72Q35.23 83.7 35.22 83.67Q35.21 83.65 35.21 83.62Q35.21 83.59 35.22 83.57Q35.22 83.54 35.23 83.52Q35.25 83.49 35.26 83.47Q35.28 83.45 35.3 83.44L35.44 83.33L35.57 83.43Q35.6 83.45 35.61 83.47Q35.63 83.49 35.64 83.51Q35.65 83.54 35.66 83.56Q35.66 83.59 35.66 83.62Q35.66 83.64 35.66 83.67Q35.65 83.69 35.64 83.72Q35.63 83.74 35.61 83.76Q35.59 83.78 35.57 83.79L35.44 83.89ZM35.44 81.94L35.3 81.84Q35.28 81.82 35.26 81.8Q35.25 81.77 35.23 81.75Q35.22 81.72 35.22 81.69Q35.21 81.66 35.22 81.63Q35.22 81.61 35.23 81.58Q35.24 81.55 35.26 81.53Q35.28 81.5 35.3 81.49Q35.32 81.47 35.35 81.46L35.44 81.42L35.53 81.46Q35.55 81.47 35.58 81.49Q35.6 81.5 35.62 81.53Q35.63 81.55 35.64 81.58Q35.65 81.6 35.66 81.63Q35.66 81.66 35.66 81.69Q35.65 81.72 35.64 81.75Q35.63 81.78 35.61 81.8Q35.59 81.82 35.57 81.84L35.44 81.94Z" fill="#E13A4B" fill-opacity="1.000000" fill-rule="evenodd"/>
	<path id="Vector" d="M40.03 111.39L39.36 111.39L39.36 110.67C39.5 110.67 39.63 110.62 39.73 110.52C39.77 110.48 39.8 110.44 39.82 110.39C39.86 110.32 39.88 110.24 39.88 110.15L39.88 108.37C39.55 108.45 39.21 108.52 38.88 108.59C36.63 109.02 34.32 109.01 32.06 108.59C32.05 108.59 32.04 108.58 32.03 108.58C31.7 108.52 31.36 108.44 31.03 108.36L31.03 109.07L31.06 109.07L31.06 110.15C31.06 110.24 31.08 110.32 31.12 110.39C31.14 110.44 31.18 110.48 31.22 110.52C31.31 110.62 31.44 110.67 31.58 110.67L31.58 111.39L30.91 111.39C30.9 111.39 30.88 111.39 30.87 111.39C30.82 111.39 30.78 111.4 30.73 111.41C30.73 111.41 30.73 111.41 30.73 111.42C30.67 111.44 30.61 111.47 30.57 111.52C30.52 111.56 30.48 111.61 30.46 111.67C30.43 111.73 30.42 111.79 30.42 111.85C30.42 111.92 30.43 111.98 30.46 112.04C30.48 112.1 30.52 112.15 30.57 112.19C30.61 112.24 30.67 112.27 30.73 112.29C30.78 112.32 30.85 112.33 30.91 112.32L34.98 112.32L34.98 113.2C34.97 113.2 34.97 113.2 34.97 113.2C34.77 113.23 34.57 113.27 34.38 113.32C33.72 113.5 33.12 113.85 32.63 114.33C31.99 114.95 31.56 115.76 31.43 116.64C31.41 116.74 31.43 116.85 31.47 116.94C31.51 117.03 31.58 117.11 31.66 117.17C31.66 117.17 31.67 117.17 31.67 117.17L31.67 137.5C31.67 137.63 31.72 137.75 31.81 137.84C31.81 137.84 31.81 137.85 31.82 137.85C31.91 137.94 32.03 137.99 32.17 137.99C32.3 137.99 32.42 137.94 32.52 137.85C32.61 137.75 32.66 137.63 32.66 137.5L32.66 117.27L32.77 117.27L32.77 137.5C32.77 137.63 32.82 137.75 32.91 137.85C32.92 137.85 32.92 137.85 32.92 137.85C33.01 137.94 33.14 138 33.27 138C33.4 138 33.53 137.94 33.62 137.85L33.62 137.85C33.71 137.75 33.76 137.63 33.76 137.5L33.76 117.27L33.87 117.27L33.87 137.5C33.87 137.63 33.92 137.75 34.02 137.85C34.02 137.85 34.02 137.85 34.02 137.85C34.11 137.94 34.24 138 34.37 138C34.5 138 34.63 137.94 34.72 137.85C34.72 137.85 34.72 137.85 34.72 137.85C34.81 137.75 34.87 137.63 34.87 137.5L34.87 117.27L34.98 117.27L34.98 118.27L34.98 137.5C34.98 137.63 35.03 137.75 35.12 137.85C35.12 137.85 35.12 137.85 35.12 137.85C35.21 137.94 35.34 138 35.47 138C35.6 138 35.73 137.94 35.82 137.85C35.82 137.85 35.82 137.85 35.82 137.85C35.92 137.75 35.97 137.63 35.97 137.5L35.97 117.27L36.08 117.27L36.08 137.5C36.08 137.63 36.13 137.75 36.22 137.85C36.22 137.85 36.22 137.85 36.22 137.85C36.32 137.94 36.44 138 36.57 138C36.7 138 36.83 137.94 36.92 137.85C36.92 137.85 36.93 137.85 36.93 137.85C37.02 137.75 37.07 137.63 37.07 137.5L37.07 117.27L37.18 117.27L37.18 137.5C37.18 137.63 37.23 137.75 37.32 137.85C37.32 137.85 37.32 137.85 37.32 137.85C37.42 137.94 37.54 138 37.67 138C37.81 138 37.93 137.94 38.03 137.85C38.03 137.85 38.03 137.85 38.03 137.85C38.12 137.75 38.17 137.63 38.17 137.5L38.17 117.27L38.28 117.27L38.28 137.5C38.28 137.63 38.33 137.76 38.43 137.85C38.52 137.94 38.65 138 38.78 138C38.91 138 39.03 137.94 39.13 137.85C39.13 137.85 39.13 137.85 39.13 137.85C39.22 137.75 39.27 137.63 39.27 137.5L39.27 117.18C39.28 117.18 39.28 117.17 39.28 117.17C39.36 117.12 39.43 117.04 39.47 116.95C39.52 116.85 39.53 116.75 39.51 116.64C39.38 115.76 38.96 114.95 38.32 114.33C37.82 113.85 37.22 113.51 36.56 113.33C36.37 113.27 36.18 113.23 35.98 113.21C35.97 113.21 35.97 113.21 35.97 113.21L35.97 112.33L40.03 112.33C40.09 112.33 40.16 112.32 40.22 112.3C40.28 112.28 40.33 112.24 40.38 112.2C40.42 112.15 40.46 112.1 40.48 112.04C40.51 111.98 40.52 111.92 40.52 111.86C40.52 111.79 40.51 111.73 40.48 111.67C40.46 111.62 40.42 111.56 40.38 111.52C40.33 111.48 40.28 111.44 40.22 111.42C40.21 111.42 40.21 111.42 40.2 111.41C40.16 111.4 40.12 111.39 40.08 111.39C40.06 111.39 40.05 111.39 40.03 111.39L40.03 111.39ZM38.36 111.33L38.36 109.69Q38.08 109.73 37.8 109.77Q36.64 109.91 35.45 109.91Q34.27 109.91 33.1 109.76Q32.84 109.73 32.58 109.69L32.58 111.32L35.98 111.32L35.98 111.33L38.36 111.33ZM32.45 109.67Q32.26 109.64 32.06 109.61L32.06 109.67L32.45 109.67ZM38.49 109.67L38.88 109.67L38.88 109.61Q38.68 109.64 38.49 109.67ZM35.46 114.15L35.85 114.2Q36.1 114.23 36.34 114.3Q36.58 114.37 36.8 114.48Q37.03 114.59 37.24 114.73Q37.44 114.87 37.62 115.05Q37.8 115.22 37.95 115.42Q38.1 115.62 38.22 115.85Q38.32 116.05 38.4 116.27L32.55 116.27Q32.62 116.05 32.73 115.84Q32.84 115.62 32.99 115.42Q33.14 115.22 33.32 115.05Q33.5 114.87 33.71 114.73Q33.91 114.58 34.14 114.48Q34.37 114.37 34.61 114.3Q34.85 114.23 35.1 114.2L35.46 114.15Z" fill="#E13A4B" fill-opacity="1.000000" fill-rule="evenodd"/>
	<path id="Vector" d="M38.54 95.78L38.54 95.78Q39.16 98.48 38.94 101.1Q38.67 104.18 37.23 107.15Q37.08 107.17 36.93 107.18L36.93 91.82Q37.03 91.83 37.13 91.84Q37.54 92.67 37.86 93.53Q38.27 94.63 38.54 95.78ZM36.93 90.82C37.21 90.84 37.5 90.87 37.78 90.91C38.55 92.38 39.14 93.94 39.51 95.55C40.51 99.85 39.96 104.06 37.89 108.08C37.57 108.13 37.25 108.16 36.93 108.19C36.6 108.21 36.27 108.23 35.93 108.24L35.93 90.77C36.27 90.77 36.6 90.79 36.93 90.82Z" fill="#E13A4B" fill-opacity="1.000000" fill-rule="evenodd"/>
	<path id="Vector" d="M40.23 91.42C40.57 91.52 40.9 91.63 41.23 91.75C42.28 93.14 43.07 94.71 43.55 96.38C44.61 100.1 43.94 103.71 41.56 107.13C41.16 107.29 40.75 107.43 40.33 107.56C39.92 107.68 39.51 107.78 39.09 107.87C39.27 107.49 39.44 107.11 39.59 106.73C41.39 102.21 41.13 98.16 40.48 95.33C40.23 94.28 39.91 93.25 39.5 92.25C39.34 91.87 39.17 91.49 38.99 91.11C39.41 91.2 39.82 91.3 40.23 91.42ZM40.8 92.85Q41.19 93.96 41.45 95.1Q41.85 96.82 41.94 98.55Q42.01 99.75 41.93 100.95Q41.87 101.77 41.75 102.58Q41.46 104.49 40.8 106.35Q40.86 106.33 40.91 106.31Q42.79 103.5 43.01 100.57Q43.15 98.64 42.59 96.66Q42.26 95.52 41.74 94.47Q41.33 93.63 40.8 92.85Z" fill="#E13A4B" fill-opacity="1.000000" fill-rule="evenodd"/>
	<path id="Vector" d="M33.94 108.18C33.62 108.15 33.3 108.12 32.97 108.07C30.91 104.07 30.37 99.88 31.35 95.6C31.72 93.97 32.31 92.4 33.09 90.92C33.37 90.88 33.66 90.85 33.94 90.82C34.28 90.8 34.61 90.78 34.94 90.77L34.94 108.24C34.61 108.23 34.28 108.21 33.94 108.18ZM33.94 107.18L33.94 91.83Q33.84 91.84 33.74 91.85Q33.33 92.68 33 93.55Q32.59 94.66 32.32 95.82Q31.7 98.53 31.94 101.17Q32.22 104.21 33.63 107.15Q33.79 107.16 33.94 107.18Z" fill="#E13A4B" fill-opacity="1.000000" fill-rule="evenodd"/>
	<path id="Vector" d="M31.87 91.13C31.69 91.5 31.52 91.88 31.36 92.27C30.96 93.26 30.63 94.28 30.39 95.33C29.74 98.15 29.48 102.19 31.27 106.7C31.42 107.08 31.59 107.46 31.77 107.85C31.35 107.76 30.94 107.65 30.53 107.53C30.11 107.4 29.69 107.26 29.28 107.09C26.93 103.68 26.26 100.08 27.32 96.38C27.8 94.72 28.57 93.16 29.61 91.78C29.94 91.65 30.28 91.54 30.62 91.44C31.03 91.32 31.45 91.21 31.87 91.13ZM30.07 92.85Q29.55 93.61 29.15 94.42Q28.62 95.49 28.28 96.66Q27.72 98.63 27.86 100.55Q28.08 103.47 29.93 106.27Q30 106.3 30.06 106.32Q29.41 104.48 29.12 102.6Q29 101.77 28.94 100.94Q28.86 99.76 28.93 98.59Q29.02 96.84 29.42 95.1Q29.68 93.96 30.07 92.85Q30.07 92.85 30.07 92.85Z" fill="#E13A4B" fill-opacity="1.000000" fill-rule="evenodd"/>
	<path id="Vector" d="M27.9 92.55C27.57 93.11 27.27 93.69 27.02 94.29C26.77 94.87 26.55 95.46 26.38 96.07C25.75 98.23 25.47 101.21 26.79 104.54C27.02 105.12 27.29 105.7 27.62 106.3C27.02 105.96 26.46 105.57 25.96 105.16C24.11 103.63 23 101.66 23 99.5C23 97.25 24.21 95.2 26.2 93.65C26.72 93.25 27.29 92.88 27.9 92.55ZM25.42 95.79Q25.27 95.97 25.14 96.15Q24.58 96.93 24.29 97.77Q24.08 98.37 24.02 98.98Q24 99.24 24 99.5Q24 99.9 24.05 100.3Q24.25 101.57 25.07 102.76Q25.16 102.88 25.25 103Q25.08 102.33 24.99 101.64Q24.92 101.17 24.89 100.69Q24.83 99.94 24.86 99.19Q24.93 97.48 25.41 95.8Q25.41 95.79 25.42 95.79Z" fill="#E13A4B" fill-opacity="1.000000" fill-rule="evenodd"/>
	<path id="Vector" d="M46 99.11Q45.93 97.44 45.46 95.8L45.45 95.79Q45.43 95.72 45.41 95.66Q45.61 95.88 45.78 96.11Q46.35 96.9 46.65 97.75Q46.86 98.36 46.92 98.97Q46.95 99.24 46.95 99.5Q46.95 99.91 46.89 100.3Q46.69 101.6 45.85 102.8Q45.72 102.97 45.59 103.14Q45.78 102.4 45.88 101.65Q45.95 101.19 45.98 100.72Q46.04 99.91 46 99.11ZM44.87 105.25C44.37 105.65 43.82 106.02 43.22 106.36C43.55 105.77 43.82 105.19 44.05 104.63C45.41 101.26 45.12 98.24 44.49 96.07C44.31 95.44 44.08 94.81 43.82 94.21C43.56 93.62 43.27 93.05 42.94 92.5C43.54 92.81 44.11 93.17 44.62 93.56C46.69 95.12 47.95 97.21 47.95 99.5C47.95 101.7 46.79 103.71 44.87 105.25Z" fill="#E13A4B" fill-opacity="1.000000" fill-rule="evenodd"/>
</svg>
