<svg width="394.647888" height="429.153320" viewBox="0 0 394.648 429.153" fill="none" xmlns="http://www.w3.org/2000/svg" xmlns:xlink="http://www.w3.org/1999/xlink">
	<desc>
			Created with Pixso.
	</desc>
	<defs/>
	<path id="Vector" d="M311.37 92C311.37 142.81 270.18 184 219.37 184C168.56 184 127.37 142.81 127.37 92C127.37 41.18 168.56 0 219.37 0C270.18 0 311.37 41.18 311.37 92Z" fill="#E13A4B" fill-opacity="1.000000" fill-rule="evenodd"/>
	<path id="Vector" d="M307.11 413.68C305.11 411.61 302.94 409.71 300.63 407.99C299.05 406.72 297.39 405.55 295.66 404.48C293.71 403.1 291.9 401.54 290.24 399.82C286.69 396.5 283.66 392.67 281.25 388.44C278.84 383.95 276.75 379.06 274.18 374.52C272.36 370.59 270.02 366.92 267.21 363.61C264.06 360.46 260.62 357.68 257.54 354.46C254.31 351.17 251.66 347.37 249.67 343.21C248.59 340.96 247.42 338.71 246.05 336.47C244.92 334.2 244.03 331.83 243.39 329.38C242.63 327.13 241.44 325.06 240.63 322.84C239.97 320.68 239.45 318.49 239.07 316.27C237.69 312.15 235.69 308.26 233.14 304.73C230.81 300.29 228.91 295.63 227.47 290.83C226.46 288.53 225.56 286.18 224.79 283.79C224.37 281.3 224.45 278.76 225.04 276.3C225.79 272.21 225.93 268.02 225.44 263.89C225.15 261.64 224.86 259.39 224.52 257.14C224.39 256.1 224.12 255.14 223.92 254.12C223.66 252.72 223.57 251.28 223.65 249.85C223.65 244.81 223.65 239.8 223.42 234.76C223.16 232.22 223.32 229.67 223.87 227.18C224.2 226.28 224.42 225.36 224.55 224.41C224.55 223.18 224.39 221.96 224.55 220.72C224.82 215.51 227.51 210.6 230.03 206.17C231.21 204.4 232.05 202.42 232.51 200.35C232.91 197.94 233.41 195.53 233.83 193.13C234.26 190.72 234.58 188.4 235.05 186.09C235.45 184.15 236.38 182.4 236.62 180.42C236.8 178.08 236.85 175.73 236.76 173.38C236.76 170.79 236.76 168.21 236.76 165.62C236.73 163.41 236.5 161.2 236.06 159.03C235.83 157.04 235.3 155.1 234.49 153.27C233.71 151.46 232.69 149.77 231.45 148.23C230.1 146.75 228.66 145.33 227.15 144C226.22 143.25 225.46 142.3 224.95 141.22C224.43 140.14 224.16 138.95 224.16 137.75C224.15 135.38 224.38 133.02 224.84 130.69C225.73 126.1 226.2 121.44 226.25 116.77C226.25 113.51 226.12 109.1 222.7 107.41C221.53 106.83 220.59 107.41 219.51 107.95C217.26 109.05 214.56 108.67 212.13 109.48C210.14 110 208.12 110.4 206.08 110.7C203.83 111.15 201.58 111.33 199.33 111.82C197.08 112.32 194.83 113.33 192.58 114.07C190.34 114.81 188.09 115.42 185.84 116.21C183.74 117.01 181.69 117.93 179.7 118.97C177.44 120.05 175.12 120.97 172.75 121.74C170.53 122.6 168.22 123.23 165.86 123.61C163.74 123.83 161.6 123.83 159.48 123.61C155.43 122.88 151.3 122.76 147.22 123.27C142.72 124.19 138.85 127.36 135.12 129.84C133.09 131.16 131.09 132.58 128.96 133.7C126.82 134.83 124.89 135.05 123.02 136.16C121.15 137.26 119.55 138.72 117.67 139.75C115.78 140.79 113.75 141.82 111.82 142.99C109.56 144.31 107.15 145.35 104.64 146.1C102.39 146.79 100.3 147.65 98.07 148.35C96.83 148.69 95.56 148.92 94.27 149.02C93.22 149.03 92.17 149.1 91.12 149.25C90.35 149.47 89.59 149.78 88.88 150.17C87.53 150.75 86.07 151.05 84.6 151.05C80.24 151.23 76.35 151.05 72.61 153.56C71.75 154.2 70.79 154.7 69.78 155.07C68.9 155.3 68.03 155.6 67.19 155.97C65.68 156.81 64.27 157.81 62.99 158.96C61.65 160.14 60.47 161.49 59.48 162.97C58.18 164.91 56.37 166.46 54.26 167.46C52.26 168.45 50.26 169.35 48.35 170.52C46.43 171.69 44.41 173.09 42.41 174.32C38.31 176.89 34.2 179.47 29.99 181.84C28.01 182.96 25.97 183.95 24.06 185.14C22.14 186.33 20.77 188.61 18.7 188.31C18.5 188.31 18.41 188.61 18.7 188.63C19.25 188.71 19.81 188.65 20.33 188.46C20.85 188.28 21.32 187.96 21.69 187.55L22.26 187.05C21.31 188.13 20.52 189.3 19.51 190.43C18.2 191.53 16.77 192.48 15.24 193.24C12.13 195.24 12.22 199.15 12.31 202.46C12.43 207.61 12.31 212.76 12.31 217.91C12.31 223.06 12.43 228.51 12.09 233.81C11.75 239.12 11.68 244.3 10.85 249.42C10.47 251.67 10.04 253.92 9.82 256.33C9.59 258.74 9.71 261.46 9.82 264.04C9.82 269.35 9.82 274.64 9.82 279.94C9.87 282.62 9.74 285.29 9.41 287.95C9.05 290.38 8.58 292.79 8.22 295.19C7.52 300.16 7.64 305.14 7.1 310.1C6.56 315.08 4.85 320.34 3.99 325.51C3.18 330.3 2.72 335.14 2.62 340C2.62 350.21 3.34 360.51 2.62 370.7C1.9 380.89 -0.33 390.49 0.03 400.5C0.26 407.2 1.61 413.82 4.04 420.07C6.29 425.35 9.95 429.83 16.16 429.06C18.55 428.66 20.96 428.39 23.38 428.25C25.9 428.25 28.4 427.83 30.89 427.53C33.18 427.06 35.49 426.7 37.82 426.48C40.23 426.39 42.64 426.48 45.04 426.75C47.43 427.12 49.84 427.34 52.26 427.4C54.59 427.32 56.91 427.08 59.21 426.68C61.73 426.27 64.25 425.71 66.79 425.53C69.22 425.4 71.66 425.4 74.1 425.53C84.46 425.72 94.82 425.14 105.09 423.8C107.34 423.53 109.73 423.8 111.97 423.4C114.22 422.99 116.79 422.11 119.24 421.62C124.39 420.35 129.71 419.98 134.98 420.54C139.91 421.04 144.86 421.21 149.81 421.06C154.99 421.31 160.17 421.25 165.35 420.88C170.47 420.07 175.64 419.52 180.82 419.23C186.15 419.23 191.53 419.66 196.86 419.23C199.35 418.99 201.81 418.6 204.3 418.49C206.8 418.38 209.3 418.49 211.81 418.49C214.33 418.49 216.9 418.02 219.44 417.82C221.98 417.62 224.59 417.57 227.18 417.55C232.42 417.55 237.66 417.68 242.92 417.55C248.18 417.41 253.09 416.72 258.19 416.31C263.3 415.91 268.49 415.88 273.67 415.91C278.82 415.8 283.98 415.98 289.12 416.45C293.91 417.1 298.77 417.17 303.58 416.65C304.55 416.51 305.51 416.36 306.46 416.13C306.91 416.02 307.81 416 308.03 415.55C308.26 415.1 307.52 414.08 307.11 413.68Z" fill="#202147" fill-opacity="1.000000" fill-rule="nonzero"/>
	<path id="Vector" d="M61.59 215.28L62.36 215.28L62.83 215.28L63.15 215.03C64.45 213.93 65.78 212.78 67.13 211.82L67.67 211.41L68.79 210.56L69.6 209.88C69.89 209.6 70.21 209.33 70.55 209.1C71.06 208.75 71.64 208.49 72.25 208.35C73.04 208.09 73.8 207.74 74.5 207.3C75.84 206.47 77.22 205.72 78.64 205.05C80.11 204.41 81.61 203.85 83.14 203.38C84.61 202.89 86.01 202.23 87.32 201.4C88.58 200.66 89.89 200.01 91.19 199.33C92.55 198.63 93.81 197.73 94.9 196.66C96 195.79 97.29 195.21 98.66 194.95C99.43 194.76 100.19 194.5 100.91 194.16C101.47 193.91 102.08 193.8 102.69 193.85L103.34 193.85L104.53 193.85L104.53 192.72L104.53 191.53L102.28 191.53C101.83 191.53 101.39 191.59 100.95 191.71C100.56 191.83 100.19 191.99 99.83 192.18C99.56 192.31 99.28 192.43 99 192.52L98.43 192.68C97.33 192.93 96.25 193.3 95.22 193.78C94.4 194.21 93.64 194.76 92.97 195.4C92.54 195.8 92.08 196.16 91.6 196.48C90.87 196.91 90.12 197.3 89.35 197.65C88.74 197.94 88.13 198.23 87.55 198.57L86.49 199.2C85.49 199.83 84.43 200.37 83.34 200.84C82.67 201.11 81.97 201.34 81.3 201.56C80.62 201.79 79.56 202.12 78.73 202.48C77.25 203.11 75.8 203.81 74.39 204.58L73.63 205.03C73.19 205.3 72.73 205.55 72.25 205.77L71.49 206.01C71.01 206.14 70.54 206.3 70.1 206.51C69.37 206.9 68.7 207.39 68.09 207.95C67.49 208.49 66.83 208.98 66.18 209.48L65.73 209.84C64.29 210.88 62.91 212.02 61.62 213.23L61.05 213.86L61.32 214.56L61.59 215.28ZM56.15 278.89C56.67 278.32 57.19 277.76 57.73 277.22C58.26 276.68 58.85 276.05 59.41 275.42C59.97 274.79 60.02 274.73 60.36 274.39L61.28 273.47C61.9 272.9 62.48 272.28 63.01 271.62L63.37 271.13C63.81 270.44 64.38 269.85 65.03 269.37C65.53 269.08 66.05 268.81 66.56 268.56C67.17 268.27 67.75 267.95 68.32 267.6L69.31 266.99C71.15 265.82 73.02 264.74 74.89 263.55C75.6 263.14 76.35 262.82 77.14 262.58L78.24 262.2C79.38 261.78 80.48 261.28 81.54 260.69C82.1 260.38 82.65 260.04 83.16 259.66L83.57 259.34C83.76 259.15 83.98 258.99 84.22 258.87C84.49 258.78 84.77 258.74 85.05 258.76L86.29 258.76C86.54 258.78 86.78 258.78 87.03 258.76C87.61 258.69 88.17 258.52 88.7 258.26C89.05 258.04 89.37 257.77 89.64 257.45L89.98 257.12C90.28 256.93 90.59 256.77 90.92 256.64L91.24 256.53L92.2 256.08L93.17 255.61C93.58 255.48 93.99 255.38 94.41 255.32L94.63 255.32C95.11 255.26 95.57 255.06 95.94 254.75C96.46 254.21 96.83 253.53 97 252.8L97 252.55C97 252.55 97.22 252.01 98.5 251.11C98.92 250.86 99.38 250.66 99.85 250.53C100.47 250.34 101.07 250.07 101.63 249.74C102.19 249.33 102.66 248.81 103 248.21C103.15 247.95 103.33 247.71 103.52 247.49C104.3 246.64 105.24 245.95 106.28 245.44C106.75 245.29 107.17 245.02 107.5 244.66C108.71 243.87 109.95 243.17 111.19 242.41L112.09 241.87C113.9 240.83 115.65 239.69 117.33 238.45C118.04 237.95 118.79 237.52 119.58 237.17C120.47 236.75 121.32 236.24 122.12 235.66C122.66 235.27 123.23 234.92 123.83 234.62L124.57 234.22L126.57 233.03L127.67 232.37C128.4 231.94 129.15 231.54 129.92 231.18C131.05 230.66 132.14 230.06 133.18 229.38C134.02 228.82 134.92 228.35 135.86 227.83C136.81 227.31 137.44 227 138.11 226.53C138.75 226.13 139.41 225.77 140.09 225.45C141.24 224.97 142.32 224.36 143.33 223.63C143.95 223.19 144.6 222.8 145.28 222.48L145.64 222.3C146.09 222.06 146.52 221.79 146.93 221.49C147.3 221.19 147.71 220.94 148.14 220.75C148.75 220.52 149.39 220.41 150.03 220.41L150.95 220.41C152.12 220.24 153.3 220.15 154.48 220.14L159.68 220.14C160.15 220.13 160.62 220.18 161.07 220.27C162.45 220.56 163.85 220.7 165.26 220.68L167.19 220.68L168.86 220.68C170.23 220.72 171.61 220.63 172.97 220.43L174.97 220.12C176.45 219.9 177.9 219.57 179.31 219.13C181.16 218.59 182.88 217.69 184.38 216.47C184.97 215.98 185.64 215.58 186.35 215.3L187.25 215.08C187.85 214.97 188.43 214.8 188.99 214.58C189.91 214.14 190.92 213.88 191.95 213.84L193.21 213.84C193.98 213.84 194.74 213.84 195.46 213.84C197.46 213.62 199.44 213.23 201.38 212.69L202.3 212.47C202.98 212.31 203.65 212.11 204.3 211.88C204.87 211.68 205.43 211.41 205.97 211.17C206.51 210.92 206.87 210.74 207.32 210.56C208.51 210.13 209.74 209.79 210.98 209.55C211.84 209.34 212.69 209.16 213.52 208.92L214.11 208.74C215.7 208.42 217.19 207.73 218.47 206.73L219.1 206.19L218.83 205.45L218.52 204.67L217.28 204.67L216.99 204.91C215.55 205.85 213.94 206.48 212.24 206.76L211.1 207.03L209.63 207.39C208.09 207.7 206.59 208.17 205.13 208.78C201.21 210.55 196.94 211.46 192.63 211.43L192.36 211.43C191.41 211.4 190.47 211.5 189.55 211.73C189.09 211.87 188.65 212.04 188.22 212.24C187.82 212.44 187.4 212.59 186.96 212.69L186.51 212.81C185.82 212.9 185.16 213.11 184.53 213.41C183.84 213.78 183.19 214.22 182.6 214.72L182.01 215.15C180.48 216.18 178.75 216.87 176.93 217.19C175.92 217.42 174.89 217.58 173.85 217.67C173.3 217.71 172.75 217.8 172.21 217.91C171.73 218.01 171.25 218.08 170.77 218.12L170.32 218.12L169.24 218.12L168.07 218.12L166.25 218.12L164.65 218.12C163.67 218.1 162.7 217.97 161.75 217.73C161.14 217.59 160.52 217.53 159.9 217.55L154.57 217.55C153.71 217.51 152.85 217.51 151.99 217.55L151.07 217.55C149.3 217.54 147.56 218 146.03 218.88C145.4 219.31 144.72 219.69 144.05 220.07C143.17 220.56 142.31 221.09 141.48 221.67C141 222 140.48 222.28 139.93 222.5L139.12 222.88C138.35 223.28 137.6 223.73 136.87 224.21L136.33 224.55C135.53 225.04 134.71 225.49 133.86 225.9C133.27 226.18 132.7 226.51 132.17 226.89L131.25 227.47C130.77 227.74 130.28 227.98 129.77 228.19L128.8 228.62C127.94 229.05 127.11 229.54 126.3 230.04L125.69 230.42L124.08 231.36C122.79 232.1 121.47 232.87 120.23 233.75C119.6 234.17 118.93 234.51 118.23 234.89C117.27 235.35 116.36 235.9 115.51 236.54C113.87 237.77 112.13 238.87 110.31 239.82L109.39 240.34C108.78 240.65 108.2 240.97 107.61 241.33L107.14 241.64C106.89 241.75 106.66 241.91 106.46 242.11C105.9 242.5 105.36 242.88 104.78 243.22C104.49 243.37 104.19 243.49 103.88 243.6C103.34 243.8 102.83 244.05 102.35 244.36L101.31 245.1C100.84 245.46 100.35 245.82 99.85 246.14C98.79 246.74 97.64 247.18 96.46 247.47C95.71 247.67 94.95 247.89 94.21 248.16L93.22 248.59C92.77 248.82 92.3 249.01 91.82 249.15C91.26 249.29 90.68 249.4 90.11 249.49L88.65 249.78C87.89 249.98 87.14 250.22 86.4 250.5L85.84 250.71C85.02 250.95 84.17 251.06 83.32 251.04L83.1 251.04L81.59 251.04L79.72 251.04C78.97 251.03 78.21 251.09 77.47 251.22C75.81 251.66 74.27 252.49 72.97 253.63L72.43 254.06C72.03 254.35 71.62 254.6 71.2 254.87C70.84 255.06 70.49 255.28 70.16 255.52C69.62 255.89 69.1 256.3 68.61 256.73L68.05 257.21C66.65 258.24 65.14 259.12 63.55 259.81L62.09 260.51C61.29 260.85 60.53 261.29 59.84 261.82C59.44 262.13 59.07 262.49 58.74 262.87C58.4 263.23 58.04 263.56 57.66 263.86C57.03 264.33 56.49 264.9 56.06 265.55C55.84 265.96 55.47 266.28 55.03 266.43C54.69 266.56 54.38 266.76 54.13 267.01C53.95 267.16 53.79 267.32 53.65 267.51C53.47 267.69 53.36 267.82 53.23 267.93L52.71 268.23L52.01 268.65C51.57 268.95 51.15 269.27 50.75 269.62C50.35 269.97 49.93 270.29 49.49 270.59C48.64 271.15 47.81 271.73 46.95 272.34C46.1 272.95 45.38 273.47 44.57 274.01C43.76 274.55 42.5 275.45 41.46 276.26C40.77 276.77 40.09 277.29 39.37 277.79C37.82 278.81 36.21 279.76 34.56 280.62L34.11 280.87C32.48 281.71 30.97 282.76 29.61 283.99C29.28 284.33 28.96 284.68 28.67 285.05C28.42 285.35 28.16 285.64 27.88 285.9C27.59 286.15 27.25 286.34 26.89 286.47C26.37 286.65 25.89 286.91 25.45 287.23C25.07 287.55 24.73 287.86 24.39 288.2C24.04 288.56 23.65 288.89 23.25 289.19C22.52 289.69 21.77 290.16 21 290.58L20.73 290.76C19.38 291.53 18.09 292.38 16.81 293.24L15.35 294.2L12.67 295.87C10.79 296.95 8.98 298.16 7.25 299.49L6.85 299.8L6.65 303.4L8.65 301.74C9.69 300.88 10.79 300.08 11.93 299.35L15.64 296.97C17.89 295.49 20.39 293.93 22.8 292.47C23.68 291.97 24.53 291.42 25.34 290.81C25.68 290.54 26 290.25 26.3 289.93C26.6 289.57 26.96 289.27 27.36 289.03L27.74 288.9C28.4 288.66 29.01 288.3 29.54 287.84C29.95 287.46 30.32 287.06 30.67 286.62C30.94 286.31 31.21 285.99 31.5 285.7C32.86 284.5 34.37 283.49 36 282.69C37.88 281.7 39.69 280.59 41.42 279.36L46.7 275.63L47.87 274.75L49.04 273.87L50.1 273.2C50.62 272.88 51.11 272.57 51.58 272.23C51.94 271.98 52.28 271.71 52.6 271.42C52.96 271.1 53.35 270.8 53.77 270.54L54.04 270.39C54.37 270.21 54.68 270 54.98 269.78C55.19 269.6 55.38 269.4 55.54 269.17C55.61 269.07 55.7 268.98 55.79 268.9C55.96 268.76 56.15 268.64 56.35 268.54C56.92 268.32 57.41 267.95 57.79 267.48C57.9 267.3 58.04 267.12 58.13 266.94L58.35 266.63C58.57 266.37 58.82 266.14 59.1 265.95L59.55 265.62C59.91 265.29 60.26 264.95 60.58 264.58C60.84 264.29 61.11 264.02 61.41 263.77C62.11 263.26 62.86 262.84 63.66 262.51L64.67 262.04C66.45 261.3 68.12 260.33 69.65 259.16C70.48 258.49 71.35 257.88 72.23 257.27C73.11 256.67 73.67 256.28 74.37 255.74C75.76 254.42 77.56 253.62 79.47 253.49L79.72 253.49L81.48 253.49L83.39 253.49C83.98 253.5 84.58 253.46 85.16 253.38C85.88 253.25 86.58 253.06 87.26 252.8C87.51 252.69 87.78 252.6 88.04 252.53C88.97 252.25 89.9 252.03 90.86 251.87L91.15 251.87C92.02 251.75 92.88 251.53 93.71 251.22L94.32 250.98C94.74 250.77 95.18 250.59 95.62 250.44C95.25 250.88 94.98 251.39 94.81 251.94C94.81 252.1 94.81 252.28 94.61 252.48C94.41 252.68 94.61 252.66 93.8 252.77C93.42 252.83 93.04 252.93 92.68 253.04C91.55 253.49 90.43 254.06 89.44 254.55C88.9 254.8 88.42 255.17 88.04 255.63C87.88 255.8 87.68 255.93 87.45 256.02C87.23 256.11 87 256.15 86.76 256.15L85.19 256.15C84.64 256.13 84.1 256.22 83.59 256.4C82.94 256.67 82.34 257.05 81.81 257.52C81.57 257.74 81.3 257.93 81.03 258.1C79.94 258.76 78.8 259.3 77.61 259.72L76.55 260.08C75.78 260.33 75.02 260.64 74.3 261.01C73.67 261.32 73.09 261.7 72.48 262.09C71.99 262.43 71.48 262.74 70.95 263.03C70.01 263.53 69.13 264.11 68.27 264.65L67.51 265.14C66.91 265.53 66.29 265.87 65.64 266.18C65.17 266.43 64.72 266.65 64.27 266.92C63.25 267.52 62.37 268.33 61.71 269.31C61.03 270.17 60.28 270.98 59.46 271.71L59.21 271.96C58.69 272.48 58.22 273.04 57.73 273.58C57.23 274.12 57.01 274.41 56.62 274.79L55.57 275.87C55.03 276.44 54.49 276.98 53.97 277.54C53.2 278.45 52.33 279.27 51.38 279.99C50.26 280.8 49.4 281.45 48.62 282.13C47.63 282.99 46.55 283.74 45.4 284.38C44.67 284.74 43.92 285.05 43.15 285.32C42.66 285.5 42.16 285.7 41.69 285.93C40.95 286.23 40.2 286.49 39.44 286.71L38.2 287.12C37.37 287.47 36.6 287.97 35.95 288.6L35.48 289.01C34.9 289.48 34.31 289.91 33.7 290.36C32.24 291.36 30.89 292.52 29.68 293.82C29.16 294.41 28.69 295.04 28.22 295.67C27.74 296.29 27.68 296.36 27.38 296.7C27.09 297.04 26.75 297.47 26.42 297.82C26.08 298.18 25.54 298.81 25.13 299.33C24.37 300.38 23.67 301.48 23.04 302.62C22.37 303.78 21.62 304.9 20.79 305.97C19.44 307.65 17.94 309.27 16.5 310.85L15.44 311.99C14.6 312.9 13.8 313.86 13.06 314.85C12.77 315.26 12.44 315.64 12.07 315.98C11.9 316.1 11.71 316.19 11.5 316.25C11.15 316.38 10.81 316.55 10.49 316.76C10.2 316.97 9.94 317.21 9.71 317.48L9.35 317.82C8.81 318.25 8.24 318.63 7.64 318.94L6.65 319.48C5.86 319.9 5.11 320.37 4.4 320.9C4.24 321.01 4.09 321.13 3.95 321.26L3.63 321.51L3.5 322.12L4.6 322.45L3.5 322.23L2.89 325.29L5.54 323.04C5.74 322.85 5.95 322.69 6.17 322.54C6.74 322.16 7.37 321.82 7.97 321.49L9.28 320.77C9.81 320.45 10.33 320.1 10.83 319.73C11.06 319.54 11.28 319.34 11.48 319.12C11.68 318.9 11.92 318.7 12.18 318.54L12.54 318.4C12.87 318.29 13.19 318.13 13.48 317.93C14.02 317.52 14.49 317.04 14.88 316.49C16.03 315.01 17.31 313.59 18.54 312.24L20.28 310.31C22 308.49 23.5 306.48 24.77 304.32C25.34 303.31 25.94 302.28 26.6 301.33C27.07 300.68 27.58 300.06 28.13 299.47L29.03 298.41L30.11 297.04C30.47 296.59 30.83 296.12 31.21 295.67C31.91 294.83 32.71 294.07 33.59 293.42L36.79 290.92L37.46 290.38C38.01 289.84 38.67 289.43 39.39 289.17C40.46 288.87 41.5 288.5 42.52 288.06C43.02 287.84 43.53 287.64 44.03 287.46C44.85 287.15 45.65 286.79 46.43 286.4C47.55 285.81 48.61 285.13 49.61 284.35L50.19 283.86C50.96 283.23 51.72 282.62 52.44 282.06C53.79 281.15 55.04 280.08 56.15 278.89ZM115.98 188.74L117.19 188.74L117.49 188.54C117.84 188.31 118.22 188.12 118.61 187.98L119.19 187.73C119.78 187.45 120.32 187.09 120.81 186.67L121.31 186.31C121.76 186.03 122.25 185.81 122.77 185.68L123.38 185.46C123.83 185.32 124.26 185.14 124.71 184.96L125.9 184.51L126.64 184.27C127.11 184.12 127.58 183.96 128.03 183.77L129 183.34C129.52 183.07 130.06 182.85 130.62 182.69L131.23 182.53C131.91 182.48 132.57 182.24 133.13 181.85C133.7 181.45 134.14 180.91 134.42 180.28C134.53 180.04 134.6 179.79 134.69 179.54C134.8 179.17 134.95 178.82 135.14 178.49C135.46 178.01 135.85 177.59 136.29 177.23L136.69 176.84C137.92 175.66 139.08 174.39 140.16 173.06C140.47 172.66 140.85 172.31 141.28 172.03C141.79 171.77 142.34 171.6 142.9 171.51L143.44 171.38C144.11 171.21 144.76 170.96 145.37 170.66L146.52 170.19C147.17 169.89 147.83 169.62 148.48 169.29C149.44 168.76 150.36 168.17 151.25 167.53L152.71 166.54C153.67 165.97 154.66 165.44 155.68 164.97L157.32 164.18C157.95 163.87 158.61 163.63 159.3 163.46C159.83 163.3 160.35 163.07 160.83 162.78L161.39 162.49C162.76 161.84 164.25 161.32 165.66 160.81L166.43 160.54C167.21 160.27 167.98 159.93 168.68 159.61C169.37 159.3 170.43 158.87 171.33 158.58L173.06 158.09L173.56 157.95C174.05 157.95 174.52 157.68 175 157.52L176.1 157.16L177.36 156.87L178.53 156.6C179.3 156.38 180.06 156.08 180.78 155.72L181.05 155.61C181.8 155.25 182.6 155.01 183.43 154.91C184.2 154.84 184.94 154.54 185.54 154.06C186.51 153.5 187.6 153.16 188.72 153.09C189.32 153.09 189.93 152.89 190.52 152.75L191.1 152.6C192.97 152.12 194.83 151.65 196.68 151.14L197.38 150.93C198.1 150.73 198.79 150.55 199.47 150.3C200.08 150.09 200.67 149.8 201.22 149.45L201.85 149.09C202.14 148.98 202.43 148.89 202.73 148.82C203.14 148.74 203.54 148.62 203.92 148.46C204.6 148.08 205.18 147.53 205.58 146.86L205.99 146.25L205.7 145.62L205.31 144.97L204.06 144.97L203.72 145.42C203.22 146.07 203.04 146.25 202.62 146.34C201.83 146.49 201.07 146.76 200.37 147.15C199.1 147.85 197.73 148.36 196.32 148.66L195.89 148.77C194.95 149.04 193.98 149.27 193.03 149.52L190.54 150.14C189.86 150.33 189.19 150.42 188.51 150.53C187.5 150.66 186.5 150.88 185.52 151.18C185.05 151.37 184.61 151.61 184.2 151.9L183.68 152.24C183.37 152.36 183.04 152.42 182.71 152.44C182.26 152.47 181.82 152.56 181.38 152.69C180.75 152.91 180.17 153.18 179.56 153.45L179.27 153.59C178.44 153.93 177.57 154.19 176.68 154.35C175.65 154.58 174.66 154.89 173.65 155.18C173.04 155.39 172.41 155.57 171.8 155.72C170.64 156.07 169.5 156.49 168.38 156.98L166.7 157.64L164.9 158.31C163.86 158.67 162.83 159.03 161.82 159.43C160.8 159.84 160.31 160.06 159.57 160.45L159.3 160.6C159.09 160.72 158.88 160.83 158.67 160.92L158.2 160.92C157.94 160.96 157.69 161.02 157.45 161.1C156.94 161.28 156.44 161.52 155.97 161.8L155.56 162L153.09 163.19C151.94 163.8 150.84 164.48 149.78 165.24L148.75 165.93C147.43 166.74 146.05 167.43 144.61 168L144.12 168.23C143.39 168.54 142.64 168.77 141.87 168.93C141.02 169.09 140.21 169.41 139.48 169.87C138.69 170.47 138 171.18 137.44 171.98C137.17 172.32 136.89 172.68 136.6 173C136.31 173.31 135.75 173.83 135.32 174.23C134.51 174.92 133.75 175.67 133.07 176.48C132.61 177.17 132.25 177.93 132.01 178.73C131.94 179 131.82 179.26 131.68 179.5C131.41 179.65 131.11 179.74 130.8 179.77C129.56 180.08 128.35 180.5 127.18 181.03C126.53 181.27 125.9 181.54 125.25 181.77L123.58 182.4L122.59 182.76L121.89 183.01C121.18 183.2 120.5 183.49 119.87 183.86L119.08 184.45C118.78 184.71 118.44 184.94 118.09 185.14L117.51 185.41C116.91 185.65 116.34 185.95 115.82 186.33L115.15 186.94L115.42 187.71L115.98 188.74ZM224.68 280.75L224.05 280.75C223 280.72 221.97 280.93 221.01 281.36C219.78 281.95 218.54 282.51 217.28 283C216.76 283.21 216.25 283.34 215.71 283.5C215.07 283.67 214.45 283.87 213.84 284.1C212.72 284.57 211.62 285.09 210.56 285.68L209.5 286.22C208.67 286.6 207.87 287.05 207.11 287.57C206.9 287.75 206.66 287.9 206.39 288L206.08 288C205.78 288.06 205.49 288.14 205.2 288.24C204.73 288.48 204.3 288.78 203.92 289.14C203.48 289.48 203 289.74 202.48 289.93C201.9 290.17 201.31 290.37 200.7 290.54C199.3 290.91 197.97 291.52 196.77 292.34C196.11 292.85 195.5 293.43 194.95 294.05L194.43 294.61C193.72 295.4 192.97 296.15 192.18 296.86C191.32 297.58 190.37 298.18 189.35 298.66C188.54 299.04 187.77 299.51 186.98 299.96L186.13 300.43C185.53 300.78 184.92 301.09 184.29 301.36L182.91 301.99L182.64 302.14C182.24 302.37 181.81 302.55 181.36 302.68C181.04 302.76 180.72 302.81 180.39 302.84L179.79 302.84C177.32 303.31 175 304.38 173.04 305.94C171.96 306.73 171.11 307.32 170.21 307.86C169.2 308.42 168.25 309.06 167.35 309.77C166.56 310.44 165.81 311.15 165.1 311.9C164.25 312.84 163.32 313.69 162.31 314.45C161.89 314.74 161.45 314.99 160.98 315.21C160.51 315.46 160.04 315.73 159.59 316.02C158.76 316.57 158 317.23 157.34 317.98C157.11 318.23 156.9 318.49 156.71 318.76C156.42 319.23 156.04 319.64 155.59 319.96C155.29 320.09 154.98 320.17 154.66 320.2C154.08 320.28 153.52 320.46 153 320.72C152.74 320.88 152.49 321.05 152.26 321.24L151.92 321.49C151.58 321.71 151.21 321.9 150.84 322.07L150.55 322.21C149.88 322.56 149.24 322.98 148.66 323.47C148.3 323.74 147.94 324.01 147.58 324.23L146.88 324.63C146.13 325.02 145.44 325.51 144.84 326.1C144.53 326.43 144.25 326.79 143.98 327.15C143.68 327.59 143.34 327.99 142.95 328.35C142.5 328.71 142 329 141.53 329.31C140.99 329.61 140.47 329.95 139.98 330.33C139.03 331.08 138.17 331.95 137.44 332.91C136.68 333.93 136.02 335.03 135.48 336.17C135.08 337.01 134.62 337.82 134.11 338.6C133.88 338.92 133.66 339.25 133.41 339.57C133.16 339.88 132.55 340.78 132.17 341.41C131.6 342.41 131.1 343.45 130.69 344.52L130.69 344.79C130.16 345.98 129.72 347.22 129.36 348.48C129.1 349.35 128.73 350.19 128.26 350.97L127.88 351.69C127.32 352.8 126.94 353.98 126.75 355.2L126.75 355.72C126.75 356.08 126.62 356.44 126.53 356.78C126.46 357.04 126.37 357.29 126.26 357.54C126.14 357.83 126.03 358.12 125.94 358.44C125.73 359.36 125.66 360.31 125.74 361.25L125.74 361.95L125.74 363.14L126.86 363.14L128.08 363.14L128.08 361.32C128 360.46 128.08 359.6 128.3 358.78C128.63 357.75 128.9 356.71 129.11 355.65L129.11 355.29C129.33 354.23 129.71 353.21 130.26 352.28C130.9 351.23 131.38 350.09 131.7 348.9C132 347.88 132.37 346.88 132.8 345.91L132.96 345.55C133.39 344.41 133.93 343.32 134.58 342.29C134.87 341.86 135.16 341.44 135.48 341.03C135.79 340.63 136.2 340.04 136.51 339.52C136.89 338.91 137.23 338.27 137.53 337.61C137.71 337.25 137.86 336.89 138.07 336.56C139.07 334.59 140.56 332.93 142.41 331.72L142.86 331.45C143.74 330.96 144.55 330.35 145.26 329.63C145.55 329.32 145.82 328.99 146.05 328.64C146.36 328.18 146.74 327.77 147.17 327.42L148.25 326.77C148.84 326.45 149.4 326.09 149.94 325.69L150.44 325.29L151.18 324.72L151.97 324.34L152.66 324.01L153.61 323.4C153.98 323.09 154.4 322.86 154.87 322.72C155.84 322.64 156.76 322.28 157.52 321.67C157.98 321.23 158.39 320.76 158.76 320.25C158.98 319.96 159.21 319.66 159.45 319.39C160.04 318.76 160.71 318.23 161.46 317.8L162.15 317.42C162.9 317.03 163.62 316.58 164.29 316.07C165.19 315.37 166.04 314.62 166.83 313.82L167.39 313.25C167.91 312.67 168.47 312.13 169.06 311.63C169.78 311.09 170.53 310.59 171.31 310.13L171.92 309.77C172.66 309.32 173.38 308.82 174.16 308.31C175.34 307.44 176.6 306.68 177.92 306.06C178.93 305.66 179.99 305.41 181.07 305.29C182.11 305.1 183.11 304.74 184.04 304.24L185.43 303.58C186.2 303.22 186.94 302.86 187.68 302.44C188.42 302.01 189.71 301.29 190.76 300.77C192.77 299.69 194.58 298.27 196.09 296.57C196.32 296.34 196.53 296.11 196.72 295.87C197.21 295.31 197.75 294.79 198.34 294.34C199.13 293.81 199.99 293.41 200.91 293.17L201.51 292.97C202.23 292.72 202.98 292.49 203.76 292.2C204.3 291.98 204.81 291.7 205.29 291.37C205.47 291.26 205.63 291.13 205.79 290.99C205.99 290.79 206.22 290.64 206.48 290.54L206.82 290.54C207 290.52 207.17 290.47 207.34 290.4C207.87 290.22 208.37 289.95 208.8 289.59C209.38 289.21 209.99 288.87 210.62 288.58L211.66 288.06C212.71 287.47 213.8 286.94 214.92 286.47C215.26 286.35 215.6 286.25 215.95 286.17L216.56 286.02C217.17 285.84 217.8 285.59 218.54 285.3C219.71 284.82 220.79 284.33 221.98 283.79C222.75 283.43 223.59 283.26 224.43 283.29L224.75 283.29L225.92 283.12L225.92 280.87L224.68 280.75ZM225.15 271.51L224.66 271.74C224.12 271.93 223.62 272.22 223.17 272.59C222.43 273.16 221.6 273.62 220.72 273.94L219.53 274.39C219.26 274.47 218.98 274.52 218.7 274.55L218.11 274.55C217.5 274.67 216.92 274.95 216.45 275.36C216.29 275.5 216.1 275.62 215.91 275.72C215.74 275.76 215.56 275.76 215.39 275.72C215.16 275.73 214.92 275.77 214.69 275.83C214.2 275.94 213.73 276.15 213.32 276.44C212.64 276.85 211.93 277.23 211.21 277.56L210.62 277.83L207.41 279.47L205.16 280.66C203.47 281.52 201.81 282.22 200.03 282.91L199.51 283.14C198.84 283.41 198.2 283.76 197.6 284.17C196.93 284.73 196.38 285.41 195.98 286.17L195.85 286.42C195.71 286.7 195.52 286.95 195.29 287.15C195.06 287.35 194.79 287.5 194.5 287.59C194.06 287.68 193.62 287.75 193.17 287.79L192.02 287.95L191.37 288.06C190.72 288.18 190.09 288.29 189.44 288.45C188.41 288.75 187.43 289.18 186.51 289.73L185.32 290.38C183.75 291.24 182.1 292.13 180.53 293.17C179.56 293.8 178.73 294.41 177.99 294.99L177.49 295.44C177.11 295.78 176.59 296.25 176.28 296.25L176.05 296.25L174.95 296.25L174.95 297.29L174.95 298.36L175.99 298.54L176.41 298.54C177.1 298.51 177.76 298.26 178.3 297.85C178.71 297.56 179.11 297.22 179.49 296.9L180.39 296.16C182.01 294.95 183.73 293.88 185.52 292.97L186.89 292.22C188.1 291.49 189.42 290.94 190.79 290.58C191.66 290.4 192.56 290.22 193.44 290.13L193.73 290.13C194.5 290.09 195.26 289.93 195.98 289.66C196.82 289.28 197.51 288.64 197.96 287.84L198.21 287.41C198.51 286.81 198.94 286.29 199.47 285.88C200.06 285.54 200.67 285.26 201.31 285.03L201.58 284.91C202.57 284.53 203.54 284.1 204.51 283.66C205.92 282.98 207.34 282.26 208.73 281.54L210.31 280.73C211.23 280.28 212.13 279.81 213.05 279.38L213.32 279.38C213.64 279.25 213.95 279.09 214.24 278.91L214.67 278.64C214.91 278.46 215.17 278.32 215.46 278.24C215.6 278.22 215.74 278.22 215.89 278.24C216.32 278.22 216.75 278.13 217.15 277.96C217.49 277.8 217.8 277.58 218.07 277.31L218.41 277.07C218.62 276.96 218.86 276.92 219.1 276.93L219.71 276.93C220.21 276.83 220.7 276.67 221.17 276.46L221.85 276.21C222.71 275.91 223.53 275.51 224.3 275.02L224.88 274.55C225.04 274.38 225.22 274.24 225.42 274.14L226.34 273.71L226.93 273.29L227.18 270.63L225.15 271.51ZM128.21 283.88C128.55 283.42 128.85 282.93 129.11 282.42L129.34 282.04C129.61 281.56 129.9 281.09 130.22 280.64L130.46 280.28C131.31 279.06 131.96 277.71 132.37 276.28C132.55 275.67 132.71 275.06 132.87 274.46C133.3 272.41 134.06 270.45 135.12 268.65C135.7 267.87 136.38 267.17 137.14 266.56L138.07 265.75L138.7 265.14C139.55 264.36 140.38 263.57 141.28 262.9C142.18 262.22 143.53 261.23 144.54 260.42L144.92 260.15C145.65 259.59 146.33 258.98 146.97 258.33C147.26 258.04 147.56 257.75 147.87 257.48C148.43 256.98 149.05 256.57 149.72 256.24C150.29 255.93 150.84 255.59 151.38 255.23C152.22 254.56 153.02 253.84 153.79 253.09L154.82 252.1C155.97 251.09 157.07 250.03 158.2 248.95C158.37 248.78 158.5 248.56 158.55 248.32C158.6 248.08 158.58 247.83 158.49 247.6L158.08 246.81L157.32 246.81L156.78 246.81L156.44 247.15C155.32 248.28 154.19 249.4 152.95 250.44L151.94 251.38C151.26 252.12 150.51 252.79 149.69 253.38C149.33 253.63 148.95 253.83 148.59 254.03C147.72 254.48 146.9 255.03 146.16 255.68L145.44 256.37C144.75 257.1 143.99 257.77 143.19 258.37C142.02 259.23 140.94 260.08 139.73 261.01C138.52 261.93 138.04 262.49 137.23 263.26L136.4 264.04L135.59 264.74C134.76 265.41 134.01 266.16 133.34 266.99C132.7 267.92 132.19 268.94 131.81 270L131.59 270.57C131.14 271.7 130.78 272.88 130.53 274.07L130.35 274.79C130.03 276.15 129.48 277.44 128.73 278.62L128.33 279.2L127.56 280.35L127.11 281.18C126.93 281.5 126.77 281.81 126.57 282.1C125.82 283.1 124.9 283.96 123.85 284.64C123.06 285.26 122.31 285.92 121.6 286.62L120.68 287.46C120.23 287.86 119.76 288.22 119.28 288.6C118.6 289.11 117.96 289.66 117.35 290.25L116.16 291.41C115.57 292.04 114.97 292.65 114.31 293.24C113.66 293.82 113.39 294.11 112.92 294.59C112.42 295.12 111.88 295.64 111.32 296.12C110.36 296.97 109.53 297.97 108.87 299.08C108.56 299.56 108.22 300.01 107.88 300.46C107.32 301.24 106.73 302.03 106.24 302.89C105.95 303.36 105.68 303.85 105.41 304.35C104.99 305.18 104.51 305.98 103.97 306.73C103.65 307.18 103.29 307.63 102.93 308.06C102.37 308.72 101.84 309.41 101.36 310.13L100.53 311.45C99.99 312.31 99.47 313.16 98.88 313.97C98.3 314.78 98.12 314.96 97.71 315.44C97.16 316.07 96.65 316.74 96.19 317.44C95.87 317.91 95.58 318.43 95.29 318.92C94.86 319.7 94.38 320.46 93.85 321.17C93.04 322.12 92.18 323.03 91.28 323.89L91.1 324.05C90.16 324.99 89.28 325.98 88.45 326.93C87.49 328.07 86.47 329.16 85.39 330.19C84.78 330.73 84.13 331.25 83.48 331.76C81.96 332.85 80.62 334.15 79.5 335.63C79.09 336.22 78.64 336.78 78.17 337.32C77.72 337.84 77.29 338.35 76.89 338.89C76.13 340.01 75.48 341.19 74.93 342.43L74.8 342.74C74.35 343.5 73.96 344.28 73.6 345.08C73.38 345.73 73.15 346.38 72.86 347.04C72.53 347.71 72.14 348.36 71.69 348.97L70.79 350.37L70.61 350.7C69.93 351.8 69.35 352.96 68.9 354.17C68.51 355.58 68.38 357.05 68.5 358.51C68.63 359.73 68.46 360.96 68.03 362.11C67.79 362.58 67.52 363.03 67.22 363.46C66.99 363.83 66.8 364.22 66.65 364.62C66.65 364.85 66.45 365.1 66.34 365.3C65.87 366.05 65.33 366.77 64.74 367.44L63.75 368.65C62.83 369.89 61.89 371.1 61.03 372.36L60.63 372.92C59.97 373.77 59.43 374.69 59.01 375.67C58.68 376.39 58.25 377.06 57.75 377.67C57.38 378.13 57.05 378.61 56.74 379.11C56.14 380.18 55.38 381.15 54.49 381.99L53.88 382.64L54.15 383.36L54.55 384.17L55.84 384.17L56.15 383.9C57.18 382.92 58.06 381.8 58.76 380.57C59.03 380.13 59.33 379.7 59.66 379.29C60.14 378.68 60.57 378.03 60.96 377.36C61.11 377.06 61.24 376.76 61.35 376.46C61.42 376.23 61.51 376.01 61.62 375.8C61.84 375.45 62.08 375.11 62.34 374.79L62.83 374.14C63.66 372.95 64.52 371.75 65.39 370.61L66.45 369.3C67.06 368.54 67.69 367.8 68.23 367.05C68.46 366.68 68.66 366.28 68.81 365.86L69.04 365.32C69.19 365.05 69.35 364.79 69.53 364.54C69.74 364.24 69.92 363.95 70.1 363.64C70.84 362.02 71.14 360.23 70.97 358.46C70.91 357.55 70.96 356.62 71.11 355.72C71.39 354.62 71.85 353.57 72.46 352.61L72.77 352.03C73.06 351.53 73.38 351.04 73.72 350.57C74.17 349.93 74.59 349.26 74.95 348.57C75.3 347.83 75.61 347.08 75.88 346.32C76.07 345.66 76.31 345.01 76.6 344.38L76.8 343.98C77.29 342.85 77.87 341.76 78.53 340.72C78.9 340.19 79.31 339.69 79.74 339.21C80.22 338.67 80.67 338.13 81.07 337.57C81.77 336.56 82.62 335.67 83.59 334.91C85.94 333.12 88.08 331.08 89.98 328.82C90.82 327.79 91.73 326.82 92.7 325.92C93.74 324.94 94.72 323.9 95.65 322.81C96.24 322.01 96.78 321.17 97.27 320.29L97.87 319.26C98.34 318.55 98.85 317.88 99.4 317.24C99.78 316.81 100.14 316.36 100.48 315.91C101.16 315.01 101.74 314.04 102.33 313.1L103.02 311.99C103.55 311.21 104.12 310.46 104.73 309.75L105.54 308.71C106.2 307.8 106.79 306.84 107.32 305.85C107.52 305.47 107.72 305.09 107.95 304.71C108.51 303.76 109.14 302.89 109.79 301.96L110.4 301.11C110.6 300.84 110.78 300.55 110.96 300.25C111.14 299.96 111.35 299.65 111.57 299.35C111.92 298.92 112.32 298.52 112.76 298.18C113.38 297.67 113.97 297.11 114.52 296.52C114.92 296.09 115.33 295.69 115.75 295.31C116.18 294.92 117.04 294.05 117.67 293.39L119.01 292.07C119.53 291.6 120.07 291.15 120.63 290.74C121.13 290.34 121.62 289.95 122.1 289.53L122.86 288.85C123.73 288.05 124.64 287.3 125.58 286.6C126.6 285.84 127.49 284.92 128.21 283.88Z" fill="#EEDAAE" fill-opacity="1.000000" fill-rule="nonzero"/>
	<path id="Vector" d="" fill="#FFFFFF" fill-opacity="1.000000" fill-rule="nonzero"/>
	<path id="Vector" d="M275.6 293.62C275.51 292.97 275.2 292.38 274.72 291.93C273.55 291.06 272.18 292.58 271.62 293.46C270.69 295.07 269.94 296.78 269.37 298.54C268.92 299.5 268.52 300.49 268.18 301.49C267.89 302.58 267.72 303.7 267.68 304.82C267.68 306.28 267.68 307.77 267.68 309.32C267.68 310.1 267.68 310.92 267.68 311.7C267.68 312.49 267.37 313.32 267.23 314.13C267.05 315.71 267.01 317.29 267.1 318.88C267.1 319.6 267.1 320.32 267.1 321.13C267.1 322 267.1 322.86 267.1 323.74C267.1 323.78 267.11 323.82 267.14 323.85C267.16 323.88 267.19 323.91 267.23 323.92L267.23 324.03L267.39 324.03L267.39 323.89C267.41 323.87 267.41 323.84 267.41 323.81C267.41 323.79 267.41 323.76 267.39 323.74C267.64 322.56 268.03 321.42 268.54 320.34C268.66 319.14 268.87 317.95 269.19 316.79C269.66 315.64 270.68 315.01 271.44 314.04C271.72 313.69 271.92 313.27 272 312.83C271.99 312.22 272.04 311.62 272.16 311.03C272.34 310.53 272.68 310.08 272.88 309.61C273.13 309.03 273.34 308.43 273.51 307.81C273.87 306.57 274.09 305.32 274.36 304.06C275.25 301.63 275.82 299.11 276.05 296.54C276 295.56 275.85 294.58 275.6 293.62Z" fill="#FFFFFF" fill-opacity="1.000000" fill-rule="nonzero"/>
	<path id="Vector" d="M250.03 286.04C250.11 285.47 250.06 284.88 249.89 284.33C249.47 283.18 248.72 282.08 248.3 281.02C247.99 279.74 247.79 278.44 247.69 277.13C247.36 275.98 246.88 274.88 246.27 273.85C245.66 272.66 245.19 271.33 244.68 270.07C244.16 268.81 244.25 268 243.89 266.99C243.5 266.22 243.07 265.47 242.61 264.74C242.07 263.64 241.1 261.59 239.5 262.06C238.33 262.4 237.95 264.07 237.75 265.08C237.34 266.62 237.34 268.24 237.75 269.78C238.69 271.85 240 273.74 241.62 275.36C242.45 276.53 243.1 277.83 243.55 279.2C243.69 279.56 243.84 279.9 244 280.26C243.98 280.26 243.95 280.26 243.93 280.27C243.9 280.28 243.88 280.3 243.87 280.32C243.86 280.34 243.85 280.36 243.85 280.39C243.85 280.41 243.85 280.44 243.87 280.46C244.12 281.1 244.49 281.68 244.97 282.17L245.17 282.58C245.66 283.43 246.2 284.26 246.77 285.1C246.94 285.43 247.15 285.74 247.37 286.04C247.56 286.27 247.76 286.49 247.98 286.69C248.42 287.21 248.88 287.71 249.38 288.18C249.91 289.39 250.29 290.65 250.52 291.96C250.55 292 250.58 292.04 250.63 292.06C250.68 292.08 250.73 292.09 250.78 292.07C250.83 292.06 250.88 292.03 250.91 291.99C250.94 291.95 250.95 291.89 250.95 291.84C250.55 290.56 250.75 289.19 250.39 287.91C250.17 287.31 250.05 286.68 250.03 286.04Z" fill="#FFFFFF" fill-opacity="1.000000" fill-rule="nonzero"/>
	<path id="Vector" d="M294.7 322.3C294.54 321.85 294.16 321.8 293.75 321.87C292.98 321.99 292.26 322.3 291.64 322.77C290.97 323.19 290.33 323.66 289.73 324.16C289.73 324.16 289.73 324.05 289.59 324.05C288.89 324.05 288.56 324.7 288.29 325.26C288.1 325.6 287.88 325.93 287.63 326.23L287.18 326.7C286.85 327.04 286.46 327.32 286.04 327.54C285.2 328.06 284.44 328.69 283.79 329.43C282.96 329.98 282.3 330.76 281.9 331.68C281.9 331.83 282.03 331.97 282.15 331.88C282.55 331.59 282.98 331.32 283.43 331.09C284.01 330.8 284.71 330.78 285.32 330.53C286.32 330 287.27 329.39 288.17 328.71C288.61 328.43 289.1 328.24 289.61 328.17C289.91 328.11 290.19 327.98 290.42 327.78C291.3 327.06 292.2 326.39 292.99 325.54C293.49 325.03 293.93 324.47 294.31 323.87C294.52 323.42 294.88 322.79 294.7 322.3Z" fill="#FFFFFF" fill-opacity="1.000000" fill-rule="nonzero"/>
	<path id="Vector" d="M210.8 314.83C210.38 314.58 209.88 314.49 209.45 314.27C209.02 314.05 208.58 313.87 208.13 313.73C207.14 313.24 206.07 312.91 204.98 312.76C204.46 312.78 203.94 312.84 203.43 312.94C202.8 312.94 202.14 312.94 201.51 312.94C200.76 313.08 200.06 313.43 199.49 313.95C199.15 314.2 198.54 314.65 198.66 315.17C198.77 315.68 199.58 315.66 200.01 315.55C200.5 315.4 201 315.3 201.51 315.26C202.09 315.32 202.67 315.32 203.25 315.26C203.94 315.06 204.66 315 205.38 315.05C206.14 315.14 206.89 315.29 207.63 315.48C208.28 315.62 208.96 315.48 209.61 315.73C210.31 315.91 211.01 316.13 211.68 316.4C211.68 316.56 211.97 316.51 211.95 316.4C211.93 315.84 211.21 315.14 210.8 314.83Z" fill="#FFFFFF" fill-opacity="1.000000" fill-rule="nonzero"/>
	<path id="Vector" d="M265.05 63.33L265.05 63.22C265.05 63.22 264.92 63.22 265.05 63.33Z" fill="#202147" fill-opacity="1.000000" fill-rule="evenodd"/>
	<path id="Vector" d="M272.74 83.3C272.71 83.17 272.65 83.05 272.59 82.94C272.48 82.77 272.33 82.63 272.16 82.54L271.64 82.29C271.31 82.15 270.98 81.99 270.68 81.79L270.52 81.64C270.38 81.51 270.2 81.44 270.01 81.44C269.82 81.44 269.64 81.51 269.51 81.64C269.37 81.77 269.3 81.95 269.3 82.14C269.3 82.33 269.37 82.51 269.51 82.65C269.98 83.09 270.55 83.41 271.17 83.59L270.99 83.59L271.44 83.82C271.56 83.89 271.68 83.96 271.8 84.02C271.87 84.01 271.95 84.01 272.02 84.02C272.12 84.05 272.23 84.05 272.33 84.02C272.43 84 272.52 83.94 272.59 83.87C272.67 83.8 272.72 83.71 272.75 83.61C272.77 83.51 272.77 83.4 272.74 83.3Z" fill="#FFFFFF" fill-opacity="1.000000" fill-rule="nonzero"/>
	<path id="Vector" d="M300.77 65.96C300.75 65.9 300.71 65.85 300.65 65.82C300.6 65.78 300.54 65.76 300.48 65.76C300.41 65.76 300.35 65.78 300.3 65.82C300.25 65.85 300.21 65.9 300.18 65.96L300.18 66.07C300.12 66.18 300.06 66.29 300 66.41L300 66.54L299.82 66.81L299.6 67.06L299.13 67.49C299.08 67.53 299.04 67.59 299.01 67.65C298.99 67.71 298.97 67.77 298.97 67.84C298.97 67.9 298.99 67.97 299.01 68.03C299.04 68.09 299.08 68.14 299.13 68.19C299.22 68.27 299.34 68.32 299.46 68.32C299.59 68.32 299.71 68.27 299.8 68.19C300.19 67.87 300.52 67.5 300.79 67.08C300.93 66.87 301.04 66.64 301.13 66.41C301.03 66.24 300.91 66.09 300.77 65.96Z" fill="#FFFFFF" fill-opacity="1.000000" fill-rule="nonzero"/>
	<path id="Vector" d="M305.56 54.49C305.39 54.64 305.24 54.81 305.13 55.01L304.79 55.55C304.68 55.75 304.6 55.97 304.55 56.2C304.48 56.43 304.44 56.66 304.41 56.9C304.42 57 304.45 57.09 304.52 57.17C304.58 57.25 304.67 57.3 304.77 57.32C304.88 57.33 304.98 57.31 305.06 57.25C305.15 57.19 305.21 57.11 305.24 57.01C305.28 56.81 305.34 56.63 305.42 56.45L305.42 56.22C305.41 56.12 305.41 56.03 305.42 55.93C305.47 55.75 305.53 55.57 305.6 55.39C305.7 55.2 305.75 54.99 305.76 54.78C305.77 54.72 305.75 54.65 305.72 54.6C305.68 54.54 305.62 54.5 305.56 54.49Z" fill="#FFFFFF" fill-opacity="1.000000" fill-rule="nonzero"/>
	<path id="Vector" d="" fill="#FFFFFF" fill-opacity="1.000000" fill-rule="nonzero"/>
	<path id="Vector" d="M305.02 37.13C304.97 37.09 304.92 37.07 304.86 37.07C304.81 37.07 304.75 37.09 304.71 37.13C304.57 37.24 304.41 37.33 304.3 37.44L303.96 37.78L303.29 38.43C303.25 38.46 303.22 38.5 303.19 38.54C303.17 38.58 303.16 38.63 303.15 38.68C303.15 38.72 303.16 38.77 303.17 38.82C303.19 38.86 303.22 38.9 303.25 38.94C303.29 38.97 303.33 39 303.37 39.02C303.42 39.03 303.47 39.04 303.51 39.04C303.56 39.03 303.61 39.02 303.65 39C303.69 38.97 303.73 38.94 303.76 38.9L304.41 38.23L304.73 37.89C304.85 37.77 304.96 37.63 305.06 37.49C305.1 37.43 305.12 37.36 305.11 37.3C305.1 37.23 305.07 37.17 305.02 37.13Z" fill="#FFFFFF" fill-opacity="1.000000" fill-rule="nonzero"/>
	<path id="Vector" d="M302.05 52.69C301.99 52.63 301.91 52.6 301.82 52.6C301.74 52.6 301.66 52.63 301.6 52.69C301.44 52.8 301.29 52.92 301.15 53.05C301.02 53.21 300.91 53.38 300.81 53.57C300.6 53.92 300.5 54.33 300.5 54.74C300.5 54.79 300.5 54.85 300.52 54.9C300.54 54.95 300.57 55 300.61 55.04C300.65 55.08 300.69 55.11 300.74 55.13C300.79 55.15 300.85 55.16 300.9 55.16C300.96 55.17 301.02 55.16 301.07 55.14C301.12 55.12 301.17 55.09 301.21 55.05C301.25 55.01 301.29 54.96 301.31 54.9C301.32 54.85 301.33 54.79 301.33 54.74C301.32 54.67 301.32 54.6 301.33 54.53C301.32 54.46 301.32 54.38 301.33 54.31C301.33 54.31 301.33 54.31 301.33 54.2L301.6 53.77L301.74 53.59C301.85 53.63 301.99 53.62 302.1 53.57C302.21 53.51 302.3 53.42 302.34 53.3C302.39 53.18 302.38 53.05 302.32 52.93C302.27 52.82 302.17 52.73 302.05 52.69Z" fill="#FFFFFF" fill-opacity="1.000000" fill-rule="nonzero"/>
	<path id="Vector" d="M306.21 51.43L305.72 51.43L304.39 51.43C304.3 51.43 304.21 51.47 304.15 51.53C304.09 51.59 304.05 51.68 304.05 51.77C304.05 51.86 304.09 51.94 304.15 52.01C304.21 52.07 304.3 52.1 304.39 52.1L305.72 52.1L306.21 52.1C306.21 52.1 306.39 51.97 306.39 51.88C306.43 51.84 306.45 51.8 306.46 51.75C306.47 51.7 306.46 51.65 306.44 51.6C306.42 51.55 306.39 51.51 306.35 51.48C306.31 51.45 306.26 51.43 306.21 51.43Z" fill="#FFFFFF" fill-opacity="1.000000" fill-rule="nonzero"/>
	<path id="Vector" d="M300.77 48.75C300.14 48.91 299.98 49.63 299.91 50.19C299.91 50.31 299.91 50.42 299.91 50.55C299.93 50.6 299.93 50.66 299.91 50.71C299.93 50.77 299.93 50.83 299.91 50.89C299.92 50.93 299.92 50.98 299.91 51.03C299.85 51.12 299.81 51.25 299.82 51.37C299.84 51.49 299.89 51.6 299.97 51.68C300.06 51.77 300.17 51.82 300.29 51.83C300.41 51.85 300.53 51.81 300.63 51.74C300.84 51.5 300.97 51.22 301.04 50.91C301.07 50.64 301.07 50.37 301.04 50.1C301.03 49.99 301.03 49.88 301.04 49.77L301.04 49.52C301.03 49.46 301.03 49.4 301.04 49.34L301.04 49.16C301.05 49.11 301.05 49.07 301.04 49.02C301.03 48.98 301.01 48.94 300.99 48.9C300.96 48.86 300.93 48.83 300.89 48.8C300.86 48.78 300.81 48.76 300.77 48.75Z" fill="#FFFFFF" fill-opacity="1.000000" fill-rule="nonzero"/>
	<path id="Vector" d="M265.68 33.05C265.69 32.96 265.69 32.86 265.68 32.76C265.64 32.69 265.57 32.63 265.49 32.59C265.41 32.55 265.32 32.54 265.23 32.56C265.14 32.58 265.06 32.64 265.01 32.71C264.95 32.78 264.92 32.87 264.92 32.96L264.92 33.12C264.91 33.19 264.91 33.26 264.92 33.32C264.93 33.39 264.93 33.46 264.92 33.53L264.92 33.71L264.71 34.13C264.67 34.26 264.67 34.39 264.71 34.52C264.76 34.64 264.85 34.75 264.96 34.83C265.09 34.88 265.22 34.88 265.34 34.83C265.48 34.79 265.59 34.7 265.66 34.58C265.81 34.26 265.94 33.93 266.04 33.59C266.06 33.41 266.06 33.23 266.04 33.05C265.92 33.02 265.8 33.02 265.68 33.05Z" fill="#FFFFFF" fill-opacity="1.000000" fill-rule="nonzero"/>
	<path id="Vector" d="M270.23 34.99L270.07 34.74L270.07 34.58C270.03 34.47 269.98 34.37 269.91 34.27L269.91 34.13C269.75 33.67 269.5 33.25 269.17 32.9C269.1 32.83 269 32.79 268.9 32.79C268.8 32.79 268.7 32.83 268.63 32.9C268.56 32.97 268.51 33.07 268.51 33.18C268.51 33.28 268.56 33.38 268.63 33.46C268.64 33.5 268.64 33.53 268.63 33.57C268.7 33.66 268.76 33.76 268.81 33.86C268.92 34.05 269.01 34.24 269.08 34.45C269.16 34.66 269.27 34.87 269.39 35.06C269.53 35.23 269.7 35.39 269.89 35.51C269.96 35.55 270.04 35.57 270.12 35.55C270.2 35.53 270.27 35.48 270.32 35.42C270.36 35.35 270.38 35.26 270.36 35.18C270.34 35.1 270.29 35.03 270.23 34.99Z" fill="#FFFFFF" fill-opacity="1.000000" fill-rule="nonzero"/>
	<path id="Vector" d="M267.03 27.95C267.02 27.93 267 27.92 266.99 27.92C266.97 27.91 266.95 27.9 266.93 27.9C266.91 27.9 266.89 27.91 266.87 27.92C266.86 27.92 266.84 27.93 266.83 27.95C266.68 28.12 266.51 28.29 266.33 28.44C266.32 28.45 266.3 28.46 266.28 28.46C266.26 28.46 266.24 28.45 266.22 28.44C266.14 28.46 266.06 28.46 265.97 28.44C265.89 28.47 265.82 28.53 265.77 28.6C265.75 28.65 265.73 28.69 265.73 28.74C265.72 28.79 265.73 28.84 265.74 28.89C265.76 28.94 265.78 28.99 265.81 29.02C265.85 29.06 265.89 29.09 265.93 29.12C265.98 29.14 266.03 29.15 266.09 29.15C266.14 29.15 266.2 29.14 266.24 29.12C266.47 29.01 266.66 28.84 266.78 28.62C266.9 28.44 266.96 28.22 267.08 28.02C267.07 27.99 267.05 27.97 267.03 27.95Z" fill="#FFFFFF" fill-opacity="1.000000" fill-rule="nonzero"/>
	<path id="Vector" d="M270.79 25.25L270.79 24.89C270.8 24.82 270.8 24.74 270.79 24.66C270.77 24.6 270.74 24.55 270.69 24.51C270.64 24.47 270.58 24.45 270.52 24.44C270.45 24.44 270.39 24.46 270.34 24.5C270.29 24.54 270.26 24.6 270.25 24.66C270.25 24.66 270.25 24.82 270.25 24.89L270.25 25.25L270.25 25.99C270.21 26.09 270.21 26.19 270.25 26.28C270.34 26.36 270.45 26.41 270.56 26.42C270.67 26.4 270.77 26.36 270.85 26.28C270.9 26.25 270.93 26.2 270.95 26.15C270.97 26.1 270.97 26.05 270.97 25.99L270.79 25.25Z" fill="#FFFFFF" fill-opacity="1.000000" fill-rule="nonzero"/>
	<path id="Vector" d="M281.65 29.14C281.56 29.06 281.45 29 281.34 28.96L281.2 28.96C281.03 28.87 280.86 28.76 280.71 28.65C280.35 28.36 279.92 28.17 279.47 28.08C279.29 28.02 279.1 28.02 278.93 28.08C278.85 28.13 278.78 28.19 278.72 28.26C278.67 28.34 278.63 28.42 278.61 28.51C278.58 28.6 278.56 28.69 278.56 28.78C278.56 28.87 278.58 28.97 278.61 29.05C278.7 29.2 278.85 29.32 279.02 29.37C279.34 29.43 279.66 29.53 279.96 29.66L279.81 29.66C280.07 29.79 280.34 29.91 280.62 30L280.95 30C281.1 30.02 281.24 30.02 281.38 30L281.63 29.88C281.69 29.84 281.73 29.79 281.77 29.72C281.8 29.66 281.82 29.59 281.82 29.52C281.82 29.45 281.81 29.37 281.78 29.31C281.75 29.24 281.71 29.19 281.65 29.14Z" fill="#FFFFFF" fill-opacity="1.000000" fill-rule="nonzero"/>
	<path id="Vector" d="M281.54 37.08C281.36 36.9 281.17 36.72 280.98 36.56C280.82 36.43 280.67 36.29 280.53 36.14C280.47 36.05 280.41 35.96 280.37 35.87L280.37 35.69C280.36 35.54 280.36 35.39 280.37 35.24C280.35 35.18 280.33 35.12 280.29 35.08C280.25 35.03 280.21 34.99 280.15 34.96C280.1 34.93 280.04 34.91 279.98 34.91C279.92 34.9 279.86 34.9 279.81 34.92C279.69 34.95 279.59 35.03 279.52 35.13C279.46 35.24 279.44 35.36 279.47 35.48C279.58 36.04 279.83 36.55 280.21 36.97C280.61 37.29 281.04 37.57 281.49 37.8C281.59 37.81 281.68 37.77 281.75 37.71C281.83 37.65 281.87 37.56 281.88 37.46C281.88 37.37 281.85 37.27 281.79 37.2C281.72 37.13 281.63 37.09 281.54 37.08Z" fill="#FFFFFF" fill-opacity="1.000000" fill-rule="nonzero"/>
	<path id="Vector" d="M281.65 23.02C281.66 22.97 281.66 22.92 281.65 22.87C281.64 22.82 281.61 22.78 281.58 22.74C281.55 22.7 281.51 22.67 281.46 22.65C281.41 22.63 281.36 22.62 281.31 22.62C281.22 22.59 281.12 22.59 281.02 22.62L280.84 22.78C280.75 22.85 280.67 22.94 280.62 23.05C280.55 23.15 280.49 23.26 280.46 23.38C280.45 23.51 280.45 23.64 280.46 23.77C280.45 23.83 280.45 23.9 280.46 23.97C280.45 24.02 280.45 24.07 280.46 24.13C280.56 24.22 280.68 24.28 280.82 24.28C280.89 24.29 280.95 24.27 281.02 24.25C281.08 24.22 281.13 24.18 281.18 24.13C281.27 24.03 281.33 23.9 281.34 23.77C281.32 23.69 281.32 23.61 281.34 23.54C281.34 23.54 281.34 23.54 281.34 23.41L281.45 23.23C281.53 23.16 281.58 23.08 281.61 22.98L281.65 23.02Z" fill="#FFFFFF" fill-opacity="1.000000" fill-rule="nonzero"/>
	<path id="Vector" d="M284.44 32.72L284.24 32.6L283.85 32.36C283.55 32.16 283.19 32.06 282.82 32.06C282.75 32.06 282.67 32.07 282.6 32.1C282.53 32.13 282.47 32.17 282.42 32.23C282.37 32.29 282.33 32.35 282.31 32.43C282.29 32.5 282.29 32.58 282.3 32.65C282.31 32.72 282.33 32.8 282.37 32.86C282.41 32.93 282.46 32.98 282.52 33.03C282.59 33.07 282.66 33.1 282.73 33.11C282.81 33.12 282.88 33.12 282.96 33.1L283.16 33.1L283.36 33.1L283.72 33.1C283.98 33.2 284.25 33.25 284.53 33.26C284.6 33.25 284.67 33.21 284.71 33.15C284.75 33.09 284.77 33.01 284.76 32.94C284.74 32.87 284.7 32.81 284.64 32.76C284.59 32.72 284.51 32.71 284.44 32.72Z" fill="#FFFFFF" fill-opacity="1.000000" fill-rule="nonzero"/>
	<path id="Vector" d="M286.1 26.55L284.37 26.4C284.31 26.4 284.25 26.41 284.2 26.43C284.14 26.46 284.09 26.49 284.05 26.54C284 26.58 283.97 26.63 283.95 26.69C283.93 26.75 283.92 26.81 283.92 26.87C283.92 26.99 283.97 27.1 284.05 27.19C284.14 27.27 284.25 27.32 284.37 27.32L286.1 27.18C286.28 27.18 286.44 27.05 286.42 26.87C286.42 26.83 286.42 26.78 286.4 26.74C286.39 26.71 286.36 26.67 286.33 26.64C286.3 26.61 286.27 26.59 286.23 26.57C286.19 26.56 286.15 26.55 286.1 26.55Z" fill="#FFFFFF" fill-opacity="1.000000" fill-rule="nonzero"/>
	<path id="Vector" d="M249.04 43.87C248.95 43.9 248.87 43.95 248.79 44.01L248.59 44.17L248.23 44.48L248 44.64L248 44.75L247.85 44.88L247.62 45L247.49 45C247.33 45 247.18 45.07 247.06 45.18C246.95 45.29 246.88 45.45 246.88 45.6C246.89 45.76 246.95 45.91 247.06 46.02C247.18 46.13 247.33 46.19 247.49 46.19C247.75 46.18 248.01 46.12 248.25 46.02C248.49 45.91 248.7 45.75 248.88 45.56C249.06 45.39 249.21 45.19 249.33 44.97L249.49 44.73C249.51 44.62 249.51 44.52 249.49 44.41C249.51 44.35 249.52 44.27 249.51 44.2C249.5 44.13 249.47 44.07 249.42 44.01C249.37 43.96 249.31 43.92 249.25 43.89C249.18 43.87 249.11 43.86 249.04 43.87Z" fill="#FFFFFF" fill-opacity="1.000000" fill-rule="nonzero"/>
	<path id="Vector" d="M258.15 42.61C257.81 42.74 257.49 42.93 257.23 43.18L256.84 43.42L256.57 43.67L256.21 43.92L255.99 43.92L255.76 43.92L255.61 43.92C255.39 43.94 255.17 43.94 254.95 43.92C254.79 43.92 254.63 43.98 254.52 44.09C254.4 44.21 254.33 44.36 254.32 44.53C254.33 44.69 254.4 44.85 254.51 44.96C254.63 45.08 254.79 45.15 254.95 45.15C255.74 45.26 256.54 45.07 257.2 44.64C257.5 44.43 257.77 44.18 257.99 43.9L258.33 43.49C258.48 43.34 258.61 43.16 258.71 42.97C258.71 42.91 258.7 42.84 258.67 42.78C258.64 42.72 258.59 42.66 258.53 42.63C258.48 42.59 258.41 42.57 258.34 42.57C258.28 42.57 258.21 42.58 258.15 42.61Z" fill="#FFFFFF" fill-opacity="1.000000" fill-rule="nonzero"/>
	<path id="Vector" d="M334.03 69.69L333.9 69.69C333.6 69.8 333.32 69.95 333.07 70.14C332.58 70.57 332.13 71.02 331.72 71.51C331.64 71.6 331.6 71.71 331.6 71.82C331.6 71.93 331.64 72.04 331.72 72.12C331.8 72.19 331.91 72.23 332.02 72.23C332.13 72.23 332.24 72.19 332.32 72.12L333 71.4L333.36 71.07C333.41 71.01 333.46 70.95 333.52 70.91L333.7 70.91L334.03 70.77C334.2 70.72 334.36 70.63 334.48 70.5C334.6 70.36 334.69 70.19 334.73 70.01C334.77 69.92 334.78 69.81 334.74 69.72C334.7 69.62 334.63 69.54 334.54 69.5C334.45 69.46 334.34 69.46 334.25 69.49C334.15 69.53 334.08 69.6 334.03 69.69Z" fill="#FFFFFF" fill-opacity="1.000000" fill-rule="nonzero"/>
	<path id="Vector" d="M343.5 50.28C343.2 50.16 342.91 50 342.65 49.81C342.36 49.61 342.05 49.44 341.73 49.32C341 49.06 340.24 48.88 339.48 48.78C339.43 48.76 339.38 48.76 339.33 48.77C339.28 48.77 339.24 48.79 339.19 48.81C339.15 48.84 339.11 48.87 339.09 48.91C339.06 48.95 339.04 49 339.03 49.05C339.01 49.09 339 49.14 339.01 49.19C339.01 49.24 339.02 49.29 339.05 49.33C339.07 49.37 339.1 49.41 339.14 49.44C339.18 49.47 339.23 49.49 339.27 49.5C340.04 49.58 340.79 49.75 341.52 49.99C341.82 49.99 342.09 50.28 342.38 50.42C342.69 50.59 343.04 50.66 343.39 50.62C343.5 50.6 343.5 50.44 343.5 50.28Z" fill="#FFFFFF" fill-opacity="1.000000" fill-rule="nonzero"/>
	<path id="Vector" d="M343.84 41.44C343.77 41.38 343.68 41.34 343.58 41.34C343.49 41.34 343.39 41.38 343.32 41.44L342.85 41.83C342.69 41.96 342.54 42.1 342.4 42.25L341.5 43.13C341.42 43.21 341.37 43.33 341.37 43.45C341.37 43.56 341.42 43.68 341.5 43.76C341.54 43.8 341.59 43.84 341.65 43.86C341.71 43.89 341.77 43.9 341.83 43.9C341.89 43.9 341.95 43.89 342 43.86C342.06 43.84 342.11 43.8 342.15 43.76L343.01 42.88C343.17 42.76 343.31 42.61 343.44 42.46L343.84 41.96C343.91 41.89 343.94 41.8 343.94 41.7C343.94 41.61 343.91 41.51 343.84 41.44Z" fill="#FFFFFF" fill-opacity="1.000000" fill-rule="nonzero"/>
	<path id="Vector" d="M324.57 40.09C324.55 39.99 324.5 39.91 324.42 39.84C324.34 39.78 324.24 39.75 324.14 39.76C324.04 39.75 323.94 39.79 323.85 39.85C323.77 39.91 323.71 40 323.69 40.09C323.68 40.19 323.68 40.29 323.69 40.39L323.69 40.25C323.7 40.32 323.7 40.39 323.69 40.45L323.42 40.7C323.07 40.94 322.71 41.15 322.34 41.33C322.22 41.41 322.14 41.52 322.1 41.66C322.07 41.79 322.09 41.93 322.16 42.05C322.23 42.17 322.34 42.26 322.48 42.3C322.61 42.33 322.76 42.32 322.88 42.25C323.19 42.1 323.51 41.94 323.8 41.76C324.18 41.54 324.5 41.23 324.72 40.86C324.8 40.7 324.84 40.52 324.86 40.34C324.77 40.24 324.67 40.16 324.57 40.09Z" fill="#FFFFFF" fill-opacity="1.000000" fill-rule="nonzero"/>
	<path id="Vector" d="M299.04 31.39L297.98 31.21C297.58 31.17 297.18 31.17 296.79 31.21C296.63 31.21 296.48 31.27 296.37 31.38C296.26 31.49 296.2 31.64 296.2 31.8C296.2 31.95 296.26 32.1 296.37 32.21C296.48 32.32 296.63 32.38 296.79 32.38C297.19 32.4 297.58 32.4 297.98 32.38L299.04 32.18C299.14 32.18 299.24 32.14 299.32 32.06C299.39 31.99 299.43 31.89 299.43 31.78C299.43 31.68 299.39 31.58 299.32 31.51C299.24 31.43 299.14 31.39 299.04 31.39Z" fill="#FFFFFF" fill-opacity="1.000000" fill-rule="nonzero"/>
	<path id="Vector" d="M226.84 36C226.84 35.94 226.82 35.87 226.79 35.82C226.76 35.76 226.71 35.72 226.66 35.69C226.56 35.62 226.44 35.57 226.32 35.55C226.2 35.53 226.08 35.54 225.96 35.57C225.79 35.63 225.62 35.71 225.47 35.8C225.17 36.02 224.9 36.29 224.68 36.59C224.65 36.65 224.63 36.73 224.63 36.8C224.63 36.87 224.65 36.95 224.68 37.01C224.7 37.08 224.73 37.15 224.77 37.21C224.81 37.26 224.87 37.31 224.93 37.35C225.06 37.4 225.22 37.4 225.35 37.35C225.5 37.31 225.62 37.21 225.69 37.08C225.79 36.94 225.92 36.82 226.05 36.72L226.32 36.54L226.46 36.43C226.51 36.43 226.57 36.42 226.62 36.4C226.67 36.38 226.72 36.35 226.75 36.31C226.79 36.27 226.82 36.22 226.83 36.17C226.85 36.11 226.85 36.06 226.84 36Z" fill="#FFFFFF" fill-opacity="1.000000" fill-rule="nonzero"/>
	<path id="Vector" d="M229.83 25.47C229.8 25.42 229.76 25.38 229.71 25.35C229.66 25.32 229.6 25.31 229.54 25.31C229.48 25.31 229.42 25.32 229.37 25.35C229.32 25.38 229.28 25.42 229.25 25.47C229.24 25.52 229.24 25.57 229.25 25.61C228.96 25.71 228.7 25.85 228.46 26.04C227.93 26.44 227.47 26.92 227.09 27.45C227.05 27.52 227.03 27.58 227.02 27.66C227.01 27.73 227.01 27.8 227.03 27.87C227.05 27.94 227.08 28 227.13 28.06C227.17 28.11 227.23 28.16 227.29 28.2C227.41 28.26 227.55 28.27 227.69 28.23C227.82 28.19 227.93 28.11 228.01 27.99L228.17 27.79L228.48 27.45C228.72 27.26 228.94 27.06 229.16 26.85C229.21 26.78 229.27 26.72 229.34 26.67L229.54 26.53C229.66 26.45 229.76 26.34 229.83 26.22C229.84 26.14 229.84 26.07 229.83 25.99C229.88 25.82 229.88 25.64 229.83 25.47Z" fill="#FFFFFF" fill-opacity="1.000000" fill-rule="nonzero"/>
	<path id="Vector" d="M241.37 33.08L241.05 32.94L240.92 32.94C240.69 32.76 240.49 32.56 240.27 32.4C240.04 32.24 239.1 31.79 238.56 31.43C238.46 31.38 238.34 31.37 238.23 31.4C238.13 31.43 238.03 31.5 237.97 31.59C237.92 31.69 237.91 31.81 237.94 31.92C237.97 32.02 238.04 32.12 238.13 32.18C238.71 32.54 239.37 32.74 239.91 33.12L240.18 33.35L240.54 33.62C240.79 33.8 241.08 33.89 241.39 33.89C241.64 33.71 241.75 33.17 241.37 33.08Z" fill="#FFFFFF" fill-opacity="1.000000" fill-rule="nonzero"/>
	<path id="Vector" d="M245.19 71C244.98 70.99 244.78 71.02 244.59 71.1C244.39 71.19 244.23 71.31 244.09 71.47C244.07 71.54 244.07 71.62 244.09 71.69C244.09 71.75 244.11 71.8 244.13 71.84C244.15 71.89 244.19 71.93 244.23 71.96C244.29 72.03 244.38 72.06 244.47 72.06C244.56 72.06 244.65 72.03 244.72 71.96L244.88 71.81L245.03 71.81L245.24 71.81C245.3 71.82 245.36 71.82 245.42 71.81C245.44 71.75 245.44 71.69 245.42 71.63C245.5 71.6 245.57 71.54 245.61 71.46C245.64 71.38 245.65 71.28 245.62 71.2C245.59 71.12 245.53 71.05 245.45 71.01C245.37 70.97 245.28 70.97 245.19 71Z" fill="#FFFFFF" fill-opacity="1.000000" fill-rule="nonzero"/>
	<path id="Vector" d="M261.3 57.05L260.94 57.05L260.76 57.05L260.6 56.94L260.49 56.94L260.1 56.69C259.85 56.53 259.58 56.4 259.29 56.31C258.95 56.22 258.58 56.22 258.24 56.31C258.12 56.35 258.02 56.43 257.95 56.54C257.89 56.65 257.87 56.77 257.9 56.9C257.94 57.02 258.02 57.12 258.13 57.18C258.23 57.24 258.36 57.26 258.48 57.23L258.8 57.23L259.16 57.23L259.32 57.23L259.68 57.46C259.92 57.62 260.2 57.73 260.49 57.77C260.78 57.82 261.08 57.79 261.36 57.71C261.43 57.68 261.48 57.64 261.52 57.58C261.55 57.52 261.57 57.46 261.57 57.39C261.58 57.35 261.58 57.31 261.57 57.27C261.56 57.23 261.54 57.19 261.51 57.15C261.49 57.12 261.46 57.1 261.42 57.08C261.38 57.06 261.34 57.05 261.3 57.05Z" fill="#FFFFFF" fill-opacity="1.000000" fill-rule="nonzero"/>
	<path id="Vector" d="M271.1 51.36C271 51.26 270.88 51.19 270.74 51.16L270.5 51.16C270.32 51.14 270.15 51.14 269.98 51.16C269.75 51.2 269.54 51.27 269.32 51.36L269.01 51.5L268.85 51.5C268.66 51.6 268.45 51.69 268.25 51.77C268.19 51.79 268.14 51.83 268.1 51.88C268.07 51.94 268.05 52 268.05 52.06C268.05 52.12 268.07 52.18 268.1 52.24C268.14 52.29 268.19 52.33 268.25 52.35L268.85 52.49C269.08 52.52 269.32 52.52 269.55 52.49L270.14 52.49L270.41 52.49L270.54 52.49L270.7 52.49L270.9 52.49C270.97 52.47 271.04 52.44 271.09 52.4C271.15 52.35 271.2 52.3 271.24 52.24C271.35 52.22 271.46 52.16 271.53 52.06C271.6 51.97 271.63 51.85 271.61 51.73C271.59 51.62 271.53 51.51 271.43 51.44C271.34 51.37 271.22 51.34 271.1 51.36Z" fill="#FFFFFF" fill-opacity="1.000000" fill-rule="nonzero"/>
	<path id="Vector" d="M276.82 47.16C276.8 47.12 276.78 47.08 276.75 47.05C276.71 47.03 276.68 47.01 276.64 47L275.78 47C275.73 47 275.67 47.01 275.62 47.03C275.57 47.06 275.52 47.09 275.49 47.13C275.42 47.21 275.38 47.3 275.38 47.4C275.38 47.51 275.42 47.62 275.49 47.7C275.58 47.73 275.69 47.73 275.78 47.7L276.43 47.7L276.64 47.7C276.7 47.66 276.75 47.62 276.79 47.56C276.81 47.53 276.82 47.5 276.82 47.46C276.82 47.42 276.81 47.39 276.79 47.36C276.81 47.33 276.82 47.3 276.83 47.26C276.83 47.23 276.83 47.19 276.82 47.16Z" fill="#FFFFFF" fill-opacity="1.000000" fill-rule="nonzero"/>
	<path id="Vector" d="M282.26 58.49C282.2 58.32 282.1 58.15 281.97 58.02L281.61 57.75C281.42 57.6 281.23 57.46 281.02 57.35L280.44 56.96L280.3 56.85L280.01 56.6C279.91 56.52 279.79 56.48 279.67 56.49C279.54 56.49 279.43 56.54 279.34 56.63C279.25 56.72 279.2 56.84 279.2 56.96C279.19 57.08 279.23 57.21 279.31 57.3C279.63 57.65 279.98 57.97 280.35 58.27L281 58.76L281.13 58.76C281.13 58.76 281.34 58.96 281.47 58.99L281.65 58.99C281.74 59.01 281.83 59.01 281.91 58.99C282 58.97 282.08 58.93 282.15 58.87C282.23 58.77 282.27 58.63 282.26 58.49Z" fill="#FFFFFF" fill-opacity="1.000000" fill-rule="nonzero"/>
	<path id="Vector" d="M283.63 53.25C283.59 53.22 283.54 53.2 283.5 53.2C283.45 53.2 283.4 53.22 283.36 53.25L283.23 53.25L283.09 53.25L282.78 53.25L282.62 53.25L282.21 53.25C282.14 53.23 282.05 53.24 281.98 53.28C281.91 53.31 281.86 53.38 281.83 53.45C281.82 53.49 281.82 53.53 281.82 53.57C281.83 53.61 281.85 53.65 281.87 53.68C281.89 53.72 281.91 53.75 281.95 53.77C281.98 53.79 282.02 53.81 282.06 53.81C282.34 53.89 282.65 53.89 282.93 53.81L283.29 53.63L283.5 53.45C283.5 53.39 283.5 53.32 283.5 53.25C283.54 53.27 283.59 53.27 283.63 53.25Z" fill="#FFFFFF" fill-opacity="1.000000" fill-rule="nonzero"/>
	<path id="Vector" d="M286.62 49.23L286.44 49.23L286.24 49.02C285.97 48.75 285.77 48.46 285.5 48.19C285.46 48.15 285.42 48.12 285.38 48.1C285.33 48.08 285.28 48.07 285.23 48.07C285.18 48.07 285.13 48.08 285.08 48.1C285.03 48.12 284.99 48.15 284.96 48.19C284.89 48.26 284.85 48.36 284.85 48.46C284.85 48.56 284.89 48.66 284.96 48.73C285.25 49 285.47 49.32 285.79 49.59C285.94 49.73 286.12 49.85 286.31 49.95L286.64 50.06C286.73 50.08 286.82 50.08 286.91 50.06L287.05 50.06C287.16 50 287.24 49.9 287.28 49.78C287.32 49.67 287.31 49.54 287.25 49.43C287.19 49.32 287.1 49.23 286.98 49.2C286.86 49.16 286.73 49.17 286.62 49.23Z" fill="#FFFFFF" fill-opacity="1.000000" fill-rule="nonzero"/>
	<path id="Vector" d="M291.95 69.65L291.77 69.65C291.69 69.62 291.6 69.62 291.52 69.65L289.28 69.65C289.17 69.65 289.08 69.69 289.01 69.76C288.93 69.83 288.89 69.93 288.89 70.03C288.9 70.13 288.94 70.22 289.01 70.29C289.08 70.37 289.18 70.41 289.28 70.41L291.77 70.41L292 70.3C292.06 70.27 292.11 70.22 292.14 70.16C292.17 70.1 292.19 70.03 292.18 69.96C292.18 69.89 292.15 69.83 292.11 69.77C292.07 69.71 292.02 69.67 291.95 69.65Z" fill="#FFFFFF" fill-opacity="1.000000" fill-rule="nonzero"/>
	<path id="Vector" d="M295.03 63.22L294.65 63.22C294.34 63.22 294.04 63.22 293.73 63.22C293.63 63.22 293.53 63.26 293.46 63.33C293.39 63.4 293.35 63.5 293.35 63.6C293.35 63.7 293.39 63.79 293.46 63.86C293.54 63.93 293.63 63.98 293.73 63.98C294.09 64.01 294.45 64.01 294.81 63.98C295 63.95 295.18 63.88 295.34 63.77C295.5 63.66 295.63 63.52 295.73 63.35C295.69 63.31 295.28 62.97 295.03 63.22Z" fill="#FFFFFF" fill-opacity="1.000000" fill-rule="nonzero"/>
	<path id="Vector" d="M299.78 70.23L299.08 69.56C298.93 69.43 298.78 69.31 298.61 69.2L298.14 68.95C297.52 68.62 296.84 68.41 296.14 68.34C295.8 68.34 295.71 68.88 296.14 68.93C296.75 69.06 297.34 69.3 297.87 69.65L298.29 69.94L298.74 70.14C299.04 70.28 299.31 70.44 299.58 70.59C299.62 70.6 299.66 70.59 299.7 70.57C299.74 70.55 299.77 70.52 299.8 70.48C299.82 70.44 299.83 70.4 299.82 70.35C299.82 70.31 299.81 70.27 299.78 70.23Z" fill="#FFFFFF" fill-opacity="1.000000" fill-rule="nonzero"/>
	<path id="Vector" d="M268.45 18.28L268.27 18.28C268.18 18.25 268.09 18.25 268 18.28L267.53 18.28C267.23 18.37 266.96 18.55 266.76 18.79C266.72 18.83 266.69 18.88 266.66 18.93C266.64 18.98 266.63 19.03 266.63 19.09C266.63 19.14 266.64 19.2 266.66 19.25C266.68 19.3 266.72 19.34 266.76 19.38C266.8 19.42 266.84 19.46 266.89 19.48C266.94 19.5 267 19.52 267.05 19.52C267.11 19.52 267.16 19.5 267.22 19.48C267.26 19.46 267.31 19.42 267.35 19.38L267.53 19.22L267.68 19.11L267.91 19.11L268.11 19.11C268.22 19.13 268.34 19.13 268.45 19.11C268.5 19.12 268.55 19.12 268.61 19.11C268.62 19.04 268.62 18.97 268.61 18.91C268.66 18.86 268.7 18.81 268.72 18.74C268.74 18.68 268.74 18.61 268.73 18.54C268.71 18.48 268.67 18.42 268.63 18.37C268.58 18.32 268.51 18.29 268.45 18.28Z" fill="#FFFFFF" fill-opacity="1.000000" fill-rule="nonzero"/>
	<path id="Vector" d="M257.81 10.47C257.56 10.47 257.29 10.47 257.02 10.47L256.3 10.47C255.85 10.41 255.4 10.28 254.98 10.09C254.93 10.06 254.87 10.05 254.81 10.04C254.76 10.03 254.7 10.04 254.65 10.06C254.59 10.07 254.54 10.1 254.5 10.14C254.45 10.17 254.42 10.22 254.39 10.27C254.37 10.32 254.36 10.38 254.36 10.44C254.37 10.49 254.38 10.55 254.41 10.6C254.43 10.65 254.47 10.7 254.51 10.73C254.56 10.77 254.61 10.8 254.66 10.81C255.16 11.02 255.69 11.15 256.24 11.19C256.76 11.24 257.29 11.24 257.81 11.19C257.91 11.19 258 11.15 258.06 11.09C258.13 11.02 258.17 10.93 258.17 10.83C258.17 10.74 258.13 10.65 258.06 10.58C258 10.51 257.91 10.47 257.81 10.47Z" fill="#FFFFFF" fill-opacity="1.000000" fill-rule="nonzero"/>
	<path id="Vector" d="M260.28 6.13L260.13 6.02C260.02 5.99 259.91 5.99 259.81 6.02C259.71 6.11 259.6 6.18 259.47 6.22L259.29 6.22L259.02 6.22L258.62 6.22C258.56 6.22 258.5 6.23 258.45 6.25C258.39 6.28 258.34 6.31 258.3 6.36C258.26 6.39 258.22 6.44 258.19 6.5C258.17 6.55 258.16 6.61 258.17 6.67C258.17 6.73 258.18 6.8 258.2 6.85C258.23 6.91 258.26 6.97 258.3 7.01C258.38 7.03 258.46 7.03 258.53 7.01C258.81 7.06 259.1 7.06 259.38 7.01L259.63 6.9C259.72 6.87 259.8 6.81 259.86 6.74C259.97 6.64 260.08 6.52 260.17 6.4C260.19 6.32 260.19 6.24 260.17 6.15C260.21 6.15 260.25 6.15 260.28 6.13Z" fill="#FFFFFF" fill-opacity="1.000000" fill-rule="nonzero"/>
	<path id="Vector" d="M286.19 10.83L286.01 10.83L285.74 10.83C285.56 10.82 285.38 10.78 285.2 10.72C284.87 10.6 284.54 10.44 284.24 10.25C283.64 9.84 283.08 9.37 282.57 8.85C282.49 8.77 282.38 8.73 282.27 8.73C282.16 8.73 282.05 8.77 281.97 8.85C281.89 8.93 281.84 9.04 281.84 9.16C281.84 9.27 281.89 9.38 281.97 9.46C282.53 10.07 283.16 10.62 283.83 11.1C284.19 11.35 284.59 11.55 285 11.69C285.43 11.83 285.88 11.83 286.31 11.69C286.42 11.67 286.52 11.61 286.59 11.52C286.66 11.43 286.69 11.32 286.68 11.2C286.66 11.09 286.6 10.99 286.51 10.92C286.42 10.85 286.31 10.82 286.19 10.83Z" fill="#FFFFFF" fill-opacity="1.000000" fill-rule="nonzero"/>
	<path id="Vector" d="M211.12 44.95C211.08 44.91 211.04 44.87 210.99 44.84C210.94 44.82 210.88 44.8 210.83 44.8C210.77 44.8 210.71 44.82 210.66 44.84C210.61 44.87 210.57 44.91 210.53 44.95L210.33 45.24L210.15 45.54C210.07 45.67 209.97 45.8 209.86 45.92L209.72 46.14L209.45 46.53L209.32 46.73L209.07 47L209.07 47.11C208.96 47.19 208.88 47.3 208.85 47.43C208.81 47.55 208.83 47.69 208.89 47.81C208.96 47.92 209.07 48.01 209.2 48.04C209.33 48.07 209.47 48.06 209.59 47.99C209.96 47.71 210.28 47.37 210.53 46.98C210.69 46.75 210.85 46.55 210.98 46.32C211.13 46.08 211.25 45.83 211.34 45.56L211.34 45.24C211.29 45.13 211.22 45.03 211.12 44.95Z" fill="#FFFFFF" fill-opacity="1.000000" fill-rule="nonzero"/>
	<path id="Vector" d="M208.71 47.92L208.49 47.92L208.31 47.92L208.15 47.76C208.14 47.69 208.14 47.61 208.15 47.54C208.15 47.54 208.15 47.54 208.15 47.43C208.15 47.35 208.12 47.27 208.06 47.22C208.01 47.16 207.93 47.13 207.86 47.13C207.78 47.13 207.7 47.16 207.65 47.22C207.59 47.27 207.56 47.35 207.56 47.43C207.55 47.47 207.55 47.52 207.56 47.56C207.54 47.66 207.54 47.76 207.56 47.85C207.59 47.97 207.63 48.09 207.7 48.19C207.78 48.37 207.9 48.54 208.04 48.69C208.19 48.82 208.37 48.93 208.55 49.02L208.82 49.02L208.96 49.02C209.07 49.05 209.18 49.05 209.3 49.02C209.35 49 209.39 48.96 209.43 48.92C209.46 48.87 209.48 48.81 209.48 48.75C209.48 48.7 209.46 48.64 209.43 48.59C209.39 48.54 209.35 48.51 209.3 48.48L208.71 47.92Z" fill="#FFFFFF" fill-opacity="1.000000" fill-rule="nonzero"/>
	<path id="Vector" d="M238.22 43.18C237.99 43.19 237.77 43.28 237.59 43.42C237.36 43.57 237.14 43.74 236.94 43.92C236.56 44.23 236.2 44.59 235.81 44.88C235.78 44.92 235.75 44.96 235.73 45C235.71 45.05 235.7 45.1 235.7 45.14C235.7 45.19 235.71 45.24 235.73 45.28C235.75 45.33 235.78 45.37 235.81 45.4C235.88 45.46 235.97 45.49 236.06 45.49C236.15 45.49 236.24 45.46 236.31 45.4L237.32 44.39L237.59 44.14L237.73 44.01C237.88 43.87 238.06 43.78 238.22 43.67C238.29 43.67 238.35 43.64 238.39 43.6C238.44 43.55 238.47 43.49 238.47 43.42C238.47 43.36 238.44 43.29 238.39 43.25C238.35 43.2 238.29 43.18 238.22 43.18Z" fill="#FFFFFF" fill-opacity="1.000000" fill-rule="nonzero"/>
	<path id="Vector" d="M247.42 22.84C247.19 22.7 246.95 22.56 246.7 22.44C246.46 22.31 246.21 22.21 245.96 22.12C245.42 22 244.86 22 244.32 22.12C244.32 22.12 244.32 22.12 244.32 22.26C244.85 22.33 245.37 22.46 245.87 22.64C246.36 22.78 246.86 22.98 247.35 23.16C247.46 23.09 247.53 22.91 247.42 22.84Z" fill="#FFFFFF" fill-opacity="1.000000" fill-rule="nonzero"/>
	<path id="Vector" d="M323.42 56.31L322.95 56.11L322.56 55.97L322.36 55.97L322 55.84C321.76 55.74 321.51 55.67 321.26 55.61L320.76 55.61C320.58 55.63 320.4 55.66 320.22 55.73C320.16 55.75 320.1 55.8 320.05 55.86C320.01 55.92 319.99 55.99 319.99 56.06C319.99 56.14 320.01 56.21 320.05 56.27C320.1 56.33 320.16 56.38 320.22 56.4C320.37 56.43 320.51 56.48 320.65 56.54L321.06 56.54L321.26 56.54L321.6 56.72C321.85 56.86 322.13 56.98 322.41 57.08L322.76 57.08C322.97 57.13 323.19 57.13 323.4 57.08C323.47 57.04 323.53 56.99 323.57 56.92C323.62 56.86 323.64 56.78 323.64 56.7C323.65 56.62 323.63 56.54 323.59 56.47C323.55 56.4 323.49 56.35 323.42 56.31Z" fill="#FFFFFF" fill-opacity="1.000000" fill-rule="nonzero"/>
	<path id="Vector" d="M236.17 14.45C235.89 14.37 235.59 14.33 235.3 14.34C235.16 14.31 235.01 14.31 234.87 14.34L234.62 14.5C234.23 14.77 233.85 15.06 233.5 15.38C233.5 15.38 233.97 15.08 234.22 14.97C234.37 14.88 234.55 14.83 234.73 14.84L234.98 14.84C235.01 14.85 235.03 14.85 235.06 14.85C235.09 14.85 235.11 14.85 235.14 14.84L235.32 14.84C235.59 14.8 235.86 14.74 236.13 14.66C236.16 14.63 236.17 14.6 236.18 14.56C236.19 14.53 236.19 14.49 236.17 14.45Z" fill="#FFFFFF" fill-opacity="1.000000" fill-rule="nonzero"/>
</svg>
