<svg width="242.440674" height="259.952209" viewBox="0 0 242.441 259.952" fill="none" xmlns="http://www.w3.org/2000/svg" xmlns:xlink="http://www.w3.org/1999/xlink">
	<desc>
			Created with Pixso.
	</desc>
	<defs/>
	<path id="Vector" d="M53.77 250.44C55 249.17 56.33 248.01 57.75 246.95C58.72 246.17 59.74 245.45 60.8 244.79C62 243.95 63.11 242.99 64.13 241.93C66.31 239.89 68.18 237.54 69.66 234.94C71.14 232.18 72.42 229.18 74 226.39C75.12 223.97 76.56 221.72 78.28 219.69C80.21 217.75 82.33 216.04 84.22 214.06C86.2 212.04 87.84 209.71 89.06 207.16C89.72 205.77 90.44 204.39 91.28 203.01C91.97 201.62 92.52 200.16 92.91 198.66C93.38 197.28 94.11 196.01 94.61 194.64C95.01 193.31 95.33 191.97 95.56 190.6C96.42 188.07 97.65 185.68 99.21 183.51C100.64 180.79 101.81 177.93 102.69 174.98C103.32 173.56 103.86 172.12 104.34 170.65C104.6 169.12 104.55 167.56 104.19 166.05C103.72 163.53 103.64 160.96 103.94 158.42C104.12 157.04 104.3 155.66 104.5 154.28C104.59 153.64 104.75 153.05 104.88 152.43C105.04 151.56 105.09 150.68 105.04 149.8C105.04 146.71 105.04 143.62 105.18 140.53C105.34 138.97 105.25 137.4 104.91 135.87C104.71 135.32 104.57 134.75 104.49 134.17C104.49 133.41 104.59 132.67 104.49 131.91C104.32 128.7 102.67 125.69 101.12 122.97C100.4 121.88 99.88 120.67 99.6 119.39C99.35 117.91 99.05 116.43 98.78 114.95C98.52 113.48 98.33 112.05 98.04 110.63C97.79 109.44 97.22 108.36 97.07 107.15C96.96 105.71 96.93 104.27 96.99 102.82C96.99 101.23 96.99 99.64 96.99 98.06C97.01 96.7 97.15 95.34 97.42 94.01C97.56 92.79 97.88 91.59 98.38 90.47C98.86 89.36 99.49 88.32 100.25 87.38C101.08 86.46 101.96 85.59 102.89 84.78C103.46 84.32 103.93 83.73 104.24 83.07C104.56 82.4 104.73 81.67 104.73 80.94C104.73 79.48 104.59 78.03 104.31 76.6C103.77 73.78 103.47 70.92 103.44 68.05C103.44 66.04 103.52 63.33 105.62 62.3C106.34 61.94 106.92 62.3 107.59 62.63C108.97 63.31 110.63 63.07 112.12 63.57C113.34 63.89 114.58 64.14 115.83 64.31C117.22 64.59 118.6 64.7 119.98 65.01C121.36 65.31 122.74 65.93 124.12 66.39C125.51 66.84 126.89 67.22 128.27 67.7C129.56 68.19 130.82 68.76 132.04 69.4C133.42 70.06 134.85 70.63 136.31 71.1C137.67 71.63 139.09 72.01 140.54 72.25C141.84 72.38 143.16 72.38 144.46 72.25C146.95 71.8 149.49 71.73 151.99 72.04C154.76 72.6 157.13 74.55 159.43 76.07C160.67 76.89 161.9 77.76 163.21 78.45C164.53 79.14 165.71 79.28 166.86 79.96C168.01 80.63 168.99 81.53 170.15 82.17C171.31 82.8 172.55 83.44 173.74 84.16C175.13 84.96 176.61 85.6 178.15 86.06C179.53 86.49 180.82 87.02 182.18 87.44C182.95 87.66 183.73 87.8 184.52 87.86C185.17 87.86 185.81 87.91 186.45 88C186.93 88.14 187.4 88.33 187.83 88.56C188.66 88.92 189.56 89.1 190.46 89.1C193.14 89.21 195.53 89.1 197.82 90.65C198.36 91.04 198.94 91.35 199.57 91.58C200.11 91.72 200.64 91.9 201.15 92.13C202.08 92.64 202.95 93.26 203.74 93.97C204.56 94.69 205.28 95.52 205.89 96.43C206.69 97.62 207.8 98.57 209.1 99.19C210.33 99.8 211.56 100.35 212.73 101.07C213.91 101.79 215.15 102.64 216.38 103.4C218.9 104.98 221.42 106.57 224.01 108.02C225.22 108.71 226.48 109.32 227.66 110.05C228.83 110.78 229.67 112.18 230.94 112C231.07 112 231.12 112.18 230.94 112.19C230.61 112.24 230.26 112.21 229.94 112.09C229.62 111.97 229.33 111.78 229.11 111.53L228.76 111.22C229.34 111.89 229.82 112.61 230.45 113.3C231.25 113.97 232.13 114.55 233.07 115.02C234.98 116.25 234.92 118.66 234.87 120.69C234.8 123.85 234.87 127.02 234.87 130.18C234.87 133.34 234.8 136.69 235.01 139.95C235.21 143.21 235.26 146.39 235.77 149.54C236 150.92 236.26 152.3 236.4 153.78C236.54 155.26 236.47 156.93 236.4 158.52C236.4 161.78 236.4 165.03 236.4 168.29C236.37 169.93 236.45 171.58 236.65 173.21C236.87 174.7 237.16 176.18 237.38 177.66C237.81 180.71 237.74 183.76 238.07 186.82C238.41 189.87 239.46 193.1 239.98 196.28C240.48 199.22 240.76 202.2 240.82 205.18C240.82 211.45 240.38 217.78 240.82 224.04C241.27 230.3 242.63 236.2 242.41 242.35C242.28 246.46 241.44 250.53 239.95 254.37C238.57 257.62 236.32 260.36 232.51 259.9C231.04 259.65 229.56 259.48 228.07 259.4C226.52 259.4 224.99 259.14 223.46 258.96C222.05 258.66 220.63 258.45 219.2 258.31C217.72 258.25 216.24 258.31 214.76 258.47C213.3 258.7 211.81 258.84 210.33 258.87C208.9 258.82 207.47 258.67 206.06 258.43C204.51 258.18 202.96 257.84 201.4 257.73C199.91 257.64 198.41 257.64 196.91 257.73C190.55 257.84 184.18 257.48 177.87 256.66C176.49 256.5 175.03 256.66 173.64 256.41C172.26 256.16 170.69 255.63 169.18 255.32C166.02 254.54 162.75 254.32 159.51 254.66C156.49 254.96 153.44 255.07 150.4 254.98C147.22 255.13 144.03 255.1 140.86 254.87C137.71 254.37 134.53 254.03 131.35 253.86C128.08 253.86 124.77 254.12 121.5 253.86C119.97 253.71 118.46 253.47 116.93 253.4C115.39 253.33 113.86 253.4 112.31 253.4C110.76 253.4 109.19 253.11 107.63 252.99C106.07 252.86 104.46 252.83 102.87 252.82C99.65 252.82 96.43 252.9 93.2 252.82C89.97 252.74 86.96 252.31 83.82 252.06C80.68 251.81 77.49 251.8 74.31 251.81C71.15 251.75 67.98 251.86 64.82 252.14C61.88 252.54 58.89 252.59 55.94 252.27C55.34 252.19 54.75 252.09 54.17 251.95C53.89 251.88 53.34 251.87 53.2 251.59C53.06 251.31 53.52 250.69 53.77 250.44Z" fill="#202147" fill-opacity="1.000000" fill-rule="nonzero"/>
	<path id="Vector" d="M204.59 128.56L204.13 128.56L203.83 128.56L203.64 128.41C202.84 127.74 202.03 127.03 201.2 126.44L200.86 126.19L200.17 125.66L199.68 125.25C199.5 125.07 199.3 124.91 199.1 124.76C198.78 124.55 198.42 124.4 198.05 124.31C197.56 124.15 197.1 123.93 196.66 123.66C195.84 123.15 194.99 122.69 194.12 122.28C193.22 121.88 192.3 121.54 191.36 121.26C190.46 120.95 189.59 120.54 188.79 120.04C188.01 119.58 187.21 119.18 186.41 118.77C185.57 118.34 184.81 117.78 184.13 117.12C183.46 116.59 182.67 116.23 181.82 116.07C181.35 115.96 180.89 115.8 180.44 115.59C180.1 115.43 179.73 115.37 179.35 115.4L178.95 115.4L178.22 115.4L178.22 114.71L178.22 113.97L179.6 113.97C179.88 113.97 180.15 114.01 180.42 114.08C180.65 114.16 180.89 114.26 181.11 114.37C181.27 114.46 181.44 114.52 181.62 114.58L181.96 114.68C182.64 114.84 183.3 115.06 183.94 115.36C184.44 115.62 184.91 115.96 185.32 116.35C185.58 116.59 185.86 116.82 186.16 117.01C186.61 117.28 187.07 117.52 187.54 117.73C187.92 117.91 188.29 118.09 188.65 118.3L189.3 118.69C189.92 119.07 190.56 119.41 191.23 119.69C191.65 119.86 192.08 120 192.49 120.14C192.91 120.27 193.56 120.48 194.07 120.7C194.98 121.09 195.87 121.51 196.73 121.99L197.2 122.26C197.47 122.43 197.75 122.59 198.05 122.72L198.52 122.87C198.81 122.95 199.1 123.05 199.37 123.18C199.82 123.42 200.23 123.71 200.6 124.06C200.97 124.39 201.38 124.7 201.78 125L202.05 125.22C202.94 125.86 203.78 126.56 204.58 127.31L204.93 127.69L204.76 128.12L204.59 128.56ZM207.94 167.64C207.62 167.29 207.3 166.95 206.97 166.62C206.64 166.28 206.28 165.9 205.94 165.51C205.59 165.12 205.56 165.08 205.35 164.88L204.79 164.31C204.41 163.96 204.05 163.58 203.72 163.17L203.5 162.87C203.23 162.45 202.89 162.09 202.48 161.79C202.18 161.61 201.86 161.45 201.54 161.3C201.17 161.12 200.81 160.92 200.46 160.7L199.86 160.33C198.72 159.61 197.58 158.95 196.43 158.22C195.99 157.96 195.53 157.77 195.05 157.62L194.37 157.39C193.67 157.13 192.99 156.82 192.34 156.46C191.99 156.27 191.66 156.06 191.34 155.83L191.1 155.63C190.98 155.52 190.84 155.42 190.69 155.34C190.53 155.28 190.36 155.26 190.18 155.27L189.42 155.27C189.27 155.29 189.12 155.29 188.97 155.27C188.61 155.23 188.27 155.13 187.95 154.97C187.73 154.83 187.53 154.67 187.37 154.47L187.16 154.26C186.97 154.15 186.78 154.05 186.58 153.97L186.38 153.9L185.79 153.63L185.2 153.34C184.95 153.26 184.69 153.2 184.44 153.16L184.3 153.16C184 153.12 183.73 153 183.5 152.81C183.17 152.48 182.95 152.06 182.85 151.61L182.85 151.46C182.85 151.46 182.71 151.13 181.92 150.57C181.66 150.42 181.38 150.3 181.09 150.22C180.71 150.1 180.34 149.94 180 149.73C179.66 149.48 179.37 149.16 179.16 148.79C179.06 148.64 178.96 148.49 178.84 148.35C178.36 147.83 177.78 147.4 177.14 147.09C176.86 147 176.6 146.83 176.39 146.61C175.65 146.13 174.89 145.7 174.13 145.23L173.58 144.89C172.46 144.26 171.39 143.56 170.36 142.8C169.92 142.49 169.46 142.23 168.97 142.01C168.42 141.75 167.9 141.44 167.41 141.08C167.08 140.84 166.73 140.63 166.36 140.45L165.91 140.2L164.68 139.47L164 139.07C163.55 138.8 163.09 138.55 162.62 138.33C161.92 138.01 161.25 137.64 160.62 137.23C160.1 136.88 159.55 136.59 158.97 136.27C158.39 135.96 158 135.76 157.59 135.47C157.2 135.23 156.79 135.01 156.37 134.81C155.67 134.52 155 134.14 154.38 133.69C154 133.42 153.6 133.18 153.18 132.99L152.96 132.88C152.69 132.73 152.42 132.56 152.17 132.38C151.95 132.19 151.69 132.04 151.43 131.92C151.06 131.78 150.66 131.71 150.27 131.71L149.7 131.71C148.98 131.61 148.26 131.56 147.53 131.55L144.34 131.55C144.05 131.54 143.76 131.57 143.48 131.63C142.64 131.81 141.78 131.89 140.91 131.88L139.72 131.88L138.7 131.88C137.86 131.9 137.01 131.85 136.17 131.73L134.94 131.53C134.04 131.4 133.15 131.2 132.28 130.93C131.14 130.6 130.08 130.04 129.17 129.3C128.8 128.99 128.39 128.75 127.95 128.58L127.4 128.44C127.04 128.37 126.68 128.27 126.34 128.14C125.77 127.86 125.14 127.71 124.51 127.68L123.74 127.68C123.27 127.68 122.8 127.68 122.36 127.68C121.13 127.54 119.91 127.31 118.72 126.98L118.16 126.84C117.74 126.74 117.33 126.62 116.93 126.48C116.58 126.35 116.24 126.19 115.9 126.04C115.57 125.88 115.35 125.77 115.07 125.66C114.34 125.4 113.59 125.19 112.82 125.04C112.3 124.92 111.77 124.81 111.26 124.65L110.9 124.54C109.92 124.35 109.01 123.93 108.22 123.31L107.83 122.98L108 122.53L108.19 122.04L108.95 122.04L109.13 122.19C110.01 122.77 111.01 123.16 112.05 123.33L112.75 123.49L113.65 123.71C114.6 123.91 115.52 124.2 116.41 124.57C118.83 125.66 121.45 126.22 124.1 126.2L124.26 126.2C124.84 126.18 125.43 126.24 125.99 126.38C126.27 126.47 126.54 126.57 126.8 126.7C127.05 126.82 127.31 126.91 127.58 126.98L127.86 127.04C128.28 127.1 128.69 127.23 129.07 127.42C129.49 127.64 129.89 127.91 130.26 128.22L130.62 128.48C131.56 129.11 132.62 129.54 133.74 129.74C134.36 129.88 135 129.98 135.63 130.03C135.97 130.06 136.31 130.11 136.64 130.18C136.93 130.24 137.23 130.28 137.53 130.31L137.8 130.31L138.47 130.31L139.18 130.31L140.3 130.31L141.28 130.31C141.89 130.3 142.48 130.22 143.07 130.07C143.44 129.98 143.82 129.95 144.2 129.96L147.48 129.96C148 129.93 148.53 129.93 149.06 129.96L149.63 129.96C150.72 129.95 151.78 130.23 152.73 130.77C153.11 131.04 153.53 131.27 153.94 131.51C154.48 131.81 155.01 132.13 155.52 132.49C155.81 132.69 156.13 132.87 156.47 133L156.97 133.23C157.44 133.48 157.9 133.75 158.35 134.05L158.68 134.26C159.17 134.56 159.68 134.84 160.2 135.09C160.56 135.26 160.91 135.46 161.24 135.69L161.8 136.05C162.1 136.22 162.4 136.37 162.72 136.5L163.31 136.76C163.83 137.02 164.35 137.32 164.84 137.63L165.22 137.86L166.21 138.44C167 138.9 167.81 139.37 168.57 139.91C168.96 140.17 169.38 140.38 169.8 140.61C170.39 140.89 170.95 141.23 171.48 141.62C172.48 142.38 173.55 143.05 174.67 143.64L175.23 143.96C175.61 144.15 175.97 144.34 176.33 144.56L176.62 144.76C176.77 144.83 176.91 144.92 177.03 145.05C177.38 145.28 177.71 145.52 178.07 145.72C178.24 145.82 178.43 145.89 178.62 145.96C178.95 146.08 179.26 146.24 179.56 146.43L180.19 146.89C180.48 147.11 180.79 147.33 181.09 147.52C181.75 147.89 182.45 148.16 183.18 148.34C183.63 148.46 184.1 148.6 184.56 148.76L185.17 149.03C185.44 149.17 185.73 149.28 186.02 149.37C186.37 149.46 186.73 149.52 187.07 149.58L187.97 149.76C188.44 149.88 188.9 150.03 189.35 150.2L189.7 150.33C190.2 150.48 190.72 150.55 191.25 150.53L191.39 150.53L192.31 150.53L193.46 150.53C193.92 150.52 194.38 150.56 194.84 150.64C195.86 150.91 196.81 151.42 197.6 152.12L197.94 152.38C198.18 152.56 198.43 152.72 198.69 152.88C198.91 153 199.13 153.14 199.33 153.28C199.66 153.51 199.98 153.76 200.28 154.03L200.63 154.32C201.49 154.96 202.41 155.5 203.39 155.92L204.29 156.35C204.78 156.56 205.25 156.83 205.67 157.15C205.92 157.35 206.14 157.56 206.35 157.8C206.55 158.02 206.78 158.22 207.01 158.41C207.4 158.7 207.73 159.05 207.99 159.45C208.13 159.7 208.36 159.89 208.63 159.98C208.84 160.06 209.02 160.19 209.18 160.34C209.29 160.43 209.39 160.54 209.47 160.65C209.58 160.76 209.65 160.84 209.73 160.91L210.05 161.09L210.48 161.35C210.75 161.53 211.01 161.73 211.25 161.95C211.5 162.16 211.76 162.36 212.03 162.54C212.55 162.89 213.06 163.25 213.59 163.62C214.11 163.99 214.56 164.31 215.05 164.64C215.55 164.97 216.33 165.52 216.96 166.02C217.39 166.34 217.8 166.66 218.25 166.96C219.2 167.59 220.19 168.17 221.2 168.7L221.48 168.85C222.48 169.37 223.41 170.02 224.24 170.78C224.45 170.98 224.64 171.2 224.82 171.42C224.97 171.61 225.13 171.78 225.31 171.95C225.49 172.1 225.69 172.22 225.91 172.3C226.23 172.41 226.53 172.57 226.8 172.76C227.03 172.96 227.24 173.15 227.45 173.36C227.67 173.58 227.9 173.78 228.15 173.97C228.6 174.28 229.06 174.56 229.53 174.82L229.7 174.93C230.53 175.4 231.32 175.93 232.1 176.45L233 177.05L234.65 178.07C235.8 178.74 236.92 179.48 237.98 180.3L238.23 180.49L238.35 182.7L237.12 181.68C236.48 181.15 235.81 180.66 235.1 180.21L232.82 178.75C231.44 177.84 229.91 176.88 228.43 175.98C227.89 175.68 227.37 175.34 226.87 174.96C226.66 174.8 226.46 174.62 226.27 174.42C226.09 174.2 225.87 174.02 225.62 173.87L225.39 173.79C224.98 173.64 224.61 173.42 224.28 173.14C224.04 172.91 223.81 172.66 223.59 172.39C223.43 172.2 223.26 172.01 223.08 171.83C222.25 171.09 221.32 170.47 220.32 169.97C219.16 169.37 218.05 168.68 216.99 167.93L213.74 165.64L213.02 165.1L212.3 164.56L211.66 164.14C211.34 163.95 211.03 163.76 210.74 163.55C210.53 163.39 210.32 163.23 210.12 163.05C209.9 162.85 209.66 162.67 209.4 162.51L209.24 162.42C209.04 162.31 208.84 162.18 208.66 162.04C208.53 161.93 208.41 161.81 208.31 161.67C208.27 161.61 208.22 161.55 208.16 161.5C208.05 161.42 207.94 161.34 207.81 161.28C207.47 161.14 207.16 160.92 206.93 160.63C206.86 160.52 206.78 160.41 206.72 160.3L206.58 160.11C206.45 159.95 206.3 159.81 206.13 159.69L205.85 159.49C205.63 159.29 205.41 159.08 205.22 158.85C205.06 158.67 204.89 158.5 204.71 158.35C204.28 158.04 203.82 157.78 203.32 157.58L202.7 157.29C201.61 156.83 200.59 156.24 199.65 155.52C199.14 155.11 198.6 154.73 198.06 154.36C197.52 153.99 197.18 153.75 196.75 153.42C195.89 152.61 194.79 152.12 193.61 152.04L193.46 152.04L192.38 152.04L191.21 152.04C190.84 152.04 190.48 152.02 190.11 151.97C189.68 151.89 189.25 151.77 188.83 151.61C188.67 151.55 188.51 151.49 188.35 151.45C187.78 151.27 187.2 151.14 186.62 151.04L186.44 151.04C185.9 150.97 185.37 150.83 184.86 150.64L184.49 150.49C184.23 150.37 183.96 150.26 183.69 150.16C183.92 150.43 184.09 150.75 184.19 151.09C184.19 151.18 184.19 151.29 184.31 151.42C184.44 151.54 184.31 151.53 184.81 151.6C185.04 151.63 185.27 151.69 185.5 151.76C186.19 152.04 186.88 152.38 187.49 152.69C187.82 152.84 188.11 153.07 188.35 153.35C188.45 153.45 188.57 153.54 188.71 153.59C188.84 153.64 188.99 153.67 189.13 153.67L190.1 153.67C190.43 153.66 190.77 153.71 191.08 153.82C191.48 153.99 191.85 154.22 192.17 154.51C192.32 154.64 192.49 154.77 192.66 154.87C193.32 155.27 194.03 155.61 194.76 155.87L195.41 156.09C195.88 156.24 196.34 156.43 196.79 156.65C197.18 156.85 197.53 157.08 197.91 157.32C198.21 157.53 198.52 157.72 198.85 157.9C199.43 158.2 199.97 158.56 200.49 158.89L200.96 159.2C201.33 159.43 201.71 159.64 202.11 159.83C202.4 159.98 202.67 160.12 202.95 160.29C203.58 160.65 204.11 161.15 204.53 161.75C204.94 162.29 205.4 162.78 205.91 163.23L206.06 163.38C206.38 163.7 206.67 164.05 206.97 164.38C207.28 164.71 207.41 164.89 207.65 165.12L208.3 165.79C208.63 166.13 208.96 166.46 209.28 166.81C209.75 167.37 210.28 167.87 210.87 168.32C211.56 168.81 212.08 169.21 212.57 169.63C213.18 170.16 213.84 170.62 214.54 171.01C214.99 171.23 215.45 171.43 215.92 171.59C216.23 171.7 216.53 171.83 216.82 171.96C217.27 172.15 217.74 172.31 218.2 172.45L218.96 172.7C219.48 172.91 219.95 173.22 220.35 173.61L220.64 173.86C221 174.15 221.35 174.41 221.73 174.69C222.63 175.3 223.46 176.02 224.2 176.81C224.52 177.17 224.81 177.56 225.1 177.95C225.39 178.33 225.43 178.37 225.61 178.58C225.79 178.79 226 179.05 226.2 179.27C226.41 179.49 226.74 179.88 226.99 180.2C227.46 180.84 227.89 181.52 228.28 182.22C228.69 182.93 229.15 183.62 229.66 184.27C230.49 185.31 231.41 186.31 232.3 187.27L232.95 187.98C233.47 188.54 233.96 189.12 234.41 189.73C234.59 189.99 234.79 190.22 235.02 190.42C235.12 190.5 235.24 190.56 235.37 190.59C235.58 190.67 235.79 190.78 235.99 190.91C236.16 191.04 236.33 191.18 236.47 191.35L236.69 191.56C237.02 191.82 237.37 192.05 237.74 192.25L238.35 192.58C238.83 192.83 239.29 193.13 239.73 193.45C239.83 193.51 239.92 193.59 240.01 193.67L240.2 193.82L240.28 194.2L239.61 194.4L240.28 194.26L240.66 196.14L239.03 194.76C238.91 194.65 238.78 194.55 238.64 194.46C238.29 194.22 237.91 194.02 237.53 193.81L236.73 193.37C236.4 193.17 236.09 192.96 235.78 192.73C235.64 192.61 235.51 192.49 235.38 192.36C235.25 192.22 235.11 192.1 234.95 192L234.73 191.92C234.52 191.84 234.33 191.75 234.15 191.63C233.82 191.37 233.53 191.08 233.29 190.74C232.59 189.83 231.8 188.96 231.04 188.13L229.98 186.94C228.92 185.82 227.99 184.59 227.21 183.27C226.87 182.64 226.5 182.01 226.09 181.43C225.81 181.03 225.49 180.64 225.15 180.28L224.6 179.63L223.94 178.79C223.72 178.51 223.5 178.22 223.26 177.95C222.83 177.43 222.34 176.97 221.8 176.56L219.84 175.03L219.42 174.7C219.08 174.37 218.68 174.12 218.23 173.95C217.58 173.77 216.94 173.54 216.31 173.28C216.01 173.14 215.69 173.01 215.39 172.9C214.88 172.71 214.39 172.5 213.91 172.25C213.22 171.89 212.57 171.47 211.96 171L211.6 170.69C211.13 170.31 210.66 169.93 210.22 169.59C209.39 169.03 208.62 168.37 207.94 167.64ZM171.19 112.26L170.44 112.26L170.26 112.14C170.04 112 169.81 111.88 169.57 111.79L169.21 111.64C168.85 111.46 168.52 111.25 168.21 110.99L167.91 110.77C167.63 110.59 167.33 110.46 167.01 110.38L166.64 110.24C166.36 110.16 166.1 110.05 165.82 109.94L165.09 109.66L164.64 109.51C164.35 109.42 164.06 109.32 163.78 109.21L163.19 108.94C162.87 108.78 162.53 108.64 162.19 108.54L161.82 108.45C161.4 108.41 160.99 108.27 160.65 108.03C160.3 107.78 160.03 107.45 159.86 107.06C159.79 106.91 159.74 106.76 159.69 106.61C159.62 106.38 159.53 106.17 159.41 105.96C159.22 105.67 158.98 105.41 158.71 105.19L158.46 104.95C157.7 104.22 156.99 103.45 156.33 102.63C156.14 102.38 155.91 102.16 155.64 101.99C155.33 101.83 154.99 101.73 154.65 101.68L154.31 101.59C153.9 101.49 153.5 101.34 153.13 101.15L152.42 100.86C152.02 100.68 151.62 100.52 151.22 100.31C150.63 99.98 150.06 99.62 149.52 99.23L148.62 98.62C148.03 98.27 147.42 97.95 146.8 97.66L145.79 97.17C145.4 96.98 144.99 96.84 144.57 96.73C144.24 96.63 143.93 96.49 143.63 96.31L143.29 96.14C142.45 95.73 141.53 95.42 140.66 95.1L140.19 94.93C139.71 94.77 139.24 94.56 138.81 94.37C138.38 94.17 137.73 93.91 137.18 93.73L136.12 93.43L135.81 93.34C135.51 93.34 135.22 93.18 134.93 93.08L134.25 92.86L133.48 92.68L132.76 92.52C132.28 92.38 131.82 92.2 131.38 91.98L131.21 91.91C130.75 91.68 130.26 91.54 129.75 91.48C129.27 91.43 128.82 91.25 128.45 90.95C127.85 90.61 127.19 90.4 126.5 90.36C126.13 90.36 125.75 90.24 125.4 90.15L125.04 90.06C123.89 89.77 122.74 89.48 121.61 89.16L121.18 89.03C120.74 88.91 120.31 88.8 119.9 88.65C119.52 88.52 119.16 88.34 118.82 88.12L118.43 87.9C118.26 87.83 118.08 87.78 117.89 87.73C117.64 87.69 117.4 87.61 117.16 87.51C116.74 87.28 116.39 86.94 116.14 86.53L115.89 86.16L116.07 85.77L116.3 85.37L117.08 85.37L117.29 85.65C117.59 86.05 117.7 86.16 117.96 86.21C118.45 86.3 118.91 86.47 119.34 86.71C120.12 87.14 120.96 87.45 121.83 87.64L122.09 87.71C122.67 87.87 123.27 88.01 123.85 88.16L125.38 88.55C125.8 88.66 126.21 88.72 126.63 88.78C127.25 88.87 127.86 89 128.46 89.19C128.75 89.3 129.02 89.45 129.28 89.63L129.6 89.83C129.79 89.91 129.99 89.95 130.19 89.96C130.47 89.98 130.74 90.03 131 90.11C131.39 90.25 131.75 90.41 132.12 90.58L132.3 90.66C132.82 90.88 133.35 91.04 133.89 91.13C134.53 91.27 135.14 91.47 135.76 91.64C136.13 91.77 136.52 91.88 136.89 91.98C137.61 92.19 138.31 92.45 138.99 92.75L140.03 93.15L141.13 93.57C141.77 93.79 142.4 94.01 143.03 94.26C143.65 94.5 143.95 94.64 144.41 94.88L144.57 94.97C144.7 95.05 144.83 95.11 144.96 95.17L145.25 95.17C145.41 95.19 145.56 95.23 145.71 95.28C146.02 95.39 146.33 95.54 146.62 95.71L146.87 95.83L148.39 96.56C149.09 96.94 149.77 97.36 150.42 97.82L151.05 98.25C151.86 98.74 152.71 99.17 153.6 99.52L153.9 99.66C154.34 99.85 154.81 99.99 155.28 100.09C155.8 100.19 156.3 100.38 156.75 100.67C157.23 101.03 157.65 101.47 158 101.97C158.17 102.17 158.34 102.39 158.52 102.59C158.69 102.78 159.04 103.1 159.3 103.35C159.8 103.77 160.27 104.23 160.68 104.73C160.97 105.15 161.19 105.62 161.33 106.11C161.38 106.28 161.45 106.43 161.54 106.58C161.71 106.67 161.89 106.73 162.08 106.75C162.84 106.94 163.59 107.2 164.3 107.52C164.71 107.67 165.09 107.84 165.49 107.98L166.52 108.36L167.12 108.58L167.55 108.74C167.99 108.86 168.4 109.03 168.8 109.26L169.28 109.62C169.47 109.78 169.67 109.93 169.89 110.05L170.25 110.22C170.61 110.36 170.96 110.55 171.28 110.78L171.7 111.15L171.53 111.62L171.19 112.26ZM104.41 168.79L104.79 168.79C105.44 168.76 106.08 168.89 106.66 169.16C107.42 169.52 108.18 169.86 108.95 170.17C109.27 170.29 109.59 170.37 109.92 170.47C110.31 170.57 110.69 170.7 111.07 170.84C111.76 171.13 112.43 171.45 113.08 171.81L113.73 172.14C114.24 172.38 114.73 172.66 115.2 172.97C115.33 173.08 115.48 173.17 115.64 173.23L115.83 173.23C116.02 173.27 116.2 173.32 116.37 173.39C116.66 173.53 116.93 173.72 117.16 173.94C117.43 174.15 117.73 174.31 118.05 174.42C118.4 174.57 118.77 174.69 119.14 174.8C120 175.03 120.82 175.4 121.55 175.9C121.96 176.22 122.33 176.57 122.67 176.95L122.99 177.3C123.43 177.78 123.89 178.24 124.37 178.68C124.9 179.12 125.49 179.49 126.11 179.78C126.61 180.02 127.08 180.31 127.56 180.59L128.09 180.88C128.46 181.09 128.83 181.28 129.22 181.44L130.07 181.83L130.23 181.93C130.48 182.07 130.74 182.18 131.02 182.26C131.21 182.3 131.41 182.34 131.61 182.35L131.99 182.35C133.5 182.64 134.92 183.3 136.13 184.26C136.79 184.74 137.32 185.1 137.87 185.44C138.49 185.78 139.07 186.17 139.63 186.61C140.11 187.02 140.57 187.46 141.01 187.92C141.53 188.5 142.1 189.02 142.72 189.48C142.98 189.66 143.25 189.82 143.54 189.95C143.83 190.11 144.12 190.27 144.39 190.45C144.9 190.79 145.37 191.19 145.78 191.65C145.92 191.81 146.04 191.97 146.16 192.14C146.34 192.42 146.58 192.67 146.85 192.87C147.03 192.95 147.22 193 147.42 193.02C147.78 193.07 148.12 193.18 148.44 193.34C148.6 193.44 148.75 193.54 148.9 193.66L149.11 193.81C149.32 193.94 149.54 194.06 149.77 194.17L149.95 194.25C150.36 194.47 150.75 194.73 151.11 195.02C151.33 195.19 151.55 195.36 151.77 195.49L152.2 195.74C152.66 195.98 153.09 196.28 153.46 196.64C153.64 196.85 153.82 197.06 153.98 197.29C154.17 197.56 154.38 197.8 154.62 198.02C154.89 198.24 155.2 198.42 155.49 198.62C155.82 198.8 156.14 199.01 156.44 199.24C157.03 199.7 157.55 200.23 158 200.83C158.47 201.45 158.87 202.13 159.21 202.83C159.45 203.35 159.74 203.84 160.05 204.32C160.19 204.52 160.33 204.72 160.48 204.92C160.63 205.11 161 205.66 161.24 206.05C161.59 206.66 161.89 207.3 162.15 207.96L162.15 208.12C162.47 208.86 162.75 209.62 162.96 210.39C163.13 210.93 163.35 211.44 163.64 211.92L163.88 212.36C164.22 213.04 164.45 213.77 164.57 214.52L164.57 214.84C164.57 215.06 164.65 215.28 164.7 215.49C164.75 215.65 164.8 215.81 164.87 215.96C164.94 216.14 165.01 216.32 165.06 216.51C165.19 217.08 165.24 217.66 165.19 218.24L165.19 218.67L165.19 219.4L164.5 219.4L163.75 219.4L163.75 218.28C163.8 217.75 163.75 217.22 163.61 216.72C163.41 216.09 163.25 215.45 163.12 214.8L163.12 214.58C162.99 213.92 162.75 213.3 162.41 212.72C162.02 212.08 161.72 211.38 161.53 210.65C161.34 210.02 161.12 209.41 160.85 208.81L160.75 208.59C160.49 207.89 160.16 207.22 159.76 206.59C159.58 206.33 159.4 206.06 159.21 205.82C159.01 205.57 158.76 205.21 158.57 204.89C158.34 204.51 158.13 204.12 157.95 203.72C157.84 203.49 157.74 203.27 157.62 203.07C157 201.86 156.08 200.84 154.95 200.1L154.67 199.93C154.13 199.63 153.63 199.25 153.2 198.81C153.02 198.62 152.85 198.42 152.71 198.2C152.52 197.92 152.29 197.67 152.02 197.46L151.36 197.06C151 196.86 150.65 196.63 150.32 196.39L150.02 196.14L149.56 195.8L149.08 195.56L148.65 195.36L148.07 194.98C147.84 194.79 147.58 194.65 147.3 194.57C146.7 194.52 146.13 194.29 145.67 193.92C145.39 193.65 145.13 193.36 144.91 193.05C144.77 192.87 144.63 192.69 144.48 192.52C144.12 192.14 143.7 191.81 143.25 191.54L142.82 191.31C142.36 191.07 141.92 190.79 141.51 190.48C140.96 190.05 140.43 189.59 139.94 189.1L139.6 188.75C139.28 188.4 138.94 188.06 138.58 187.76C138.14 187.42 137.67 187.11 137.2 186.83L136.82 186.61C136.37 186.33 135.92 186.03 135.44 185.71C134.72 185.18 133.95 184.71 133.13 184.33C132.51 184.09 131.86 183.93 131.2 183.86C130.56 183.74 129.94 183.52 129.38 183.21L128.52 182.81C128.05 182.59 127.59 182.37 127.14 182.11C126.68 181.84 125.89 181.4 125.24 181.08C124.01 180.42 122.9 179.55 121.97 178.5C121.83 178.36 121.7 178.22 121.58 178.07C121.28 177.73 120.95 177.41 120.59 177.13C120.11 176.81 119.57 176.56 119.01 176.41L118.64 176.29C118.2 176.14 117.74 176 117.26 175.82C116.93 175.68 116.61 175.51 116.32 175.31C116.21 175.24 116.11 175.16 116.01 175.07C115.89 174.95 115.75 174.86 115.59 174.8L115.38 174.8C115.27 174.78 115.16 174.76 115.06 174.71C114.73 174.6 114.43 174.43 114.16 174.22C113.81 173.98 113.43 173.77 113.04 173.59L112.41 173.28C111.76 172.91 111.09 172.58 110.4 172.3C110.2 172.22 109.98 172.16 109.77 172.12L109.4 172.02C109.02 171.91 108.64 171.76 108.18 171.58C107.46 171.29 106.8 170.98 106.07 170.65C105.6 170.43 105.08 170.32 104.56 170.35L104.37 170.35L103.65 170.24L103.65 168.85L104.41 168.79ZM104.12 163.11L104.42 163.25C104.75 163.37 105.06 163.54 105.33 163.77C105.79 164.12 106.3 164.4 106.84 164.6L107.57 164.88C107.74 164.93 107.91 164.96 108.08 164.97L108.44 164.97C108.82 165.05 109.17 165.22 109.46 165.47C109.56 165.56 109.68 165.63 109.8 165.69C109.9 165.72 110.01 165.72 110.11 165.69C110.26 165.7 110.4 165.72 110.54 165.76C110.85 165.83 111.13 165.95 111.39 166.13C111.8 166.39 112.24 166.62 112.68 166.82L113.04 166.99L115.02 168L116.4 168.73C117.44 169.26 118.46 169.68 119.55 170.11L119.87 170.25C120.28 170.42 120.68 170.63 121.04 170.89C121.45 171.23 121.79 171.64 122.04 172.12L122.12 172.27C122.2 172.44 122.32 172.59 122.46 172.71C122.6 172.84 122.77 172.93 122.95 172.99C123.22 173.04 123.49 173.08 123.77 173.11L124.47 173.21L124.87 173.28C125.27 173.35 125.66 173.41 126.06 173.51C126.69 173.7 127.29 173.96 127.86 174.3L128.59 174.7C129.55 175.22 130.56 175.78 131.53 176.41C132.12 176.8 132.64 177.17 133.09 177.53L133.39 177.81C133.63 178.02 133.95 178.31 134.14 178.31L134.28 178.31L134.96 178.31L134.96 178.94L134.96 179.6L134.32 179.71L134.06 179.71C133.64 179.69 133.23 179.54 132.9 179.29C132.65 179.11 132.4 178.9 132.17 178.71L131.61 178.25C130.62 177.51 129.57 176.85 128.46 176.29L127.62 175.83C126.88 175.38 126.07 175.04 125.23 174.82C124.69 174.71 124.14 174.6 123.6 174.55L123.42 174.55C122.95 174.52 122.48 174.42 122.04 174.26C121.52 174.02 121.1 173.63 120.82 173.14L120.67 172.88C120.49 172.51 120.22 172.19 119.9 171.94C119.53 171.73 119.16 171.55 118.76 171.41L118.6 171.34C117.99 171.11 117.4 170.84 116.8 170.57C115.93 170.15 115.06 169.71 114.2 169.27L113.24 168.77C112.67 168.5 112.12 168.21 111.55 167.94L111.39 167.94C111.19 167.86 111 167.76 110.82 167.65L110.56 167.49C110.41 167.37 110.25 167.29 110.07 167.24C109.99 167.23 109.9 167.23 109.81 167.24C109.54 167.23 109.28 167.17 109.04 167.07C108.83 166.97 108.64 166.84 108.47 166.67L108.26 166.52C108.13 166.46 107.98 166.43 107.83 166.44L107.46 166.44C107.15 166.38 106.85 166.28 106.56 166.15L106.15 165.99C105.62 165.81 105.11 165.56 104.64 165.26L104.28 164.97C104.19 164.87 104.08 164.79 103.95 164.72L103.39 164.46L103.03 164.2L102.87 162.57L104.12 163.11ZM163.67 170.71C163.46 170.42 163.28 170.12 163.12 169.81L162.98 169.57C162.81 169.28 162.63 168.99 162.44 168.72L162.29 168.5C161.77 167.74 161.37 166.91 161.11 166.04C161 165.66 160.91 165.29 160.81 164.92C160.54 163.66 160.08 162.46 159.43 161.35C159.07 160.87 158.65 160.44 158.18 160.07L157.62 159.57L157.23 159.2C156.7 158.71 156.19 158.23 155.64 157.81C155.09 157.4 154.26 156.79 153.64 156.3L153.4 156.13C152.96 155.78 152.54 155.41 152.14 155.01C151.97 154.83 151.79 154.65 151.59 154.49C151.25 154.18 150.87 153.93 150.46 153.73C150.11 153.54 149.77 153.33 149.44 153.1C148.92 152.69 148.43 152.25 147.96 151.79L147.32 151.18C146.62 150.56 145.94 149.91 145.25 149.25C145.14 149.14 145.07 149.01 145.03 148.86C145 148.71 145.02 148.56 145.07 148.42L145.32 147.94L145.79 147.94L146.12 147.94L146.33 148.14C147.02 148.83 147.71 149.52 148.47 150.16L149.09 150.74C149.51 151.2 149.97 151.61 150.47 151.97C150.69 152.12 150.93 152.25 151.15 152.37C151.69 152.64 152.19 152.98 152.64 153.38L153.09 153.81C153.51 154.25 153.97 154.66 154.47 155.04C155.19 155.56 155.85 156.09 156.59 156.65C157.34 157.22 157.63 157.57 158.13 158.03L158.64 158.52L159.14 158.95C159.64 159.36 160.11 159.82 160.52 160.33C160.91 160.9 161.23 161.53 161.46 162.18L161.6 162.53C161.87 163.23 162.09 163.95 162.25 164.68L162.36 165.12C162.55 165.96 162.89 166.75 163.35 167.47L163.6 167.83L164.07 168.54L164.35 169.05C164.46 169.24 164.55 169.44 164.68 169.61C165.14 170.23 165.71 170.75 166.35 171.18C166.83 171.55 167.3 171.96 167.73 172.39L168.3 172.9C168.57 173.15 168.86 173.37 169.15 173.61C169.57 173.92 169.97 174.25 170.34 174.62L171.07 175.33C171.43 175.72 171.81 176.09 172.21 176.45C172.61 176.81 172.77 176.99 173.06 177.28C173.37 177.61 173.7 177.93 174.05 178.22C174.64 178.75 175.15 179.36 175.55 180.05C175.75 180.34 175.95 180.61 176.16 180.89C176.5 181.37 176.86 181.86 177.17 182.38C177.35 182.67 177.51 182.98 177.68 183.28C177.93 183.79 178.23 184.28 178.56 184.74C178.76 185.02 178.98 185.3 179.2 185.56C179.55 185.96 179.87 186.39 180.17 186.83L180.68 187.65C181.01 188.17 181.33 188.7 181.69 189.19C182.05 189.69 182.16 189.8 182.4 190.09C182.75 190.48 183.06 190.89 183.34 191.32C183.54 191.61 183.72 191.93 183.9 192.23C184.16 192.71 184.46 193.17 184.78 193.61C185.28 194.2 185.8 194.76 186.36 195.29L186.47 195.38C187.05 195.96 187.59 196.57 188.1 197.15C188.68 197.86 189.31 198.52 189.98 199.16C190.35 199.49 190.75 199.8 191.15 200.12C192.08 200.79 192.91 201.59 193.6 202.5C193.85 202.86 194.12 203.2 194.41 203.54C194.69 203.85 194.95 204.17 195.2 204.5C195.66 205.19 196.07 205.91 196.4 206.67L196.48 206.87C196.76 207.33 197 207.81 197.22 208.3C197.35 208.7 197.49 209.1 197.67 209.5C197.88 209.92 198.12 210.32 198.39 210.69L198.94 211.55L199.05 211.76C199.48 212.43 199.83 213.14 200.1 213.88C200.34 214.75 200.43 215.65 200.35 216.55C200.28 217.3 200.37 218.06 200.64 218.76C200.79 219.05 200.95 219.33 201.14 219.59C201.28 219.82 201.39 220.06 201.49 220.31C201.49 220.45 201.61 220.6 201.68 220.72C201.97 221.19 202.3 221.63 202.66 222.04L203.27 222.78C203.83 223.54 204.42 224.29 204.94 225.06L205.19 225.41C205.59 225.93 205.92 226.49 206.18 227.09C206.39 227.54 206.65 227.95 206.96 228.32C207.18 228.61 207.39 228.9 207.58 229.21C207.95 229.86 208.41 230.46 208.96 230.98L209.33 231.38L209.17 231.82L208.92 232.32L208.13 232.32L207.94 232.15C207.31 231.55 206.77 230.86 206.34 230.11C206.17 229.83 205.98 229.57 205.78 229.32C205.49 228.94 205.22 228.54 204.98 228.13C204.89 227.95 204.81 227.77 204.75 227.58C204.7 227.44 204.64 227.31 204.58 227.18C204.45 226.96 204.3 226.75 204.14 226.55L203.83 226.15C203.32 225.42 202.8 224.69 202.26 223.98L201.61 223.18C201.24 222.71 200.85 222.26 200.52 221.8C200.37 221.57 200.25 221.33 200.16 221.07L200.02 220.74C199.93 220.57 199.83 220.41 199.72 220.25C199.59 220.07 199.48 219.89 199.37 219.7C198.92 218.71 198.73 217.61 198.83 216.52C198.87 215.96 198.84 215.39 198.75 214.84C198.58 214.16 198.3 213.52 197.92 212.93L197.73 212.57C197.55 212.27 197.35 211.96 197.15 211.67C196.87 211.28 196.61 210.87 196.39 210.44C196.17 209.99 195.98 209.53 195.82 209.06C195.7 208.66 195.55 208.26 195.38 207.87L195.25 207.63C194.95 206.93 194.59 206.26 194.19 205.62C193.96 205.3 193.71 204.99 193.44 204.7C193.15 204.36 192.88 204.03 192.63 203.69C192.2 203.07 191.68 202.52 191.08 202.06C189.64 200.96 188.33 199.7 187.16 198.31C186.64 197.68 186.08 197.09 185.49 196.53C184.85 195.93 184.24 195.29 183.68 194.62C183.31 194.13 182.98 193.61 182.68 193.08L182.31 192.44C182.02 192.01 181.71 191.59 181.37 191.2C181.13 190.93 180.91 190.66 180.71 190.38C180.29 189.83 179.93 189.23 179.57 188.65L179.14 187.98C178.82 187.5 178.47 187.03 178.09 186.6L177.6 185.96C177.19 185.4 176.83 184.81 176.5 184.21C176.38 183.97 176.26 183.74 176.12 183.5C175.77 182.92 175.39 182.38 174.99 181.82L174.61 181.29C174.49 181.12 174.38 180.94 174.27 180.77C174.16 180.59 174.03 180.39 173.89 180.21C173.68 179.94 173.43 179.7 173.16 179.49C172.78 179.17 172.42 178.83 172.08 178.47C171.83 178.21 171.59 177.96 171.32 177.73C171.06 177.49 170.54 176.95 170.15 176.55L169.32 175.74C169 175.45 168.67 175.17 168.33 174.92C168.02 174.67 167.72 174.44 167.43 174.17L166.96 173.76C166.43 173.27 165.87 172.81 165.29 172.38C164.66 171.91 164.11 171.35 163.67 170.71Z" fill="#EEDAAE" fill-opacity="1.000000" fill-rule="nonzero"/>
	<path id="Vector" d="" fill="#FFFFFF" fill-opacity="1.000000" fill-rule="nonzero"/>
	<path id="Vector" d="M73.13 176.69C73.18 176.29 73.37 175.93 73.66 175.65C74.38 175.11 75.23 176.05 75.57 176.59C76.14 177.58 76.6 178.63 76.95 179.72C77.23 180.3 77.48 180.91 77.68 181.53C77.86 182.19 77.96 182.88 77.99 183.57C77.99 184.47 77.99 185.38 77.99 186.33C77.99 186.82 77.99 187.31 77.99 187.8C77.99 188.28 78.18 188.79 78.27 189.29C78.38 190.26 78.4 191.23 78.35 192.21C78.35 192.65 78.35 193.09 78.35 193.59C78.35 194.13 78.35 194.65 78.35 195.19C78.35 195.22 78.34 195.24 78.33 195.26C78.31 195.28 78.29 195.29 78.27 195.3L78.27 195.37L78.17 195.37L78.17 195.29C78.16 195.27 78.16 195.26 78.16 195.24C78.16 195.22 78.16 195.2 78.17 195.19C78.02 194.47 77.78 193.77 77.46 193.1C77.39 192.37 77.26 191.64 77.06 190.92C76.77 190.22 76.15 189.83 75.68 189.24C75.51 189.02 75.39 188.76 75.34 188.49C75.35 188.12 75.31 187.75 75.24 187.38C75.13 187.08 74.92 186.8 74.8 186.51C74.64 186.15 74.51 185.78 74.41 185.41C74.19 184.65 74.05 183.87 73.89 183.1C73.34 181.61 72.99 180.06 72.85 178.49C72.88 177.88 72.97 177.28 73.13 176.69Z" fill="#FFFFFF" fill-opacity="1.000000" fill-rule="nonzero"/>
	<path id="Vector" d="M88.84 172.03C88.79 171.68 88.81 171.32 88.92 170.98C89.18 170.28 89.64 169.6 89.9 168.95C90.09 168.17 90.21 167.37 90.27 166.56C90.48 165.85 90.77 165.18 91.14 164.54C91.52 163.81 91.81 163 92.12 162.22C92.44 161.45 92.39 160.95 92.61 160.33C92.85 159.86 93.11 159.39 93.39 158.95C93.73 158.27 94.32 157.01 95.3 157.3C96.02 157.51 96.26 158.53 96.38 159.16C96.63 160.1 96.63 161.1 96.38 162.04C95.8 163.32 94.99 164.48 94 165.47C93.49 166.19 93.09 166.99 92.81 167.83C92.73 168.05 92.64 168.26 92.54 168.48C92.55 168.48 92.57 168.48 92.58 168.49C92.6 168.49 92.61 168.5 92.62 168.52C92.63 168.53 92.63 168.55 92.63 168.56C92.63 168.58 92.63 168.59 92.62 168.61C92.47 169 92.24 169.35 91.94 169.66L91.82 169.9C91.52 170.43 91.18 170.94 90.84 171.45C90.73 171.66 90.61 171.85 90.47 172.03C90.35 172.18 90.23 172.31 90.09 172.43C89.83 172.75 89.54 173.06 89.24 173.35C88.91 174.09 88.67 174.87 88.53 175.67C88.52 175.7 88.49 175.72 88.46 175.73C88.44 175.75 88.4 175.75 88.37 175.74C88.34 175.73 88.31 175.71 88.29 175.69C88.28 175.66 88.27 175.63 88.27 175.6C88.52 174.81 88.39 173.97 88.61 173.18C88.75 172.81 88.82 172.42 88.84 172.03Z" fill="#FFFFFF" fill-opacity="1.000000" fill-rule="nonzero"/>
	<path id="Vector" d="M61.39 194.31C61.49 194.03 61.73 194 61.98 194.04C62.45 194.12 62.89 194.31 63.27 194.6C63.68 194.86 64.07 195.14 64.45 195.45C64.45 195.45 64.45 195.38 64.53 195.38C64.96 195.38 65.17 195.78 65.33 196.13C65.45 196.34 65.58 196.54 65.73 196.72L66.01 197.01C66.22 197.22 66.45 197.39 66.71 197.53C67.23 197.84 67.69 198.24 68.1 198.69C68.61 199.03 69.01 199.51 69.26 200.07C69.26 200.16 69.17 200.25 69.1 200.19C68.85 200.01 68.59 199.85 68.32 199.71C67.96 199.53 67.53 199.51 67.16 199.36C66.54 199.04 65.96 198.66 65.4 198.24C65.13 198.07 64.83 197.96 64.52 197.91C64.33 197.88 64.16 197.8 64.02 197.68C63.48 197.24 62.93 196.82 62.44 196.3C62.14 195.98 61.87 195.64 61.63 195.27C61.51 195 61.28 194.61 61.39 194.31Z" fill="#FFFFFF" fill-opacity="1.000000" fill-rule="nonzero"/>
	<path id="Vector" d="M112.93 189.72C113.2 189.57 113.5 189.51 113.76 189.37C114.02 189.24 114.3 189.13 114.58 189.04C115.19 188.74 115.84 188.54 116.51 188.45C116.83 188.46 117.15 188.49 117.46 188.56C117.85 188.56 118.25 188.56 118.64 188.56C119.1 188.64 119.53 188.86 119.88 189.18C120.09 189.33 120.46 189.61 120.39 189.93C120.32 190.24 119.83 190.23 119.56 190.16C119.26 190.07 118.95 190.01 118.64 189.98C118.29 190.02 117.93 190.02 117.58 189.98C117.15 189.86 116.7 189.82 116.26 189.86C115.8 189.91 115.33 190 114.88 190.12C114.48 190.2 114.07 190.12 113.67 190.27C113.23 190.38 112.81 190.52 112.39 190.69C112.39 190.78 112.21 190.75 112.23 190.69C112.24 190.34 112.68 189.91 112.93 189.72Z" fill="#FFFFFF" fill-opacity="1.000000" fill-rule="nonzero"/>
	<path id="Vector" d="M79.61 35.15L79.61 35.22C79.69 35.15 79.61 35.15 79.61 35.15Z" fill="#202147" fill-opacity="1.000000" fill-rule="evenodd"/>
	<path id="Vector" d="M74.88 47.49C74.9 47.41 74.94 47.33 74.98 47.26C75.04 47.16 75.13 47.08 75.24 47.02L75.56 46.86C75.76 46.78 75.96 46.68 76.15 46.56L76.25 46.46C76.33 46.38 76.44 46.34 76.56 46.34C76.67 46.34 76.79 46.38 76.87 46.46C76.95 46.55 77 46.66 77 46.77C77 46.89 76.95 47 76.87 47.08C76.58 47.35 76.23 47.55 75.85 47.67L75.96 47.67L75.68 47.8C75.61 47.85 75.54 47.89 75.46 47.93C75.41 47.92 75.37 47.92 75.32 47.93C75.26 47.94 75.2 47.95 75.13 47.93C75.07 47.91 75.02 47.88 74.97 47.84C74.93 47.79 74.9 47.73 74.88 47.67C74.86 47.61 74.86 47.55 74.88 47.49Z" fill="#FFFFFF" fill-opacity="1.000000" fill-rule="nonzero"/>
	<path id="Vector" d="M57.66 36.83C57.68 36.8 57.7 36.77 57.74 36.74C57.77 36.72 57.8 36.71 57.84 36.71C57.88 36.71 57.92 36.72 57.95 36.74C57.98 36.77 58.01 36.8 58.02 36.83L58.02 36.9C58.07 36.97 58.1 37.04 58.13 37.11L58.13 37.19L58.24 37.36L58.38 37.51L58.67 37.77C58.7 37.8 58.73 37.83 58.74 37.87C58.76 37.91 58.77 37.95 58.77 37.99C58.77 38.03 58.76 38.07 58.74 38.1C58.73 38.14 58.7 38.17 58.67 38.2C58.62 38.25 58.54 38.28 58.47 38.28C58.39 38.28 58.31 38.25 58.26 38.2C58.02 38.01 57.82 37.78 57.65 37.52C57.57 37.39 57.5 37.25 57.44 37.11C57.5 37 57.58 36.91 57.66 36.83Z" fill="#FFFFFF" fill-opacity="1.000000" fill-rule="nonzero"/>
	<path id="Vector" d="M54.72 29.79C54.83 29.88 54.91 29.98 54.98 30.1L55.19 30.44C55.26 30.56 55.31 30.7 55.34 30.84C55.38 30.98 55.41 31.12 55.43 31.26C55.42 31.33 55.4 31.39 55.36 31.43C55.32 31.48 55.27 31.51 55.2 31.53C55.14 31.53 55.08 31.52 55.03 31.48C54.97 31.45 54.93 31.39 54.91 31.33C54.89 31.21 54.85 31.1 54.8 30.99L54.8 30.85C54.81 30.79 54.81 30.73 54.8 30.67C54.77 30.56 54.74 30.45 54.69 30.34C54.64 30.22 54.6 30.1 54.6 29.97C54.59 29.93 54.6 29.89 54.63 29.85C54.65 29.82 54.68 29.8 54.72 29.79Z" fill="#FFFFFF" fill-opacity="1.000000" fill-rule="nonzero"/>
	<path id="Vector" d="" fill="#FFFFFF" fill-opacity="1.000000" fill-rule="nonzero"/>
	<path id="Vector" d="M55.05 19.12C55.08 19.1 55.11 19.09 55.15 19.09C55.18 19.09 55.22 19.1 55.25 19.12C55.33 19.19 55.43 19.24 55.49 19.31L55.7 19.52L56.12 19.92C56.14 19.94 56.16 19.96 56.17 19.99C56.19 20.01 56.2 20.04 56.2 20.07C56.2 20.1 56.2 20.13 56.19 20.16C56.18 20.19 56.16 20.21 56.14 20.23C56.12 20.25 56.09 20.27 56.06 20.28C56.04 20.29 56.01 20.29 55.98 20.29C55.95 20.29 55.92 20.28 55.89 20.27C55.87 20.25 55.84 20.23 55.83 20.21L55.43 19.8L55.23 19.59C55.16 19.51 55.09 19.43 55.03 19.34C55 19.31 54.99 19.27 55 19.22C55 19.18 55.02 19.15 55.05 19.12Z" fill="#FFFFFF" fill-opacity="1.000000" fill-rule="nonzero"/>
	<path id="Vector" d="M56.88 28.68C56.91 28.65 56.96 28.63 57.01 28.63C57.07 28.63 57.11 28.65 57.15 28.68C57.25 28.75 57.34 28.82 57.43 28.9C57.51 29 57.58 29.11 57.64 29.22C57.77 29.44 57.83 29.69 57.83 29.94C57.83 29.97 57.83 30.01 57.82 30.04C57.8 30.07 57.79 30.1 57.76 30.12C57.74 30.15 57.71 30.17 57.68 30.18C57.65 30.19 57.62 30.2 57.58 30.2C57.55 30.2 57.51 30.2 57.48 30.18C57.45 30.17 57.42 30.15 57.39 30.13C57.37 30.1 57.35 30.07 57.33 30.04C57.32 30.01 57.32 29.97 57.32 29.94C57.33 29.9 57.33 29.85 57.32 29.81C57.32 29.77 57.32 29.72 57.32 29.68C57.32 29.68 57.32 29.68 57.32 29.61L57.15 29.34L57.07 29.23C57 29.26 56.92 29.25 56.85 29.22C56.78 29.19 56.72 29.13 56.7 29.05C56.67 28.98 56.68 28.9 56.71 28.83C56.74 28.76 56.8 28.71 56.88 28.68Z" fill="#FFFFFF" fill-opacity="1.000000" fill-rule="nonzero"/>
	<path id="Vector" d="M54.32 27.91L54.62 27.91L55.44 27.91C55.49 27.91 55.55 27.93 55.59 27.97C55.63 28.01 55.65 28.06 55.65 28.11C55.65 28.17 55.63 28.22 55.59 28.26C55.55 28.3 55.49 28.32 55.44 28.32L54.62 28.32L54.32 28.32C54.32 28.32 54.21 28.24 54.21 28.18C54.19 28.16 54.18 28.13 54.17 28.1C54.16 28.07 54.17 28.04 54.18 28.01C54.19 27.98 54.21 27.96 54.23 27.94C54.26 27.92 54.29 27.91 54.32 27.91Z" fill="#FFFFFF" fill-opacity="1.000000" fill-rule="nonzero"/>
	<path id="Vector" d="M57.66 26.26C58.05 26.36 58.15 26.8 58.19 27.15C58.19 27.22 58.19 27.28 58.19 27.37C58.18 27.4 58.18 27.43 58.19 27.46C58.18 27.5 58.18 27.54 58.19 27.58C58.19 27.6 58.19 27.63 58.19 27.66C58.23 27.72 58.25 27.79 58.24 27.87C58.24 27.94 58.21 28.01 58.15 28.06C58.1 28.12 58.03 28.15 57.96 28.16C57.88 28.16 57.81 28.14 57.75 28.1C57.62 27.95 57.54 27.78 57.5 27.59C57.48 27.42 57.48 27.26 57.5 27.09C57.51 27.02 57.51 26.95 57.5 26.88L57.5 26.73C57.5 26.7 57.5 26.66 57.5 26.62L57.5 26.51C57.49 26.48 57.49 26.46 57.5 26.43C57.5 26.4 57.51 26.37 57.53 26.35C57.54 26.33 57.56 26.31 57.59 26.29C57.61 26.28 57.64 26.27 57.66 26.26Z" fill="#FFFFFF" fill-opacity="1.000000" fill-rule="nonzero"/>
	<path id="Vector" d="M79.22 16.62C79.21 16.56 79.21 16.5 79.22 16.44C79.25 16.39 79.29 16.35 79.34 16.33C79.39 16.31 79.44 16.3 79.5 16.31C79.55 16.33 79.6 16.36 79.63 16.41C79.67 16.45 79.69 16.51 79.69 16.56L79.69 16.66C79.7 16.7 79.7 16.74 79.69 16.78C79.68 16.83 79.68 16.87 79.69 16.91L79.69 17.02L79.81 17.28C79.84 17.36 79.84 17.44 79.81 17.52C79.78 17.59 79.73 17.66 79.66 17.71C79.58 17.74 79.5 17.74 79.43 17.71C79.35 17.68 79.28 17.63 79.23 17.56C79.14 17.36 79.06 17.16 79 16.95C78.98 16.84 78.98 16.73 79 16.62C79.07 16.6 79.15 16.6 79.22 16.62Z" fill="#FFFFFF" fill-opacity="1.000000" fill-rule="nonzero"/>
	<path id="Vector" d="M76.43 17.81L76.52 17.65L76.52 17.56C76.55 17.49 76.58 17.42 76.62 17.36L76.62 17.28C76.72 17 76.87 16.74 77.08 16.52C77.12 16.48 77.18 16.45 77.24 16.45C77.3 16.45 77.36 16.48 77.41 16.52C77.45 16.57 77.48 16.63 77.48 16.69C77.48 16.76 77.45 16.82 77.41 16.87C77.4 16.89 77.4 16.91 77.41 16.94C77.36 16.99 77.33 17.05 77.3 17.12C77.23 17.23 77.17 17.35 77.13 17.47C77.08 17.61 77.02 17.73 76.94 17.85C76.86 17.96 76.75 18.05 76.63 18.12C76.59 18.15 76.54 18.16 76.49 18.15C76.44 18.14 76.4 18.11 76.37 18.07C76.34 18.03 76.34 17.98 76.35 17.93C76.36 17.88 76.39 17.83 76.43 17.81Z" fill="#FFFFFF" fill-opacity="1.000000" fill-rule="nonzero"/>
	<path id="Vector" d="M78.39 13.48C78.4 13.47 78.41 13.47 78.42 13.46C78.43 13.46 78.44 13.45 78.45 13.45C78.46 13.45 78.48 13.46 78.49 13.46C78.5 13.47 78.51 13.47 78.51 13.48C78.61 13.59 78.71 13.69 78.82 13.79C78.83 13.79 78.84 13.79 78.85 13.79C78.86 13.79 78.88 13.79 78.89 13.79C78.94 13.8 78.99 13.8 79.04 13.79C79.09 13.8 79.14 13.84 79.16 13.88C79.18 13.91 79.19 13.94 79.19 13.97C79.19 14 79.19 14.03 79.18 14.06C79.17 14.09 79.16 14.12 79.14 14.14C79.12 14.17 79.09 14.19 79.07 14.2C79.04 14.21 79 14.22 78.97 14.22C78.94 14.22 78.9 14.21 78.87 14.2C78.74 14.13 78.62 14.03 78.54 13.9C78.47 13.79 78.43 13.65 78.36 13.52C78.37 13.51 78.38 13.49 78.39 13.48Z" fill="#FFFFFF" fill-opacity="1.000000" fill-rule="nonzero"/>
	<path id="Vector" d="M76.08 11.82L76.08 11.6C76.08 11.56 76.08 11.51 76.08 11.46C76.09 11.43 76.11 11.39 76.14 11.37C76.17 11.35 76.21 11.33 76.25 11.33C76.29 11.33 76.33 11.34 76.36 11.36C76.39 11.39 76.41 11.43 76.41 11.46C76.41 11.46 76.41 11.56 76.41 11.6L76.41 11.82L76.41 12.28C76.44 12.34 76.44 12.4 76.41 12.46C76.36 12.51 76.29 12.54 76.22 12.54C76.15 12.53 76.09 12.5 76.04 12.46C76.02 12.44 76 12.41 75.98 12.38C75.97 12.35 75.97 12.31 75.97 12.28L76.08 11.82Z" fill="#FFFFFF" fill-opacity="1.000000" fill-rule="nonzero"/>
	<path id="Vector" d="M69.41 14.21C69.47 14.17 69.53 14.13 69.6 14.1L69.68 14.1C69.79 14.05 69.89 13.98 69.99 13.91C70.21 13.73 70.47 13.62 70.75 13.56C70.86 13.52 70.97 13.52 71.08 13.56C71.13 13.59 71.17 13.63 71.21 13.67C71.24 13.72 71.26 13.77 71.27 13.83C71.3 13.88 71.31 13.94 71.31 13.99C71.31 14.05 71.3 14.11 71.27 14.16C71.22 14.25 71.13 14.32 71.03 14.35C70.83 14.39 70.63 14.45 70.44 14.53L70.54 14.53C70.38 14.61 70.22 14.68 70.04 14.74L69.84 14.74C69.75 14.75 69.66 14.75 69.57 14.74L69.42 14.67C69.39 14.64 69.36 14.61 69.34 14.57C69.32 14.53 69.31 14.49 69.3 14.45C69.3 14.4 69.31 14.36 69.33 14.32C69.35 14.28 69.37 14.24 69.41 14.21Z" fill="#FFFFFF" fill-opacity="1.000000" fill-rule="nonzero"/>
	<path id="Vector" d="M69.48 19.09C69.59 18.98 69.7 18.87 69.82 18.77C69.92 18.69 70.01 18.61 70.1 18.51C70.14 18.46 70.17 18.4 70.2 18.35L70.2 18.23C70.2 18.14 70.2 18.05 70.2 17.96C70.21 17.92 70.22 17.89 70.24 17.86C70.27 17.83 70.3 17.81 70.33 17.79C70.36 17.77 70.4 17.76 70.43 17.76C70.47 17.75 70.51 17.75 70.54 17.77C70.61 17.78 70.68 17.83 70.71 17.9C70.75 17.96 70.77 18.04 70.75 18.11C70.68 18.45 70.52 18.77 70.29 19.02C70.05 19.22 69.79 19.39 69.51 19.53C69.45 19.54 69.39 19.52 69.34 19.48C69.3 19.44 69.27 19.39 69.27 19.33C69.27 19.27 69.29 19.21 69.33 19.17C69.36 19.12 69.42 19.1 69.48 19.09Z" fill="#FFFFFF" fill-opacity="1.000000" fill-rule="nonzero"/>
	<path id="Vector" d="M69.41 10.46C69.4 10.43 69.4 10.39 69.41 10.36C69.42 10.33 69.43 10.31 69.45 10.28C69.47 10.26 69.5 10.24 69.53 10.23C69.55 10.21 69.58 10.21 69.62 10.21C69.67 10.19 69.74 10.19 69.8 10.21L69.91 10.3C69.96 10.35 70.01 10.41 70.04 10.47C70.09 10.53 70.12 10.6 70.14 10.68C70.15 10.75 70.15 10.83 70.14 10.91C70.15 10.95 70.15 10.99 70.14 11.04C70.15 11.07 70.15 11.1 70.14 11.13C70.08 11.19 70 11.23 69.92 11.23C69.88 11.23 69.84 11.22 69.8 11.21C69.76 11.19 69.73 11.16 69.7 11.13C69.64 11.07 69.61 10.99 69.6 10.91C69.61 10.87 69.61 10.82 69.6 10.77C69.6 10.77 69.6 10.77 69.6 10.69L69.53 10.58C69.49 10.54 69.45 10.49 69.44 10.43L69.41 10.46Z" fill="#FFFFFF" fill-opacity="1.000000" fill-rule="nonzero"/>
	<path id="Vector" d="M67.7 16.41L67.82 16.34L68.05 16.19C68.24 16.07 68.47 16.01 68.69 16.01C68.74 16.01 68.78 16.02 68.83 16.03C68.87 16.05 68.91 16.08 68.94 16.11C68.97 16.15 68.99 16.19 69 16.23C69.01 16.28 69.02 16.32 69.01 16.37C69 16.42 68.99 16.46 68.97 16.5C68.94 16.54 68.91 16.57 68.87 16.6C68.83 16.63 68.79 16.65 68.74 16.65C68.7 16.66 68.65 16.66 68.61 16.65L68.48 16.65L68.36 16.65L68.14 16.65C67.98 16.7 67.81 16.74 67.64 16.74C67.6 16.74 67.56 16.71 67.53 16.67C67.5 16.64 67.49 16.59 67.5 16.55C67.51 16.51 67.53 16.47 67.57 16.44C67.61 16.41 67.65 16.4 67.7 16.41Z" fill="#FFFFFF" fill-opacity="1.000000" fill-rule="nonzero"/>
	<path id="Vector" d="M66.67 12.63L67.74 12.53C67.77 12.53 67.81 12.54 67.85 12.55C67.88 12.57 67.91 12.59 67.94 12.61C67.96 12.64 67.98 12.67 68 12.71C68.01 12.74 68.01 12.78 68.01 12.82C68.01 12.89 67.98 12.96 67.93 13.01C67.88 13.07 67.81 13.09 67.74 13.09L66.67 13.01C66.56 13.01 66.47 12.93 66.48 12.82C66.48 12.79 66.48 12.77 66.49 12.74C66.5 12.72 66.51 12.7 66.53 12.68C66.55 12.66 66.57 12.64 66.6 12.64C66.62 12.63 66.65 12.62 66.67 12.63Z" fill="#FFFFFF" fill-opacity="1.000000" fill-rule="nonzero"/>
	<path id="Vector" d="M89.44 23.26C89.5 23.28 89.55 23.31 89.6 23.35L89.72 23.44L89.94 23.64L90.08 23.73L90.08 23.8L90.18 23.89L90.31 23.96L90.4 23.96C90.49 23.96 90.59 24 90.66 24.07C90.73 24.14 90.77 24.23 90.77 24.33C90.77 24.42 90.73 24.52 90.66 24.58C90.59 24.65 90.49 24.69 90.4 24.69C90.24 24.68 90.08 24.65 89.93 24.58C89.78 24.51 89.65 24.42 89.54 24.3C89.43 24.2 89.34 24.08 89.26 23.94L89.17 23.79C89.15 23.73 89.15 23.66 89.17 23.6C89.15 23.55 89.15 23.51 89.15 23.47C89.16 23.42 89.18 23.38 89.21 23.35C89.24 23.32 89.27 23.29 89.31 23.28C89.36 23.26 89.4 23.26 89.44 23.26Z" fill="#FFFFFF" fill-opacity="1.000000" fill-rule="nonzero"/>
	<path id="Vector" d="M83.85 22.49C84.06 22.57 84.25 22.69 84.41 22.84L84.65 22.99L84.81 23.14L85.04 23.29L85.17 23.29L85.31 23.29L85.41 23.29C85.54 23.31 85.68 23.31 85.81 23.29C85.91 23.29 86.01 23.33 86.08 23.4C86.15 23.47 86.19 23.56 86.2 23.66C86.19 23.77 86.15 23.86 86.08 23.93C86.01 24.01 85.91 24.05 85.81 24.05C85.33 24.12 84.84 24 84.43 23.73C84.24 23.61 84.08 23.45 83.94 23.28L83.74 23.03C83.64 22.94 83.56 22.83 83.5 22.71C83.5 22.67 83.51 22.63 83.53 22.59C83.55 22.55 83.57 22.52 83.61 22.5C83.65 22.48 83.69 22.46 83.73 22.46C83.77 22.46 83.81 22.47 83.85 22.49Z" fill="#FFFFFF" fill-opacity="1.000000" fill-rule="nonzero"/>
	<path id="Vector" d="M37.23 39.13L37.31 39.13C37.5 39.19 37.67 39.28 37.82 39.4C38.12 39.66 38.4 39.94 38.65 40.25C38.7 40.3 38.72 40.36 38.72 40.43C38.72 40.5 38.7 40.57 38.65 40.62C38.6 40.66 38.53 40.69 38.47 40.69C38.4 40.69 38.33 40.66 38.28 40.62L37.86 40.18L37.64 39.97C37.61 39.93 37.58 39.9 37.55 39.87L37.44 39.87L37.23 39.79C37.13 39.76 37.03 39.7 36.95 39.62C36.88 39.53 36.83 39.43 36.8 39.32C36.77 39.26 36.77 39.2 36.79 39.14C36.82 39.08 36.86 39.03 36.92 39.01C36.97 38.98 37.04 38.98 37.1 39C37.16 39.03 37.2 39.07 37.23 39.13Z" fill="#FFFFFF" fill-opacity="1.000000" fill-rule="nonzero"/>
	<path id="Vector" d="M31.41 27.2C31.6 27.13 31.77 27.03 31.94 26.91C32.11 26.79 32.3 26.68 32.5 26.61C32.95 26.45 33.41 26.34 33.88 26.28C33.91 26.27 33.94 26.27 33.97 26.27C34 26.27 34.03 26.28 34.06 26.3C34.08 26.31 34.11 26.34 34.12 26.36C34.14 26.38 34.15 26.41 34.16 26.44C34.17 26.47 34.18 26.5 34.17 26.53C34.17 26.56 34.16 26.59 34.15 26.62C34.13 26.64 34.11 26.66 34.09 26.68C34.07 26.7 34.04 26.71 34.01 26.72C33.54 26.77 33.08 26.87 32.63 27.02C32.45 27.02 32.28 27.2 32.1 27.28C31.91 27.39 31.7 27.43 31.48 27.41C31.41 27.4 31.41 27.3 31.41 27.2Z" fill="#FFFFFF" fill-opacity="1.000000" fill-rule="nonzero"/>
	<path id="Vector" d="M31.2 21.77C31.25 21.73 31.3 21.71 31.36 21.71C31.42 21.71 31.48 21.73 31.52 21.77L31.81 22.01C31.91 22.09 32 22.18 32.09 22.27L32.64 22.81C32.69 22.86 32.72 22.93 32.72 23C32.72 23.07 32.69 23.14 32.64 23.2C32.62 23.22 32.58 23.24 32.55 23.26C32.52 23.27 32.48 23.28 32.44 23.28C32.4 23.28 32.37 23.27 32.33 23.26C32.3 23.24 32.27 23.22 32.24 23.2L31.72 22.66C31.62 22.58 31.53 22.49 31.45 22.39L31.2 22.09C31.16 22.05 31.14 21.99 31.14 21.93C31.14 21.87 31.16 21.82 31.2 21.77Z" fill="#FFFFFF" fill-opacity="1.000000" fill-rule="nonzero"/>
	<path id="Vector" d="M43.05 20.94C43.06 20.88 43.09 20.83 43.14 20.79C43.19 20.75 43.25 20.73 43.31 20.74C43.37 20.73 43.43 20.75 43.48 20.79C43.53 20.83 43.57 20.88 43.58 20.94C43.59 21 43.59 21.06 43.58 21.12L43.58 21.04C43.58 21.08 43.58 21.12 43.58 21.16L43.75 21.32C43.96 21.46 44.18 21.59 44.41 21.7C44.48 21.75 44.54 21.82 44.56 21.9C44.58 21.98 44.57 22.07 44.52 22.15C44.48 22.22 44.41 22.27 44.33 22.3C44.25 22.32 44.16 22.31 44.08 22.27C43.89 22.17 43.7 22.08 43.52 21.97C43.28 21.83 43.09 21.64 42.95 21.41C42.9 21.31 42.87 21.21 42.87 21.09C42.92 21.04 42.98 20.98 43.05 20.94Z" fill="#FFFFFF" fill-opacity="1.000000" fill-rule="nonzero"/>
	<path id="Vector" d="M58.73 15.6L59.38 15.49C59.62 15.46 59.87 15.46 60.11 15.49C60.2 15.49 60.3 15.52 60.36 15.59C60.43 15.66 60.47 15.75 60.47 15.84C60.47 15.94 60.43 16.03 60.36 16.1C60.3 16.17 60.2 16.2 60.11 16.2C59.87 16.22 59.62 16.22 59.38 16.2L58.73 16.08C58.66 16.08 58.6 16.05 58.56 16.01C58.51 15.96 58.49 15.9 58.49 15.84C58.49 15.77 58.51 15.71 58.56 15.67C58.6 15.62 58.66 15.6 58.73 15.6Z" fill="#FFFFFF" fill-opacity="1.000000" fill-rule="nonzero"/>
	<path id="Vector" d="M103.08 18.43C103.08 18.39 103.09 18.35 103.11 18.32C103.13 18.28 103.16 18.25 103.19 18.23C103.25 18.19 103.32 18.16 103.4 18.15C103.47 18.14 103.55 18.15 103.62 18.17C103.73 18.2 103.83 18.25 103.92 18.3C104.11 18.44 104.27 18.6 104.41 18.79C104.43 18.83 104.44 18.87 104.44 18.92C104.44 18.96 104.43 19.01 104.41 19.05C104.4 19.09 104.38 19.13 104.35 19.17C104.33 19.2 104.29 19.23 104.26 19.26C104.17 19.29 104.08 19.29 103.99 19.26C103.91 19.23 103.83 19.17 103.79 19.09C103.72 19.01 103.65 18.93 103.56 18.87L103.4 18.76L103.32 18.69C103.28 18.69 103.25 18.69 103.22 18.68C103.18 18.66 103.16 18.64 103.13 18.62C103.11 18.59 103.09 18.56 103.08 18.53C103.08 18.5 103.07 18.46 103.08 18.43Z" fill="#FFFFFF" fill-opacity="1.000000" fill-rule="nonzero"/>
	<path id="Vector" d="M101.24 11.96C101.26 11.93 101.29 11.9 101.32 11.89C101.35 11.87 101.39 11.86 101.42 11.86C101.46 11.86 101.5 11.87 101.53 11.89C101.56 11.9 101.58 11.93 101.6 11.96C101.61 11.99 101.61 12.02 101.6 12.04C101.78 12.1 101.94 12.19 102.09 12.31C102.41 12.55 102.69 12.85 102.93 13.18C102.95 13.22 102.97 13.26 102.97 13.3C102.98 13.35 102.97 13.39 102.96 13.43C102.95 13.47 102.93 13.51 102.9 13.55C102.88 13.58 102.84 13.61 102.8 13.63C102.73 13.67 102.64 13.68 102.56 13.66C102.48 13.63 102.41 13.58 102.36 13.51L102.27 13.39L102.07 13.18C101.93 13.06 101.79 12.94 101.66 12.8C101.62 12.76 101.59 12.73 101.55 12.69L101.42 12.61C101.35 12.56 101.29 12.49 101.24 12.42C101.24 12.37 101.24 12.33 101.24 12.28C101.21 12.18 101.21 12.07 101.24 11.96Z" fill="#FFFFFF" fill-opacity="1.000000" fill-rule="nonzero"/>
	<path id="Vector" d="M94.15 16.63L94.35 16.55L94.43 16.55C94.57 16.44 94.69 16.31 94.83 16.22C94.97 16.12 95.55 15.84 95.88 15.62C95.94 15.59 96.01 15.58 96.08 15.6C96.15 15.62 96.2 15.66 96.24 15.72C96.27 15.78 96.28 15.85 96.26 15.92C96.24 15.98 96.2 16.04 96.14 16.08C95.79 16.3 95.38 16.42 95.05 16.66L94.89 16.8L94.67 16.96C94.51 17.07 94.33 17.13 94.14 17.13C93.99 17.02 93.92 16.69 94.15 16.63Z" fill="#FFFFFF" fill-opacity="1.000000" fill-rule="nonzero"/>
	<path id="Vector" d="M91.81 39.93C91.93 39.92 92.06 39.94 92.18 39.99C92.3 40.04 92.4 40.12 92.48 40.22C92.5 40.26 92.5 40.31 92.48 40.36C92.48 40.39 92.47 40.42 92.46 40.45C92.44 40.48 92.42 40.5 92.4 40.52C92.36 40.56 92.3 40.58 92.25 40.58C92.19 40.58 92.14 40.56 92.1 40.52L92 40.42L91.9 40.42L91.78 40.42C91.74 40.43 91.7 40.43 91.67 40.42C91.66 40.39 91.66 40.35 91.67 40.31C91.62 40.3 91.57 40.26 91.55 40.21C91.53 40.16 91.53 40.1 91.54 40.05C91.56 40 91.6 39.96 91.65 39.94C91.7 39.91 91.75 39.91 91.81 39.93Z" fill="#FFFFFF" fill-opacity="1.000000" fill-rule="nonzero"/>
	<path id="Vector" d="M81.91 31.36L82.13 31.36L82.24 31.36L82.34 31.29L82.41 31.29L82.65 31.14C82.8 31.04 82.97 30.96 83.14 30.91C83.36 30.85 83.58 30.85 83.79 30.91C83.87 30.93 83.93 30.98 83.97 31.04C84.01 31.11 84.02 31.19 84 31.26C83.98 31.34 83.93 31.4 83.86 31.44C83.79 31.48 83.72 31.49 83.64 31.47L83.45 31.47L83.23 31.47L83.13 31.47L82.91 31.61C82.76 31.71 82.59 31.78 82.41 31.8C82.23 31.83 82.04 31.82 81.87 31.76C81.83 31.75 81.8 31.72 81.78 31.69C81.76 31.65 81.74 31.61 81.75 31.57C81.74 31.54 81.74 31.52 81.75 31.49C81.75 31.47 81.76 31.44 81.78 31.42C81.79 31.4 81.81 31.39 81.84 31.38C81.86 31.37 81.89 31.36 81.91 31.36Z" fill="#FFFFFF" fill-opacity="1.000000" fill-rule="nonzero"/>
	<path id="Vector" d="M75.89 27.87C75.95 27.8 76.03 27.76 76.11 27.74L76.26 27.74C76.37 27.73 76.47 27.73 76.58 27.74C76.72 27.77 76.85 27.81 76.98 27.87L77.17 27.95L77.27 27.95C77.39 28.01 77.52 28.07 77.64 28.11C77.68 28.13 77.71 28.15 77.73 28.19C77.75 28.22 77.77 28.25 77.77 28.29C77.77 28.33 77.75 28.37 77.73 28.4C77.71 28.43 77.68 28.46 77.64 28.47L77.27 28.56C77.13 28.58 76.98 28.58 76.84 28.56L76.48 28.56L76.32 28.56L76.23 28.56L76.14 28.56L76.01 28.56C75.97 28.55 75.93 28.53 75.89 28.5C75.86 28.47 75.83 28.44 75.81 28.4C75.73 28.39 75.67 28.35 75.63 28.3C75.58 28.24 75.57 28.16 75.58 28.09C75.59 28.02 75.63 27.96 75.69 27.91C75.74 27.87 75.82 27.85 75.89 27.87Z" fill="#FFFFFF" fill-opacity="1.000000" fill-rule="nonzero"/>
	<path id="Vector" d="M72.38 25.28C72.39 25.26 72.4 25.24 72.42 25.22C72.44 25.2 72.46 25.19 72.49 25.18L73.01 25.18C73.05 25.18 73.08 25.19 73.11 25.2C73.15 25.22 73.17 25.24 73.19 25.27C73.24 25.31 73.26 25.37 73.26 25.43C73.26 25.5 73.24 25.56 73.19 25.61C73.14 25.63 73.07 25.63 73.01 25.61L72.61 25.61L72.49 25.61C72.45 25.59 72.42 25.56 72.39 25.53C72.38 25.51 72.38 25.49 72.38 25.47C72.38 25.45 72.38 25.42 72.39 25.41C72.38 25.39 72.37 25.37 72.37 25.35C72.37 25.32 72.37 25.3 72.38 25.28Z" fill="#FFFFFF" fill-opacity="1.000000" fill-rule="nonzero"/>
	<path id="Vector" d="M69.04 32.25C69.07 32.14 69.13 32.04 69.22 31.96L69.44 31.79C69.55 31.7 69.67 31.61 69.8 31.54L70.15 31.31L70.24 31.24L70.42 31.08C70.48 31.04 70.55 31.01 70.63 31.01C70.7 31.02 70.77 31.05 70.83 31.1C70.88 31.16 70.91 31.23 70.92 31.3C70.92 31.38 70.89 31.45 70.85 31.51C70.65 31.73 70.44 31.93 70.21 32.11L69.81 32.41L69.73 32.41C69.73 32.41 69.6 32.54 69.52 32.55L69.41 32.55C69.36 32.56 69.3 32.56 69.25 32.55C69.2 32.54 69.15 32.51 69.1 32.48C69.05 32.41 69.03 32.33 69.04 32.25Z" fill="#FFFFFF" fill-opacity="1.000000" fill-rule="nonzero"/>
	<path id="Vector" d="M68.19 29.03C68.22 29.01 68.25 28.99 68.28 28.99C68.31 28.99 68.34 29.01 68.36 29.03L68.44 29.03L68.52 29.03L68.72 29.03L68.81 29.03L69.06 29.03C69.11 29.01 69.16 29.02 69.21 29.04C69.25 29.06 69.28 29.1 69.3 29.15C69.3 29.17 69.31 29.2 69.3 29.22C69.3 29.25 69.29 29.27 69.28 29.29C69.26 29.31 69.25 29.33 69.23 29.34C69.21 29.36 69.18 29.37 69.16 29.37C68.98 29.42 68.8 29.42 68.62 29.37L68.4 29.26L68.28 29.15C68.27 29.11 68.27 29.07 68.28 29.03C68.25 29.04 68.22 29.04 68.19 29.03Z" fill="#FFFFFF" fill-opacity="1.000000" fill-rule="nonzero"/>
	<path id="Vector" d="M66.35 26.55L66.47 26.55L66.59 26.43C66.76 26.26 66.88 26.08 67.05 25.92C67.07 25.89 67.09 25.87 67.12 25.86C67.15 25.85 67.18 25.84 67.21 25.84C67.24 25.84 67.27 25.85 67.3 25.86C67.33 25.87 67.36 25.89 67.38 25.92C67.42 25.96 67.45 26.02 67.45 26.08C67.45 26.15 67.42 26.2 67.38 26.25C67.2 26.41 67.06 26.61 66.87 26.77C66.77 26.86 66.66 26.94 66.55 26.99L66.34 27.06C66.29 27.08 66.23 27.08 66.18 27.06L66.09 27.06C66.02 27.03 65.97 26.97 65.95 26.9C65.93 26.82 65.93 26.74 65.97 26.68C66 26.61 66.06 26.56 66.14 26.53C66.21 26.51 66.29 26.52 66.35 26.55Z" fill="#FFFFFF" fill-opacity="1.000000" fill-rule="nonzero"/>
	<path id="Vector" d="M63.08 39.1L63.19 39.1C63.24 39.08 63.29 39.08 63.34 39.1L64.72 39.1C64.79 39.1 64.85 39.12 64.89 39.17C64.93 39.21 64.96 39.27 64.96 39.33C64.96 39.39 64.93 39.45 64.89 39.5C64.84 39.54 64.79 39.56 64.72 39.57L63.19 39.57L63.05 39.5C63.02 39.48 62.99 39.45 62.96 39.41C62.94 39.37 62.94 39.33 62.94 39.29C62.94 39.25 62.96 39.21 62.98 39.17C63.01 39.14 63.04 39.11 63.08 39.1Z" fill="#FFFFFF" fill-opacity="1.000000" fill-rule="nonzero"/>
	<path id="Vector" d="M61.19 35.15L61.42 35.15C61.62 35.15 61.8 35.15 61.99 35.15C62.05 35.15 62.11 35.17 62.15 35.22C62.2 35.26 62.22 35.32 62.22 35.38C62.22 35.44 62.19 35.5 62.15 35.54C62.11 35.59 62.05 35.61 61.99 35.62C61.77 35.64 61.55 35.64 61.33 35.62C61.21 35.6 61.1 35.56 61 35.49C60.9 35.42 60.82 35.33 60.76 35.23C60.79 35.2 61.04 34.99 61.19 35.15Z" fill="#FFFFFF" fill-opacity="1.000000" fill-rule="nonzero"/>
	<path id="Vector" d="M58.27 39.46L58.7 39.04C58.79 38.96 58.89 38.89 58.99 38.82L59.28 38.67C59.66 38.47 60.08 38.34 60.51 38.3C60.72 38.3 60.77 38.63 60.51 38.66C60.13 38.74 59.77 38.89 59.45 39.1L59.18 39.28L58.91 39.4C58.73 39.49 58.56 39.58 58.4 39.68C58.37 39.68 58.34 39.68 58.32 39.66C58.29 39.65 58.27 39.63 58.26 39.61C58.25 39.59 58.24 39.56 58.24 39.53C58.25 39.5 58.26 39.48 58.27 39.46Z" fill="#FFFFFF" fill-opacity="1.000000" fill-rule="nonzero"/>
	<path id="Vector" d="M77.52 7.54L77.63 7.54C77.68 7.53 77.74 7.53 77.8 7.54L78.09 7.54C78.27 7.6 78.43 7.71 78.56 7.86C78.58 7.88 78.6 7.91 78.62 7.94C78.63 7.97 78.64 8 78.64 8.04C78.64 8.07 78.63 8.11 78.62 8.14C78.6 8.17 78.58 8.2 78.56 8.22C78.53 8.24 78.51 8.26 78.47 8.28C78.44 8.29 78.41 8.3 78.38 8.3C78.34 8.3 78.31 8.29 78.28 8.28C78.25 8.26 78.22 8.24 78.2 8.22L78.09 8.12L77.99 8.05L77.85 8.05L77.73 8.05C77.66 8.07 77.59 8.07 77.52 8.05C77.49 8.06 77.45 8.06 77.42 8.05C77.41 8.01 77.41 7.97 77.42 7.93C77.39 7.9 77.37 7.87 77.35 7.83C77.34 7.79 77.34 7.74 77.35 7.7C77.36 7.66 77.38 7.63 77.41 7.6C77.44 7.57 77.48 7.55 77.52 7.54Z" fill="#FFFFFF" fill-opacity="1.000000" fill-rule="nonzero"/>
	<path id="Vector" d="M84.05 2.75C84.21 2.75 84.37 2.75 84.54 2.75L84.98 2.75C85.26 2.71 85.54 2.63 85.8 2.51C85.83 2.49 85.86 2.48 85.9 2.48C85.93 2.48 85.97 2.48 86 2.49C86.03 2.5 86.06 2.52 86.09 2.54C86.12 2.56 86.14 2.59 86.15 2.62C86.17 2.65 86.17 2.69 86.17 2.72C86.17 2.76 86.16 2.79 86.15 2.82C86.13 2.86 86.11 2.88 86.08 2.91C86.05 2.93 86.02 2.94 85.99 2.95C85.68 3.08 85.36 3.16 85.02 3.19C84.7 3.22 84.38 3.22 84.05 3.19C84 3.19 83.94 3.16 83.9 3.12C83.86 3.08 83.83 3.03 83.83 2.97C83.83 2.91 83.86 2.85 83.9 2.81C83.94 2.77 84 2.75 84.05 2.75Z" fill="#FFFFFF" fill-opacity="1.000000" fill-rule="nonzero"/>
	<path id="Vector" d="M82.53 0.08L82.63 0.01C82.69 -0.01 82.76 -0.01 82.83 0.01C82.89 0.06 82.96 0.11 83.03 0.13L83.14 0.13L83.31 0.13L83.56 0.13C83.59 0.13 83.63 0.14 83.66 0.15C83.7 0.17 83.73 0.19 83.75 0.22C83.78 0.24 83.8 0.27 83.82 0.3C83.83 0.34 83.84 0.37 83.83 0.41C83.83 0.45 83.83 0.49 83.81 0.52C83.8 0.56 83.78 0.59 83.75 0.62C83.71 0.63 83.66 0.63 83.61 0.62C83.44 0.65 83.26 0.65 83.09 0.62L82.94 0.55C82.88 0.53 82.83 0.5 82.8 0.45C82.73 0.39 82.66 0.32 82.6 0.24C82.59 0.2 82.59 0.14 82.6 0.09C82.58 0.09 82.56 0.09 82.53 0.08Z" fill="#FFFFFF" fill-opacity="1.000000" fill-rule="nonzero"/>
	<path id="Vector" d="M66.62 2.97L66.73 2.97L66.89 2.97C67.01 2.96 67.12 2.93 67.23 2.9C67.43 2.82 67.63 2.72 67.82 2.61C68.19 2.36 68.53 2.07 68.84 1.75C68.89 1.7 68.96 1.67 69.03 1.67C69.1 1.67 69.17 1.7 69.22 1.75C69.26 1.8 69.29 1.87 69.29 1.94C69.29 2.01 69.26 2.07 69.22 2.12C68.87 2.5 68.48 2.83 68.07 3.13C67.85 3.29 67.6 3.41 67.35 3.49C67.09 3.58 66.81 3.58 66.55 3.49C66.48 3.48 66.42 3.45 66.37 3.39C66.33 3.33 66.31 3.26 66.32 3.19C66.33 3.13 66.37 3.06 66.42 3.02C66.48 2.98 66.55 2.96 66.62 2.97Z" fill="#FFFFFF" fill-opacity="1.000000" fill-rule="nonzero"/>
	<path id="Vector" d="M112.74 23.93C112.76 23.9 112.79 23.88 112.82 23.86C112.85 23.84 112.88 23.84 112.92 23.84C112.95 23.84 112.99 23.84 113.02 23.86C113.05 23.88 113.08 23.9 113.1 23.93L113.22 24.11L113.33 24.29C113.39 24.37 113.45 24.45 113.51 24.52L113.6 24.66L113.76 24.89L113.84 25.02L114 25.18L114 25.25C114.06 25.3 114.11 25.37 114.13 25.45C114.15 25.53 114.14 25.61 114.11 25.68C114.06 25.75 114 25.8 113.92 25.82C113.84 25.84 113.75 25.83 113.68 25.79C113.45 25.62 113.25 25.41 113.1 25.17C113 25.03 112.91 24.91 112.82 24.77C112.73 24.62 112.66 24.46 112.6 24.3L112.6 24.11C112.63 24.04 112.68 23.98 112.74 23.93Z" fill="#FFFFFF" fill-opacity="1.000000" fill-rule="nonzero"/>
	<path id="Vector" d="M114.22 25.75L114.36 25.75L114.47 25.75L114.56 25.65C114.57 25.61 114.57 25.56 114.56 25.52C114.56 25.52 114.56 25.52 114.56 25.45C114.56 25.4 114.58 25.35 114.62 25.32C114.65 25.29 114.7 25.27 114.74 25.27C114.79 25.27 114.84 25.29 114.87 25.32C114.9 25.35 114.92 25.4 114.92 25.45C114.93 25.47 114.93 25.5 114.92 25.53C114.94 25.59 114.94 25.65 114.92 25.71C114.91 25.78 114.88 25.85 114.84 25.92C114.79 26.03 114.72 26.13 114.63 26.22C114.53 26.3 114.43 26.37 114.31 26.43L114.15 26.43L114.07 26.43C114 26.44 113.93 26.44 113.86 26.43C113.83 26.41 113.8 26.39 113.78 26.36C113.76 26.33 113.75 26.3 113.75 26.26C113.75 26.23 113.76 26.19 113.78 26.16C113.8 26.13 113.83 26.11 113.86 26.1L114.22 25.75Z" fill="#FFFFFF" fill-opacity="1.000000" fill-rule="nonzero"/>
	<path id="Vector" d="M96.09 22.84C96.23 22.85 96.37 22.9 96.48 22.99C96.62 23.08 96.75 23.18 96.88 23.29C97.11 23.49 97.33 23.71 97.57 23.89C97.59 23.91 97.61 23.93 97.62 23.96C97.63 23.99 97.64 24.02 97.64 24.04C97.64 24.07 97.63 24.1 97.62 24.13C97.61 24.16 97.59 24.18 97.57 24.2C97.53 24.24 97.47 24.26 97.42 24.26C97.36 24.26 97.31 24.24 97.26 24.2L96.64 23.58L96.48 23.43L96.39 23.35C96.3 23.26 96.19 23.21 96.09 23.14C96.05 23.14 96.01 23.12 95.98 23.1C95.95 23.07 95.94 23.03 95.94 22.99C95.94 22.95 95.95 22.91 95.98 22.88C96.01 22.85 96.05 22.84 96.09 22.84Z" fill="#FFFFFF" fill-opacity="1.000000" fill-rule="nonzero"/>
	<path id="Vector" d="M90.44 10.35C90.58 10.25 90.73 10.17 90.88 10.1C91.03 10.02 91.18 9.95 91.34 9.9C91.67 9.83 92.01 9.83 92.34 9.9C92.34 9.9 92.34 9.9 92.34 9.99C92.02 10.03 91.7 10.11 91.39 10.22C91.09 10.3 90.78 10.43 90.48 10.54C90.41 10.5 90.37 10.39 90.44 10.35Z" fill="#FFFFFF" fill-opacity="1.000000" fill-rule="nonzero"/>
	<path id="Vector" d="M43.75 30.91L44.04 30.78L44.28 30.7L44.4 30.7L44.62 30.61C44.77 30.56 44.92 30.51 45.08 30.48L45.38 30.48C45.49 30.48 45.61 30.51 45.71 30.55C45.75 30.56 45.79 30.59 45.82 30.63C45.84 30.66 45.86 30.71 45.86 30.75C45.86 30.8 45.84 30.84 45.82 30.88C45.79 30.92 45.75 30.94 45.71 30.96C45.62 30.98 45.53 31.01 45.45 31.04L45.2 31.04L45.08 31.04L44.87 31.15C44.71 31.24 44.54 31.32 44.37 31.37L44.15 31.37C44.02 31.41 43.89 31.41 43.76 31.37C43.72 31.35 43.68 31.32 43.66 31.28C43.63 31.24 43.61 31.19 43.61 31.14C43.61 31.1 43.62 31.05 43.65 31C43.67 30.96 43.71 30.93 43.75 30.91Z" fill="#FFFFFF" fill-opacity="1.000000" fill-rule="nonzero"/>
	<path id="Vector" d="M97.35 5.19C97.52 5.14 97.7 5.12 97.89 5.12C97.97 5.1 98.06 5.1 98.15 5.12L98.3 5.22C98.54 5.38 98.77 5.56 98.99 5.76C98.99 5.76 98.7 5.58 98.55 5.51C98.45 5.45 98.34 5.42 98.23 5.43L98.08 5.43C98.06 5.43 98.05 5.44 98.03 5.44C98.01 5.44 98 5.43 97.98 5.43L97.87 5.43C97.7 5.4 97.54 5.37 97.37 5.32C97.36 5.3 97.35 5.28 97.34 5.26C97.34 5.24 97.34 5.21 97.35 5.19Z" fill="#FFFFFF" fill-opacity="1.000000" fill-rule="nonzero"/>
</svg>
