<svg width="519.203735" height="492.567871" viewBox="0 0 519.204 492.568" fill="none" xmlns="http://www.w3.org/2000/svg" xmlns:xlink="http://www.w3.org/1999/xlink">
	<desc>
			Created with Pixso.
	</desc>
	<defs/>
	<mask id="mask3_793" mask-type="alpha" maskUnits="userSpaceOnUse" x="0.000000" y="0.000000" width="519.203613" height="492.567871">
		<path id="Vector" d="M158.87 183.74C210.67 170.62 361.72 133.53 466.26 123.71C508.3 119.77 521.36 134.79 518.92 135.06C516.47 135.33 397.67 140.38 162.32 204.52L158.87 183.74Z" fill="#58606E" fill-opacity="1.000000" fill-rule="nonzero"/>
		<path id="Vector" d="M466.47 120.57C361.93 130.38 210.39 168.9 158.59 182.07L160.39 192.96C163.2 191.71 163.02 189.72 166.62 188.69C170.61 187.54 171.27 189.86 175.26 188.69C179.24 187.52 178.58 185.21 182.58 184.12C186.59 183.03 187.23 185.35 191.24 184.25C195.24 183.16 194.6 180.82 198.6 179.72C202.6 178.62 203.23 181.01 207.24 179.96C211.25 178.92 210.65 176.58 214.67 175.54C218.69 174.49 219.28 176.83 223.29 175.78C227.3 174.72 226.72 172.44 230.75 171.45C234.78 170.45 235.36 172.8 239.39 171.81C243.42 170.83 242.84 168.48 246.88 167.49C250.91 166.51 251.47 168.83 255.5 167.89C259.53 166.95 258.99 164.61 263.04 163.69C267.09 162.78 267.63 165.12 271.67 164.2C275.71 163.27 275.18 160.92 279.22 160C283.26 159.08 283.79 161.42 287.83 160.53C291.87 159.64 291.38 157.32 295.45 156.47C299.52 155.62 300.01 157.98 304.06 157.13C308.11 156.28 307.63 153.92 311.7 153.07C315.77 152.22 316.24 154.59 320.29 153.74C324.34 152.89 323.89 150.55 327.96 149.75C332.03 148.96 332.5 151.33 336.57 150.55C340.64 149.76 340.18 147.39 344.25 146.59C348.32 145.8 348.78 148.18 352.85 147.4C356.92 146.61 356.47 144.22 360.58 143.48C364.69 142.75 365.1 145.12 369.18 144.39C373.26 143.66 372.83 141.27 376.92 140.52C381.01 139.78 381.42 142.17 385.5 141.43C389.58 140.7 389.17 138.35 393.23 137.65C397.29 136.96 397.73 139.36 401.82 138.68C405.91 137.99 405.52 135.61 409.62 134.94C413.72 134.26 414.09 136.68 418.19 136.04C422.29 135.4 421.92 133.04 426.03 132.42C430.14 131.8 430.48 134.17 434.59 133.6C438.69 133.03 438.37 130.7 442.48 130.11C446.6 129.52 446.9 131.94 451.01 131.46C455.12 130.97 454.88 128.56 458.98 128.14C463.09 127.73 463.36 130.07 467.46 129.76C468.93 129.67 470.34 129.13 471.5 128.23C472.7 127.35 474.14 126.87 475.62 126.84C477.1 126.74 478.57 127.14 479.8 127.98C481.01 128.8 482.45 129.23 483.91 129.22C488.03 129.35 488.13 126.91 492.31 127.17C496.5 127.44 496.27 129.9 500.33 130.38C501.77 130.61 503.25 130.42 504.58 129.83C505.95 129.26 507.47 129.14 508.92 129.47C510.37 129.81 511.67 130.59 512.65 131.71C513.07 132.17 513.52 132.6 513.99 133.01C514.63 133.51 515.35 133.91 516.12 134.19C516.86 134.53 517.65 134.74 518.46 134.81L519.14 134.81C519.81 132.88 506.2 116.84 466.47 120.57Z" fill="#B6BDE0" fill-opacity="1.000000" fill-rule="nonzero"/>
		<path id="Vector" d="M466.47 120.57L457.48 121.7L447.15 122.97C443.16 123.4 438.69 124.1 433.79 124.81L418.01 127.11L400.44 130.01L391.17 131.5L381.68 133.21L362.35 136.71L343.02 140.39C336.65 141.57 330.4 142.88 324.34 144.1L306.88 147.62L291.28 150.88L259.04 157.64L267.84 155.51L277.96 153.1L284.19 151.62L291.11 150.06L306.68 146.57C312.2 145.33 318.05 144.12 324.08 142.85C330.11 141.59 336.38 140.26 342.75 139.05L362.08 135.28L381.46 131.86L390.96 130.21L400.26 128.74C406.37 127.77 412.27 126.86 417.88 126.06L433.72 124L440.75 123.09C442.99 122.8 445.11 122.64 447.11 122.43L457.46 121.46L466.47 120.57Z" fill="#FFFFFF" fill-opacity="1.000000" fill-rule="nonzero"/>
		<g opacity="0.200000" style="mix-blend-mode:overlay">
			<path id="Vector" d="M469.68 139.95C459.92 141.18 448.7 142.72 436.02 144.63L447.83 122.56C454.18 121.81 460.4 121.13 466.47 120.57C471.08 120.12 475.71 119.95 480.34 120.04L469.68 139.95ZM218.36 189.79C230.72 186.67 242.7 183.72 254.3 180.94L267.83 155.62C255.43 158.44 243.5 161.21 232.25 163.89L218.36 189.79ZM338.74 162.11C345.72 160.68 352.49 159.32 359.04 158.04L371.79 134.19C365.09 135.41 358.36 136.67 351.62 137.96L338.74 162.11Z" fill="#FFFFFF" fill-opacity="1.000000" fill-rule="nonzero"/>
		</g>
		<path id="Vector" d="M153.32 208.79C153.32 208.79 147.83 244.38 147.9 268.22C147.97 292.05 165.2 382.55 165.2 382.55L159.24 401.13L213.54 401.13L213.54 209.73L153.32 208.79Z" fill="#3C90CF" fill-opacity="1.000000" fill-rule="nonzero"/>
		<path id="Vector" d="M167.78 210.87L123.72 321.15C123.72 321.15 98.21 351.27 97.7 352.68C97.2 354.09 89.71 367.06 90.41 369.11C91.12 371.16 101.43 390.3 120.12 399.49C127.7 404.32 137.68 402.7 142.03 400.77C146.38 398.84 173.28 381.12 174.25 379.99C175.22 378.86 176.18 371.29 176.18 371.29L201.8 341.16L201.8 210.87L167.78 210.87Z" fill="#31363D" fill-opacity="1.000000" fill-rule="nonzero"/>
		<path id="Vector" d="M199.36 330.73L201.77 329.62L201.77 222.56L136.72 288.61L123.72 321.15C123.72 321.15 118.53 327.27 112.79 334.12C112.79 334.12 147.64 342.33 151.84 344.43C156.03 346.52 168.59 366.98 168.59 366.98L169.39 346.51L175.67 358.44L199.36 330.73Z" fill="#25272B" fill-opacity="1.000000" fill-rule="nonzero"/>
		<path id="Vector" d="M353.06 222.15C353.06 222.15 422.32 408.23 422.33 408.79C422.34 409.36 416.26 431.91 416.26 431.91L416.26 492.56L322.12 492.56L322.12 222.15L353.06 222.15Z" fill="#31363D" fill-opacity="1.000000" fill-rule="nonzero"/>
		<path id="Vector" d="M353.06 222.15L322.13 222.15L322.13 492.56L354.83 492.56L354.83 357.96L363.98 251.52L353.06 222.15Z" fill="#25272B" fill-opacity="1.000000" fill-rule="nonzero"/>
		<path id="Vector" d="M454.61 284.87L438.12 274.6C438.12 274.6 394.53 350.97 350.82 403.29L368.28 417.29C368.28 417.29 422.65 344.58 454.61 284.87Z" fill="#28854D" fill-opacity="1.000000" fill-rule="nonzero"/>
		<path id="Vector" d="M450.86 295.29C451.51 294.39 457.83 283.01 458.35 282.01C458.52 281.44 458.56 280.83 458.46 280.24C458.36 279.65 458.13 279.09 457.78 278.61C457.26 278.09 442.83 269.91 441.79 269.49C440.74 269.08 439 268.91 438.22 270.08C437.44 271.25 430.49 283.32 430.37 283.7C430.26 284.09 431.14 285.32 431.73 285.55C431.92 285.63 433.92 286.79 436.48 288.32C436.45 287.42 436.65 286.53 437.09 285.73C437.52 284.94 438.16 284.28 438.93 283.82C439.71 283.36 440.6 283.12 441.5 283.12C442.4 283.12 443.29 283.37 444.06 283.83C444.84 284.3 445.47 284.96 445.9 285.76C446.32 286.55 446.53 287.45 446.49 288.35C446.45 289.25 446.16 290.13 445.66 290.88C445.17 291.64 444.48 292.24 443.66 292.63L448.68 295.65C448.68 295.65 450.22 296.19 450.86 295.29Z" fill="#FFAA00" fill-opacity="1.000000" fill-rule="nonzero"/>
		<path id="Vector" d="M359.74 392.31C359.74 392.31 376.61 405.22 376.93 405.5C377.22 405.77 377.42 406.13 377.48 406.52C377.55 406.92 377.48 407.32 377.29 407.67C376.77 408.75 372.41 416.08 372.41 416.08L351.76 398.68C351.76 398.68 356.98 393.28 357.74 392.64C357.98 392.36 358.32 392.18 358.68 392.12C359.05 392.06 359.42 392.13 359.74 392.31Z" fill="#FF8C00" fill-opacity="1.000000" fill-rule="nonzero"/>
		<path id="Vector" d="M369.33 422.15C369.33 422.15 363.74 427.05 363.27 427.37C363.12 427.49 362.93 427.55 362.74 427.55C362.55 427.55 362.37 427.49 362.21 427.37C361.95 427.24 344.55 414.37 344.08 414C343.61 413.64 343.53 412.75 343.63 411.83C343.72 410.91 347.06 404.1 347.06 404.1L370.3 420.85L369.33 422.15Z" fill="#FF8C00" fill-opacity="1.000000" fill-rule="nonzero"/>
		<path id="Vector" d="M333.63 395.74C333.32 395.51 333.07 395.22 332.87 394.9C332.67 394.57 332.55 394.21 332.49 393.83C332.43 393.45 332.45 393.07 332.55 392.7C332.64 392.33 332.8 391.98 333.03 391.68L335.65 388.14C336.11 387.52 336.79 387.11 337.55 387C338.31 386.88 339.08 387.07 339.7 387.53L386.03 421.85C386.34 422.08 386.6 422.36 386.8 422.69C386.99 423.02 387.12 423.38 387.18 423.76C387.24 424.13 387.22 424.52 387.13 424.89C387.03 425.26 386.87 425.61 386.64 425.91L384.02 429.45C383.79 429.76 383.51 430.02 383.18 430.21C382.86 430.41 382.49 430.54 382.12 430.59C381.74 430.65 381.35 430.63 380.99 430.54C380.62 430.44 380.27 430.28 379.96 430.05L333.63 395.74Z" fill="#FFAA00" fill-opacity="1.000000" fill-rule="nonzero"/>
		<path id="Vector" d="M440.6 289.99L431.63 291.4L435.06 299.81L444.03 298.39L440.6 289.99Z" fill="#E0E5FF" fill-opacity="1.000000" fill-rule="nonzero"/>
		<path id="Vector" d="M433 303.24L424.01 304.49L427.3 312.94L436.28 311.69L433 303.24Z" fill="#E0E5FF" fill-opacity="1.000000" fill-rule="nonzero"/>
		<path id="Vector" d="M425.26 316.04L416.26 317.14L419.4 325.64L428.39 324.55L425.26 316.04Z" fill="#E0E5FF" fill-opacity="1.000000" fill-rule="nonzero"/>
		<path id="Vector" d="M417.38 328.5L408.37 329.44L411.36 338L420.37 337.05L417.38 328.5Z" fill="#E0E5FF" fill-opacity="1.000000" fill-rule="nonzero"/>
		<path id="Vector" d="M409.37 340.69L400.35 341.47L403.18 350.07L412.21 349.29L409.37 340.69Z" fill="#E0E5FF" fill-opacity="1.000000" fill-rule="nonzero"/>
		<path id="Vector" d="M401.23 352.68L392.2 353.31L394.89 361.96L403.92 361.33L401.23 352.68Z" fill="#E0E5FF" fill-opacity="1.000000" fill-rule="nonzero"/>
		<path id="Vector" d="M392.97 364.57L383.92 365.04L386.47 373.74L395.51 373.27L392.97 364.57Z" fill="#E0E5FF" fill-opacity="1.000000" fill-rule="nonzero"/>
		<path id="Vector" d="M384.6 376.44L375.53 376.76L377.92 385.51L386.99 385.19L384.6 376.44Z" fill="#E0E5FF" fill-opacity="1.000000" fill-rule="nonzero"/>
		<path id="Vector" d="M376.11 388.37L367.04 388.52L369.28 397.32L378.37 397.17L376.11 388.37Z" fill="#E0E5FF" fill-opacity="1.000000" fill-rule="nonzero"/>
		<path id="Vector" d="M221.59 155.91C221.59 155.91 230.53 190.01 230.77 190.85C231.01 191.69 179.42 208.73 179.42 208.73C179.42 208.73 196.7 249.94 205.1 265.16C213.5 280.39 232.07 279.29 250.43 279.29L294.66 279.29C304.08 279.29 316.65 267.09 320.39 255.01C324.13 242.93 331.54 204.04 331.54 204.04L282.76 186.4L286.72 155.93L221.59 155.91Z" fill="#FFCBAB" fill-opacity="1.000000" fill-rule="nonzero"/>
		<path id="Vector" d="M264.6 195.08C266.07 193.92 276.76 182.51 284.31 174.43L286.72 155.91L221.59 155.91L224.09 165.44C238.23 182.84 250.7 192.99 253.9 195.08C257.1 197.17 262.31 196.89 264.6 195.08Z" fill="#FF9580" fill-opacity="1.000000" fill-rule="nonzero"/>
		<path id="Vector" d="M220.54 205.26L181.58 226.27L205.05 347.89L310.72 327.49L220.54 205.26Z" fill="#31363D" fill-opacity="1.000000" fill-rule="nonzero"/>
		<path id="Vector" d="M230.78 219.87L287.54 331.97L310.72 327.49L230.78 219.87Z" fill="#25272B" fill-opacity="1.000000" fill-rule="nonzero"/>
		<path id="Vector" d="M227.3 183.13L330.13 323.75L307.12 328.19L220.54 205.26L227.3 183.13Z" fill="#31363D" fill-opacity="1.000000" fill-rule="nonzero"/>
		<path id="Vector" d="M261.15 262.92L270.48 242.18L257.5 224.43L248.09 244.38L261.15 262.92Z" fill="#25272B" fill-opacity="1.000000" fill-rule="nonzero"/>
		<path id="Vector" d="M296.64 203.58L338.88 216.83L338.88 340.69L231.25 340.69L296.64 203.58Z" fill="#31363D" fill-opacity="1.000000" fill-rule="nonzero"/>
		<path id="Vector" d="M289.36 219.87L254.87 340.69L231.25 340.69L289.36 219.87Z" fill="#25272B" fill-opacity="1.000000" fill-rule="nonzero"/>
		<path id="Vector" d="M285.81 183.13L211.5 340.69L234.94 340.69L296.64 203.58L285.81 183.13Z" fill="#31363D" fill-opacity="1.000000" fill-rule="nonzero"/>
		<path id="Vector" d="M208.18 195.44L153.08 208.41C153.08 208.41 182.77 264.2 197.27 326.06C186.95 368.26 179.42 382.55 179.42 382.55L159.24 401.13C159.24 401.13 163.75 409.18 177.29 414.66L253.9 414.66L262.67 345.39L242.16 303.5L208.18 195.44Z" fill="#8FCFFF" fill-opacity="1.000000" fill-rule="nonzero"/>
		<path id="Vector" d="M253.9 414.66L261.89 351.61L255.86 343.35C255.86 343.35 239.63 327.66 234.48 319.29L210.8 333.46C210.8 333.46 207.25 363.59 207.9 378.26L200 378.26L179.42 382.55L159.24 401.13C159.24 401.13 163.75 409.18 177.29 414.66L253.9 414.66Z" fill="#75BEF5" fill-opacity="1.000000" fill-rule="nonzero"/>
		<g style="mix-blend-mode:multiply">
			<path id="Vector" d="M184.54 414.66L253.9 414.66L261.89 351.61L255.49 345.39C234.3 370.87 210.52 394.09 184.54 414.66Z" fill="#AEC1CF" fill-opacity="1.000000" fill-rule="nonzero"/>
		</g>
		<path id="Vector" d="M197.27 326.06L201.77 281.84C193.39 250.38 178.8 217.36 172.54 203.84L153.12 208.41C153.12 208.41 182.77 264.2 197.27 326.06Z" fill="#5DACE8" fill-opacity="1.000000" fill-rule="nonzero"/>
		<g style="mix-blend-mode:multiply">
			<path id="Vector" d="M197.27 326.06C197.27 326.06 204.67 271.93 202.98 246.8L191.74 305.05L197.27 326.06Z" fill="#AEC1CF" fill-opacity="1.000000" fill-rule="nonzero"/>
		</g>
		<path id="Vector" d="M227.47 178.29C227 178.34 226.55 178.48 226.15 178.71C225.74 178.94 225.38 179.25 225.1 179.61C223.89 180.94 208.18 195.44 208.18 195.44C208.18 195.44 238.02 308.78 238.99 311.8C239.95 314.83 281.04 389.13 281.04 389.13L304.96 389.13C304.96 389.13 259.77 306.73 259.29 304.55C258.8 302.38 227.47 178.29 227.47 178.29Z" fill="#5DACE8" fill-opacity="1.000000" fill-rule="nonzero"/>
		<path id="Vector" d="M304.96 389.13C304.96 389.13 285.86 354.29 272.35 329.32C268.55 323.94 259.94 311.92 259.29 311.8C258.45 311.68 238.99 311.8 238.99 311.8C239.95 314.82 281.04 389.13 281.04 389.13L304.96 389.13Z" fill="#3C90CF" fill-opacity="1.000000" fill-rule="nonzero"/>
		<path id="Vector" d="M300.37 189.12L367.4 214.25C367.4 214.25 352.9 274.81 346.45 294.63L354.83 357.96C354.83 357.96 370.61 385.66 370.61 387.28C370.61 388.89 359.34 406.61 347.74 414.66L227.88 414.66L289.1 327.99L300.37 189.12Z" fill="#8FCFFF" fill-opacity="1.000000" fill-rule="nonzero"/>
		<path id="Vector" d="M300.36 189.24L291.46 298.96L294.09 330.73C294.09 330.73 300.37 271.93 301.82 255.25C301.82 217.8 300.67 189.22 300.67 189.22L300.36 189.24Z" fill="#E8F5FF" fill-opacity="1.000000" fill-rule="nonzero"/>
		<path id="Vector" d="M370.61 387.28C370.61 387.28 332.99 366.44 331.54 365.69C330.09 364.95 282.49 394.21 282.49 394.21C282.49 394.21 294.09 377.61 299.25 369.8C297.23 369.8 270.64 373.67 270.64 373.67C270.64 373.67 254.46 387.3 239.44 398.29L227.84 414.66L347.7 414.66C359.34 406.61 370.61 388.89 370.61 387.28Z" fill="#75BEF5" fill-opacity="1.000000" fill-rule="nonzero"/>
		<path id="Vector" d="M284.18 175.43L282.76 186.38L271.7 317.68C268.15 324.76 220.95 400.65 200 414.66L227.87 414.66C227.87 414.66 272.34 371.33 294.09 330.73C294.09 330.73 302.3 247.76 300.37 189.12L284.28 174.62L284.18 175.43Z" fill="#5DACE8" fill-opacity="1.000000" fill-rule="nonzero"/>
		<path id="Vector" d="M272.22 323.03C271.03 325.3 239.11 382 204.26 414.66L227.87 414.66C227.87 414.66 272.34 371.33 294.09 330.73C294.09 330.73 279.71 322.55 277.89 321.71C276.08 320.87 273.43 320.74 272.22 323.03Z" fill="#3C90CF" fill-opacity="1.000000" fill-rule="nonzero"/>
		<path id="Vector" d="M351.83 208.41L341.2 260.61L346.44 294.67C352.9 274.81 367.4 214.25 367.4 214.25L351.83 208.41Z" fill="#5DACE8" fill-opacity="1.000000" fill-rule="nonzero"/>
		<g style="mix-blend-mode:multiply">
			<path id="Vector" d="M334.81 220.81L346.41 294.63C346.41 294.63 350.73 279.98 352.07 274.94C352.11 274.94 347.25 254.05 334.81 220.81Z" fill="#AEC1CF" fill-opacity="1.000000" fill-rule="nonzero"/>
		</g>
		<g style="mix-blend-mode:multiply">
			<path id="Vector" d="M245.95 414.66C245.95 414.66 293.31 371.92 325.67 350.44C307.62 365.67 299.08 374.23 299.08 374.23C290.43 387.4 268.8 414.66 268.8 414.66L245.95 414.66Z" fill="#AEC1CF" fill-opacity="1.000000" fill-rule="nonzero"/>
		</g>
		<path id="Vector" d="M331.54 365.69L370.61 387.28C370.61 387.28 351.84 373.3 331.54 365.69Z" fill="#E8F5FF" fill-opacity="1.000000" fill-rule="nonzero"/>
		<path id="Vector" d="M300.7 189.22L367.4 214.25C367.4 214.25 325.5 203.9 300.7 189.22Z" fill="#E8F5FF" fill-opacity="1.000000" fill-rule="nonzero"/>
		<path id="Vector" d="M347.73 414.66L372.7 439.36L372.7 445.2L388.57 492.56L153.12 492.56L159.24 468.64L157.28 458.73L177.29 414.66L347.73 414.66Z" fill="#3C90CF" fill-opacity="1.000000" fill-rule="nonzero"/>
		<path id="Vector" d="M251.88 411.12L173.8 413.06C173.8 413.06 171.65 414.93 171.17 415.26C170.68 415.59 156.1 441.04 156.43 442.49C156.75 443.94 162.06 447.81 162.06 447.81C162.06 447.81 227.55 441.36 261.23 434.91C313.43 435.08 366.4 433.07 366.4 433.07C366.4 433.07 368.53 430.24 368.04 428.96C367.56 427.67 360.17 407.69 359.84 406.73C359.36 405.89 358.7 405.17 357.9 404.63L281.69 406.56L251.88 411.12Z" fill="#FFAA00" fill-opacity="1.000000" fill-rule="nonzero"/>
		<path id="Vector" d="M245.95 409.55C245.95 409.55 208.62 401.09 206.71 400.73C204.8 400.37 202.84 402.42 201.77 405.14C200.7 407.86 199.84 413.06 200.69 415.47C201.54 417.89 203.54 437.84 204.26 440.48C204.59 441.91 205.39 443.19 206.54 444.11C207.68 445.03 209.1 445.54 210.57 445.56C213.8 445.46 259.77 433.12 259.77 433.12L251.2 411.48L245.95 409.55Z" fill="#FF7B00" fill-opacity="1.000000" fill-rule="nonzero"/>
		<path id="Vector" d="M313.46 434.53C329.96 434.23 344.21 433.84 353.75 433.56L345.56 405.01L323.19 405.58L313.46 434.53Z" fill="#FF7B00" fill-opacity="1.000000" fill-rule="nonzero"/>
		<path id="Vector" d="M249.75 413.54C233.8 412.21 213.8 413.98 210.57 414.66C207.34 415.35 206.12 418.62 206.97 421.87C207.82 425.13 214.46 448.94 216.27 452.45C217.22 454.13 218.77 455.38 220.61 455.97C222.45 456.55 224.44 456.42 226.18 455.59C229.69 453.9 258.45 437.95 258.45 437.95C258.45 437.95 259.53 440.61 259.9 440.72C260.26 440.84 292.88 442.41 294.09 442.06C295.29 441.7 296.74 438.31 296.63 437.46L298.44 437.58L299.25 435.89C299.25 435.89 325.02 436.86 336.74 434.68C339.53 426.57 340.36 417.92 339.16 409.43C337.83 401.57 330.58 383.21 329.01 380.97C327.44 378.74 323.21 378.78 321.28 380.01C319.34 381.24 295.54 401.68 295.54 401.68C295.54 401.68 292.52 400.23 291.55 400.59C290.59 400.95 282.61 405.79 282.61 405.79C282.61 405.79 280.49 402.17 279.1 402.69C277.71 403.2 273.3 404.62 273.3 404.62C273.3 404.62 251.13 406.47 249.14 406.83C247.15 407.19 245.91 409.49 245.91 409.49C245.91 409.49 248.17 410.16 249.75 413.54Z" fill="#FFAA00" fill-opacity="1.000000" fill-rule="nonzero"/>
		<path id="Vector" d="M259.9 440.72C260.25 440.84 291.72 442.36 293.98 442.07C285.83 440.03 265.62 434.75 264.36 432.15C263.1 429.55 255.36 413.6 251.94 406.57C250.54 406.72 249.52 406.82 249.18 406.89C247.24 407.26 245.95 409.55 245.95 409.55C245.95 409.55 248.17 410.16 249.75 413.54L249.12 413.49L252.02 421.15L218.31 417.75L233.89 421.61L244.53 426.24L253.23 425.12L254.85 429.47L241.32 433.21C239.98 433.58 225.73 444.94 225.73 444.94L256.06 431.89L258.47 437.93C258.47 437.93 259.53 440.61 259.9 440.72Z" fill="#FF7B00" fill-opacity="1.000000" fill-rule="nonzero"/>
		<path id="Vector" d="M282.61 405.81C282.61 405.81 290.7 421.15 292.28 424.66C293.85 428.17 296.63 437.46 296.63 437.46L298.44 437.58C298.44 437.58 296.39 422.36 295.42 418.73C294.45 415.11 287.8 402.7 287.8 402.7L282.61 405.81Z" fill="#FF7B00" fill-opacity="1.000000" fill-rule="nonzero"/>
		<path id="Vector" d="M295.54 401.7C295.54 401.7 300.96 413.17 300.67 415.11C300.38 417.04 299.25 435.89 299.25 435.89L304.96 435.89C304.96 435.89 309.19 416.07 309.44 412.82C309.68 409.56 303.31 395.05 303.31 395.05L295.54 401.7Z" fill="#FF7B00" fill-opacity="1.000000" fill-rule="nonzero"/>
		<path id="Vector" d="M279.07 41.87C275.74 26.28 268.57 2.45 244.84 1.86C221.1 1.27 205.8 11.52 187.92 21.72C170.04 31.92 163.11 36.29 154.74 38.75C146.36 41.2 119.45 43.77 113.49 42.33C116.71 50.39 127.02 58.45 139.27 57.48C117.19 77.14 95.61 85.03 87.87 85.36C87.87 85.36 92.54 89.96 98.34 89.91C88.36 95.51 68.86 96.47 60 95.34C76.76 109.04 89.49 114.26 97.37 114.63C105.26 114.99 128.95 112.1 128.95 112.1C128.95 112.1 106.72 130.06 97.22 132.28C102.17 134.27 107.51 135.13 112.84 134.77C104.14 142.5 92.22 148.83 92.22 148.83C92.22 148.83 115.59 150.52 133.79 143.03C151.99 135.53 161.34 126.31 161.34 126.31L149.9 146.9C149.9 146.9 172.13 139.02 182.6 128.22C182.6 128.22 180.99 142.23 181.47 149C189.21 138.69 215.3 109.53 215.3 109.53C215.3 109.53 214.34 125.15 215.3 133.7C230.57 109.53 248.17 86.97 256.67 79.08C265.16 71.2 279.07 41.87 279.07 41.87Z" fill="#25272B" fill-opacity="1.000000" fill-rule="nonzero"/>
		<path id="Vector" d="M137.34 234.06C137.34 234.06 140.28 235.4 140.6 236.83C140.92 238.26 154.83 339.11 154.83 339.11C142.65 344.74 120.09 350.38 98.19 343.61C99.31 295.61 102.86 237.77 102.86 237.77C102.86 237.77 104.47 235.68 106.07 235.68C107.68 235.68 137.34 234.06 137.34 234.06Z" fill="#B6BDE0" fill-opacity="1.000000" fill-rule="nonzero"/>
		<path id="Vector" d="M151.26 313.36C149.41 314.59 147.56 315.77 145.74 316.89C132.87 317.26 120.32 314.08 110.42 310.48C126.41 308.54 140.39 300.91 148.76 295.3C148.65 294.59 148.56 293.88 148.46 293.17C139.76 299.14 124.06 307.92 106.32 308.9C103.76 307.88 101.48 306.85 99.42 305.91C99.42 306.59 99.38 307.3 99.35 307.99C109.29 312.59 125.45 318.57 142.47 318.84C128.75 326.95 113.88 332.94 98.36 336.61C98.36 337.27 98.36 337.93 98.31 338.6C101.41 337.92 105.23 336.94 109.67 335.55C109.96 335.55 135.04 333.97 153.68 330.83C153.6 330.22 153.52 329.58 153.42 328.89C141.01 330.98 125.67 332.37 116.8 333.07C129.01 328.52 140.67 322.62 151.55 315.46L151.26 313.36Z" fill="#8B95BD" fill-opacity="1.000000" fill-rule="nonzero"/>
		<path id="Vector" d="M147.08 283.22C146.99 282.58 146.91 281.93 146.81 281.29C124.4 284.96 107.97 284.65 100.41 284.19L100.32 286.12C102.73 286.27 106 286.41 109.99 286.41C122.42 286.34 134.82 285.28 147.08 283.22Z" fill="#8B95BD" fill-opacity="1.000000" fill-rule="nonzero"/>
		<path id="Vector" d="M101.98 253.15C101.98 253.77 101.9 254.42 101.87 255.08C106.7 255.43 112.72 255.72 119.59 255.72C127.43 255.72 135.27 255.33 143.08 254.54C142.99 253.89 142.91 253.25 142.82 252.61C129.24 253.96 115.58 254.14 101.98 253.15Z" fill="#8B95BD" fill-opacity="1.000000" fill-rule="nonzero"/>
		<path id="Vector" d="M101.02 271.2C101.02 271.84 100.95 272.49 100.92 273.14C117.19 272.17 133.62 266.29 144.1 261.81C144 261.14 143.91 260.47 143.82 259.87C133.56 264.26 117.2 270.18 101.02 271.2Z" fill="#8B95BD" fill-opacity="1.000000" fill-rule="nonzero"/>
		<g opacity="0.500000" style="mix-blend-mode:multiply">
			<path id="Vector" d="M140.55 236.83C140.24 235.4 137.29 234.06 137.29 234.06L130.39 234.44L111.39 244.86C111.39 244.86 125.89 256.98 126 266.39C126.09 272.85 127.38 318.4 128.17 346.24C137.38 345.3 146.38 342.89 154.83 339.11C154.83 339.11 140.87 238.25 140.55 236.83Z" fill="#AEC1CF" fill-opacity="1.000000" fill-rule="nonzero"/>
		</g>
		<path id="Vector" d="M101.83 238.99C101.23 240.11 100.84 241.33 100.68 242.59C100.52 244.46 101.76 247 102.31 247.1C102.87 247.19 109.3 249.37 122.91 248C136.52 246.64 141.28 241.8 141.28 241.8C141.28 241.8 142.4 238.1 141.92 236.65C141.39 235.47 140.65 234.41 139.74 233.5L101.83 238.99Z" fill="#8B95BD" fill-opacity="1.000000" fill-rule="nonzero"/>
		<path id="Vector" d="M98.19 343.61C98.19 343.61 95.57 346.12 95.57 347.33C95.57 348.53 96.44 353.19 97.21 353.64C97.98 354.08 108.25 357.35 127.18 355.9C146.1 354.45 157.74 347.89 157.74 347.89C157.74 347.89 158.59 343.1 157.98 342.25C156.99 341.13 155.92 340.08 154.78 339.11C154.78 339.11 126.05 349.95 98.19 343.61Z" fill="#8B95BD" fill-opacity="1.000000" fill-rule="nonzero"/>
		<path id="Vector" d="M6.46 228.64L12.44 247.1C12.44 247.1 95 216.9 162.18 205.09L157.87 183.13C157.87 183.13 69.4 203.64 6.46 228.64Z" fill="#28854D" fill-opacity="1.000000" fill-rule="nonzero"/>
		<path id="Vector" d="M16.03 223.1C14.97 223.36 2.79 227.94 1.75 228.42C1.25 228.74 0.83 229.18 0.53 229.7C0.22 230.21 0.04 230.79 0 231.39C0 232.12 5.79 247.7 6.33 248.66C6.86 249.62 8.09 250.9 9.44 250.52C10.79 250.13 23.87 245.38 24.21 245.17C24.4 244.83 24.52 244.44 24.55 244.05C24.58 243.65 24.52 243.26 24.37 242.89C24.27 242.71 23.5 240.51 22.54 237.7C21.98 238.41 21.25 238.95 20.41 239.28C19.57 239.6 18.66 239.7 17.77 239.55C16.88 239.4 16.05 239.01 15.37 238.43C14.68 237.85 14.17 237.09 13.87 236.24C13.58 235.39 13.53 234.47 13.71 233.59C13.89 232.71 14.31 231.9 14.92 231.24C15.53 230.57 16.31 230.09 17.17 229.83C18.03 229.57 18.95 229.55 19.82 229.77L17.95 224.23C17.95 224.23 17.11 222.83 16.03 223.1Z" fill="#FFAA00" fill-opacity="1.000000" fill-rule="nonzero"/>
		<path id="Vector" d="M148.25 207.75C148.25 207.75 143.7 187.02 143.63 186.58C143.57 186.18 143.65 185.77 143.85 185.42C144.06 185.07 144.37 184.8 144.75 184.65C145.84 184.18 153.9 181.37 153.9 181.37L158.47 207.98C158.47 207.98 150.98 208.74 150 208.75C149.01 208.76 148.38 208.33 148.25 207.75Z" fill="#FF8C00" fill-opacity="1.000000" fill-rule="nonzero"/>
		<path id="Vector" d="M160.2 178.78C160.2 178.78 167.63 178.64 168.2 178.71C168.77 178.77 168.87 179.15 168.98 179.42C169.1 179.69 174.09 200.69 174.21 201.32C174.34 201.96 173.83 202.65 173.16 203.26C172.49 203.87 165.54 206.94 165.54 206.94L158.6 179.13L160.2 178.78Z" fill="#FF8C00" fill-opacity="1.000000" fill-rule="nonzero"/>
		<path id="Vector" d="M170.4 221.98C170.49 222.35 170.51 222.74 170.44 223.11C170.38 223.49 170.25 223.85 170.05 224.17C169.85 224.5 169.59 224.78 169.28 225C168.97 225.22 168.62 225.38 168.25 225.47L163.97 226.49C163.6 226.57 163.21 226.59 162.84 226.53C162.46 226.47 162.1 226.33 161.78 226.13C161.45 225.93 161.17 225.67 160.95 225.36C160.72 225.05 160.56 224.7 160.48 224.33L147.21 168.22C147.13 167.85 147.11 167.46 147.17 167.09C147.24 166.71 147.37 166.35 147.57 166.03C147.77 165.7 148.03 165.42 148.34 165.2C148.65 164.98 149 164.82 149.37 164.73L153.65 163.71C154.02 163.62 154.41 163.61 154.79 163.67C155.16 163.73 155.52 163.86 155.85 164.06C156.17 164.26 156.46 164.53 156.68 164.84C156.9 165.15 157.06 165.5 157.15 165.87L170.4 221.98Z" fill="#FFAA00" fill-opacity="1.000000" fill-rule="nonzero"/>
		<path id="Vector" d="M20.46 233.77L28.22 238.48L31.02 229.85L23.26 225.13L20.46 233.77Z" fill="#E0E5FF" fill-opacity="1.000000" fill-rule="nonzero"/>
		<path id="Vector" d="M34.81 228.56L42.49 233.4L45.43 224.81L37.75 219.98L34.81 228.56Z" fill="#E0E5FF" fill-opacity="1.000000" fill-rule="nonzero"/>
		<path id="Vector" d="M48.99 223.76L56.57 228.73L59.67 220.2L52.08 215.24L48.99 223.76Z" fill="#E0E5FF" fill-opacity="1.000000" fill-rule="nonzero"/>
		<path id="Vector" d="M63.05 219.33L70.54 224.42L73.77 215.96L66.28 210.87L63.05 219.33Z" fill="#E0E5FF" fill-opacity="1.000000" fill-rule="nonzero"/>
		<path id="Vector" d="M77.03 215.19L84.43 220.41L87.8 212.01L80.41 206.79L77.03 215.19Z" fill="#E0E5FF" fill-opacity="1.000000" fill-rule="nonzero"/>
		<path id="Vector" d="M90.98 211.27L98.29 216.62L101.82 208.28L94.51 202.92L90.98 211.27Z" fill="#E0E5FF" fill-opacity="1.000000" fill-rule="nonzero"/>
		<path id="Vector" d="M104.96 207.51L112.18 212.98L115.86 204.7L108.64 199.23L104.96 207.51Z" fill="#E0E5FF" fill-opacity="1.000000" fill-rule="nonzero"/>
		<path id="Vector" d="M119.02 203.84L126.15 209.45L129.96 201.22L122.84 195.61L119.02 203.84Z" fill="#E0E5FF" fill-opacity="1.000000" fill-rule="nonzero"/>
		<path id="Vector" d="M133.2 200.2L140.24 205.94L144.2 197.77L137.15 192.04L133.2 200.2Z" fill="#E0E5FF" fill-opacity="1.000000" fill-rule="nonzero"/>
		<path id="Vector" d="M113.3 242.59C106.9 242.19 100.33 239.37 98.8 235.55C97.28 231.74 96.32 221.78 96.32 221.78L136.56 208.79L139.77 218.73L113.3 242.59Z" fill="#574A44" fill-opacity="1.000000" fill-rule="nonzero"/>
		<path id="Vector" d="M98.57 194.3C98.57 194.3 96.18 192.71 94.77 192.97C93.37 193.23 88.64 197.1 87.49 198.13C86.34 199.15 86.29 203.42 86.73 204.78C87.18 206.13 88.85 213.56 89.63 214.44C90.41 215.32 96.94 221.38 98.13 222.76C99.32 224.15 100.62 224.77 102.71 223.07C104.8 221.38 106.46 219.7 107.07 218.17C107.78 216.33 107.78 214.29 107.07 212.45C106.2 210.67 98.57 194.3 98.57 194.3Z" fill="#786B66" fill-opacity="1.000000" fill-rule="nonzero"/>
		<path id="Vector" d="M95.12 192.94C95.38 194.49 96.89 203.58 97.16 205.02C97.43 206.46 97.7 208.45 96.52 209.33C95.34 210.21 92 212.33 92.16 213.75C92.33 215.17 95.19 217.73 97.73 220.9C100.27 224.07 102.31 222.88 104.18 220.68C105.15 219.58 106.25 218.49 107.29 217.33C107.74 215.71 107.64 213.99 107.02 212.42C106.2 210.67 98.57 194.3 98.57 194.3C97.54 193.6 96.36 193.13 95.12 192.94Z" fill="#574A44" fill-opacity="1.000000" fill-rule="nonzero"/>
		<path id="Vector" d="M112.73 188.22C112.73 188.22 110.43 186.01 108.87 186.02C107.3 186.03 101.35 189.3 99.87 190.18C98.39 191.06 97.5 195.73 97.7 197.27C97.91 198.82 98.24 207.28 98.9 208.37C99.56 209.46 105.49 217.41 106.51 219.16C107.52 220.91 108.83 221.84 111.45 220.41C114.07 218.98 116.22 217.51 117.2 215.93C118.33 214.06 118.73 211.83 118.31 209.69L112.73 188.22Z" fill="#786B66" fill-opacity="1.000000" fill-rule="nonzero"/>
		<path id="Vector" d="M109.24 186.06C109.24 187.79 109.03 198.02 109.04 199.59C109.04 201.37 108.95 203.46 107.48 204.18C106.01 204.89 101.94 206.53 101.83 208.12C101.72 209.71 104.34 213.07 106.48 217.04C108.62 221.02 111.08 220.13 113.56 218.1C114.78 217.13 116.25 216.16 117.64 215.07C118.45 213.39 118.68 211.49 118.31 209.66L112.73 188.17C112.73 188.17 110.78 186.35 109.24 186.06Z" fill="#574A44" fill-opacity="1.000000" fill-rule="nonzero"/>
		<path id="Vector" d="M129.24 182.93C129.24 182.93 127.36 180.03 125.7 179.65C124.03 179.28 116.95 181.24 115.18 181.81C113.41 182.38 111.31 187.07 111.15 188.77C110.99 190.47 109.22 199.45 109.67 200.76C110.12 202.08 114.38 211.92 115.02 214.02C115.65 216.11 116.8 217.42 119.92 216.56C123.03 215.7 125.72 214.63 127.08 213.26C128.74 211.58 129.72 209.33 129.81 206.96C129.75 204.63 129.24 182.93 129.24 182.93Z" fill="#786B66" fill-opacity="1.000000" fill-rule="nonzero"/>
		<path id="Vector" d="M126.08 179.79C125.63 181.61 122.92 192.35 122.53 194.06C122.1 195.93 121.46 198.1 119.74 198.49C118.02 198.89 113.31 199.61 112.81 201.26C112.31 202.9 114.23 207.06 115.5 211.81C116.77 216.57 119.6 216.2 122.7 214.71C124.25 213.95 126.04 213.3 127.75 212.54C129.02 210.96 129.74 209.02 129.81 207C129.75 204.67 129.24 182.97 129.24 182.97C129.24 182.97 127.67 180.47 126.08 179.79Z" fill="#574A44" fill-opacity="1.000000" fill-rule="nonzero"/>
		<path id="Vector" d="M141.49 201.82C141.49 201.82 147 185.68 147.36 184.29C147.72 182.91 148.19 181.71 147.66 180.07L146.28 175.79C145.95 174.76 143.61 173.85 142.31 173.57C141.02 173.29 136.62 173.66 134.67 173.98C133.37 174.23 132.17 174.86 131.23 175.79C130.28 176.71 129.63 177.9 129.35 179.19C128.64 182.41 126.45 190.92 126.69 192.29C126.93 193.65 129.13 202.1 129.75 204.63C130.37 207.16 130.81 208.57 133.15 208.17C135.49 207.76 140.77 205.97 141.49 201.82Z" fill="#786B66" fill-opacity="1.000000" fill-rule="nonzero"/>
		<path id="Vector" d="M141.49 201.82C141.49 201.82 141.98 200.38 142.67 198.33C142.06 197.07 141.26 195.92 140.3 194.91C139.21 194.03 133.87 192.24 131.23 192.34C130.7 192.37 130.18 192.52 129.71 192.77C129.24 193.02 128.83 193.36 128.5 193.78C128.17 194.2 127.94 194.69 127.81 195.2C127.69 195.72 127.67 196.26 127.77 196.78C128.5 199.68 129.39 203.16 129.75 204.63C130.36 207.15 130.81 208.57 133.15 208.17C135.49 207.76 140.77 205.97 141.49 201.82Z" fill="#574A44" fill-opacity="1.000000" fill-rule="nonzero"/>
		<path id="Vector" d="M113.3 242.59C111.76 235.89 115.38 225.77 121.92 221.5C125.83 218.94 130.03 216.85 134.44 215.26C134.44 215.26 126.51 211.4 123.97 207.99C121.42 204.59 123.69 198.83 125.83 197.21C127.98 195.58 130.39 198.57 136.35 199.19C142.31 199.81 145.38 199.75 146.46 200.22C147.54 200.7 152.91 208.4 153.97 210.12C155.03 211.84 155.3 214.55 153.87 217.78C152.45 221.01 142.78 232.88 140.24 234.62C132.41 240.22 122.92 243.03 113.3 242.59Z" fill="#786B66" fill-opacity="1.000000" fill-rule="nonzero"/>
		<path id="Vector" d="M208.15 114.24C206.09 111.82 200.9 111.58 199.45 112.92C198 114.25 196.07 123.79 196.91 126.45C197.75 129.11 203.43 139.02 204.7 140.88C205.97 142.75 209.12 144.87 210.38 145.6C211.65 146.32 215.28 145.6 215.28 145.6L208.15 114.24Z" fill="#FF9580" fill-opacity="1.000000" fill-rule="nonzero"/>
		<path id="Vector" d="M301.59 114.24C303.64 111.82 308.84 111.58 310.29 112.92C311.74 114.25 313.67 123.79 312.82 126.45C311.97 129.11 306.29 139.02 305.03 140.88C303.76 142.75 300.62 144.87 299.34 145.6C298.07 146.32 294.45 145.6 294.45 145.6L301.59 114.24Z" fill="#FF9580" fill-opacity="1.000000" fill-rule="nonzero"/>
		<path id="Vector" d="M254.87 41.87C307.18 41.87 309.12 80.53 307.67 96.24C306.22 111.95 300.3 141.67 291.72 155.81C283.13 169.94 258.17 182.39 254.87 182.39C251.57 182.39 226.59 169.95 218.01 155.81C209.43 141.66 203.51 111.95 202.06 96.24C200.61 80.53 202.55 41.87 254.87 41.87Z" fill="#FFCBAB" fill-opacity="1.000000" fill-rule="nonzero"/>
		<path id="Vector" d="M254.87 41.87C202.55 41.87 200.61 80.53 202.06 96.24C203.43 109.23 205.92 122.07 209.5 134.62C217.67 123.02 228.6 107.93 234.37 101.37C229.53 112.21 227.35 125.45 227.35 125.45C227.35 125.45 248.28 106.5 255.17 95.61C255.17 95.61 253.05 109.85 249.57 126.19C258.95 116.81 271.25 90.42 274.3 79.79C279.76 93.56 282.19 117.49 282.19 117.49C282.19 117.49 287.16 109.89 288.61 101.58C289.87 109.31 295.18 137.97 295.18 137.97C295.18 137.97 299.75 127.83 301.13 121.71C301.59 122.85 302.13 123.95 302.75 125.01C305.02 115.54 306.66 105.92 307.67 96.23C309.12 80.53 307.18 41.87 254.87 41.87Z" fill="#FF9580" fill-opacity="1.000000" fill-rule="nonzero"/>
		<path id="Vector" d="M261.19 111.68C261.19 111.68 263.45 113.53 264.41 114.12C265.51 114.85 266.85 115.12 268.15 114.88C269.26 114.51 286.52 108.79 287.94 108.37C290.07 108.06 292.22 107.91 294.38 107.92C294.38 107.92 288.18 105.86 286.73 106.19C285.28 106.52 267.31 111.23 266.19 111.47C264.53 111.71 262.86 111.78 261.19 111.68Z" fill="#25272B" fill-opacity="1.000000" fill-rule="nonzero"/>
		<path id="Vector" d="M276.53 115.29C273.18 116.86 270.73 119.61 269.05 123.99C276.43 128.88 282 128.3 287.51 124.64C288.92 122.85 289.84 120.72 290.21 118.47C290.21 118.47 284.43 112.73 276.53 115.29Z" fill="#FFFFFF" fill-opacity="1.000000" fill-rule="nonzero"/>
		<path id="Vector" d="M285.3 123.56C284.69 124.71 283.75 125.65 282.61 126.26C281.47 126.88 280.17 127.14 278.88 127.01C277.58 126.89 276.36 126.39 275.35 125.57C274.35 124.74 273.61 123.64 273.23 122.4C272.85 121.16 272.84 119.83 273.22 118.59C273.59 117.35 274.32 116.24 275.33 115.42C276.33 114.59 277.55 114.08 278.84 113.95C280.14 113.82 281.44 114.08 282.58 114.69C284.12 115.5 285.27 116.9 285.78 118.56C286.29 120.22 286.12 122.02 285.3 123.56Z" fill="#585F6B" fill-opacity="1.000000" fill-rule="nonzero"/>
		<path id="Vector" d="M281.67 121.64C281.45 122.06 281.1 122.41 280.67 122.64C280.24 122.87 279.75 122.97 279.27 122.92C278.79 122.88 278.33 122.69 277.95 122.38C277.58 122.07 277.3 121.66 277.16 121.2C277.02 120.73 277.02 120.24 277.16 119.77C277.3 119.31 277.57 118.89 277.95 118.58C278.32 118.28 278.78 118.08 279.26 118.04C279.74 117.99 280.23 118.08 280.66 118.31C280.94 118.46 281.2 118.67 281.4 118.92C281.61 119.17 281.76 119.45 281.86 119.76C281.95 120.07 281.98 120.4 281.95 120.72C281.92 121.04 281.83 121.35 281.67 121.64Z" fill="#25272B" fill-opacity="1.000000" fill-rule="nonzero"/>
		<g opacity="0.500000" style="mix-blend-mode:multiply">
			<path id="Vector" d="M285.96 119.3C285.69 117.58 284.75 116.04 283.34 115.01C281.94 113.99 280.18 113.57 278.46 113.83C276.75 114.1 275.21 115.04 274.18 116.45C273.16 117.85 272.73 119.61 273 121.33C277.12 119.72 281.54 119.02 285.96 119.3Z" fill="#25272B" fill-opacity="1.000000" fill-rule="nonzero"/>
		</g>
		<path id="Vector" d="M275.75 122.84C275.56 123.19 275.28 123.48 274.93 123.67C274.57 123.86 274.18 123.94 273.78 123.9C273.39 123.86 273.01 123.71 272.7 123.46C272.4 123.21 272.17 122.87 272.05 122.49C271.94 122.11 271.93 121.71 272.05 121.33C272.16 120.94 272.38 120.61 272.69 120.35C272.99 120.1 273.37 119.94 273.76 119.9C274.16 119.86 274.56 119.93 274.91 120.12C275.38 120.37 275.73 120.8 275.89 121.31C276.05 121.82 276 122.37 275.75 122.84Z" fill="#FFFFFF" fill-opacity="1.000000" fill-rule="nonzero"/>
		<path id="Vector" d="M266.92 123.32C270.27 119.51 275.93 115.35 281.04 115.47C282.54 115.51 284.03 115.85 285.41 116.46C286.79 117.08 288.03 117.97 289.06 119.07C288.55 121.26 287.93 123.41 287.18 125.52C289.41 123.74 291.14 118.96 291.23 117.91C288.75 115.19 283.55 111.92 277.41 114.05C272.16 115.85 269.49 119.33 266.92 123.32Z" fill="#25272B" fill-opacity="1.000000" fill-rule="nonzero"/>
		<path id="Vector" d="M272.94 117.22C271.3 119.07 270.03 121.21 269.2 123.54C271.47 120.5 274.11 117.74 277.04 115.33C275.58 115.74 274.2 116.38 272.94 117.22Z" fill="#25272B" fill-opacity="1.000000" fill-rule="nonzero"/>
		<path id="Vector" d="M289.37 116.21C290.05 116.75 290.9 117.05 291.76 117.05C292.49 116.99 294.38 117.05 294.38 117.05L289.64 122.19L289.37 116.21Z" fill="#25272B" fill-opacity="1.000000" fill-rule="nonzero"/>
		<path id="Vector" d="M248.55 111.68C248.55 111.68 246.29 113.53 245.33 114.12C244.22 114.85 242.88 115.12 241.58 114.88C240.47 114.51 223.21 108.79 221.8 108.37C219.67 108.06 217.51 107.91 215.35 107.92C215.35 107.92 221.56 105.86 223.01 106.19C224.46 106.52 242.42 111.23 243.54 111.47C245.2 111.71 246.88 111.78 248.55 111.68Z" fill="#25272B" fill-opacity="1.000000" fill-rule="nonzero"/>
		<path id="Vector" d="M233.24 115.29C236.6 116.86 239.04 119.61 240.73 123.99C233.33 128.88 227.77 128.3 222.25 124.64C220.85 122.85 219.92 120.72 219.56 118.47C219.56 118.47 225.3 112.73 233.24 115.29Z" fill="#FFFFFF" fill-opacity="1.000000" fill-rule="nonzero"/>
		<path id="Vector" d="M224.43 123.56C225.04 124.71 225.97 125.65 227.12 126.26C228.26 126.88 229.56 127.14 230.85 127.01C232.14 126.89 233.37 126.39 234.38 125.57C235.38 124.74 236.12 123.64 236.5 122.4C236.88 121.16 236.89 119.83 236.51 118.59C236.14 117.35 235.4 116.24 234.4 115.42C233.4 114.59 232.18 114.08 230.89 113.95C229.59 113.82 228.29 114.08 227.15 114.69C225.61 115.5 224.46 116.9 223.95 118.56C223.44 120.22 223.61 122.02 224.43 123.56Z" fill="#585F6B" fill-opacity="1.000000" fill-rule="nonzero"/>
		<path id="Vector" d="M228.05 121.64C228.28 122.06 228.63 122.41 229.06 122.64C229.49 122.87 229.97 122.97 230.45 122.93C230.94 122.88 231.4 122.69 231.77 122.39C232.15 122.08 232.43 121.67 232.57 121.21C232.71 120.74 232.71 120.25 232.58 119.78C232.44 119.32 232.16 118.9 231.79 118.59C231.42 118.28 230.96 118.09 230.48 118.04C230 117.99 229.51 118.08 229.08 118.31C228.79 118.46 228.54 118.67 228.33 118.91C228.13 119.16 227.97 119.45 227.88 119.76C227.78 120.07 227.75 120.39 227.78 120.72C227.81 121.04 227.9 121.35 228.05 121.64Z" fill="#25272B" fill-opacity="1.000000" fill-rule="nonzero"/>
		<g opacity="0.500000" style="mix-blend-mode:multiply">
			<path id="Vector" d="M223.77 119.3C224.09 117.62 225.04 116.13 226.44 115.15C227.83 114.17 229.55 113.76 231.24 114.03C232.92 114.29 234.44 115.2 235.46 116.56C236.49 117.93 236.95 119.63 236.74 121.33C232.61 119.72 228.19 119.02 223.77 119.3Z" fill="#25272B" fill-opacity="1.000000" fill-rule="nonzero"/>
		</g>
		<path id="Vector" d="M222.56 120.85C222.75 121.2 223.04 121.49 223.39 121.68C223.74 121.87 224.14 121.95 224.53 121.91C224.93 121.87 225.3 121.72 225.61 121.47C225.92 121.22 226.15 120.88 226.26 120.5C226.38 120.12 226.38 119.71 226.27 119.33C226.15 118.95 225.93 118.61 225.62 118.36C225.31 118.11 224.94 117.95 224.54 117.91C224.15 117.87 223.75 117.95 223.4 118.14C222.93 118.39 222.57 118.81 222.42 119.32C222.26 119.83 222.31 120.38 222.56 120.85Z" fill="#FFFFFF" fill-opacity="1.000000" fill-rule="nonzero"/>
		<path id="Vector" d="M242.81 123.32C239.47 119.51 233.8 115.35 228.7 115.47C227.19 115.51 225.71 115.85 224.33 116.46C222.95 117.08 221.71 117.97 220.68 119.07C221.18 121.26 221.81 123.41 222.55 125.52C220.33 123.74 218.59 118.96 218.5 117.91C220.98 115.19 226.18 111.92 232.32 114.05C237.58 115.85 240.24 119.33 242.81 123.32Z" fill="#25272B" fill-opacity="1.000000" fill-rule="nonzero"/>
		<path id="Vector" d="M236.79 117.22C238.44 119.06 239.7 121.21 240.52 123.54C238.26 120.49 235.62 117.74 232.68 115.33C234.14 115.74 235.53 116.38 236.79 117.22Z" fill="#25272B" fill-opacity="1.000000" fill-rule="nonzero"/>
		<path id="Vector" d="M220.37 116.21C219.69 116.75 218.84 117.05 217.97 117.05C217.25 116.99 215.35 117.05 215.35 117.05L220.09 122.19L220.37 116.21Z" fill="#25272B" fill-opacity="1.000000" fill-rule="nonzero"/>
		<path id="Vector" d="M251.28 139.05C251.28 139.05 251.28 147.55 251.45 148.39C251.61 149.23 252.61 152.42 252.61 152.42C252.61 152.42 248.62 151.74 247.77 148.63C248.17 145.92 251.28 139.05 251.28 139.05Z" fill="#FF9580" fill-opacity="1.000000" fill-rule="nonzero"/>
		<path id="Vector" d="M256.88 152.18C257.49 151.38 259.09 149.36 259.7 149.69C260.33 150.09 260.78 150.73 260.95 151.46C260.87 151.77 259.42 151.98 256.88 152.18Z" fill="#BD5151" fill-opacity="1.000000" fill-rule="nonzero"/>
		<path id="Vector" d="M239.11 159.58C239.11 159.58 246.93 159.49 257.96 158.76C262.5 158.58 267.02 158.1 271.5 157.33L274.55 156.71C269.74 158.81 264.81 160.58 259.77 162.03C253.37 163.68 250.19 163.28 247.69 162.72C244.77 161.83 241.91 160.78 239.11 159.58Z" fill="#FFFFFF" fill-opacity="1.000000" fill-rule="nonzero"/>
		<path id="Vector" d="M245.74 162.15L239.94 159.71L245.22 159.43L239.64 159.23L239.85 158.59C239.85 158.59 238.68 159.43 238.55 159.56C238.43 159.68 238.76 160.33 238.76 160.33C238.98 160.22 239.22 160.17 239.46 160.17C239.8 160.26 245.74 162.15 245.74 162.15Z" fill="#BD5151" fill-opacity="1.000000" fill-rule="nonzero"/>
		<path id="Vector" d="M268.36 159.25C270.62 158.68 272.83 157.93 274.97 157.01L275.23 157.48C275.23 157.48 275.89 156.51 275.77 156.37C274.81 156.15 273.84 156 272.87 155.91C272.66 155.91 274.13 156.53 274.06 156.59C273.98 156.65 269.69 157.68 269.69 157.68L273.71 157.12C273.71 157.12 271.95 157.96 268.36 159.25Z" fill="#BD5151" fill-opacity="1.000000" fill-rule="nonzero"/>
		<path id="Vector" d="M246.85 161.29C246.85 161.29 250.15 161.61 250.64 161.61C251.12 161.61 260.96 160.37 260.96 160.37C260.96 160.37 252.69 162.15 250.88 162.15C249.51 161.99 248.16 161.7 246.85 161.29Z" fill="#B6BDE0" fill-opacity="1.000000" fill-rule="nonzero"/>
		<path id="Vector" d="M260.6 166.34C260.6 166.34 255.77 167.59 254.87 167.67C253.97 167.74 250.11 167.31 250.17 167.67C250.23 168.02 252.97 169.84 255 170.29C257.03 170.73 261.87 165.99 260.6 166.34Z" fill="#FF9580" fill-opacity="1.000000" fill-rule="nonzero"/>
		<path id="Vector" d="M282.07 173.49C276.27 167.69 265.95 159.37 265.84 159.28L267.07 159.03C267.79 159.61 276.92 166.92 282.76 172.81L282.07 173.49Z" fill="#348577" fill-opacity="1.000000" fill-rule="nonzero"/>
		<path id="Vector" d="M282.33 173.2C286.36 176.74 292.26 181.79 303.6 180.75C296.92 174.33 289.05 171.18 281.36 172L282.33 173.2Z" fill="#348577" fill-opacity="1.000000" fill-rule="nonzero"/>
		<path id="Vector" d="M282.4 172.77C286.12 176.64 291.42 182.3 290.9 193.7C284.18 187.31 280.68 179.59 281.16 171.87L282.4 172.77Z" fill="#348577" fill-opacity="1.000000" fill-rule="nonzero"/>
		<path id="Vector" d="M253.15 25.53C252.19 24.78 251.05 24.29 249.84 24.12C248.63 23.95 247.4 24.1 246.27 24.56C246.44 23.63 246.33 22.66 245.96 21.78C245.58 20.9 244.96 20.16 244.16 19.64C243.26 19.04 242.21 18.7 241.12 18.67C239.79 18.6 238.46 18.86 237.26 19.44C237.34 18.49 237.14 17.53 236.68 16.7C236.22 15.86 235.52 15.18 234.68 14.73C233.59 14.19 232.38 13.95 231.17 14.03C229.95 14.11 228.78 14.5 227.77 15.18C227.77 14.21 227.47 13.27 226.92 12.47C226.37 11.68 225.6 11.06 224.7 10.71C223.56 10.28 222.32 10.16 221.12 10.37C219.91 10.58 218.78 11.1 217.85 11.88C217.73 10.93 217.32 10.03 216.69 9.3C216.05 8.58 215.21 8.06 214.28 7.81C213.21 7.53 212.09 7.53 211.02 7.81C210.42 7.96 209.84 8.19 209.29 8.48C208.67 8.84 208.1 9.26 207.57 9.75C207.57 9.75 205.95 11.9 204.48 14.1C203.74 15.19 203.04 16.28 202.54 17.1L201.69 18.53C201.9 19.37 202.33 20.14 202.94 20.76C203.54 21.37 204.3 21.82 205.14 22.04C206.79 22.33 208.79 21.86 210.94 19.88C211.07 20.87 211.5 21.8 212.17 22.53C212.8 23.28 213.66 23.78 214.62 23.95C215.45 24.07 216.3 24.01 217.1 23.76C218.15 23.47 219.13 22.98 220 22.32C219.99 22.99 220.12 23.66 220.39 24.27C220.66 24.88 221.07 25.43 221.57 25.87C222.08 26.31 222.67 26.64 223.32 26.83C223.96 27.01 224.64 27.06 225.3 26.95C226.53 26.82 227.71 26.41 228.77 25.76C228.69 26.77 228.91 27.79 229.42 28.66C229.88 29.54 230.64 30.22 231.55 30.6C232.48 30.91 233.46 31.03 234.43 30.95C235.4 30.87 236.35 30.59 237.21 30.12C237.03 30.98 237.1 31.88 237.4 32.7C237.71 33.52 238.24 34.24 238.93 34.78C239.68 35.35 240.59 35.69 241.53 35.75C242.76 35.84 244 35.66 245.16 35.24C244.87 36.2 244.87 37.23 245.16 38.19C245.42 39.03 245.93 39.77 246.63 40.3L254.84 30.86C255.09 29.9 255.06 28.89 254.77 27.95C254.47 27.01 253.91 26.17 253.15 25.53Z" fill="#E0E5FF" fill-opacity="1.000000" fill-rule="nonzero"/>
		<path id="Vector" d="M245.19 38.15C245.45 38.99 245.96 39.72 246.66 40.25L249.76 36.69C248.14 36.52 246.57 36.01 245.16 35.19C244.88 36.15 244.89 37.19 245.19 38.15Z" fill="#B6BDE0" fill-opacity="1.000000" fill-rule="nonzero"/>
		<path id="Vector" d="M254.99 28.89C254.9 28.25 254.7 27.64 254.4 27.08C254.18 27.76 253.8 28.37 253.3 28.88C252.79 29.38 252.17 29.76 251.5 29.98C249.87 30.61 248.16 30.99 246.42 31.11C244.65 31.28 242.87 31.28 241.09 31.11C239.75 31.05 238.44 30.72 237.23 30.14C237.05 31 237.12 31.89 237.42 32.72C237.73 33.54 238.26 34.26 238.95 34.8C239.7 35.37 240.61 35.71 241.55 35.77C242.78 35.86 244.02 35.68 245.18 35.26C245.18 35.26 247.49 34.02 249.89 32.9C251.09 32.34 252.32 31.81 253.25 31.44C253.78 31.21 254.33 31.02 254.89 30.88C254.97 30.56 255.01 30.24 255.02 29.91C255.04 29.57 255.03 29.23 254.99 28.89Z" fill="#B6BDE0" fill-opacity="1.000000" fill-rule="nonzero"/>
		<path id="Vector" d="M246.27 24.58C246.39 23.97 246.38 23.34 246.25 22.73C246.13 22.13 245.88 21.55 245.52 21.04C245.22 22.97 243.41 24.23 241.14 25.03C239.95 25.46 238.72 25.78 237.47 26C236.22 26.19 234.97 26.32 233.71 26.38C232.04 26.52 230.36 26.32 228.77 25.79C228.69 26.8 228.91 27.81 229.42 28.69C229.88 29.57 230.64 30.25 231.55 30.63C232.48 30.94 233.46 31.06 234.43 30.98C235.4 30.9 236.35 30.62 237.21 30.15C237.21 30.15 239.38 28.71 241.66 27.33C243.93 25.95 246.27 24.58 246.27 24.58Z" fill="#B6BDE0" fill-opacity="1.000000" fill-rule="nonzero"/>
		<path id="Vector" d="M232.93 22.51C235.03 20.93 237.26 19.41 237.26 19.41C237.36 18.16 236.97 16.92 236.17 15.95C236.09 16.65 235.84 17.32 235.46 17.91C235.07 18.51 234.55 19 233.94 19.35C232.48 20.31 230.88 21.02 229.19 21.48C227.49 21.98 225.74 22.32 223.97 22.52C222.64 22.68 221.29 22.62 219.98 22.31C219.97 22.99 220.1 23.65 220.37 24.27C220.64 24.89 221.05 25.44 221.55 25.88C222.06 26.32 222.66 26.65 223.31 26.83C223.95 27.02 224.63 27.06 225.3 26.95C226.53 26.82 227.71 26.41 228.77 25.76L230.06 24.73C230.83 24.11 231.87 23.28 232.93 22.51Z" fill="#B6BDE0" fill-opacity="1.000000" fill-rule="nonzero"/>
		<path id="Vector" d="M223.78 18.64C225.72 16.87 227.77 15.15 227.77 15.15C227.75 13.89 227.23 12.69 226.34 11.8C226.42 13.73 224.91 15.29 222.82 16.63C220.63 17.87 218.27 18.8 215.83 19.41C214.92 19.65 214 19.82 213.07 19.91C212.36 20 211.63 20 210.92 19.91C211.05 20.9 211.48 21.82 212.15 22.56C212.78 23.31 213.64 23.81 214.6 23.98C215.43 24.1 216.28 24.04 217.08 23.79C218.13 23.5 219.11 23.01 219.98 22.35C219.98 22.35 221.82 20.45 223.78 18.64Z" fill="#B6BDE0" fill-opacity="1.000000" fill-rule="nonzero"/>
		<path id="Vector" d="M214.26 15.8C215.98 13.82 217.85 11.88 217.85 11.88C217.68 10.63 217.04 9.48 216.04 8.7C216.11 9.4 216.01 10.11 215.76 10.77C215.5 11.43 215.1 12.02 214.58 12.49C213.35 13.74 211.94 14.79 210.39 15.61C209.6 16.05 208.79 16.45 207.96 16.8C207.18 17.17 206.38 17.49 205.56 17.77C204.32 18.24 203.02 18.49 201.69 18.5C201.9 19.34 202.33 20.11 202.94 20.73C203.54 21.35 204.3 21.79 205.14 22.01C206.79 22.3 208.79 21.83 210.94 19.85L211.95 18.55C212.55 17.82 213.4 16.76 214.26 15.8Z" fill="#B6BDE0" fill-opacity="1.000000" fill-rule="nonzero"/>
		<path id="Vector" d="M303.6 7.5C302.89 6.79 301.93 5.82 300.97 4.92C299.03 3.11 297.02 1.32 297.02 1.32C295.85 0.58 294.53 0.14 293.16 0.01C292.04 -0.07 290.92 0.15 289.91 0.65C289.02 1.05 288.26 1.7 287.74 2.52C287.21 3.35 286.93 4.3 286.94 5.28C285.85 4.68 284.62 4.36 283.38 4.36C282.13 4.36 280.9 4.68 279.81 5.28C278.97 5.78 278.29 6.51 277.85 7.38C277.4 8.25 277.22 9.23 277.31 10.2C276.15 9.73 274.89 9.55 273.65 9.7C272.4 9.84 271.21 10.3 270.19 11.03C269.4 11.62 268.79 12.42 268.45 13.34C268.11 14.27 268.04 15.27 268.26 16.23C267.04 15.89 265.75 15.86 264.52 16.16C263.29 16.46 262.16 17.07 261.24 17.93C260.49 18.64 259.97 19.54 259.74 20.54C259.51 21.48 259.57 22.46 259.92 23.37C258.53 23.22 257.13 23.43 255.85 23.97C254.74 24.45 253.79 25.21 253.07 26.18C252.43 27.05 252.03 28.08 251.92 29.16C251.87 29.67 251.89 30.18 251.99 30.68C252.04 30.93 252.1 31.17 252.19 31.4C252.26 31.66 252.35 31.91 252.46 32.14L263.1 38.75C263.19 38.64 263.26 38.53 263.32 38.41C263.41 38.23 263.5 38.04 263.57 37.85C263.71 37.42 263.8 36.98 263.83 36.53C263.87 35.52 263.63 34.52 263.13 33.63C264.37 33.76 265.62 33.65 266.81 33.3C267.71 33.02 268.52 32.51 269.17 31.81C269.74 31.14 270.11 30.33 270.26 29.45C270.41 28.58 270.32 27.69 270.01 26.87C272.47 27.4 274.43 27.13 275.74 26.24C276.59 25.69 277.25 24.88 277.63 23.94C278 22.99 278.06 21.95 277.81 20.97C280.65 22.01 282.77 21.65 284.26 20.66C285.01 20.15 285.59 19.44 285.95 18.61C286.31 17.78 286.43 16.87 286.3 15.98C288.64 17.12 290.62 17.22 292.1 16.63C293.07 16.28 293.9 15.64 294.48 14.79C295.06 13.95 295.35 12.94 295.31 11.91C297.83 13.37 300.15 13.61 301.76 12.88C302.57 12.51 303.27 11.92 303.78 11.19C304.32 10.45 304.64 9.58 304.7 8.67L303.6 7.5Z" fill="#E0E5FF" fill-opacity="1.000000" fill-rule="nonzero"/>
		<path id="Vector" d="M261.45 35.02C260.71 35.5 259.94 35.91 259.13 36.26L263.1 38.75C263.19 38.64 263.26 38.53 263.32 38.41C263.41 38.23 263.5 38.04 263.57 37.85C263.71 37.42 263.8 36.98 263.83 36.53C263.87 35.52 263.63 34.52 263.13 33.63C262.64 34.17 262.07 34.64 261.45 35.02Z" fill="#B6BDE0" fill-opacity="1.000000" fill-rule="nonzero"/>
		<path id="Vector" d="M258.22 30.22C257.38 30.28 256.53 30.27 255.68 30.17C254.09 29.96 252.78 29.43 252.12 28.15C251.74 29.48 251.86 30.91 252.46 32.15L252.98 32.09C253.41 32.07 253.84 32.07 254.26 32.09C255.28 32.09 256.64 32.34 257.95 32.54C259.27 32.74 260.58 33.03 261.53 33.25L263.13 33.64C264.37 33.77 265.62 33.66 266.81 33.31C267.71 33.03 268.52 32.52 269.17 31.82C269.74 31.15 270.11 30.33 270.26 29.46C270.41 28.59 270.32 27.7 270.01 26.88C268.41 28.18 264.73 29.32 260.99 29.9C260.07 30.06 259.15 30.17 258.22 30.22Z" fill="#B6BDE0" fill-opacity="1.000000" fill-rule="nonzero"/>
		<path id="Vector" d="M269.03 22.85C267.74 22.91 266.45 22.86 265.16 22.7C262.7 22.34 260.67 21.55 260.02 19.67C259.75 20.26 259.6 20.89 259.58 21.53C259.55 22.17 259.65 22.81 259.88 23.41C259.88 23.41 262.51 24.15 265.02 25.01C267.52 25.87 270 26.94 270 26.94C272.46 27.47 274.42 27.2 275.73 26.31C276.58 25.77 277.24 24.96 277.62 24.01C277.99 23.07 278.05 22.03 277.8 21.05C276.29 21.89 274.61 22.4 272.89 22.54C271.61 22.74 270.32 22.85 269.03 22.85Z" fill="#B6BDE0" fill-opacity="1.000000" fill-rule="nonzero"/>
		<path id="Vector" d="M280.93 16.99C280.49 16.99 280.04 16.99 279.58 16.99C278.64 16.98 277.7 16.93 276.76 16.82C275 16.66 273.27 16.24 271.63 15.58C270.96 15.36 270.35 14.97 269.85 14.46C269.36 13.95 269 13.33 268.8 12.65C268.45 13.18 268.22 13.78 268.12 14.41C268.01 15.04 268.04 15.68 268.19 16.3C268.19 16.3 268.8 16.54 269.73 16.98C270.65 17.41 271.88 17.94 273.08 18.57C275.49 19.76 277.77 21.03 277.77 21.03C280.61 22.07 282.73 21.7 284.23 20.72C284.97 20.21 285.55 19.5 285.91 18.67C286.27 17.84 286.4 16.93 286.26 16.04C285 16.64 283.62 16.97 282.22 17.01C281.83 16.97 281.36 16.98 280.93 16.99Z" fill="#B6BDE0" fill-opacity="1.000000" fill-rule="nonzero"/>
		<path id="Vector" d="M290.16 12.38C287.57 12.24 285.01 11.72 282.56 10.84C280.29 9.97 278.5 8.65 278.31 6.71C277.92 7.21 277.64 7.78 277.47 8.38C277.31 8.99 277.26 9.62 277.34 10.25C277.34 10.25 279.7 11.63 281.94 13.08C284.19 14.53 286.34 15.98 286.34 15.98C288.68 17.12 290.65 17.22 292.14 16.63C293.11 16.28 293.94 15.64 294.52 14.79C295.09 13.95 295.39 12.94 295.35 11.91C293.67 12.42 291.9 12.58 290.16 12.38Z" fill="#B6BDE0" fill-opacity="1.000000" fill-rule="nonzero"/>
		<path id="Vector" d="M302.85 8.91C302.07 8.93 301.3 8.9 300.52 8.81C298.69 8.59 296.89 8.19 295.14 7.6C291.59 6.51 288.29 4.63 288.29 1.86C287.84 2.31 287.49 2.84 287.26 3.43C287.03 4.02 286.91 4.65 286.93 5.28L288.29 6.25C289.1 6.87 290.17 7.7 291.19 8.54C293.29 10.21 295.28 11.93 295.28 11.93C297.8 13.39 300.12 13.63 301.73 12.9C302.55 12.53 303.24 11.94 303.75 11.21C304.29 10.47 304.61 9.6 304.67 8.69C304.08 8.84 303.47 8.92 302.85 8.91Z" fill="#B6BDE0" fill-opacity="1.000000" fill-rule="nonzero"/>
		<path id="Vector" d="M278.32 40.98C278.14 40.18 277.71 39.46 277.1 38.91C276.49 38.37 275.73 38.03 274.92 37.93C275.38 36.91 275.55 35.78 275.41 34.67C275.26 33.68 274.86 32.75 274.23 31.98C273.76 31.31 273.09 30.81 272.32 30.54C271.55 30.27 270.72 30.24 269.93 30.46C269.96 29.34 269.68 28.24 269.13 27.27C268.63 26.4 267.9 25.69 267.02 25.21C266.62 25 266.2 24.83 265.76 24.71C265.35 24.62 264.93 24.59 264.52 24.62C263.76 24.66 263.03 24.95 262.46 25.45C262.1 24.46 261.47 23.58 260.64 22.92C259.81 22.26 258.81 21.85 257.76 21.73C256.89 21.61 256 21.76 255.22 22.16C254.54 22.48 253.98 23.03 253.65 23.7C252.88 22.89 251.91 22.31 250.83 22C249.88 21.75 248.88 21.75 247.93 22C247.13 22.19 246.41 22.61 245.86 23.22C245.31 23.83 244.97 24.59 244.87 25.41C243.85 24.95 242.72 24.77 241.61 24.91C240.6 25.08 239.66 25.52 238.88 26.18C238.22 26.65 237.71 27.32 237.44 28.09C237.17 28.86 237.15 29.7 237.37 30.48C236.25 30.45 235.15 30.73 234.17 31.28C233.31 31.79 232.61 32.51 232.13 33.39C231.92 33.79 231.75 34.21 231.64 34.65C231.55 35.06 231.51 35.48 231.54 35.89C231.58 36.66 231.88 37.38 232.39 37.95C231.39 38.3 230.51 38.93 229.85 39.75C229.2 40.57 228.78 41.56 228.65 42.61C228.54 43.48 228.68 44.37 229.08 45.15C229.41 45.83 229.95 46.39 230.63 46.72L240.01 46.72C240.08 46.13 239.92 45.54 239.57 45.06C239.16 44.47 238.62 43.98 237.98 43.66C238.78 43.38 239.53 42.97 240.21 42.46C240.68 42.14 241.03 41.67 241.22 41.13C241.35 40.56 241.33 39.97 241.18 39.41C241.03 38.84 240.74 38.32 240.34 37.89C241.1 37.94 241.85 37.88 242.59 37.72C243.11 37.64 243.6 37.42 244 37.08C244.47 36.71 244.77 36.18 244.87 35.59C245 34.88 244.95 34.16 244.74 33.47C246.67 34.35 247.91 34.43 248.82 33.99C249.27 33.74 249.64 33.38 249.91 32.95C250.23 32.39 250.42 31.77 250.48 31.13C250.98 31.7 251.56 32.19 252.2 32.6C252.62 32.92 253.13 33.11 253.65 33.14C254.24 33.22 254.84 33.06 255.31 32.69C255.91 32.3 256.39 31.75 256.72 31.12C256.99 31.92 257.4 32.67 257.91 33.34C258.24 33.8 258.71 34.14 259.24 34.31C259.81 34.43 260.4 34.42 260.97 34.27C261.53 34.11 262.05 33.83 262.48 33.43C262.43 34.18 262.49 34.94 262.65 35.68C262.73 36.2 262.95 36.69 263.29 37.09C263.66 37.55 264.19 37.86 264.78 37.95C265.49 38.09 266.22 38.04 266.9 37.83C266.02 39.76 265.94 40.99 266.38 41.91C266.65 42.36 267.03 42.74 267.48 43C268.04 43.31 268.66 43.5 269.3 43.57C268.73 44.07 268.24 44.65 267.83 45.29C267.51 45.71 267.33 46.21 267.29 46.74L276.67 46.74C277.48 45.97 278.07 45 278.37 43.92C278.61 42.95 278.6 41.94 278.32 40.98Z" fill="#E0E5FF" fill-opacity="1.000000" fill-rule="nonzero"/>
		<path id="Vector" d="M236.46 46.74L240.01 46.74C240.08 46.15 239.92 45.55 239.57 45.08C239.16 44.48 238.62 44 237.98 43.68C237.89 44.15 237.71 44.61 237.45 45.03C237.16 45.62 236.83 46.19 236.46 46.74Z" fill="#B6BDE0" fill-opacity="1.000000" fill-rule="nonzero"/>
		<path id="Vector" d="M235.22 42.07C234.15 42.89 233.03 43.61 231.84 44.25C231.39 44.54 230.87 44.71 230.33 44.73C229.8 44.76 229.26 44.65 228.78 44.41C228.91 44.91 229.14 45.37 229.45 45.77C229.77 46.17 230.17 46.5 230.63 46.74C231.79 46.03 233 45.41 234.25 44.86C235.46 44.37 236.71 43.97 237.98 43.68C238.78 43.4 239.53 42.99 240.21 42.48C240.68 42.16 241.03 41.69 241.22 41.15C241.35 40.58 241.33 39.99 241.18 39.43C241.03 38.86 240.74 38.34 240.34 37.91C239.62 39 237.44 40.39 235.22 42.07Z" fill="#B6BDE0" fill-opacity="1.000000" fill-rule="nonzero"/>
		<path id="Vector" d="M241.5 34.6C239.89 35.03 237.81 35.57 236.01 35.9C234.21 36.24 232.47 36.31 231.57 35.06C231.49 35.58 231.52 36.1 231.66 36.6C231.8 37.1 232.05 37.57 232.39 37.96C232.39 37.96 232.89 37.87 233.67 37.78C234.59 37.67 235.52 37.62 236.44 37.61C237.35 37.61 238.26 37.67 239.16 37.78C239.89 37.87 240.34 37.94 240.34 37.94C241.1 37.99 241.85 37.93 242.59 37.77C243.11 37.69 243.6 37.47 244 37.13C244.47 36.76 244.77 36.23 244.87 35.64C245 34.93 244.95 34.2 244.74 33.52C244.34 33.8 243.88 34 243.4 34.11C242.78 34.31 242.14 34.47 241.5 34.6Z" fill="#B6BDE0" fill-opacity="1.000000" fill-rule="nonzero"/>
		<path id="Vector" d="M247.76 31.01L246.87 30.86C246.57 30.86 246.26 30.79 245.9 30.73L244.93 30.57L243.97 30.42C242.64 30.25 241.33 29.97 240.05 29.58C238.89 29.16 238.02 28.62 237.76 27.52C237.5 27.96 237.33 28.46 237.28 28.97C237.22 29.48 237.27 29.99 237.42 30.48C238.74 30.8 240.03 31.21 241.29 31.71C242.49 32.22 243.65 32.82 244.77 33.51C246.7 34.39 247.94 34.47 248.85 34.03C249.29 33.76 249.66 33.39 249.91 32.95C250.23 32.39 250.42 31.77 250.48 31.13C249.57 31.23 248.66 31.19 247.76 31.01Z" fill="#B6BDE0" fill-opacity="1.000000" fill-rule="nonzero"/>
		<path id="Vector" d="M253.65 29.56C252.19 28.73 250.38 27.63 248.82 26.59C247.25 25.56 246.02 24.36 246.28 22.86C245.86 23.17 245.52 23.56 245.27 24.01C245.02 24.46 244.86 24.96 244.82 25.47C245.93 26.27 246.98 27.15 247.96 28.11C248.67 28.85 249.31 29.59 249.77 30.15C250.22 30.71 250.48 31.12 250.48 31.12C250.98 31.69 251.56 32.19 252.2 32.59C252.62 32.91 253.13 33.1 253.65 33.13C254.24 33.21 254.84 33.05 255.31 32.68C255.91 32.29 256.39 31.75 256.72 31.11C256.23 31.01 255.78 30.83 255.36 30.57C254.77 30.28 254.2 29.94 253.65 29.56Z" fill="#B6BDE0" fill-opacity="1.000000" fill-rule="nonzero"/>
		<path id="Vector" d="M258.32 28.32C257.5 27.25 256.78 26.12 256.15 24.94C255.85 24.49 255.68 23.97 255.66 23.43C255.63 22.89 255.74 22.36 255.98 21.88C255.48 22 255.02 22.23 254.62 22.55C254.22 22.87 253.89 23.27 253.65 23.72C254.36 24.89 254.98 26.1 255.53 27.35C256.02 28.56 256.42 29.81 256.72 31.08C256.99 31.88 257.4 32.63 257.91 33.3C258.24 33.76 258.71 34.1 259.24 34.27C259.81 34.4 260.4 34.38 260.97 34.23C261.53 34.08 262.05 33.79 262.48 33.39C261.39 32.7 260 30.54 258.32 28.32Z" fill="#B6BDE0" fill-opacity="1.000000" fill-rule="nonzero"/>
		<path id="Vector" d="M265.79 34.6C265.36 32.97 264.82 30.91 264.49 29.1C264.15 27.29 264.08 25.57 265.33 24.67C264.82 24.59 264.29 24.61 263.79 24.75C263.29 24.89 262.82 25.14 262.43 25.47C262.43 25.47 262.52 25.99 262.61 26.77C262.72 27.69 262.77 28.62 262.78 29.54C262.78 30.45 262.72 31.36 262.61 32.26C262.52 32.97 262.45 33.44 262.45 33.44C262.4 34.19 262.46 34.95 262.62 35.69C262.7 36.21 262.92 36.7 263.26 37.1C263.63 37.56 264.16 37.87 264.75 37.96C265.46 38.1 266.19 38.05 266.87 37.84C266.6 37.43 266.4 36.98 266.29 36.5C266.08 35.88 265.92 35.24 265.79 34.6Z" fill="#B6BDE0" fill-opacity="1.000000" fill-rule="nonzero"/>
		<path id="Vector" d="M269.4 40.85C269.45 40.57 269.49 40.27 269.55 39.96C269.61 39.65 269.62 39.34 269.68 39C269.74 38.65 269.78 38.33 269.84 38.03L269.99 37.06C270.16 35.75 270.44 34.46 270.83 33.2C271.25 32.04 271.79 31.17 272.89 30.91C272.44 30.65 271.95 30.48 271.44 30.42C270.94 30.36 270.42 30.41 269.93 30.56C269.61 31.87 269.2 33.17 268.7 34.42C268.19 35.63 267.59 36.79 266.9 37.9C266.02 39.84 265.94 41.07 266.38 41.98C266.65 42.44 267.03 42.81 267.48 43.08C268.04 43.39 268.66 43.58 269.3 43.65C269.18 42.72 269.21 41.77 269.4 40.85Z" fill="#B6BDE0" fill-opacity="1.000000" fill-rule="nonzero"/>
		<path id="Vector" d="M274.92 37.93C274.12 39.04 273.25 40.08 272.3 41.06C271.57 41.77 270.82 42.41 270.26 42.86C269.7 43.32 269.29 43.58 269.29 43.58C268.73 44.08 268.23 44.65 267.83 45.29C267.51 45.71 267.33 46.21 267.29 46.74L270.83 46.74C271.66 45.29 272.76 43.48 273.79 41.91C274.83 40.33 276.03 39.11 277.53 39.35C277.21 38.95 276.82 38.61 276.37 38.37C275.92 38.13 275.43 37.98 274.92 37.93Z" fill="#B6BDE0" fill-opacity="1.000000" fill-rule="nonzero"/>
		<path id="Vector" d="M274.3 79.81C271.25 90.44 255.88 115.39 245.74 123.94C250.58 107.96 253.9 93.97 253.9 93.97C246.17 104.25 223.67 121.35 223.67 121.35C223.67 121.35 226.98 108.35 232.68 97.96C221.8 108.34 193.4 143 193.4 143L198.51 119.94C198.51 119.94 190.54 130.7 188.85 134.81C189.33 124.42 190.54 113.39 190.54 113.39C182.92 118.05 168.18 129.04 168.18 129.04C173.61 116.57 179.83 104.45 186.79 92.76C180.54 93.3 174.24 92.72 168.18 91.07C168.18 91.07 176.4 87.69 178.21 85.99C180.03 84.3 186.06 78.5 186.06 78.5C179.35 77.89 172.78 76.17 166.62 73.43C166.62 73.43 185.34 63.76 200.69 54.58C212.65 46.73 224.37 36.45 233.31 34.52C242.25 32.59 264.49 29.09 288.53 38.63C292.61 43.42 296.03 48.75 298.68 54.46C298.68 54.46 310.52 61.71 312.21 65.34C313.9 68.96 320.18 91.68 320.18 91.68C323.46 96.55 327.01 101.23 330.82 105.7C330.82 105.7 318.98 103.64 314.51 100.25C316.56 117.54 318.25 133.73 318.25 133.73C318.25 133.73 307.74 121.2 306.17 118.01C305.57 124.26 302.3 134.9 302.3 134.9C302.3 134.9 293.45 107.11 291.23 99.61C290.85 108.02 286.85 116.2 286.85 116.2C286.85 116.2 279.76 93.58 274.3 79.81Z" fill="#31363D" fill-opacity="1.000000" fill-rule="nonzero"/>
		<path id="Vector" d="M207.66 90.94C199.31 104.58 192.97 119.35 188.85 134.8C190.54 130.69 198.51 119.93 198.51 119.93L207.66 90.94Z" fill="#25272B" fill-opacity="1.000000" fill-rule="nonzero"/>
		<path id="Vector" d="M281.04 61.36C278.71 68.69 274.28 79.81 274.28 79.81C275.43 82.71 276.66 86.01 277.88 89.42C281.78 78.74 281.04 61.36 281.04 61.36Z" fill="#25272B" fill-opacity="1.000000" fill-rule="nonzero"/>
		<path id="Vector" d="M307.38 106.75L306.17 118.01C307.74 121.19 318.25 133.69 318.25 133.69C312.69 122.46 307.38 106.75 307.38 106.75Z" fill="#25272B" fill-opacity="1.000000" fill-rule="nonzero"/>
		<path id="Vector" d="M121.98 190.71L122.04 193.33L124.62 193.74C124.62 193.74 123.12 202.06 114.58 199.86C113.54 191.11 121.98 190.71 121.98 190.71Z" fill="#FF94B1" fill-opacity="1.000000" fill-rule="nonzero"/>
	</mask>
	<g mask="url(#mask3_793)">
		<rect id="Rectangle 1" x="-52.198486" y="-4.833191" width="668.913818" height="556.783691" fill="#343434" fill-opacity="1.000000"/>
	</g>
</svg>
