<svg width="1163.000000" height="479.000000" viewBox="0 0 1163 479" fill="none" xmlns="http://www.w3.org/2000/svg" xmlns:xlink="http://www.w3.org/1999/xlink">
	<desc>
			Created with Pixso.
	</desc>
	<defs/>
	<path id="Vector" d="M1162.92 358.98C1162.92 355.02 1162.04 351.07 1161.36 347.07C1161.14 343.37 1160.56 339.67 1159.67 336.02C1157.64 330.08 1151.62 325.14 1149.59 319.17C1147.32 311.11 1146.56 302.9 1147.29 294.72C1147.66 291.1 1147.66 287.47 1147.29 283.85C1146.61 280.12 1144.85 276.52 1144.44 272.75C1143.63 264.71 1142.35 256.71 1141.74 248.71C1141.13 240.71 1141.13 233.21 1139.56 225.52C1138.02 217.84 1134.9 210.97 1132.81 203.6C1131.79 199.96 1131.44 196.23 1130.43 192.54C1129.67 190.4 1129.11 188.22 1128.75 186.03C1128.75 184.01 1129.29 181.98 1128.75 180.01C1127.73 175.11 1120.49 172.95 1114.67 170.79C1110.85 169.34 1106.87 168.08 1102.76 167.02C1096.4 165.54 1090.79 163.38 1084.63 161.76C1075.64 160.13 1066.26 159.7 1057.02 160.5C1045.57 160.5 1034.15 161.49 1022.71 161.18C1016.71 161.22 1010.77 160.37 1005.32 158.71C1000.92 157.22 996.93 155.25 992.46 153.94C982.52 151.71 972.24 150.2 961.81 149.45C956.76 148.56 951.79 147.5 946.92 146.26C941.5 145.41 936.27 144.09 931.36 142.35C928.21 140.81 924.85 139.46 921.34 138.31C916.62 137.42 911.76 136.86 906.86 136.64C896.07 135.87 885.21 135.66 874.38 136.02C868.77 136.18 863.15 135.68 857.8 134.53C852.18 133.23 846.91 131.3 841.36 129.77C830.73 126.85 819.84 124.6 809.35 121.5C798.86 118.4 787.49 115.71 777.07 112.02C768.07 108.25 758.61 104.99 748.79 102.27C744.19 101.24 740.13 99.66 735.73 98.59C730.49 97.71 725.15 97.13 719.76 96.83C714.35 96.11 709.14 94.77 703.72 94.05C698.31 93.33 691.68 92.61 685.59 91.89C674.16 90.34 663.11 87.74 652.77 84.16C643.87 81.33 634.26 79.61 624.42 79.08C618.8 78.68 613.45 77.69 607.9 77.2C602.54 76.93 597.16 76.93 591.8 77.2C583.69 77.27 575.9 79.3 569.88 82.9C560.88 87.4 547.75 87.76 536.72 88.12C525.82 88.22 514.93 87.56 504.24 86.14C493.98 85.28 483.63 85.07 473.31 85.51C468.51 85.51 463.5 85.51 458.77 86C453.07 86.9 447.28 87.48 441.44 87.76C436.92 87.52 432.37 87.67 427.91 88.21C423.02 89.11 418.29 90.32 413.77 91.85C408.56 93.37 403.28 94.27 397.93 95.53C393.59 96.75 389.05 97.63 384.4 98.14C379.39 98.41 374.65 99.71 369.71 99.89C364.29 99.98 358.9 100.52 353.68 101.51C343.23 103.77 333.02 106.47 323.09 109.6C317.75 111.17 312.4 112.34 306.92 113.55C301.44 114.76 295.28 115.17 290 116.69C285.81 117.95 282.22 119.88 278.09 121.19C272.76 122.56 267.19 123.47 261.51 123.88C237.97 126.54 214.15 122.85 190.33 124.87C185.47 125.45 180.67 126.26 175.98 127.3C171.2 127.87 166.51 128.74 161.98 129.91C156.43 131.52 151.49 133.81 145.87 135.34C140.51 136.81 135.02 138.06 129.43 139.07C118.8 141 109.47 144.64 99.04 147.02C88.62 149.41 78.74 149.99 68.66 152.46C62.94 153.94 56.96 154.94 50.86 155.43C46.87 155.62 42.9 155.95 38.96 156.42C33.32 157.42 28.03 159.14 23.39 161.49C23.39 160.95 22.44 160.5 21.84 161C19.06 163.25 15.07 164.82 12.63 167.29C10.58 170.47 10.36 174.03 12.02 177.31C14.33 182.04 15.87 186.92 16.62 191.87C16.96 197.62 16.62 203.37 16.62 209.12C15.95 232.17 17.17 255.23 16.62 278.28C16.62 289.2 13.92 299.98 13.92 310.94L13.92 395.96C13.92 401.21 14.59 406.52 13.92 411.73C13.58 415.1 12.09 418.29 11.35 421.66C10.81 424.09 10.87 426.51 10.67 428.98C10.33 435.78 9.11 442.55 7.02 449.2C4.65 456.35 -3.47 464.98 1.67 472.3C1.76 472.39 1.88 472.46 2.02 472.52C2.16 472.57 2.32 472.61 2.48 472.61C6.45 472.45 10.33 471.73 13.85 470.5C18.93 469.29 24.68 468.8 29.89 467.85C40.99 466.22 52.43 465.86 63.72 466.77C75.99 467.68 88.33 468.12 100.67 468.08C112.88 467.71 125.11 467.9 137.28 468.66C160.62 470.5 183.22 475.45 206.84 475.22C218.46 474.68 230.13 474.68 241.76 475.22C253.87 476.16 265.71 477.87 277.89 478.41C302.18 479.49 326.34 476.7 350.7 477.06C375.06 477.42 400.17 479.31 425.13 478.95C436.98 478.95 448.82 478.95 460.59 478.32C472.37 477.69 485.09 476.97 497.4 476.7C521.12 476.24 544.76 474.74 568.18 472.21C580.8 470.39 593.56 469.09 606.42 468.3C618.73 467.94 631.11 468.3 643.43 468.3C668.4 468.03 693.1 465.83 717.86 463.81C742.63 461.79 767.6 460.3 792.3 459.72C804.95 459.45 817.27 458.69 829.85 457.97C841.36 457.34 852.93 457.97 864.43 457.07C875.94 456.17 888.93 454.82 901.45 454.46C913.97 454.1 924.93 454.46 936.7 454.19C961.56 453.89 986.43 454.67 1011.14 456.53C1035.81 458.62 1060.68 459.57 1085.56 459.36C1097.82 459.23 1110.09 459.67 1122.25 460.66C1128.02 461.19 1133.81 461.49 1139.64 461.56C1143.56 461.87 1147.52 461.43 1151.07 460.3C1155.68 458.24 1154.53 454.15 1154.53 450.96C1154.82 448.08 1155.39 445.21 1156.22 442.37C1156.92 438.53 1157.28 434.66 1157.3 430.78C1157.3 414.87 1162.57 399.33 1162.57 383.38C1162.92 375.29 1163.12 367.2 1162.92 358.98Z" fill="#E13A4B" fill-opacity="1.000000" fill-rule="nonzero"/>
	<path id="Vector" d="M578.19 10.74L574.5 10.74L570.8 10.74C553.71 10.74 511.68 9.64 495 0C495 0 504.99 16.61 520.47 22.41L523.44 26.47L541.19 26.47L541.19 38.01L520.47 38.01L523.44 42.07L541.19 42.07L541.19 95L548.58 95L548.58 42.07L600.41 42.07L600.41 95L607.8 95L607.8 42.07L625.55 42.07L628.52 38.01L607.8 38.01L607.8 26.47L625.55 26.47L628.52 22.41C643.9 16.61 654 0 654 0C637.34 9.64 595.28 10.71 578.19 10.74ZM570.73 38.01L548.52 38.01L548.52 26.47L570.73 26.47L570.73 38.01ZM600.34 38.01L578.13 38.01L578.13 26.47L600.34 26.47L600.34 38.01Z" fill="#E13A4B" fill-opacity="1.000000" fill-rule="nonzero"/>
	<path id="Vector" d="M628.52 240.64L625.55 236.56L607.8 236.56L607.8 225.08L628.52 225.08L625.55 221L607.8 221L607.8 77.5C605.7 77.16 603.64 77.24 601.54 77C601.17 77 600.77 77 600.41 77L600.41 221.03L548.58 221.03L548.58 87.57C546.13 87.31 543.66 87.98 541.19 88L541.19 221.03L523.44 221.03L520.47 225.11L541.19 225.11L541.19 236.59L523.44 236.59L520.47 240.68C505.09 246.46 495 263 495 263C511.65 253.37 553.71 252.31 570.8 252.28L578.19 252.28C595.28 252.28 637.31 253.37 654 263C654 262.97 644 246.43 628.52 240.64ZM570.73 236.56L548.52 236.56L548.52 225.08L570.73 225.08L570.73 236.56ZM600.34 236.56L578.13 236.56L578.13 225.08L600.34 225.08L600.34 236.56Z" fill="#202147" fill-opacity="1.000000" fill-rule="nonzero"/>
</svg>
