<svg width="1163.000000" height="478.000000" viewBox="0 0 1163 478" fill="none" xmlns="http://www.w3.org/2000/svg" xmlns:xlink="http://www.w3.org/1999/xlink">
	<desc>
			Created with Pixso.
	</desc>
	<defs/>
	<path id="Vector" d="M1162.92 120.01C1162.92 123.97 1162.04 127.92 1161.36 131.92C1161.14 135.63 1160.56 139.32 1159.67 142.97C1157.64 148.91 1151.62 153.85 1149.59 159.83C1147.32 167.88 1146.56 176.09 1147.29 184.27C1147.66 187.89 1147.66 191.52 1147.29 195.14C1146.61 198.87 1144.85 202.47 1144.44 206.24C1143.63 214.28 1142.35 222.28 1141.74 230.28C1141.13 238.28 1141.13 245.78 1139.56 253.47C1138.02 261.15 1134.9 268.03 1132.81 275.39C1131.79 279.03 1131.44 282.76 1130.43 286.45C1129.67 288.59 1129.11 290.77 1128.75 292.96C1128.75 294.99 1129.29 297.01 1128.75 298.98C1127.73 303.88 1120.49 306.04 1114.67 308.2C1110.85 309.65 1106.87 310.91 1102.76 311.97C1096.4 313.45 1090.79 315.61 1084.63 317.23C1075.64 318.86 1066.26 319.29 1057.02 318.49C1045.57 318.49 1034.15 317.5 1022.71 317.81C1016.71 317.77 1010.77 318.62 1005.32 320.28C1000.92 321.77 996.93 323.74 992.46 325.05C982.52 327.28 972.24 328.79 961.81 329.54C956.76 330.43 951.79 331.49 946.92 332.73C941.5 333.58 936.27 334.9 931.36 336.64C928.21 338.18 924.85 339.54 921.34 340.68C916.62 341.57 911.76 342.13 906.86 342.35C896.07 343.12 885.21 343.33 874.38 342.97C868.77 342.81 863.15 343.31 857.8 344.46C852.18 345.76 846.91 347.69 841.36 349.22C830.73 352.14 819.84 354.39 809.35 357.49C798.86 360.59 787.49 363.28 777.07 366.97C768.07 370.74 758.61 374 748.79 376.72C744.19 377.75 740.13 379.33 735.73 380.4C730.49 381.28 725.15 381.87 719.76 382.16C714.35 382.88 709.14 384.22 703.72 384.94C698.31 385.66 691.68 386.38 685.59 387.1C674.16 388.65 663.11 391.25 652.77 394.83C643.87 397.66 634.26 399.38 624.42 399.91C618.8 400.31 613.45 401.3 607.9 401.79C602.54 402.06 597.16 402.06 591.8 401.79C583.69 401.72 575.9 399.69 569.88 396.09C560.88 391.59 547.75 391.23 536.72 390.87C525.82 390.77 514.93 391.43 504.24 392.85C493.98 393.71 483.63 393.92 473.31 393.48C468.51 393.48 463.5 393.48 458.77 392.99C453.07 392.09 447.28 391.51 441.44 391.23C436.92 391.47 432.37 391.32 427.91 390.78C423.02 389.89 418.29 388.67 413.77 387.14C408.56 385.62 403.28 384.72 397.93 383.46C393.59 382.24 389.05 381.36 384.4 380.85C379.39 380.58 374.65 379.28 369.71 379.1C364.29 379.01 358.9 378.47 353.68 377.48C343.23 375.22 333.02 372.52 323.09 369.4C317.75 367.82 312.4 366.65 306.92 365.44C301.44 364.23 295.28 363.82 290 362.3C285.81 361.04 282.22 359.11 278.09 357.8C272.76 356.43 267.19 355.53 261.51 355.11C237.97 352.46 214.15 356.14 190.33 354.12C185.47 353.54 180.67 352.73 175.98 351.69C171.2 351.12 166.51 350.25 161.98 349.09C156.43 347.47 151.49 345.18 145.87 343.65C140.51 342.18 135.02 340.93 129.43 339.92C118.8 337.99 109.47 334.35 99.04 331.97C88.62 329.58 78.74 329 68.66 326.53C62.94 325.05 56.96 324.05 50.86 323.56C46.87 323.37 42.9 323.04 38.96 322.57C33.32 321.57 28.03 319.85 23.39 317.5C23.39 318.04 22.44 318.49 21.84 317.99C19.06 315.75 15.07 314.17 12.63 311.7C10.58 308.53 10.36 304.96 12.02 301.68C14.33 296.95 15.87 292.07 16.62 287.12C16.96 281.37 16.62 275.62 16.62 269.87C15.95 246.82 17.17 223.77 16.62 200.71C16.62 189.8 13.92 179.01 13.92 168.05L13.92 83.03C13.92 77.78 14.59 72.47 13.92 67.26C13.58 63.89 12.09 60.7 11.35 57.33C10.81 54.9 10.87 52.48 10.67 50.01C10.33 43.21 9.11 36.44 7.02 29.79C4.65 22.64 -3.47 14.01 1.67 6.69C1.76 6.6 1.88 6.53 2.02 6.47C2.16 6.42 2.32 6.38 2.48 6.38C6.45 6.54 10.33 7.26 13.85 8.49C18.93 9.7 24.68 10.2 29.89 11.14C40.99 12.77 52.43 13.13 63.72 12.22C75.99 11.31 88.33 10.88 100.67 10.91C112.88 11.28 125.11 11.09 137.28 10.33C160.62 8.49 183.22 3.55 206.84 3.77C218.46 4.31 230.13 4.31 241.76 3.77C253.87 2.83 265.71 1.12 277.89 0.58C302.18 -0.5 326.34 2.29 350.7 1.93C375.06 1.57 400.17 -0.32 425.13 0.04C436.98 0.04 448.82 0.04 460.59 0.67C472.37 1.3 485.09 2.02 497.4 2.29C521.12 2.75 544.76 4.25 568.18 6.78C580.8 8.6 593.56 9.9 606.42 10.69C618.73 11.05 631.11 10.69 643.43 10.69C668.4 10.96 693.1 13.16 717.86 15.18C742.63 17.21 767.6 18.69 792.3 19.27C804.95 19.54 817.27 20.31 829.85 21.02C841.36 21.65 852.93 21.02 864.43 21.92C875.94 22.82 888.93 24.17 901.45 24.53C913.97 24.89 924.93 24.53 936.7 24.8C961.56 25.1 986.43 24.32 1011.14 22.46C1035.81 20.37 1060.68 19.43 1085.56 19.63C1097.82 19.76 1110.09 19.32 1122.25 18.33C1128.02 17.8 1133.81 17.5 1139.64 17.43C1143.56 17.12 1147.52 17.56 1151.07 18.69C1155.68 20.75 1154.53 24.84 1154.53 28.03C1154.82 30.92 1155.39 33.78 1156.22 36.62C1156.92 40.46 1157.28 44.33 1157.3 48.21C1157.3 64.12 1162.57 79.66 1162.57 95.61C1162.92 103.7 1163.12 111.79 1162.92 120.01Z" fill="#E13A4B" fill-opacity="1.000000" fill-rule="nonzero"/>
	<path id="Vector" d="M578.19 467.25L574.5 467.25L570.8 467.25C553.71 467.25 511.68 468.35 495 478C495 478 504.99 461.38 520.47 455.58L523.44 451.52L541.19 451.52L541.19 439.98L520.47 439.98L523.44 435.92L541.19 435.92L541.19 383L548.58 383L548.58 435.92L600.41 435.92L600.41 383L607.8 383L607.8 435.92L625.55 435.92L628.52 439.98L607.8 439.98L607.8 451.52L625.55 451.52L628.52 455.58C643.9 461.38 654 478 654 478C637.34 468.35 595.28 467.28 578.19 467.25ZM570.73 439.98L548.52 439.98L548.52 451.52L570.73 451.52L570.73 439.98ZM600.34 439.98L578.13 439.98L578.13 451.52L600.34 451.52L600.34 439.98Z" fill="#E13A4B" fill-opacity="1.000000" fill-rule="nonzero"/>
	<path id="Vector" d="M628.52 238.35L625.55 242.43L607.8 242.43L607.8 253.91L628.52 253.91L625.55 257.99L607.8 257.99L607.8 401.5C605.7 401.83 603.64 401.75 601.54 402C601.17 402 600.77 402 600.41 402L600.41 257.96L548.58 257.96L548.58 391.42C546.13 391.68 543.66 391.01 541.19 391L541.19 257.96L523.44 257.96L520.47 253.88L541.19 253.88L541.19 242.4L523.44 242.4L520.47 238.32C505.09 232.53 495 216 495 216C511.65 225.62 553.71 226.68 570.8 226.71L578.19 226.71C595.28 226.71 637.31 225.62 654 216C654 216.03 644 232.56 628.52 238.35ZM570.73 242.43L548.52 242.43L548.52 253.91L570.73 253.91L570.73 242.43ZM600.34 242.43L578.13 242.43L578.13 253.91L600.34 253.91L600.34 242.43Z" fill="#202147" fill-opacity="1.000000" fill-rule="nonzero"/>
</svg>
