<svg width="1163.000000" height="590.000000" viewBox="0 0 1163 590" fill="none" xmlns="http://www.w3.org/2000/svg" xmlns:xlink="http://www.w3.org/1999/xlink">
	<desc>
			Created with Pixso.
	</desc>
	<defs/>
	<path id="Vector" d="M637 150.04C636.64 150.78 635.19 151.12 634.62 151.75C633.74 153.02 632.92 154.33 632.18 155.67C631.28 157.03 630.12 158.2 628.76 159.09C628.06 159.68 627.22 160.08 626.33 160.24C625.86 160.33 625.44 160.36 624.98 160.46C621.24 161.54 617.29 161.69 613.48 160.89C612.78 160.7 612.08 160.55 611.39 160.41C611.75 160.39 612.11 160.34 612.45 160.24C614.13 159.46 615.59 158.29 616.71 156.82C618.25 155.3 618.68 153.28 619.71 151.43C620.08 150.75 620.48 150.06 620.92 149.41C621.37 148.76 621.67 148.08 622.26 147.8C622.58 147.65 622.44 147.05 622.07 147.1C621.45 147.27 620.92 147.67 620.59 148.21C620.09 148.88 619.64 149.59 619.23 150.32C618.8 151.07 618.42 151.85 618.08 152.64C617.71 153.83 617.13 154.94 616.37 155.93C615.63 156.75 614.85 157.55 614.08 158.31C613.4 159.03 612.52 159.54 611.55 159.76C610.55 159.97 609.51 159.86 608.5 160.09L608.23 160.17C606.91 160.09 605.59 160.19 604.29 160.45C601.45 161.06 598.39 161.08 595.74 162.16C593.45 163.1 592.83 163.75 592.76 166.13C592.8 166.95 592.6 167.77 592.2 168.49C591.81 169.22 591.22 169.82 590.5 170.23C590.03 170.45 589.58 170.69 589.14 170.95C588.55 171.38 588.19 172.11 587.66 172.66C587.13 173.21 586.31 173.81 585.66 174.37C585.42 174.28 585.19 174.17 584.96 174.05C584.96 174.05 584.96 173.89 584.96 173.82C585 173.67 585 173.51 584.97 173.36C584.94 173.2 584.87 173.06 584.78 172.93C584.68 172.81 584.56 172.71 584.42 172.64C584.28 172.57 584.13 172.53 583.97 172.52L583.87 172.52C583.75 172.26 583.66 171.98 583.59 171.7C582.94 168.97 584.11 165.97 584.17 163.15C584.28 162.41 584.15 161.65 583.82 160.98C583.49 160.31 582.96 159.75 582.31 159.39C581.32 158.74 580.24 158.2 579.23 157.57C578.47 157.22 577.83 156.66 577.39 155.96C576.94 155.25 576.7 154.44 576.7 153.6C576.68 153.52 576.64 153.45 576.57 153.4C576.51 153.35 576.43 153.32 576.35 153.32C576.27 153.32 576.19 153.35 576.12 153.4C576.06 153.45 576.01 153.52 576 153.6C575.81 154.4 575.87 155.23 576.17 155.99C576.48 156.75 577.02 157.39 577.71 157.83C578.7 158.5 579.72 159.11 580.77 159.68C581.44 159.99 582.06 160.4 582.62 160.89C583.16 161.75 583.35 162.8 583.15 163.8C583.03 166.42 582.05 169.05 582.55 171.67C582.63 172.06 582.74 172.44 582.87 172.81C582.02 173.45 581.33 174.28 580.86 175.23C580.38 176.03 580 176.94 579.52 177.72C579.04 178.51 578.02 179.44 577.52 180.56C577.37 180.93 577.24 181.31 577.14 181.69C576.46 182.12 575.77 182.57 575.09 183.08C573.65 184.02 572.42 185.24 571.45 186.66C570.48 188.08 569.81 189.68 569.46 191.36C568.62 192.16 568.25 193.07 566.86 193.38C564.76 194.01 562.72 194.85 560.77 195.88C558.29 197.09 554.03 197.59 554.3 201.28C554.32 201.71 554.46 202.13 554.71 202.49C554.95 202.85 555.3 203.12 555.7 203.29C556.1 203.46 556.54 203.5 556.96 203.43C557.39 203.35 557.78 203.15 558.1 202.86C557.73 203.23 558.84 202.65 559.16 202.55C559.8 202.39 560.45 202.32 561.06 202.21C562.9 201.75 564.67 201.1 566.37 200.25C569.55 198.9 573.72 198.65 574.49 194.46C574.51 194.31 574.51 194.16 574.49 194.01C577.38 193.58 578.31 189.8 578.29 187.3C578.28 186.54 578.35 185.78 578.49 185.03C578.62 184.67 578.71 184.31 578.78 183.93C578.9 183.61 579.04 183.3 579.2 182.99L580.21 182.33C581.52 181.39 582.62 180.2 583.46 178.82C583.58 178.58 583.68 178.32 583.73 178.05C584.52 177.38 585.44 176.88 586.43 176.6C586.6 176.55 586.75 176.43 586.83 176.28C586.92 176.13 586.94 175.94 586.89 175.77C586.85 175.35 586.65 174.96 586.33 174.68C587.42 173.81 588.59 172.97 589.56 172.23C590.54 171.5 591.79 171.27 592.76 170.18C593.45 169.46 593.97 168.6 594.27 167.65C594.61 166.13 593.65 165.22 595.05 164.09C596.41 163.27 597.94 162.8 599.52 162.7C601.76 162.45 603.95 161.69 606.16 161.35C606.05 161.46 606.16 161.59 606.31 161.51C606.42 161.4 606.53 161.3 606.65 161.22C607.48 161.12 608.31 161.12 609.13 161.22C612.56 161.54 615.79 162.93 619.4 162.64C620.98 162.46 622.56 162.18 624.1 161.78C624.86 161.54 625.63 161.37 626.41 161.27C627.03 161.27 627.68 161.44 628.28 161.13C628.53 161.01 628.55 160.87 628.84 160.69C629.54 160.12 630.2 159.52 630.83 158.87C631.67 158.08 632.41 157.17 633 156.17C633.72 154.69 634.66 153.32 635.79 152.11C636.57 151.41 637.31 151.29 637.7 150.3C637.75 149.96 637.15 149.7 637 150.04ZM574.03 186.95C573.53 187.8 573.29 188.83 572.85 189.73C572.76 189.92 572.68 190.12 572.61 190.32C572.61 189.58 572.76 188.86 573.05 188.18C573.35 187.51 573.78 186.91 574.32 186.41C574.21 186.59 574.12 186.76 574.03 186.95Z" fill="#E13A4B" fill-opacity="1.000000" fill-rule="nonzero"/>
	<path id="Vector" d="M685.14 85.1C686.68 83.1 688.04 80.98 689.23 78.76C690.94 76.09 693.17 73.8 694.65 70.99C694.72 70.88 694.73 70.75 694.7 70.62C694.67 70.5 694.59 70.4 694.47 70.33C694.36 70.27 694.23 70.25 694.11 70.29C693.98 70.32 693.88 70.4 693.82 70.51C692.28 72.65 690.65 74.74 689.09 76.89C687.54 79.05 686.48 81.6 684.77 83.74C683.36 85.45 681.64 86.83 680.25 88.54C679.06 90.23 678 92 677.08 93.85C675.97 95.75 673.22 96.91 671.35 97.99C670.35 98.74 669.17 99.23 667.93 99.41C666.88 99.46 665.82 99.58 664.78 99.77C662.87 100.12 660.92 100.3 658.97 100.31C656.85 100.54 654.78 101.07 652.81 101.87C650.99 102.61 649.27 103.57 647.68 104.71C647.11 105 646.58 105.34 646.05 105.67C646.7 105.03 647.27 104.33 647.76 103.56C648.77 102.03 649.58 100.38 650.16 98.64C650.28 97.59 650.61 96.58 651.12 95.66C651.55 95.29 651.83 94.77 651.89 94.21C651.89 94.1 651.75 94.09 651.73 94.21C651.47 94.98 650.86 95.33 650.45 95.92C650.1 96.7 649.85 97.52 649.71 98.36C649.42 99.29 649.03 100.19 648.53 101.03C648.09 101.85 647.69 102.74 647.16 103.5C646.24 104.83 645.08 105.99 643.74 106.92C643.71 106.85 643.66 106.79 643.6 106.75C643.53 106.71 643.46 106.68 643.38 106.68C643.31 106.68 643.23 106.71 643.17 106.75C643.11 106.79 643.05 106.85 643.02 106.92C642.4 107.72 641.63 108.4 640.75 108.9C639.58 109.78 638.15 110.23 636.69 110.18L636.21 110.18C634.88 110.03 633.67 109.45 632.31 109.38C631.66 109.36 631.01 109.46 630.4 109.69C629.63 109.53 628.86 109.36 628.11 109.16C627.9 109.06 627.71 108.99 627.51 108.87L626.89 108.56C627.81 107.37 628.84 106.27 629.97 105.27C630.92 104.28 632.02 103.42 633.22 102.74C634.07 102.27 634.84 101.65 635.48 100.91C636.51 99.86 637.61 98.88 638.78 97.99C639.87 96.89 641.15 95.98 642.54 95.32C642.77 95.23 642.68 94.87 642.44 94.96C640.56 95.83 638.83 96.98 637.31 98.38C636.47 98.99 635.68 99.67 634.95 100.42C633.98 101.28 632.9 102.01 631.73 102.59C630.04 103.75 628.52 105.15 627.23 106.75C626.85 107.21 626.51 107.72 626.22 108.25C625.68 108.01 625.1 107.87 624.51 107.82C622.07 107.05 619.47 107.14 616.78 106.44C614.94 105.79 613.05 105.32 611.12 105.03C608.64 104.93 606.17 104.57 603.76 103.97C601.18 103.2 599.28 101.43 596.92 100.3L596.3 100.06C598.49 99.6 600.63 98.91 602.67 98C605.38 96.56 607.96 94.9 610.4 93.04C612.93 91.33 615.12 89.79 615.26 86.42C615.34 85.08 615.3 83.72 615.15 82.38C615.03 80.57 615.32 78.75 616.01 77.06C616.51 75.88 617.25 74.8 618.17 73.9C619.02 72.62 619.8 71.29 620.49 69.91C622.27 67.01 624.59 64.47 627.34 62.45C628.61 61.45 629.93 60.52 631.31 59.67C632.35 59.1 633.22 58.26 633.82 57.24C633.92 57.03 634.01 56.81 634.09 56.6C634.78 56.14 635.51 55.74 636.27 55.39C636.93 54.97 637.7 54.74 638.49 54.74C639.01 54.82 639.53 54.82 640.05 54.74C640.65 54.51 641.27 54.37 641.91 54.31C642.59 54.31 643.3 54.43 644 54.41C645.04 54.35 646.07 54.17 647.06 53.87C647.9 53.66 648.69 53.27 649.37 52.74C650.04 51.98 650.59 51.12 651 50.19C651.63 49.37 652.3 48.59 653.01 47.84C653.56 47.11 654.16 45.55 655.2 45.47C655.5 45.47 655.51 44.99 655.2 44.99C654.83 45.03 654.46 45.16 654.15 45.37C653.83 45.58 653.56 45.86 653.37 46.18C652.69 47.04 652.07 47.9 651.32 48.67C650.67 49.56 650.09 50.51 649.61 51.51C648.76 52.56 647.53 53.24 646.19 53.39C645.53 53.54 644.86 53.65 644.19 53.71C643.43 53.71 642.68 53.63 641.93 53.71C641.34 53.76 640.77 53.89 640.22 54.11C639.5 54.25 638.76 54.3 638.03 54.26C636.96 54.52 635.95 54.98 635.05 55.63C634.8 55.76 634.55 55.91 634.32 56.07C634.5 55.4 634.61 54.7 634.64 54C635.36 52.29 634.64 50.05 634.64 48.22C634.95 46.53 635.88 45.01 637.26 43.98C639.91 41.54 643.08 39.74 646.53 38.71C647.68 38.36 648.7 37.67 649.46 36.72C650.62 35.5 651.66 34.16 652.57 32.74C653.31 31.56 653.94 29.73 655.32 29.15C655.39 29.13 655.44 29.09 655.47 29.03C655.5 28.97 655.5 28.91 655.49 28.85C655.47 28.79 655.43 28.73 655.37 28.7C655.31 28.67 655.25 28.67 655.19 28.68C654.11 28.87 653.48 30.05 652.84 30.89C652.21 31.73 651.44 33.01 650.69 34.04C650.46 33.73 650.24 33.42 650 33.15C649.66 32.78 649.28 32.43 648.87 32.12C648.03 31.48 647.31 30.7 646.74 29.81C646.27 28.94 646.04 27.96 646.07 26.97C646.1 25.98 646.39 25.01 646.91 24.17C646.91 24.06 646.82 23.95 646.74 24.03C646.13 24.81 645.75 25.74 645.65 26.72C645.54 27.7 645.71 28.69 646.14 29.57C646.64 30.54 647.35 31.38 648.21 32.05C649.01 32.77 649.83 33.42 650.6 34.16C650.36 34.52 650.1 34.87 649.82 35.2C648.88 36.61 647.49 37.65 645.88 38.14C644.28 38.61 642.76 39.29 641.35 40.16C638.47 41.56 636.05 43.75 634.38 46.48C634.33 45.72 634.15 44.99 633.84 44.3C633.06 42.99 632.19 41.72 631.24 40.52C630.53 39.57 630.05 38.46 629.85 37.29C629.86 36.76 629.8 36.24 629.68 35.73C629.2 34.4 627.97 33.83 627.68 32.31C627.59 31.13 627.3 29.97 626.81 28.89C625.37 25.45 624.78 21.71 625.09 17.99C625.09 14.88 626.81 11.88 626.31 8.77C626.31 8.57 625.93 8.62 625.95 8.77C626.17 11.66 624.6 14.33 624.24 17.17C623.85 20.09 623.85 23.06 624.24 25.98C624.49 27.23 624.91 28.43 625.51 29.56C625.92 30.33 626.15 31.18 626.19 32.05C626.15 32.59 626.21 33.13 626.34 33.65C626.81 34.84 628.05 35.44 628.38 36.78C628.47 37.9 628.75 39 629.18 40.04C630.53 42.59 632.79 44.29 632.86 47.33C632.86 50.02 633.53 53.08 632.86 55.68C632.35 57.49 630.83 58.18 629.44 59.1C628.05 60.02 627.01 60.81 625.85 61.79C623.37 63.67 621.2 65.93 619.42 68.48C618.61 69.67 618.03 71.01 617.21 72.21C616.64 72.93 615.99 73.59 615.28 74.17C615.28 73.98 615.28 73.8 615.38 73.61C615.67 70.96 615.62 68.29 615.24 65.65C614.45 60.25 609.58 57.1 604.98 54.84C603.27 54.04 602.8 53.88 602.31 51.95C601.88 50.69 601.63 49.38 601.57 48.05C601.74 46.65 601.78 45.23 601.68 43.82C601.68 43.64 601.57 43.45 601.54 43.26C601.88 40.39 604.4 38.9 606.36 36.95C607.38 36.09 608.21 35.04 608.81 33.85C609.16 33 609.4 32.1 609.53 31.18L610.04 28C610.05 27.98 610.05 27.96 610.05 27.94C610.05 27.92 610.04 27.9 610.03 27.89C610.02 27.87 610 27.86 609.99 27.85C609.97 27.84 609.95 27.84 609.93 27.84C609.91 27.84 609.89 27.84 609.87 27.85C609.86 27.86 609.84 27.87 609.83 27.89C609.82 27.9 609.81 27.92 609.81 27.94C609.81 27.96 609.81 27.98 609.82 28C609.2 29.95 609.46 32.16 608.57 34.04C607.77 35.39 606.74 36.58 605.52 37.56C603.81 39.19 601.95 40.59 601.57 42.95C601.16 41.84 600.84 40.7 600.63 39.53C600.34 36.95 601.06 34.18 599.91 31.75C599.3 30.57 598.62 29.43 597.88 28.32C596.95 26.67 596.29 24.88 595.93 23.02C595.93 22.87 595.67 22.94 595.69 23.02C596.12 25.66 597.14 28.18 598.66 30.38C600.63 33.58 599.57 36.67 600.17 40.15C600.41 41.6 601.18 42.85 601.28 44.32C601.38 45.79 601.04 47.14 601.08 48.56C601.21 49.68 601.42 50.78 601.71 51.86C601.75 52.61 601.94 53.34 602.27 54C602.71 54.58 603.3 55.02 603.98 55.27C605.31 55.94 606.59 56.7 607.82 57.53C610.5 59.24 613.29 61.33 613.84 64.66C614.59 69.11 613.72 73.51 613.48 77.94C613.48 78.18 613.34 78.42 613.26 78.64C612.62 80.35 611.55 81.68 610.93 83.34C609.92 85.94 607.51 86.76 605.3 88.3C602.8 90.29 599.98 91.85 596.97 92.92C595.41 93.38 593.82 93.73 592.25 94.09C590.67 94.45 589.07 95.15 587.42 95.47C585.99 95.64 584.57 95.94 583.2 96.38C581.74 97.08 580.33 97.88 578.99 98.79C577.88 99.39 576.74 99.91 575.57 100.36L576.03 99.97C577.01 99.12 578.12 98.7 579.13 97.93C581.19 96.04 582.8 93.7 583.83 91.09C584.81 89.09 585.42 87.81 584.33 85.67C583.78 84.57 582.96 83.63 582.43 82.54C581.56 80.83 582.24 79.65 582.69 77.94C582.83 76.71 582.83 75.48 582.69 74.26C582.71 73.38 582.68 72.5 582.57 71.62C582.86 71.01 583.23 70.44 583.66 69.91C584.65 68.96 585.54 67.91 586.3 66.76C586.83 65.62 587.26 64.43 587.58 63.21C587.78 61.87 588.29 60.59 589.07 59.48C589.09 59.45 589.09 59.41 589.09 59.37C589.08 59.34 589.07 59.3 589.04 59.28C589.02 59.25 588.99 59.23 588.95 59.22C588.91 59.22 588.88 59.22 588.84 59.24C588.01 60.2 587.48 61.39 587.34 62.66C587.01 64.13 586.5 65.56 585.82 66.9C585.36 67.57 584.82 68.18 584.23 68.73C583.71 69.27 583.24 69.84 582.81 70.44L582.41 71.13C582.38 70.95 582.32 70.78 582.26 70.61C581.33 68.25 578.94 66.25 577.13 64.54C576.97 64.39 576.73 64.63 576.89 64.8C578.87 67.06 581.4 69.37 581.86 72.39C581.69 73.05 581.65 73.74 581.74 74.41C581.74 74.55 582 74.51 581.98 74.41C581.98 74.25 581.98 74.09 581.98 73.93C582.22 75.18 582.28 76.45 582.15 77.71C581.85 78.81 581.25 79.42 581.27 80.55C581.27 82.47 582.65 83.98 583.54 85.55C584.76 87.7 584.12 88.97 582.94 90.87C582.09 92.18 581.09 93.39 579.96 94.48C578.25 96.19 576.18 97.44 574.32 99.08C571.99 100.74 569.51 102.19 566.91 103.39C565.04 104.72 563.52 106.48 562.48 108.52L562.28 108.87L561.3 109.55C558.2 111.87 555.44 114.6 553.07 117.66C552.42 118.51 551.82 119.4 551.26 120.31C551.26 119.63 551.26 118.94 551.26 118.24C551.5 115.82 551.5 113.38 551.26 110.95C551.23 110.54 551.08 110.14 550.85 109.8C550.61 109.46 550.28 109.19 549.91 109.02C550.48 107.19 550.8 105.28 550.87 103.36C550.91 102.67 550.78 101.98 550.48 101.36C550.18 100.74 549.72 100.21 549.15 99.82C548.21 99.32 547.23 98.89 546.23 98.52C544.96 97.9 543.75 97.13 542.5 96.48C541.87 96.14 541.23 95.83 540.58 95.52L540.7 95.52C538.89 94.91 537.69 93.16 536.2 92.02C534.72 90.87 535.3 88.1 535.69 86.37C536.37 83.41 536.09 80.32 534.9 77.53C534.4 76.63 534.03 75.67 533.81 74.67C533.72 73.63 533.72 72.59 533.81 71.56C533.91 69.49 533.81 67.16 535.11 65.4C536.02 64.2 539.54 63.34 539.46 61.55C539.46 61.44 539.28 61.41 539.27 61.55C539.06 62.86 536.58 63.69 535.62 64.4C534.62 65.21 533.93 66.34 533.69 67.6C533.28 69.58 533.12 71.6 533.23 73.61C533.48 75.52 533.89 77.41 534.48 79.25C534.9 81.32 534.94 83.45 534.58 85.53C533.98 87.38 533.61 89.29 533.5 91.23C533.51 91.44 533.55 91.65 533.62 91.84C533.37 91.69 533.13 91.52 532.85 91.38C531.88 90.98 530.95 90.48 530.08 89.89C528.37 88.51 527.67 85.55 527.12 83.48C526.54 80.49 526.33 77.44 526.51 74.4C526.51 73.01 526.4 71.59 526.51 70.2C526.63 69 526.84 67.8 527.14 66.63C527.21 65.6 527.21 64.57 527.14 63.55C527.31 62.29 527.58 61.05 527.92 59.84C528.03 58.56 527.99 57.29 527.82 56.02C527.76 54.39 527.98 52.76 528.47 51.2C528.75 50.57 528.86 49.88 528.8 49.2C528.74 48.52 528.51 47.87 528.13 47.3C526.71 45.67 524.32 45.43 522.5 44.49C520.07 43.4 517.78 42.04 515.66 40.44C514.71 38.36 514.51 36.02 515.11 33.82C515.35 30.85 515.26 27.87 514.84 24.92C514.84 24.9 514.85 24.88 514.84 24.86C514.84 24.83 514.83 24.81 514.82 24.79C514.81 24.78 514.79 24.76 514.77 24.75C514.75 24.74 514.73 24.74 514.71 24.74C514.69 24.74 514.67 24.74 514.65 24.75C514.63 24.76 514.61 24.78 514.6 24.79C514.58 24.81 514.58 24.83 514.57 24.86C514.57 24.88 514.57 24.9 514.58 24.92C514.58 26.63 514.89 28.34 515.01 30.05C515.06 31.65 514.94 33.24 514.67 34.81C514.34 36.59 514.53 38.43 515.21 40.11C511.45 36.86 505.34 34.86 504.95 29.21C505.07 27.16 504.6 25.11 503.58 23.31C502.37 21.25 500.99 19.3 499.46 17.46C499.13 17.14 498.65 17.63 498.96 17.96C500.46 19.74 501.81 21.66 502.98 23.67C504.4 25.71 504.01 27.91 504.37 30.22C504.61 31.93 505.47 33.49 506.78 34.6C508.14 35.84 509.59 36.98 511.11 38.02C512.19 38.55 513.21 39.17 514.17 39.89C514.8 40.5 515.47 41.07 516.17 41.6C518.07 42.78 520.03 43.84 522.04 44.8C523.75 45.71 527.03 46.08 527.82 48.22C528.27 49.42 527.45 50.92 527.14 52.07C526.82 53.18 526.7 54.34 526.78 55.49C526.89 56.63 526.94 57.77 526.92 58.91C526.81 60.2 526.21 61.31 526.03 62.56C525.84 63.81 526.16 64.99 526.03 66.22C525.85 67.18 525.48 68.08 525.36 69.06C525.17 71.61 525.13 74.18 525.24 76.74C525.11 79.22 525.18 81.71 525.46 84.18C525.46 84.71 525.63 85.24 525.74 85.79C525.15 85.09 524.67 84.32 524.28 83.5C523.73 82.19 523.29 80.84 522.98 79.46C522.69 78.35 522.18 77.37 521.83 76.28C520.67 72.51 521.75 67.64 518.33 64.75C514.91 61.86 509.5 61.94 505.43 60.06C504.23 59.65 503.21 58.87 502.5 57.82C502.28 57.21 501.94 56.66 501.49 56.19C500.21 55.08 497.82 54.29 497.1 52.58C497.1 52.41 496.76 52.46 496.82 52.58C497.17 53.66 498.43 54.5 499.25 55.18C499.99 55.64 500.68 56.16 501.34 56.72C501.9 57.34 502.02 58.16 502.55 58.79C504.15 60.23 506.13 61.17 508.25 61.51C510.73 62.04 513.14 62.85 515.44 63.91C516.72 64.38 517.84 65.19 518.7 66.25C519.28 67.2 519.73 68.22 520.04 69.28C520.74 71.5 520.38 73.98 521.06 76.24C521.39 77.3 521.94 78.3 522.25 79.36C522.54 80.52 522.9 81.66 523.32 82.78C523.66 83.74 524.13 84.65 524.71 85.48C525.04 85.85 525.4 86.19 525.79 86.49C526 87.72 526.37 88.92 526.9 90.05C527.87 91.65 529.25 92.95 530.9 93.83C532.8 95.17 534.8 96.35 536.89 97.35C539.15 98.43 541 100.16 543.15 101.43C544.02 101.92 544.91 102.36 545.82 102.76C546.88 103.24 546.88 102.98 547.1 103.92C547.29 105.97 547.15 108.03 546.67 110.03C546.62 110.31 546.62 110.6 546.67 110.89C546.5 112.77 546.67 114.7 546.38 116.58C546.09 118.46 545.73 120 545.6 121.71C545.57 123.19 545.22 124.65 544.55 125.97C543.74 127.01 543.37 128.31 543.51 129.62C543.53 129.8 543.61 129.98 543.71 130.13C543.71 130.56 543.56 131 543.48 131.45C542.88 132.35 542.21 133.21 541.49 134.01C539.96 135.88 538.62 137.89 537.49 140.02C536.89 141.17 536.1 142.19 535.49 143.3C534.87 144.42 534.65 145.44 534 146.42L533.6 146.73C532.24 147.71 531.01 148.86 529.93 150.15C529.16 150.68 528.4 151.22 527.69 151.75C525.68 153.35 523.77 155.07 521.97 156.89C518.24 160.53 514.43 164.02 510.6 167.55C509.5 167.63 508.41 167.94 507.29 167.97C505.78 167.96 504.3 168.39 503.03 169.2C501.89 170.1 500.66 170.87 499.36 171.5C497.78 172.15 497.06 173.45 495.68 174.25C493.15 175.69 490.5 176.89 487.76 177.83C484.7 178.64 481.98 180.4 479.97 182.84C479.06 184.24 478.33 185.74 477.8 187.32C477.12 188.91 476.09 190.38 475.44 191.99C474.79 193.6 473.99 195.41 473.37 197.12C473.03 198.08 473.04 199.19 472.72 200.12C472.48 200.75 471.97 201.28 471.66 201.83C470.97 203.54 470.15 205.2 469.23 206.79C468.24 208.3 467.24 209.8 466.32 211.34C464.47 214.44 462.88 217.7 461.58 221.07C461.37 221.32 461.23 221.61 461.15 221.93L461.05 222.43C460.98 222.72 460.98 223.02 461.03 223.31C461.08 223.61 461.2 223.89 461.36 224.14C461.25 224.68 461.35 225.24 461.63 225.72C461.91 226.19 462.36 226.55 462.88 226.72C466.3 228.02 469.64 224.34 472.75 223.49C475.2 222.84 477.75 222.53 480.18 221.78C482.11 221.21 484.71 219.35 484.16 216.95L484.16 216.59C484.51 216.17 484.82 215.71 485.09 215.22C485.74 214.04 486.22 212.78 486.8 211.55C487.38 210.31 487.86 209.12 488.51 207.9C488.97 206.63 489.55 205.4 490.22 204.22C490.94 203.36 491.52 202.38 491.93 201.33C492.19 200.29 492.62 199.29 493.21 198.39C493.79 197.73 494.27 196.99 494.63 196.2C494.82 195.69 494.63 194.99 494.86 194.49C495.12 193.93 495.46 193.42 495.87 192.95C497.03 190.98 498.09 188.95 499.03 186.86C499.37 186.11 499.82 185.42 500.38 184.82C501.29 184 502.47 183.49 503.34 182.6C503.63 182.33 504.35 181.71 504.11 181.73C504.55 181.56 504.98 181.36 505.38 181.11C506.46 180.41 507.43 179.57 508.51 178.87C510.78 177.46 512.93 175.85 514.92 174.06L515.15 173.86C516.1 173.9 517.06 173.85 518 173.74C522.21 172.56 524.96 169.17 527.7 166.06C529.14 164.35 531.12 163.66 532.65 162.09C533.97 160.6 535.19 159.02 536.27 157.35C537.01 156.17 537.63 154.92 538.12 153.62C538.75 152.99 539.37 152.35 540.02 151.74C541.61 150.22 544.72 147.85 545.25 145.36C545.83 145.18 546.33 144.81 546.67 144.31C548.39 141.58 548.62 138.31 548.95 135.08C550.02 132.32 551.33 129.67 552.87 127.14C554.55 124.44 556.47 121.9 558.62 119.54C561.07 117.15 563.81 115.05 566.76 113.3C569.77 111.3 572.9 109.47 576.01 107.65C577.72 106.68 579.44 105.86 581.25 105C581.77 104.91 582.3 104.87 582.82 104.9C584.35 105.11 585.9 105.17 587.44 105.07C588.81 104.85 590.2 104.89 591.55 105.17C593.06 105.65 594.61 106.01 596.18 106.27C597.4 106.4 598.59 106.57 599.81 106.64C600.38 106.67 600.96 106.74 601.52 106.85C602.33 107.6 603.12 108.37 603.88 109.16C605.59 110.87 608.28 111.67 610.26 113.04C611.19 113.69 611.43 114.84 612.32 115.54C612.95 115.96 613.68 116.21 614.44 116.27C616.37 116.56 618.34 116.3 620.12 115.5C621 115.02 621.78 114.36 622.41 113.57C622.67 113.24 622.92 112.9 623.14 112.55C623.59 111.96 624.14 111.45 624.75 111.04C625.14 111.26 625.54 111.44 625.97 111.57C626.39 111.93 626.89 112.18 627.42 112.32C629.13 112.72 630.84 111.78 632.55 111.5C633.36 111.64 634.14 111.86 634.97 112.03C635.78 112.22 636.62 112.25 637.44 112.11C638.26 111.97 639.05 111.67 639.76 111.23C641.79 109.96 643.49 108.2 645.49 106.88C646.36 106.32 647.28 105.89 648.21 105.39C649.13 104.9 650.19 103.92 651.27 103.34C652.51 102.84 653.77 102.43 655.07 102.11C656.31 101.59 657.64 101.3 658.98 101.25C660.82 101.25 662.65 101.03 664.44 100.86C665.62 100.74 666.73 100.47 667.95 100.43C668.63 100.45 669.3 100.35 669.95 100.14C672 99.2 673.95 98.06 675.77 96.72C676.19 96.45 676.59 96.13 676.95 95.78C676.96 95.8 676.97 95.82 676.99 95.83C677.01 95.85 677.03 95.85 677.06 95.85C677.08 95.85 677.11 95.85 677.13 95.83C677.15 95.82 677.16 95.8 677.17 95.78C677.56 95.08 678.12 94.5 678.8 94.07C679.42 93.77 680.1 93.61 680.8 93.61C682.14 93.63 683.49 93.53 684.82 93.3C686.49 93.04 688.06 92.36 689.4 91.33C689.92 90.82 690.5 90.37 691.11 89.98C691.32 89.88 691.5 89.72 691.62 89.52C691.74 89.32 691.79 89.08 691.78 88.85C691.78 88.81 691.77 88.78 691.74 88.75C691.71 88.73 691.68 88.71 691.64 88.71C691.61 88.71 691.57 88.73 691.55 88.75C691.52 88.78 691.51 88.81 691.51 88.85C691.51 89.52 690.43 89.74 689.97 90.12C689.38 90.7 688.74 91.22 688.05 91.67C686.45 92.46 684.7 92.92 682.92 93.03C681.36 92.95 679.8 93.24 678.37 93.86C678.76 93.14 679.14 92.37 679.65 91.54C681.26 89.22 683.1 87.06 685.14 85.1ZM488.06 180.82C488.32 180.47 488.69 180.21 489.11 180.1C489.54 179.94 490 179.83 490.46 179.78C490.75 179.78 491.06 179.78 491.35 179.67C491.65 179.6 491.95 179.5 492.24 179.37C492.76 179.15 493.26 178.87 493.71 178.53C493.98 178.33 494.28 178.16 494.6 178.05C494.89 177.96 495.18 177.96 495.47 177.88C495.54 177.86 495.61 177.86 495.68 177.87C495.75 177.89 495.82 177.91 495.87 177.96C495.93 178 495.97 178.06 496.01 178.12C496.04 178.18 496.05 178.25 496.05 178.32C496.05 179.02 495.42 179.55 494.92 179.93C494.31 180.39 493.62 180.75 492.89 180.99C492.49 181.11 492.11 181.27 491.74 181.47C491.47 181.69 491.18 181.9 490.89 182.09C490.52 182.23 490.12 182.27 489.74 182.22C489.35 182.16 488.98 182.01 488.66 181.78C488.55 181.79 488.43 181.77 488.32 181.72C488.22 181.66 488.13 181.58 488.07 181.48C488.01 181.38 487.97 181.27 487.97 181.15C487.97 181.04 488 180.92 488.06 180.82ZM494.6 183.93L494.22 184.31C494.05 184.4 493.86 184.48 493.68 184.55C493.3 184.74 493.21 185.18 492.84 185.41C492.51 185.59 492.17 185.76 491.83 185.9C491.38 185.98 490.92 185.98 490.48 185.9C489.98 185.96 489.51 186.1 489.06 186.31C488.18 186.51 487.27 186.55 486.37 186.43L486.15 186.43C486.13 186.43 486.1 186.42 486.09 186.41C486.07 186.39 486.06 186.37 486.06 186.35C486.06 186.32 486.07 186.3 486.09 186.29C486.1 186.27 486.13 186.26 486.15 186.26L486.35 186.26C487.3 186.32 488.25 186.19 489.14 185.88C489.48 185.7 489.84 185.56 490.22 185.47C490.68 185.51 491.13 185.51 491.59 185.47C491.79 185.39 491.97 185.3 492.15 185.18C492.31 185.18 492.48 185.06 492.63 184.98C492.79 184.89 493.03 184.38 493.39 184.21C493.59 184.14 493.79 184.05 493.98 183.95C494.15 183.84 494.3 183.7 494.43 183.54C494.77 183.2 495.15 182.89 495.52 182.58C495.52 182.58 495.71 182.58 495.64 182.69C495.28 183.15 494.91 183.54 494.57 183.93L494.6 183.93ZM497.85 179.26C497.61 179.95 497.17 180.55 496.58 180.97C495.88 181.63 495.11 182.21 494.27 182.69C493.33 183.15 492.34 183.52 491.37 183.93C490.53 184.29 489.66 184.54 488.77 184.7C488.1 184.8 487.42 184.66 486.85 184.29C486.34 183.97 485.65 183.2 485 183.27C485 183.27 484.9 183.13 485 183.11C485.87 182.87 486.71 183.95 487.5 184.19C488.36 184.34 489.25 184.21 490.03 183.83C490.8 183.61 491.56 183.33 492.29 182.99C493.86 182.27 495.31 181.33 496.62 180.2C497.18 179.74 497.64 179.35 497.58 178.49C497.56 178.24 497.52 177.99 497.46 177.74C497.38 177.46 497.26 177.2 497.1 176.95C497.17 176.98 497.24 177.02 497.3 177.07C497.46 177.28 497.57 177.52 497.63 177.78C497.82 178.25 497.88 178.76 497.82 179.26L497.85 179.26ZM565.05 106.85C566.37 105.55 567.94 104.52 569.65 103.82C568.16 104.74 566.6 105.79 565.05 106.85ZM622.92 111.59C622.24 112.75 621.33 113.78 620.25 114.6C619.05 115.22 617.71 115.55 616.35 115.54C615.51 115.71 614.63 115.62 613.84 115.27C613.05 114.92 612.4 114.33 611.96 113.59C611.65 113.05 611.19 112.62 610.64 112.34C609.7 111.83 608.93 111.16 607.9 110.63C606.46 110.04 605.12 109.23 603.93 108.22L602.67 107.05C603.2 107.21 603.71 107.41 604.21 107.65C606.38 108.73 609.44 107.65 611.78 107.65C613.5 107.54 615.21 107.58 616.92 107.77C617.43 107.89 617.94 107.98 618.46 108.05C619.59 108.3 620.7 108.67 621.76 109.16C622.58 109.6 623.37 110.08 624.14 110.61C623.69 110.88 623.28 111.21 622.92 111.59Z" fill="#E13A4B" fill-opacity="1.000000" fill-rule="nonzero"/>
	<path id="Vector" d="M698.49 92.49C698.39 92.24 698.27 91.99 698.14 91.74L698.14 91.62L698.14 91.54C698.13 91.45 698.1 91.37 698.06 91.3C697.98 91.01 697.89 90.73 697.78 90.46C697.72 90.25 697.63 90.05 697.53 89.86C697.53 89.86 697.13 89.4 697.15 89.38L697.03 89.21L696.67 88.75C696.48 88.54 696.27 88.36 696.04 88.2C695.9 88.14 695.74 88.14 695.59 88.2C695.53 88.13 695.45 88.08 695.36 88.05C695.27 88.02 695.18 88.01 695.09 88.03C694.99 88.05 694.91 88.09 694.84 88.15C694.77 88.22 694.72 88.3 694.69 88.39C694.5 88.89 694.36 89.41 694.28 89.95C694.14 90.51 694.14 91.09 694.28 91.66C694.58 92.4 695.01 93.09 695.56 93.68C695.8 94.04 696.13 94.33 696.53 94.51C696.93 94.68 697.37 94.74 697.8 94.67C698 94.58 698.18 94.46 698.33 94.3C698.47 94.14 698.58 93.95 698.65 93.74C698.71 93.53 698.73 93.31 698.71 93.1C698.68 92.88 698.6 92.68 698.49 92.49Z" fill="#FFFFFF" fill-opacity="1.000000" fill-rule="nonzero"/>
	<path id="Vector" d="M698.04 91.62L698.04 91.52C698.05 91.55 698.05 91.59 698.04 91.62Z" fill="#FFFFFF" fill-opacity="1.000000" fill-rule="nonzero"/>
	<path id="Vector" d="M700.93 66.53C700.35 65.57 699.12 66.18 698.42 66.53C697.83 66.91 697.26 67.32 696.71 67.76C695.92 68.24 695.27 68.9 694.81 69.69C694.6 69.84 694.4 69.98 694.21 70.15C694.03 70.33 693.93 70.58 693.93 70.83C693.93 71.08 694.03 71.32 694.21 71.5C694.39 71.68 694.63 71.78 694.89 71.78C695.14 71.78 695.38 71.68 695.56 71.5L695.75 71.33L695.85 71.33C695.97 71.23 696.1 71.15 696.25 71.08C696.55 70.87 696.88 70.7 697.22 70.51C697.89 70.17 698.52 69.76 699.12 69.3C699.55 68.96 699.96 68.56 700.39 68.2C700.81 67.84 701.33 67.11 700.93 66.53Z" fill="#FFFFFF" fill-opacity="1.000000" fill-rule="nonzero"/>
	<path id="Vector" d="M692.79 64.27C692.76 63.79 692.63 63.33 692.4 62.92C692.18 62.5 691.86 62.15 691.47 61.87C691.26 61.73 691.05 61.61 690.82 61.5C690.78 61.31 690.72 61.13 690.65 60.95C690.65 60.79 690.55 60.66 690.5 60.52C690.42 60.38 690.33 60.25 690.22 60.13C690.18 60.06 690.12 60 690.05 59.95C689.98 59.91 689.9 59.88 689.81 59.87C689.73 59.86 689.64 59.87 689.56 59.89C689.48 59.92 689.41 59.97 689.35 60.02C689.19 60.16 689.07 60.34 689 60.54C688.93 60.73 688.91 60.95 688.96 61.15C688.97 61.28 688.97 61.42 688.96 61.55L688.96 61.75C688.85 61.97 688.81 62.21 688.83 62.45C688.85 62.68 688.93 62.91 689.08 63.1C689.11 63.43 689.16 63.76 689.23 64.08C689.37 64.69 689.61 65.26 689.95 65.79C690.26 66.3 690.58 66.83 690.92 67.35C691.03 67.51 691.17 67.65 691.35 67.73C691.53 67.82 691.72 67.85 691.92 67.83C692.11 67.8 692.29 67.72 692.43 67.59C692.58 67.46 692.69 67.29 692.74 67.11C692.89 66.17 692.9 65.21 692.79 64.27Z" fill="#FFFFFF" fill-opacity="1.000000" fill-rule="nonzero"/>
	<path id="Vector" d="M698.73 80.49C698.61 80.32 698.45 80.18 698.26 80.09C697.85 79.85 697.39 79.72 696.91 79.7C696.43 79.68 695.96 79.78 695.53 79.99L695.05 80.16C694.96 80.12 694.86 80.09 694.76 80.07C694.63 80.06 694.51 80.06 694.38 80.07L694.28 80.07L693.97 80.07L693.18 80.07C692.21 80.07 691.22 80.42 690.91 81.46C690.83 81.77 690.87 82.1 691.03 82.37C691.18 82.65 691.44 82.86 691.75 82.95C692.67 83.17 693.63 83.2 694.57 83.03C695.12 83.03 695.65 83.03 696.18 82.93C696.85 82.9 697.5 82.74 698.11 82.45C698.28 82.37 698.44 82.25 698.57 82.11C698.69 81.96 698.79 81.79 698.85 81.6C698.91 81.42 698.92 81.22 698.9 81.03C698.88 80.84 698.82 80.65 698.73 80.49Z" fill="#FFFFFF" fill-opacity="1.000000" fill-rule="nonzero"/>
	<path id="Vector" d="M688.5 77.18C688.02 76.29 687.59 75.37 687.09 74.48C686.84 74.05 686.55 73.65 686.22 73.28C686.07 73.07 685.88 72.9 685.66 72.77C685.44 72.64 685.19 72.57 684.94 72.55C684.64 72.56 684.35 72.68 684.14 72.89C683.92 73.1 683.79 73.38 683.77 73.68C683.73 74.15 683.84 74.63 684.06 75.05C684.26 75.41 684.5 75.76 684.78 76.07L685.31 76.6C685.31 76.76 685.52 76.89 685.62 77.05C685.47 77.03 685.32 77.06 685.19 77.13C685.02 77.23 684.88 77.37 684.77 77.53C684.66 77.69 684.59 77.88 684.56 78.07C684.42 78.8 684.42 79.54 684.56 80.26C684.64 80.72 684.74 81.18 684.87 81.63C684.92 82.4 685.21 83.13 685.71 83.72C685.79 83.8 685.9 83.87 686.01 83.9C686.13 83.93 686.25 83.93 686.36 83.9C686.48 83.87 686.59 83.81 686.67 83.73C686.76 83.65 686.82 83.54 686.85 83.43C687.03 82.5 687.03 81.55 686.85 80.62C686.88 79.81 686.78 78.99 686.55 78.21C686.77 78.37 687.02 78.5 687.28 78.6C687.47 78.66 687.66 78.65 687.85 78.59C688.03 78.53 688.19 78.42 688.31 78.26C688.44 78.12 688.53 77.94 688.56 77.75C688.6 77.56 688.57 77.36 688.5 77.18Z" fill="#FFFFFF" fill-opacity="1.000000" fill-rule="nonzero"/>
	<path id="Vector" d="M655.72 89.18C655.78 89.11 655.83 89.03 655.85 88.94C655.88 88.85 655.89 88.76 655.88 88.67C655.87 88.58 655.84 88.49 655.79 88.41C655.74 88.33 655.67 88.27 655.6 88.22C655.44 88.12 655.27 88.06 655.08 88.03C654.9 88.01 654.71 88.03 654.54 88.08C654.19 88.22 653.89 88.45 653.66 88.75C653.53 88.9 653.4 89.06 653.29 89.23L653.13 89.43C652.94 89.71 652.71 89.97 652.47 90.2C651.85 90.83 651.32 91.53 650.89 92.29C650.74 92.54 650.64 92.83 650.62 93.13C650.59 93.43 650.64 93.73 650.76 94C650.95 94.28 651.23 94.49 651.55 94.6C651.88 94.71 652.23 94.71 652.55 94.6C653.18 94.4 653.76 94.06 654.24 93.61C654.73 93.16 655.11 92.61 655.36 92C655.59 91.46 655.73 90.88 655.77 90.29C655.8 89.97 655.78 89.66 655.72 89.35L655.72 89.18Z" fill="#FFFFFF" fill-opacity="1.000000" fill-rule="nonzero"/>
	<path id="Vector" d="M661.52 106.57L661.24 106.47L661.09 106.35C660.83 106.15 660.61 105.91 660.34 105.72C659.9 105.43 659.39 105.26 658.87 105.22C658.6 105.07 658.33 104.93 658.04 104.81C657.71 104.68 657.35 104.64 657 104.71C656.65 104.78 656.33 104.95 656.08 105.21C655.94 105.35 655.87 105.53 655.85 105.72C655.85 105.77 655.85 105.82 655.85 105.87C655.75 105.99 655.7 106.14 655.7 106.3C655.7 106.95 656.33 107.12 656.9 107.16C657.41 107.4 657.94 107.6 658.49 107.74L659.04 107.89C659.36 107.89 659.69 107.89 659.96 108.05C660.23 108.2 660.51 108.33 660.8 108.44C661.23 108.53 661.67 108.5 662.08 108.34C662.21 108.3 662.33 108.22 662.41 108.11C662.5 108 662.55 107.87 662.56 107.74C662.56 107.09 662.06 106.75 661.52 106.57Z" fill="#FFFFFF" fill-opacity="1.000000" fill-rule="nonzero"/>
	<path id="Vector" d="M681 131.28C680.74 130.65 680.37 130.07 679.92 129.57C679.77 129.22 679.64 128.86 679.55 128.49C679.46 128.22 679.34 127.94 679.24 127.65C679.14 127.36 678.86 126.23 678.28 125.94C678.15 125.89 678.01 125.86 677.86 125.86C677.72 125.86 677.58 125.89 677.44 125.94C677.37 125.91 677.3 125.9 677.22 125.91C677.15 125.92 677.07 125.95 677.01 125.99C676.95 126.03 676.89 126.09 676.86 126.15C676.82 126.22 676.8 126.29 676.79 126.37C676.75 127.21 676.75 128.04 676.79 128.88C676.79 129.34 676.79 129.82 676.79 130.28C676.81 131.26 677.08 132.22 677.56 133.07C677.83 133.52 678.25 133.84 678.74 133.98C679.06 134.05 679.38 134.03 679.69 133.93C679.99 133.82 680.25 133.63 680.45 133.38C680.7 133.1 680.88 132.76 680.98 132.39C681.07 132.03 681.08 131.65 681 131.28Z" fill="#FFFFFF" fill-opacity="1.000000" fill-rule="nonzero"/>
	<path id="Vector" d="M683.48 109.64C683.28 109.42 683.03 109.24 682.76 109.11L682.37 109.02L682.23 108.92C681.85 108.69 681.43 108.55 680.99 108.51L680.8 108.51C680.06 107.98 679.19 107.66 678.28 107.58C678.1 107.59 677.93 107.67 677.8 107.8C677.67 107.93 677.6 108.1 677.6 108.29C677.62 108.65 677.74 108.99 677.94 109.29C677.97 109.37 678.01 109.44 678.06 109.5C678.39 109.9 678.79 110.23 679.26 110.46C679.56 110.62 679.88 110.76 680.2 110.89C680.54 111.07 680.9 111.23 681.28 111.36C681.62 111.49 681.99 111.54 682.35 111.54L682.59 111.54C682.68 111.54 682.76 111.52 682.84 111.48C682.91 111.45 682.98 111.4 683.04 111.33C683.15 111.28 683.25 111.2 683.33 111.1C683.41 111 683.47 110.89 683.5 110.77C683.55 110.59 683.55 110.4 683.5 110.22C683.56 110.13 683.59 110.03 683.59 109.93C683.58 109.82 683.55 109.72 683.48 109.64Z" fill="#FFFFFF" fill-opacity="1.000000" fill-rule="nonzero"/>
	<path id="Vector" d="M633.12 80.14C632.4 79.7 631.63 80.33 631.19 80.86C630.54 81.66 630.01 82.54 629.61 83.48L628.72 84.54C628.33 85.07 627.82 85.84 628.21 86.51C628.6 87.17 629.37 86.97 629.92 86.75C630.39 86.56 630.82 86.28 631.19 85.93C631.54 85.57 631.85 85.16 632.11 84.73C632.22 84.54 632.31 84.35 632.4 84.15C632.4 84.15 632.4 83.96 632.52 83.86C632.79 83.29 633.1 82.73 633.34 82.14C633.58 81.56 633.78 80.55 633.12 80.14Z" fill="#FFFFFF" fill-opacity="1.000000" fill-rule="nonzero"/>
	<path id="Vector" d="M647.51 127.58C647.29 127.07 646.92 126.64 646.44 126.37C645.96 126.09 645.4 125.97 644.85 126.04C644.29 126.04 643.76 126.2 643.14 126.27L642.15 126.27C641.73 126.17 641.29 126.16 640.86 126.24C640.44 126.32 640.03 126.49 639.67 126.73C639.53 126.87 639.45 127.06 639.45 127.26C639.45 127.46 639.53 127.65 639.67 127.79C639.92 128.02 640.21 128.19 640.53 128.3C640.84 128.41 641.18 128.44 641.52 128.4C642.13 128.4 642.73 128.28 643.35 128.28L643.74 128.28L644.19 128.4C644.53 128.51 644.89 128.6 645.25 128.66C645.62 128.77 646.02 128.78 646.4 128.7C646.78 128.61 647.13 128.43 647.42 128.16C647.49 128.09 647.53 127.99 647.55 127.89C647.56 127.78 647.55 127.68 647.51 127.58Z" fill="#FFFFFF" fill-opacity="1.000000" fill-rule="nonzero"/>
	<path id="Vector" d="M644.94 160.31C644.26 159.49 643.23 158.15 642.08 158.34L642 158.34C641.92 158.29 641.83 158.25 641.74 158.25C641.64 158.24 641.55 158.25 641.46 158.29C641.38 158.33 641.3 158.39 641.25 158.46C641.19 158.54 641.15 158.63 641.14 158.72C641.12 159.09 641.17 159.46 641.28 159.81C641.25 159.94 641.25 160.07 641.28 160.19C641.41 160.62 641.65 161.01 641.98 161.32L642.07 161.42C642.09 161.65 642.14 161.88 642.2 162.11C642.51 163.01 643.01 163.84 643.66 164.55C644.2 165.15 645.61 166.02 646.22 165C646.3 164.85 646.33 164.68 646.33 164.52C646.44 164.49 646.54 164.43 646.62 164.34C646.7 164.26 646.76 164.15 646.79 164.04C646.76 163.32 646.58 162.62 646.26 161.98C645.94 161.34 645.49 160.77 644.94 160.31Z" fill="#FFFFFF" fill-opacity="1.000000" fill-rule="nonzero"/>
	<path id="Vector" d="M650.93 144.09C650.49 143.85 650 143.73 649.51 143.73C649.01 143.73 648.52 143.85 648.09 144.09L646.82 144.52C646.22 144.77 645.6 144.97 644.97 145.13C644.79 145.19 644.63 145.31 644.53 145.47C644.43 145.63 644.38 145.82 644.41 146.01C644.43 146.2 644.52 146.37 644.66 146.5C644.81 146.63 644.99 146.7 645.18 146.71C645.78 146.71 646.38 146.71 646.89 146.71L647.18 146.71C647.66 146.73 648.14 146.67 648.6 146.52C649.45 146.37 650.24 145.96 650.84 145.34C651.02 145.19 651.13 144.97 651.14 144.73C651.16 144.5 651.08 144.27 650.93 144.09Z" fill="#FFFFFF" fill-opacity="1.000000" fill-rule="nonzero"/>
	<path id="Vector" d="M607.17 138.14C606.38 137.9 605.83 138.6 605.73 139.3C605.6 140.08 605.6 140.88 605.73 141.66C605.76 141.83 605.81 142 605.88 142.16C605.88 142.33 605.88 142.5 606.02 142.67C606.08 143.05 606.18 143.42 606.33 143.77C606.39 143.87 606.48 143.94 606.59 143.99C606.59 143.99 606.59 144.07 606.59 144.13C606.59 144.52 607.2 144.6 607.27 144.23C607.28 144.15 607.28 144.07 607.27 143.99C607.36 143.96 607.43 143.91 607.49 143.84C607.55 143.77 607.59 143.68 607.61 143.6C607.67 143.34 607.67 143.08 607.61 142.83C607.79 141.98 607.88 141.11 607.89 140.24C607.92 139.47 608.11 138.41 607.17 138.14Z" fill="#FFFFFF" fill-opacity="1.000000" fill-rule="nonzero"/>
	<path id="Vector" d="M557.84 84.56C557.96 84.38 558.01 84.18 558 83.98C558 83.17 557.04 83.15 556.46 83.31C555.7 83.53 554.99 83.89 554.36 84.37L553.6 84.71C553.32 84.82 553.06 84.99 552.84 85.21C552.63 85.43 552.46 85.69 552.35 85.98C552.31 86.14 552.3 86.31 552.33 86.48C552.36 86.65 552.42 86.8 552.52 86.94C552.62 87.08 552.75 87.19 552.9 87.28C553.05 87.36 553.21 87.4 553.38 87.41C553.73 87.42 554.08 87.33 554.39 87.16C554.73 87.01 555.05 86.84 555.37 86.64C555.97 86.3 556.54 85.9 557.08 85.46C557.23 85.35 557.36 85.21 557.49 85.07C557.56 85.02 557.63 84.97 557.69 84.9C557.77 84.8 557.82 84.68 557.84 84.56Z" fill="#FFFFFF" fill-opacity="1.000000" fill-rule="nonzero"/>
	<path id="Vector" d="M581.95 54.93C581.92 54.46 581.84 54 581.71 53.56C581.7 53.47 581.7 53.39 581.71 53.3C581.61 52.89 581.47 52.5 581.28 52.12C581.11 51.81 581.02 51.45 581.01 51.1C581.01 51.02 581 50.95 580.97 50.88C580.95 50.81 580.91 50.75 580.86 50.7C580.8 50.64 580.74 50.6 580.68 50.57C580.61 50.55 580.53 50.53 580.46 50.53C580.31 50.53 580.17 50.6 580.07 50.7C579.96 50.81 579.9 50.95 579.9 51.1C579.89 51.37 579.92 51.65 580 51.92C579.98 52.01 579.98 52.1 580 52.19C579.99 52.31 579.99 52.43 580 52.55C580 53.06 580 53.59 580 54.11C580 54.59 580.08 55.07 580.24 55.53C580.46 56.09 580.96 56.62 581.61 56.3C582.26 55.97 581.95 55.37 581.95 54.93Z" fill="#FFFFFF" fill-opacity="1.000000" fill-rule="nonzero"/>
	<path id="Vector" d="M597.77 61.43C597.47 61.31 597.14 61.26 596.82 61.29C596.09 61.41 595.42 61.71 594.83 62.15C594.34 62.38 593.9 62.7 593.51 63.09C593.25 63.36 593.09 63.72 593.07 64.1C593.04 64.33 593.09 64.56 593.2 64.76C593.32 64.96 593.5 65.11 593.72 65.19C594.29 65.25 594.87 65.11 595.34 64.78L595.46 64.78C595.88 64.65 596.27 64.46 596.63 64.22C596.95 64.01 597.33 63.87 597.67 63.69C598.01 63.5 598.73 62.95 598.56 62.28C598.52 62.08 598.42 61.9 598.28 61.75C598.14 61.6 597.97 61.49 597.77 61.43Z" fill="#FFFFFF" fill-opacity="1.000000" fill-rule="nonzero"/>
	<path id="Vector" d="M601.9 69.61C601.9 69.21 601.79 68.82 601.73 68.41C601.64 67.69 601.39 67 600.99 66.39C600.94 66.32 600.87 66.26 600.8 66.21C600.72 66.17 600.63 66.14 600.55 66.13C600.51 66.04 600.44 65.97 600.36 65.92C600.27 65.88 600.18 65.86 600.08 65.88C599.99 65.89 599.9 65.94 599.83 66.01C599.77 66.08 599.73 66.17 599.72 66.27C599.64 67.01 599.64 67.77 599.72 68.51C599.86 69.29 600.24 70.01 600.82 70.55C600.88 70.66 600.97 70.76 601.08 70.82C601.17 70.89 601.27 70.92 601.38 70.92C601.5 70.92 601.6 70.89 601.69 70.82C602.07 70.53 601.95 70 601.9 69.61Z" fill="#FFFFFF" fill-opacity="1.000000" fill-rule="nonzero"/>
	<path id="Vector" d="M672.82 44.65C672.79 44.52 672.73 44.41 672.64 44.32C672.55 44.23 672.44 44.16 672.31 44.13C671.84 44.06 671.36 44.06 670.89 44.13C670.24 44.18 669.59 44.29 668.96 44.44C668.39 44.56 667.85 44.78 667.35 45.09C667.06 45.25 666.83 45.51 666.71 45.82C666.59 46.14 666.59 46.49 666.7 46.8C666.91 47.3 667.59 47.38 668.07 47.42C668.51 47.47 668.95 47.47 669.39 47.42C669.92 47.34 670.44 47.19 670.93 46.95C671.45 46.76 671.92 46.45 672.31 46.05C672.54 45.91 672.72 45.69 672.81 45.44C672.91 45.18 672.91 44.9 672.82 44.65Z" fill="#FFFFFF" fill-opacity="1.000000" fill-rule="nonzero"/>
	<path id="Vector" d="M657.31 96.34C657.17 96.22 657.01 96.1 656.85 96C656.85 95.94 656.85 95.88 656.85 95.81C656.84 95.67 656.81 95.53 656.75 95.4C656.69 95.27 656.61 95.16 656.5 95.06C656.01 94.69 655.41 94.48 654.79 94.48C654.22 94.44 653.65 94.44 653.08 94.48C652.99 94.48 652.91 94.52 652.84 94.58C652.78 94.65 652.74 94.73 652.74 94.82C652.11 94.92 651.54 95.21 651.47 95.97C651.47 96.06 651.49 96.14 651.53 96.22C651.58 96.3 651.64 96.37 651.71 96.41C652.1 96.62 652.54 96.7 652.98 96.65C653.47 97.04 654.07 97.29 654.69 97.35C655.45 97.53 656.24 97.53 657 97.35C657.11 97.35 657.22 97.3 657.31 97.23C657.4 97.16 657.47 97.06 657.5 96.95C657.54 96.85 657.54 96.73 657.5 96.62C657.47 96.51 657.4 96.41 657.31 96.34Z" fill="#FFFFFF" fill-opacity="1.000000" fill-rule="nonzero"/>
	<path id="Vector" d="M659.64 40.08C659.34 39.98 659.03 39.97 658.73 40.04C658.42 40.11 658.15 40.26 657.92 40.47C657.6 40.78 657.33 41.14 657 41.46C656.68 41.79 656.13 42.47 655.7 42.99C655.27 43.5 654.66 43.91 654.84 44.7C654.87 44.82 654.91 44.94 654.98 45.05C655.05 45.16 655.13 45.25 655.24 45.32C655.34 45.4 655.46 45.45 655.58 45.48C655.7 45.5 655.83 45.51 655.96 45.48C656.1 45.44 656.24 45.38 656.37 45.31C656.66 45.15 656.94 44.96 657.21 44.75C657.81 44.25 658.35 43.67 658.81 43.04C659.05 42.73 659.23 42.38 659.33 42.01C659.38 41.81 659.38 41.6 659.33 41.39L659.43 41.31C659.57 41.3 659.7 41.24 659.8 41.15C659.9 41.05 659.96 40.93 659.98 40.79C660 40.65 659.97 40.51 659.9 40.4C659.83 40.28 659.71 40.19 659.58 40.15L659.64 40.08Z" fill="#FFFFFF" fill-opacity="1.000000" fill-rule="nonzero"/>
	<path id="Vector" d="M611.02 24.24C610.94 23.95 610.82 23.68 610.64 23.45L610.45 23.23C610.43 22.93 610.43 22.63 610.45 22.34C610.45 22.17 610.38 22 610.26 21.88C610.13 21.76 609.97 21.69 609.8 21.69C609.63 21.69 609.46 21.76 609.34 21.88C609.21 22 609.14 22.16 609.13 22.34C609.08 23.02 609.13 23.7 609.27 24.37C609.26 24.44 609.26 24.5 609.27 24.56C609.4 24.88 609.49 25.21 609.54 25.55C609.58 25.76 609.66 25.96 609.77 26.14C609.84 26.25 609.94 26.35 610.06 26.41C610.19 26.47 610.33 26.5 610.46 26.48C610.6 26.46 610.73 26.4 610.84 26.31C610.94 26.22 611.01 26.1 611.05 25.96C611.18 25.39 611.16 24.8 611.02 24.24Z" fill="#FFFFFF" fill-opacity="1.000000" fill-rule="nonzero"/>
	<path id="Vector" d="M635.55 5.28C635.46 5.14 635.32 5.04 635.16 4.99C635 4.95 634.82 4.96 634.68 5.04C634.46 4.96 634.22 4.96 634.01 5.04C633.63 5.2 633.27 5.4 632.93 5.62C632.59 5.78 632.29 6.02 632.06 6.32C631.82 6.62 631.67 6.96 631.59 7.33C631.59 7.38 631.59 7.43 631.61 7.47C631.62 7.52 631.65 7.56 631.68 7.59C631.69 7.68 631.73 7.77 631.78 7.84C631.83 7.92 631.89 7.98 631.97 8.03C632.04 8.08 632.13 8.11 632.22 8.12C632.31 8.14 632.4 8.13 632.49 8.1C633.15 7.96 633.78 7.69 634.35 7.32C634.53 7.14 634.7 6.95 634.85 6.75C634.95 6.61 635.04 6.45 635.12 6.29C635.2 6.27 635.27 6.22 635.33 6.15C635.4 6.11 635.46 6.06 635.51 5.99C635.56 5.92 635.6 5.85 635.62 5.76C635.64 5.68 635.64 5.6 635.63 5.52C635.62 5.43 635.59 5.35 635.55 5.28Z" fill="#FFFFFF" fill-opacity="1.000000" fill-rule="nonzero"/>
	<path id="Vector" d="M627.83 0.39C627.8 0.28 627.73 0.18 627.64 0.11C627.55 0.04 627.43 0 627.32 0C627.13 0.01 626.94 0.07 626.78 0.16C626.61 0.25 626.46 0.38 626.34 0.53C626.09 0.78 625.91 1.1 625.81 1.45C625.76 1.8 625.76 2.15 625.81 2.49C625.72 2.73 625.66 2.99 625.64 3.25C625.42 4.06 625.35 4.92 625.45 5.76C625.5 5.91 625.61 6.04 625.75 6.12C625.89 6.2 626.05 6.23 626.21 6.19C626.67 5.95 627.06 5.6 627.36 5.17C627.65 4.75 627.85 4.26 627.92 3.74C628.14 2.61 628.14 1.45 627.92 0.32L627.83 0.39Z" fill="#FFFFFF" fill-opacity="1.000000" fill-rule="nonzero"/>
	<path id="Vector" d="M652.3 20.66C652.33 20.54 652.33 20.42 652.3 20.3C652.18 20.13 652 20 651.8 19.94C651.42 19.87 651.02 19.87 650.64 19.94C650.15 20.01 649.68 20.12 649.22 20.28C648.87 20.4 648.4 20.54 648.21 20.88C648.16 20.95 648.13 21.02 648.13 21.11C648.13 21.19 648.16 21.26 648.21 21.33C648.18 21.42 648.19 21.51 648.21 21.6C648.24 21.69 648.29 21.76 648.36 21.82C648.58 22.03 648.87 22.15 649.17 22.17C649.46 22.22 649.77 22.22 650.07 22.17C650.39 22.21 650.71 22.21 651.03 22.17C651.61 22.06 652.43 21.72 652.4 21C652.4 20.88 652.37 20.76 652.3 20.66Z" fill="#FFFFFF" fill-opacity="1.000000" fill-rule="nonzero"/>
	<path id="Vector" d="M644.31 23.72L644.17 23.33C644.03 23.02 643.83 22.75 643.67 22.46C643.36 21.78 642.89 21.2 642.31 20.75C642.23 20.7 642.14 20.68 642.06 20.67C641.97 20.67 641.88 20.68 641.8 20.72C641.72 20.75 641.65 20.8 641.59 20.86C641.53 20.93 641.49 21.01 641.47 21.09C641.36 21.49 641.35 21.91 641.44 22.32C641.53 22.72 641.71 23.11 641.96 23.43C642.23 23.82 642.57 24.16 642.96 24.42C643.1 24.68 643.3 24.9 643.55 25.06C643.62 25.1 643.7 25.12 643.77 25.13C643.85 25.14 643.93 25.13 644.01 25.11C644.08 25.08 644.15 25.04 644.21 24.99C644.26 24.94 644.31 24.87 644.34 24.8C644.46 24.75 644.55 24.65 644.6 24.53C644.64 24.46 644.67 24.38 644.68 24.3C644.68 24.21 644.67 24.13 644.65 24.06C644.62 23.98 644.57 23.91 644.51 23.85C644.46 23.79 644.38 23.75 644.31 23.72Z" fill="#FFFFFF" fill-opacity="1.000000" fill-rule="nonzero"/>
	<path id="Vector" d="M659.14 28.72C659.1 28.28 658.99 27.85 658.83 27.44C658.64 27.01 658.27 26.39 657.7 26.55C657.14 26.7 657.09 27.42 657.09 27.91C657.12 28.54 657.2 29.15 657.33 29.76C657.37 30.05 657.43 30.33 657.51 30.6C657.56 30.82 657.64 31.04 657.75 31.23C657.81 31.33 657.89 31.4 657.98 31.45C658.08 31.51 658.18 31.53 658.29 31.53C658.4 31.53 658.51 31.51 658.6 31.45C658.7 31.4 658.77 31.33 658.83 31.23C658.83 31.23 658.83 31.23 658.93 31.23C659.04 31.13 659.12 31 659.16 30.86C659.16 30.74 659.16 30.63 659.16 30.51L659.16 29.92C659.18 29.52 659.17 29.12 659.14 28.72Z" fill="#FFFFFF" fill-opacity="1.000000" fill-rule="nonzero"/>
	<path id="Vector" d="M673.9 31.78C673.51 31.51 673.04 31.38 672.57 31.42C672.16 31.16 671.7 31 671.22 30.96C670.86 30.94 670.5 31 670.17 31.13C669.83 31.24 669.54 31.47 669.37 31.78C669.29 31.8 669.22 31.83 669.15 31.87C669.09 31.91 669.04 31.97 668.99 32.04C668.92 32.15 668.87 32.27 668.85 32.4C668.83 32.53 668.83 32.66 668.87 32.78C668.9 32.91 668.95 33.03 669.03 33.13C669.11 33.24 669.21 33.32 669.32 33.39C669.67 33.56 670.07 33.62 670.46 33.56C670.69 33.54 670.92 33.54 671.15 33.56L672.02 33.56C672.36 33.59 672.69 33.59 673.03 33.56C673.37 33.56 673.7 33.48 674.01 33.32C674.13 33.25 674.24 33.14 674.31 33.02C674.39 32.89 674.43 32.75 674.43 32.6C674.43 32.43 674.37 32.26 674.28 32.12C674.19 31.97 674.06 31.86 673.9 31.78Z" fill="#FFFFFF" fill-opacity="1.000000" fill-rule="nonzero"/>
	<path id="Vector" d="M555.62 49.28C555.44 49.13 555.23 49.02 555 48.95C554.78 48.89 554.54 48.88 554.3 48.92C553.9 48.99 553.5 49.08 553.11 49.2L552.08 49.38C551.65 49.46 551.24 49.61 550.85 49.81C550.73 49.89 550.62 49.98 550.52 50.09L550.32 50.09C550.04 49.95 549.63 50.19 549.75 50.53C549.82 50.71 549.93 50.87 550.08 51C550.22 51.12 550.39 51.22 550.58 51.27C551.14 51.83 552.13 51.71 552.87 51.66C553.59 51.67 554.32 51.58 555.02 51.39C555.23 51.35 555.42 51.26 555.58 51.13C555.74 51 555.87 50.83 555.95 50.63C555.97 50.51 555.97 50.38 555.95 50.26C555.99 50.08 555.99 49.89 555.93 49.72C555.87 49.55 555.76 49.4 555.62 49.28Z" fill="#FFFFFF" fill-opacity="1.000000" fill-rule="nonzero"/>
	<path id="Vector" d="M539.18 26.94C539.15 26.85 539.1 26.76 539.03 26.69C538.96 26.62 538.88 26.56 538.79 26.53C538.7 26.49 538.6 26.47 538.5 26.48C538.4 26.49 538.31 26.51 538.22 26.56C537.74 26.56 537.28 27.08 537.01 27.47C536.84 27.7 536.71 27.96 536.6 28.22C536.48 28.46 536.43 28.71 536.43 28.97C536.4 29.14 536.4 29.31 536.43 29.47C536.32 29.74 536.2 30 536.12 30.28C536.1 30.35 536.09 30.42 536.1 30.5C536.11 30.57 536.13 30.64 536.17 30.71C536.21 30.77 536.26 30.83 536.31 30.88C536.37 30.92 536.44 30.96 536.51 30.98C536.66 31.01 536.81 30.98 536.94 30.91C537.07 30.83 537.17 30.71 537.21 30.57C537.31 30.62 537.42 30.63 537.52 30.61C537.63 30.58 537.72 30.52 537.78 30.43C537.78 30.43 537.88 30.31 537.92 30.24C537.92 30.2 537.92 30.16 537.92 30.12C537.97 30 538.04 29.89 538.12 29.78L538.31 29.52C538.39 29.41 538.46 29.29 538.53 29.16C538.8 28.86 538.99 28.51 539.11 28.12C539.22 27.74 539.24 27.33 539.18 26.94Z" fill="#FFFFFF" fill-opacity="1.000000" fill-rule="nonzero"/>
	<path id="Vector" d="M537.88 30.38L537.86 30.38L537.88 30.38Z" fill="#FFFFFF" fill-opacity="1.000000" fill-rule="nonzero"/>
	<path id="Vector" d="" fill="#FFFFFF" fill-opacity="1.000000" fill-rule="nonzero"/>
	<path id="Vector" d="M540.43 33.29C540.19 33.17 539.94 33.1 539.68 33.06C539.4 32.82 539.08 32.63 538.74 32.5C538.5 32.39 538.24 32.34 537.98 32.34L537.57 32.34C537.45 32.39 537.34 32.47 537.26 32.56C537.18 32.66 537.12 32.78 537.09 32.91C537.02 33.27 537.08 33.64 537.26 33.96C537.44 34.27 537.74 34.51 538.09 34.62C538.74 34.92 539.47 35 540.17 34.86C540.33 34.84 540.47 34.79 540.61 34.71C540.74 34.63 540.85 34.52 540.94 34.4C541.2 34 540.84 33.49 540.43 33.29Z" fill="#FFFFFF" fill-opacity="1.000000" fill-rule="nonzero"/>
	<path id="Vector" d="M517.99 22.63C517.96 22.5 517.89 22.38 517.8 22.29C517.7 22.19 517.58 22.13 517.46 22.1C517.13 22.04 516.79 22.11 516.51 22.29C516.11 22.61 515.72 22.96 515.35 23.33C514.75 23.79 514.26 24.37 513.91 25.04C513.87 25.13 513.84 25.22 513.84 25.32C513.84 25.41 513.87 25.51 513.92 25.59C513.96 25.68 514.03 25.75 514.12 25.8C514.2 25.85 514.3 25.88 514.39 25.88C514.62 25.87 514.85 25.8 515.04 25.67L515.33 25.45L515.42 25.37L515.69 25.18C515.73 25.2 515.78 25.21 515.82 25.21C515.87 25.21 515.91 25.2 515.95 25.18C516.17 25.12 516.38 25.04 516.58 24.94C516.83 24.81 517.05 24.63 517.23 24.42C517.67 24.06 517.95 23.55 518.02 22.99C518.02 22.87 518.01 22.75 517.99 22.63Z" fill="#FFFFFF" fill-opacity="1.000000" fill-rule="nonzero"/>
	<path id="Vector" d="M503.1 51.85C503.06 51.72 502.97 51.61 502.86 51.54C502.74 51.48 502.6 51.46 502.47 51.49C501.89 51.59 501.61 52.26 501.46 52.77C501.39 52.91 501.32 53.05 501.27 53.2C501.17 53.51 501.11 53.83 501.1 54.16C501.01 54.63 501.01 55.12 501.1 55.59L501.1 55.68C501.05 55.89 501.05 56.1 501.1 56.31C501.13 56.43 501.21 56.54 501.31 56.61C501.42 56.68 501.54 56.71 501.67 56.69C501.79 56.67 501.9 56.61 501.98 56.52C502.07 56.42 502.11 56.3 502.11 56.18C502.35 56.02 502.52 55.77 502.59 55.49C502.75 55.04 502.87 54.57 502.95 54.09C503.18 53.36 503.23 52.6 503.1 51.85Z" fill="#FFFFFF" fill-opacity="1.000000" fill-rule="nonzero"/>
	<path id="Vector" d="M505.38 55.13C504.89 55.04 504.39 55.14 503.97 55.41C503.88 55.43 503.78 55.46 503.68 55.49C503.25 55.7 502.86 55.99 502.55 56.36L502.42 56.36C502.37 56.37 502.32 56.38 502.28 56.41C502.24 56.44 502.22 56.48 502.2 56.53C502.19 56.58 502.19 56.63 502.2 56.67C502.21 56.72 502.24 56.76 502.28 56.79C502.24 56.93 502.24 57.08 502.28 57.22C502.32 57.33 502.38 57.43 502.48 57.5C502.57 57.57 502.68 57.61 502.79 57.61C503.41 57.59 504 57.38 504.5 57.03C504.69 56.92 504.87 56.8 505.04 56.65C505.21 56.54 505.38 56.41 505.53 56.26C505.62 56.19 505.7 56.1 505.75 56C505.8 55.89 505.83 55.78 505.84 55.66C505.83 55.54 505.77 55.42 505.69 55.33C505.61 55.23 505.5 55.16 505.38 55.13Z" fill="#FFFFFF" fill-opacity="1.000000" fill-rule="nonzero"/>
	<path id="Vector" d="M552.53 66.83C552.28 66.67 551.99 66.56 551.7 66.51C551.4 66.46 551.1 66.47 550.81 66.54C550.49 66.55 550.16 66.59 549.84 66.66L549.74 66.66C549.55 66.67 549.36 66.7 549.17 66.75C549.1 66.78 549.04 66.82 548.99 66.87C548.93 66.92 548.89 66.99 548.86 67.06L548.62 67.16C548.56 67.18 548.5 67.22 548.47 67.27C548.43 67.33 548.42 67.4 548.44 67.47C548.19 67.67 548.02 67.95 547.97 68.27C547.98 68.41 548.03 68.53 548.13 68.63C548.23 68.72 548.35 68.78 548.49 68.78C548.52 68.88 548.58 68.96 548.65 69.02C548.72 69.09 548.8 69.14 548.9 69.16C549.21 69.24 549.53 69.27 549.86 69.26C550.19 69.3 550.53 69.3 550.87 69.26C551.13 69.2 551.37 69.09 551.58 68.94C551.87 68.74 552.1 68.48 552.25 68.17C552.32 68.03 552.35 67.88 552.35 67.72C552.44 67.69 552.51 67.63 552.56 67.56C552.62 67.49 552.66 67.41 552.68 67.32C552.69 67.24 552.69 67.15 552.66 67.06C552.64 66.97 552.59 66.9 552.53 66.83Z" fill="#FFFFFF" fill-opacity="1.000000" fill-rule="nonzero"/>
	<path id="Vector" d="M563.46 64.64C563.3 64.24 563.05 63.88 562.72 63.6L562.53 63.46C562.53 63.38 562.36 63.31 562.28 63.22C562.11 63.02 561.93 62.85 561.75 62.66L561.51 62.25L561.28 61.99C561.29 61.95 561.29 61.91 561.28 61.87C561.28 61.77 561.28 61.65 561.15 61.62L560.98 61.62C560.86 61.49 560.72 61.4 560.56 61.35C560.4 61.3 560.23 61.29 560.07 61.33C559.96 61.35 559.87 61.42 559.81 61.5C559.74 61.59 559.71 61.7 559.71 61.8C559.64 61.77 559.56 61.76 559.49 61.77C559.41 61.79 559.35 61.83 559.3 61.89C559.25 61.95 559.22 62.03 559.22 62.11C559.22 62.19 559.25 62.27 559.3 62.33C559.3 62.33 559.3 62.49 559.3 62.59C559.33 62.74 559.39 62.88 559.47 63C559.64 63.24 559.86 63.45 560.05 63.67C560.24 63.89 560.05 63.67 560.05 63.75C560.12 63.93 560.21 64.09 560.33 64.23C560.57 64.49 560.87 64.7 561.2 64.83L561.3 64.92C561.35 64.95 561.41 64.96 561.46 64.96C561.52 64.96 561.58 64.95 561.63 64.92C561.75 65.16 561.85 65.4 561.99 65.64C562.06 65.76 562.19 65.85 562.33 65.89C562.47 65.93 562.63 65.91 562.76 65.84C562.82 65.8 562.88 65.74 562.92 65.68C562.97 65.61 563 65.54 563.01 65.47C563.1 65.45 563.18 65.41 563.26 65.36C563.33 65.31 563.39 65.24 563.43 65.16C563.47 65.08 563.5 65 563.5 64.91C563.51 64.82 563.49 64.73 563.46 64.64Z" fill="#FFFFFF" fill-opacity="1.000000" fill-rule="nonzero"/>
	<path id="Vector" d="M537.88 90.27C538.18 89.92 538.39 89.49 538.5 89.04C538.53 88.88 538.53 88.72 538.5 88.56C538.46 88.4 538.38 88.26 538.27 88.13C538.19 88.04 538.08 87.96 537.96 87.92C537.84 87.88 537.71 87.87 537.59 87.89C537.38 87.97 537.18 88.09 537.01 88.24L536.84 88.37C536.68 88.45 536.52 88.54 536.38 88.65C536 88.97 535.71 89.38 535.37 89.74C535.04 90.04 534.8 90.42 534.67 90.84C534.61 91.07 534.61 91.31 534.67 91.54C534.64 91.66 534.65 91.79 534.7 91.91C534.75 92.02 534.83 92.12 534.94 92.19C535.12 92.25 535.32 92.25 535.5 92.19L535.71 92.1C536.08 91.95 536.43 91.73 536.72 91.45C536.85 91.31 536.97 91.14 537.11 91.01L537.39 90.7C537.56 90.57 537.72 90.42 537.88 90.27Z" fill="#FFFFFF" fill-opacity="1.000000" fill-rule="nonzero"/>
	<path id="Vector" d="M630.53 62.37C630.53 62.37 630.53 62.27 630.53 62.2C630.49 62.09 630.42 61.98 630.35 61.89C630.17 61.66 629.93 61.47 629.66 61.36C629.37 61.26 629.06 61.21 628.77 61.1C628.05 60.85 627.27 60.37 626.48 60.67C626.39 60.71 626.31 60.75 626.24 60.82C626.16 60.88 626.11 60.96 626.07 61.05C626.02 61.13 626 61.22 626 61.32C626 61.41 626.02 61.5 626.07 61.58C626.04 61.73 626.04 61.88 626.07 62.03C626.24 62.45 626.56 62.8 626.98 63C627.45 63.27 627.97 63.43 628.51 63.46C629.05 63.49 629.59 63.39 630.09 63.17C630.26 63.13 630.4 63.01 630.48 62.86C630.56 62.71 630.58 62.53 630.53 62.37Z" fill="#FFFFFF" fill-opacity="1.000000" fill-rule="nonzero"/>
	<path id="Vector" d="M632.93 26.36C632.85 26.29 632.75 26.25 632.64 26.25C632.64 26.25 632.64 26.25 632.55 26.17C631.96 25.95 631.41 26.44 631.01 26.82C630.55 27.26 630.15 27.77 629.83 28.32C629.58 28.77 629.25 29.42 629.58 29.92C629.69 30.08 629.86 30.19 630.04 30.25C630.23 30.31 630.44 30.31 630.62 30.24C631.01 30.1 631.35 29.85 631.59 29.52C631.86 29.22 632.09 28.9 632.28 28.55C632.42 28.31 632.52 28.07 632.64 27.81C632.73 27.65 632.8 27.48 632.86 27.3C632.9 27.16 632.95 27.03 633.02 26.91C633.06 26.82 633.07 26.72 633.06 26.62C633.04 26.52 633 26.43 632.93 26.36Z" fill="#FFFFFF" fill-opacity="1.000000" fill-rule="nonzero"/>
	<path id="Vector" d="M679.67 89.64C679.59 89.4 679.45 89.18 679.27 89C679.09 88.83 678.87 88.7 678.62 88.63C678.26 88.48 677.87 88.39 677.48 88.34C677.13 88.22 676.76 88.18 676.4 88.22C676.2 88.19 675.99 88.19 675.78 88.22C675.73 88.22 675.68 88.22 675.63 88.24C675.58 88.26 675.53 88.29 675.5 88.33C675.46 88.36 675.43 88.41 675.41 88.46C675.38 88.51 675.37 88.56 675.37 88.61C675.32 88.67 675.28 88.75 675.27 88.82C675.25 88.9 675.25 88.98 675.27 89.06C675.28 89.14 675.32 89.21 675.37 89.27C675.42 89.34 675.49 89.38 675.56 89.42C675.57 89.46 675.57 89.51 675.56 89.55C675.61 89.7 675.7 89.82 675.82 89.91C676.06 90.12 676.33 90.3 676.62 90.44C677.1 90.69 677.64 90.82 678.18 90.8C678.42 90.79 678.64 90.69 678.81 90.53L679.03 90.53C679.51 90.56 679.67 90.03 679.67 89.64Z" fill="#FFFFFF" fill-opacity="1.000000" fill-rule="nonzero"/>
	<path id="Vector" d="M608.24 163.01C608.02 162.65 607.76 162.32 607.46 162.02C607.04 161.55 606.57 161.14 606.05 160.79C605.75 160.59 605.43 160.43 605.08 160.33L604.98 160.24C604.92 160.18 604.85 160.14 604.78 160.12C604.7 160.09 604.62 160.09 604.54 160.1C604.46 160.11 604.39 160.14 604.32 160.19C604.26 160.24 604.21 160.31 604.17 160.38C604.07 160.43 603.97 160.51 603.9 160.6C603.27 161.32 603.9 162.07 604.48 162.57C604.76 162.89 605.11 163.16 605.49 163.35C606.18 163.92 606.99 164.33 607.85 164.55C607.95 164.55 608.04 164.53 608.13 164.48C608.21 164.43 608.28 164.36 608.33 164.28C608.43 164.08 608.48 163.86 608.46 163.63C608.45 163.41 608.37 163.19 608.24 163.01Z" fill="#FFFFFF" fill-opacity="1.000000" fill-rule="nonzero"/>
	<path id="Vector" d="M591.58 149.05C591.6 148.96 591.6 148.87 591.58 148.78C591.55 148.69 591.51 148.61 591.44 148.54C591.38 148.47 591.3 148.42 591.21 148.4C591.12 148.38 591.02 148.38 590.93 148.4C590.4 148.62 589.9 148.92 589.46 149.29C589.24 149.43 589.05 149.58 588.84 149.74C588.64 149.91 588.45 150.11 588.3 150.34C588.11 150.51 587.92 150.66 587.75 150.85L587.42 151.26C587.37 151.25 587.32 151.26 587.27 151.29C587.22 151.31 587.18 151.35 587.15 151.4C587.02 151.58 586.94 151.79 586.93 152.01C586.93 152.16 586.98 152.3 587.07 152.42C587.17 152.53 587.3 152.61 587.44 152.64L587.54 152.64C588.19 152.6 588.8 152.32 589.26 151.86C589.5 151.66 589.72 151.45 589.94 151.23C590.52 150.94 590.96 150.45 591.17 149.84C591.35 149.6 591.49 149.34 591.58 149.05Z" fill="#FFFFFF" fill-opacity="1.000000" fill-rule="nonzero"/>
	<path id="Vector" d="M578.55 149.87C578.51 149.75 578.43 149.65 578.33 149.58C578.22 149.52 578.09 149.5 577.96 149.53C577.86 149.57 577.76 149.62 577.67 149.69C577.58 149.66 577.49 149.67 577.4 149.71C577.31 149.75 577.24 149.81 577.19 149.89C576.62 150.8 576.29 151.84 576.22 152.92C576.23 153.02 576.27 153.11 576.34 153.19C576.41 153.26 576.5 153.31 576.59 153.33C576.63 153.39 576.69 153.44 576.75 153.47C576.81 153.51 576.88 153.52 576.95 153.52C577.03 153.52 577.1 153.51 577.16 153.47C577.22 153.44 577.28 153.39 577.31 153.33C577.31 153.33 577.31 153.23 577.31 153.19C577.8 152.8 578.18 152.29 578.39 151.7C578.61 151.12 578.66 150.49 578.55 149.87Z" fill="#FFFFFF" fill-opacity="1.000000" fill-rule="nonzero"/>
	<path id="Vector" d="M622.44 138.74C622.38 138.64 622.3 138.55 622.2 138.49C622.09 138.43 621.98 138.4 621.86 138.39C621.54 138.45 621.23 138.59 620.99 138.81C620.88 138.84 620.79 138.9 620.73 138.99C620.73 139.05 620.73 139.11 620.73 139.16C620.55 139.4 620.39 139.66 620.27 139.93C620.08 140.32 619.95 140.74 619.88 141.17C619.83 141.3 619.83 141.44 619.88 141.58C619.87 141.69 619.87 141.8 619.88 141.92C619.86 141.96 619.85 142 619.85 142.05C619.85 142.09 619.86 142.14 619.88 142.17C619.89 142.27 619.89 142.37 619.88 142.47C619.88 142.61 619.93 142.74 620.03 142.85C620.12 142.96 620.25 143.03 620.39 143.05C620.53 143.07 620.68 143.04 620.81 142.97C620.93 142.89 621.02 142.76 621.06 142.62C621.06 142.62 621.06 142.5 621.06 142.43C621.06 142.3 621.18 142.14 621.25 142C621.31 141.87 621.25 141.78 621.38 141.66L621.59 141.51C621.84 141.28 622.05 141 622.22 140.7C622.49 140.16 622.87 139.37 622.44 138.74Z" fill="#FFFFFF" fill-opacity="1.000000" fill-rule="nonzero"/>
	<path id="Vector" d="M629.78 142.53C629.8 142.37 629.77 142.2 629.7 142.05C629.63 141.9 629.53 141.77 629.39 141.68C629.05 141.47 628.65 141.39 628.26 141.44C627.77 141.48 627.29 141.64 626.86 141.88C626.71 141.97 626.58 142.08 626.46 142.19C626.03 142.25 625.63 142.48 625.35 142.83C625.09 143.25 625.45 143.78 625.83 144C626.11 144.16 626.42 144.22 626.74 144.18C627.22 144.12 627.7 144 628.16 143.83C628.4 143.76 628.63 143.67 628.86 143.56C629.15 143.49 629.42 143.36 629.65 143.17C629.72 143.08 629.78 142.98 629.8 142.87C629.83 142.76 629.82 142.64 629.78 142.53Z" fill="#FFFFFF" fill-opacity="1.000000" fill-rule="nonzero"/>
	<path id="Vector" d="M1162.92 469.98C1162.92 466.02 1162.04 462.07 1161.36 458.07C1161.14 454.37 1160.56 450.67 1159.67 447.02C1157.64 441.08 1151.62 436.14 1149.59 430.17C1147.32 422.11 1146.56 413.9 1147.29 405.72C1147.66 402.1 1147.66 398.47 1147.29 394.85C1146.61 391.12 1144.85 387.52 1144.44 383.75C1143.63 375.71 1142.35 367.71 1141.74 359.71C1141.13 351.71 1141.13 344.21 1139.56 336.52C1138.02 328.84 1134.9 321.97 1132.81 314.6C1131.79 310.96 1131.44 307.23 1130.43 303.54C1129.67 301.4 1129.11 299.22 1128.75 297.03C1128.75 295.01 1129.29 292.98 1128.75 291.01C1127.73 286.11 1120.49 283.95 1114.67 281.79C1110.85 280.34 1106.87 279.08 1102.76 278.02C1096.4 276.54 1090.79 274.38 1084.63 272.76C1075.64 271.13 1066.26 270.7 1057.02 271.5C1045.57 271.5 1034.15 272.49 1022.71 272.18C1016.71 272.22 1010.77 271.37 1005.32 269.71C1000.92 268.22 996.93 266.25 992.46 264.94C982.52 262.71 972.24 261.2 961.81 260.45C956.76 259.56 951.79 258.5 946.92 257.26C941.5 256.41 936.27 255.09 931.36 253.35C928.21 251.81 924.85 250.46 921.34 249.31C916.62 248.42 911.76 247.86 906.86 247.65C896.07 246.87 885.21 246.66 874.38 247.02C868.77 247.18 863.15 246.68 857.8 245.53C852.18 244.23 846.91 242.3 841.36 240.77C830.73 237.85 819.84 235.6 809.35 232.5C798.86 229.4 787.49 226.71 777.07 223.02C768.07 219.25 758.61 215.99 748.79 213.27C744.19 212.24 740.13 210.66 735.73 209.59C730.49 208.71 725.15 208.13 719.76 207.83C714.35 207.12 709.14 205.77 703.72 205.05C698.31 204.33 691.68 203.61 685.59 202.89C674.16 201.34 663.11 198.74 652.77 195.16C643.87 192.33 634.26 190.61 624.42 190.09C618.8 189.68 613.45 188.69 607.9 188.2C602.54 187.93 597.16 187.93 591.8 188.2C583.69 188.27 575.9 190.3 569.88 193.9C560.88 198.4 547.75 198.76 536.72 199.12C525.82 199.23 514.93 198.56 504.24 197.14C493.98 196.28 483.63 196.07 473.31 196.51C468.51 196.51 463.5 196.51 458.77 197C453.07 197.9 447.28 198.49 441.44 198.76C436.92 198.52 432.37 198.67 427.91 199.21C423.02 200.11 418.29 201.32 413.77 202.85C408.56 204.37 403.28 205.27 397.93 206.53C393.59 207.76 389.05 208.63 384.4 209.14C379.39 209.41 374.65 210.71 369.71 210.89C364.29 210.98 358.9 211.52 353.68 212.51C343.23 214.77 333.02 217.47 323.09 220.6C317.75 222.17 312.4 223.34 306.92 224.55C301.44 225.76 295.28 226.17 290 227.69C285.81 228.95 282.22 230.88 278.09 232.19C272.76 233.56 267.19 234.47 261.51 234.88C237.97 237.54 214.15 233.85 190.33 235.87C185.47 236.45 180.67 237.26 175.98 238.3C171.2 238.87 166.51 239.74 161.98 240.91C156.43 242.52 151.49 244.81 145.87 246.34C140.51 247.81 135.02 249.06 129.43 250.07C118.8 252 109.47 255.64 99.04 258.02C88.62 260.41 78.74 260.99 68.66 263.46C62.94 264.94 56.96 265.94 50.86 266.43C46.87 266.62 42.9 266.95 38.96 267.42C33.32 268.42 28.03 270.14 23.39 272.49C23.39 271.95 22.44 271.51 21.84 272C19.06 274.25 15.07 275.82 12.63 278.29C10.58 281.47 10.36 285.03 12.02 288.31C14.33 293.04 15.87 297.92 16.62 302.87C16.96 308.62 16.62 314.37 16.62 320.12C15.95 343.17 17.17 366.23 16.62 389.28C16.62 400.2 13.92 410.98 13.92 421.94L13.92 506.96C13.92 512.21 14.59 517.52 13.92 522.73C13.58 526.1 12.09 529.29 11.35 532.66C10.81 535.09 10.87 537.51 10.67 539.98C10.33 546.78 9.11 553.55 7.02 560.2C4.65 567.35 -3.47 575.98 1.67 583.3C1.76 583.39 1.88 583.46 2.02 583.52C2.16 583.57 2.32 583.61 2.48 583.61C6.45 583.45 10.33 582.73 13.85 581.5C18.93 580.29 24.68 579.8 29.89 578.85C40.99 577.22 52.43 576.86 63.72 577.77C75.99 578.68 88.33 579.12 100.67 579.08C112.88 578.71 125.11 578.9 137.28 579.66C160.62 581.5 183.22 586.45 206.84 586.22C218.46 585.68 230.13 585.68 241.76 586.22C253.87 587.16 265.71 588.87 277.89 589.41C302.18 590.49 326.34 587.7 350.7 588.06C375.06 588.42 400.17 590.31 425.13 589.95C436.98 589.95 448.82 589.95 460.59 589.32C472.37 588.69 485.09 587.97 497.4 587.7C521.12 587.24 544.76 585.74 568.18 583.21C580.8 581.39 593.56 580.09 606.42 579.3C618.73 578.94 631.11 579.3 643.43 579.3C668.4 579.03 693.1 576.83 717.86 574.81C742.63 572.78 767.6 571.3 792.3 570.72C804.95 570.45 817.27 569.68 829.85 568.97C841.36 568.34 852.93 568.96 864.43 568.07C875.94 567.17 888.93 565.82 901.45 565.46C913.97 565.1 924.93 565.46 936.7 565.19C961.56 564.89 986.43 565.67 1011.14 567.53C1035.81 569.62 1060.68 570.57 1085.56 570.36C1097.82 570.23 1110.09 570.67 1122.25 571.66C1128.02 572.19 1133.81 572.49 1139.64 572.56C1143.56 572.87 1147.52 572.43 1151.07 571.3C1155.68 569.24 1154.53 565.15 1154.53 561.96C1154.82 559.08 1155.39 556.21 1156.22 553.37C1156.92 549.53 1157.28 545.66 1157.3 541.78C1157.3 525.87 1162.57 510.33 1162.57 494.38C1162.92 486.29 1163.12 478.2 1162.92 469.98Z" fill="#E13A4B" fill-opacity="1.000000" fill-rule="nonzero"/>
</svg>
