<svg width="1163.000000" height="588.000000" viewBox="0 0 1163 588" fill="none" xmlns="http://www.w3.org/2000/svg" xmlns:xlink="http://www.w3.org/1999/xlink">
	<desc>
			Created with Pixso.
	</desc>
	<defs/>
	<path id="Vector" d="M1162.92 120.01C1162.92 123.97 1162.04 127.92 1161.36 131.92C1161.14 135.63 1160.56 139.32 1159.67 142.97C1157.64 148.91 1151.62 153.85 1149.59 159.83C1147.32 167.88 1146.56 176.09 1147.29 184.27C1147.66 187.89 1147.66 191.52 1147.29 195.14C1146.61 198.87 1144.85 202.47 1144.44 206.24C1143.63 214.28 1142.35 222.28 1141.74 230.28C1141.13 238.28 1141.13 245.78 1139.56 253.47C1138.02 261.15 1134.9 268.03 1132.81 275.39C1131.79 279.03 1131.44 282.76 1130.43 286.45C1129.67 288.59 1129.11 290.77 1128.75 292.96C1128.75 294.99 1129.29 297.01 1128.75 298.98C1127.73 303.88 1120.49 306.04 1114.67 308.2C1110.85 309.65 1106.87 310.91 1102.76 311.97C1096.4 313.45 1090.79 315.61 1084.63 317.23C1075.64 318.86 1066.26 319.29 1057.02 318.49C1045.57 318.49 1034.15 317.5 1022.71 317.81C1016.71 317.77 1010.77 318.62 1005.32 320.28C1000.92 321.77 996.93 323.74 992.46 325.05C982.52 327.28 972.24 328.79 961.81 329.54C956.76 330.43 951.79 331.49 946.92 332.73C941.5 333.58 936.27 334.9 931.36 336.64C928.21 338.18 924.85 339.54 921.34 340.68C916.62 341.57 911.76 342.13 906.86 342.35C896.07 343.12 885.21 343.33 874.38 342.97C868.77 342.81 863.15 343.31 857.8 344.46C852.18 345.76 846.91 347.69 841.36 349.22C830.73 352.14 819.84 354.39 809.35 357.49C798.86 360.59 787.49 363.28 777.07 366.97C768.07 370.74 758.61 374 748.79 376.72C744.19 377.75 740.13 379.33 735.73 380.4C730.49 381.28 725.15 381.87 719.76 382.16C714.35 382.88 709.14 384.22 703.72 384.94C698.31 385.66 691.68 386.38 685.59 387.1C674.16 388.65 663.11 391.25 652.77 394.83C643.87 397.66 634.26 399.38 624.42 399.91C618.8 400.31 613.45 401.3 607.9 401.79C602.54 402.06 597.16 402.06 591.8 401.79C583.69 401.72 575.9 399.69 569.88 396.09C560.88 391.59 547.75 391.23 536.72 390.87C525.82 390.77 514.93 391.43 504.24 392.85C493.98 393.71 483.63 393.92 473.31 393.48C468.51 393.48 463.5 393.48 458.77 392.99C453.07 392.09 447.28 391.51 441.44 391.23C436.92 391.47 432.37 391.32 427.91 390.78C423.02 389.89 418.29 388.67 413.77 387.14C408.56 385.62 403.28 384.72 397.93 383.46C393.59 382.24 389.05 381.36 384.4 380.85C379.39 380.58 374.65 379.28 369.71 379.1C364.29 379.01 358.9 378.47 353.68 377.48C343.23 375.22 333.02 372.52 323.09 369.4C317.75 367.82 312.4 366.65 306.92 365.44C301.44 364.23 295.28 363.82 290 362.3C285.81 361.04 282.22 359.11 278.09 357.8C272.76 356.43 267.19 355.53 261.51 355.11C237.97 352.46 214.15 356.14 190.33 354.12C185.47 353.54 180.67 352.73 175.98 351.69C171.2 351.12 166.51 350.25 161.98 349.09C156.43 347.47 151.49 345.18 145.87 343.65C140.51 342.18 135.02 340.93 129.43 339.92C118.8 337.99 109.47 334.35 99.04 331.97C88.62 329.58 78.74 329 68.66 326.53C62.94 325.05 56.96 324.05 50.86 323.56C46.87 323.37 42.9 323.04 38.96 322.57C33.32 321.57 28.03 319.85 23.39 317.5C23.39 318.04 22.44 318.49 21.84 317.99C19.06 315.75 15.07 314.17 12.63 311.7C10.58 308.53 10.36 304.96 12.02 301.68C14.33 296.95 15.87 292.07 16.62 287.12C16.96 281.37 16.62 275.62 16.62 269.87C15.95 246.82 17.17 223.77 16.62 200.71C16.62 189.8 13.92 179.01 13.92 168.05L13.92 83.03C13.92 77.78 14.59 72.47 13.92 67.26C13.58 63.89 12.09 60.7 11.35 57.33C10.81 54.9 10.87 52.48 10.67 50.01C10.33 43.21 9.11 36.44 7.02 29.79C4.65 22.64 -3.47 14.01 1.67 6.69C1.76 6.6 1.88 6.53 2.02 6.47C2.16 6.42 2.32 6.38 2.48 6.38C6.45 6.54 10.33 7.26 13.85 8.49C18.93 9.7 24.68 10.2 29.89 11.14C40.99 12.77 52.43 13.13 63.72 12.22C75.99 11.31 88.33 10.88 100.67 10.91C112.88 11.28 125.11 11.09 137.28 10.33C160.62 8.49 183.22 3.55 206.84 3.77C218.46 4.31 230.13 4.31 241.76 3.77C253.87 2.83 265.71 1.12 277.89 0.58C302.18 -0.5 326.34 2.29 350.7 1.93C375.06 1.57 400.17 -0.32 425.13 0.04C436.98 0.04 448.82 0.04 460.59 0.67C472.37 1.3 485.09 2.02 497.4 2.29C521.12 2.75 544.76 4.25 568.18 6.78C580.8 8.6 593.56 9.9 606.42 10.69C618.73 11.05 631.11 10.69 643.43 10.69C668.4 10.96 693.1 13.16 717.86 15.18C742.63 17.21 767.6 18.69 792.3 19.27C804.95 19.54 817.27 20.31 829.85 21.02C841.36 21.65 852.93 21.02 864.43 21.92C875.94 22.82 888.93 24.17 901.45 24.53C913.97 24.89 924.93 24.53 936.7 24.8C961.56 25.1 986.43 24.32 1011.14 22.46C1035.81 20.37 1060.68 19.43 1085.56 19.63C1097.82 19.76 1110.09 19.32 1122.25 18.33C1128.02 17.8 1133.81 17.5 1139.64 17.43C1143.56 17.12 1147.52 17.56 1151.07 18.69C1155.68 20.75 1154.53 24.84 1154.53 28.03C1154.82 30.92 1155.39 33.78 1156.22 36.62C1156.92 40.46 1157.28 44.33 1157.3 48.21C1157.3 64.12 1162.57 79.66 1162.57 95.61C1162.92 103.7 1163.12 111.79 1162.92 120.01Z" fill="#E13A4B" fill-opacity="1.000000" fill-rule="nonzero"/>
	<path id="Vector" d="M636.57 437.95C636.21 437.21 634.75 436.87 634.19 436.24C633.31 434.97 632.49 433.67 631.74 432.32C630.85 430.96 629.68 429.79 628.32 428.9C627.63 428.31 626.79 427.92 625.89 427.75C625.43 427.66 625 427.63 624.54 427.53C620.8 426.45 616.85 426.3 613.05 427.1C612.34 427.29 611.64 427.44 610.96 427.58C611.32 427.6 611.67 427.65 612.02 427.75C613.7 428.53 615.16 429.7 616.28 431.17C617.82 432.69 618.25 434.71 619.27 436.56C619.65 437.25 620.04 437.93 620.49 438.58C620.93 439.23 621.24 439.91 621.82 440.19C622.15 440.34 622.01 440.94 621.63 440.89C621.02 440.72 620.49 440.32 620.16 439.78C619.66 439.11 619.2 438.4 618.79 437.67C618.36 436.92 617.98 436.14 617.65 435.35C617.28 434.16 616.7 433.05 615.94 432.06C615.2 431.24 614.41 430.44 613.64 429.68C612.96 428.96 612.08 428.45 611.11 428.23C610.12 428.02 609.08 428.13 608.07 427.9L607.79 427.82C606.48 427.9 605.15 427.8 603.86 427.55C601.02 426.93 597.96 426.91 595.31 425.83C593.01 424.89 592.4 424.24 592.33 421.87C592.36 421.04 592.17 420.22 591.77 419.5C591.37 418.77 590.78 418.17 590.07 417.76C589.6 417.54 589.15 417.3 588.7 417.04C588.12 416.61 587.76 415.88 587.23 415.33C586.7 414.78 585.88 414.18 585.23 413.62C584.99 413.71 584.75 413.82 584.53 413.94C584.53 413.94 584.53 414.1 584.53 414.17C584.57 414.32 584.57 414.48 584.54 414.63C584.51 414.79 584.44 414.93 584.34 415.06C584.25 415.18 584.13 415.28 583.99 415.35C583.85 415.43 583.69 415.46 583.53 415.47L583.43 415.47C583.32 415.73 583.23 416.01 583.16 416.29C582.51 419.03 583.67 422.02 583.74 424.84C583.84 425.58 583.72 426.34 583.39 427.01C583.06 427.68 582.53 428.24 581.88 428.61C580.88 429.26 579.81 429.79 578.8 430.42C578.04 430.77 577.4 431.33 576.95 432.03C576.5 432.74 576.26 433.55 576.26 434.39C576.25 434.47 576.2 434.54 576.14 434.59C576.07 434.64 576 434.67 575.91 434.67C575.83 434.67 575.75 434.64 575.69 434.59C575.63 434.54 575.58 434.47 575.56 434.39C575.37 433.59 575.43 432.76 575.74 432C576.05 431.24 576.58 430.6 577.27 430.16C578.26 429.49 579.28 428.88 580.34 428.31C581.01 428 581.63 427.59 582.18 427.1C582.73 426.24 582.92 425.19 582.71 424.19C582.59 421.57 581.62 418.94 582.12 416.32C582.2 415.93 582.31 415.55 582.44 415.18C581.59 414.54 580.9 413.71 580.42 412.76C579.94 411.96 579.57 411.05 579.09 410.27C578.61 409.48 577.58 408.56 577.09 407.43C576.93 407.06 576.81 406.68 576.71 406.3C576.03 405.87 575.34 405.43 574.66 404.91C573.22 403.97 571.98 402.75 571.02 401.33C570.05 399.91 569.37 398.31 569.03 396.63C568.19 395.83 567.81 394.92 566.43 394.61C564.32 393.98 562.28 393.14 560.34 392.12C557.86 390.9 553.6 390.4 553.87 386.71C553.89 386.28 554.02 385.86 554.27 385.5C554.52 385.14 554.86 384.87 555.26 384.7C555.66 384.53 556.1 384.49 556.53 384.56C556.96 384.64 557.35 384.84 557.67 385.14C557.29 384.76 558.4 385.34 558.73 385.44C559.36 385.6 560.01 385.67 560.63 385.79C562.46 386.24 564.24 386.89 565.93 387.74C569.11 389.09 573.29 389.34 574.06 393.54C574.08 393.68 574.08 393.83 574.06 393.98C576.95 394.41 577.87 398.19 577.86 400.69C577.85 401.45 577.92 402.21 578.06 402.96C578.18 403.32 578.28 403.69 578.35 404.06C578.47 404.38 578.61 404.69 578.76 405L579.77 405.66C581.08 406.6 582.19 407.79 583.02 409.17C583.15 409.41 583.24 409.67 583.3 409.94C584.08 410.61 585 411.11 586 411.4C586.17 411.44 586.31 411.56 586.4 411.71C586.49 411.86 586.51 412.05 586.46 412.22C586.41 412.64 586.21 413.03 585.9 413.31C586.99 414.18 588.15 415.02 589.13 415.76C590.1 416.49 591.35 416.72 592.33 417.81C593.02 418.53 593.53 419.39 593.83 420.34C594.18 421.87 593.22 422.77 594.62 423.9C595.98 424.72 597.51 425.19 599.09 425.29C601.33 425.54 603.52 426.3 605.72 426.64C605.62 426.54 605.72 426.4 605.88 426.48C605.98 426.59 606.1 426.69 606.22 426.78C607.04 426.87 607.88 426.87 608.7 426.78C612.12 426.45 615.36 425.06 618.96 425.36C620.55 425.53 622.12 425.81 623.67 426.21C624.42 426.45 625.2 426.62 625.98 426.72C626.59 426.72 627.24 426.55 627.84 426.86C628.1 426.98 628.12 427.12 628.41 427.31C629.11 427.87 629.77 428.47 630.39 429.12C631.24 429.91 631.97 430.82 632.57 431.82C633.29 433.3 634.23 434.67 635.35 435.88C636.14 436.58 636.88 436.7 637.27 437.69C637.32 438.03 636.72 438.29 636.57 437.95ZM573.59 401.05C573.1 400.19 572.86 399.16 572.42 398.26C572.32 398.07 572.24 397.87 572.18 397.68C572.17 398.41 572.33 399.13 572.62 399.81C572.91 400.48 573.34 401.08 573.89 401.58C573.78 401.4 573.68 401.23 573.59 401.05Z" fill="#E13A4B" fill-opacity="1.000000" fill-rule="nonzero"/>
	<path id="Vector" d="M684.71 502.89C686.24 504.89 687.61 507.01 688.8 509.23C690.51 511.9 692.73 514.19 694.22 517C694.28 517.11 694.3 517.24 694.27 517.37C694.23 517.49 694.15 517.59 694.04 517.66C693.93 517.72 693.8 517.74 693.67 517.7C693.55 517.67 693.45 517.59 693.38 517.48C691.84 515.34 690.22 513.25 688.66 511.1C687.1 508.94 686.04 506.39 684.33 504.25C682.93 502.54 681.2 501.16 679.82 499.45C678.63 497.76 677.57 495.99 676.65 494.14C675.54 492.25 672.78 491.08 670.92 490C669.92 489.25 668.74 488.76 667.5 488.58C666.44 488.53 665.39 488.41 664.35 488.22C662.43 487.87 660.49 487.69 658.53 487.68C656.42 487.45 654.35 486.92 652.38 486.12C650.56 485.38 648.84 484.42 647.24 483.28C646.68 482.99 646.15 482.65 645.62 482.32C646.27 482.96 646.84 483.66 647.33 484.43C648.34 485.96 649.14 487.62 649.72 489.35C649.85 490.4 650.17 491.41 650.68 492.33C651.12 492.7 651.39 493.22 651.45 493.79C651.45 493.89 651.31 493.9 651.3 493.79C651.04 493.02 650.43 492.66 650.01 492.07C649.67 491.29 649.42 490.47 649.28 489.63C648.99 488.7 648.59 487.8 648.1 486.96C647.65 486.14 647.26 485.25 646.73 484.5C645.81 483.16 644.65 482 643.31 481.07C643.28 481.14 643.23 481.2 643.16 481.24C643.1 481.29 643.03 481.31 642.95 481.31C642.87 481.31 642.8 481.29 642.74 481.24C642.67 481.2 642.62 481.14 642.59 481.07C641.97 480.27 641.2 479.59 640.31 479.09C639.15 478.21 637.72 477.76 636.26 477.81L635.78 477.81C634.45 477.96 633.23 478.54 631.88 478.61C631.23 478.63 630.58 478.53 629.96 478.3C629.19 478.46 628.43 478.63 627.67 478.83C627.47 478.94 627.28 479 627.07 479.12L626.46 479.43C627.38 480.62 628.41 481.72 629.54 482.72C630.49 483.71 631.59 484.57 632.79 485.25C633.64 485.73 634.4 486.34 635.05 487.08C636.07 488.13 637.18 489.11 638.35 490C639.44 491.1 640.71 492.01 642.11 492.67C642.33 492.76 642.25 493.12 642.01 493.03C640.13 492.16 638.4 491.01 636.88 489.61C636.03 489 635.25 488.32 634.52 487.57C633.54 486.71 632.46 485.98 631.3 485.4C629.61 484.24 628.09 482.84 626.8 481.25C626.42 480.78 626.08 480.27 625.79 479.74C625.25 479.98 624.67 480.12 624.08 480.17C621.63 480.94 619.03 480.85 616.35 481.55C614.51 482.2 612.61 482.67 610.68 482.96C608.2 483.06 605.74 483.42 603.33 484.02C600.75 484.79 598.85 486.57 596.49 487.69L595.87 487.93C598.06 488.39 600.19 489.08 602.23 489.99C604.94 491.43 607.53 493.09 609.97 494.95C612.5 496.66 614.69 498.2 614.82 501.57C614.9 502.92 614.87 504.27 614.72 505.61C614.59 507.42 614.89 509.24 615.58 510.93C616.08 512.11 616.81 513.19 617.73 514.09C618.59 515.37 619.36 516.7 620.06 518.08C621.84 520.98 624.16 523.52 626.9 525.54C628.17 526.54 629.5 527.47 630.87 528.32C631.92 528.89 632.79 529.73 633.39 530.75C633.49 530.96 633.57 531.18 633.66 531.39C634.35 531.85 635.08 532.25 635.83 532.6C636.5 533.02 637.27 533.25 638.06 533.25C638.57 533.17 639.1 533.17 639.61 533.25C640.21 533.48 640.84 533.62 641.48 533.68C642.16 533.68 642.86 533.56 643.57 533.58C644.6 533.64 645.63 533.82 646.63 534.12C647.47 534.33 648.25 534.72 648.94 535.25C649.61 536.01 650.16 536.87 650.56 537.8C651.19 538.62 651.87 539.4 652.58 540.15C653.13 540.88 653.73 542.44 654.77 542.52C655.06 542.52 655.08 543 654.77 543C654.39 542.96 654.03 542.83 653.71 542.62C653.4 542.41 653.13 542.13 652.94 541.81C652.26 540.95 651.64 540.09 650.89 539.32C650.23 538.43 649.66 537.48 649.18 536.49C648.33 535.43 647.1 534.76 645.76 534.6C645.09 534.45 644.43 534.34 643.75 534.28C643 534.28 642.25 534.36 641.5 534.28C640.91 534.23 640.33 534.1 639.78 533.88C639.06 533.74 638.33 533.69 637.59 533.73C636.52 533.47 635.51 533.01 634.62 532.36C634.36 532.23 634.12 532.08 633.88 531.92C634.07 532.59 634.18 533.29 634.21 533.99C634.93 535.7 634.21 537.94 634.21 539.77C634.52 541.46 635.45 542.98 636.82 544.01C639.48 546.45 642.65 548.25 646.1 549.28C647.25 549.63 648.27 550.33 649.02 551.27C650.18 552.49 651.22 553.83 652.14 555.25C652.87 556.43 653.5 558.26 654.89 558.84C654.95 558.86 655 558.9 655.03 558.96C655.06 559.02 655.07 559.08 655.05 559.14C655.03 559.21 654.99 559.26 654.94 559.29C654.88 559.32 654.81 559.32 654.75 559.31C653.68 559.12 653.04 557.94 652.41 557.1C651.78 556.26 651.01 554.98 650.25 553.95C650.03 554.26 649.81 554.57 649.57 554.84C649.22 555.21 648.84 555.56 648.44 555.87C647.6 556.51 646.88 557.29 646.3 558.18C645.84 559.05 645.61 560.03 645.64 561.02C645.67 562.01 645.96 562.98 646.47 563.82C646.47 563.93 646.39 564.05 646.3 563.96C645.7 563.18 645.32 562.25 645.21 561.27C645.11 560.29 645.28 559.3 645.7 558.42C646.21 557.45 646.91 556.61 647.77 555.94C648.58 555.22 649.4 554.57 650.17 553.83C649.93 553.47 649.66 553.12 649.38 552.79C648.45 551.38 647.06 550.34 645.45 549.85C643.85 549.38 642.33 548.7 640.91 547.83C638.03 546.43 635.62 544.24 633.95 541.51C633.9 542.27 633.71 543 633.4 543.69C632.62 545.01 631.75 546.27 630.8 547.47C630.09 548.42 629.62 549.53 629.42 550.7C629.43 551.23 629.37 551.75 629.25 552.26C628.77 553.59 627.53 554.16 627.24 555.68C627.16 556.86 626.87 558.02 626.37 559.1C624.93 562.54 624.34 566.28 624.66 570C624.66 573.11 626.37 576.11 625.88 579.22C625.88 579.42 625.5 579.37 625.52 579.22C625.74 576.33 624.17 573.66 623.81 570.82C623.42 567.9 623.42 564.93 623.81 562.01C624.06 560.76 624.48 559.56 625.07 558.43C625.49 557.66 625.72 556.81 625.76 555.94C625.72 555.4 625.77 554.86 625.91 554.34C626.37 553.15 627.62 552.55 627.95 551.21C628.04 550.09 628.31 548.99 628.75 547.95C630.1 545.4 632.36 543.7 632.43 540.66C632.43 537.97 633.09 534.91 632.43 532.31C631.92 530.5 630.39 529.81 629.01 528.89C627.62 527.96 626.58 527.18 625.41 526.2C622.94 524.32 620.77 522.06 618.98 519.51C618.18 518.32 617.6 516.98 616.78 515.78C616.21 515.06 615.56 514.4 614.84 513.82C614.84 514.01 614.84 514.19 614.94 514.38C615.23 517.03 615.19 519.7 614.81 522.34C614.02 527.74 609.15 530.89 604.54 533.15C602.83 533.95 602.37 534.11 601.87 536.04C601.44 537.3 601.19 538.61 601.14 539.94C601.31 541.34 601.34 542.76 601.24 544.17C601.24 544.35 601.14 544.54 601.1 544.73C601.45 547.6 603.96 549.09 605.93 551.04C606.94 551.9 607.77 552.95 608.38 554.14C608.73 554.99 608.97 555.89 609.09 556.81L609.61 559.99C609.61 560.01 609.62 560.03 609.61 560.05C609.61 560.07 609.61 560.09 609.59 560.1C609.58 560.12 609.57 560.13 609.55 560.14C609.53 560.15 609.52 560.15 609.5 560.15C609.48 560.15 609.46 560.15 609.44 560.14C609.42 560.13 609.41 560.12 609.4 560.1C609.39 560.09 609.38 560.07 609.38 560.05C609.37 560.03 609.38 560.01 609.38 559.99C608.77 558.04 609.03 555.83 608.14 553.95C607.34 552.6 606.31 551.41 605.09 550.43C603.38 548.8 601.52 547.4 601.14 545.04C600.73 546.15 600.41 547.29 600.2 548.46C599.91 551.04 600.63 553.81 599.48 556.24C598.87 557.42 598.19 558.57 597.44 559.67C596.52 561.32 595.86 563.11 595.49 564.97C595.49 565.12 595.24 565.05 595.25 564.97C595.69 562.33 596.7 559.81 598.23 557.61C600.2 554.41 599.14 551.32 599.74 547.84C599.98 546.39 600.75 545.14 600.85 543.67C600.95 542.2 600.61 540.85 600.64 539.43C600.78 538.31 600.99 537.21 601.28 536.13C601.32 535.38 601.51 534.65 601.84 533.99C602.27 533.41 602.87 532.96 603.55 532.72C604.87 532.05 606.15 531.29 607.38 530.46C610.07 528.75 612.86 526.67 613.4 523.33C614.16 518.88 613.28 514.49 613.05 510.05C613.05 509.81 612.91 509.58 612.82 509.35C612.19 507.64 611.11 506.31 610.5 504.65C609.49 502.05 607.08 501.23 604.87 499.69C602.37 497.7 599.55 496.14 596.54 495.07C594.98 494.61 593.39 494.26 591.82 493.9C590.24 493.55 588.63 492.84 586.99 492.52C585.56 492.36 584.14 492.05 582.77 491.61C581.31 490.91 579.9 490.11 578.56 489.2C577.45 488.6 576.31 488.08 575.14 487.63L575.6 488.02C576.57 488.88 577.68 489.29 578.69 490.06C580.76 491.95 582.37 494.29 583.4 496.9C584.37 498.9 584.99 500.18 583.89 502.32C583.35 503.42 582.53 504.36 582 505.45C581.12 507.16 581.81 508.34 582.25 510.05C582.4 511.28 582.4 512.51 582.25 513.73C582.28 514.61 582.24 515.49 582.13 516.37C582.43 516.98 582.79 517.55 583.23 518.08C584.22 519.03 585.1 520.08 585.86 521.23C586.4 522.37 586.83 523.56 587.14 524.78C587.35 526.12 587.86 527.4 588.63 528.51C588.65 528.54 588.66 528.58 588.65 528.62C588.65 528.65 588.64 528.69 588.61 528.71C588.59 528.74 588.55 528.76 588.52 528.77C588.48 528.77 588.44 528.77 588.41 528.75C587.57 527.79 587.05 526.6 586.9 525.33C586.58 523.86 586.07 522.43 585.38 521.09C584.92 520.42 584.39 519.81 583.79 519.26C583.28 518.72 582.8 518.15 582.37 517.55L581.98 516.86C581.94 517.04 581.89 517.21 581.82 517.38C580.9 519.74 578.51 521.74 576.69 523.45C576.54 523.6 576.3 523.36 576.45 523.19C578.44 520.93 580.97 518.62 581.43 515.6C581.25 514.94 581.21 514.25 581.31 513.58C581.31 513.44 581.57 513.48 581.55 513.58C581.54 513.74 581.54 513.9 581.55 514.06C581.78 512.81 581.84 511.54 581.72 510.28C581.41 509.18 580.82 508.57 580.83 507.44C580.83 505.52 582.22 504.02 583.11 502.44C584.32 500.29 583.69 499.02 582.51 497.12C581.65 495.81 580.66 494.6 579.53 493.51C577.82 491.8 575.75 490.55 573.89 488.91C571.55 487.25 569.08 485.81 566.48 484.6C564.61 483.27 563.09 481.51 562.05 479.47L561.84 479.12L560.87 478.44C557.77 476.12 555 473.39 552.64 470.33C551.99 469.48 551.38 468.59 550.83 467.68C550.83 468.36 550.83 469.05 550.83 469.75C551.07 472.17 551.07 474.61 550.83 477.04C550.79 477.45 550.65 477.85 550.41 478.19C550.18 478.53 549.85 478.8 549.47 478.97C550.05 480.81 550.37 482.71 550.43 484.63C550.48 485.32 550.35 486.01 550.05 486.63C549.75 487.25 549.29 487.78 548.72 488.17C547.78 488.67 546.8 489.1 545.8 489.47C544.53 490.09 543.32 490.86 542.07 491.51C541.43 491.85 540.8 492.16 540.15 492.47L540.27 492.47C538.46 493.08 537.26 494.83 535.77 495.97C534.28 497.12 534.86 499.89 535.26 501.62C535.94 504.58 535.66 507.67 534.47 510.46C533.97 511.36 533.6 512.32 533.38 513.32C533.29 514.36 533.29 515.4 533.38 516.44C533.48 518.51 533.38 520.83 534.68 522.59C535.58 523.79 539.11 524.65 539.02 526.44C539.02 526.55 538.85 526.58 538.83 526.44C538.63 525.13 536.15 524.3 535.19 523.59C534.19 522.78 533.5 521.65 533.26 520.39C532.85 518.41 532.69 516.4 532.79 514.38C533.04 512.47 533.46 510.58 534.04 508.74C534.47 506.67 534.51 504.54 534.15 502.46C533.54 500.61 533.18 498.7 533.07 496.76C533.07 496.55 533.11 496.34 533.19 496.15C532.93 496.3 532.69 496.47 532.42 496.61C531.45 497.01 530.52 497.51 529.65 498.1C527.94 499.48 527.23 502.44 526.69 504.51C526.11 507.5 525.9 510.55 526.07 513.59C526.07 514.98 525.97 516.4 526.07 517.79C526.19 518.99 526.41 520.19 526.7 521.36C526.78 522.39 526.78 523.42 526.7 524.44C526.88 525.7 527.14 526.94 527.49 528.15C527.59 529.43 527.56 530.7 527.39 531.97C527.33 533.6 527.55 535.23 528.04 536.79C528.31 537.42 528.42 538.11 528.37 538.79C528.31 539.47 528.08 540.12 527.7 540.69C526.28 542.32 523.88 542.56 522.07 543.5C519.64 544.59 517.34 545.95 515.23 547.55C514.27 549.63 514.08 551.97 514.68 554.17C514.92 557.14 514.83 560.12 514.4 563.07C514.41 563.09 514.41 563.11 514.41 563.13C514.41 563.16 514.4 563.18 514.39 563.2C514.38 563.21 514.36 563.23 514.34 563.24C514.32 563.25 514.3 563.25 514.28 563.25C514.25 563.25 514.23 563.25 514.21 563.24C514.19 563.23 514.18 563.21 514.16 563.2C514.15 563.18 514.14 563.16 514.14 563.13C514.14 563.11 514.14 563.09 514.15 563.07C514.15 561.36 514.46 559.65 514.58 557.94C514.62 556.34 514.51 554.75 514.23 553.18C513.91 551.4 514.1 549.56 514.78 547.88C511.02 551.13 504.91 553.13 504.52 558.78C504.64 560.83 504.17 562.88 503.15 564.68C501.93 566.74 500.56 568.69 499.02 570.53C498.7 570.85 498.22 570.36 498.53 570.03C500.03 568.25 501.37 566.34 502.55 564.32C503.97 562.28 503.58 560.08 503.93 557.77C504.17 556.06 505.03 554.5 506.35 553.39C507.71 552.15 509.16 551.01 510.67 549.96C511.75 549.44 512.78 548.82 513.74 548.1C514.37 547.49 515.04 546.92 515.74 546.39C517.63 545.21 519.59 544.15 521.61 543.19C523.32 542.28 526.6 541.91 527.39 539.77C527.83 538.57 527.01 537.07 526.7 535.92C526.39 534.81 526.27 533.65 526.34 532.5C526.46 531.36 526.51 530.22 526.48 529.08C526.38 527.79 525.78 526.68 525.59 525.43C525.4 524.18 525.73 523 525.59 521.77C525.42 520.81 525.04 519.91 524.93 518.93C524.74 516.38 524.7 513.81 524.81 511.25C524.67 508.77 524.75 506.28 525.03 503.81C525.03 503.28 525.2 502.75 525.3 502.2C524.72 502.9 524.23 503.67 523.85 504.49C523.3 505.8 522.86 507.15 522.55 508.53C522.26 509.64 521.74 510.62 521.4 511.71C520.24 515.48 521.32 520.35 517.89 523.24C514.47 526.14 509.07 526.05 505 527.93C503.8 528.34 502.77 529.12 502.07 530.17C501.85 530.78 501.5 531.33 501.06 531.8C499.78 532.91 497.38 533.7 496.66 535.41C496.66 535.58 496.32 535.53 496.39 535.41C496.73 534.33 498 533.49 498.82 532.81C499.55 532.35 500.25 531.83 500.91 531.27C501.47 530.65 501.59 529.83 502.12 529.2C503.72 527.76 505.7 526.82 507.82 526.48C510.29 525.95 512.7 525.14 515 524.08C516.28 523.61 517.41 522.8 518.27 521.74C518.84 520.79 519.29 519.77 519.6 518.71C520.31 516.49 519.95 514.01 520.63 511.75C520.96 510.69 521.5 509.69 521.81 508.63C522.1 507.47 522.46 506.33 522.89 505.21C523.23 504.25 523.69 503.34 524.28 502.51C524.6 502.14 524.96 501.81 525.35 501.5C525.56 500.27 525.94 499.07 526.46 497.94C527.43 496.34 528.82 495.04 530.47 494.16C532.36 492.82 534.37 491.64 536.46 490.64C538.71 489.56 540.56 487.83 542.72 486.57C543.58 486.07 544.47 485.63 545.39 485.23C546.45 484.75 546.45 485.01 546.67 484.07C546.86 482.02 546.71 479.96 546.24 477.96C546.19 477.68 546.19 477.39 546.24 477.11C546.07 475.22 546.24 473.29 545.95 471.41C545.66 469.53 545.3 467.99 545.16 466.28C545.14 464.8 544.78 463.34 544.12 462.02C543.31 460.98 542.94 459.68 543.08 458.37C543.1 458.19 543.17 458.01 543.28 457.86C543.28 457.43 543.13 456.99 543.04 456.54C542.44 455.64 541.78 454.78 541.06 453.98C539.53 452.11 538.19 450.1 537.05 447.97C536.46 446.83 535.67 445.8 535.05 444.69C534.44 443.57 534.21 442.55 533.56 441.57L533.17 441.27C531.81 440.28 530.57 439.13 529.49 437.84C528.72 437.31 527.97 436.77 527.25 436.24C525.25 434.64 523.34 432.93 521.54 431.1C517.81 427.46 513.99 423.97 510.16 420.45C509.07 420.36 507.97 420.05 506.86 420.02C505.35 420.03 503.87 419.6 502.6 418.79C501.46 417.89 500.23 417.13 498.92 416.49C497.35 415.84 496.63 414.54 495.24 413.74C492.72 412.3 490.07 411.11 487.32 410.16C484.27 409.35 481.55 407.59 479.54 405.15C478.63 403.75 477.9 402.25 477.37 400.67C476.68 399.08 475.66 397.61 475.01 396C474.36 394.39 473.55 392.58 472.94 390.87C472.59 389.91 472.61 388.8 472.29 387.87C472.05 387.24 471.53 386.71 471.22 386.16C470.53 384.45 469.72 382.8 468.8 381.2C467.8 379.7 466.81 378.19 465.89 376.65C464.03 373.55 462.45 370.29 461.15 366.92C460.94 366.67 460.79 366.38 460.72 366.06L460.62 365.56C460.55 365.27 460.54 364.97 460.6 364.68C460.65 364.38 460.76 364.1 460.93 363.85C460.82 363.31 460.92 362.75 461.2 362.27C461.48 361.8 461.92 361.44 462.45 361.27C465.87 359.97 469.21 363.65 472.32 364.5C474.77 365.15 477.32 365.46 479.74 366.21C481.68 366.78 484.28 368.64 483.73 371.04L483.73 371.4C484.08 371.82 484.39 372.28 484.65 372.77C485.3 373.95 485.78 375.21 486.37 376.45C486.95 377.68 487.43 378.87 488.08 380.09C488.54 381.36 489.11 382.59 489.79 383.77C490.51 384.63 491.08 385.61 491.5 386.66C491.76 387.7 492.19 388.7 492.78 389.6C493.36 390.26 493.83 391 494.2 391.79C494.39 392.3 494.2 393.01 494.42 393.5C494.69 394.06 495.03 394.58 495.43 395.04C496.6 397.01 497.66 399.04 498.6 401.13C498.93 401.88 499.39 402.57 499.95 403.17C500.86 403.99 502.04 404.5 502.91 405.39C503.2 405.66 503.92 406.28 503.68 406.26C504.12 406.43 504.54 406.63 504.94 406.88C506.02 407.58 507 408.42 508.07 409.12C510.35 410.53 512.49 412.14 514.49 413.93L514.71 414.13C515.67 414.1 516.62 414.14 517.57 414.25C521.78 415.43 524.53 418.82 527.27 421.93C528.71 423.64 530.69 424.33 532.21 425.9C533.54 427.39 534.75 428.97 535.84 430.64C536.58 431.82 537.2 433.07 537.69 434.37C538.32 435 538.94 435.64 539.59 436.25C541.18 437.78 544.29 440.14 544.82 442.63C545.4 442.81 545.9 443.18 546.24 443.68C547.95 446.41 548.19 449.68 548.52 452.92C549.59 455.67 550.9 458.33 552.43 460.85C554.12 463.55 556.04 466.1 558.18 468.45C560.64 470.85 563.37 472.94 566.33 474.69C569.34 476.69 572.47 478.53 575.58 480.34C577.29 481.31 579 482.13 580.82 482.99C581.33 483.08 581.86 483.12 582.39 483.09C583.92 482.88 585.47 482.82 587.01 482.92C588.37 483.14 589.76 483.1 591.11 482.82C592.63 482.34 594.18 481.98 595.75 481.72C596.96 481.59 598.16 481.42 599.38 481.35C599.95 481.32 600.52 481.25 601.09 481.14C601.9 480.39 602.68 479.62 603.45 478.83C605.16 477.12 607.84 476.32 609.83 474.95C610.75 474.3 610.99 473.15 611.88 472.45C612.51 472.03 613.25 471.78 614 471.72C615.93 471.43 617.9 471.7 619.68 472.49C620.57 472.97 621.35 473.63 621.98 474.42C622.24 474.75 622.49 475.09 622.71 475.45C623.16 476.03 623.7 476.54 624.32 476.95C624.7 476.73 625.11 476.55 625.53 476.42C625.96 476.06 626.45 475.81 626.99 475.67C628.7 475.27 630.41 476.22 632.12 476.49C632.92 476.35 633.71 476.13 634.53 475.96C635.34 475.77 636.19 475.75 637.01 475.88C637.83 476.02 638.62 476.32 639.32 476.76C641.36 478.03 643.05 479.79 645.05 481.11C645.93 481.67 646.85 482.1 647.77 482.6C648.7 483.09 649.76 484.07 650.84 484.65C652.07 485.15 653.34 485.56 654.63 485.88C655.88 486.4 657.2 486.69 658.55 486.74C660.38 486.74 662.21 486.96 664.01 487.13C665.19 487.25 666.3 487.52 667.52 487.56C668.19 487.54 668.87 487.64 669.52 487.85C671.57 488.79 673.52 489.93 675.33 491.27C675.76 491.54 676.15 491.86 676.51 492.21C676.52 492.19 676.54 492.17 676.56 492.16C676.58 492.14 676.6 492.14 676.63 492.14C676.65 492.14 676.67 492.14 676.69 492.16C676.71 492.17 676.73 492.19 676.74 492.21C677.13 492.91 677.69 493.49 678.36 493.92C678.99 494.22 679.67 494.38 680.36 494.38C681.71 494.36 683.06 494.46 684.38 494.69C686.05 494.95 687.63 495.63 688.97 496.66C689.49 497.17 690.06 497.62 690.68 498.01C690.89 498.11 691.07 498.27 691.18 498.47C691.3 498.67 691.36 498.91 691.35 499.14C691.35 499.18 691.33 499.21 691.31 499.24C691.28 499.26 691.25 499.28 691.21 499.28C691.17 499.28 691.14 499.26 691.11 499.24C691.09 499.21 691.07 499.18 691.07 499.14C691.07 498.47 689.99 498.25 689.53 497.87C688.95 497.29 688.3 496.77 687.62 496.32C686.01 495.53 684.27 495.07 682.48 494.97C680.92 495.04 679.37 494.75 677.93 494.13C678.33 494.85 678.7 495.62 679.22 496.45C680.83 498.78 682.67 500.93 684.71 502.89ZM487.63 407.17C487.89 407.52 488.25 407.78 488.67 407.89C489.11 408.05 489.56 408.16 490.03 408.21C490.32 408.21 490.62 408.21 490.92 408.32C491.22 408.39 491.52 408.49 491.81 408.62C492.33 408.84 492.83 409.12 493.28 409.46C493.55 409.67 493.85 409.83 494.17 409.94C494.46 410.03 494.75 410.03 495.04 410.11C495.11 410.13 495.18 410.13 495.25 410.12C495.32 410.11 495.38 410.08 495.44 410.03C495.5 409.99 495.54 409.93 495.57 409.87C495.6 409.81 495.62 409.74 495.62 409.67C495.62 408.97 494.99 408.44 494.49 408.06C493.88 407.6 493.19 407.24 492.46 407C492.06 406.88 491.67 406.72 491.31 406.52C491.04 406.3 490.75 406.09 490.45 405.9C490.09 405.76 489.69 405.72 489.3 405.77C488.91 405.83 488.54 405.98 488.23 406.21C488.11 406.2 488 406.22 487.89 406.28C487.79 406.33 487.7 406.41 487.64 406.51C487.57 406.61 487.54 406.72 487.54 406.84C487.54 406.95 487.57 407.07 487.63 407.17ZM494.17 404.06L493.79 403.68C493.61 403.59 493.43 403.51 493.24 403.44C492.87 403.25 492.78 402.81 492.4 402.59C492.08 402.4 491.74 402.23 491.39 402.09C490.95 402.01 490.49 402.01 490.04 402.09C489.55 402.03 489.07 401.89 488.62 401.68C487.74 401.48 486.83 401.44 485.94 401.56L485.71 401.56C485.69 401.56 485.67 401.57 485.65 401.58C485.64 401.6 485.63 401.62 485.63 401.64C485.63 401.67 485.64 401.69 485.65 401.7C485.67 401.72 485.69 401.73 485.71 401.73L485.92 401.73C486.87 401.67 487.81 401.8 488.71 402.11C489.05 402.29 489.41 402.43 489.79 402.52C490.24 402.48 490.7 402.48 491.16 402.52C491.35 402.6 491.54 402.69 491.72 402.81C491.87 402.81 492.04 402.93 492.2 403.01C492.35 403.1 492.59 403.61 492.95 403.78C493.16 403.85 493.36 403.94 493.55 404.04C493.72 404.15 493.87 404.29 494 404.45C494.34 404.79 494.71 405.1 495.09 405.41C495.09 405.41 495.28 405.41 495.21 405.31C494.85 404.84 494.47 404.45 494.13 404.06L494.17 404.06ZM497.42 408.73C497.18 408.04 496.74 407.44 496.15 407.02C495.45 406.36 494.67 405.78 493.84 405.31C492.9 404.84 491.91 404.47 490.93 404.06C490.1 403.7 489.22 403.45 488.33 403.29C487.67 403.19 486.98 403.33 486.42 403.7C485.9 404.02 485.22 404.79 484.57 404.72C484.57 404.72 484.47 404.86 484.57 404.88C485.44 405.12 486.28 404.04 487.07 403.8C487.93 403.65 488.81 403.78 489.6 404.16C490.37 404.38 491.12 404.66 491.86 405C493.42 405.72 494.88 406.66 496.18 407.79C496.75 408.25 497.21 408.64 497.14 409.5C497.13 409.75 497.09 410 497.02 410.25C496.95 410.53 496.83 410.8 496.66 411.04C496.74 411.01 496.81 410.97 496.87 410.92C497.02 410.71 497.13 410.47 497.19 410.22C497.38 409.74 497.45 409.23 497.38 408.73L497.42 408.73ZM564.61 481.14C565.94 482.44 567.5 483.47 569.22 484.17C567.73 483.25 566.17 482.2 564.61 481.14ZM622.49 476.4C621.8 475.24 620.9 474.21 619.82 473.39C618.62 472.77 617.28 472.44 615.92 472.45C615.07 472.28 614.2 472.37 613.41 472.72C612.62 473.07 611.96 473.66 611.52 474.4C611.21 474.94 610.76 475.37 610.21 475.65C609.26 476.16 608.5 476.83 607.47 477.36C606.02 477.95 604.68 478.76 603.5 479.77L602.23 480.94C602.76 480.78 603.28 480.58 603.77 480.34C605.95 479.26 609.01 480.34 611.35 480.34C613.06 480.45 614.78 480.41 616.48 480.22C616.99 480.1 617.51 480.01 618.02 479.94C619.16 479.69 620.27 479.32 621.33 478.83C622.14 478.39 622.94 477.91 623.7 477.38C623.26 477.11 622.85 476.78 622.49 476.4Z" fill="#E13A4B" fill-opacity="1.000000" fill-rule="nonzero"/>
	<path id="Vector" d="M698.05 495.5C697.95 495.75 697.84 496 697.71 496.25L697.71 496.37L697.71 496.45C697.69 496.54 697.66 496.62 697.62 496.69C697.55 496.98 697.46 497.26 697.35 497.53C697.28 497.74 697.2 497.94 697.09 498.13C697.09 498.13 696.7 498.59 696.72 498.61L696.6 498.78L696.24 499.24C696.05 499.45 695.84 499.63 695.61 499.79C695.46 499.85 695.3 499.85 695.16 499.79C695.1 499.86 695.02 499.91 694.93 499.94C694.84 499.97 694.75 499.98 694.65 499.96C694.56 499.94 694.47 499.9 694.4 499.84C694.33 499.77 694.28 499.69 694.25 499.6C694.06 499.1 693.92 498.58 693.84 498.04C693.71 497.48 693.71 496.9 693.84 496.33C694.14 495.59 694.58 494.9 695.13 494.32C695.36 493.95 695.7 493.66 696.1 493.48C696.5 493.31 696.94 493.25 697.37 493.32C697.57 493.41 697.75 493.53 697.89 493.69C698.04 493.85 698.15 494.04 698.22 494.25C698.28 494.46 698.3 494.68 698.27 494.89C698.24 495.11 698.17 495.31 698.05 495.5Z" fill="#FFFFFF" fill-opacity="1.000000" fill-rule="nonzero"/>
	<path id="Vector" d="M697.61 496.37L697.61 496.47C697.62 496.44 697.62 496.4 697.61 496.37Z" fill="#FFFFFF" fill-opacity="1.000000" fill-rule="nonzero"/>
	<path id="Vector" d="M700.5 521.46C699.92 522.42 698.69 521.81 697.98 521.46C697.39 521.08 696.82 520.67 696.27 520.23C695.49 519.76 694.84 519.09 694.37 518.3C694.17 518.15 693.96 518.01 693.78 517.84C693.6 517.66 693.5 517.42 693.5 517.16C693.5 516.91 693.6 516.67 693.78 516.49C693.96 516.31 694.2 516.21 694.45 516.21C694.7 516.21 694.95 516.31 695.13 516.49L695.32 516.66L695.42 516.66C695.54 516.76 695.67 516.84 695.81 516.91C696.12 517.12 696.44 517.29 696.79 517.48C697.46 517.83 698.09 518.23 698.69 518.69C699.11 519.03 699.52 519.43 699.95 519.79C700.38 520.15 700.89 520.88 700.5 521.46Z" fill="#FFFFFF" fill-opacity="1.000000" fill-rule="nonzero"/>
	<path id="Vector" d="M692.36 523.72C692.33 524.2 692.2 524.66 691.97 525.07C691.74 525.49 691.42 525.84 691.04 526.12C690.83 526.26 690.61 526.38 690.39 526.49C690.34 526.68 690.28 526.86 690.22 527.04C690.22 527.2 690.11 527.33 690.06 527.47C689.99 527.61 689.89 527.74 689.79 527.86C689.74 527.93 689.68 527.99 689.61 528.04C689.54 528.08 689.46 528.11 689.38 528.12C689.29 528.13 689.21 528.12 689.13 528.1C689.05 528.07 688.98 528.02 688.92 527.96C688.76 527.83 688.63 527.65 688.56 527.46C688.49 527.26 688.48 527.04 688.52 526.84C688.53 526.71 688.53 526.57 688.52 526.44L688.52 526.24C688.42 526.02 688.37 525.78 688.39 525.55C688.41 525.31 688.5 525.08 688.64 524.89C688.68 524.56 688.73 524.23 688.8 523.91C688.94 523.3 689.18 522.73 689.52 522.2C689.82 521.69 690.15 521.16 690.49 520.64C690.59 520.48 690.74 520.34 690.92 520.26C691.09 520.17 691.29 520.14 691.48 520.16C691.68 520.19 691.86 520.27 692 520.4C692.15 520.53 692.25 520.7 692.3 520.88C692.45 521.82 692.47 522.78 692.36 523.72Z" fill="#FFFFFF" fill-opacity="1.000000" fill-rule="nonzero"/>
	<path id="Vector" d="M698.29 507.51C698.18 507.67 698.02 507.81 697.83 507.9C697.42 508.14 696.95 508.27 696.47 508.29C696 508.31 695.52 508.21 695.09 508L694.61 507.83C694.52 507.87 694.42 507.9 694.32 507.92C694.2 507.93 694.07 507.93 693.95 507.92L693.84 507.92L693.54 507.92L692.75 507.92C691.77 507.92 690.78 507.57 690.47 506.53C690.39 506.22 690.44 505.89 690.59 505.62C690.75 505.34 691.01 505.13 691.31 505.04C692.24 504.82 693.2 504.79 694.13 504.96C694.68 504.96 695.21 504.96 695.74 505.06C696.41 505.09 697.07 505.25 697.68 505.54C697.85 505.62 698.01 505.74 698.13 505.88C698.26 506.03 698.36 506.2 698.41 506.39C698.47 506.57 698.49 506.77 698.47 506.96C698.45 507.15 698.39 507.34 698.29 507.51Z" fill="#FFFFFF" fill-opacity="1.000000" fill-rule="nonzero"/>
	<path id="Vector" d="M688.06 510.81C687.58 511.7 687.16 512.62 686.66 513.51C686.41 513.94 686.12 514.34 685.79 514.71C685.64 514.92 685.45 515.09 685.23 515.22C685.01 515.35 684.76 515.42 684.5 515.44C684.2 515.43 683.92 515.31 683.71 515.1C683.49 514.89 683.36 514.61 683.34 514.31C683.3 513.84 683.4 513.36 683.63 512.94C683.83 512.58 684.07 512.23 684.35 511.92L684.88 511.39C684.88 511.23 685.09 511.1 685.19 510.94C685.04 510.96 684.89 510.93 684.76 510.86C684.59 510.76 684.45 510.62 684.34 510.46C684.23 510.3 684.15 510.11 684.13 509.92C683.99 509.19 683.99 508.45 684.13 507.73C684.21 507.27 684.31 506.81 684.43 506.36C684.48 505.59 684.78 504.86 685.27 504.27C685.36 504.19 685.46 504.12 685.58 504.09C685.69 504.06 685.81 504.06 685.93 504.09C686.05 504.12 686.15 504.18 686.24 504.26C686.32 504.34 686.39 504.45 686.42 504.56C686.6 505.49 686.6 506.44 686.42 507.37C686.45 508.18 686.34 509 686.11 509.78C686.34 509.62 686.59 509.49 686.85 509.39C687.03 509.33 687.23 509.34 687.41 509.4C687.6 509.46 687.76 509.58 687.87 509.73C688.01 509.87 688.1 510.05 688.13 510.24C688.16 510.43 688.14 510.63 688.06 510.81Z" fill="#FFFFFF" fill-opacity="1.000000" fill-rule="nonzero"/>
	<path id="Vector" d="M655.28 498.81C655.34 498.88 655.39 498.96 655.42 499.05C655.45 499.14 655.46 499.23 655.45 499.32C655.43 499.41 655.4 499.5 655.35 499.58C655.31 499.66 655.24 499.72 655.16 499.77C655.01 499.87 654.83 499.93 654.65 499.96C654.46 499.98 654.28 499.96 654.1 499.91C653.76 499.77 653.45 499.54 653.23 499.24C653.1 499.09 652.97 498.93 652.85 498.76L652.7 498.56C652.5 498.28 652.28 498.02 652.03 497.79C651.42 497.17 650.89 496.46 650.46 495.7C650.3 495.45 650.21 495.16 650.18 494.86C650.16 494.56 650.21 494.27 650.32 493.99C650.52 493.71 650.8 493.5 651.12 493.39C651.44 493.28 651.8 493.28 652.12 493.39C652.75 493.59 653.32 493.93 653.81 494.38C654.29 494.83 654.67 495.38 654.92 495.99C655.16 496.53 655.3 497.11 655.34 497.7C655.37 498.02 655.35 498.33 655.28 498.64L655.28 498.81Z" fill="#FFFFFF" fill-opacity="1.000000" fill-rule="nonzero"/>
	<path id="Vector" d="M661.08 481.42L660.81 481.52L660.66 481.64C660.4 481.84 660.18 482.08 659.9 482.27C659.46 482.56 658.96 482.73 658.43 482.77C658.17 482.92 657.89 483.06 657.61 483.18C657.28 483.31 656.92 483.35 656.57 483.28C656.22 483.21 655.9 483.04 655.64 482.78C655.51 482.65 655.43 482.46 655.42 482.27C655.41 482.22 655.41 482.17 655.42 482.12C655.32 482 655.26 481.85 655.27 481.69C655.27 481.04 655.9 480.87 656.46 480.83C656.97 480.59 657.51 480.39 658.06 480.25L658.6 480.1C658.93 480.1 659.25 480.1 659.53 479.94C659.8 479.79 660.08 479.66 660.36 479.55C660.79 479.46 661.24 479.49 661.65 479.65C661.78 479.69 661.89 479.77 661.98 479.88C662.06 479.99 662.12 480.12 662.13 480.25C662.13 480.9 661.63 481.25 661.08 481.42Z" fill="#FFFFFF" fill-opacity="1.000000" fill-rule="nonzero"/>
	<path id="Vector" d="M680.57 456.71C680.31 457.34 679.94 457.92 679.49 458.42C679.33 458.77 679.21 459.13 679.11 459.5C679.03 459.78 678.91 460.05 678.81 460.34C678.7 460.63 678.43 461.76 677.85 462.05C677.72 462.11 677.57 462.13 677.43 462.13C677.29 462.13 677.14 462.11 677.01 462.05C676.94 462.08 676.86 462.09 676.79 462.08C676.71 462.07 676.64 462.05 676.58 462C676.51 461.96 676.46 461.91 676.42 461.84C676.38 461.77 676.36 461.7 676.36 461.62C676.32 460.79 676.32 459.95 676.36 459.11C676.36 458.65 676.36 458.17 676.36 457.71C676.38 456.73 676.65 455.77 677.13 454.92C677.39 454.48 677.82 454.15 678.31 454.01C678.62 453.94 678.95 453.96 679.25 454.06C679.55 454.17 679.82 454.36 680.02 454.61C680.27 454.89 680.45 455.23 680.54 455.6C680.64 455.96 680.65 456.34 680.57 456.71Z" fill="#FFFFFF" fill-opacity="1.000000" fill-rule="nonzero"/>
	<path id="Vector" d="M683.05 478.35C682.84 478.57 682.6 478.75 682.33 478.88L681.94 478.97L681.8 479.07C681.42 479.3 680.99 479.44 680.55 479.48L680.36 479.48C679.62 480.01 678.75 480.33 677.85 480.41C677.67 480.4 677.5 480.32 677.37 480.19C677.24 480.06 677.17 479.89 677.16 479.71C677.19 479.35 677.31 479 677.51 478.7C677.54 478.62 677.58 478.56 677.63 478.49C677.95 478.09 678.36 477.76 678.82 477.53C679.13 477.37 679.44 477.23 679.76 477.11C680.11 476.92 680.47 476.76 680.84 476.63C681.19 476.51 681.55 476.45 681.92 476.45L682.16 476.45C682.24 476.45 682.33 476.47 682.4 476.51C682.48 476.54 682.55 476.6 682.6 476.66C682.72 476.71 682.82 476.79 682.9 476.89C682.98 476.99 683.04 477.1 683.07 477.22C683.12 477.4 683.12 477.59 683.07 477.77C683.12 477.86 683.15 477.96 683.15 478.07C683.15 478.17 683.11 478.27 683.05 478.35Z" fill="#FFFFFF" fill-opacity="1.000000" fill-rule="nonzero"/>
	<path id="Vector" d="M632.68 507.85C631.97 508.29 631.2 507.66 630.75 507.13C630.11 506.33 629.58 505.45 629.18 504.51L628.29 503.45C627.89 502.92 627.38 502.15 627.78 501.48C628.17 500.82 628.94 501.02 629.49 501.24C629.96 501.43 630.39 501.71 630.75 502.06C631.11 502.42 631.42 502.83 631.68 503.26C631.78 503.45 631.88 503.65 631.97 503.84C631.97 503.84 631.97 504.03 632.09 504.13C632.36 504.7 632.67 505.26 632.91 505.85C633.15 506.43 633.35 507.44 632.68 507.85Z" fill="#FFFFFF" fill-opacity="1.000000" fill-rule="nonzero"/>
	<path id="Vector" d="M647.07 460.41C646.86 460.92 646.48 461.35 646.01 461.63C645.53 461.9 644.97 462.02 644.42 461.95C643.86 461.95 643.33 461.79 642.71 461.73L641.72 461.73C641.29 461.82 640.86 461.83 640.43 461.75C640 461.67 639.6 461.5 639.24 461.26C639.1 461.12 639.02 460.93 639.02 460.73C639.02 460.53 639.1 460.34 639.24 460.2C639.48 459.97 639.77 459.8 640.09 459.69C640.41 459.58 640.75 459.55 641.08 459.59C641.7 459.59 642.3 459.71 642.92 459.71L643.31 459.71L643.75 459.59C644.1 459.48 644.45 459.39 644.81 459.33C645.19 459.22 645.58 459.21 645.96 459.29C646.34 459.38 646.7 459.56 646.99 459.83C647.05 459.91 647.1 460 647.11 460.1C647.13 460.21 647.11 460.31 647.07 460.41Z" fill="#FFFFFF" fill-opacity="1.000000" fill-rule="nonzero"/>
	<path id="Vector" d="M644.51 427.68C643.82 428.5 642.8 429.84 641.65 429.65L641.56 429.65C641.49 429.7 641.4 429.74 641.3 429.74C641.21 429.75 641.12 429.74 641.03 429.7C640.94 429.66 640.87 429.6 640.81 429.53C640.76 429.45 640.72 429.37 640.71 429.27C640.69 428.9 640.73 428.53 640.84 428.18C640.82 428.05 640.82 427.93 640.84 427.8C640.98 427.37 641.22 426.98 641.55 426.67L641.63 426.57C641.66 426.34 641.71 426.11 641.77 425.89C642.08 424.98 642.58 424.15 643.22 423.44C643.77 422.84 645.17 421.97 645.79 422.99C645.86 423.14 645.9 423.31 645.89 423.47C646 423.5 646.11 423.56 646.19 423.65C646.27 423.73 646.33 423.84 646.35 423.95C646.32 424.67 646.14 425.37 645.82 426.01C645.51 426.66 645.06 427.22 644.51 427.68Z" fill="#FFFFFF" fill-opacity="1.000000" fill-rule="nonzero"/>
	<path id="Vector" d="M650.49 443.9C650.06 444.14 649.57 444.27 649.07 444.27C648.58 444.27 648.09 444.14 647.65 443.9L646.39 443.47C645.79 443.23 645.17 443.02 644.54 442.86C644.36 442.8 644.2 442.68 644.1 442.52C643.99 442.36 643.95 442.17 643.97 441.98C644 441.79 644.09 441.62 644.23 441.49C644.37 441.36 644.55 441.29 644.75 441.28C645.34 441.28 645.94 441.28 646.46 441.28L646.75 441.28C647.23 441.26 647.71 441.32 648.17 441.47C649.02 441.62 649.8 442.03 650.41 442.65C650.58 442.81 650.69 443.02 650.71 443.26C650.72 443.49 650.65 443.72 650.49 443.9Z" fill="#FFFFFF" fill-opacity="1.000000" fill-rule="nonzero"/>
	<path id="Vector" d="M606.73 449.85C605.95 450.09 605.4 449.39 605.3 448.69C605.17 447.91 605.17 447.11 605.3 446.33C605.32 446.16 605.38 445.99 605.45 445.83C605.45 445.66 605.45 445.49 605.59 445.32C605.65 444.94 605.75 444.58 605.89 444.22C605.95 444.13 606.04 444.05 606.15 444C606.15 444 606.15 443.92 606.15 443.87C606.15 443.47 606.77 443.39 606.84 443.76C606.84 443.84 606.84 443.92 606.84 444C606.92 444.03 607 444.08 607.06 444.15C607.12 444.22 607.16 444.31 607.18 444.4C607.24 444.65 607.24 444.91 607.18 445.17C607.36 446.02 607.45 446.88 607.45 447.75C607.49 448.52 607.67 449.58 606.73 449.85Z" fill="#FFFFFF" fill-opacity="1.000000" fill-rule="nonzero"/>
	<path id="Vector" d="M557.41 503.43C557.52 503.61 557.58 503.81 557.57 504.02C557.57 504.82 556.61 504.84 556.03 504.68C555.27 504.46 554.55 504.1 553.92 503.62L553.17 503.28C552.88 503.17 552.62 503 552.41 502.78C552.19 502.56 552.03 502.3 551.92 502.01C551.87 501.85 551.87 501.68 551.89 501.51C551.92 501.34 551.99 501.19 552.09 501.05C552.19 500.91 552.31 500.8 552.46 500.71C552.61 500.63 552.78 500.59 552.95 500.58C553.3 500.57 553.65 500.66 553.96 500.83C554.29 500.98 554.62 501.16 554.93 501.35C555.53 501.69 556.11 502.09 556.64 502.53C556.79 502.64 556.93 502.78 557.05 502.92C557.13 502.97 557.2 503.03 557.26 503.09C557.34 503.19 557.39 503.31 557.41 503.43Z" fill="#FFFFFF" fill-opacity="1.000000" fill-rule="nonzero"/>
	<path id="Vector" d="M581.52 533.06C581.49 533.53 581.41 533.99 581.28 534.43C581.27 534.52 581.27 534.6 581.28 534.69C581.18 535.1 581.04 535.49 580.85 535.87C580.68 536.18 580.58 536.54 580.58 536.9C580.58 536.97 580.57 537.04 580.54 537.11C580.51 537.18 580.47 537.24 580.42 537.29C580.37 537.35 580.31 537.39 580.24 537.42C580.17 537.45 580.1 537.46 580.03 537.46C579.88 537.46 579.74 537.39 579.63 537.29C579.53 537.18 579.47 537.04 579.46 536.9C579.46 536.62 579.49 536.34 579.57 536.07C579.55 535.98 579.55 535.89 579.57 535.8C579.56 535.68 579.56 535.56 579.57 535.44C579.57 534.93 579.57 534.4 579.57 533.88C579.57 533.4 579.65 532.92 579.81 532.46C580.03 531.9 580.52 531.37 581.17 531.69C581.82 532.02 581.52 532.62 581.52 533.06Z" fill="#FFFFFF" fill-opacity="1.000000" fill-rule="nonzero"/>
	<path id="Vector" d="M597.34 526.56C597.04 526.68 596.71 526.73 596.38 526.7C595.66 526.58 594.98 526.28 594.4 525.84C593.91 525.61 593.46 525.29 593.08 524.9C592.82 524.63 592.66 524.27 592.64 523.89C592.61 523.66 592.65 523.43 592.77 523.23C592.89 523.03 593.07 522.88 593.29 522.8C593.86 522.74 594.44 522.88 594.91 523.21L595.03 523.21C595.44 523.34 595.83 523.53 596.19 523.77C596.52 523.98 596.9 524.12 597.24 524.3C597.58 524.49 598.3 525.04 598.13 525.71C598.08 525.91 597.99 526.09 597.85 526.24C597.71 526.39 597.53 526.5 597.34 526.56Z" fill="#FFFFFF" fill-opacity="1.000000" fill-rule="nonzero"/>
	<path id="Vector" d="M601.46 518.39C601.46 518.78 601.36 519.17 601.29 519.58C601.2 520.3 600.95 520.99 600.56 521.6C600.51 521.67 600.44 521.73 600.36 521.78C600.28 521.82 600.2 521.85 600.11 521.86C600.08 521.95 600.01 522.02 599.92 522.07C599.84 522.11 599.74 522.13 599.65 522.11C599.55 522.1 599.46 522.05 599.4 521.98C599.34 521.91 599.3 521.82 599.29 521.72C599.21 520.98 599.21 520.22 599.29 519.48C599.42 518.7 599.81 517.99 600.39 517.44C600.44 517.33 600.53 517.24 600.64 517.17C600.73 517.1 600.84 517.07 600.95 517.07C601.06 517.07 601.17 517.1 601.26 517.17C601.63 517.46 601.52 517.99 601.46 518.39Z" fill="#FFFFFF" fill-opacity="1.000000" fill-rule="nonzero"/>
	<path id="Vector" d="M672.39 543.34C672.36 543.47 672.3 543.58 672.21 543.67C672.12 543.76 672 543.83 671.88 543.86C671.41 543.93 670.93 543.93 670.46 543.86C669.81 543.81 669.16 543.7 668.52 543.55C667.96 543.43 667.41 543.21 666.92 542.9C666.62 542.74 666.39 542.48 666.27 542.17C666.16 541.85 666.15 541.51 666.27 541.19C666.47 540.69 667.16 540.61 667.64 540.57C668.07 540.52 668.52 540.52 668.95 540.57C669.49 540.65 670.01 540.8 670.49 541.03C671.02 541.23 671.49 541.54 671.88 541.94C672.11 542.08 672.29 542.3 672.38 542.55C672.47 542.81 672.48 543.09 672.39 543.34Z" fill="#FFFFFF" fill-opacity="1.000000" fill-rule="nonzero"/>
	<path id="Vector" d="M656.87 491.65C656.73 491.78 656.58 491.89 656.41 491.99C656.42 492.05 656.42 492.11 656.41 492.18C656.41 492.32 656.38 492.46 656.32 492.59C656.26 492.72 656.18 492.83 656.07 492.93C655.58 493.3 654.98 493.51 654.36 493.51C653.79 493.55 653.22 493.55 652.65 493.51C652.56 493.51 652.48 493.47 652.41 493.41C652.35 493.34 652.31 493.26 652.31 493.17C651.67 493.07 651.11 492.78 651.04 492.02C651.04 491.93 651.06 491.85 651.1 491.77C651.14 491.69 651.2 491.62 651.28 491.58C651.67 491.37 652.11 491.29 652.55 491.34C653.04 490.95 653.63 490.7 654.26 490.64C655.02 490.46 655.81 490.46 656.57 490.64C656.68 490.64 656.79 490.69 656.88 490.76C656.97 490.83 657.04 490.93 657.07 491.04C657.1 491.14 657.1 491.26 657.07 491.37C657.03 491.48 656.97 491.58 656.87 491.65Z" fill="#FFFFFF" fill-opacity="1.000000" fill-rule="nonzero"/>
	<path id="Vector" d="M659.2 547.91C658.91 548.01 658.59 548.02 658.29 547.95C657.99 547.88 657.71 547.73 657.49 547.52C657.17 547.21 656.89 546.85 656.57 546.53C656.24 546.2 655.69 545.52 655.27 545C654.84 544.49 654.22 544.08 654.41 543.29C654.43 543.17 654.48 543.05 654.54 542.94C654.61 542.83 654.7 542.74 654.8 542.67C654.91 542.59 655.02 542.54 655.15 542.52C655.27 542.49 655.4 542.49 655.52 542.51C655.67 542.55 655.8 542.61 655.93 542.68C656.23 542.84 656.51 543.03 656.77 543.24C657.38 543.74 657.92 544.32 658.38 544.95C658.62 545.26 658.79 545.61 658.89 545.98C658.94 546.18 658.94 546.39 658.89 546.59L659 546.68C659.13 546.69 659.26 546.75 659.36 546.84C659.47 546.94 659.53 547.06 659.55 547.2C659.57 547.34 659.54 547.48 659.46 547.59C659.39 547.71 659.28 547.8 659.15 547.84L659.2 547.91Z" fill="#FFFFFF" fill-opacity="1.000000" fill-rule="nonzero"/>
	<path id="Vector" d="M610.58 563.75C610.51 564.04 610.38 564.31 610.21 564.54L610.02 564.76C610 565.06 610 565.36 610.02 565.65C610.01 565.82 609.94 565.99 609.82 566.11C609.7 566.23 609.54 566.3 609.37 566.3C609.19 566.3 609.03 566.23 608.91 566.11C608.78 565.99 608.71 565.83 608.7 565.65C608.65 564.97 608.7 564.29 608.84 563.62C608.83 563.55 608.83 563.49 608.84 563.43C608.96 563.11 609.06 562.78 609.11 562.44C609.15 562.23 609.22 562.03 609.33 561.86C609.4 561.74 609.51 561.64 609.63 561.58C609.76 561.52 609.89 561.5 610.03 561.51C610.17 561.53 610.3 561.59 610.4 561.68C610.51 561.77 610.58 561.89 610.62 562.03C610.74 562.6 610.73 563.19 610.58 563.75Z" fill="#FFFFFF" fill-opacity="1.000000" fill-rule="nonzero"/>
	<path id="Vector" d="M635.11 582.71C635.03 582.85 634.89 582.95 634.72 583C634.56 583.04 634.39 583.03 634.24 582.95C634.03 583.03 633.79 583.03 633.57 582.95C633.2 582.78 632.84 582.59 632.5 582.37C632.15 582.21 631.86 581.97 631.62 581.67C631.39 581.38 631.23 581.03 631.16 580.66C631.15 580.61 631.16 580.56 631.17 580.52C631.19 580.47 631.21 580.43 631.25 580.4C631.26 580.31 631.29 580.22 631.34 580.15C631.39 580.07 631.46 580.01 631.53 579.96C631.61 579.91 631.7 579.88 631.78 579.87C631.87 579.85 631.96 579.86 632.05 579.89C632.72 580.03 633.35 580.3 633.92 580.67C634.09 580.85 634.26 581.04 634.41 581.24C634.52 581.38 634.61 581.54 634.69 581.7C634.77 581.72 634.84 581.77 634.89 581.84C634.96 581.88 635.03 581.94 635.08 582C635.13 582.07 635.16 582.15 635.19 582.23C635.21 582.31 635.21 582.39 635.2 582.47C635.19 582.56 635.16 582.64 635.11 582.71Z" fill="#FFFFFF" fill-opacity="1.000000" fill-rule="nonzero"/>
	<path id="Vector" d="M627.4 587.6C627.36 587.71 627.3 587.81 627.2 587.88C627.11 587.95 627 587.99 626.89 588C626.7 587.98 626.51 587.92 626.34 587.83C626.18 587.74 626.03 587.62 625.91 587.46C625.66 587.21 625.48 586.89 625.38 586.54C625.33 586.2 625.33 585.84 625.38 585.5C625.29 585.26 625.23 585 625.21 584.75C624.99 583.93 624.92 583.07 625.02 582.23C625.07 582.08 625.17 581.95 625.31 581.87C625.45 581.79 625.62 581.77 625.77 581.8C626.23 582.05 626.63 582.39 626.92 582.82C627.22 583.24 627.41 583.73 627.48 584.25C627.71 585.38 627.71 586.54 627.48 587.67L627.4 587.6Z" fill="#FFFFFF" fill-opacity="1.000000" fill-rule="nonzero"/>
	<path id="Vector" d="M651.86 567.33C651.9 567.45 651.9 567.57 651.86 567.69C651.75 567.86 651.57 567.99 651.37 568.05C650.98 568.13 650.59 568.13 650.2 568.05C649.72 567.99 649.24 567.87 648.78 567.71C648.44 567.59 647.96 567.45 647.77 567.11C647.72 567.04 647.7 566.96 647.7 566.88C647.7 566.8 647.72 566.73 647.77 566.66C647.75 566.57 647.75 566.48 647.78 566.39C647.81 566.31 647.86 566.23 647.93 566.17C648.15 565.96 648.43 565.84 648.73 565.82C649.03 565.77 649.34 565.77 649.64 565.82C649.96 565.78 650.28 565.78 650.6 565.82C651.18 565.93 652 566.27 651.96 566.99C651.97 567.11 651.93 567.23 651.86 567.33Z" fill="#FFFFFF" fill-opacity="1.000000" fill-rule="nonzero"/>
	<path id="Vector" d="M643.87 564.27L643.74 564.66C643.6 564.97 643.39 565.24 643.24 565.53C642.93 566.21 642.46 566.79 641.87 567.24C641.8 567.29 641.71 567.31 641.62 567.32C641.54 567.32 641.45 567.31 641.37 567.27C641.29 567.24 641.22 567.19 641.16 567.13C641.1 567.06 641.06 566.99 641.03 566.9C640.93 566.5 640.92 566.08 641.01 565.67C641.09 565.27 641.27 564.88 641.53 564.56C641.8 564.17 642.13 563.83 642.52 563.57C642.66 563.31 642.87 563.09 643.12 562.93C643.19 562.89 643.26 562.87 643.34 562.86C643.42 562.85 643.5 562.86 643.57 562.88C643.65 562.91 643.71 562.95 643.77 563C643.83 563.05 643.88 563.12 643.91 563.19C644.02 563.25 644.12 563.34 644.16 563.46C644.21 563.53 644.23 563.61 644.24 563.69C644.25 563.78 644.24 563.86 644.21 563.94C644.18 564.01 644.14 564.08 644.08 564.14C644.02 564.2 643.95 564.24 643.87 564.27Z" fill="#FFFFFF" fill-opacity="1.000000" fill-rule="nonzero"/>
	<path id="Vector" d="M658.71 559.27C658.66 559.71 658.56 560.14 658.4 560.56C658.21 560.98 657.83 561.6 657.27 561.44C656.7 561.29 656.65 560.57 656.65 560.08C656.69 559.46 656.77 558.84 656.89 558.23C656.94 557.95 657 557.67 657.08 557.39C657.13 557.17 657.21 556.95 657.32 556.76C657.38 556.67 657.46 556.59 657.55 556.54C657.64 556.48 657.75 556.46 657.86 556.46C657.97 556.46 658.07 556.48 658.17 556.54C658.26 556.59 658.34 556.67 658.4 556.76C658.4 556.76 658.4 556.76 658.5 556.76C658.61 556.86 658.68 556.99 658.72 557.13C658.73 557.25 658.73 557.36 658.72 557.48L658.72 558.07C658.75 558.47 658.74 558.87 658.71 559.27Z" fill="#FFFFFF" fill-opacity="1.000000" fill-rule="nonzero"/>
	<path id="Vector" d="M673.47 556.21C673.08 556.48 672.61 556.61 672.13 556.57C671.73 556.83 671.27 556.99 670.78 557.03C670.43 557.05 670.07 556.99 669.74 556.86C669.4 556.75 669.11 556.52 668.94 556.21C668.86 556.19 668.79 556.16 668.72 556.12C668.66 556.08 668.6 556.02 668.56 555.95C668.49 555.84 668.44 555.72 668.42 555.59C668.4 555.46 668.4 555.33 668.43 555.21C668.46 555.08 668.52 554.96 668.6 554.86C668.67 554.75 668.77 554.67 668.88 554.6C669.24 554.43 669.64 554.37 670.03 554.43C670.26 554.45 670.49 554.45 670.71 554.43L671.59 554.43C671.92 554.4 672.26 554.4 672.6 554.43C672.94 554.43 673.27 554.51 673.57 554.67C673.7 554.74 673.8 554.85 673.88 554.97C673.95 555.1 674 555.24 674 555.39C673.99 555.56 673.94 555.73 673.85 555.87C673.75 556.02 673.62 556.13 673.47 556.21Z" fill="#FFFFFF" fill-opacity="1.000000" fill-rule="nonzero"/>
	<path id="Vector" d="M555.19 538.71C555.01 538.86 554.8 538.97 554.57 539.04C554.34 539.1 554.1 539.11 553.87 539.07C553.47 539 553.07 538.91 552.67 538.79L551.65 538.61C551.22 538.53 550.8 538.38 550.42 538.18C550.3 538.1 550.19 538.01 550.09 537.9L549.88 537.9C549.61 538.04 549.2 537.8 549.32 537.46C549.39 537.28 549.5 537.12 549.64 536.99C549.78 536.87 549.96 536.77 550.14 536.72C550.71 536.16 551.7 536.28 552.43 536.33C553.16 536.32 553.89 536.41 554.59 536.6C554.79 536.64 554.99 536.73 555.15 536.86C555.31 536.99 555.44 537.16 555.51 537.36C555.54 537.48 555.54 537.61 555.51 537.73C555.56 537.91 555.55 538.1 555.5 538.27C555.44 538.44 555.33 538.59 555.19 538.71Z" fill="#FFFFFF" fill-opacity="1.000000" fill-rule="nonzero"/>
	<path id="Vector" d="M538.75 561.05C538.72 561.14 538.67 561.23 538.6 561.3C538.53 561.37 538.45 561.43 538.36 561.46C538.27 561.5 538.17 561.52 538.07 561.51C537.97 561.5 537.88 561.48 537.79 561.43C537.31 561.43 536.85 560.91 536.58 560.52C536.41 560.28 536.27 560.03 536.16 559.77C536.05 559.53 535.99 559.28 535.99 559.02C535.97 558.85 535.97 558.68 535.99 558.52C535.89 558.25 535.77 557.99 535.69 557.71C535.66 557.64 535.66 557.57 535.67 557.49C535.68 557.42 535.7 557.35 535.74 557.28C535.77 557.22 535.82 557.16 535.88 557.11C535.94 557.07 536.01 557.03 536.08 557.01C536.23 556.98 536.38 557.01 536.51 557.08C536.64 557.16 536.74 557.28 536.78 557.42C536.87 557.37 536.99 557.36 537.09 557.38C537.19 557.41 537.28 557.47 537.34 557.56C537.34 557.56 537.45 557.68 537.48 557.75C537.49 557.79 537.49 557.83 537.48 557.87C537.54 557.99 537.61 558.11 537.69 558.21L537.88 558.47C537.96 558.58 538.03 558.7 538.1 558.83C538.36 559.13 538.56 559.48 538.67 559.87C538.78 560.25 538.81 560.65 538.75 561.05Z" fill="#FFFFFF" fill-opacity="1.000000" fill-rule="nonzero"/>
	<path id="Vector" d="M537.45 557.61L537.43 557.61L537.45 557.61Z" fill="#FFFFFF" fill-opacity="1.000000" fill-rule="nonzero"/>
	<path id="Vector" d="" fill="#FFFFFF" fill-opacity="1.000000" fill-rule="nonzero"/>
	<path id="Vector" d="M540 554.7C539.76 554.82 539.51 554.89 539.24 554.93C538.97 555.17 538.65 555.36 538.3 555.49C538.07 555.6 537.81 555.65 537.55 555.65L537.14 555.65C537.02 555.6 536.91 555.53 536.83 555.43C536.74 555.33 536.69 555.21 536.66 555.08C536.58 554.72 536.64 554.35 536.83 554.03C537.01 553.72 537.3 553.48 537.65 553.37C538.31 553.07 539.04 552.99 539.74 553.13C539.89 553.15 540.04 553.2 540.17 553.28C540.31 553.36 540.42 553.47 540.51 553.59C540.77 553.99 540.41 554.5 540 554.7Z" fill="#FFFFFF" fill-opacity="1.000000" fill-rule="nonzero"/>
	<path id="Vector" d="M517.55 565.36C517.52 565.49 517.46 565.61 517.36 565.7C517.27 565.8 517.15 565.86 517.02 565.89C516.7 565.95 516.36 565.88 516.08 565.7C515.67 565.38 515.28 565.03 514.92 564.66C514.32 564.2 513.83 563.62 513.48 562.95C513.43 562.87 513.41 562.77 513.41 562.67C513.41 562.58 513.44 562.48 513.48 562.4C513.53 562.31 513.6 562.24 513.68 562.19C513.77 562.14 513.86 562.11 513.96 562.11C514.19 562.12 514.42 562.19 514.61 562.32L514.9 562.54L514.99 562.63L515.26 562.81C515.3 562.79 515.34 562.78 515.39 562.78C515.43 562.78 515.48 562.79 515.52 562.81C515.73 562.88 515.95 562.96 516.15 563.05C516.39 563.18 516.61 563.36 516.8 563.57C517.23 563.93 517.51 564.44 517.59 565C517.59 565.12 517.58 565.24 517.55 565.36Z" fill="#FFFFFF" fill-opacity="1.000000" fill-rule="nonzero"/>
	<path id="Vector" d="M502.67 536.14C502.63 536.27 502.54 536.38 502.42 536.45C502.31 536.52 502.17 536.53 502.04 536.5C501.45 536.4 501.18 535.73 501.03 535.22C500.95 535.08 500.89 534.94 500.84 534.79C500.74 534.48 500.68 534.16 500.67 533.83C500.57 533.36 500.57 532.87 500.67 532.4L500.67 532.31C500.62 532.1 500.62 531.89 500.67 531.68C500.7 531.56 500.77 531.45 500.88 531.38C500.98 531.31 501.11 531.28 501.23 531.3C501.36 531.32 501.47 531.38 501.55 531.47C501.63 531.57 501.68 531.69 501.68 531.81C501.92 531.97 502.09 532.22 502.16 532.5C502.32 532.95 502.44 533.42 502.51 533.9C502.75 534.63 502.8 535.39 502.67 536.14Z" fill="#FFFFFF" fill-opacity="1.000000" fill-rule="nonzero"/>
	<path id="Vector" d="M504.94 532.86C504.46 532.95 503.96 532.85 503.54 532.58C503.44 532.56 503.35 532.53 503.25 532.5C502.81 532.29 502.43 532 502.12 531.63L501.98 531.63C501.94 531.62 501.89 531.61 501.85 531.58C501.81 531.55 501.78 531.51 501.77 531.46C501.75 531.41 501.75 531.36 501.77 531.32C501.78 531.27 501.81 531.23 501.85 531.2C501.8 531.06 501.8 530.91 501.85 530.77C501.88 530.66 501.95 530.56 502.04 530.49C502.13 530.42 502.24 530.38 502.36 530.38C502.97 530.4 503.57 530.61 504.07 530.96C504.26 531.07 504.44 531.19 504.6 531.34C504.78 531.45 504.95 531.58 505.1 531.73C505.19 531.8 505.26 531.89 505.32 532C505.37 532.1 505.4 532.21 505.41 532.33C505.39 532.45 505.34 532.57 505.26 532.67C505.18 532.76 505.07 532.83 504.94 532.86Z" fill="#FFFFFF" fill-opacity="1.000000" fill-rule="nonzero"/>
	<path id="Vector" d="M552.09 521.16C551.84 521.32 551.56 521.43 551.27 521.48C550.97 521.53 550.67 521.52 550.38 521.45C550.05 521.44 549.73 521.4 549.4 521.33L549.3 521.33C549.11 521.32 548.92 521.29 548.74 521.24C548.67 521.21 548.61 521.17 548.55 521.12C548.5 521.07 548.46 521 548.43 520.93L548.19 520.83C548.13 520.82 548.07 520.77 548.03 520.72C548 520.66 547.99 520.59 548 520.52C547.75 520.32 547.59 520.04 547.54 519.72C547.55 519.58 547.6 519.46 547.7 519.36C547.79 519.27 547.92 519.21 548.05 519.21C548.09 519.11 548.14 519.03 548.21 518.97C548.28 518.9 548.37 518.85 548.46 518.83C548.78 518.75 549.1 518.72 549.42 518.73C549.76 518.69 550.1 518.69 550.43 518.73C550.69 518.78 550.94 518.9 551.15 519.05C551.43 519.25 551.66 519.51 551.82 519.82C551.88 519.96 551.92 520.11 551.92 520.27C552 520.3 552.07 520.36 552.13 520.43C552.19 520.5 552.22 520.58 552.24 520.67C552.26 520.75 552.25 520.84 552.23 520.93C552.2 521.02 552.15 521.09 552.09 521.16Z" fill="#FFFFFF" fill-opacity="1.000000" fill-rule="nonzero"/>
	<path id="Vector" d="M563.02 523.35C562.87 523.75 562.61 524.11 562.29 524.39L562.1 524.53C562.1 524.61 561.93 524.68 561.84 524.77C561.67 524.97 561.5 525.14 561.31 525.33L561.07 525.74L560.85 526C560.85 526.04 560.85 526.08 560.85 526.12C560.85 526.22 560.85 526.34 560.71 526.37L560.54 526.37C560.43 526.5 560.29 526.59 560.13 526.64C559.97 526.69 559.8 526.7 559.64 526.67C559.53 526.64 559.44 526.57 559.38 526.49C559.31 526.4 559.28 526.29 559.28 526.19C559.21 526.22 559.13 526.23 559.06 526.22C558.98 526.2 558.91 526.16 558.87 526.1C558.81 526.04 558.78 525.96 558.78 525.88C558.78 525.8 558.81 525.72 558.87 525.66C558.87 525.66 558.87 525.5 558.87 525.4C558.89 525.25 558.95 525.11 559.04 524.99C559.21 524.75 559.43 524.54 559.62 524.32C559.81 524.1 559.62 524.32 559.62 524.24C559.69 524.06 559.78 523.9 559.89 523.76C560.14 523.5 560.43 523.29 560.77 523.16L560.87 523.07C560.92 523.04 560.97 523.03 561.03 523.03C561.09 523.03 561.14 523.04 561.19 523.07C561.31 522.83 561.42 522.59 561.55 522.35C561.63 522.23 561.75 522.14 561.9 522.1C562.04 522.06 562.19 522.08 562.32 522.15C562.39 522.19 562.44 522.25 562.49 522.31C562.53 522.38 562.56 522.45 562.58 522.53C562.67 522.54 562.75 522.58 562.82 522.63C562.9 522.68 562.96 522.75 563 522.83C563.04 522.91 563.06 523 563.07 523.09C563.07 523.17 563.06 523.26 563.02 523.35Z" fill="#FFFFFF" fill-opacity="1.000000" fill-rule="nonzero"/>
	<path id="Vector" d="M537.45 497.72C537.75 498.07 537.96 498.5 538.06 498.95C538.1 499.11 538.1 499.27 538.06 499.43C538.02 499.59 537.95 499.74 537.84 499.86C537.76 499.95 537.65 500.03 537.53 500.07C537.41 500.11 537.28 500.12 537.16 500.1C536.95 500.02 536.75 499.9 536.58 499.76L536.4 499.62C536.24 499.54 536.09 499.45 535.94 499.34C535.57 499.02 535.28 498.61 534.93 498.25C534.61 497.95 534.37 497.57 534.23 497.16C534.17 496.93 534.17 496.68 534.23 496.45C534.2 496.33 534.21 496.2 534.26 496.08C534.31 495.97 534.4 495.87 534.51 495.8C534.69 495.74 534.89 495.74 535.07 495.8L535.28 495.89C535.65 496.04 535.99 496.26 536.28 496.54C536.42 496.68 536.54 496.85 536.68 496.98L536.95 497.29C537.12 497.43 537.29 497.57 537.45 497.72Z" fill="#FFFFFF" fill-opacity="1.000000" fill-rule="nonzero"/>
	<path id="Vector" d="M630.1 525.62C630.1 525.62 630.1 525.72 630.1 525.79C630.05 525.9 629.99 526.01 629.91 526.1C629.73 526.33 629.5 526.52 629.23 526.63C628.94 526.73 628.63 526.78 628.34 526.89C627.62 527.14 626.83 527.62 626.05 527.32C625.96 527.28 625.87 527.24 625.8 527.17C625.73 527.11 625.67 527.03 625.64 526.94C625.59 526.86 625.57 526.77 625.57 526.67C625.57 526.58 625.59 526.49 625.64 526.41C625.6 526.26 625.6 526.11 625.64 525.96C625.81 525.54 626.13 525.19 626.54 524.99C627.01 524.71 627.54 524.56 628.08 524.53C628.62 524.5 629.16 524.6 629.66 524.82C629.82 524.87 629.96 524.98 630.05 525.13C630.13 525.28 630.15 525.46 630.1 525.62Z" fill="#FFFFFF" fill-opacity="1.000000" fill-rule="nonzero"/>
	<path id="Vector" d="M632.5 561.63C632.42 561.7 632.31 561.74 632.21 561.74C632.21 561.74 632.21 561.74 632.12 561.82C631.52 562.04 630.97 561.55 630.58 561.17C630.12 560.73 629.72 560.22 629.4 559.67C629.14 559.22 628.82 558.57 629.14 558.07C629.26 557.91 629.42 557.8 629.61 557.74C629.8 557.68 630 557.68 630.19 557.75C630.57 557.89 630.91 558.14 631.16 558.47C631.42 558.77 631.65 559.09 631.85 559.44C631.98 559.68 632.09 559.92 632.21 560.18C632.29 560.34 632.37 560.52 632.43 560.69C632.47 560.83 632.52 560.96 632.58 561.09C632.62 561.17 632.64 561.27 632.62 561.37C632.61 561.47 632.56 561.56 632.5 561.63Z" fill="#FFFFFF" fill-opacity="1.000000" fill-rule="nonzero"/>
	<path id="Vector" d="M679.23 498.35C679.16 498.59 679.02 498.81 678.84 498.99C678.66 499.16 678.43 499.29 678.19 499.36C677.82 499.51 677.44 499.6 677.04 499.65C676.7 499.77 676.33 499.81 675.97 499.77C675.76 499.8 675.56 499.8 675.35 499.77C675.3 499.78 675.24 499.77 675.2 499.75C675.15 499.73 675.1 499.7 675.06 499.66C675.02 499.63 674.99 499.58 674.97 499.53C674.95 499.49 674.94 499.43 674.94 499.38C674.89 499.32 674.85 499.25 674.83 499.17C674.81 499.09 674.81 499.01 674.83 498.93C674.85 498.85 674.89 498.78 674.94 498.72C674.99 498.66 675.05 498.61 675.13 498.58C675.14 498.53 675.14 498.48 675.13 498.44C675.17 498.29 675.26 498.17 675.39 498.08C675.63 497.87 675.9 497.69 676.19 497.55C676.67 497.3 677.2 497.17 677.75 497.19C677.98 497.2 678.21 497.3 678.38 497.46L678.6 497.46C679.08 497.43 679.23 497.96 679.23 498.35Z" fill="#FFFFFF" fill-opacity="1.000000" fill-rule="nonzero"/>
	<path id="Vector" d="M607.81 424.98C607.59 425.34 607.32 425.67 607.02 425.97C606.61 426.44 606.14 426.85 605.62 427.2C605.32 427.4 604.99 427.56 604.65 427.66L604.54 427.75C604.49 427.81 604.42 427.85 604.34 427.88C604.27 427.9 604.18 427.91 604.11 427.89C604.03 427.88 603.95 427.85 603.89 427.8C603.82 427.75 603.77 427.69 603.74 427.61C603.63 427.56 603.54 427.48 603.46 427.39C602.83 426.67 603.46 425.92 604.05 425.42C604.33 425.1 604.67 424.83 605.06 424.64C605.75 424.07 606.55 423.66 607.42 423.44C607.51 423.44 607.61 423.46 607.69 423.51C607.78 423.56 607.85 423.63 607.9 423.71C608 423.91 608.05 424.13 608.03 424.36C608.02 424.58 607.94 424.8 607.81 424.98Z" fill="#FFFFFF" fill-opacity="1.000000" fill-rule="nonzero"/>
	<path id="Vector" d="M591.15 438.94C591.17 439.03 591.17 439.12 591.14 439.21C591.12 439.3 591.07 439.38 591.01 439.45C590.95 439.52 590.86 439.57 590.77 439.59C590.68 439.62 590.59 439.61 590.5 439.59C589.96 439.37 589.47 439.07 589.03 438.7C588.8 438.56 588.62 438.41 588.41 438.25C588.2 438.08 588.02 437.88 587.86 437.66C587.68 437.48 587.49 437.33 587.32 437.14L586.99 436.73C586.94 436.74 586.88 436.73 586.83 436.7C586.79 436.68 586.75 436.64 586.72 436.59C586.59 436.41 586.51 436.2 586.49 435.98C586.5 435.83 586.55 435.69 586.64 435.57C586.73 435.46 586.86 435.38 587.01 435.35L587.11 435.35C587.76 435.39 588.36 435.67 588.82 436.13C589.06 436.33 589.29 436.54 589.51 436.77C590.08 437.05 590.52 437.55 590.74 438.15C590.92 438.39 591.06 438.65 591.15 438.94Z" fill="#FFFFFF" fill-opacity="1.000000" fill-rule="nonzero"/>
	<path id="Vector" d="M578.11 438.12C578.08 438.24 578 438.34 577.89 438.41C577.78 438.47 577.65 438.49 577.53 438.46C577.43 438.42 577.33 438.37 577.24 438.31C577.15 438.33 577.05 438.32 576.97 438.28C576.88 438.24 576.81 438.18 576.76 438.1C576.19 437.19 575.85 436.15 575.78 435.07C575.8 434.97 575.84 434.88 575.9 434.8C575.97 434.73 576.06 434.68 576.16 434.66C576.2 434.6 576.25 434.55 576.32 434.52C576.38 434.48 576.45 434.47 576.52 434.47C576.59 434.47 576.66 434.48 576.73 434.52C576.79 434.55 576.84 434.6 576.88 434.66C576.88 434.66 576.88 434.76 576.88 434.8C577.37 435.19 577.74 435.7 577.96 436.29C578.18 436.87 578.23 437.5 578.11 438.12Z" fill="#FFFFFF" fill-opacity="1.000000" fill-rule="nonzero"/>
	<path id="Vector" d="M622.01 449.25C621.95 449.36 621.86 449.44 621.76 449.5C621.66 449.56 621.55 449.59 621.43 449.6C621.1 449.55 620.8 449.4 620.56 449.19C620.45 449.15 620.36 449.09 620.3 449C620.29 448.94 620.29 448.88 620.3 448.83C620.11 448.59 619.96 448.33 619.84 448.06C619.65 447.67 619.52 447.25 619.44 446.82C619.39 446.69 619.39 446.55 619.44 446.41C619.44 446.3 619.44 446.19 619.44 446.07C619.43 446.03 619.42 445.99 619.42 445.94C619.42 445.9 619.43 445.86 619.44 445.82C619.45 445.72 619.45 445.62 619.44 445.52C619.45 445.38 619.5 445.25 619.59 445.14C619.69 445.03 619.82 444.96 619.96 444.94C620.1 444.92 620.25 444.95 620.37 445.03C620.5 445.11 620.59 445.23 620.62 445.37C620.62 445.37 620.62 445.49 620.62 445.56C620.62 445.7 620.74 445.85 620.81 445.99C620.88 446.12 620.81 446.21 620.95 446.33L621.15 446.48C621.41 446.72 621.62 446.99 621.79 447.29C622.06 447.83 622.44 448.62 622.01 449.25Z" fill="#FFFFFF" fill-opacity="1.000000" fill-rule="nonzero"/>
	<path id="Vector" d="M629.35 445.46C629.37 445.62 629.34 445.79 629.27 445.94C629.2 446.09 629.09 446.22 628.96 446.31C628.62 446.52 628.22 446.6 627.83 446.55C627.33 446.51 626.85 446.35 626.42 446.11C626.28 446.02 626.15 445.92 626.03 445.8C625.59 445.74 625.19 445.51 624.92 445.17C624.66 444.74 625.02 444.21 625.4 443.99C625.67 443.84 625.99 443.78 626.3 443.81C626.79 443.88 627.26 443.99 627.72 444.16C627.96 444.23 628.2 444.32 628.43 444.43C628.71 444.5 628.98 444.63 629.21 444.82C629.29 444.91 629.34 445.01 629.37 445.12C629.39 445.23 629.39 445.35 629.35 445.46Z" fill="#FFFFFF" fill-opacity="1.000000" fill-rule="nonzero"/>
</svg>
