<svg width="140.801514" height="89.000000" viewBox="0 0 140.802 89" fill="none" xmlns="http://www.w3.org/2000/svg" xmlns:xlink="http://www.w3.org/1999/xlink">
	<desc>
			Created with Pixso.
	</desc>
	<defs/>
	<path id="Vector" d="M128.22 41.48Q135.06 40.89 138.78 37.98L139.4 38.77L138.61 39.39L137.51 37.97L138.3 37.36L138.88 38.17Q138.4 38.51 137.89 38.8L136.4 39.64L136.4 37.4L137.4 37.4L136.4 37.45Q136.4 37.48 136.43 37.51Q136.46 37.54 136.51 37.54Q136.55 37.54 136.59 37.51Q136.61 37.48 136.62 37.45L135.62 37.4L136.62 37.4L136.62 39.48L136.02 39.75Q135.42 40.01 134.85 40.22L133.5 40.72L133.5 38.36L133.5 38.34Q133.5 38.36 133.51 38.37Q133.52 38.39 133.53 38.41Q133.55 38.42 133.57 38.43Q133.59 38.44 133.61 38.44Q133.64 38.44 133.66 38.43Q133.68 38.42 133.69 38.41Q133.71 38.39 133.71 38.37Q133.72 38.36 133.72 38.34L133.72 38.36L133.72 40.61L132.99 40.82Q132.5 40.96 131.97 41.08L130.75 41.37L130.75 39.13L131.75 39.13L130.75 39.18Q130.75 39.22 130.78 39.24Q130.81 39.27 130.86 39.27Q130.9 39.27 130.93 39.24Q130.96 39.22 130.96 39.18L129.96 39.13L130.96 39.13L130.96 41.31L130.12 41.44Q129.57 41.53 129.06 41.59L127.94 41.72L127.94 39.59Q127.94 39.63 127.97 39.66Q128 39.69 128.05 39.69Q128.1 39.69 128.13 39.66Q128.16 39.63 128.16 39.59L128.16 41.74L127 41.74L127 40.74L127.05 41.73Q120.32 42.03 116.02 34.74L115.99 34.68L115.97 34.63Q115.79 34.22 115.65 33.86L115.12 32.49L117.36 32.49L117.36 33.49L116.36 33.49L116.36 32.46L117.36 32.46L117.36 33.46L114.33 33.46L114.33 30.25L117.36 30.25L117.36 31.25L116.36 31.25L116.36 30.22L117.36 30.22L117.36 31.22L106.22 31.22L106.22 27.64L107.22 27.64L107.22 28.64L106.21 28.64L105.8 26.73Q107.38 26.03 108.85 25.12L112.91 22.62L113.44 23.47L112.44 23.47L112.44 20.85L113.44 20.85L113.83 21.77Q108.88 23.87 103.43 23.4L103.34 21.42Q103.29 21.43 103.24 21.44L103.37 21.39L103.51 21.38Q110.36 20.8 114.08 17.89L114.69 18.68L113.9 19.29L112.8 17.87L113.6 17.26L114.19 18.07Q113.71 18.42 113.19 18.72L111.7 19.57L111.7 17.32L112.7 17.32L111.7 17.37Q111.7 17.41 111.73 17.43Q111.76 17.46 111.8 17.46Q111.85 17.46 111.88 17.43Q111.91 17.41 111.91 17.37L110.91 17.32L111.91 17.32L111.91 19.41L111.31 19.67Q110.72 19.93 110.15 20.14L108.8 20.64L108.8 18.28L108.8 18.26Q108.8 18.28 108.81 18.3Q108.81 18.32 108.83 18.33Q108.84 18.35 108.86 18.36Q108.88 18.36 108.91 18.36Q108.93 18.36 108.95 18.36Q108.97 18.35 108.99 18.33Q109 18.32 109.01 18.3Q109.02 18.28 109.02 18.26L109.02 18.28L109.02 20.54L108.29 20.74Q107.8 20.88 107.27 21L106.04 21.29L106.04 19.02L106.04 18.99Q106.04 19.01 106.05 19.03Q106.06 19.05 106.07 19.07Q106.09 19.08 106.11 19.09Q106.13 19.1 106.15 19.1Q106.17 19.1 106.2 19.09Q106.22 19.08 106.23 19.07Q106.25 19.05 106.25 19.03Q106.26 19.01 106.26 18.99L106.26 19.02L106.26 21.23L105.42 21.36Q104.9 21.45 104.36 21.51L103.24 21.65L103.24 19.51Q103.24 19.55 103.27 19.58Q103.3 19.62 103.35 19.62Q103.4 19.62 103.43 19.58Q103.46 19.55 103.46 19.51L103.46 21.66L102.3 21.66L102.3 20.66L102.34 21.66Q95.63 21.95 91.32 14.68L91.29 14.62L91.27 14.57Q91.08 14.13 90.94 13.79L90.42 12.43L92.65 12.43L92.65 13.43L91.65 13.43L91.65 12.4L92.65 12.4L92.65 13.4L89.63 13.4L89.63 10.18L92.65 10.18L92.65 11.18L91.65 11.18L91.65 10.15L92.65 10.15L92.65 11.15L87.51 11.15L87.51 8.52L88.51 8.52L88.51 9.52L83.21 9.52L83.21 5.1L84.21 5.1L84.21 6.1L81.21 6.1L81.21 2.04L82.21 2.04L82.21 3.04L77.16 3.04L77.16 2.04L78.16 2.04L78.16 5.76L77.16 5.76L77.16 4.76L80.63 4.76L80.63 5.76L79.63 5.76L79.63 3.35L80.63 3.35L80.63 4.35L78.46 4.35L78.46 3.35L79.46 3.35L79.46 4.02L78.46 4.02L78.46 3.02L80.96 3.02L80.96 6.09L76.83 6.09L76.83 1.71L82.54 1.71L82.54 7.29L75.52 7.29L75.52 2.04L76.52 2.04L76.52 3.04L71.13 3.04L71.13 2.04L72.13 2.04L72.13 5.24L69.73 5.24L69.73 0.67L76.5 0.67L76.5 1.67L75.5 1.67L75.5 1L76.5 1L76.5 2L64.12 2L64.12 1L65.12 1L65.12 1.67L64.12 1.67L64.12 0.67L71.06 0.67L71.06 5.23L68.47 5.23L68.47 2.04L69.47 2.04L69.47 3.04L64.08 3.04L64.08 2.04L65.08 2.04L65.08 7.29L58.05 7.29L58.05 1.71L63.77 1.71L63.77 6.09L59.64 6.09L59.64 3.02L62.14 3.02L62.14 4.02L61.14 4.02L61.14 3.35L62.14 3.35L62.14 4.35L59.97 4.35L59.97 3.35L60.97 3.35L60.97 5.76L59.97 5.76L59.97 4.76L63.44 4.76L63.44 5.76L62.44 5.76L62.44 2.04L63.44 2.04L63.44 3.04L58.4 3.04L58.4 2.04L59.4 2.04L59.4 6.1L56.39 6.1L56.39 5.1L57.39 5.1L57.39 9.51L52.09 9.51L52.09 8.51L53.09 8.51L53.09 11.15L47.99 11.15L47.99 10.15L48.99 10.15L48.99 11.17L47.99 11.17L47.99 10.17L50.87 10.17L50.87 13.39L48 13.39L48 12.39L49 12.39L49 13.42L48 13.42L48 12.42L50.25 12.42L49.71 13.79Q49.54 14.22 49.38 14.57L49.36 14.62L49.33 14.67Q45.03 21.96 38.31 21.65L38.35 20.65L38.35 21.65L37.19 21.65L37.19 19.51Q37.19 19.55 37.22 19.58Q37.26 19.61 37.3 19.61Q37.35 19.61 37.38 19.58Q37.41 19.55 37.41 19.51L37.41 21.64L36.29 21.51Q35.76 21.44 35.23 21.36L34.39 21.22L34.39 19.02L34.39 18.99Q34.39 19.01 34.4 19.03Q34.41 19.05 34.42 19.07Q34.44 19.08 34.46 19.09Q34.48 19.1 34.5 19.1Q34.52 19.1 34.55 19.09Q34.57 19.08 34.58 19.07Q34.6 19.05 34.6 19.03Q34.61 19.01 34.61 18.99L34.61 19.02L34.61 21.27L33.38 20.99Q32.85 20.87 32.36 20.73L31.63 20.52L31.63 18.29Q31.63 18.33 31.66 18.36Q31.7 18.39 31.74 18.39Q31.79 18.39 31.82 18.36Q31.85 18.33 31.85 18.29L31.85 20.62L30.51 20.13Q29.93 19.91 29.34 19.65L28.74 19.39L28.74 17.32L29.74 17.32L28.74 17.37Q28.74 17.41 28.77 17.43Q28.8 17.46 28.85 17.46Q28.89 17.46 28.93 17.43Q28.95 17.41 28.96 17.37L27.96 17.32L28.96 17.32L28.96 19.56L27.47 18.72Q26.95 18.44 26.48 18.09L27.06 17.28L27.85 17.89L26.75 19.31L25.96 18.69L26.58 17.91Q30.25 20.81 37.14 21.4L37.28 21.41L37.41 21.46Q37.36 21.44 37.31 21.43L37.22 23.41Q31.77 23.89 26.82 21.79L26.82 21.79L27.21 20.87L28.21 20.87L28.21 23.49L27.21 23.49L27.74 22.63L31.8 25.14Q33.27 26.04 34.85 26.75L34.44 28.66L33.58 28.66L33.58 27.66L34.58 27.66L34.58 31.26L23.45 31.26L23.45 30.26L24.45 30.26L24.45 31.29L23.45 31.29L23.45 30.29L26.47 30.29L26.47 33.5L23.44 33.5L23.44 32.5L24.44 32.5L24.44 33.53L23.44 33.53L23.44 32.53L25.68 32.53L25.14 33.9Q25 34.26 24.82 34.67L24.8 34.72L24.77 34.78Q20.47 42.07 13.75 41.77L13.79 40.78L13.79 41.78L12.63 41.78L12.63 39.63L13.63 39.63L12.63 39.68Q12.63 39.71 12.66 39.74Q12.69 39.77 12.74 39.77Q12.79 39.77 12.82 39.74Q12.85 39.71 12.85 39.68L11.85 39.63L12.85 39.63L12.85 41.74L11.73 41.61Q11.22 41.54 10.67 41.46L9.83 41.33L9.83 39.15L10.83 39.15L9.83 39.19Q9.83 39.23 9.86 39.26Q9.89 39.29 9.94 39.29Q9.98 39.29 10.01 39.26Q10.04 39.23 10.04 39.19L9.05 39.15L10.05 39.15L10.05 41.38L8.82 41.1Q8.29 40.98 7.8 40.84L7.07 40.63L7.07 38.38L7.07 38.35Q7.07 38.37 7.08 38.39Q7.09 38.41 7.1 38.43Q7.11 38.44 7.14 38.45Q7.16 38.46 7.18 38.46Q7.2 38.46 7.23 38.45Q7.25 38.44 7.26 38.43Q7.27 38.41 7.28 38.39Q7.29 38.37 7.29 38.35L7.29 38.38L7.29 40.73L5.94 40.24Q5.37 40.02 4.77 39.76L4.18 39.5L4.18 37.42Q4.18 37.46 4.2 37.49Q4.24 37.52 4.28 37.52Q4.33 37.52 4.36 37.49Q4.39 37.46 4.39 37.42L4.39 39.65L2.9 38.81Q2.39 38.52 1.91 38.18L2.49 37.37L3.28 37.98L2.19 39.39L1.4 38.78L2.01 37.99Q5.73 40.9 12.58 41.49L12.71 41.5L12.84 41.54Q12.82 41.54 12.8 41.53L12.66 43.5Q9.25 43.8 5.43 42.87Q2.86 42.25 2.13 41.81Q2.2 41.85 2.26 41.88L2.65 40.95L3.65 40.95L3.65 43.57L2.65 43.57L3.18 42.72L7.23 45.22Q13.63 49.16 21.12 49.16L21.12 51.16L17.22 51.16L17.22 50.16L18.22 50.16L18.22 51.19L17.22 51.19L17.22 50.19L19.96 50.19L19.96 82.44L18.29 82.44L18.29 81.44L19.29 81.44L19.29 84.38L17.33 84.38L17.33 83.38L18.33 83.38L18.33 87.83L17.33 87.83L17.33 86.83L25.27 86.83L25.27 87.83L24.27 87.83L24.27 83.38L25.27 83.38L25.27 84.38L23.31 84.38L23.31 81.43L24.31 81.43L24.31 82.43L22.64 82.43L22.64 52.72L44.52 52.72L44.52 82.6L42.85 82.6L42.85 81.6L43.85 81.6L43.85 84.54L41.89 84.54L41.89 83.54L42.89 83.54L42.89 87.99L41.89 87.99L41.89 86.99L49.83 86.99L49.83 87.99L48.83 87.99L48.83 83.54L49.83 83.54L49.83 84.54L47.86 84.54L47.86 81.6L48.86 81.6L48.86 82.6L47.2 82.6L47.2 45.66L49.99 45.66L49.99 48.06L48.99 48.06L48.99 47.06L53.19 47.06L53.19 48.06L52.19 48.06L52.19 41.97L57.12 41.97L57.12 45.97L53.43 45.97L53.43 43.2L55.95 43.2L55.95 44.5L54.95 44.5L54.95 43.5L55.62 43.5L55.62 44.5L54.62 44.5L54.62 43.53L55.62 43.53L55.62 44.53L53.77 44.53L53.77 43.53L54.77 43.53L54.77 45.64L53.77 45.64L53.77 44.64L56.8 44.64L56.8 45.64L55.8 45.64L55.8 43.31L84.86 43.31L84.86 45.64L83.86 45.64L83.86 44.64L86.89 44.64L86.89 45.64L85.89 45.64L85.89 43.53L86.89 43.53L86.89 44.53L85.04 44.53L85.04 43.53L86.04 43.53L86.04 44.5L85.04 44.5L85.04 43.5L85.7 43.5L85.7 44.5L84.7 44.5L84.7 43.2L87.22 43.2L87.22 45.96L83.53 45.96L83.53 41.97L88.47 41.97L88.47 48.06L87.47 48.06L87.47 47.06L91.66 47.06L91.66 48.06L90.66 48.06L90.66 45.66L93.46 45.66L93.46 82.6L91.79 82.6L91.79 81.6L92.79 81.6L92.79 84.55L90.83 84.55L90.83 83.55L91.83 83.55L91.83 88L90.83 88L90.83 87L98.77 87L98.77 88L97.77 88L97.77 83.55L98.77 83.55L98.77 84.55L96.8 84.55L96.8 81.6L97.8 81.6L97.8 82.6L96.13 82.6L96.13 52.72L118.16 52.72L118.16 82.44L116.49 82.44L116.49 81.44L117.49 81.44L117.49 84.38L115.53 84.38L115.53 83.38L116.53 83.38L116.53 87.83L115.53 87.83L115.53 86.83L123.47 86.83L123.47 87.83L122.47 87.83L122.47 83.38L123.47 83.38L123.47 84.38L121.5 84.38L121.5 81.43L122.5 81.43L122.5 82.43L120.84 82.43L120.84 50.18L123.58 50.18L123.58 51.18L122.58 51.18L122.58 50.16L123.58 50.16L123.58 51.16L119.68 51.16L119.68 49.16Q127.17 49.15 133.55 45.22L137.61 42.72L138.14 43.57L137.14 43.57L137.14 40.95L138.14 40.95L138.53 41.87Q133.58 43.96 128.13 43.49L128 41.52Q127.97 41.53 127.95 41.54L128.08 41.49L128.22 41.48ZM128.39 43.47L128.3 42.47L128.65 43.41Q128.55 43.45 128.43 43.47L128.22 42.5L128.3 41.5Q133.25 41.93 137.75 40.02L139.14 39.44L139.14 44.13L134.6 46.92Q127.73 51.15 119.68 51.16L119.68 50.16L119.68 49.16L124.58 49.16L124.58 52.18L121.84 52.18L121.84 51.18L122.84 51.18L122.84 81.43L121.84 81.43L121.84 80.43L123.5 80.43L123.5 83.38L122.5 83.38L122.5 82.38L124.47 82.38L124.47 88.83L114.53 88.83L114.53 82.38L116.49 82.38L116.49 83.38L115.49 83.38L115.49 80.44L117.16 80.44L117.16 81.44L116.16 81.44L116.16 53.72L117.16 53.72L117.16 54.72L97.13 54.72L97.13 53.72L98.13 53.72L98.13 81.6L97.13 81.6L97.13 80.6L98.8 80.6L98.8 83.55L97.8 83.55L97.8 82.55L99.77 82.55L99.77 89L89.83 89L89.83 82.55L91.79 82.55L91.79 83.55L90.79 83.55L90.79 80.6L92.46 80.6L92.46 81.6L91.46 81.6L91.46 46.66L92.46 46.66L92.46 47.66L91.66 47.66L91.66 46.66L92.66 46.66L92.66 49.06L86.47 49.06L86.47 42.97L87.47 42.97L87.47 43.97L84.53 43.97L84.53 42.97L85.53 42.97L85.53 44.96L84.53 44.96L84.53 43.96L86.22 43.96L86.22 44.96L85.22 44.96L85.22 44.2L86.22 44.2L86.22 45.2L85.7 45.2L85.7 44.2L86.7 44.2L86.7 45.5L84.04 45.5L84.04 42.53L87.89 42.53L87.89 46.64L82.86 46.64L82.86 44.31L83.86 44.31L83.86 45.31L56.8 45.31L56.8 44.31L57.8 44.31L57.8 46.64L52.77 46.64L52.77 42.53L56.62 42.53L56.62 45.5L53.95 45.5L53.95 44.2L54.95 44.2L54.95 45.2L54.43 45.2L54.43 44.2L55.43 44.2L55.43 44.97L54.43 44.97L54.43 43.97L56.12 43.97L56.12 44.97L55.12 44.97L55.12 42.97L56.12 42.97L56.12 43.97L53.19 43.97L53.19 42.97L54.19 42.97L54.19 49.06L47.99 49.06L47.99 46.66L48.99 46.66L48.99 47.66L48.2 47.66L48.2 46.66L49.2 46.66L49.2 81.6L48.2 81.6L48.2 80.6L49.86 80.6L49.86 83.54L48.86 83.54L48.86 82.54L50.83 82.54L50.83 88.99L40.89 88.99L40.89 82.54L42.85 82.54L42.85 83.54L41.85 83.54L41.85 80.6L43.52 80.6L43.52 81.6L42.52 81.6L42.52 53.72L43.52 53.72L43.52 54.72L23.64 54.72L23.64 53.72L24.64 53.72L24.64 81.43L23.64 81.43L23.64 80.43L25.31 80.43L25.31 83.38L24.31 83.38L24.31 82.38L26.27 82.38L26.27 88.83L16.33 88.83L16.33 82.38L18.29 82.38L18.29 83.38L17.29 83.38L17.29 80.44L18.96 80.44L18.96 81.44L17.96 81.44L17.96 51.19L18.96 51.19L18.96 52.19L16.22 52.19L16.22 49.16L21.12 49.16L21.12 50.16L21.12 51.16Q13.06 51.16 6.18 46.93L1.65 44.13L1.65 39.44L3.04 40.03Q3.11 40.06 3.17 40.1Q3.63 40.38 5.9 40.93Q9.4 41.78 12.49 41.51L12.57 42.51L12.35 43.48Q12.25 43.46 12.15 43.42L12.49 42.48L12.41 43.48Q4.97 42.84 0.78 39.57L0 38.96L2.29 36L3.07 36.55Q3.47 36.83 3.89 37.07L3.39 37.94L2.39 37.94L2.39 37.42Q2.39 36.63 2.95 36.08Q3.5 35.52 4.28 35.52Q5.07 35.52 5.62 36.08Q6.18 36.63 6.18 37.42L6.18 38.85L5.18 38.85L5.58 37.93Q6.12 38.17 6.64 38.36L6.29 39.3L5.29 39.3L5.29 38.4L6.29 38.4L5.29 38.45Q5.27 38.06 5.41 37.7Q5.54 37.33 5.81 37.05Q6.08 36.77 6.43 36.61Q6.79 36.46 7.18 36.46Q7.57 36.46 7.93 36.61Q8.28 36.77 8.55 37.05Q8.82 37.33 8.95 37.7Q9.09 38.06 9.07 38.45L8.07 38.4L9.07 38.4L9.07 39.87L8.07 39.87L8.35 38.91Q8.79 39.04 9.27 39.15L9.05 40.12L8.05 40.12L8.05 39.13L8.05 39.1Q8.08 38.34 8.63 37.82Q9.18 37.29 9.94 37.29Q10.7 37.29 11.25 37.82Q11.79 38.34 11.83 39.1L11.83 39.13L11.83 40.47L10.83 40.47L10.98 39.48Q11.49 39.56 11.97 39.62L11.85 40.61L10.85 40.61L10.85 39.61L10.85 39.58Q10.88 38.83 11.43 38.3Q11.98 37.77 12.74 37.77Q13.5 37.77 14.05 38.3Q14.6 38.83 14.63 39.58L14.63 39.61L14.63 40.78L13.63 40.78L13.63 39.78L13.81 39.78L13.83 39.78Q19.36 40.02 23.04 33.76L23.91 34.27L22.99 33.87Q23.15 33.5 23.28 33.17L24.21 33.53L24.21 34.53L22.44 34.53L22.44 31.5L25.47 31.5L25.47 32.5L24.47 32.5L24.47 31.29L25.47 31.29L25.47 32.29L22.45 32.29L22.45 29.26L33.58 29.26L33.58 30.26L32.58 30.26L32.58 26.66L34.44 26.66L34.44 27.66L34.03 28.57Q32.34 27.81 30.75 26.84L26.21 24.04L26.21 19.36L27.6 19.95L27.6 19.95Q32.1 21.85 37.05 21.42L37.14 22.42L36.97 23.4Q36.83 23.38 36.7 23.33L37.06 22.39L36.97 23.39Q29.48 22.75 25.34 19.48L24.56 18.86L26.86 15.91L27.64 16.47Q28.03 16.75 28.45 16.98L27.96 17.85L26.96 17.85L26.96 17.3L26.96 17.28Q26.99 16.52 27.54 15.99Q28.09 15.46 28.85 15.46Q29.61 15.46 30.16 15.99Q30.7 16.52 30.74 17.28L30.74 17.3L30.74 18.74L29.74 18.74L30.14 17.82Q30.68 18.06 31.2 18.25L30.85 19.19L29.85 19.19L29.85 18.29Q29.85 17.51 30.4 16.95Q30.96 16.39 31.74 16.39Q32.53 16.39 33.08 16.95Q33.63 17.51 33.63 18.29L33.63 19.77L32.63 19.77L32.91 18.8Q33.35 18.93 33.83 19.04L33.61 20.02L32.61 20.02L32.61 19.04L33.61 19.04L32.61 19.09Q32.59 18.7 32.73 18.34Q32.86 17.97 33.13 17.69Q33.4 17.41 33.75 17.25Q34.11 17.1 34.5 17.1Q34.89 17.1 35.25 17.25Q35.6 17.41 35.87 17.69Q36.14 17.97 36.27 18.34Q36.41 18.7 36.39 19.09L35.39 19.04L36.39 19.04L36.39 20.37L35.39 20.37L35.55 19.38Q36.03 19.46 36.53 19.52L36.41 20.51L35.41 20.51L35.41 19.51Q35.41 18.72 35.96 18.17Q36.52 17.61 37.3 17.61Q38.09 17.61 38.64 18.17Q39.19 18.72 39.19 19.51L39.19 20.65L38.19 20.65L38.19 19.65L38.38 19.65L38.4 19.65Q43.92 19.9 47.61 13.65L48.47 14.16L47.55 13.76Q47.69 13.44 47.85 13.05L48.78 13.42L48.78 14.42L47 14.42L47 11.39L49.87 11.39L49.87 12.39L48.87 12.39L48.87 11.17L49.87 11.17L49.87 12.17L46.99 12.17L46.99 9.15L52.09 9.15L52.09 10.15L51.09 10.15L51.09 7.51L56.39 7.51L56.39 8.51L55.39 8.51L55.39 4.1L58.4 4.1L58.4 5.1L57.4 5.1L57.4 1.04L64.44 1.04L64.44 6.76L58.97 6.76L58.97 2.35L63.14 2.35L63.14 5.02L60.64 5.02L60.64 4.02L61.64 4.02L61.64 5.09L60.64 5.09L60.64 4.09L62.77 4.09L62.77 5.09L61.77 5.09L61.77 2.71L62.77 2.71L62.77 3.71L59.05 3.71L59.05 2.71L60.05 2.71L60.05 6.29L59.05 6.29L59.05 5.29L64.08 5.29L64.08 6.29L63.08 6.29L63.08 1.04L70.47 1.04L70.47 4.23L69.47 4.23L69.47 3.23L70.06 3.23L70.06 4.23L69.06 4.23L69.06 1.67L70.06 1.67L70.06 2.67L63.12 2.67L63.12 0L77.5 0L77.5 2.67L70.73 2.67L70.73 1.67L71.73 1.67L71.73 4.24L70.73 4.24L70.73 3.24L71.13 3.24L71.13 4.24L70.13 4.24L70.13 1.04L77.52 1.04L77.52 6.29L76.52 6.29L76.52 5.29L81.54 5.29L81.54 6.29L80.54 6.29L80.54 2.71L81.54 2.71L81.54 3.71L77.83 3.71L77.83 2.71L78.83 2.71L78.83 5.09L77.83 5.09L77.83 4.09L79.96 4.09L79.96 5.09L78.96 5.09L78.96 4.02L79.96 4.02L79.96 5.02L77.46 5.02L77.46 2.35L81.63 2.35L81.63 6.76L76.16 6.76L76.16 1.04L83.21 1.04L83.21 5.1L82.21 5.1L82.21 4.1L85.21 4.1L85.21 8.52L84.21 8.52L84.21 7.52L89.51 7.52L89.51 10.15L88.51 10.15L88.51 9.15L93.65 9.15L93.65 12.18L90.63 12.18L90.63 11.18L91.63 11.18L91.63 12.4L90.63 12.4L90.63 11.4L93.65 11.4L93.65 14.43L91.88 14.43L91.88 13.43L92.81 13.06Q92.93 13.37 93.1 13.77L92.18 14.17L93.05 13.66Q96.74 19.9 102.25 19.66L102.28 19.66L102.46 19.66L102.46 20.66L101.46 20.66L101.46 19.51Q101.46 18.73 102.01 18.17Q102.56 17.62 103.35 17.62Q104.13 17.62 104.69 18.17Q105.24 18.73 105.24 19.51L105.24 20.52L104.24 20.52L104.12 19.53Q104.62 19.47 105.1 19.39L105.26 20.38L104.26 20.38L104.26 19.04L105.26 19.04L104.26 19.09Q104.24 18.7 104.38 18.34Q104.51 17.97 104.78 17.69Q105.05 17.41 105.4 17.25Q105.76 17.1 106.15 17.1Q106.54 17.1 106.9 17.25Q107.25 17.41 107.52 17.69Q107.79 17.97 107.92 18.34Q108.06 18.7 108.04 19.09L107.04 19.04L108.04 19.04L108.04 20.03L107.04 20.03L106.81 19.06Q107.3 18.94 107.75 18.82L108.02 19.78L107.02 19.78L107.02 18.3L108.02 18.3L107.02 18.35Q107 17.96 107.13 17.6Q107.27 17.24 107.54 16.95Q107.8 16.67 108.16 16.52Q108.52 16.36 108.91 16.36Q109.3 16.36 109.65 16.52Q110.01 16.67 110.28 16.95Q110.55 17.24 110.68 17.6Q110.82 17.96 110.8 18.35L109.8 18.3L110.8 18.3L110.8 19.2L109.8 19.2L109.45 18.26Q109.97 18.07 110.51 17.84L110.91 18.75L109.91 18.75L109.91 17.3L109.91 17.28Q109.95 16.52 110.49 15.99Q111.04 15.46 111.8 15.46Q112.56 15.46 113.11 15.99Q113.66 16.52 113.69 17.28L113.7 17.3L113.7 17.85L112.7 17.85L112.2 16.98Q112.62 16.74 113 16.46L113.79 15.88L116.09 18.85L115.31 19.47Q111.12 22.74 103.68 23.38L103.6 22.38L103.95 23.31Q103.82 23.36 103.68 23.39L103.51 22.4L103.6 21.41Q108.56 21.83 113.05 19.93L114.44 19.34L114.44 24.03L109.9 26.82Q108.32 27.8 106.62 28.56L106.21 27.64L106.21 26.64L108.22 26.64L108.22 30.22L107.22 30.22L107.22 29.22L118.36 29.22L118.36 32.25L115.33 32.25L115.33 31.25L116.33 31.25L116.33 32.46L115.33 32.46L115.33 31.46L118.36 31.46L118.36 34.49L116.58 34.49L116.58 33.49L117.51 33.13Q117.64 33.46 117.8 33.83L116.89 34.23L117.75 33.72Q121.44 39.98 126.96 39.74L126.98 39.74L127.16 39.74L127.16 40.74L126.16 40.74L126.16 39.59Q126.16 38.81 126.71 38.25Q127.27 37.69 128.05 37.69Q128.84 37.69 129.39 38.25Q129.94 38.81 129.94 39.59L129.94 40.6L128.94 40.6L128.82 39.6Q129.3 39.55 129.81 39.47L129.96 40.45L128.96 40.45L128.96 39.11L128.97 39.09Q129 38.33 129.55 37.8Q130.09 37.27 130.86 37.27Q131.62 37.27 132.17 37.8Q132.71 38.33 132.75 39.09L132.75 39.11L132.75 40.11L131.75 40.11L131.52 39.13Q132 39.02 132.45 38.89L132.72 39.86L131.72 39.86L131.72 38.38L132.72 38.38L131.72 38.43Q131.7 38.04 131.84 37.68Q131.97 37.31 132.24 37.03Q132.51 36.75 132.87 36.6Q133.22 36.44 133.61 36.44Q134 36.44 134.36 36.6Q134.72 36.75 134.98 37.03Q135.25 37.31 135.38 37.68Q135.52 38.04 135.5 38.43L134.5 38.38L135.5 38.38L135.5 39.28L134.5 39.28L134.16 38.34Q134.67 38.15 135.22 37.91L135.62 38.83L134.62 38.83L134.62 37.38L134.62 37.35Q134.65 36.6 135.2 36.07Q135.75 35.54 136.51 35.54Q137.27 35.54 137.82 36.07Q138.36 36.6 138.4 37.35L138.4 37.38L138.4 37.93L137.4 37.93L136.91 37.06Q137.33 36.82 137.72 36.54L138.5 35.99L140.8 38.95L140.01 39.56Q135.82 42.83 128.39 43.47ZM88.81 36.88L91.35 36.88L91.35 39.46L88.93 39.46L88.93 38.18L89.93 38.18L89.93 39.18L89.26 39.18L89.26 38.18L90.26 38.18L90.26 39.13L89.26 39.13L89.26 38.13L91.02 38.13L91.02 39.13L90.02 39.13L90.02 37.67L93.45 37.67L93.45 40.58L87.81 40.57L87.81 36.88L88.81 36.88ZM88.81 38.88L88.81 37.88L89.81 37.88L89.81 39.57L88.81 39.57L88.82 38.57L92.45 38.58L92.45 39.58L91.45 39.58L91.45 38.67L92.45 38.67L92.45 39.67L91.02 39.67L91.02 38.67L92.02 38.67L92.02 40.13L88.26 40.13L88.26 37.18L90.93 37.18L90.93 38.46L89.93 38.46L89.93 37.46L90.35 37.46L90.35 38.46L89.35 38.46L89.35 37.88L90.35 37.88L90.35 38.88L88.81 38.88ZM48.2 37.66L50.72 37.66L50.72 39.13L49.72 39.13L49.72 38.13L51.48 38.13L51.48 39.13L50.48 39.13L50.48 38.17L51.48 38.17L51.48 39.17L50.82 39.17L50.82 38.17L51.82 38.17L51.82 39.45L49.39 39.45L49.39 36.88L52.94 36.88L52.94 40.56L47.2 40.57L47.2 37.66L48.2 37.66ZM48.2 39.66L48.2 38.66L49.2 38.66L49.2 39.57L48.2 39.57L48.2 38.57L51.93 38.56L51.94 39.56L50.94 39.56L50.94 37.88L51.94 37.88L51.94 38.88L50.39 38.88L50.39 37.88L51.39 37.88L51.39 38.45L50.39 38.45L50.39 37.45L50.82 37.45L50.82 38.45L49.82 38.45L49.82 37.17L52.48 37.17L52.48 40.13L48.72 40.13L48.72 38.66L49.72 38.66L49.72 39.66L48.2 39.66ZM43.27 33.49L40.73 33.49L40.73 30.27L44.27 30.27L44.27 33.49L43.27 33.49ZM43.27 31.49L43.27 32.49L42.27 32.49L42.27 31.27L43.27 31.27L43.27 32.27L41.73 32.27L41.73 31.27L42.73 31.27L42.73 32.49L41.73 32.49L41.73 31.49L43.27 31.49ZM54.32 13.4L51.76 13.4L51.76 10.18L55.32 10.18L55.32 13.4L54.32 13.4ZM54.32 11.4L54.32 12.4L53.32 12.4L53.32 11.18L54.32 11.18L54.32 12.18L52.76 12.18L52.76 11.18L53.76 11.18L53.76 12.4L52.76 12.4L52.76 11.4L54.32 11.4ZM88.4 30.08L90.96 30.08L90.96 33.59L87.4 33.59L87.4 30.08L88.4 30.08ZM88.4 32.08L88.4 31.08L89.4 31.08L89.4 32.59L88.4 32.59L88.4 31.59L89.96 31.59L89.96 32.59L88.96 32.59L88.96 31.08L89.96 31.08L89.96 32.08L88.4 32.08ZM91.02 34.21L93.45 34.21L93.45 38.98L90.02 38.98L90.02 37.21L91.02 37.21L91.02 38.21L88.91 38.21L88.91 34.92L91.02 34.92L91.02 35.92L90.02 35.92L90.02 34.21L91.02 34.21ZM91.02 36.21L91.02 35.21L92.02 35.21L92.02 36.92L89.91 36.92L89.91 35.92L90.91 35.92L90.91 37.21L89.91 37.21L89.91 36.21L92.02 36.21L92.02 37.98L91.02 37.98L91.02 36.98L92.45 36.98L92.45 37.98L91.45 37.98L91.45 35.21L92.45 35.21L92.45 36.21L91.02 36.21ZM89.14 37.21L89.14 38.98L85.63 38.98L85.63 34.22L89.14 34.22L89.14 35.92L88.14 35.92L88.14 34.92L90.23 34.92L90.24 38.21L88.14 38.21L88.14 37.21L89.14 37.21ZM87.14 36.21L89.24 36.21L89.24 37.21L88.24 37.21L88.23 35.93L89.23 35.92L89.23 36.92L87.14 36.92L87.14 35.22L88.14 35.22L88.14 36.22L86.63 36.22L86.63 35.22L87.63 35.22L87.63 37.98L86.63 37.98L86.63 36.98L88.14 36.98L88.14 37.98L87.14 37.98L87.14 37.21L87.14 36.21ZM51.5 34.92L52.59 34.92L52.59 35.92L51.59 35.92L51.59 34.21L55.01 34.21L55.01 38.98L51.59 38.98L51.59 37.21L52.59 37.21L52.59 38.21L50.5 38.21L50.5 34.92L51.5 34.92ZM51.5 36.92L51.5 35.92L52.5 35.92L52.5 37.21L51.5 37.21L51.5 36.21L53.59 36.21L53.59 37.98L52.59 37.98L52.59 36.98L54.01 36.98L54.01 37.98L53.01 37.98L53.01 35.21L54.01 35.21L54.01 36.21L52.59 36.21L52.59 35.21L53.59 35.21L53.59 36.92L51.5 36.92ZM49.72 38.98L47.2 38.98L47.2 34.22L50.72 34.22L50.72 35.92L49.72 35.92L49.72 34.92L51.83 34.92L51.83 38.22L49.71 38.21L49.72 37.21L50.72 37.21L50.72 38.98L49.72 38.98ZM49.72 36.98L49.72 37.98L48.72 37.98L48.72 36.2L50.84 36.21L50.83 37.21L49.83 37.21L49.83 35.92L50.83 35.92L50.83 36.92L48.72 36.92L48.72 35.22L49.72 35.22L49.72 36.22L48.2 36.22L48.2 35.22L49.2 35.22L49.2 37.98L48.2 37.98L48.2 36.98L49.72 36.98ZM86.17 30.08L88.73 30.08L88.73 33.59L85.17 33.59L85.17 30.08L86.17 30.08ZM86.17 32.08L86.17 31.08L87.17 31.08L87.17 32.59L86.17 32.59L86.17 31.59L87.73 31.59L87.73 32.59L86.73 32.59L86.73 31.08L87.73 31.08L87.73 32.08L86.17 32.08ZM82.95 32.59L82.95 30.08L86.51 30.08L86.51 33.59L82.95 33.59L82.95 32.59ZM84.95 32.59L83.95 32.59L83.95 31.59L85.51 31.59L85.51 32.59L84.51 32.59L84.51 31.08L85.51 31.08L85.51 32.08L83.95 32.08L83.95 31.08L84.95 31.08L84.95 32.59ZM80.72 32.59L80.72 30.08L84.28 30.08L84.28 33.59L80.72 33.59L80.72 32.59ZM82.72 32.59L81.72 32.59L81.72 31.59L83.28 31.59L83.28 32.59L82.28 32.59L82.28 31.08L83.28 31.08L83.28 32.08L81.72 32.08L81.72 31.08L82.72 31.08L82.72 32.59ZM78.49 32.59L78.49 30.08L82.05 30.08L82.05 33.59L78.49 33.59L78.49 32.59ZM80.49 32.59L79.49 32.59L79.49 31.59L81.05 31.59L81.05 32.59L80.05 32.59L80.05 31.08L81.05 31.08L81.05 32.08L79.49 32.08L79.49 31.08L80.49 31.08L80.49 32.59ZM76.26 32.59L76.26 30.08L79.82 30.08L79.82 33.59L76.26 33.59L76.26 32.59ZM78.26 32.59L77.26 32.59L77.26 31.59L78.82 31.59L78.82 32.59L77.82 32.59L77.82 31.08L78.82 31.08L78.82 32.08L77.26 32.08L77.26 31.08L78.26 31.08L78.26 32.59ZM74.04 32.59L74.04 30.08L77.6 30.08L77.6 33.59L74.04 33.59L74.04 32.59ZM76.04 32.59L75.04 32.59L75.04 31.59L76.6 31.59L76.6 32.59L75.6 32.59L75.6 31.08L76.6 31.08L76.6 32.08L75.04 32.08L75.04 31.08L76.04 31.08L76.04 32.59ZM71.81 32.59L71.81 30.08L75.37 30.08L75.37 33.59L71.81 33.59L71.81 32.59ZM73.81 32.59L72.81 32.59L72.81 31.59L74.37 31.59L74.37 32.59L73.37 32.59L73.37 31.08L74.37 31.08L74.37 32.08L72.81 32.08L72.81 31.08L73.81 31.08L73.81 32.59ZM69.58 32.59L69.58 30.08L73.14 30.08L73.14 33.59L69.58 33.59L69.58 32.59ZM71.58 32.59L70.58 32.59L70.58 31.59L72.14 31.59L72.14 32.59L71.14 32.59L71.14 31.08L72.14 31.08L72.14 32.08L70.58 32.08L70.58 31.08L71.58 31.08L71.58 32.59ZM67.35 32.59L67.35 30.08L70.91 30.08L70.91 33.59L67.35 33.59L67.35 32.59ZM69.35 32.59L68.35 32.59L68.35 31.59L69.91 31.59L69.91 32.59L68.91 32.59L68.91 31.08L69.91 31.08L69.91 32.08L68.35 32.08L68.35 31.08L69.35 31.08L69.35 32.59ZM65.12 32.59L65.12 30.08L68.68 30.08L68.68 33.59L65.12 33.59L65.12 32.59ZM67.12 32.59L66.12 32.59L66.12 31.59L67.68 31.59L67.68 32.59L66.68 32.59L66.68 31.08L67.68 31.08L67.68 32.08L66.12 32.08L66.12 31.08L67.12 31.08L67.12 32.59ZM62.89 32.59L62.89 30.08L66.45 30.08L66.45 33.59L62.89 33.59L62.89 32.59ZM64.89 32.59L63.89 32.59L63.89 31.59L65.45 31.59L65.45 32.59L64.45 32.6L64.45 31.08L65.45 31.08L65.45 32.08L63.89 32.08L63.89 31.08L64.89 31.08L64.89 32.59ZM60.67 32.59L60.67 30.08L64.23 30.08L64.23 33.59L60.67 33.59L60.67 32.59ZM62.67 32.59L61.67 32.59L61.67 31.59L63.23 31.59L63.23 32.59L62.23 32.59L62.23 31.08L63.23 31.08L63.23 32.08L61.67 32.08L61.67 31.08L62.67 31.08L62.67 32.59ZM58.44 32.59L58.44 30.08L62 30.08L62 33.59L58.44 33.59L58.44 32.59ZM60.44 32.59L59.44 32.59L59.44 31.59L61 31.59L61 32.59L60 32.59L60 31.08L61 31.08L61 32.08L59.44 32.08L59.44 31.08L60.44 31.08L60.44 32.59ZM56.22 32.59L56.22 30.08L59.78 30.08L59.78 33.59L56.22 33.59L56.22 32.59ZM58.22 32.59L57.22 32.59L57.22 31.59L58.78 31.59L58.78 32.59L57.78 32.59L57.78 31.08L58.78 31.08L58.78 32.08L57.22 32.08L57.22 31.08L58.22 31.08L58.22 32.59ZM53.99 32.59L53.99 30.08L57.54 30.08L57.55 33.59L53.99 33.59L53.99 32.59ZM55.99 32.59L54.99 32.59L54.99 31.59L56.55 31.59L56.55 32.59L55.55 32.6L55.55 31.08L56.55 31.08L56.55 32.08L54.99 32.08L54.99 31.08L55.99 31.08L55.99 32.59ZM51.76 32.59L51.76 30.08L55.32 30.08L55.32 33.59L51.76 33.59L51.76 32.59ZM53.76 32.59L52.76 32.59L52.76 31.59L54.32 31.59L54.32 32.59L53.32 32.59L53.32 31.08L54.32 31.08L54.32 32.08L52.76 32.08L52.76 31.08L53.76 31.08L53.76 32.59ZM49.53 32.59L49.53 30.08L53.09 30.08L53.09 33.59L49.53 33.59L49.53 32.59ZM51.53 32.59L50.53 32.59L50.53 31.59L52.09 31.59L52.09 32.59L51.09 32.59L51.09 31.08L52.09 31.08L52.09 32.08L50.53 32.08L50.53 31.08L51.53 31.08L51.53 32.59ZM47.2 32.59L47.2 30.08L50.87 30.08L50.87 33.59L47.2 33.59L47.2 32.59ZM49.2 32.59L48.2 32.59L48.2 31.59L49.87 31.59L49.87 32.59L48.87 32.59L48.87 31.08L49.87 31.08L49.87 32.08L48.2 32.08L48.2 31.08L49.2 31.08L49.2 32.59ZM51.94 36.24L49.39 36.24L49.39 33.67L51.82 33.67L51.82 34.95L50.82 34.95L50.82 33.95L51.49 33.95L51.49 34.95L50.49 34.95L50.49 33.99L51.49 33.99L51.49 34.99L49.73 34.99L49.73 33.99L50.73 33.99L50.73 35.53L47.21 35.53L47.21 32.61L52.94 32.63L52.94 36.24L51.94 36.24ZM51.94 34.24L51.94 35.24L50.94 35.24L50.94 33.62L51.94 33.62L51.93 34.62L48.21 34.62L48.21 33.62L49.21 33.62L49.21 34.53L48.21 34.53L48.21 33.53L49.73 33.53L49.73 34.53L48.73 34.53L48.73 32.99L52.49 32.99L52.49 35.95L49.82 35.95L49.82 34.67L50.82 34.67L50.82 35.67L50.39 35.67L50.39 34.67L51.39 34.67L51.39 35.24L50.39 35.24L50.39 34.24L51.94 34.24ZM51.61 34.54L51.61 32.62L55.02 32.62L55.02 35.54L51.61 35.54L51.61 34.54ZM53.61 34.54L52.61 34.54L52.61 33.54L54.02 33.54L54.02 34.54L53.02 34.54L53.02 33.62L54.02 33.62L54.02 34.62L52.61 34.62L52.61 33.62L53.61 33.62L53.61 34.54ZM85.65 34.54L85.65 32.62L89.12 32.62L89.17 35.54L85.65 35.54L85.65 34.54ZM87.65 34.54L86.65 34.54L86.65 33.54L88.16 33.54L88.16 34.54L87.16 34.56L87.14 33.64L88.14 33.62L88.14 34.62L86.65 34.62L86.65 33.62L87.65 33.62L87.65 34.54ZM69.35 26.45Q69.31 26.97 68.93 27.33Q68.55 27.69 68.02 27.69Q67.49 27.69 67.11 27.33Q66.73 26.97 66.69 26.45L66.68 26.42L66.68 14.59L66.69 14.56Q66.73 14.03 67.11 13.68Q67.49 13.32 68.02 13.32Q68.55 13.32 68.93 13.68Q69.31 14.03 69.35 14.56L69.35 14.59L69.35 26.42L69.35 26.45ZM67.36 26.3L68.35 26.38L67.35 26.38L67.35 14.63L68.35 14.63L67.36 14.7Q67.38 14.96 67.56 15.14Q67.76 15.32 68.02 15.32Q68.28 15.32 68.47 15.14Q68.66 14.96 68.68 14.7L67.68 14.63L68.68 14.63L68.68 26.38L67.68 26.38L68.68 26.3Q68.66 26.05 68.47 25.87Q68.28 25.69 68.02 25.69Q67.76 25.69 67.56 25.87Q67.38 26.05 67.36 26.3ZM67.12 26.45Q67.08 26.97 66.7 27.33Q66.32 27.69 65.79 27.69Q65.27 27.69 64.88 27.33Q64.5 26.97 64.46 26.45L64.46 26.42L64.46 14.59L64.46 14.56Q64.5 14.03 64.88 13.68Q65.27 13.32 65.79 13.32Q66.32 13.32 66.7 13.68Q67.08 14.03 67.12 14.56L67.13 14.59L67.13 26.42L67.12 26.45ZM65.13 26.3L66.13 26.38L65.13 26.38L65.13 14.63L66.13 14.63L65.13 14.7Q65.15 14.96 65.34 15.14Q65.53 15.32 65.79 15.32Q66.05 15.32 66.25 15.14Q66.44 14.96 66.45 14.7L65.46 14.63L66.46 14.63L66.46 26.38L65.46 26.38L66.45 26.3Q66.44 26.05 66.25 25.87Q66.05 25.69 65.79 25.69Q65.53 25.69 65.34 25.87Q65.15 26.05 65.13 26.3ZM64.9 26.38Q64.9 26.93 64.51 27.32Q64.12 27.71 63.56 27.71Q63.01 27.71 62.62 27.32Q62.23 26.93 62.23 26.38L62.23 14.63Q62.23 14.08 62.62 13.69Q63.01 13.29 63.56 13.29Q64.12 13.29 64.51 13.69Q64.9 14.08 64.9 14.63L64.9 26.38ZM62.9 26.38L62.9 14.63Q62.9 14.9 63.09 15.1Q63.29 15.29 63.56 15.29Q63.84 15.29 64.04 15.1Q64.23 14.9 64.23 14.63L64.23 26.38Q64.23 26.11 64.04 25.91Q63.84 25.71 63.56 25.71Q63.29 25.71 63.09 25.91Q62.9 26.11 62.9 26.38ZM62.67 26.45Q62.63 26.97 62.25 27.33Q61.86 27.69 61.34 27.69Q60.81 27.69 60.43 27.33Q60.05 26.97 60.01 26.45L60 26.42L60 14.59L60.01 14.56Q60.05 14.03 60.43 13.68Q60.81 13.32 61.34 13.32Q61.86 13.32 62.25 13.68Q62.63 14.03 62.67 14.56L62.67 14.59L62.67 26.42L62.67 26.45ZM60.68 26.3L61.67 26.38L60.67 26.38L60.67 14.63L61.67 14.63L60.68 14.7Q60.69 14.96 60.88 15.14Q61.07 15.32 61.34 15.32Q61.6 15.32 61.79 15.14Q61.98 14.96 62 14.7L61 14.63L62 14.63L62 26.38L61 26.38L62 26.3Q61.98 26.05 61.79 25.87Q61.6 25.69 61.34 25.69Q61.07 25.69 60.88 25.87Q60.69 26.05 60.68 26.3ZM60.44 26.45Q60.4 26.97 60.02 27.33Q59.64 27.69 59.11 27.69Q58.58 27.69 58.2 27.33Q57.82 26.97 57.78 26.45L57.78 26.42L57.78 14.59L57.78 14.56Q57.82 14.03 58.2 13.68Q58.58 13.32 59.11 13.32Q59.64 13.32 60.02 13.68Q60.4 14.03 60.44 14.56L60.44 14.59L60.44 26.42L60.44 26.45ZM58.45 26.3L59.44 26.38L58.44 26.38L58.44 14.63L59.44 14.63L58.45 14.7Q58.47 14.96 58.66 15.14Q58.85 15.32 59.11 15.32Q59.37 15.32 59.56 15.14Q59.75 14.96 59.77 14.7L58.78 14.63L59.78 14.63L59.78 26.38L58.78 26.38L59.77 26.3Q59.75 26.05 59.56 25.87Q59.37 25.69 59.11 25.69Q58.85 25.69 58.66 25.87Q58.47 26.05 58.45 26.3ZM58.21 26.45Q58.17 26.97 57.79 27.33Q57.41 27.69 56.88 27.69Q56.36 27.69 55.97 27.33Q55.59 26.97 55.55 26.45L55.55 26.42L55.55 14.59L55.55 14.56Q55.59 14.03 55.97 13.68Q56.36 13.32 56.88 13.32Q57.41 13.32 57.79 13.68Q58.17 14.03 58.21 14.56L58.22 14.59L58.22 26.42L58.21 26.45ZM56.22 26.3L57.22 26.38L56.22 26.38L56.22 14.63L57.22 14.63L56.22 14.7Q56.24 14.96 56.43 15.14Q56.62 15.32 56.88 15.32Q57.15 15.32 57.34 15.14Q57.53 14.96 57.55 14.7L56.55 14.63L57.55 14.63L57.55 26.38L56.55 26.38L57.55 26.3Q57.53 26.05 57.34 25.87Q57.15 25.69 56.88 25.69Q56.62 25.69 56.43 25.87Q56.24 26.05 56.22 26.3ZM55.99 26.45Q55.95 26.97 55.57 27.33Q55.18 27.69 54.65 27.69Q54.13 27.69 53.74 27.33Q53.36 26.97 53.32 26.45L53.32 26.42L53.32 14.59L53.32 14.56Q53.36 14.03 53.74 13.68Q54.13 13.32 54.65 13.32Q55.18 13.32 55.57 13.68Q55.95 14.03 55.99 14.56L55.99 14.59L55.99 26.42L55.99 26.45ZM53.99 26.3L54.99 26.38L53.99 26.38L53.99 14.63L54.99 14.63L53.99 14.7Q54.01 14.96 54.2 15.14Q54.39 15.32 54.65 15.32Q54.92 15.32 55.11 15.14Q55.3 14.96 55.32 14.7L54.32 14.63L55.32 14.63L55.32 26.38L54.32 26.38L55.32 26.3Q55.3 26.05 55.11 25.87Q54.92 25.69 54.65 25.69Q54.39 25.69 54.2 25.87Q54.01 26.05 53.99 26.3ZM53.76 26.45Q53.72 26.97 53.34 27.33Q52.95 27.69 52.43 27.69Q51.9 27.69 51.52 27.33Q51.13 26.97 51.1 26.45L51.09 26.42L51.09 14.59L51.1 14.56Q51.13 14.03 51.52 13.68Q51.9 13.32 52.43 13.32Q52.95 13.32 53.34 13.68Q53.72 14.03 53.76 14.56L53.76 14.59L53.76 26.42L53.76 26.45ZM51.76 26.3L52.76 26.38L51.76 26.38L51.76 14.63L52.76 14.63L51.76 14.7Q51.78 14.96 51.97 15.14Q52.16 15.32 52.43 15.32Q52.69 15.32 52.88 15.14Q53.07 14.96 53.09 14.7L52.09 14.63L53.09 14.63L53.09 26.38L52.09 26.38L53.09 26.3Q53.07 26.05 52.88 25.87Q52.69 25.69 52.43 25.69Q52.16 25.69 51.97 25.87Q51.78 26.05 51.76 26.3ZM91.24 15.42Q91.63 15.81 91.63 16.36L91.63 26.42L91.63 26.45Q91.59 26.97 91.21 27.33Q90.82 27.69 90.3 27.69Q89.77 27.69 89.38 27.33Q89 26.97 88.96 26.45L88.96 26.42L88.96 16.37Q88.96 16.12 89.05 15.87Q89.15 15.62 89.34 15.43Q89.53 15.24 89.78 15.13Q90.02 15.03 90.29 15.03Q90.85 15.03 91.24 15.42ZM89.82 16.83Q90.02 17.03 90.29 17.03Q90.43 17.03 90.55 16.97Q90.68 16.92 90.77 16.82Q90.87 16.73 90.91 16.61Q90.96 16.48 90.96 16.37L90.96 26.38L89.96 26.38L90.96 26.3Q90.94 26.05 90.75 25.87Q90.56 25.69 90.3 25.69Q90.03 25.69 89.84 25.87Q89.65 26.05 89.63 26.3L90.63 26.38L89.63 26.38L89.63 16.36Q89.63 16.64 89.82 16.83L89.82 16.83ZM89.4 26.45Q89.36 26.97 88.98 27.33Q88.59 27.69 88.07 27.69Q87.54 27.69 87.15 27.33Q86.77 26.97 86.73 26.45L86.73 26.42L86.73 14.59L86.73 14.56Q86.77 14.03 87.15 13.68Q87.54 13.32 88.07 13.32Q88.59 13.32 88.98 13.68Q89.36 14.03 89.4 14.56L89.4 14.59L89.4 26.42L89.4 26.45ZM87.4 26.3L88.4 26.38L87.4 26.38L87.4 14.63L88.4 14.63L87.4 14.7Q87.42 14.96 87.61 15.14Q87.8 15.32 88.07 15.32Q88.33 15.32 88.52 15.14Q88.71 14.96 88.73 14.7L87.73 14.63L88.73 14.63L88.73 26.38L87.73 26.38L88.73 26.3Q88.71 26.05 88.52 25.87Q88.33 25.69 88.07 25.69Q87.8 25.69 87.61 25.87Q87.42 26.05 87.4 26.3ZM87.17 26.45Q87.13 26.97 86.75 27.33Q86.36 27.69 85.84 27.69Q85.31 27.69 84.93 27.33Q84.55 26.97 84.51 26.45L84.5 26.42L84.5 14.59L84.51 14.56Q84.55 14.03 84.93 13.68Q85.31 13.32 85.84 13.32Q86.36 13.32 86.75 13.68Q87.13 14.03 87.17 14.56L87.17 14.59L87.17 26.42L87.17 26.45ZM85.17 26.3L86.17 26.38L85.17 26.38L85.17 14.63L86.17 14.63L85.17 14.7Q85.19 14.96 85.38 15.14Q85.57 15.32 85.84 15.32Q86.1 15.32 86.29 15.14Q86.48 14.96 86.5 14.7L85.5 14.63L86.5 14.63L86.5 26.38L85.5 26.38L86.5 26.3Q86.48 26.05 86.29 25.87Q86.1 25.69 85.84 25.69Q85.57 25.69 85.38 25.87Q85.19 26.05 85.17 26.3ZM84.94 26.45Q84.9 26.97 84.52 27.33Q84.14 27.69 83.61 27.69Q83.08 27.69 82.7 27.33Q82.32 26.97 82.28 26.45L82.28 26.42L82.28 14.59L82.28 14.56Q82.32 14.03 82.7 13.68Q83.08 13.32 83.61 13.32Q84.14 13.32 84.52 13.68Q84.9 14.03 84.94 14.56L84.94 14.59L84.94 26.42L84.94 26.45ZM82.95 26.3L83.94 26.38L82.94 26.38L82.94 14.63L83.94 14.63L82.95 14.7Q82.97 14.96 83.16 15.14Q83.35 15.32 83.61 15.32Q83.87 15.32 84.06 15.14Q84.25 14.96 84.27 14.7L83.28 14.63L84.28 14.63L84.28 26.38L83.28 26.38L84.27 26.3Q84.25 26.05 84.06 25.87Q83.87 25.69 83.61 25.69Q83.35 25.69 83.16 25.87Q82.97 26.05 82.95 26.3ZM82.72 26.38Q82.72 26.93 82.33 27.32Q81.94 27.71 81.38 27.71Q80.83 27.71 80.44 27.32Q80.05 26.93 80.05 26.38L80.05 14.63Q80.05 14.08 80.44 13.69Q80.83 13.29 81.38 13.29Q81.94 13.29 82.33 13.69Q82.72 14.08 82.72 14.63L82.72 26.38ZM80.72 26.38L80.72 14.63Q80.72 14.9 80.91 15.1Q81.1 15.29 81.38 15.29Q81.66 15.29 81.86 15.1Q82.05 14.9 82.05 14.63L82.05 26.38Q82.05 26.11 81.86 25.91Q81.66 25.71 81.38 25.71Q81.1 25.71 80.91 25.91Q80.72 26.11 80.72 26.38ZM80.49 26.38Q80.49 26.93 80.1 27.32Q79.71 27.71 79.16 27.71Q78.6 27.71 78.21 27.32Q77.82 26.93 77.82 26.38L77.82 14.63Q77.82 14.08 78.21 13.69Q78.6 13.29 79.16 13.29Q79.71 13.29 80.1 13.69Q80.49 14.08 80.49 14.63L80.49 26.38ZM78.49 26.38L78.49 14.63Q78.49 14.9 78.68 15.1Q78.88 15.29 79.16 15.29Q79.43 15.29 79.63 15.1Q79.82 14.9 79.82 14.63L79.82 26.38Q79.82 26.11 79.63 25.91Q79.43 25.71 79.16 25.71Q78.88 25.71 78.68 25.91Q78.49 26.11 78.49 26.38ZM78.26 26.45Q78.22 26.97 77.84 27.33Q77.45 27.69 76.93 27.69Q76.4 27.69 76.02 27.33Q75.64 26.97 75.6 26.45L75.59 26.42L75.59 14.59L75.6 14.56Q75.64 14.03 76.02 13.68Q76.4 13.32 76.93 13.32Q77.45 13.32 77.84 13.68Q78.22 14.03 78.26 14.56L78.26 14.59L78.26 26.42L78.26 26.45ZM76.27 26.3L77.26 26.38L76.26 26.38L76.26 14.63L77.26 14.63L76.27 14.7Q76.28 14.96 76.47 15.14Q76.67 15.32 76.93 15.32Q77.19 15.32 77.38 15.14Q77.57 14.96 77.59 14.7L76.59 14.63L77.59 14.63L77.59 26.38L76.59 26.38L77.59 26.3Q77.57 26.05 77.38 25.87Q77.19 25.69 76.93 25.69Q76.67 25.69 76.47 25.87Q76.28 26.05 76.27 26.3ZM76.03 26.45Q75.99 26.97 75.61 27.33Q75.23 27.69 74.7 27.69Q74.17 27.69 73.79 27.33Q73.41 26.97 73.37 26.45L73.37 26.42L73.37 14.59L73.37 14.56Q73.41 14.03 73.79 13.68Q74.17 13.32 74.7 13.32Q75.23 13.32 75.61 13.68Q75.99 14.03 76.03 14.56L76.04 14.59L76.04 26.42L76.03 26.45ZM74.04 26.3L75.04 26.38L74.04 26.38L74.04 14.63L75.04 14.63L74.04 14.7Q74.06 14.96 74.25 15.14Q74.44 15.32 74.7 15.32Q74.96 15.32 75.16 15.14Q75.34 14.96 75.36 14.7L74.37 14.63L75.37 14.63L75.37 26.38L74.37 26.38L75.36 26.3Q75.34 26.05 75.16 25.87Q74.96 25.69 74.7 25.69Q74.44 25.69 74.25 25.87Q74.06 26.05 74.04 26.3ZM73.8 26.45Q73.77 26.97 73.38 27.33Q73 27.69 72.47 27.69Q71.95 27.69 71.56 27.33Q71.18 26.97 71.14 26.45L71.14 26.42L71.14 14.59L71.14 14.56Q71.18 14.03 71.56 13.68Q71.95 13.32 72.47 13.32Q73 13.32 73.38 13.68Q73.77 14.03 73.8 14.56L73.81 14.59L73.81 26.42L73.8 26.45ZM71.81 26.3L72.81 26.38L71.81 26.38L71.81 14.63L72.81 14.63L71.81 14.7Q71.83 14.96 72.02 15.14Q72.21 15.32 72.47 15.32Q72.74 15.32 72.93 15.14Q73.12 14.96 73.14 14.7L72.14 14.63L73.14 14.63L73.14 26.38L72.14 26.38L73.14 26.3Q73.12 26.05 72.93 25.87Q72.74 25.69 72.47 25.69Q72.21 25.69 72.02 25.87Q71.83 26.05 71.81 26.3ZM69.33 13.68Q69.72 13.32 70.25 13.32Q70.77 13.32 71.16 13.68Q71.54 14.03 71.58 14.56L71.58 14.59L71.58 26.42L71.58 26.45Q71.54 26.97 71.16 27.33Q70.77 27.69 70.25 27.69Q69.72 27.69 69.33 27.33Q68.95 26.97 68.91 26.45L68.91 26.42L68.91 14.59L68.91 14.56Q68.95 14.03 69.33 13.68ZM70.7 15.14Q70.89 14.96 70.91 14.7L69.91 14.63L70.91 14.63L70.91 26.38L69.91 26.38L70.91 26.3Q70.89 26.05 70.7 25.87Q70.51 25.69 70.25 25.69Q69.98 25.69 69.79 25.87Q69.6 26.05 69.58 26.3L70.58 26.38L69.58 26.38L69.58 14.63L70.58 14.63L69.58 14.7Q69.6 14.96 69.79 15.14Q69.98 15.32 70.25 15.32Q70.51 15.32 70.7 15.14ZM91.19 18.39Q91.23 17.87 91.61 17.51Q91.99 17.15 92.52 17.15Q93.05 17.15 93.43 17.51Q93.81 17.87 93.85 18.39L93.86 18.43L93.86 26.43L93.85 26.46Q93.81 26.98 93.43 27.34Q93.05 27.7 92.52 27.7Q91.99 27.7 91.61 27.34Q91.23 26.98 91.19 26.46L91.19 26.43L91.19 26.38L91.19 18.43L91.19 18.39ZM93.18 18.54L92.19 18.47L93.19 18.47L93.19 26.38L93.19 26.39L92.19 26.39L93.18 26.31Q93.16 26.06 92.98 25.88Q92.78 25.7 92.52 25.7Q92.26 25.7 92.07 25.88Q91.88 26.06 91.86 26.31L92.86 26.39L91.86 26.39L91.86 18.47L92.86 18.47L91.86 18.54Q91.88 18.8 92.07 18.98Q92.26 19.15 92.52 19.15Q92.78 19.15 92.98 18.98Q93.16 18.8 93.18 18.54ZM61 13.4L58.44 13.4L58.44 10.18L62 10.18L62 13.4L61 13.4ZM61 11.4L61 12.4L60 12.4L60 11.18L61 11.18L61 12.18L59.44 12.18L59.44 11.18L60.44 11.18L60.44 12.4L59.44 12.4L59.44 11.4L61 11.4ZM64.23 11.18L64.23 13.4L60.67 13.4L60.67 10.18L64.23 10.18L64.23 11.18ZM62.23 11.18L63.23 11.18L63.23 12.18L61.67 12.18L61.67 11.18L62.67 11.18L62.67 12.4L61.67 12.4L61.67 11.4L63.23 11.4L63.23 12.4L62.23 12.4L62.23 11.18ZM66.46 11.18L66.46 13.4L62.89 13.4L62.9 10.18L66.46 10.18L66.46 11.18ZM64.46 11.18L65.46 11.18L65.46 12.18L63.9 12.18L63.9 11.18L64.9 11.18L64.89 12.4L63.89 12.4L63.89 11.4L65.46 11.4L65.46 12.4L64.46 12.4L64.46 11.18ZM68.68 11.18L68.68 13.4L65.12 13.4L65.13 10.18L68.68 10.18L68.68 11.18ZM66.68 11.18L67.68 11.18L67.68 12.18L66.12 12.18L66.12 11.18L67.12 11.18L67.12 12.4L66.12 12.4L66.12 11.4L67.68 11.4L67.68 12.4L66.68 12.4L66.68 11.18ZM70.91 11.18L70.91 13.4L67.35 13.4L67.35 10.18L70.91 10.18L70.91 11.18ZM68.91 11.18L69.91 11.18L69.91 12.18L68.35 12.18L68.35 11.18L69.35 11.18L69.35 12.4L68.35 12.4L68.35 11.4L69.91 11.4L69.91 12.4L68.91 12.4L68.91 11.18ZM79.49 10.18L82.05 10.18L82.05 13.4L78.49 13.4L78.49 10.18L79.49 10.18ZM79.49 12.18L79.49 11.18L80.49 11.18L80.49 12.4L79.49 12.4L79.49 11.4L81.05 11.4L81.05 12.4L80.05 12.4L80.05 11.18L81.05 11.18L81.05 12.18L79.49 12.18ZM76.26 12.4L76.26 10.18L79.82 10.18L79.82 13.4L76.26 13.4L76.26 12.4ZM78.26 12.4L77.26 12.4L77.26 11.4L78.82 11.4L78.82 12.4L77.82 12.4L77.82 11.18L78.82 11.18L78.82 12.18L77.26 12.18L77.26 11.18L78.26 11.18L78.26 12.4ZM74.04 12.4L74.04 10.18L77.59 10.18L77.59 13.4L74.04 13.4L74.04 12.4ZM76.04 12.4L75.04 12.4L75.04 11.4L76.59 11.4L76.59 12.4L75.59 12.4L75.59 11.18L76.59 11.18L76.59 12.18L75.04 12.18L75.04 11.18L76.04 11.18L76.04 12.4ZM71.81 12.4L71.81 10.18L75.37 10.18L75.37 13.4L71.81 13.4L71.81 12.4ZM73.81 12.4L72.81 12.4L72.81 11.4L74.37 11.4L74.37 12.4L73.37 12.4L73.37 11.18L74.37 11.18L74.37 12.18L72.81 12.18L72.81 11.18L73.81 11.18L73.81 12.4ZM69.58 12.4L69.58 10.18L73.14 10.18L73.14 13.4L69.58 13.4L69.58 12.4ZM71.58 12.4L70.58 12.4L70.58 11.4L72.14 11.4L72.14 12.4L71.14 12.4L71.14 11.18L72.14 11.18L72.14 12.18L70.58 12.18L70.58 11.18L71.58 11.18L71.58 12.4ZM86.17 10.18L88.73 10.18L88.73 13.4L85.17 13.4L85.17 10.18L86.17 10.18ZM86.17 12.18L86.17 11.18L87.17 11.18L87.17 12.4L86.17 12.4L86.17 11.4L87.73 11.4L87.73 12.4L86.73 12.4L86.73 11.18L87.73 11.18L87.73 12.18L86.17 12.18ZM82.94 12.4L82.94 10.18L86.5 10.18L86.5 13.4L82.94 13.4L82.94 12.4ZM84.94 12.4L83.94 12.4L83.94 11.4L85.5 11.4L85.5 12.4L84.5 12.4L84.5 11.18L85.5 11.18L85.5 12.18L83.94 12.18L83.94 11.18L84.94 11.18L84.94 12.4ZM80.72 12.4L80.72 10.18L84.28 10.18L84.28 13.4L80.72 13.4L80.72 12.4ZM82.72 12.4L81.72 12.4L81.72 11.4L83.28 11.4L83.28 12.4L82.28 12.4L82.28 11.18L83.28 11.18L83.28 12.18L81.72 12.18L81.72 11.18L82.72 11.18L82.72 12.4ZM56.21 12.4L56.21 10.18L59.78 10.18L59.77 13.4L56.21 13.4L56.21 12.4ZM58.21 12.4L57.21 12.4L57.21 11.4L58.77 11.4L58.77 12.4L57.77 12.39L57.78 11.18L58.78 11.18L58.78 12.18L57.21 12.18L57.21 11.18L58.21 11.18L58.21 12.4ZM53.99 12.4L53.99 10.18L57.55 10.18L57.55 13.4L53.99 13.4L53.99 12.4ZM55.99 12.4L54.99 12.4L54.99 11.4L56.55 11.4L56.55 12.4L55.55 12.4L55.55 11.18L56.55 11.18L56.55 12.18L54.99 12.18L54.99 11.18L55.99 11.18L55.99 12.4ZM51.53 26.46Q51.49 26.98 51.11 27.34Q50.73 27.7 50.2 27.7Q49.67 27.7 49.29 27.34Q48.91 26.98 48.87 26.46L48.86 26.42L48.86 16.37L49.86 16.37L48.87 16.44Q48.85 16.16 48.94 15.9Q49.03 15.64 49.22 15.43Q49.41 15.23 49.66 15.12Q49.92 15 50.2 15Q50.48 15 50.74 15.12Q50.99 15.23 51.18 15.43Q51.37 15.64 51.46 15.9Q51.55 16.16 51.53 16.44L50.53 16.37L51.53 16.37L51.53 26.42L51.53 26.46ZM49.54 26.31L50.53 26.38L49.53 26.38L49.53 16.33L49.54 16.29Q49.53 16.43 49.57 16.56Q49.62 16.69 49.71 16.79Q49.8 16.89 49.93 16.95Q50.06 17 50.2 17Q50.34 17 50.47 16.95Q50.6 16.89 50.69 16.79Q50.78 16.69 50.83 16.56Q50.87 16.43 50.86 16.29L50.86 16.33L50.86 26.38L49.86 26.38L50.86 26.31Q50.84 26.05 50.65 25.87Q50.46 25.7 50.2 25.7Q49.94 25.7 49.74 25.87Q49.56 26.05 49.54 26.31ZM49.31 26.39Q49.31 26.94 48.92 27.33Q48.53 27.72 47.97 27.72Q47.42 27.72 47.03 27.33Q46.64 26.94 46.64 26.39L46.64 18.47Q46.64 17.92 47.03 17.53Q47.42 17.13 47.97 17.13Q48.53 17.13 48.92 17.53Q49.31 17.92 49.31 18.47L49.31 26.39ZM47.31 26.39L47.31 18.47Q47.31 18.74 47.5 18.93Q47.69 19.13 47.97 19.13Q48.25 19.13 48.45 18.93Q48.64 18.74 48.64 18.47L48.64 26.39Q48.64 26.12 48.45 25.92Q48.25 25.72 47.97 25.72Q47.69 25.72 47.5 25.92Q47.31 26.12 47.31 26.39ZM55.01 38.67L55.01 40.58L51.59 40.58L51.59 37.67L55.01 37.67L55.01 38.67ZM53.01 38.67L54.01 38.67L54.01 39.67L52.59 39.67L52.59 38.67L53.59 38.67L53.59 39.58L52.59 39.58L52.59 38.58L54.01 38.58L54.01 39.58L53.01 39.58L53.01 38.67ZM89.14 38.67L89.14 40.58L85.63 40.58L85.64 37.67L89.14 37.67L89.14 38.67ZM87.14 38.67L88.14 38.67L88.14 39.67L86.64 39.67L86.64 38.67L87.64 38.67L87.63 39.58L86.63 39.58L86.63 38.58L88.14 38.58L88.14 39.58L87.14 39.58L87.14 38.67ZM90.02 34.56L90.02 34.01L91.02 34.01L91.02 35.01L89.26 35.01L89.26 34.01L90.26 34.01L90.26 34.96L89.26 34.96L89.26 33.96L89.92 33.96L89.92 34.96L88.92 34.96L88.92 33.68L91.35 33.68L91.35 36.26L87.81 36.26L87.81 32.64L93.45 32.64L93.45 35.56L90.02 35.56L90.02 34.56ZM92.02 34.56L91.02 34.56L91.02 33.56L92.45 33.56L92.45 34.56L91.45 34.56L91.45 33.64L92.45 33.64L92.45 34.64L88.81 34.64L88.81 33.64L89.81 33.64L89.81 35.26L88.81 35.26L88.81 34.26L90.35 34.26L90.35 35.26L89.35 35.26L89.35 34.68L90.35 34.68L90.35 35.68L89.92 35.68L89.92 34.68L90.92 34.68L90.92 35.96L88.26 35.96L88.26 33.01L92.02 33.01L92.02 34.56ZM89.63 32.61L89.63 30.09L93.45 30.09L93.45 33.61L89.63 33.61L89.63 32.61ZM91.63 32.61L90.63 32.61L90.63 31.61L92.45 31.61L92.45 32.61L91.45 32.61L91.45 31.09L92.45 31.09L92.45 32.09L90.63 32.09L90.63 31.09L91.63 31.09L91.63 32.61ZM87.4 12.4L87.4 10.18L90.96 10.18L90.96 13.4L87.4 13.4L87.4 12.4ZM89.4 12.4L88.4 12.4L88.4 11.4L89.96 11.4L89.96 12.4L88.96 12.4L88.96 11.18L89.96 11.18L89.96 12.18L88.4 12.18L88.4 11.18L89.4 11.18L89.4 12.4ZM82.21 4.78L84.54 4.78L84.54 9.19L83.54 9.19L83.54 8.19L88.83 8.19L88.83 11.14L81.51 11.14L81.51 7.55L82.51 7.55L82.51 8.55L78.52 8.55L78.52 5.96L82.21 5.96L82.21 6.96L81.21 6.96L81.21 4.78L82.21 4.78ZM82.21 6.78L82.21 5.78L83.21 5.78L83.21 7.96L79.52 7.96L79.52 6.96L80.52 6.96L80.52 7.55L79.52 7.55L79.52 6.55L83.51 6.55L83.51 10.14L82.51 10.14L82.51 9.14L87.83 9.14L87.83 10.14L86.83 10.14L86.83 9.19L87.83 9.19L87.83 10.19L82.54 10.19L82.54 5.78L83.54 5.78L83.54 6.78L82.21 6.78ZM71.13 5.96L74.75 5.96L74.75 6.96L73.75 6.96L73.75 3.31L74.75 3.31L74.75 4.31L72.19 4.31L72.19 3.31L73.19 3.31L73.19 5.24L72.19 5.24L72.19 4.24L72.85 4.24L72.85 5.24L71.85 5.24L71.85 2.98L75.08 2.98L75.08 7.29L70.79 7.29L70.79 1.71L76.85 1.71L76.85 6.96L75.85 6.96L75.85 5.96L79.86 5.96L79.86 8.55L69.73 8.55L69.73 3.91L72.13 3.91L72.13 6.96L71.13 6.96L71.13 5.96ZM70.13 7.96L70.13 4.91L71.13 4.91L71.13 5.91L70.73 5.91L70.73 4.91L71.73 4.91L71.73 7.55L70.73 7.55L70.73 6.55L78.86 6.55L78.86 7.55L77.86 7.55L77.86 6.96L78.86 6.96L78.86 7.96L74.85 7.96L74.85 2.71L75.85 2.71L75.85 3.71L71.79 3.71L71.79 2.71L72.79 2.71L72.79 6.29L71.79 6.29L71.79 5.29L74.08 5.29L74.08 6.29L73.08 6.29L73.08 3.98L74.08 3.98L74.08 4.98L72.85 4.98L72.85 3.98L73.85 3.98L73.85 6.24L71.19 6.24L71.19 2.31L75.75 2.31L75.75 7.96L71.13 7.96L70.13 7.96ZM64.75 1.71L69.82 1.71L69.82 7.29L65.53 7.29L65.53 2.98L68.76 2.98L68.76 5.24L67.76 5.24L67.76 4.24L68.42 4.24L68.42 5.24L67.42 5.24L67.42 3.31L68.42 3.31L68.42 4.31L65.86 4.31L65.86 3.31L66.86 3.31L66.86 6.96L65.86 6.96L65.86 5.96L69.48 5.96L69.48 6.96L68.48 6.96L68.48 3.91L71.07 3.91L71.07 8.55L60.76 8.55L60.76 5.96L64.75 5.96L64.75 6.96L63.75 6.96L63.75 1.71L64.75 1.71ZM64.75 3.71L64.75 2.71L65.75 2.71L65.75 7.96L61.76 7.96L61.76 6.96L62.76 6.96L62.76 7.55L61.76 7.55L61.76 6.55L70.07 6.55L70.07 7.55L69.07 7.55L69.07 4.91L70.07 4.91L70.07 5.91L69.48 5.91L69.48 4.91L70.48 4.91L70.48 7.96L64.86 7.96L64.86 2.31L69.42 2.31L69.42 6.24L66.76 6.24L66.76 3.98L67.76 3.98L67.76 4.98L66.53 4.98L66.53 3.98L67.53 3.98L67.53 6.29L66.53 6.29L66.53 5.29L68.82 5.29L68.82 6.29L67.82 6.29L67.82 2.71L68.82 2.71L68.82 3.71L64.75 3.71ZM56.06 9.19L56.06 4.78L59.38 4.78L59.38 6.96L58.38 6.96L58.38 5.96L62.07 5.96L62.07 8.55L58.27 8.55L58.27 7.55L59.27 7.55L59.27 11.15L51.76 11.15L51.76 8.19L57.06 8.19L57.06 9.19L56.06 9.19ZM58.06 10.19L52.76 10.19L52.76 9.19L53.76 9.19L53.76 10.15L52.76 10.15L52.76 9.15L58.27 9.15L58.27 10.15L57.27 10.15L57.27 6.55L61.07 6.55L61.07 7.55L60.07 7.55L60.07 6.96L61.07 6.96L61.07 7.96L57.38 7.96L57.38 5.78L58.38 5.78L58.38 6.78L57.06 6.78L57.06 5.78L58.06 5.78L58.06 9.19L58.06 10.19ZM53.09 11.18L53.09 13.4L49.53 13.4L49.53 10.18L53.09 10.18L53.09 11.18ZM51.09 11.18L52.09 11.18L52.09 12.18L50.53 12.18L50.53 11.18L51.53 11.18L51.53 12.4L50.53 12.4L50.53 11.4L52.09 11.4L52.09 12.4L51.09 12.4L51.09 11.18ZM41.05 33.49L38.49 33.49L38.49 30.27L42.05 30.27L42.05 33.49L41.05 33.49ZM41.05 31.49L41.05 32.49L40.05 32.49L40.05 31.27L41.05 31.27L41.05 32.27L39.49 32.27L39.49 31.27L40.49 31.27L40.49 32.49L39.49 32.49L39.49 31.49L41.05 31.49ZM38.82 33.49L36.26 33.49L36.26 30.27L39.82 30.27L39.82 33.49L38.82 33.49ZM38.82 31.49L38.82 32.49L37.82 32.49L37.82 31.27L38.82 31.27L38.82 32.27L37.26 32.27L37.26 31.27L38.26 31.27L38.26 32.49L37.26 32.49L37.26 31.49L38.82 31.49ZM36.6 33.49L34.04 33.49L34.04 30.27L37.6 30.27L37.6 33.49L36.6 33.49ZM36.6 31.49L36.6 32.49L35.6 32.49L35.6 31.27L36.6 31.27L36.6 32.27L35.04 32.27L35.04 31.27L36.04 31.27L36.04 32.49L35.04 32.49L35.04 31.49L36.6 31.49ZM35.37 31.27L35.37 33.49L31.81 33.49L31.81 30.27L35.37 30.27L35.37 31.27ZM33.37 31.27L34.37 31.27L34.37 32.27L32.81 32.27L32.81 31.27L33.81 31.27L33.81 32.49L32.81 32.49L32.81 31.49L34.37 31.49L34.37 32.49L33.37 32.49L33.37 31.27ZM33.14 31.27L33.14 33.49L29.58 33.49L29.58 30.27L33.14 30.27L33.14 31.27ZM31.14 31.27L32.14 31.27L32.14 32.27L30.58 32.27L30.58 31.27L31.58 31.27L31.58 32.49L30.58 32.49L30.58 31.49L32.14 31.49L32.14 32.49L31.14 32.49L31.14 31.27ZM30.91 31.27L30.91 33.49L27.35 33.49L27.35 30.27L30.91 30.27L30.91 31.27ZM28.91 31.27L29.91 31.27L29.91 32.27L28.35 32.27L28.35 31.27L29.35 31.27L29.35 32.49L28.35 32.49L28.35 31.49L29.91 31.49L29.91 32.49L28.91 32.49L28.91 31.27ZM28.68 31.27L28.68 33.49L25.12 33.49L25.12 30.27L28.68 30.27L28.68 31.27ZM26.68 31.27L27.68 31.27L27.68 32.27L26.12 32.27L26.12 31.27L27.12 31.27L27.12 32.49L26.12 32.49L26.12 31.49L27.68 31.49L27.68 32.49L26.68 32.49L26.68 31.27ZM23.05 47.71Q22.81 47.61 22.62 47.42Q22.43 47.23 22.33 46.98Q22.23 46.74 22.23 46.47L22.23 38.51L22.23 38.48Q22.27 37.96 22.65 37.6Q23.04 37.24 23.56 37.24Q24.09 37.24 24.47 37.6Q24.86 37.96 24.89 38.48L24.9 38.51L24.9 46.47Q24.9 47.02 24.51 47.41Q24.12 47.8 23.57 47.81L23.56 47.81Q23.3 47.81 23.05 47.71L23.05 47.71ZM23.82 45.86Q23.69 45.81 23.56 45.81L23.56 45.81Q23.28 45.81 23.09 46.01Q22.9 46.2 22.9 46.47L22.9 38.55L23.9 38.55L22.9 38.63Q22.92 38.88 23.11 39.06Q23.3 39.24 23.56 39.24Q23.83 39.24 24.02 39.06Q24.21 38.88 24.23 38.63L23.23 38.55L24.23 38.55L24.23 46.47Q24.23 46.34 24.18 46.22Q24.13 46.1 24.03 46Q23.94 45.91 23.82 45.86L23.82 45.86ZM22.64 52.69L22.64 50.18L26.46 50.18L26.46 53.69L22.64 53.69L22.64 52.69ZM24.64 52.69L23.64 52.69L23.64 51.69L25.46 51.69L25.46 52.69L24.46 52.69L24.46 51.18L25.46 51.18L25.46 52.18L23.64 52.18L23.64 51.18L24.64 51.18L24.64 52.69ZM26.7 47.42Q26.32 47.78 25.79 47.78Q25.27 47.78 24.88 47.42Q24.5 47.07 24.46 46.55L24.46 46.51L24.46 36.46L25.46 36.46L24.46 36.53Q24.44 36.25 24.53 35.99Q24.62 35.73 24.81 35.52Q25 35.32 25.26 35.21Q25.51 35.09 25.79 35.09Q26.07 35.09 26.33 35.21Q26.58 35.32 26.77 35.52Q26.96 35.73 27.05 35.99Q27.14 36.25 27.12 36.53L26.13 36.46L27.13 36.46L27.13 46.51L27.12 46.55Q27.08 47.07 26.7 47.42L26.7 47.42ZM25.34 45.96Q25.15 46.14 25.13 46.4L26.13 46.47L25.13 46.47L25.13 36.42L25.13 36.38Q25.12 36.52 25.16 36.65Q25.21 36.78 25.3 36.88Q25.4 36.98 25.52 37.04Q25.65 37.09 25.79 37.09Q25.93 37.09 26.06 37.04Q26.19 36.98 26.28 36.88Q26.38 36.78 26.42 36.65Q26.47 36.52 26.46 36.38L26.46 36.42L26.46 46.47L25.46 46.47L26.46 46.4Q26.44 46.14 26.25 45.96Q26.06 45.78 25.79 45.78Q25.53 45.78 25.34 45.96ZM25.13 52.69L25.13 50.18L28.69 50.18L28.69 53.69L25.13 53.69L25.13 52.69ZM27.13 52.69L26.13 52.69L26.13 51.69L27.69 51.69L27.69 52.69L26.69 52.69L26.69 51.18L27.69 51.18L27.69 52.18L26.13 52.18L26.13 51.18L27.13 51.18L27.13 52.69ZM28.93 47.42Q28.55 47.78 28.02 47.78Q27.49 47.78 27.11 47.42Q26.73 47.07 26.69 46.55L26.69 46.51L26.69 34.69L26.69 34.65Q26.73 34.13 27.11 33.77Q27.49 33.41 28.02 33.41Q28.55 33.41 28.93 33.77Q29.31 34.13 29.35 34.65L29.35 34.69L29.35 46.51L29.35 46.55Q29.31 47.07 28.93 47.42L28.93 47.42ZM27.57 45.96Q27.38 46.14 27.36 46.4L28.35 46.47L27.35 46.47L27.35 34.72L28.35 34.72L27.36 34.8Q27.38 35.06 27.57 35.23Q27.76 35.41 28.02 35.41Q28.28 35.41 28.47 35.23Q28.66 35.06 28.68 34.8L27.69 34.72L28.69 34.72L28.69 46.47L27.69 46.47L28.68 46.4Q28.66 46.14 28.47 45.96Q28.28 45.78 28.02 45.78Q27.76 45.78 27.57 45.96ZM27.35 52.69L27.35 50.18L30.91 50.18L30.91 53.69L27.35 53.69L27.35 52.69ZM29.35 52.69L28.35 52.69L28.35 51.69L29.91 51.69L29.91 52.69L28.91 52.69L28.91 51.18L29.91 51.18L29.91 52.18L28.35 52.18L28.35 51.18L29.35 51.18L29.35 52.69ZM31.16 47.42Q30.77 47.78 30.25 47.78Q29.72 47.78 29.34 47.42Q28.96 47.07 28.92 46.55L28.91 46.51L28.91 34.69L28.92 34.65Q28.96 34.13 29.34 33.77Q29.72 33.41 30.25 33.41Q30.77 33.41 31.16 33.77Q31.54 34.13 31.58 34.65L31.58 34.69L31.58 46.51L31.58 46.55Q31.54 47.07 31.16 47.42ZM29.79 45.96Q29.6 46.14 29.58 46.4L30.58 46.47L29.58 46.47L29.58 34.72L30.58 34.72L29.58 34.8Q29.6 35.06 29.79 35.23Q29.98 35.41 30.25 35.41Q30.51 35.41 30.7 35.23Q30.89 35.06 30.91 34.8L29.91 34.72L30.91 34.72L30.91 46.47L29.91 46.47L30.91 46.4Q30.89 46.14 30.7 45.96Q30.51 45.78 30.25 45.78Q29.98 45.78 29.79 45.96ZM29.58 52.69L29.58 50.18L33.14 50.18L33.14 53.69L29.58 53.69L29.58 52.69ZM31.58 52.69L30.58 52.69L30.58 51.69L32.14 51.69L32.14 52.69L31.14 52.69L31.14 51.18L32.14 51.18L32.14 52.18L30.58 52.18L30.58 51.18L31.58 51.18L31.58 52.69ZM33.39 47.42Q33 47.78 32.48 47.78Q31.95 47.78 31.56 47.42Q31.18 47.07 31.14 46.55L31.14 46.51L31.14 34.69L31.14 34.65Q31.18 34.13 31.56 33.77Q31.95 33.41 32.48 33.41Q33 33.41 33.39 33.77Q33.77 34.13 33.81 34.65L33.81 34.69L33.81 46.51L33.81 46.55Q33.77 47.07 33.39 47.42ZM32.02 45.96Q31.83 46.14 31.81 46.4L32.81 46.47L31.81 46.47L31.81 34.72L32.81 34.72L31.81 34.8Q31.83 35.06 32.02 35.23Q32.21 35.41 32.48 35.41Q32.74 35.41 32.93 35.23Q33.12 35.06 33.14 34.8L32.14 34.72L33.14 34.72L33.14 46.47L32.14 46.47L33.14 46.4Q33.12 46.14 32.93 45.96Q32.74 45.78 32.48 45.78Q32.21 45.78 32.02 45.96ZM31.81 52.69L31.81 50.18L35.37 50.18L35.37 53.69L31.81 53.69L31.81 52.69ZM33.81 52.69L32.81 52.69L32.81 51.69L34.37 51.69L34.37 52.69L33.37 52.69L33.37 51.18L34.37 51.18L34.37 52.18L32.81 52.18L32.81 51.18L33.81 51.18L33.81 52.69ZM35.61 47.42Q35.23 47.78 34.7 47.78Q34.18 47.78 33.79 47.42Q33.41 47.07 33.37 46.55L33.37 46.51L33.37 34.69L33.37 34.65Q33.41 34.13 33.79 33.77Q34.18 33.41 34.7 33.41Q35.23 33.41 35.61 33.77Q36 34.13 36.03 34.65L36.04 34.69L36.04 46.51L36.03 46.55Q36 47.07 35.61 47.42ZM34.25 45.96Q34.06 46.14 34.04 46.4L35.04 46.47L34.04 46.47L34.04 34.72L35.04 34.72L34.04 34.8Q34.06 35.05 34.25 35.23Q34.44 35.41 34.7 35.41Q34.97 35.41 35.16 35.23Q35.35 35.05 35.37 34.8L34.37 34.72L35.37 34.72L35.37 46.47L34.37 46.47L35.37 46.4Q35.35 46.14 35.16 45.96Q34.97 45.78 34.7 45.78Q34.44 45.78 34.25 45.96ZM34.04 52.69L34.04 50.18L37.6 50.18L37.6 53.69L34.04 53.69L34.04 52.69ZM36.04 52.69L35.04 52.69L35.04 51.69L36.6 51.69L36.6 52.69L35.6 52.69L35.6 51.18L36.6 51.18L36.6 52.18L35.04 52.18L35.04 51.18L36.04 51.18L36.04 52.69ZM37.88 47.41Q37.48 47.81 36.93 47.81Q36.38 47.81 35.98 47.41Q35.6 47.02 35.6 46.47L35.6 34.72Q35.6 34.17 35.98 33.78Q36.38 33.39 36.93 33.39Q37.48 33.39 37.88 33.78Q38.26 34.17 38.26 34.72L38.26 46.47Q38.26 47.02 37.88 47.41ZM36.46 46.01Q36.26 46.2 36.26 46.47L36.26 34.72Q36.26 35 36.46 35.19Q36.65 35.39 36.93 35.39Q37.21 35.39 37.4 35.19Q37.6 35 37.6 34.72L37.6 46.47Q37.6 46.2 37.4 46.01Q37.21 45.81 36.93 45.81Q36.65 45.81 36.46 46.01ZM36.26 52.69L36.26 50.18L39.82 50.18L39.82 53.69L36.26 53.69L36.26 52.69ZM38.26 52.69L37.26 52.69L37.26 51.69L38.82 51.69L38.82 52.69L37.82 52.69L37.82 51.18L38.82 51.18L38.82 52.18L37.26 52.18L37.26 51.18L38.26 51.18L38.26 52.69ZM40.07 47.42Q39.68 47.78 39.16 47.78Q38.63 47.78 38.25 47.42Q37.86 47.07 37.83 46.55L37.82 46.51L37.82 34.69L37.83 34.65Q37.86 34.13 38.25 33.77Q38.63 33.41 39.16 33.41Q39.68 33.41 40.07 33.77Q40.45 34.13 40.49 34.65L40.49 34.69L40.49 46.51L40.49 46.55Q40.45 47.07 40.07 47.42ZM38.7 45.96Q38.51 46.14 38.49 46.4L39.49 46.47L38.49 46.47L38.49 34.72L39.49 34.72L38.49 34.8Q38.51 35.05 38.7 35.23Q38.89 35.41 39.16 35.41Q39.42 35.41 39.61 35.23Q39.8 35.06 39.82 34.8L38.82 34.72L39.82 34.72L39.82 46.47L38.82 46.47L39.82 46.4Q39.8 46.14 39.61 45.96Q39.42 45.78 39.16 45.78Q38.89 45.78 38.7 45.96ZM38.49 52.69L38.49 50.18L42.05 50.18L42.05 53.69L38.49 53.69L38.49 52.69ZM40.49 52.69L39.49 52.69L39.49 51.69L41.05 51.69L41.05 52.69L40.05 52.69L40.05 51.18L41.05 51.18L41.05 52.18L39.49 52.18L39.49 51.18L40.49 51.18L40.49 52.69ZM42.3 47.42Q41.92 47.78 41.39 47.78Q40.87 47.78 40.48 47.42Q40.1 47.07 40.06 46.55L40.06 46.51L40.06 34.69L40.06 34.65Q40.1 34.13 40.48 33.77Q40.87 33.41 41.39 33.41Q41.92 33.41 42.3 33.77Q42.68 34.13 42.72 34.65L42.73 34.69L42.73 46.51L42.72 46.55Q42.68 47.07 42.3 47.42ZM40.94 45.96Q40.75 46.14 40.73 46.4L41.73 46.47L40.73 46.47L40.73 34.72L41.73 34.72L40.73 34.8Q40.75 35.05 40.94 35.23Q41.13 35.41 41.39 35.41Q41.66 35.41 41.85 35.23Q42.04 35.06 42.06 34.8L41.06 34.72L42.06 34.72L42.06 46.47L41.06 46.47L42.06 46.4Q42.04 46.14 41.85 45.96Q41.66 45.78 41.39 45.78Q41.13 45.78 40.94 45.96ZM40.73 52.69L40.73 50.18L44.29 50.18L44.29 53.69L40.73 53.69L40.73 52.69ZM42.73 52.69L41.73 52.69L41.73 51.69L43.29 51.69L43.29 52.69L42.29 52.69L42.29 51.18L43.29 51.18L43.29 52.18L41.73 52.18L41.73 51.18L42.73 51.18L42.73 52.69ZM42.29 34.72Q42.29 34.28 42.55 33.93Q42.81 33.57 43.24 33.44L44.52 33.06L44.52 48.1L43.26 47.76Q42.83 47.64 42.55 47.28Q42.28 46.93 42.28 46.48L42.27 45.47L43.29 45.47L43.29 46.47L42.29 46.47L42.29 34.72L42.29 34.72ZM44.29 34.72L44.29 47.47L43.28 47.47L43.28 46.47L44.28 46.46Q44.28 46.24 44.14 46.06Q44 45.89 43.79 45.83L43.52 46.79L42.52 46.79L42.52 34.4L43.52 34.4L43.81 35.36Q44.02 35.3 44.15 35.12Q44.28 34.95 44.29 34.73L44.29 34.72ZM48.21 39.6L51.29 39.6L51.29 45.52L49.01 45.52L49.01 44.52L50.01 44.52L50.01 46.98L47.21 46.98L47.21 39.6L48.21 39.6ZM48.21 41.6L48.21 40.6L49.21 40.6L49.21 45.98L48.21 45.98L48.21 44.98L49.01 44.98L49.01 45.98L48.01 45.98L48.01 43.52L50.29 43.52L50.29 44.52L49.29 44.52L49.29 40.6L50.29 40.6L50.29 41.6L48.21 41.6ZM52.52 48.38L48.66 48.38L48.66 44.19L52.54 44.19L52.54 47.2L49.94 47.2L49.94 45.68L50.94 45.68L50.94 46.68L50.27 46.68L50.27 45.68L51.27 45.68L51.27 46.88L50.27 46.88L50.27 45.88L52.2 45.88L52.2 46.88L51.2 46.88L51.2 44.52L52.2 44.52L52.2 45.52L49.94 45.52L49.94 39.6L55.01 39.6L55.01 41.67L54.01 41.67L54.01 40.67L55.38 40.67L55.38 43.29L52.52 43.29L52.52 42.29L53.52 42.29L53.52 48.38L52.52 48.38ZM52.52 46.38L52.52 47.38L51.52 47.38L51.52 41.29L54.38 41.29L54.38 42.29L53.38 42.29L53.38 41.67L54.38 41.67L54.38 42.67L53.01 42.67L53.01 40.6L54.01 40.6L54.01 41.6L50.94 41.6L50.94 40.6L51.94 40.6L51.94 44.52L50.94 44.52L50.94 43.52L53.2 43.52L53.2 47.88L49.27 47.88L49.27 44.68L51.94 44.68L51.94 46.2L50.94 46.2L50.94 45.2L51.54 45.2L51.54 46.2L50.54 46.2L50.54 45.19L51.54 45.19L51.54 46.19L49.66 46.19L49.66 45.19L50.66 45.19L50.66 47.38L49.66 47.38L49.66 46.38L52.52 46.38ZM59.59 42.97L59.59 44.63L55.77 44.63L55.8 41.97L59.59 41.97L59.59 42.97ZM57.59 42.97L58.59 42.97L58.59 43.97L56.79 43.97L56.79 42.97L57.79 42.98L57.78 43.64L56.78 43.63L56.78 42.63L58.59 42.63L58.59 43.63L57.59 43.63L57.59 42.97ZM80.87 44.63L78.31 44.63L78.31 41.97L81.87 41.97L81.87 44.63L80.87 44.63ZM80.87 42.63L80.87 43.63L79.87 43.63L79.87 42.97L80.87 42.97L80.87 43.97L79.31 43.97L79.31 42.97L80.31 42.97L80.31 43.63L79.31 43.63L79.31 42.63L80.87 42.63ZM76.08 43.63L76.08 41.97L79.64 41.97L79.64 44.63L76.08 44.63L76.08 43.63ZM78.08 43.63L77.08 43.63L77.08 42.63L78.64 42.63L78.64 43.63L77.64 43.63L77.64 42.97L78.64 42.97L78.64 43.97L77.08 43.97L77.08 42.97L78.08 42.97L78.08 43.63ZM73.86 43.63L73.86 41.97L77.41 41.97L77.41 44.63L73.86 44.63L73.86 43.63ZM75.86 43.63L74.86 43.63L74.86 42.63L76.41 42.63L76.41 43.63L75.41 43.63L75.41 42.97L76.41 42.97L76.41 43.97L74.86 43.97L74.86 42.97L75.86 42.97L75.86 43.63ZM71.63 43.63L71.63 41.97L75.19 41.97L75.19 44.63L71.63 44.63L71.63 43.63ZM73.63 43.63L72.63 43.63L72.63 42.63L74.19 42.63L74.19 43.63L73.19 43.63L73.19 42.97L74.19 42.97L74.19 43.97L72.63 43.97L72.63 42.97L73.63 42.97L73.63 43.63ZM69.4 43.63L69.4 41.97L72.96 41.97L72.96 44.63L69.4 44.63L69.4 43.63ZM71.4 43.63L70.4 43.63L70.4 42.63L71.96 42.63L71.96 43.63L70.96 43.63L70.96 42.97L71.96 42.97L71.96 43.97L70.4 43.97L70.4 42.97L71.4 42.97L71.4 43.63ZM67.17 43.63L67.17 41.97L70.73 41.97L70.73 44.63L67.17 44.63L67.17 43.63ZM69.17 43.63L68.17 43.63L68.17 42.63L69.73 42.63L69.73 43.63L68.73 43.63L68.73 42.97L69.73 42.97L69.73 43.97L68.17 43.97L68.17 42.97L69.17 42.97L69.17 43.63ZM64.94 43.63L64.94 41.97L68.5 41.97L68.5 44.63L64.94 44.63L64.94 43.63ZM66.94 43.63L65.94 43.63L65.94 42.63L67.5 42.63L67.5 43.63L66.5 43.63L66.5 42.97L67.5 42.97L67.5 43.97L65.94 43.97L65.94 42.97L66.94 42.97L66.94 43.63ZM62.72 43.63L62.72 41.97L66.28 41.97L66.28 44.63L62.72 44.63L62.72 43.63ZM64.72 43.63L63.72 43.63L63.72 42.63L65.28 42.63L65.28 43.63L64.28 43.63L64.28 42.97L65.28 42.97L65.28 43.97L63.72 43.97L63.72 42.97L64.72 42.97L64.72 43.63ZM60.49 43.63L60.49 41.97L64.05 41.97L64.05 44.63L60.49 44.63L60.49 43.63ZM62.49 43.63L61.49 43.63L61.49 42.63L63.05 42.63L63.05 43.63L62.05 43.63L62.05 42.97L63.05 42.97L63.05 43.97L61.49 43.97L61.49 42.97L62.49 42.97L62.49 43.63ZM58.26 43.63L58.26 41.97L61.82 41.97L61.82 44.63L58.26 44.63L58.26 43.63ZM60.26 43.63L59.26 43.63L59.26 42.63L60.82 42.63L60.82 43.63L59.82 43.63L59.82 42.97L60.82 42.97L60.82 43.97L59.26 43.97L59.26 42.97L60.26 42.97L60.26 43.63ZM81.54 41.97L84.86 41.97L84.86 44.63L80.54 44.63L80.54 41.97L81.54 41.97ZM81.54 43.97L81.54 42.97L82.54 42.97L82.54 43.63L81.54 43.63L81.54 42.63L83.86 42.63L83.86 43.63L82.86 43.63L82.86 42.97L83.86 42.97L83.86 43.97L81.54 43.97ZM54.06 42.29L54.06 40.67L86.58 40.67L86.58 43.29L84.19 43.29L54.06 43.29L54.06 42.29ZM56.06 42.29L55.06 42.29L55.06 41.29L84.19 41.29L85.58 41.29L85.58 42.29L84.58 42.29L84.58 41.67L85.58 41.67L85.58 42.67L55.06 42.67L55.06 41.67L56.06 41.67L56.06 42.29ZM87.12 47.38L87.12 42.29L88.12 42.29L88.12 43.29L85.24 43.29L85.24 40.67L86.63 40.67L86.63 41.67L85.63 41.67L85.63 39.6L90.7 39.6L90.7 45.52L88.44 45.52L88.44 44.52L89.44 44.52L89.44 46.87L88.44 46.87L88.44 45.87L90.37 45.87L90.37 46.87L89.37 46.87L89.37 45.68L90.37 45.68L90.37 46.68L89.7 46.68L89.7 45.68L90.7 45.68L90.7 47.2L88.1 47.2L88.1 44.19L91.98 44.19L91.98 48.38L87.12 48.38L87.12 47.38ZM89.12 47.38L88.12 47.38L88.12 46.38L90.98 46.38L90.98 47.38L89.98 47.38L89.98 45.2L90.98 45.19L90.98 46.19L89.1 46.19L89.1 45.19L90.1 45.19L90.1 46.2L89.1 46.2L89.1 45.2L89.7 45.2L89.7 46.2L88.7 46.2L88.7 44.68L91.37 44.68L91.37 47.87L87.44 47.87L87.44 43.52L89.7 43.52L89.7 44.52L88.7 44.52L88.7 40.6L89.7 40.6L89.7 41.6L86.63 41.6L86.63 40.6L87.63 40.6L87.63 42.67L86.24 42.67L86.24 41.67L87.24 41.67L87.24 42.29L86.24 42.29L86.24 41.29L89.12 41.29L89.12 47.38ZM91.65 45.52L89.37 45.52L89.37 39.6L93.45 39.6L93.45 46.98L90.65 46.98L90.65 44.52L91.65 44.52L91.65 45.52ZM92.65 43.52L92.65 45.98L91.65 45.98L91.65 44.98L92.45 44.98L92.45 45.98L91.45 45.98L91.45 40.6L92.45 40.6L92.45 41.6L90.37 41.6L90.37 40.6L91.37 40.6L91.37 44.52L90.37 44.52L90.37 43.52L91.65 43.52L92.65 43.52ZM96.12 46.81L96.12 33.5L97.02 33.4Q97.15 33.39 97.28 33.4L97.18 34.4L97.18 33.4Q97.73 33.4 98.12 33.79Q98.51 34.18 98.51 34.73L98.51 46.5L98.51 46.52Q98.49 47.05 98.11 47.43Q97.72 47.81 97.19 47.81L97.18 47.81L97.18 46.81L97.28 47.8Q97.15 47.82 97.02 47.8L96.12 47.71L96.12 46.81ZM98.12 46.81L97.12 46.81L97.23 45.81Q97.15 45.81 97.08 45.81L97.13 45.81L97.17 45.81Q96.9 45.81 96.71 46Q96.52 46.18 96.51 46.45L97.51 46.48L96.51 46.48L96.51 34.73Q96.51 35.01 96.7 35.2Q96.9 35.4 97.18 35.4L97.13 35.4L97.08 35.39Q97.15 35.4 97.23 35.39L97.12 34.4L98.12 34.4L98.12 46.81ZM96.51 52.69L96.51 50.18L100.07 50.18L100.07 53.69L96.51 53.69L96.51 52.69ZM98.51 52.69L97.51 52.69L97.51 51.69L99.07 51.69L99.07 52.69L98.07 52.69L98.07 51.18L99.07 51.18L99.07 52.18L97.51 52.18L97.51 51.18L98.51 51.18L98.51 52.69ZM96.51 32.49L96.51 30.27L100.07 30.27L100.07 33.49L96.51 33.49L96.51 32.49ZM98.51 32.49L97.51 32.49L97.51 31.49L99.07 31.49L99.07 32.49L98.07 32.49L98.07 31.27L99.07 31.27L99.07 32.27L97.51 32.27L97.51 31.27L98.51 31.27L98.51 32.49ZM98.46 47.41Q98.07 47.02 98.07 46.47L98.07 34.69L98.08 34.65Q98.11 34.13 98.5 33.77Q98.88 33.41 99.41 33.41Q99.93 33.41 100.32 33.77Q100.7 34.13 100.74 34.65L100.74 34.69L100.74 46.47Q100.74 46.74 100.64 46.98Q100.54 47.23 100.35 47.42Q100.16 47.61 99.92 47.71Q99.67 47.81 99.4 47.81Q98.85 47.81 98.46 47.41ZM99.88 46.01Q99.68 45.81 99.41 45.81Q99.28 45.81 99.15 45.86Q99.03 45.91 98.93 46Q98.84 46.1 98.79 46.22Q98.74 46.34 98.74 46.47L98.74 34.72L99.74 34.72L98.74 34.8Q98.76 35.06 98.95 35.23Q99.14 35.41 99.41 35.41Q99.67 35.41 99.86 35.23Q100.05 35.06 100.07 34.8L99.07 34.72L100.07 34.72L100.07 46.47Q100.07 46.2 99.88 46.01L99.88 46.01ZM98.74 52.69L98.74 50.18L102.3 50.18L102.3 53.69L98.74 53.69L98.74 52.69ZM100.74 52.69L99.74 52.69L99.74 51.69L101.3 51.69L101.3 52.69L100.3 52.69L100.3 51.18L101.3 51.18L101.3 52.18L99.74 52.18L99.74 51.18L100.74 51.18L100.74 52.69ZM98.74 32.49L98.74 30.27L102.3 30.27L102.3 33.49L98.74 33.49L98.74 32.49ZM100.74 32.49L99.74 32.49L99.74 31.49L101.3 31.49L101.3 32.49L100.3 32.49L100.3 31.27L101.3 31.27L101.3 32.27L99.74 32.27L99.74 31.27L100.74 31.27L100.74 32.49ZM100.69 47.41Q100.3 47.02 100.3 46.47L100.3 34.69L100.3 34.65Q100.34 34.13 100.72 33.77Q101.11 33.41 101.64 33.41Q102.16 33.41 102.55 33.77Q102.93 34.13 102.97 34.65L102.97 34.69L102.97 46.47Q102.97 46.74 102.87 46.98Q102.77 47.23 102.58 47.42Q102.39 47.61 102.14 47.71Q101.9 47.81 101.63 47.81Q101.08 47.81 100.69 47.41ZM102.11 46.01Q101.91 45.81 101.64 45.81Q101.51 45.81 101.38 45.86Q101.26 45.91 101.16 46Q101.07 46.1 101.02 46.22Q100.97 46.34 100.97 46.47L100.97 34.72L101.97 34.72L100.97 34.8Q100.99 35.06 101.18 35.23Q101.37 35.41 101.64 35.41Q101.9 35.41 102.09 35.23Q102.28 35.06 102.3 34.8L101.3 34.72L102.3 34.72L102.3 46.47Q102.3 46.2 102.11 46.01ZM100.97 52.69L100.97 50.18L104.53 50.18L104.53 53.69L100.97 53.69L100.97 52.69ZM102.97 52.69L101.97 52.69L101.97 51.69L103.53 51.69L103.53 52.69L102.53 52.7L102.53 51.18L103.53 51.18L103.53 52.18L101.97 52.18L101.97 51.18L102.97 51.18L102.97 52.69ZM100.97 32.49L100.97 30.27L104.53 30.27L104.53 33.49L100.97 33.49L100.97 32.49ZM102.97 32.49L101.97 32.49L101.97 31.49L103.53 31.49L103.53 32.49L102.53 32.49L102.53 31.28L103.53 31.27L103.53 32.27L101.97 32.27L101.97 31.27L102.97 31.27L102.97 32.49ZM102.92 47.41Q102.53 47.02 102.53 46.47L102.53 34.69L102.53 34.65Q102.57 34.13 102.95 33.77Q103.34 33.41 103.86 33.41Q104.39 33.41 104.77 33.77Q105.16 34.13 105.19 34.65L105.2 34.69L105.2 46.47Q105.2 46.74 105.1 46.98Q104.99 47.23 104.81 47.42Q104.62 47.61 104.37 47.71Q104.12 47.81 103.86 47.81Q103.31 47.81 102.92 47.41ZM104.34 46.01Q104.14 45.81 103.87 45.81Q103.73 45.81 103.61 45.86Q103.49 45.91 103.39 46Q103.3 46.1 103.25 46.22Q103.2 46.34 103.2 46.47L103.2 34.72L104.2 34.72L103.2 34.8Q103.22 35.06 103.41 35.23Q103.6 35.41 103.86 35.41Q104.13 35.41 104.32 35.23Q104.51 35.06 104.53 34.8L103.53 34.72L104.53 34.72L104.53 46.47Q104.53 46.2 104.34 46.01L104.34 46.01ZM103.2 52.69L103.2 50.18L106.76 50.18L106.76 53.69L103.2 53.69L103.2 52.69ZM105.2 52.69L104.2 52.69L104.2 51.69L105.76 51.69L105.76 52.69L104.76 52.69L104.76 51.18L105.76 51.18L105.76 52.18L104.2 52.18L104.2 51.18L105.2 51.18L105.2 52.69ZM103.2 32.49L103.2 30.27L106.76 30.27L106.76 33.49L103.2 33.49L103.2 32.49ZM105.2 32.49L104.2 32.49L104.2 31.49L105.76 31.49L105.76 32.49L104.76 32.49L104.76 31.27L105.76 31.27L105.76 32.27L104.2 32.27L104.2 31.27L105.2 31.27L105.2 32.49ZM105.14 47.41Q104.76 47.02 104.76 46.47L104.76 34.72Q104.76 34.17 105.14 33.78Q105.54 33.39 106.09 33.39Q106.64 33.39 107.04 33.78Q107.42 34.17 107.42 34.72L107.42 46.47Q107.42 47.02 107.04 47.41Q106.64 47.81 106.09 47.81Q105.54 47.81 105.14 47.41L105.14 47.41ZM106.56 46.01Q106.37 45.81 106.09 45.81Q105.81 45.81 105.62 46.01Q105.42 46.2 105.42 46.47L105.42 34.72Q105.42 35 105.62 35.19Q105.81 35.39 106.09 35.39Q106.37 35.39 106.56 35.19Q106.76 35 106.76 34.72L106.76 46.47Q106.76 46.2 106.56 46.01L106.56 46.01ZM105.43 52.69L105.43 50.18L108.98 50.18L108.98 53.69L105.43 53.69L105.43 52.69ZM107.43 52.69L106.43 52.69L106.43 51.69L107.98 51.69L107.98 52.69L106.98 52.69L106.98 51.18L107.98 51.18L107.98 52.18L106.43 52.18L106.43 51.18L107.43 51.18L107.43 52.69ZM105.43 32.49L105.43 30.27L108.98 30.27L108.98 33.49L105.43 33.49L105.43 32.49ZM107.43 32.49L106.43 32.49L106.43 31.49L107.98 31.49L107.98 32.49L106.98 32.49L106.98 31.27L107.98 31.27L107.98 32.27L106.43 32.27L106.43 31.27L107.43 31.27L107.43 32.49ZM107.81 47.71Q107.56 47.61 107.37 47.42Q107.19 47.23 107.09 46.98Q106.98 46.74 106.98 46.47L106.98 34.69L106.99 34.65Q107.03 34.13 107.41 33.77Q107.79 33.41 108.32 33.41Q108.84 33.41 109.23 33.77Q109.61 34.13 109.65 34.65L109.65 34.69L109.65 46.47Q109.65 46.74 109.55 46.98Q109.45 47.23 109.26 47.42Q109.07 47.61 108.83 47.71Q108.58 47.81 108.31 47.81L108.32 45.81L108.32 45.81L108.33 47.81Q108.06 47.81 107.81 47.71L107.81 47.71ZM108.57 45.86Q108.45 45.81 108.31 45.81L108.32 46.81L108.32 47.81L108.32 47.81L108.32 46.81L108.32 45.81Q108.19 45.81 108.06 45.86Q107.94 45.91 107.85 46Q107.75 46.1 107.7 46.22Q107.65 46.34 107.65 46.47L107.65 34.72L108.65 34.72L107.66 34.8Q107.67 35.06 107.86 35.23Q108.06 35.41 108.32 35.41Q108.58 35.41 108.77 35.23Q108.96 35.06 108.98 34.8L107.98 34.72L108.98 34.72L108.98 46.47Q108.98 46.34 108.93 46.22Q108.88 46.1 108.79 46Q108.7 45.91 108.57 45.86L108.57 45.86ZM107.65 52.69L107.65 50.18L111.21 50.18L111.21 53.69L107.65 53.69L107.65 52.69ZM109.65 52.69L108.65 52.69L108.65 51.69L110.21 51.69L110.21 52.69L109.21 52.69L109.21 51.18L110.21 51.18L110.21 52.18L108.65 52.18L108.65 51.18L109.65 51.18L109.65 52.69ZM107.65 32.49L107.65 30.27L111.21 30.27L111.21 33.49L107.65 33.49L107.65 32.49ZM109.65 32.49L108.65 32.49L108.65 31.49L110.21 31.49L110.21 32.49L109.21 32.49L109.21 31.27L110.21 31.27L110.21 32.27L108.65 32.27L108.65 31.27L109.65 31.27L109.65 32.49ZM110.04 47.71Q109.79 47.61 109.6 47.42Q109.42 47.23 109.31 46.98Q109.21 46.74 109.21 46.47L109.21 34.69L109.22 34.65Q109.26 34.13 109.64 33.77Q110.02 33.41 110.55 33.41Q111.07 33.41 111.46 33.77Q111.84 34.13 111.88 34.65L111.88 34.69L111.88 46.47Q111.88 46.74 111.78 46.98Q111.68 47.23 111.49 47.42Q111.3 47.61 111.05 47.71Q110.8 47.81 110.53 47.81L110.55 45.81L110.55 45.81L110.55 47.81Q110.29 47.81 110.04 47.71L110.04 47.71ZM110.8 45.86Q110.68 45.81 110.54 45.81L110.55 46.81L110.55 47.81L110.55 47.81L110.55 46.81L110.56 45.81Q110.42 45.81 110.3 45.86Q110.17 45.91 110.08 46Q109.98 46.1 109.93 46.22Q109.88 46.34 109.88 46.47L109.88 34.72L110.88 34.72L109.89 34.8Q109.9 35.06 110.09 35.23Q110.29 35.41 110.55 35.41Q110.81 35.41 111 35.23Q111.19 35.06 111.21 34.8L110.21 34.72L111.21 34.72L111.21 46.47Q111.21 46.34 111.16 46.22Q111.11 46.1 111.02 46Q110.93 45.91 110.8 45.86L110.8 45.86ZM109.87 52.69L109.87 50.18L113.42 50.18L113.45 53.69L109.87 53.69L109.87 52.69ZM111.87 52.69L110.87 52.69L110.87 51.69L112.44 51.69L112.44 52.69L111.44 52.7L111.43 51.19L112.43 51.18L112.43 52.18L110.87 52.18L110.87 51.18L111.87 51.18L111.87 52.69ZM109.87 32.49L109.87 30.27L113.42 30.27L113.45 33.49L109.87 33.49L109.87 32.49ZM111.87 32.49L110.87 32.49L110.87 31.49L112.44 31.49L112.44 32.49L111.44 32.5L111.43 31.28L112.43 31.27L112.43 32.27L110.87 32.27L110.87 31.27L111.87 31.27L111.87 32.49ZM112.27 47.71Q112.02 47.61 111.83 47.42Q111.65 47.23 111.54 46.98Q111.44 46.74 111.44 46.47L111.44 34.69L111.45 34.65Q111.49 34.13 111.87 33.77Q112.25 33.41 112.78 33.41Q113.3 33.41 113.69 33.77Q114.07 34.13 114.11 34.65L114.11 34.69L114.11 46.47Q114.11 46.74 114.01 46.99Q113.9 47.24 113.71 47.43Q113.51 47.62 113.25 47.72Q113 47.82 112.73 47.81L112.77 45.81L112.78 45.81L112.78 47.81Q112.52 47.81 112.27 47.71L112.27 47.71ZM113.03 45.86Q112.91 45.81 112.77 45.81L112.78 46.81L112.78 47.81L112.77 47.81L112.77 46.81L112.81 45.81Q112.67 45.8 112.54 45.85Q112.41 45.9 112.31 46Q112.22 46.09 112.16 46.22Q112.11 46.34 112.11 46.47L112.11 34.72L113.11 34.72L112.11 34.8Q112.13 35.06 112.32 35.23Q112.51 35.41 112.78 35.41Q113.04 35.41 113.23 35.23Q113.42 35.06 113.44 34.8L112.44 34.72L113.44 34.72L113.44 46.47Q113.44 46.34 113.39 46.22Q113.34 46.1 113.25 46Q113.16 45.91 113.03 45.86L113.03 45.86ZM112.11 52.69L112.11 50.18L115.65 50.18L115.68 53.69L112.11 53.69L112.11 52.69ZM114.11 52.69L113.11 52.69L113.11 51.69L114.67 51.69L114.67 52.69L113.67 52.7L113.66 51.19L114.66 51.18L114.66 52.18L113.11 52.18L113.11 51.18L114.11 51.18L114.11 52.69ZM112.11 32.49L112.11 30.27L115.65 30.27L115.68 33.49L112.11 33.49L112.11 32.49ZM114.11 32.49L113.11 32.49L113.11 31.49L114.67 31.49L114.67 32.49L113.67 32.5L113.66 31.28L114.66 31.27L114.66 32.27L113.11 32.27L113.11 31.27L114.11 31.27L114.11 32.49ZM114.06 47.41Q113.67 47.02 113.67 46.47L113.67 36.46L114.67 36.46L113.68 36.53Q113.66 36.25 113.75 35.99Q113.84 35.73 114.03 35.52Q114.21 35.32 114.47 35.21Q114.73 35.09 115.01 35.09Q115.29 35.09 115.54 35.21Q115.8 35.32 115.99 35.52Q116.18 35.73 116.27 35.99Q116.36 36.25 116.34 36.53L115.34 36.46L116.34 36.46L116.34 46.47Q116.34 46.74 116.24 46.99Q116.13 47.24 115.94 47.43Q115.75 47.62 115.49 47.72Q115.24 47.82 114.97 47.81L115 45.81L115.01 45.81L115.01 47.81Q114.45 47.81 114.06 47.41ZM115.48 46.01Q115.28 45.81 115.01 45.81L115.01 46.81L115.01 47.81L115 47.81L115 46.81L115.03 45.81Q114.89 45.8 114.76 45.85Q114.64 45.9 114.54 46Q114.44 46.09 114.39 46.22Q114.34 46.34 114.34 46.47L114.34 36.42L114.34 36.38Q114.33 36.52 114.38 36.65Q114.42 36.78 114.52 36.88Q114.61 36.98 114.74 37.04Q114.87 37.09 115.01 37.09Q115.15 37.09 115.28 37.04Q115.4 36.98 115.5 36.88Q115.59 36.78 115.64 36.65Q115.68 36.52 115.67 36.38L115.67 36.42L115.67 46.47Q115.67 46.2 115.48 46.01ZM114.34 52.69L114.34 50.18L118.16 50.18L118.16 53.69L114.34 53.69L114.34 52.69ZM116.34 52.69L115.34 52.69L115.34 51.69L117.16 51.69L117.16 52.69L116.16 52.69L116.16 51.18L117.16 51.18L117.16 52.18L115.34 52.18L115.34 51.18L116.34 51.18L116.34 52.69ZM118.15 47.42Q117.76 47.78 117.24 47.78Q116.71 47.78 116.32 47.42Q115.94 47.07 115.9 46.55L115.9 46.51L115.9 38.51L115.9 38.48Q115.94 37.96 116.32 37.6Q116.71 37.24 117.24 37.24Q117.76 37.24 118.15 37.6Q118.53 37.96 118.57 38.48L118.57 38.51L118.57 46.51L118.57 46.55Q118.53 47.07 118.15 47.42ZM116.78 45.96Q116.59 46.14 116.57 46.4L117.57 46.47L116.57 46.47L116.57 38.55L117.57 38.55L116.57 38.63Q116.59 38.88 116.78 39.06Q116.97 39.24 117.24 39.24Q117.5 39.24 117.69 39.06Q117.88 38.88 117.9 38.63L116.9 38.55L117.9 38.55L117.9 46.47L116.9 46.47L117.9 46.4Q117.88 46.14 117.69 45.96Q117.5 45.78 117.24 45.78Q116.97 45.78 116.78 45.96L116.78 45.96Z" fill="#E13A4B" fill-opacity="1.000000" fill-rule="evenodd"/>
</svg>
