<svg width="45.000000" height="45.000000" viewBox="0 0 45 45" fill="none" xmlns="http://www.w3.org/2000/svg" xmlns:xlink="http://www.w3.org/1999/xlink">
	<desc>
			Created with Pixso.
	</desc>
	<defs/>
	<path id="Vector" d="M17.89 20.4C18.33 20.08 18.54 19.56 18.54 18.84C18.55 18.5 18.48 18.17 18.33 17.86C18.2 17.61 18 17.41 17.75 17.26C17.49 17.11 17.21 17 16.92 16.96C16.59 16.9 16.27 16.87 15.95 16.87L12.42 16.87L12.42 20.88L16.24 20.88C16.9 20.88 17.45 20.72 17.89 20.4ZM18.48 24.02C17.99 23.64 17.33 23.45 16.51 23.45L12.41 23.45L12.41 28.18L16.43 28.18C16.81 28.18 17.16 28.14 17.49 28.07C17.81 28.01 18.11 27.88 18.39 27.71C18.64 27.54 18.85 27.32 19 27.03C19.16 26.73 19.23 26.36 19.23 25.92C19.23 25.03 18.98 24.4 18.48 24.02ZM22.5 0C10.07 0 0 10.07 0 22.5C0 34.92 10.07 45 22.5 45C34.92 45 45 34.92 45 22.5C45 10.07 34.92 0 22.5 0ZM26.84 14.4L33.79 14.4L33.79 16.1L26.84 16.1L26.84 14.4ZM22.5 28.36C22.17 28.98 21.71 29.51 21.14 29.92C20.55 30.33 19.89 30.63 19.19 30.81C18.46 31 17.71 31.1 16.95 31.09L8.63 31.09L8.63 13.96L16.72 13.96C17.54 13.96 18.28 14.04 18.96 14.18C19.63 14.32 20.2 14.56 20.69 14.89C21.16 15.21 21.54 15.65 21.81 16.19C22.07 16.73 22.2 17.4 22.2 18.2C22.2 19.06 22.01 19.78 21.62 20.36C21.22 20.93 20.65 21.4 19.87 21.77C20.93 22.07 21.71 22.61 22.22 23.36C22.74 24.12 23 25.04 23 26.11C23 26.98 22.83 27.73 22.5 28.36ZM36.5 25.71L27.54 25.71C27.54 26.68 27.87 27.62 28.38 28.12C28.89 28.62 29.63 28.87 30.59 28.87C31.28 28.87 31.87 28.69 32.37 28.35C32.87 28 33.17 27.63 33.28 27.25L36.28 27.25C35.8 28.74 35.07 29.81 34.07 30.45C33.09 31.09 31.88 31.41 30.48 31.41C29.5 31.41 28.62 31.25 27.83 30.95C27.08 30.65 26.39 30.2 25.83 29.62C25.28 29.02 24.85 28.31 24.57 27.55C24.26 26.7 24.11 25.8 24.12 24.91C24.12 23.98 24.28 23.11 24.58 22.31C25.16 20.75 26.36 19.5 27.89 18.85C28.71 18.51 29.59 18.34 30.48 18.35C31.53 18.35 32.44 18.55 33.24 18.96C34 19.35 34.66 19.92 35.18 20.61C35.68 21.29 36.04 22.08 36.27 22.96C36.48 23.83 36.56 24.75 36.5 25.71ZM30.37 20.91C29.83 20.91 29.37 21 29.02 21.19C28.67 21.37 28.38 21.61 28.16 21.87C27.94 22.13 27.79 22.43 27.7 22.75C27.62 23.01 27.56 23.28 27.54 23.56L33.09 23.56C33.01 22.69 32.71 22.05 32.31 21.6C31.89 21.15 31.21 20.91 30.37 20.91Z" fill="#202147" fill-opacity="1.000000" fill-rule="nonzero"/>
</svg>
