<svg width="45.000000" height="45.000000" viewBox="0 0 45 45" fill="none" xmlns="http://www.w3.org/2000/svg" xmlns:xlink="http://www.w3.org/1999/xlink">
	<desc>
			Created with Pixso.
	</desc>
	<defs/>
	<g style="mix-blend-mode:normal">
		<path id="Vector" d="M3.95 3.95C6.48 1.42 9.91 0 13.5 0L31.5 0C35.08 0 38.51 1.42 41.04 3.95C43.57 6.48 45 9.91 45 13.5L45 31.5C45 35.08 43.57 38.51 41.04 41.04C38.51 43.57 35.08 45 31.5 45L13.5 45C9.91 45 6.48 43.57 3.95 41.04C1.42 38.51 0 35.08 0 31.5L0 13.5C0 9.91 1.42 6.48 3.95 3.95ZM36 12L33 12L33 9L36 9L36 12ZM15.07 15.07C13.1 17.04 12 19.71 12 22.5C12 25.28 13.1 27.95 15.07 29.92C17.04 31.89 19.71 33 22.5 33C25.28 33 27.95 31.89 29.92 29.92C31.89 27.95 33 25.28 33 22.5C33 19.71 31.89 17.04 29.92 15.07C27.95 13.1 25.28 12 22.5 12C19.71 12 17.04 13.1 15.07 15.07ZM17.19 17.19C18.6 15.79 20.51 15 22.5 15C24.48 15 26.39 15.79 27.8 17.19C29.2 18.6 30 20.51 30 22.5C30 24.48 29.2 26.39 27.8 27.8C26.39 29.21 24.48 30 22.5 30C20.51 30 18.6 29.21 17.19 27.8C15.79 26.39 15 24.48 15 22.5C15 20.51 15.79 18.6 17.19 17.19Z" fill="#202147" fill-opacity="1.000000" fill-rule="evenodd"/>
	</g>
</svg>
